<svg width="24" height="22" fill="none" xmlns="http://www.w3.org/2000/svg"><path d="M23.015 10.796a9.307 9.307 0 00-3.175-.547c.08-.065.16-.13.236-.199 1.235-1.085 2.166-2.71 2.693-4.698.394-1.49.426-2.65.427-2.699a.375.375 0 00-.336-.382c-.048-.005-1.203-.122-2.731.078-2.04.268-3.77.983-5.005 2.069-.88.774-1.595 1.797-2.129 3.047-.417-1.44-1.189-3.156-2.61-4.405C9.15 1.974 7.42 1.259 5.381.99 3.852.791 2.698.908 2.649.913a.375.375 0 00-.335.382c0 .049.032 1.209.427 2.699.526 1.988 1.457 3.612 2.692 4.698.065.058.133.114.201.17-2.006-1.018-4.44-.686-4.558-.669a.375.375 0 00-.321.352c-.002.036-.044.906.164 2.01.279 1.484.883 2.686 1.748 3.476.428.39.944.706 1.54.944a2.998 2.998 0 001.798 5.4 3.003 3.003 0 002.973-3.393c.133.012.267.018.402.018 0 2.481 2.018 4.5 4.5 4.5a4.505 4.505 0 004.49-4.786 5.068 5.068 0 001.784-.586c2.446-1.38 3.07-4.773 3.095-4.917a.375.375 0 00-.234-.415zM9.774 8.015l.003.002h-.013l.01-.002zm3.73.735a3.726 3.726 0 011.929.536l.01.007a3.75 3.75 0 011.608 4.428.37.37 0 00-.071.02 4.484 4.484 0 00-3.1-1.241c0-.932-.283-1.826-.817-2.586a4.517 4.517 0 00-.872-.928 3.716 3.716 0 011.314-.236zm2.116-3.769c2.267-1.993 5.694-2.031 6.803-1.986-.096 1.105-.57 4.495-2.842 6.492a7.086 7.086 0 01-1.958 1.2 4.51 4.51 0 00-.655-1.056l.42.087a.375.375 0 00.154-.734l-1.102-.23.704-.62 1.652.346a.375.375 0 00.154-.734l-1.102-.23.704-.62 1.652.346a.375.375 0 00.154-.734l-1.102-.23 1.127-.99a.375.375 0 00-.495-.564l-1.127.99-.087-1.121a.374.374 0 10-.748.058l.13 1.683-.703.619-.088-1.122a.374.374 0 10-.747.058l.13 1.683-.703.619-.088-1.122a.374.374 0 10-.747.058l.093 1.206a4.473 4.473 0 00-1.617-.332c.5-1.257 1.183-2.272 2.034-3.02zM3.087 1.637c1.11-.046 4.536-.007 6.803 1.986 1.443 1.269 2.158 3.097 2.51 4.513-.324.082-.638.2-.941.355-.002 0-.003.002-.005.003L10.27 7.45l.13-1.682a.375.375 0 00-.747-.058l-.087 1.121-.704-.619.13-1.682a.375.375 0 00-.747-.058l-.087 1.121-.704-.619.13-1.682a.375.375 0 00-.747-.058l-.088 1.121-1.126-.99a.375.375 0 10-.495.563l1.126.99-1.1.23a.375.375 0 00.153.735l1.651-.345.705.619-1.102.23a.375.375 0 00.154.734l1.652-.345.704.619-1.101.23a.375.375 0 00-.162.656c-.342.128-.67.3-.976.51a6.57 6.57 0 01-.903-.663c-2.267-1.993-2.744-5.387-2.84-6.492zm.086 11.84c-1.471-1.343-1.655-3.715-1.67-4.573a9.21 9.21 0 011.458.011c.806.071 1.91.287 2.81.897-.26.348-.465.73-.614 1.133l.069-.446a.375.375 0 00-.742-.113l-.098.644-.662-.604a.375.375 0 00-.505.554l.661.604-.632.156a.375.375 0 10.18.728l1.118-.277.23.21c.032.03.067.052.104.068v.031c0 .147.008.293.022.438l-.27.066a.375.375 0 00.18.728l.224-.055c.027.1.057.201.092.3l.004.01c.055.16.12.315.193.466a2.98 2.98 0 00-.171.046c-.805-.214-1.472-.557-1.981-1.022zm1.332 5.398a.375.375 0 11.75 0 .375.375 0 01-.75 0zm1.5.75a2.25 2.25 0 01-.273-.017 1.126 1.126 0 10-1.795-1.346 2.253 2.253 0 012.068-3.137c1.24 0 2.25 1.01 2.25 2.25s-1.01 2.25-2.25 2.25zM9.38 16.25a3.77 3.77 0 01-.615-.05 3.005 3.005 0 00-2.631-1.822 3.733 3.733 0 01-.292-.63l-.003-.009A3.74 3.74 0 017.184 9.46l.006-.004a3.721 3.721 0 012.19-.706 3.728 3.728 0 011.337.246A3.77 3.77 0 0113.13 12.5l-.002.063a4.511 4.511 0 00-3.685 3.685l-.063.002zm4.5 4.5A3.754 3.754 0 0110.13 17a3.754 3.754 0 013.75-3.75A3.754 3.754 0 0117.63 17a3.754 3.754 0 01-3.75 3.75zm5.906-5.275a4.327 4.327 0 01-1.525.497 4.472 4.472 0 00-.208-.655l.078.039a.374.374 0 00.504-.165.375.375 0 00-.166-.504l-.58-.295.848-.478 1.027.52a.373.373 0 00.504-.164.375.375 0 00-.165-.505l-.581-.294.78-.44a.375.375 0 00-.369-.653l-.78.44.049-.65a.375.375 0 00-.748-.055l-.086 1.148-.482.272a4.5 4.5 0 00-.016-2.127c1.076-.488 2.314-.448 3.173-.325.597.084 1.097.22 1.397.313-.208.832-.92 3.102-2.654 4.08z" fill="#3E3E3E"/><path d="M12.379 16.495c-.827 0-1.5.673-1.5 1.5s.673 1.5 1.5 1.5 1.5-.673 1.5-1.5-.673-1.5-1.5-1.5zm0 2.25a.75.75 0 010-1.5.75.75 0 010 1.5zm-1.126-6.62c.38 0 .672-.137.835-.394.188-.296.158-.678-.083-1.078-.193-.32-.512-.631-.898-.876-.387-.245-.805-.4-1.177-.439-.464-.047-.822.09-1.01.386-.187.295-.157.678.083 1.077.193.32.513.631.9.877.386.244.804.4 1.176.438.06.006.118.009.174.009zm-1.607-1.711c-.11-.184-.099-.278-.092-.289.006-.009.062-.046.202-.046a.98.98 0 01.099.006c.254.025.564.144.85.325.286.182.526.411.658.63.11.184.099.278.092.29-.007.01-.087.061-.3.04-.255-.026-.565-.145-.851-.326-.286-.181-.526-.41-.658-.63z" fill="#3E3E3E"/></svg>