<svg width="18" height="24" fill="none" xmlns="http://www.w3.org/2000/svg"><path d="M17.774 20.97a.375.375 0 00.226-.344V5.999a.375.375 0 00-.077-.23l-2.547-3.271V1.124A.375.375 0 0015 .75H3a.375.375 0 00-.375.374v1.374L.078 5.77A.38.38 0 000 5.999v16.875c0 .207.166.375.374.376h12a.395.395 0 00.148-.03l5.252-2.25zM3.374 1.5h11.252v.75H3.375V1.5zM3.185 3H14.23l-2.04 2.625H1.14l2.042-2.624zm11.442.717v14.925l-1.874 2.944V6.129l1.873-2.412zm.75.004l1.874 2.408v13.766l-1.874-1.338V3.721zM.75 6.375h11.251v2.25H.751v-2.25zm0 3h11.251V19.5H.751V9.376zm7.5 1.125c0 .455-.161.87-.42 1.187a2.615 2.615 0 00-1.454-.437c-.545 0-1.04.163-1.455.437a1.87 1.87 0 01-.42-1.186.371.371 0 00-.37-.375.371.371 0 00-.38.375c0 .642.227 1.23.61 1.687-.08.096-.15.195-.217.302a2.104 2.104 0 00-.829-.428 1.866 1.866 0 00-1.107.052c-.155.057-.291.13-.407.22a.717.717 0 00-.28.379.747.747 0 00.053.465c.056.134.138.266.244.392.212.253.526.494.932.604a2.01 2.01 0 001 .032v1.169c0 .384.081.747.23 1.077-.147.23-.23.505-.23.797 0 .84.676 1.501 1.5 1.501H7.5c.824 0 1.5-.662 1.5-1.501a1.48 1.48 0 00-.23-.798c.15-.33.23-.693.23-1.077v-1.169a2.01 2.01 0 001-.032c.406-.11.72-.35.932-.603.106-.127.188-.258.244-.393a.746.746 0 00.053-.465.716.716 0 00-.28-.38 1.529 1.529 0 00-.407-.219 1.867 1.867 0 00-1.107-.052 2.103 2.103 0 00-.83.428 2.589 2.589 0 00-.216-.302A2.603 2.603 0 009 10.5a.371.371 0 00-.382-.375.371.371 0 00-.368.375zm0 3.374v1.5c0 .19-.026.364-.077.535a1.49 1.49 0 00-.673-.158l-2.25.001c-.24 0-.47.056-.673.158a1.842 1.842 0 01-.077-.535v-1.5c0-1.021.822-1.874 1.876-1.874a1.87 1.87 0 011.874 1.873zm2.223-.962a.87.87 0 01-.116.176c-.126.15-.324.299-.551.36a1.31 1.31 0 01-.665.02c-.133-.04-.174-.088-.19-.104a7.712 7.712 0 00-.017-.076c0-.019.021-.087.117-.186.116-.121.322-.249.58-.318a1.152 1.152 0 01.656.036c.08.028.143.063.186.092zm-6.773.19c.095.1.116.168.116.187a5.951 5.951 0 00-.016.076c-.017.015-.058.065-.191.103a1.31 1.31 0 01-.664-.02 1.133 1.133 0 01-.551-.359.869.869 0 01-.117-.176.844.844 0 01.186-.093 1.149 1.149 0 01.656-.036c.258.07.465.197.58.318zm3.8 3.4c.444 0 .75.357.75.747 0 .413-.328.75-.75.75H5.25a.746.746 0 01-.75-.75c0-.389.306-.747.75-.747H7.5zm-1.875.373a.375.375 0 100 .75.375.375 0 000-.75zm1.5 0a.375.375 0 100 .75.375.375 0 000-.75zm7.98 2.411l1.759 1.256-3.522 1.51 1.762-2.766zM.75 20.25h11.251v2.25H.751v-2.25z" fill="#3E3E3E"/></svg>