<svg width="18" height="20" fill="none" xmlns="http://www.w3.org/2000/svg"><path d="M3.836 19.77h10.36a3.3 3.3 0 003.296-3.298V6.615a.586.586 0 00-.584-.584H13.4v-.877A4.39 4.39 0 009.015.769a4.39 4.39 0 00-4.384 4.385v.877H1.123a.586.586 0 00-.585.584v9.857a3.3 3.3 0 003.298 3.297zM5.8 5.153a3.217 3.217 0 013.215-3.215 3.217 3.217 0 013.216 3.215v.877H5.8v-.877zM1.708 7.2H4.63v1.462c0 .321.263.584.584.584a.586.586 0 00.585-.584V7.2h6.43v1.462c0 .321.264.584.585.584a.586.586 0 00.585-.584V7.2h2.923v9.272a2.132 2.132 0 01-2.128 2.128H3.835a2.132 2.132 0 01-2.127-2.128V7.2z" fill="#3E3E3E"/></svg>