<svg width="13" height="14" fill="none" xmlns="http://www.w3.org/2000/svg"><path d="M9.277 6.795c.39-.056.79-.128 1.195-.168.462-.047.928-.07 1.392-.096.13-.008.24.038.299.17.072.16.018.265-.157.27-.265.008-.531.004-.795.012-.627.018-1.246.095-1.888.23.133.734.053 1.44-.248 2.124.245.18.474.346.698.52.056.043.11.109.13.174.018.064.018.175-.02.204a.3.3 0 01-.232.038c-.077-.02-.138-.096-.206-.146l-.55-.392c-.286.639-.804.99-1.332 1.31.125.532.243 1.038.36 1.545.082.352.158.704.24 1.054.027.117.04.229-.07.31-.154.114-.33.04-.384-.172-.074-.285-.132-.575-.196-.861-.1-.445-.2-.89-.305-1.333-.024-.099-.07-.193-.112-.309-.768.186-1.487-.054-2.221-.24-.051.228-.094.439-.146.648-.05.204-.086.234-.233.213-.171-.024-.263-.113-.25-.285.011-.15.058-.297.085-.446.022-.12.038-.24.054-.35l-1.244-.788c-.156.136-.338.284-.508.447-.396.382-.788.77-1.182 1.157-.162.158-.402.144-.502-.037-.056-.1-.06-.189.038-.279.54-.494 1.074-.993 1.61-1.492.068-.064.132-.135.21-.213-.14-.27-.298-.54-.417-.824-.115-.279-.19-.573-.291-.887a3.55 3.55 0 00-.896.168 3.41 3.41 0 00-.213.08c-.333.132-.4.103-.58-.27.08-.046.16-.114.25-.14.31-.087.625-.16.935-.242.173-.047.34-.108.483-.154l.224-1.115c-.505-.51-.998-1.063-1.606-1.496-.155-.11-.298-.235-.447-.354-.022-.017-.046-.035-.065-.056-.08-.088-.165-.205-.063-.296.07-.062.212-.07.314-.056.072.01.136.096.2.15.605.506 1.229.991 1.768 1.569.032.033.074.06.138.113a3.382 3.382 0 011.376-1.3l-.485-.855c-.11-.19-.114-.283-.02-.355.117-.09.317-.053.425.105.121.181.212.381.318.572.045.081.093.161.149.257.645-.31 1.273-.611 2.022-.387.09-.382.17-.73.253-1.078.123-.517.248-1.036.373-1.552a.786.786 0 01.024-.082c.056-.157.145-.218.27-.184.125.034.207.17.17.314-.072.275-.157.547-.232.822l-.479 1.728c-.01.035-.01.075-.016.134.584.23 1.114.556 1.576 1.023.072-.061.132-.117.197-.165.154-.11.306-.224.466-.323.109-.067.219-.043.313.043.127.115.114.218-.028.315-.22.147-.432.304-.63.445.24.515.458.997.694 1.514zm-.306 1.06c-.04-.61-.218-1.339-.374-1.688-.413-.916-1.122-1.512-2.042-1.876-.485-.194-.965-.19-1.429.06-.35.19-.7.384-1.043.583-1.003.577-1.67 1.921-1.42 3.213.148.77.482 1.438 1.182 1.865.659.403 1.35.731 2.113.887.354.07.7.075 1.029-.093.17-.087.334-.18.496-.279 1.046-.646 1.429-1.644 1.488-2.672z" fill="#3E3E3E"/><path d="M5.66 7.384c-.217-.006-.308-.134-.21-.318.174-.325.36-.642.556-.954.214-.345.443-.681.667-1.02.098-.15.207-.146.306.003.091.139.065.264-.021.395-.22.331-.443.66-.653.997-.15.24-.283.49-.42.737-.052.096-.1.187-.225.16zm1.1.341c-.37.011-.472-.128-.312-.422.252-.466.52-.924.781-1.384.048-.087.11-.192.211-.116a.51.51 0 01.159.274c.014.058-.048.138-.083.205L6.76 7.725zm.544.397c-.035-.003-.104.002-.165-.018-.163-.054-.216-.174-.13-.33.105-.191.22-.377.343-.558.14-.203.291-.396.437-.596.058-.079.11-.16.229-.104.12.056.21.216.166.324-.032.079-.081.15-.13.22-.246.348-.49.696-.75 1.062z" fill="#3E3E3E"/></svg>