<svg width="16" height="17" fill="none" xmlns="http://www.w3.org/2000/svg"><g clip-path="url(#clip0_2014_18691)" fill="#3E3E3E"><path d="M14.594 9.313H12.53V7.569c0-.302.118-.586.332-.8.39-.39.606-.91.606-1.463V.969a.469.469 0 00-.938 0v2.656h-.937V.969a.469.469 0 00-.938 0v2.656H9.72V.969a.469.469 0 00-.938 0v4.337c0 .553.215 1.072.606 1.463.214.214.332.498.332.8v1.744H6.594V6.564c.777-.594 1.25-1.635 1.25-2.784 0-.855-.263-1.663-.74-2.276C6.6.857 5.92.5 5.187.5c-.732 0-1.412.357-1.916 1.005-.477.613-.74 1.421-.74 2.276 0 1.15.473 2.19 1.25 2.784v2.747H1.406A1.41 1.41 0 000 10.72v4.375c0 .775.63 1.406 1.406 1.406h13.188c.775 0 1.406-.63 1.406-1.406V10.72c0-.776-.63-1.406-1.406-1.406zm-4.875-4.75h2.812v.743c0 .302-.117.586-.331.8-.391.39-.606.91-.606 1.463v1.744h-.938V7.569c0-.553-.215-1.072-.606-1.463a1.124 1.124 0 01-.331-.8v-.744zm-6.25-.782c0-.647.192-1.251.542-1.7.322-.415.74-.643 1.176-.643.437 0 .855.228 1.177.642.35.45.542 1.054.542 1.701 0 .918-.402 1.757-1.026 2.139a.469.469 0 00-.224.4v2.992H4.72V6.32a.469.469 0 00-.224-.4C3.87 5.54 3.469 4.7 3.469 3.782zm11.594 11.313a.47.47 0 01-.47.469H1.407a.47.47 0 01-.468-.47V10.72a.47.47 0 01.468-.469h13.188a.47.47 0 01.469.469v4.375z"/><path d="M13.626 14.075h-.003l-.701.003v-2.734a.39.39 0 10-.781 0v3.122c0 .19.137.353.324.385.028.005.05.009.398.009l.765-.003a.39.39 0 00-.002-.781zm-5.791-.347a.39.39 0 00-.55.049.87.87 0 01-.685.301 1.173 1.173 0 01-1.172-1.172 1.173 1.173 0 011.826-.972.39.39 0 10.438-.647 1.955 1.955 0 00-3.045 1.62c0 1.076.876 1.952 1.953 1.952a1.65 1.65 0 001.283-.58.39.39 0 00-.048-.55zm3.74.602l-1.163-3.08-.004-.011a.46.46 0 00-.854.001l-.003.009-1.174 3.08a.39.39 0 10.73.279l.197-.516h1.346l.194.515a.39.39 0 10.731-.276zm-1.974-1.02l.379-.993.375.994h-.754zm-6.556-.467l1.275-1.172a.39.39 0 10-.528-.575l-1.026.943v-.695a.39.39 0 10-.782 0v3.125a.39.39 0 00.782 0v-.81l1.13 1.09a.39.39 0 00.542-.561l-1.393-1.345z"/></g><defs><clipPath id="clip0_2014_18691"><path fill="#fff" transform="translate(0 .5)" d="M0 0h16v16H0z"/></clipPath></defs></svg>