<svg width="16" height="17" fill="none" xmlns="http://www.w3.org/2000/svg"><g clip-path="url(#clip0_2014_18642)" fill="#3E3E3E"><path d="M8.001 8.795a4.151 4.151 0 01-4.147-4.147A4.151 4.151 0 018 .5a4.151 4.151 0 014.148 4.147A4.151 4.151 0 018 8.796zm0-7.577a3.434 3.434 0 00-3.43 3.43c0 1.892 1.54 3.43 3.43 3.43 1.893 0 3.43-1.54 3.43-3.43a3.432 3.432 0 00-3.43-3.43z"/><path d="M8 2.05a.357.357 0 01-.357-.357V.856a.357.357 0 11.715 0v.833c0 .2-.16.36-.358.36zm0 6.745a.357.357 0 01-.357-.357v-.833a.357.357 0 11.715 0v.833c0 .197-.16.357-.358.357zm3.79-3.79h-.837a.357.357 0 110-.715h.838a.357.357 0 110 .715zm-6.741 0H4.21a.357.357 0 110-.715h.838a.357.357 0 110 .715zm5.039-2.09a.36.36 0 01-.253-.612l.593-.59a.36.36 0 01.507.507l-.592.59a.364.364 0 01-.255.105zM5.32 7.685a.36.36 0 01-.252-.612l.592-.59a.36.36 0 01.508.507l-.593.59a.364.364 0 01-.255.105zm5.36 0a.354.354 0 01-.252-.105l-.593-.59a.36.36 0 01.508-.508l.592.59a.36.36 0 01-.255.613zm-4.767-4.77a.354.354 0 01-.253-.105l-.592-.59a.36.36 0 01.507-.508l.593.59a.36.36 0 01-.255.613zm2.088 2.407a.675.675 0 110-1.35.675.675 0 010 1.35zm0-.717a.042.042 0 00-.042.042c0 .045.082.045.082 0 .003-.022-.017-.042-.04-.042z"/><path d="M8.002 4.69a.357.357 0 01-.357-.358v-1.37a.357.357 0 11.715 0V4.33a.36.36 0 01-.358.36zm-.961 9.193a.357.357 0 01-.357-.358v-5.21a.357.357 0 11.715 0v5.21a.356.356 0 01-.358.357zm1.92 0a.357.357 0 01-.357-.358v-5.21a.357.357 0 11.715 0v5.21c0 .195-.16.357-.358.357z"/><path d="M15.298 15.295H.703a.357.357 0 01-.357-.357v-.653c0-.617.502-1.12 1.12-1.12H14.54c.617 0 1.12.503 1.12 1.12v.652a.362.362 0 01-.363.358zM1.061 14.58h13.88v-.295a.402.402 0 00-.403-.402H1.463a.402.402 0 00-.402.402v.295z"/><path d="M3.585 16.5h-.657c-.35 0-.635-.267-.635-.598v-.962a.357.357 0 11.715 0v.845h.497v-.845a.357.357 0 11.715 0v.963c.003.33-.282.597-.635.597zm9.489 0h-.658c-.35 0-.635-.267-.635-.598v-.962a.358.358 0 01.715 0v.845h.498v-.845a.357.357 0 11.715 0v.963c.002.33-.285.597-.635.597z"/></g><defs><clipPath id="clip0_2014_18642"><path fill="#fff" transform="translate(0 .5)" d="M0 0h16v16H0z"/></clipPath></defs></svg>