<svg width="32" height="32" fill="none" xmlns="http://www.w3.org/2000/svg"><defs><clipPath id="a"><path fill="#fff" fill-opacity="0" d="M0 0h32v32H0z"/></clipPath></defs><path d="M0 0h32v32H0z"/><g clip-path="url(#a)" fill="#3E3E3E"><path d="M6.759 15.772a.466.466 0 00.613-.25c1.125-2.682 2.763-4.667 3.417-5.397l2.165 1.732a.469.469 0 00.73-.196L16.85 3.52c.947 1.595 3.108 5.538 4.97 11.125a.469.469 0 00.777.183l.935-.935a.469.469 0 00-.663-.663l-.402.403c-2.446-7.065-5.293-11.376-5.323-11.42a.47.47 0 00-.827.09l-3.276 8.423-2.006-1.605a.469.469 0 00-.624.034c-.098.098-2.402 2.426-3.903 6.004-.1.238.012.513.25.613zm18.983-1.067a.469.469 0 00-.323.579c.587 2.074.884 4 .884 5.726 0 5.543-4.51 10.053-10.053 10.053-1.747 0-3.468-.455-4.976-1.316a10.12 10.12 0 01-3.588-3.471.469.469 0 10-.798.491 11.062 11.062 0 003.921 3.794 11 11 0 005.441 1.44c6.06 0 10.99-4.93 10.99-10.99 0-1.812-.309-3.825-.92-5.982a.469.469 0 00-.578-.324zM11.21 19.257a2.726 2.726 0 00-2.723-2.723c-.777 0-1.497.329-2.005.89a2.695 2.695 0 00-2.003-.89 2.726 2.726 0 00-2.724 2.723c0 1.318.664 2.659 1.92 3.878.996.966 2.122 1.617 2.636 1.819a.469.469 0 00.343 0c.514-.202 1.64-.853 2.636-1.82 1.256-1.218 1.92-2.559 1.92-3.877zm-4.728 4.75c-1.046-.5-3.79-2.406-3.79-4.75 0-.985.802-1.786 1.786-1.786.67 0 1.278.378 1.586.985a.468.468 0 00.837 0 1.775 1.775 0 011.586-.985c.984 0 1.785.802 1.785 1.786 0 2.344-2.743 4.25-3.79 4.75zM28.055 7.013a2.17 2.17 0 00-1.533.63 2.17 2.17 0 00-1.532-.63c-1.21 0-2.193.984-2.193 2.193 0 2.338 2.605 4.087 3.554 4.459a.468.468 0 00.343 0c.948-.372 3.553-2.121 3.553-4.46a2.195 2.195 0 00-2.192-2.192zm-1.533 5.702c-.811-.402-2.788-1.802-2.788-3.51 0-.691.563-1.255 1.256-1.255.47 0 .898.266 1.114.693a.469.469 0 00.836 0 1.247 1.247 0 011.115-.693c.692 0 1.255.564 1.255 1.256 0 1.707-1.976 3.107-2.788 3.51zM11.319 5.768a.47.47 0 00.342 0c.815-.32 3.053-1.825 3.053-3.84A1.93 1.93 0 0012.787 0c-.49 0-.949.185-1.297.506A1.907 1.907 0 0010.193 0a1.93 1.93 0 00-1.927 1.928c0 2.015 2.237 3.52 3.053 3.84zM10.193.938c.371 0 .708.209.879.546a.469.469 0 00.836 0 .984.984 0 01.879-.546c.546 0 .99.444.99.99 0 1.39-1.596 2.537-2.287 2.889-.69-.352-2.287-1.5-2.287-2.89 0-.545.444-.99.99-.99z"/><path d="M15.493 20.9a.468.468 0 00.667-.158l1.655-2.897c.276.38.656.944 1.033 1.636a.469.469 0 00.823-.448c-.766-1.405-1.526-2.298-1.558-2.335a.468.468 0 00-.763.072l-1.755 3.071-1.085-.723a.469.469 0 00-.62.09c-.107.128-2.614 3.16-2.614 5.31a4.983 4.983 0 004.978 4.977 4.983 4.983 0 004.978-4.977c0-1.117-.339-2.54-.655-3.5a.469.469 0 00-.89.293c.293.89.607 2.201.607 3.207a4.045 4.045 0 01-4.04 4.04 4.045 4.045 0 01-4.04-4.04c0-1.333 1.361-3.378 2.134-4.382l1.145.764z"/></g></svg>