<svg width="32" height="32" fill="none" xmlns="http://www.w3.org/2000/svg"><defs><clipPath id="a"><path fill="#fff" fill-opacity="0" d="M0 0h32v32H0z"/></clipPath></defs><path d="M0 0h32v32H0z"/><g clip-path="url(#a)"><path d="M31.74 8.316a10.37 10.37 0 00-2.597-4.343A10.286 10.286 0 0021.86.942h-.038a10.285 10.285 0 00-7.262 2.975 10.253 10.253 0 00-3.049 6.703 10.42 10.42 0 00-4.03.268 10.368 10.368 0 00-7.222 7.02 6.071 6.071 0 00.96 5.412 6.125 6.125 0 004.086 2.433 6.119 6.119 0 002.438 4.087 6.095 6.095 0 005.434.951 10.361 10.361 0 004.317-2.589 10.352 10.352 0 002.998-6.737l.118.002a6.097 6.097 0 003.646-1.218 6.119 6.119 0 002.437-4.086 6.125 6.125 0 004.085-2.433 6.072 6.072 0 00.96-5.414zM11.95 21.472a.937.937 0 00-1.285-.326l-.652.388a2.748 2.748 0 00-1.506-1.905.938.938 0 00-.807 1.692.86.86 0 01.499.753.86.86 0 01-.425.793l-1.392.81a4.716 4.716 0 011.384-6.84 4.713 4.713 0 016.457 1.637 4.716 4.716 0 01-1.637 6.457 4.68 4.68 0 01-3.567.519 4.737 4.737 0 01-1.16-.464l3.765-2.23a.937.937 0 00.326-1.284zm-9.227.729a4.213 4.213 0 01-.667-3.756 8.488 8.488 0 012.126-3.556 8.41 8.41 0 017.378-2.368c.081.7.232 1.383.448 2.04a6.568 6.568 0 00-5.2.665c-2.844 1.692-3.949 5.205-2.717 8.176a4.318 4.318 0 01-1.368-1.201zm13.446 4.676a8.481 8.481 0 01-3.534 2.12 4.226 4.226 0 01-3.775-.662 4.31 4.31 0 01-1.2-1.365 6.685 6.685 0 002.53.502 6.594 6.594 0 006.548-7.165c.602.34 1.237.62 1.894.832a8.478 8.478 0 01-2.461 5.738zm9.7-13.174c-.079.133-.164.26-.253.382l-1.392-.809a.86.86 0 01-.425-.793.86.86 0 01.5-.753.937.937 0 10-.808-1.692 2.748 2.748 0 00-1.506 1.905l-.652-.388a.937.937 0 10-.959 1.61l3.762 2.228a4.71 4.71 0 01-4.724-.053 4.68 4.68 0 01-2.156-2.89 4.68 4.68 0 01.518-3.567 4.716 4.716 0 016.458-1.637 4.716 4.716 0 011.637 6.457zm3.405-1.092a4.319 4.319 0 01-1.367 1.2 6.595 6.595 0 00-2.716-8.176 6.593 6.593 0 00-9.027 2.289 6.542 6.542 0 00-.725 4.988 6.542 6.542 0 003.014 4.04 6.545 6.545 0 004.988.724c.309-.078.61-.178.9-.297-.293.525-.699.99-1.202 1.364a4.226 4.226 0 01-3.776.663 8.488 8.488 0 01-3.534-2.12 8.418 8.418 0 01-2.465-6.025 8.411 8.411 0 012.512-6.009 8.447 8.447 0 015.946-2.427c2.173 0 4.346.826 5.994 2.474a8.489 8.489 0 012.126 3.555 4.214 4.214 0 01-.668 3.757z" fill="#3E3E3E"/></g></svg>