<svg width="32" height="32" fill="none" xmlns="http://www.w3.org/2000/svg"><defs><clipPath id="a"><path fill="#fff" fill-opacity="0" d="M0 0h32v32H0z"/></clipPath></defs><path d="M0 0h32v32H0z"/><g clip-path="url(#a)" fill="#3E3E3E"><path d="M28.333 23.773c-.646-3.31-.729-6.747-.718-9.671.006-1.92.061-3.79.707-5.485.082-.22.176-.441.27-.667.447-1.06.905-2.157.497-3.266a2.426 2.426 0 00-2.108-1.545c-.86-.039-1.722.452-2.152 1.197-.557-.237-1.158-.292-1.66-.132-.569.182-.966.546-1.126 1.004-.011-.006-.028-.011-.039-.017-.53-.16-1.318-.287-2.09.028-.646.26-1.132.816-1.286 1.429a3.13 3.13 0 00-1.18.1c-.646.187-1.336.76-1.789 1.594 0-.138 0-.282.006-.42.028-1.153.05-2.339-.734-3.222a2.422 2.422 0 00-2.527-.662c-.822.282-1.44 1.048-1.566 1.904-.607-.017-1.181.149-1.595.49-.458.381-.695.861-.679 1.352h-.038c-.552.044-1.335.221-1.937.795-.507.48-.756 1.175-.673 1.798-.392.11-.75.287-1.06.53-.904.706-1.274 1.98-.865 2.957l.016.017c-.01.011-.027.017-.038.027-.42.332-.955.894-1.132 1.672-.16.723-.027 1.374.354 1.799a2.88 2.88 0 00-.243.596c-.348 1.258.127 2.698 1.164 3.498.005.005.011 0 .016.005-.038.144-.077.287-.11.436-.1.463-.165.954-.005 1.429.154.458.518.86 1.026 1.137.37.198.684.292 1.043.386v.027c.143.905.64 1.65 1.324 1.986.342.171.706.232 1.042.232.282 0 .536-.044.756-.094.044.138.1.276.177.409.359.612 1.081 1.02 1.931 1.087.066.005.138.005.21.005.629 0 1.418-.187 2.03-.342.121.138.254.27.414.375.303.204.678.31 1.076.31.104 0 .215-.006.325-.023.397-.055.8-.21 1.236-.469.447.171.9.26 1.335.26.27 0 .535-.034.79-.1.86-.232 1.423-.634 1.687-1.208.072.033.15.06.227.088.165.05.336.072.502.072.287 0 .562-.077.789-.215.579.54 1.263.894 1.958.976.16.017.315.028.464.028.662 0 1.17-.188 1.544-.54.061.054.116.115.183.165.309.237.662.364 1.004.364.165 0 .325-.028.474-.088.436-.177.767-.596.938-1.192.281-.988.083-1.997-.11-2.968l-.055-.238zm-4.988-18.99c.414-.132.916-.072 1.385.171.392.199.756.508 1.186.993.022.022.05.039.072.055a10.22 10.22 0 00-2.124.138.314.314 0 00-.078-.072 10.833 10.833 0 00-1.191-.64c.143-.413.601-.595.75-.645zm-3.211 1.004c.474-.193 1.07-.193 1.688-.01.414.126.811.32 1.209.545a8.865 8.865 0 00-2.51 1.12c-.017-.099-.856-.546-1.286-.667.105-.42.441-.8.899-.988zm-2.521 1.55c.745-.22 1.644-.038 2.383.464-1.688 1.263-2.858 3.018-3.531 4.75-.292-.833-.535-1.666-.679-2.51.094-1.385.999-2.46 1.827-2.703zm-7.99-.43c.337-.276.828-.403 1.352-.353.436.044.889.193 1.468.491a.39.39 0 00.077.022 9.818 9.818 0 00-1.909.91c-.033-.016-.066-.033-.105-.038a11.373 11.373 0 00-1.34-.155c-.028-.441.33-.772.458-.877zM7.004 9.02c.37-.353.927-.574 1.567-.629.43-.033.872 0 1.324.067a9.28 9.28 0 00-1.931 1.958c-.066-.149-.993-.193-1.44-.149-.05-.425.121-.905.48-1.247zm.668 17.319c-.508-.254-.878-.828-.994-1.54-.11-.678.006-1.39.116-2.08a.305.305 0 00-.601-.093c-.077.502-.166 1.048-.16 1.6a3.338 3.338 0 01-.712-.282c-.375-.204-.634-.485-.74-.794-.11-.337-.054-.728.029-1.104.182-.838.463-1.65.844-2.416a.31.31 0 00-.138-.408.305.305 0 00-.409.137c-.237.48-.435.977-.601 1.485-.723-.674-1.048-1.744-.783-2.698.286-1.027 1.224-1.832 2.284-1.953a.303.303 0 00.265-.337.306.306 0 00-.337-.265c-.866.1-1.655.574-2.196 1.247-.193-.325-.198-.761-.116-1.12.138-.607.574-1.054.916-1.33.464-.364 1.015-.623 1.545-.877a.3.3 0 00.143-.402.3.3 0 00-.402-.144c-.37.177-.745.359-1.11.574-.248-.723.045-1.628.707-2.146.612-.475 1.517-.64 2.383-.442a10.118 10.118 0 00-1.362 3.553c-.64 3.515.408 7.222 2.637 9.65a.31.31 0 00-.166.055.3.3 0 00-.055.425c.265.342.304.817.353 1.319.017.16.033.32.055.48-.38.088-.92.143-1.395-.094zm3.685 1.567c-.65-.05-1.197-.348-1.451-.79-.199-.341-.237-.772-.281-1.224-.039-.425-.083-.86-.254-1.258a8.151 8.151 0 003.211 1.887.309.309 0 00.005.342l.563.789c-.59.138-1.307.292-1.793.254zm9.446-1.087c-.331-.1-.624-.304-.96-.59a.306.306 0 00-.43.038.301.301 0 00.038.43c.132.11.27.216.414.315-.177.43-.596.74-1.302.927-.624.165-1.358.072-2.064-.265a.308.308 0 00-.408.143.355.355 0 00-.028.15 2.513 2.513 0 01-.794.27c-.364.05-.717-.017-.977-.188-.232-.154-.414-.414-.59-.656l-.497-.701a8.94 8.94 0 002.014.232c1.468 0 3.03-.337 4.63-1.004a.31.31 0 00.165-.398.309.309 0 00-.398-.165c-3.57 1.5-6.896 1.23-9.362-.756-2.731-2.196-4.1-6.207-3.404-9.992.623-3.415 2.852-5.986 6.107-7.05a.302.302 0 00-.154-.586c.016-.022.038-.038.05-.06a.303.303 0 00-.133-.409c-.486-.248-.894-.402-1.286-.485.1-.63.558-1.192 1.159-1.396a1.794 1.794 0 011.876.491c.623.7.601 1.771.58 2.803-.006.248-.012.496-.006.74.022 1.693.96 4.468 1.395 5.577 1.087 2.748 2.428 5.953 4.27 8.839l.128.198c.496.778 1.015 1.578 1.098 2.455.022.199.033.684-.249.95-.193.187-.54.242-.882.143zm7.1-.011c-.055.187-.22.645-.579.794-.254.105-.601.028-.883-.187-.27-.21-.469-.513-.678-.9a.303.303 0 00-.414-.121.303.303 0 00-.122.414c.083.149.172.298.27.447-.32.33-.821.469-1.544.386-.568-.066-1.126-.359-1.611-.811.176-.31.254-.706.21-1.159-.1-1.02-.657-1.887-1.192-2.725l-.127-.199c-1.815-2.841-3.15-6.008-4.22-8.734-.073-.187-.144-.375-.216-.562 1.06-3.377 4.171-7.15 9.418-6.836a.296.296 0 00.32-.287.3.3 0 00-.248-.315c.022-.01.05-.022.066-.038a.305.305 0 00.027-.43 5.428 5.428 0 00-1.015-.928c.326-.546.96-.904 1.59-.871a1.8 1.8 0 011.566 1.147c.326.883-.088 1.87-.49 2.82-.1.231-.194.458-.282.684-.679 1.793-.74 3.718-.745 5.7-.006 2.95.072 6.427.734 9.792l.044.232c.177.905.364 1.843.121 2.687z"/><path d="M23.981 8.502c.177.022.32-.1.342-.265a.3.3 0 00-.264-.337c-1.38-.17-2.814.453-3.664 1.578-.452.596-.717 1.291-.976 1.959l-.596 1.54a.302.302 0 00.176.39.248.248 0 00.11.023.31.31 0 00.287-.193l.596-1.54c.243-.628.497-1.28.894-1.81.718-.96 1.937-1.483 3.095-1.345zm2.217 15.84a5.553 5.553 0 01-3.084-.668.309.309 0 00-.414.122.302.302 0 00.121.413 6.246 6.246 0 003.421.74.307.307 0 00.281-.326.303.303 0 00-.325-.281zm-1.018-5.016c.259.673.043 1.5-.503 1.964a.306.306 0 00-.033.43c.06.072.144.105.232.105a.304.304 0 00.198-.072c.74-.629 1.021-1.743.674-2.648-.089-.237-.216-.452-.337-.662-.204-.359-.403-.695-.364-1.037.027-.276.204-.535.392-.811a5.79 5.79 0 00.253-.386c.59-1.027.486-2.268.337-3.355l-.017-.105c-.137-1.004-.276-2.047.094-2.93a.304.304 0 10-.563-.231c-.43 1.037-.281 2.163-.132 3.25l.017.104c.132.982.231 2.108-.265 2.969-.067.115-.15.231-.227.347-.215.309-.452.662-.496 1.093-.055.535.198.976.441 1.401.116.199.227.386.298.574zM8.418 16.188c0 .166.137.303.303.303a.307.307 0 00.303-.308l-.01-1.65c-.006-.673-.012-1.368.165-2.014.32-1.153 1.258-2.09 2.394-2.383a.305.305 0 00-.149-.59c-1.34.347-2.45 1.45-2.83 2.813-.198.723-.193 1.462-.193 2.18l.017 1.65zm6.111 7.917c-1.015.375-2.284-.143-2.77-1.131a4.4 4.4 0 01-.237-.613c-.16-.457-.32-.937-.706-1.285-.31-.281-.684-.408-1.043-.53-.265-.088-.513-.176-.717-.314a1.316 1.316 0 01-.524-.855c-.067-.37 0-.734.187-1.004a.309.309 0 00-.077-.425.308.308 0 00-.425.077c-.281.403-.38.938-.287 1.462.094.519.38.971.778 1.247.276.188.574.287.866.386.315.105.613.21.828.403.27.248.403.629.54 1.032.078.226.16.458.265.684.486.987 1.54 1.6 2.605 1.6.309 0 .623-.055.921-.166a.307.307 0 00.182-.391c-.05-.155-.226-.232-.386-.177zm4.922-.049a5.61 5.61 0 01-3.112.513.315.315 0 00-.342.265.31.31 0 00.265.342c.248.033.502.05.756.05.927 0 1.865-.21 2.698-.618a.306.306 0 00-.265-.552zm-2.79-4.288c.486.53.596 1.38.254 2.014a.31.31 0 00.127.414.311.311 0 00.414-.127c.458-.855.309-1.997-.343-2.709a4.228 4.228 0 00-.557-.491c-.325-.26-.629-.502-.722-.833-.078-.265-.006-.574.066-.894a6.56 6.56 0 00.088-.452c.177-1.17-.38-2.29-.916-3.245l-.05-.088c-.496-.882-1.01-1.798-.993-2.764a.303.303 0 00-.298-.309c-.143-.005-.309.132-.309.298-.022 1.125.536 2.113 1.07 3.073l.05.088c.486.867.994 1.876.845 2.858a5.24 5.24 0 01-.083.403c-.083.364-.182.784-.06 1.197.148.519.545.833.926 1.142.182.138.353.276.491.425z"/></g></svg>