<svg width="18" height="25" fill="none" xmlns="http://www.w3.org/2000/svg"><path d="M1.024 22.11a2.386 2.386 0 00-.77 1.457.784.784 0 00.172.644c.152.183.378.29.617.289h15.913a.802.802 0 00.617-.289.784.784 0 00.171-.644 2.386 2.386 0 00-.77-1.457 1.99 1.99 0 00.825-1.61v-16a1.993 1.993 0 00-.824-1.61c.421-.379.694-.895.77-1.457a.784.784 0 00-.172-.644.802.802 0 00-.617-.289H1.043a.802.802 0 00-.617.289.784.784 0 00-.172.644c.075.562.348 1.078.77 1.457A1.994 1.994 0 00.199 4.5v16c.002.638.308 1.236.825 1.61zm15.935 1.59H15.8a.4.4 0 00-.8 0h-.8a.4.4 0 00-.8 0v.002h-.8V23.7a.4.4 0 00-.8 0v.003H11V23.7a.4.4 0 00-.8 0v.004h-.8V23.7a.4.4 0 00-.8 0v.005h-.8V23.7a.4.4 0 00-.8 0v.006h-.8V23.7a.4.4 0 00-.8 0v.007h-.8V23.7a.4.4 0 00-.8 0v.008H3V23.7a.4.4 0 00-.8 0v.008H1.041c.146-.801.535-1.208 1.158-1.208h13.6c.623 0 1.013.407 1.16 1.2zM1.043 1.3h1.156a.4.4 0 10.8 0h.8a.4.4 0 10.8 0h.8a.4.4 0 10.8 0H7a.4.4 0 00.8 0h.8a.4.4 0 00.8 0h.8a.4.4 0 00.8 0h.8a.4.4 0 00.8 0h.8a.4.4 0 00.8 0h.8a.4.4 0 00.8 0h1.156c-.147.796-.535 1.2-1.156 1.2H2.2c-.623 0-1.012-.407-1.156-1.2zM.999 4.5a1.2 1.2 0 011.2-1.2h13.6A1.2 1.2 0 0117 4.5v16a1.2 1.2 0 01-1.2 1.2H2.2A1.2 1.2 0 011 20.5v-16z" fill="#3E3E3E"/><path d="M9 16.9a6.4 6.4 0 10-6.4-6.4A6.408 6.408 0 009 16.9zm0-12a5.6 5.6 0 110 11.2A5.6 5.6 0 019 4.9z" fill="#3E3E3E"/><path d="M5.388 13.046l.392-.226-.045.694a.4.4 0 00.374.424h.026a.4.4 0 00.4-.374l.08-1.225 1.984-1.146v2.293l-1.022.68a.4.4 0 10.444.666l.578-.385v.453a.4.4 0 00.8 0v-.453l.578.386a.4.4 0 00.444-.666l-1.022-.681v-2.293l1.986 1.147.08 1.226a.4.4 0 00.4.374h.026a.4.4 0 00.373-.425l-.047-.695.392.226a.4.4 0 10.4-.692l-.392-.227.622-.307a.4.4 0 10-.355-.717l-1.101.544L9.799 10.5l1.986-1.146 1.1.546a.401.401 0 00.354-.72l-.623-.308.391-.226a.4.4 0 10-.4-.693l-.391.226.044-.693a.4.4 0 10-.8-.052l-.08 1.226L9.4 9.807V7.514l1.022-.68a.4.4 0 00-.444-.666l-.578.385V6.1a.4.4 0 10-.8 0v.453l-.578-.386a.4.4 0 00-.444.666l1.022.681v2.293L6.613 8.66l-.08-1.226a.4.4 0 10-.8.052l.044.694-.392-.227a.4.4 0 10-.4.693l.392.226-.618.308a.4.4 0 00.354.717l1.101-.544L8.2 10.5l-1.986 1.146-1.101-.544a.4.4 0 10-.353.718l.622.308-.391.226a.4.4 0 10.4.693h-.002zM3.8 18.1h-.4a.4.4 0 000 .8h.4a.4.4 0 000-.8zm10.799 0h-.4a.4.4 0 000 .8h.4a.4.4 0 000-.8zm-1.999 0H5.4a.4.4 0 000 .8h7.2a.4.4 0 000-.8zm-8.8 1.6h-.4a.4.4 0 100 .8h.4a.4.4 0 000-.8zm10.799 0h-.4a.4.4 0 100 .8h.4a.4.4 0 000-.8zm-1.999 0H5.4a.4.4 0 100 .8h7.2a.4.4 0 000-.8z" fill="#3E3E3E"/></svg>