<svg width="24" height="25" fill="none" xmlns="http://www.w3.org/2000/svg"><g clip-path="url(#clip0_2014_14673)"><path d="M2.484 19.813H.47a.469.469 0 00-.47.467 4.224 4.224 0 004.219 4.22h14.484c.259 0 .469-.21.469-.469V15.5c2.077 0 3.883-1.34 4.549-3.135a.469.469 0 10-.88-.326c-.55 1.486-2.06 2.524-3.67 2.524-.494 0-.995-.096-1.48-.305a6.344 6.344 0 00.993-2.941.469.469 0 10-.935-.072c-.221 2.9-2.783 5.193-5.749 5.193-2.966 0-5.528-2.293-5.75-5.192a.469.469 0 00-.934.071c.08 1.043.421 2.05.992 2.941a3.72 3.72 0 01-1.48.305c-2.109 0-3.89-1.718-3.89-3.75 0-2.033 1.781-3.75 3.89-3.75.284 0 .568.032.844.095a.469.469 0 00.572-.43c.171-2.917 2.753-5.29 5.756-5.29s5.585 2.373 5.756 5.29a.47.47 0 00.572.43 3.8 3.8 0 01.844-.096c1.312 0 2.575.685 3.297 1.787a.469.469 0 10.784-.513 4.93 4.93 0 00-4.081-2.211c-.178 0-.356.01-.532.03C18.187 2.967 15.328.5 12 .5 8.676.5 5.813 2.964 5.36 6.155a4.738 4.738 0 00-.532-.03C2.286 6.125 0 8.178 0 10.813 0 13.447 2.286 15.5 4.828 15.5v5.024a4.217 4.217 0 00-2.344-.712zm1.735 3.75A3.286 3.286 0 01.97 20.75h1.513a3.284 3.284 0 013.248 2.813H4.22zm7.209-2.462a3.282 3.282 0 01-3.178 2.462H6.736a3.281 3.281 0 013.248-2.813h1.514c-.017.118-.04.236-.07.351zm-.526 2.462a4.221 4.221 0 001.326-1.875h6.006v1.875h-7.332zM12 17.375a6.81 6.81 0 005.118-2.348c.355.174.729.3 1.116.379v5.344h-5.792c.018-.155.027-.312.027-.469a.469.469 0 00-.469-.468H9.984a4.214 4.214 0 00-3.75 2.285 4.21 4.21 0 00-.468-.718v-5.974a4.62 4.62 0 001.116-.379A6.813 6.813 0 0012 17.375z" fill="#3E3E3E"/><path d="M22.5 8c1 1.5 1.5 2.5.5 5" stroke="#3E3E3E" stroke-width=".9" stroke-linecap="round"/></g><defs><clipPath id="clip0_2014_14673"><path fill="#fff" transform="translate(0 .5)" d="M0 0h24v24H0z"/></clipPath></defs></svg>