<svg width="24" height="25" fill="none" xmlns="http://www.w3.org/2000/svg"><g clip-path="url(#clip0_2014_7403)" fill="#3E3E3E"><path d="M.43 15.606c.052.327.184.636.385.9.16 2.118.622 4.202 1.374 6.188A2.792 2.792 0 004.808 24.5h14.384a2.792 2.792 0 002.619-1.805 22.193 22.193 0 001.374-6.19 1.98 1.98 0 00.384-.9A.8.8 0 0024 14.9v-.8a.797.797 0 00-.414-.696C23.296 10.182 18.312 7.7 12 7.7S.703 10.182.414 13.404A.797.797 0 000 14.1v.8a.8.8 0 00.43.706zM23.2 14.1v.8H.8v-.8h22.4zm-1.6 2.4a1.203 1.203 0 01-1.132-.8h2.264a1.203 1.203 0 01-1.132.8zm-20.332-.8h2.264a1.2 1.2 0 01-2.264 0zm18.264 0a1.2 1.2 0 01-2.264 0h2.264zm-3.2 0a1.2 1.2 0 01-2.264 0h2.264zm-3.2 0a1.2 1.2 0 01-2.264 0h2.264zm-3.2 0a1.2 1.2 0 01-2.264 0h2.264zm-3.2 0a1.2 1.2 0 01-2.264 0h2.264zm14.328 6.718a1.99 1.99 0 01-1.868 1.282H4.808a1.99 1.99 0 01-1.869-1.283 22.184 22.184 0 01-1.266-5.259A1.97 1.97 0 004 16.488a1.982 1.982 0 003.2 0 1.982 1.982 0 003.2 0 1.982 1.982 0 003.2 0 1.982 1.982 0 003.2 0 1.982 1.982 0 003.2 0 1.97 1.97 0 002.327.67 22.2 22.2 0 01-1.267 5.26zM14.8 8.686c.27.037.538.078.8.124v1.69a.4.4 0 11-.8 0V8.686zm-2.4-.18V10.1a.4.4 0 11-.8 0V8.505a18.982 18.982 0 01.8 0zm-4 .304c.262-.046.53-.088.8-.124V10.5a.4.4 0 01-.8 0V8.81zm-.8.16v1.53a1.2 1.2 0 002.4 0V8.595c.264-.025.53-.045.8-.06V10.1a1.2 1.2 0 002.4 0V8.535c.27.014.536.034.8.06V10.5a1.2 1.2 0 002.4 0V8.97c3.49.775 6.046 2.427 6.363 4.33H1.237c.317-1.903 2.872-3.555 6.363-4.33z"/><path d="M6.401 22.1H4.81a.386.386 0 01-.368-.24 21.284 21.284 0 01-.96-3.434.4.4 0 00-.786.15c.232 1.212.565 2.404.996 3.562a1.19 1.19 0 001.118.762h1.592a.4.4 0 100-.8zm5.526-15.633l-.15.1a.4.4 0 00.444.666l.15-.1A1.769 1.769 0 0011.993 4a.968.968 0 01-.403-1.54l1.113-1.3a.4.4 0 10-.608-.52l-1.113 1.3a1.767 1.767 0 00.737 2.812.968.968 0 01.206 1.715h.002zm-2.957 0l-.15.1a.4.4 0 10.444.666l.15-.1A1.769 1.769 0 009.039 4a.968.968 0 01-.406-1.54l1.113-1.299a.4.4 0 00-.607-.52L8.026 1.94a1.768 1.768 0 00.738 2.813.968.968 0 01.206 1.715zm6.198.001l-.149.1a.4.4 0 00.444.665l.15-.1A1.769 1.769 0 0015.235 4a.968.968 0 01-.404-1.54l1.113-1.299a.4.4 0 00-.607-.52L14.225 1.94a1.769 1.769 0 00.737 2.813.968.968 0 01.206 1.716v-.001z"/></g><defs><clipPath id="clip0_2014_7403"><path fill="#fff" transform="translate(0 .5)" d="M0 0h24v24H0z"/></clipPath></defs></svg>