<svg width="24" height="25" fill="none" xmlns="http://www.w3.org/2000/svg"><g clip-path="url(#clip0_2014_7220)" fill="#3E3E3E"><path d="M23.297.5h-5.672a4.927 4.927 0 00-4.922 4.922v5.672c0 .388.315.703.703.703h5.672c2.714 0 4.922-2.23 4.922-4.969V1.203A.703.703 0 0023.297.5zm-.703 6.328c0 1.964-1.577 3.563-3.516 3.563H14.11V5.42a3.52 3.52 0 013.516-3.515h4.969v4.922zm-3.516 6.375h-5.672a.703.703 0 00-.703.703v5.672a3.52 3.52 0 003.516 3.516h5.672a.703.703 0 00.703-.703v-5.672a3.52 3.52 0 00-3.516-3.516zm2.11 8.485h-4.97a2.112 2.112 0 01-2.109-2.11V14.61h4.97c1.162 0 2.108.947 2.108 2.11v4.968zm-10.594-8.485H4.922A4.927 4.927 0 000 18.125v5.672c0 .388.315.703.703.703h5.625c2.74 0 4.969-2.208 4.969-4.922v-5.672a.703.703 0 00-.703-.703zm-.703 6.375c0 1.939-1.598 3.516-3.563 3.516H1.406v-4.969a3.52 3.52 0 013.516-3.516H9.89v4.97zM6.328 1.906H2.11a.703.703 0 00-.703.703v4.22c0 2.739 2.208 4.968 4.922 4.968h4.266a.703.703 0 00.703-.703V6.828c0-2.714-2.23-4.922-4.969-4.922zm3.563 8.485H6.328c-1.938 0-3.516-1.599-3.516-3.563V3.312h3.516c1.965 0 3.563 1.578 3.563 3.516v3.563z"/></g><defs><clipPath id="clip0_2014_7220"><path fill="#fff" transform="translate(0 .5)" d="M0 0h24v24H0z"/></clipPath></defs></svg>