<svg width="24" height="25" fill="none" xmlns="http://www.w3.org/2000/svg"><path d="M8.496 17.052a.351.351 0 01-.351-.352v-.563a.351.351 0 11.703 0v.563a.352.352 0 01-.352.352zM12 18.761c-.807 0-1.463-.715-1.463-1.594 0-1.103 1.025-1.103 1.462-1.103.438 0 1.462 0 1.462 1.103 0 .879-.655 1.594-1.462 1.594zm0-1.994c-.73 0-.76.123-.76.4 0 .491.34.891.76.891.418 0 .758-.4.758-.891 0-.277-.03-.4-.759-.4zm3.502.285a.351.351 0 01-.352-.352v-.563a.351.351 0 11.704 0v.563a.351.351 0 01-.352.352zM19.43 5.89c1.436 0 2.695-.82 2.695-1.757 0-.937-1.26-1.758-2.695-1.758-1.436 0-2.696.821-2.696 1.758 0 .936 1.26 1.758 2.696 1.758zm0-2.812c1.197 0 1.992.635 1.992 1.055 0 .42-.795 1.054-1.992 1.054-1.198 0-1.992-.634-1.992-1.054 0-.42.794-1.055 1.992-1.055z" fill="#3E3E3E"/><path d="M22.242 10.743h-7.41c.278-.248.54-.508.784-.778.742-.82 1.176-1.848 1.228-2.835a5.416 5.416 0 002.585.636c2.52 0 4.57-1.63 4.57-3.633S21.95.5 19.43.5c-1.317 0-2.57.45-3.436 1.235a2.464 2.464 0 01-1.655.64H1.758A1.76 1.76 0 000 4.133c0 .97.789 1.758 1.758 1.758H7.31l-.014.04c-.21.67-.19 1.464.051 2.237a.352.352 0 00.671-.21c-.35-1.116-.188-2.47.962-2.982 1.487-.66 2.706.662 2.757.718a.351.351 0 00.261.116H12a.35.35 0 00.261-.116c.052-.056 1.27-1.378 2.757-.718.71.315.973.924 1.07 1.379.212 1.003-.178 2.235-.994 3.139-.403.447-.863.867-1.365 1.25h-3.458a10.034 10.034 0 01-1.366-1.25 4.297 4.297 0 01-.296-.368.35.35 0 10-.57.412 4.7 4.7 0 00.345.427c.243.27.505.53.783.778h-7.41A1.76 1.76 0 000 12.501c0 .97.789 1.758 1.758 1.758h1.061a9.163 9.163 0 003.516 6.881A1.76 1.76 0 005.3 22.742c0 .97.788 1.758 1.757 1.758h9.885a1.76 1.76 0 001.758-1.758 1.76 1.76 0 00-1.035-1.602 9.166 9.166 0 003.515-6.881h1.062A1.76 1.76 0 0024 12.5a1.76 1.76 0 00-1.758-1.758zm-6.938-6.41c-.816-.362-1.694-.32-2.541.121-.325.17-.586.367-.763.52a4.059 4.059 0 00-.763-.52c-.847-.441-1.725-.483-2.541-.12-.43.191-.781.48-1.04.854H1.758a1.056 1.056 0 010-2.11h12.58c.786 0 1.54-.292 2.127-.822.739-.67 1.82-1.053 2.964-1.053 2.133 0 3.868 1.314 3.868 2.93 0 1.615-1.735 2.93-3.868 2.93-.988 0-1.922-.283-2.642-.796l-.012-.058c-.184-.87-.707-1.535-1.471-1.875zm2.693 18.41c0 .58-.473 1.054-1.055 1.054H7.057a1.056 1.056 0 010-2.11h9.885c.582 0 1.055.474 1.055 1.055zm4.245-9.187H18.55a.351.351 0 100 .703h1.926a8.47 8.47 0 01-3.796 6.725H7.32a8.468 8.468 0 01-3.797-6.725h13.62a.352.352 0 100-.703H1.759a1.056 1.056 0 010-2.11h20.484a1.056 1.056 0 010 2.11z" fill="#3E3E3E"/><path d="M7.79 8.398a.352.352 0 01-.442-.23c.115.367.41 1.004.69 1.37a.352.352 0 01.486-.495c-.177-.227-.402-.792-.505-1.086a.352.352 0 01-.23.44zm10.408 5.509c0-.194.158-.351.352-.351h-1.406a.351.351 0 110 .703h1.406a.352.352 0 01-.352-.352z" fill="#3E3E3E"/></svg>