<svg width="56" height="56" fill="none" xmlns="http://www.w3.org/2000/svg"><path d="M40.377 19.115c.855.855.855 2.24 0 3.094L25.702 36.885a2.188 2.188 0 01-3.093 0l-6.986-6.987a2.187 2.187 0 113.093-3.093l5.44 5.44 13.128-13.13a2.188 2.188 0 013.093 0zM56 28c0 15.477-12.525 28-28 28C12.523 56 0 43.475 0 28 0 12.523 12.525 0 28 0c15.477 0 28 12.525 28 28zm-4.375 0C51.625 14.941 41.057 4.375 28 4.375 14.941 4.375 4.375 14.943 4.375 28c0 13.059 10.568 23.625 23.625 23.625 13.059 0 23.625-10.568 23.625-23.625z" fill="#61B291"/></svg>