<svg width="28" height="28" fill="none" xmlns="http://www.w3.org/2000/svg"><path fill-rule="evenodd" clip-rule="evenodd" d="M17.933 24.433l3.74 3.011a1 1 0 001.627-.777v-5.003a11.755 11.755 0 004.367-9.023C27.667 5.882 21.572.334 14 .334S.333 5.88.333 12.642c0 6.76 6.095 12.31 13.667 12.31a14.958 14.958 0 003.933-.519zm.85-1.883a1 1 0 00-.925-.175c-1.25.385-2.55.58-3.858.578-6.408 0-11.666-4.587-11.666-10.311C2.334 6.919 7.592 2.333 14 2.333c6.409 0 11.667 4.586 11.667 10.309a9.828 9.828 0 01-3.98 7.752.996.996 0 00-.387.79v3.394l-2.517-2.028z" fill="#61B291"/></svg>