<svg width="24" height="24" fill="none" xmlns="http://www.w3.org/2000/svg"><path d="M18.132 15.024a.377.377 0 00-.483.22l-.774 2.063-.773-2.063a.375.375 0 10-.703.263l1.125 3a.375.375 0 00.703 0l1.125-3a.375.375 0 00-.22-.483zm1.345.219a.376.376 0 00-.703.263l1.125 3a.375.375 0 00.703 0l1.125-3a.374.374 0 00-.626-.387.374.374 0 00-.077.124l-.774 2.064-.773-2.064z" fill="#E1E1E1"/><path d="M21.375 3H2.625A1.875 1.875 0 00.75 4.875v12a1.875 1.875 0 001.875 1.875h8.156a6.375 6.375 0 0012.469-1.875v-12A1.875 1.875 0 0021.375 3zm-4.5 19.5a5.625 5.625 0 115.625-5.625 5.632 5.632 0 01-5.625 5.625zm5.625-8.617a6.372 6.372 0 00-12 2.992c.002.377.038.754.105 1.125h-7.98A1.128 1.128 0 011.5 16.875V9.75h21v4.133zM22.5 9h-21V6.75h21V9zm0-3h-21V4.875A1.128 1.128 0 012.625 3.75h18.75A1.128 1.128 0 0122.5 4.875V6z" fill="#E1E1E1"/><path d="M8.25 13.5H4.5a1.5 1.5 0 100 3h3.75a1.5 1.5 0 100-3zm0 2.25H4.5a.75.75 0 110-1.5h3.75a.75.75 0 110 1.5zm5.625 0a.75.75 0 01.5.19.374.374 0 00.632-.297.375.375 0 00-.132-.26 1.5 1.5 0 00-2.5 1.117v.75a1.5 1.5 0 002.5 1.118.374.374 0 00-.082-.626.376.376 0 00-.418.067.75.75 0 01-1.25-.559v-.75a.75.75 0 01.75-.75z" fill="#E1E1E1"/></svg>