<svg width="48" height="48" fill="none" xmlns="http://www.w3.org/2000/svg"><path fill-rule="evenodd" clip-rule="evenodd" d="M24 4.256C13.096 4.256 4.257 13.096 4.257 24S13.097 43.743 24 43.743c10.904 0 19.744-8.839 19.744-19.743 0-10.904-8.84-19.744-19.744-19.744zM.667 24C.667 11.113 11.114.667 24 .667 36.887.667 47.334 11.113 47.334 24c0 12.886-10.447 23.333-23.334 23.333C11.114 47.333.667 36.886.667 24z" fill="#ECBBB5"/><path fill-rule="evenodd" clip-rule="evenodd" d="M24 13.829c.991 0 1.795.804 1.795 1.795v9.572a1.795 1.795 0 11-3.59 0v-9.572c0-.991.804-1.795 1.795-1.795z" fill="#ECBBB5"/><path d="M26.394 32.376a2.393 2.393 0 11-4.787 0 2.393 2.393 0 014.787 0z" fill="#ECBBB5"/></svg>