<svg width="22" height="17.619" fill="none" xmlns="http://www.w3.org/2000/svg"><path d="M.688 3.55h11.194a2.867 2.867 0 002.778 2.176 2.87 2.87 0 002.78-2.175h3.872a.688.688 0 000-1.375H17.44A2.868 2.868 0 0014.66 0c-1.341 0-2.47.928-2.779 2.176H.687a.687.687 0 100 1.375zM14.66 1.376c.82 0 1.488.667 1.488 1.488A1.49 1.49 0 0114.66 4.35a1.49 1.49 0 01-1.488-1.488c0-.82.668-1.488 1.488-1.488zM.687 9.497h3.874a2.867 2.867 0 002.779 2.175c1.341 0 2.47-.928 2.779-2.175h11.194a.688.688 0 000-1.375H10.118a2.868 2.868 0 00-2.78-2.176c-1.341 0-2.47.928-2.778 2.176H.688a.688.688 0 000 1.375zM7.34 7.32c.82 0 1.488.668 1.488 1.488a1.49 1.49 0 01-1.488 1.488A1.49 1.49 0 015.852 8.81c0-.82.667-1.488 1.488-1.488zm13.973 6.747h-3.874a2.867 2.867 0 00-2.779-2.175c-1.341 0-2.47.928-2.779 2.175H.687a.688.688 0 000 1.375h11.195a2.868 2.868 0 002.778 2.176 2.87 2.87 0 002.78-2.176h3.872a.688.688 0 000-1.375zm-6.653 2.176a1.49 1.49 0 01-1.488-1.488c0-.82.668-1.488 1.488-1.488s1.488.667 1.488 1.488a1.49 1.49 0 01-1.488 1.488z" fill="#3E3E3E"/></svg>