<svg width="17" height="16" fill="none" xmlns="http://www.w3.org/2000/svg"><path d="M15.967 7.467h-1.024a6.474 6.474 0 00-5.91-5.91V.533a.533.533 0 00-1.066 0v1.024a6.474 6.474 0 00-5.91 5.91H1.033a.533.533 0 000 1.066h1.024a6.474 6.474 0 005.91 5.91v1.024a.533.533 0 001.066 0v-1.024a6.474 6.474 0 005.91-5.91h1.024a.533.533 0 100-1.066zm-2.09 0h-2.225a3.203 3.203 0 00-2.619-2.619V2.623a5.412 5.412 0 014.844 4.844zM8.5 10.133A2.136 2.136 0 016.367 8c0-1.176.957-2.133 2.133-2.133 1.177 0 2.133.957 2.133 2.133A2.136 2.136 0 018.5 10.133zm-.533-7.51v2.225a3.203 3.203 0 00-2.619 2.619H3.123a5.412 5.412 0 014.844-4.844zm-4.844 5.91h2.225a3.203 3.203 0 002.619 2.619v2.225a5.412 5.412 0 01-4.844-4.844zm5.91 4.844v-2.225a3.203 3.203 0 002.619-2.619h2.225a5.412 5.412 0 01-4.844 4.844z" fill="#3E3E3E"/></svg>