<svg width="18.75" height="15" fill="none" xmlns="http://www.w3.org/2000/svg"><path d="M13.75 15H5a3.129 3.129 0 01-3.125-3.125v-3.75a.625.625 0 011.25 0v3.75A1.878 1.878 0 005 13.75h8.75a1.877 1.877 0 001.875-1.875v-3.75a.625.625 0 011.25 0v3.75A3.128 3.128 0 0113.75 15zm4.884-7.762a.625.625 0 00-.146-.872L9.738.116a.625.625 0 00-.726 0l-8.75 6.25a.625.625 0 10.726 1.018l8.387-5.99 8.387 5.99a.625.625 0 00.872-.146zm-6.759 4.637v-1.25a2.5 2.5 0 10-5 0v1.25a.625.625 0 001.25 0v-1.25a1.25 1.25 0 112.5 0v1.25a.625.625 0 001.25 0z" fill="#3E3E3E"/></svg>