<svg width="20" height="24" fill="none" xmlns="http://www.w3.org/2000/svg"><path d="M16.576 2.713A9.234 9.234 0 0010 0a9.234 9.234 0 00-6.576 2.713C.168 5.97-.342 9.88 1.909 14.334c1.846 3.654 5.17 6.979 7.598 9.406l.095.095a.56.56 0 00.796 0l.095-.095c2.428-2.427 5.752-5.752 7.598-9.406 2.251-4.455 1.741-8.365-1.515-11.62zm.511 11.114c-1.69 3.347-4.746 6.472-7.087 8.815-2.34-2.343-5.396-5.468-7.087-8.815C.878 9.798 1.305 6.423 4.219 3.51A8.15 8.15 0 0110 1.119a8.15 8.15 0 015.782 2.39c2.914 2.914 3.341 6.29 1.306 10.318zM10 5.709a4.137 4.137 0 00-4.132 4.133A4.137 4.137 0 0010 13.973a4.137 4.137 0 004.132-4.133A4.137 4.137 0 0010 5.71zm0 7.14A3.01 3.01 0 016.993 9.84 3.01 3.01 0 0110 6.835a3.01 3.01 0 013.007 3.008A3.01 3.01 0 0110 12.848z" fill="#3E3E3E"/></svg>