<svg width="48" height="48" fill="none" xmlns="http://www.w3.org/2000/svg"><defs><clipPath id="a"><path fill="#fff" fill-opacity="0" d="M0 0h48v48H0z"/></clipPath></defs><path d="M0 0h48v48H0z"/><g clip-path="url(#a)" fill="#3E3E3E"><path d="M47.256 25.046C39.826 16.303 32.859 6.52 23.089.213c-.742-.479-1.553-.084-2.027.531C14.18 9.684 5.408 17.22.508 27.554c-.465.981.082 2.214 1.27 2.213 2.074-.002 4.148-.012 6.223-.031-.224 5.874-.323 11.712.53 17.551.162 1.114 2.008.843 1.95-.264-.324-6.275-.034-12.467.44-18.726.059-.787-.697-1.422-1.433-1.432-1.768-.025-3.537-.024-5.305-.027 4.792-8.733 12.26-15.604 18.455-23.356 8.255 5.67 14.48 13.98 20.848 21.661-2.135.3-4.215.24-6.459.204-.807-.014-1.481.683-1.481 1.481 0 3.79-.069 7.587.016 11.375.032 1.438.14 2.876.197 4.313.028.69.033 1.382.017 2.073-.075.304-.093.52-.064.664-.243.458-.243 1.095.11 1.507l.203.237c.342.4 1.096.504 1.528.198 1.763-1.25 1.197-3.983 1.123-5.836-.173-4.344-.17-8.684-.168-13.03 2.75.025 5.386-.056 8.093-.807 1.14-.316 1.36-1.645.654-2.476z"/><path d="M32.42 19.823c-3.944-4.225-8.223.424-10.124 4.603-2.371-2.846-6.07-4.77-8.55-.672-3.94 6.512 2.817 15.427 8.06 18.679.998.619 1.8-.512 1.426-1.37.496.772 1.846 1.084 2.557.078 3.134-4.43 11.878-15.7 6.632-21.318zm-1.497 3.422a6.71 6.71 0 01-.413-.233c-.841-.527-1.632-1.115-2.412-1.718 1.553-.684 2.516.448 2.825 1.951zm-10.466 3.05c-.886-.724-1.768-1.452-2.657-2.173 1.072.09 1.973 1.099 2.657 2.173zm2.681 14.588a1.16 1.16 0 00-.26-.286 20.195 20.195 0 01-3.426-3.31c.243.208.473.43.721.633.87.71 1.909 1.622 3.054 1.903-.215.38-.223.748-.088 1.06zm.91-2.242c-2.349-.721-4.498-2.544-6.503-4.178a16.491 16.491 0 01-1.63-4.237 48.854 48.854 0 004.315 4.773c1.158 1.114 2.52 2.437 3.983 3.414l-.165.228zm1.09-1.508c-1.334-1.017-2.824-1.913-4.08-2.963-1.828-1.53-3.494-3.246-5.046-5.052a.324.324 0 00-.31-.107c-.016-.117-.046-.23-.059-.348a7.528 7.528 0 01-.043-.584c1.593 1.713 3.296 3.318 5.05 4.868 1.415 1.251 3.032 2.815 4.772 3.79l-.284.396zm1.137-1.604c-1.685-1.42-3.777-2.552-5.476-3.9-1.823-1.447-3.526-3.034-5.167-4.682.032-.347.09-.698.178-1.03 1.425 1.864 3.173 3.426 4.98 4.97 1.48 1.264 3.623 3.543 5.67 4.37-.063.09-.123.183-.185.272zm1.102-1.645c-.515-.426-1.12-.748-1.69-1.13-1.52-1.014-2.985-2.116-4.428-3.237-1.72-1.335-3.672-2.717-5.209-4.26.167-.356.396-.65.688-.855 3.124 3.143 6.89 6.868 10.935 9.01-.1.157-.195.316-.296.472zm1.135-1.862c-1.624-1.09-3.312-2.094-4.895-3.255-.038-.027-.073-.056-.11-.083.263-.169.47-.416.532-.756.022-.123.05-.244.075-.367a26.089 26.089 0 001.955 1.623c.87.646 1.92 1.489 3 1.827a30.66 30.66 0 01-.557 1.01zm1.196-2.326c-.78-.588-1.746-.992-2.564-1.504-.956-.598-1.841-1.295-2.692-2.033a11.6 11.6 0 01.446-1.244c.886.798 1.761 1.608 2.703 2.343.681.531 1.638 1.317 2.571 1.302-.144.38-.292.758-.464 1.136zm.873-2.379c-.71-.543-1.709-.846-2.454-1.348-.944-.636-1.823-1.363-2.719-2.067.133-.228.277-.448.432-.661.858.72 1.722 1.437 2.557 2.183.648.58 1.372 1.441 2.196 1.846-.005.016-.007.032-.012.047zm-1.448-2.847c-.89-.648-1.755-1.332-2.624-2.007a7.33 7.33 0 01.48-.45c.712.67 1.534 1.252 2.31 1.818.51.371 1.084.917 1.694 1.32-.016.188-.031.375-.059.564-.571-.464-1.262-.853-1.801-1.245z"/></g></svg>