<svg width="48" height="48" fill="none" xmlns="http://www.w3.org/2000/svg"><defs><clipPath id="a"><path fill="#fff" fill-opacity="0" d="M0 0h48v48H0z"/></clipPath></defs><path d="M0 0h48v48H0z"/><g clip-path="url(#a)" fill="#3E3E3E"><path d="M47.965 23.982A23.825 23.825 0 0040.94 7.024 23.825 23.825 0 0023.982 0 23.825 23.825 0 007.024 7.024 23.825 23.825 0 000 23.982 23.825 23.825 0 007.024 40.94a23.825 23.825 0 0016.958 7.025c2.133 0 4.221-.279 6.227-.815a7.773 7.773 0 003.54.85 7.68 7.68 0 004.245-1.282 7.683 7.683 0 003.316-4.904 7.86 7.86 0 00.156-1.418c4.196-4.462 6.498-10.26 6.498-16.414zm-45.155 0c0-11.674 9.498-21.172 21.172-21.172 11.675 0 21.172 9.498 21.172 21.172 0 4.877-1.658 9.373-4.439 12.956a7.793 7.793 0 00-.529-.936l-2.69-4.075c.55-.887 1.016-1.83 1.386-2.823l-2.632-.983c-1.901 5.093-6.83 8.514-12.268 8.514-5.436 0-10.366-3.421-12.267-8.514l-2.633.983a15.866 15.866 0 005.735 7.435 15.797 15.797 0 009.107 2.906l3.355 5.08c.075.114.153.224.233.333a21.204 21.204 0 01-3.53.296c-11.674 0-21.172-9.498-21.172-21.172zM38.556 41.25a4.893 4.893 0 01-2.11 3.122 4.93 4.93 0 01-6.822-1.396l-2.532-3.834a15.73 15.73 0 003.929-1.335l2.23 3.378 2.345-1.549-2.177-3.297a16.007 16.007 0 002.276-2.04l2.146 3.252a4.891 4.891 0 01.715 3.7z"/><path d="M16.1 18.458a2.407 2.407 0 012.405 2.404h2.81a5.22 5.22 0 00-5.215-5.214 5.22 5.22 0 00-5.215 5.214h2.81a2.407 2.407 0 012.405-2.404zm15.764 0a2.407 2.407 0 012.405 2.404h2.81a5.22 5.22 0 00-5.215-5.214 5.22 5.22 0 00-5.215 5.214h2.81a2.407 2.407 0 012.405-2.404z"/></g></svg>