<svg width="16" height="17" fill="none" xmlns="http://www.w3.org/2000/svg"><path d="M12.095 7.618c.488-.07.988-.16 1.494-.21.578-.058 1.16-.086 1.74-.12.164-.01.3.048.374.214.09.2.022.33-.196.336-.332.01-.664.006-.994.016-.784.022-1.558.118-2.36.288.166.916.066 1.8-.31 2.654.306.226.592.432.872.65.07.054.138.136.162.218.024.08.024.218-.024.254a.374.374 0 01-.29.048c-.096-.026-.172-.12-.258-.182-.218-.156-.436-.312-.688-.49-.356.798-1.004 1.236-1.664 1.638.156.664.304 1.296.45 1.93.102.44.198.88.3 1.318.034.146.05.286-.088.388-.192.142-.412.05-.48-.216-.092-.356-.164-.718-.244-1.076-.126-.556-.25-1.112-.382-1.666-.03-.124-.086-.242-.14-.386-.96.232-1.858-.068-2.776-.3-.064.284-.118.548-.182.81-.062.254-.108.292-.292.266-.214-.03-.328-.142-.312-.356.014-.188.072-.372.106-.558.028-.15.048-.3.068-.438l-1.556-.984c-.194.17-.422.354-.634.558-.496.478-.986.962-1.478 1.446-.202.198-.502.18-.628-.046-.07-.124-.074-.236.048-.348.674-.618 1.342-1.242 2.012-1.866.086-.08.166-.168.262-.266-.174-.338-.372-.674-.52-1.03-.144-.348-.238-.716-.364-1.108-.368.028-.75.082-1.12.21a4.26 4.26 0 00-.266.1c-.416.164-.5.128-.724-.338.1-.058.198-.142.312-.174.386-.11.78-.2 1.168-.304.216-.058.426-.134.604-.192l.28-1.394c-.632-.638-1.248-1.328-2.008-1.87-.194-.138-.372-.294-.558-.442-.028-.022-.058-.044-.082-.07-.1-.11-.206-.256-.078-.37.086-.078.264-.088.392-.07.09.012.17.12.25.188.756.632 1.536 1.238 2.21 1.96.04.042.092.076.172.142a4.227 4.227 0 011.72-1.626L4.79 3.686c-.136-.238-.142-.354-.024-.444.146-.112.396-.066.53.132.152.226.266.476.398.714.056.102.116.202.186.322.806-.388 1.592-.764 2.528-.484.112-.478.212-.912.316-1.348.154-.646.31-1.294.466-1.94a.983.983 0 01.03-.102c.07-.196.182-.272.338-.23a.317.317 0 01.212.392c-.09.344-.196.684-.29 1.028-.2.72-.4 1.44-.598 2.16-.012.044-.012.094-.02.168.73.288 1.392.694 1.97 1.278.09-.076.164-.146.246-.206.192-.138.382-.28.582-.404.136-.084.274-.054.392.054.158.144.142.272-.036.394-.274.184-.54.38-.788.556.3.644.574 1.246.868 1.892zm-.382 1.326c-.05-.764-.272-1.674-.468-2.11-.516-1.146-1.402-1.89-2.552-2.346-.606-.242-1.206-.236-1.786.076-.438.236-.874.48-1.304.728-1.254.722-2.088 2.402-1.776 4.016.186.964.604 1.798 1.478 2.332.824.504 1.688.914 2.642 1.108.442.088.874.094 1.286-.116.212-.108.418-.224.62-.348 1.308-.808 1.786-2.056 1.86-3.34z" fill="#3E3E3E"/><path d="M7.574 8.356c-.272-.008-.386-.168-.264-.398.218-.406.452-.802.696-1.192.268-.432.554-.852.834-1.276.122-.186.258-.182.382.004.114.174.082.33-.026.494-.276.414-.554.826-.816 1.246-.188.3-.354.612-.526.922-.064.12-.124.234-.28.2zm1.376.425c-.464.014-.59-.16-.39-.528.314-.582.65-1.154.976-1.73.06-.108.138-.24.264-.144a.636.636 0 01.198.342c.018.072-.06.172-.104.256-.312.598-.626 1.194-.944 1.804zm.68.497c-.044-.004-.13.002-.206-.022-.204-.068-.27-.218-.162-.414.13-.238.274-.47.428-.696.174-.254.364-.496.546-.746.072-.098.138-.2.286-.13.15.07.262.27.208.406-.04.098-.102.186-.164.274-.306.436-.612.87-.936 1.328z" fill="#3E3E3E"/></svg>