<svg width="20" height="21" fill="none" xmlns="http://www.w3.org/2000/svg"><path d="M.003 12.914c.33-.896 4.09-.216 5.145-.417a1.047 1.047 0 01.214-.765c-2.134-1.81.606-3.884 2.214-1.893.907-.58 2.01.204 2.251 1.13.91-.118 1.418.748 1.542 1.528h8.1c.587-.03.558.621.505 1.033-.015 2.863-2.186 5.545-5.209 5.452-.305 2.506-6.027 1.067-7.997 1.424-.762-.09-1.396-.661-1.511-1.423-3.364.077-5.35-2.984-5.254-6.069zm19.511.073c-.103-.02-17.836-.017-17.913.004.01.32.028.64.083.963 17.954-.247 18.285.72.087.478 1.296 5.783 8.468 3.708 12.816 4.07 2.45.132 4.468-1.695 4.792-4.07-3.354.217-3.065-.719.072-.478.046-.326.07-.646.063-.967zm-8.642-.49c-.358-1.722-1.204-.592-1.478-1.216-.069-.514-.42-.993-.937-1.128-.49-.293-.893.683-1.165.158-.932-1.794-3.042-.855-1.948.713 1.266 1.143.067.42.107 1.468h2.785c-.292-.25-2.746-1.448-1.7-1.722 1.333.959 2.577 2.023 4.336 1.727zM6.07 19.552c.527.535 8.046.846 8.118-.322l-8.118.322zM19.99 3.445c-.2 1.98-3.249 2.066-3.529.075-.353-2.625 3.762-2.708 3.53-.075zm-.473-.209c-.002-1.97-2.358-1.66-2.596.005-.266 1.86 2.62 1.668 2.596-.005z" fill="#3E3E3E"/><path d="M13.061 6.677c.395-.047.8.13 1.17.121.386-.31.774-.62 1.14-.955.288-.196.554-.96.902-.418 1.46 1.871 1.116 4.877-1.492 5.436-2.633.657-6.125-4.411-1.72-4.184zm2.627-.454c-1.451 1.024-2.727 2.339-1.332 4.04.695-1.26 1.12-2.605 1.332-4.04zm-4.242 1.585c.155.8.505 1.462 1.138 1.96.269-.133.628-.694.644-1.003-.612-.27-1.189-.605-1.782-.957zm4.118.947c1.565-.264 1.137-1.494.616-2.553a12.694 12.694 0 01-.616 2.553zm-.69 1.565c.71-.225 1.412-.71 1.648-1.439-1.1.49-1.17.238-1.647 1.44zm-1.07-3.094a2.903 2.903 0 00-.738-.066c.067.35.085.802.234 1.108.121-.377.283-.71.503-1.042zm-2.076.18c.138.11.895.536.986.552l-.144-.75c-.186.005-.73.134-.842.198zM3.716 3.247c-.62.137-2.403-1.187-1.663-1.725.696-.06 3.49-1.475 3.728-.873.406 1.311-.677 2.673-2.065 2.598zm1.246-2.142c.068 1.254-1.54 1.687-2.14.678a12.32 12.32 0 00-.398.127c.706 1.602 3.318.672 2.93-.928l-.392.123zm-1.65.522c.29.474 1.214.173 1.144-.362l-1.144.362zm3.001 4.961c1.47 1.418-1.165 2.49-1.121.458-2.074.6-2.068-2.428-.045-2.71 1.391-.568 2.782 1.64 1.166 2.252zm-.73-2.037C3.694 4.528 3.6 7.296 5.271 6.482c.73-.21.12 1.214.73 1.212.68-.147-.081-.764-.259-1.055-.324-.573.93-.413.82-.998-.051-.48-.421-1.105-.979-1.09zm8.304-.783c.138 2.037-2.538 1.076-1.14-.402-2.07-.967.322-3.51 2.218-1.746.97.766.227 2.702-1.078 2.148zm-.396-2.272c-.633-.031-1.217.272-1.27.815-.1.607 1.332.48 1.118 1.051-.134.306-.875.867-.306 1.08.736.145-.014-1.43.758-1.23 1.63.731 1.482-1.705-.3-1.716zM3.617 9.878c.004 2.317-3.638 2.254-3.564-.045.004-2.235 3.57-2.295 3.564.045zm-.484 0C3.134 8.05.698 8.184.535 9.828c-.206 2.093 2.622 1.716 2.598.05zm14.727.213c.466-2.472 2.533.932.729 1.155-.438-.187-.729-.618-.728-1.155zm.642-.367c-.316.35-.118.886.176 1.014a.689.689 0 00-.176-1.014zM.692 5.53c.056-1.801 2.18-.055 1.391.988-.53.523-1.432-.389-1.391-.989zm.531-.273c-.175.394.137.866.488.907.167-.423-.15-.853-.488-.907zm7.634-.015c-1.212-.125-.083-2.091.919-1.723.746.517-.109 1.794-.919 1.723zm.002-.49c.433.024.774-.437.68-.77-.442-.009-.757.435-.68.77zm.461 3.066c.014.934-1.452.926-1.44-.002-.01-.919 1.457-.923 1.44.002zm-.482-.002c.004-.306-.484-.295-.475.007.006.304.482.302.475-.007zm9.855-.184c-.938.01-.923-1.45.013-1.427.926-.005.92 1.448-.013 1.427zm0-.478c.31.008.315-.468.008-.471-.306-.007-.32.468-.008.471zm.599 10.965c-.388.13-.654-.42-.193-.476.619-.169.966.502.193.476zm-1.627 1.138c-.033-.77.65-.419.48.19-.068.463-.612.191-.479-.19zm1.1-.794c.219.074.662.432.44.682-.32.32-1.072-.642-.44-.682zm-2.478-4.508c.313-.013.315.478.007.477-.31.009-.322-.478-.008-.477zm2.649-10.716c.007.931-1.46.918-1.438-.013-.005-.921 1.46-.912 1.438.013zm-.48-.008c0-.304-.486-.295-.477.008.004.303.485.297.477-.008z" fill="#3E3E3E"/><path d="M1.832 10.578c-.934.013-.928-1.437 0-1.428.931-.017.94 1.447 0 1.428zm-.005-.478c.31.013.32-.463.015-.472-.305-.01-.327.466-.015.472z" fill="#3E3E3E"/></svg>