<svg width="32" height="32" fill="none" xmlns="http://www.w3.org/2000/svg"><path d="M29.386 7.191l-4.578-4.578a2.827 2.827 0 00-2.008-.835H6.515a4.738 4.738 0 00-4.738 4.738v18.969a4.747 4.747 0 004.738 4.737h18.969a4.747 4.747 0 004.738-4.738V9.2a2.862 2.862 0 00-.836-2.009zm-5.804-3.12l4.346 4.347h-3.395a.95.95 0 01-.951-.951V4.07zm3.91 23.422a2.826 2.826 0 01-2.008.836H6.515a2.844 2.844 0 01-2.844-2.845V6.517A2.844 2.844 0 016.515 3.67H21.69v3.796a2.844 2.844 0 002.844 2.844h3.795v15.174a2.828 2.828 0 01-.835 2.008z" fill="#61B291"/><path d="M9.36 18.844h13.27v1.894H9.36v-1.894zm0-3.795H16v1.893H9.36V15.05z" fill="#61B291"/></svg>