<svg width="24" height="24" fill="none" xmlns="http://www.w3.org/2000/svg"><g clip-path="url(#clip0_120_11717)" fill="#61B291"><path d="M13.5 24h-3c-.7 0-1.5-.6-1.5-1.8v-2.1c0-1-.5-1.9-1.3-2.6C5.9 16.1 5 14.1 5 11.9c.1-3.8 3.2-6.8 6.9-6.9 1.9 0 3.7.7 5 2 1.3 1.3 2.1 3.1 2.1 5 0 2.1-.9 4.1-2.6 5.4-.9.7-1.4 1.8-1.4 2.8v2.3c0 .8-.7 1.5-1.5 1.5zM12 6c-3.2 0-5.9 2.7-6 5.9 0 1.9.8 3.7 2.3 4.8 1.1.9 1.7 2.1 1.7 3.4v2.1c0 .2 0 .8.5.8h3c.3 0 .5-.2.5-.5v-2.3c0-1.3.7-2.7 1.8-3.6 1.4-1.1 2.2-2.8 2.2-4.6 0-1.6-.6-3.1-1.8-4.3C15.1 6.6 13.6 6 12 6z"/><path d="M14.5 21h-5c-.3 0-.5-.2-.5-.5s.2-.5.5-.5h5c.3 0 .5.2.5.5s-.2.5-.5.5zM12 3c-.3 0-.5-.2-.5-.5v-2c0-.3.2-.5.5-.5s.5.2.5.5v2c0 .3-.2.5-.5.5zm6.7 2.8c-.1 0-.3 0-.4-.1-.2-.2-.2-.5 0-.7l1.4-1.4c.2-.2.5-.2.7 0 .2.2.2.5 0 .7L19 5.7s-.2.1-.3.1zm4.8 6.7h-2c-.3 0-.5-.2-.5-.5s.2-.5.5-.5h2c.3 0 .5.2.5.5s-.2.5-.5.5zm-3.4 8.1c-.1 0-.3 0-.4-.1l-1.4-1.4c-.2-.2-.2-.5 0-.7.2-.2.5-.2.7 0l1.4 1.4c.2.2.2.5 0 .7 0 .1-.1.1-.3.1zm-16.2 0c-.1 0-.3 0-.4-.1-.2-.2-.2-.5 0-.7l1.4-1.4c.2-.2.5-.2.7 0 .2.2.2.5 0 .7l-1.4 1.4c-.1.1-.2.1-.3.1zm-1.4-8.1h-2c-.3 0-.5-.2-.5-.5s.2-.5.5-.5h2c.3 0 .5.2.5.5s-.2.5-.5.5zm2.8-6.7c-.1 0-.3 0-.4-.1L3.5 4.2c-.2-.2-.2-.5 0-.7.2-.2.5-.2.7 0l1.4 1.4c.2.2.2.5 0 .7-.1.1-.2.2-.3.2zM16 12.5c-.3 0-.5-.2-.5-.5 0-1.9-1.6-3.5-3.5-3.5-.3 0-.5-.2-.5-.5s.2-.5.5-.5c2.5 0 4.5 2 4.5 4.5 0 .3-.2.5-.5.5z"/></g><defs><clipPath id="clip0_120_11717"><path fill="#fff" d="M0 0h24v24H0z"/></clipPath></defs></svg>