<svg width="32" height="32" fill="none" xmlns="http://www.w3.org/2000/svg"><defs><clipPath id="a"><path fill="#fff" fill-opacity="0" d="M0 0h32v32H0z"/></clipPath></defs><path d="M0 0h32v32H0z"/><g clip-path="url(#a)" fill="#3E3E3E"><path d="M26.655 6.557c-2.852-.846-6.638-1.312-10.66-1.312s-7.807.466-10.66 1.312C2.32 7.45.719 8.647.695 10.017c-.047.438-.07 1.248-.07 1.663 0 3.525 1.607 6.836 4.525 9.322a15.625 15.625 0 004.279 2.58c.131 1.407 1.306 2.588 2.89 2.86a22.1 22.1 0 003.704.312c1.23.001 2.457-.105 3.669-.317 1.57-.278 2.734-1.454 2.867-2.85a15.625 15.625 0 004.291-2.585c2.918-2.486 4.525-5.797 4.525-9.322 0-.444-.035-1.243-.08-1.663-.024-1.37-1.626-2.566-4.64-3.46zm-21.107.719c2.785-.826 6.495-1.282 10.447-1.282 3.952 0 7.662.455 10.447 1.282 2.57.762 4.103 1.798 4.103 2.77 0 .974-1.534 2.01-4.103 2.771-2.785.827-6.495 1.282-10.447 1.282-3.952 0-7.662-.455-10.447-1.282-2.57-.762-4.103-1.797-4.103-2.77 0-.973 1.534-2.009 4.103-2.771zm14.014 18.422a21.067 21.067 0 01-7.116.004c-1.098-.188-1.945-.913-2.2-1.816a17.919 17.919 0 0011.495.004c-.255.895-1.094 1.616-2.18 1.808zM16 24.085c-8.064 0-14.625-5.565-14.625-12.405v-.145c.74.764 2.073 1.442 3.96 2.002 2.853.846 6.638 1.312 10.66 1.312s7.808-.466 10.66-1.312c1.894-.562 3.231-1.243 3.969-2.012l.001.154c0 6.841-6.56 12.406-14.625 12.406z"/><path d="M6.734 12.548c2.439.605 5.674.938 9.111.938 3.437 0 6.673-.333 9.111-.938 3.324-.825 4.021-1.87 4.021-2.602 0-.732-.697-1.777-4.02-2.602-2.439-.605-5.675-.938-9.112-.938-3.437 0-6.672.333-9.11.938-3.324.825-4.021 1.87-4.021 2.602 0 .732.697 1.777 4.02 2.602zm.181-4.476c2.38-.59 5.552-.916 8.93-.916s6.55.325 8.93.916c2.545.631 3.452 1.382 3.452 1.874 0 .492-.907 1.242-3.452 1.874-2.38.59-5.552.916-8.93.916s-6.55-.325-8.93-.916c-2.545-.632-3.452-1.382-3.452-1.874 0-.492.907-1.242 3.452-1.874z"/><path d="M23.67 8.92c1.63.282 2.156.798 2.156 1.003 0 .12-.389.557-2.118.972a.375.375 0 10.175.73c1.812-.435 2.694-.992 2.694-1.702 0-.79-1.039-1.44-2.778-1.743a.375.375 0 10-.129.74zM5.526 10.238a.375.375 0 00.375-.375c0-.157.551-.704 3.001-1.158a.376.376 0 00-.137-.738c-2.432.451-3.614 1.071-3.614 1.896a.375.375 0 00.375.375zm7.198-.851c0 .307.186.636.524.929.305.263.877.618 1.877.811.52.097 1.048.143 1.576.14.635-.004 1.27-.053 1.897-.148 1.313-.19 1.945-.48 2.115-.966.167-.478-.217-.888-.343-1.022-1.514-1.612-2.96-1.513-3.908-1.144-.645.25-1.362.367-1.995.47-.425.07-.792.13-1.075.221-.443.144-.668.382-.668.71zm1.864-.19c.636-.103 1.427-.232 2.146-.512 1.064-.413 2.104-.09 3.09.959.155.166.177.247.18.264-.02.031-.213.28-1.514.469-.8.116-3.507.416-4.733-.613a.933.933 0 01-.267-.322c.182-.095.705-.18 1.098-.244zm-3.636 2.611c.625.32 1.691.514 2.695.514.25 0 .5-.013.75-.04a.375.375 0 00-.083-.745c-1.139.126-2.455-.108-3.021-.397a.374.374 0 00-.53.45.378.378 0 00.189.218zM8.228 9.617l-1.54.647a.46.46 0 00.05.867l1.92.554a.462.462 0 00.371-.052l.908-.566a.46.46 0 00-.04-.803L8.61 9.628a.458.458 0 00-.382-.011zm.515 1.311l-1.007-.29.661-.278.702.346-.356.222zm11.786-1.832l.935.545a.432.432 0 00.473-.037l.733-.565a.467.467 0 00-.039-.766l-1.04-.636a.43.43 0 00-.519.053l-.622.625a.469.469 0 00.079.781zm.886-.687l.47.287-.237.184-.444-.259.211-.212zm-10.385.686a.378.378 0 00.39.031.371.371 0 00.132-.114c.022-.028.546-.689 2.063-.689a.375.375 0 000-.75c-1.932 0-2.64.956-2.67.997a.378.378 0 00.086.525zm9.885 1.876c-.733.604-2.126.602-2.14.601h-.002a.377.377 0 00-.377.374.375.375 0 00.373.376h.013c.168 0 1.698-.02 2.61-.772a.373.373 0 00.05-.528.376.376 0 00-.527-.05z"/><path d="M15.886 9.87c.394.116.803.175 1.214.173.386.003.77-.056 1.137-.174a.378.378 0 00.239-.473.374.374 0 00-.474-.24c-.918.304-1.866.006-1.882 0a.374.374 0 00-.45.526.376.376 0 00.216.187z"/></g></svg>