<svg width="24.987" height="32" fill="none" xmlns="http://www.w3.org/2000/svg"><path d="M23.784 6.182a5.313 5.313 0 00-4.147-1.993c-.846 0-1.677.198-2.427.574a5.287 5.287 0 00-1.855-.546L14.925.82a.938.938 0 00-.93-.82h-3.002a.937.937 0 00-.93.82l-.43 3.398a5.43 5.43 0 00-1.857.538 5.421 5.421 0 00-5.066.125C.732 5.99-.322 8.26.087 10.53a.672.672 0 00.005.025l.08.377a68.694 68.694 0 011.445 14.007v.982c0 3.328 2.678 6.055 5.97 6.079h.047c.845 0 1.658-.171 2.422-.509a5.908 5.908 0 002.358.509h.046a6 6 0 002.424-.506c.744.33 1.536.5 2.358.506h.046a5.973 5.973 0 004.237-1.746 5.974 5.974 0 001.778-4.27v-.712a68.679 68.679 0 011.59-14.67 5.434 5.434 0 00-1.109-4.42zM13.168 1.875l.314 2.479a5.431 5.431 0 00-.982.35 5.427 5.427 0 00-.994-.353l.314-2.476h1.348zm-5.567 28.25c-2.266-.017-4.109-1.903-4.109-4.204v-.982c0-4.826-.5-9.667-1.486-14.39l-.076-.364c-.262-1.478.42-2.952 1.698-3.67a3.551 3.551 0 012.42-.384 5.415 5.415 0 00-1.128 4.424l.078.377a68.692 68.692 0 011.446 14.007v.982c0 1.614.63 3.086 1.655 4.178-.164.018-.33.027-.498.026zm4.827 0c-2.266-.017-4.109-1.903-4.109-4.204v-.982c0-4.826-.5-9.667-1.485-14.39l-.076-.364c-.262-1.478.419-2.952 1.697-3.67a3.551 3.551 0 013.562.055.936.936 0 00.966 0 3.559 3.559 0 011.932-.504c1.003.029 1.944.5 2.581 1.291.653.812.918 1.863.729 2.885a70.551 70.551 0 00-1.625 15.03v.713a4.112 4.112 0 01-1.224 2.938 4.122 4.122 0 01-2.948 1.202zm10.624-19.883a70.55 70.55 0 00-1.625 15.03v.713a4.111 4.111 0 01-1.223 2.938 4.111 4.111 0 01-2.917 1.202h-.031a4.053 4.053 0 01-.41-.025 5.97 5.97 0 001.63-4.115v-.713c0-4.915.533-9.842 1.583-14.643l.006-.026a5.433 5.433 0 00-1.108-4.421l-.036-.044a3.44 3.44 0 013.403 1.22 3.56 3.56 0 01.728 2.884z" fill="#3E3E3E"/></svg>