<svg width="26.476" height="25.723" fill="none" xmlns="http://www.w3.org/2000/svg"><path d="M25.562 20.637c-.646-3.31-.729-6.748-.718-9.672.006-1.92.061-3.79.707-5.484.083-.221.176-.442.27-.668.447-1.06.905-2.157.497-3.266A2.425 2.425 0 0024.21.002c-.86-.038-1.721.453-2.152 1.197-.557-.237-1.158-.292-1.66-.132-.569.182-.966.546-1.126 1.004-.01-.005-.027-.01-.038-.017-.53-.16-1.32-.286-2.092.028-.645.26-1.13.817-1.285 1.429a3.132 3.132 0 00-1.18.1c-.646.187-1.336.76-1.788 1.594 0-.138 0-.281.005-.42.028-1.152.05-2.339-.734-3.222A2.422 2.422 0 009.634.901c-.823.282-1.44 1.049-1.567 1.904-.607-.017-1.181.149-1.595.49-.458.382-.695.861-.679 1.353h-.038c-.552.044-1.335.22-1.937.794-.507.48-.756 1.175-.673 1.799-.391.11-.75.287-1.06.53-.904.706-1.274 1.98-.865 2.956a.631.631 0 00.016.017c-.01.011-.027.017-.038.028-.42.33-.955.893-1.131 1.672-.16.722-.028 1.373.353 1.798a2.88 2.88 0 00-.243.596c-.348 1.258.127 2.698 1.164 3.498.006.006.011 0 .017.006a9.884 9.884 0 00-.11.435c-.1.464-.166.955-.006 1.43.154.457.518.86 1.026 1.136.37.198.684.292 1.043.386v.028c.143.904.64 1.65 1.324 1.986.342.17.706.232 1.043.232.281 0 .535-.045.755-.094.045.138.1.276.177.408.359.612 1.081 1.02 1.931 1.087.066.005.138.005.21.005.629 0 1.418-.187 2.03-.342.121.138.254.27.414.376a1.92 1.92 0 001.076.308c.105 0 .215-.005.325-.022.397-.055.8-.21 1.236-.469.447.172.9.26 1.335.26a3.1 3.1 0 00.79-.1c.86-.231 1.423-.634 1.688-1.208.071.033.149.06.226.088.165.05.336.072.502.072.287 0 .563-.077.789-.215.58.54 1.263.894 1.958.976.16.017.315.028.464.028.662 0 1.17-.187 1.545-.54.06.055.115.115.182.165.309.237.662.364 1.004.364.165 0 .325-.027.474-.088.436-.177.767-.596.938-1.192.282-.987.083-1.997-.11-2.968l-.055-.237zm-4.988-18.99c.414-.133.916-.073 1.385.17.392.199.756.508 1.186.993.022.023.05.04.072.055a10.2 10.2 0 00-2.124.138.31.31 0 00-.078-.071 10.822 10.822 0 00-1.191-.64c.143-.414.601-.596.75-.646zm-3.21 1.003c.474-.193 1.07-.193 1.687-.01.414.126.811.32 1.209.546a8.863 8.863 0 00-2.51 1.12c-.017-.1-.856-.547-1.286-.668.105-.42.441-.8.9-.988zM14.841 4.2c.744-.22 1.644-.038 2.383.464-1.688 1.264-2.858 3.018-3.53 4.75-.293-.832-.536-1.666-.68-2.51.094-1.385 1-2.46 1.827-2.703zm-7.99-.43c.337-.275.828-.402 1.352-.353.436.044.889.193 1.468.491a.39.39 0 00.077.022 9.804 9.804 0 00-1.909.91c-.033-.016-.066-.032-.104-.038a11.2 11.2 0 00-1.341-.154c-.028-.442.331-.773.458-.877zm-2.62 2.114c.37-.353.927-.574 1.567-.63.43-.033.872 0 1.324.067a9.276 9.276 0 00-1.93 1.958c-.067-.149-.994-.193-1.44-.149-.05-.424.12-.904.48-1.246zM4.9 23.202c-.508-.254-.878-.828-.993-1.54-.11-.678.005-1.39.115-2.08a.304.304 0 00-.601-.093c-.077.502-.165 1.048-.16 1.6a3.36 3.36 0 01-.712-.281c-.375-.204-.634-.486-.739-.795-.11-.337-.055-.728.028-1.103.182-.839.463-1.65.844-2.417a.31.31 0 00-.138-.408.305.305 0 00-.409.138c-.237.48-.435.977-.6 1.484-.725-.673-1.05-1.743-.785-2.698.287-1.026 1.225-1.832 2.284-1.953a.303.303 0 00.265-.336.306.306 0 00-.337-.265c-.866.099-1.655.573-2.196 1.246-.193-.325-.198-.761-.116-1.12.138-.606.574-1.053.916-1.33.464-.363 1.015-.623 1.545-.877a.3.3 0 00.144-.402.3.3 0 00-.403-.144c-.37.177-.745.359-1.11.574-.247-.723.045-1.627.707-2.146.612-.475 1.517-.64 2.383-.442a10.118 10.118 0 00-1.362 3.554c-.64 3.514.408 7.222 2.637 9.65a.311.311 0 00-.165.055.3.3 0 00-.056.424c.265.342.304.817.353 1.319.017.16.033.32.056.48-.381.088-.922.143-1.396-.094zm3.685 1.567c-.65-.05-1.197-.348-1.45-.789-.2-.342-.238-.772-.282-1.225-.039-.425-.083-.86-.254-1.258.166.155.331.298.502.442a8.149 8.149 0 002.71 1.445.309.309 0 00.005.342l.562.79c-.59.137-1.307.292-1.793.253zm9.446-1.087c-.331-.1-.624-.303-.96-.59a.306.306 0 00-.392.469c.132.11.27.215.414.314-.177.43-.596.74-1.302.927-.624.166-1.357.072-2.064-.265a.308.308 0 00-.408.144.358.358 0 00-.028.149 2.513 2.513 0 01-.794.27c-.364.05-.717-.017-.977-.188-.231-.154-.413-.413-.59-.656l-.496-.7a8.945 8.945 0 002.013.23c1.468 0 3.03-.336 4.63-1.003a.309.309 0 00.165-.398.31.31 0 00-.398-.165c-3.57 1.5-6.896 1.23-9.362-.756-2.731-2.196-4.1-6.207-3.404-9.992.623-3.415 2.852-5.986 6.107-7.05a.302.302 0 00-.154-.585c.016-.023.038-.039.05-.061a.303.303 0 00-.133-.408c-.486-.249-.894-.403-1.286-.486.1-.629.558-1.192 1.159-1.396a1.794 1.794 0 011.876.491c.623.701.601 1.771.58 2.803-.006.248-.012.497-.006.74.022 1.693.96 4.468 1.396 5.577 1.087 2.748 2.427 5.953 4.27 8.839l.127.198c.496.778 1.015 1.578 1.098 2.456.022.198.033.684-.248.949-.194.187-.541.242-.883.143zm7.1-.01c-.055.187-.22.645-.579.794-.254.104-.601.027-.883-.188-.27-.21-.469-.513-.678-.9a.302.302 0 00-.414-.12.302.302 0 00-.121.413c.082.15.17.298.27.447-.32.331-.822.469-1.545.386-.568-.066-1.126-.359-1.61-.81.176-.31.253-.707.209-1.16-.1-1.02-.657-1.886-1.192-2.725l-.127-.199c-1.815-2.841-3.15-6.008-4.22-8.733l-.216-.563c1.06-3.377 4.171-7.15 9.418-6.836a.297.297 0 00.32-.287.3.3 0 00-.248-.314c.022-.012.05-.023.066-.04a.305.305 0 00.028-.43 5.422 5.422 0 00-1.016-.926c.326-.546.96-.905 1.59-.872a1.8 1.8 0 011.566 1.148c.326.882-.088 1.87-.49 2.819-.1.232-.194.458-.282.684-.679 1.793-.74 3.719-.745 5.7-.005 2.951.072 6.427.734 9.792l.044.232c.177.905.364 1.843.121 2.687z" fill="#3E3E3E"/><path d="M21.21 5.365c.177.022.32-.1.343-.265a.3.3 0 00-.265-.336c-1.38-.171-2.814.452-3.664 1.578-.452.596-.717 1.29-.976 1.958l-.596 1.54a.302.302 0 00.177.391.246.246 0 00.11.022.31.31 0 00.287-.193l.596-1.54c.242-.628.496-1.28.893-1.809.718-.96 1.937-1.484 3.096-1.346zm2.217 15.84a5.554 5.554 0 01-3.084-.668.308.308 0 00-.414.122.302.302 0 00.122.414 6.245 6.245 0 003.42.739.307.307 0 00.282-.326.303.303 0 00-.326-.281zm-1.018-5.016c.259.673.044 1.5-.502 1.964a.306.306 0 00-.034.43.296.296 0 00.232.105.303.303 0 00.199-.072c.74-.628 1.02-1.743.673-2.648-.088-.237-.215-.452-.337-.662-.204-.358-.402-.695-.364-1.037.028-.276.204-.535.392-.811.088-.127.177-.254.254-.386.59-1.027.485-2.268.336-3.355l-.016-.105c-.138-1.004-.276-2.047.093-2.93a.304.304 0 10-.562-.231c-.43 1.037-.282 2.163-.133 3.25l.017.104c.132.983.232 2.108-.265 2.969-.066.116-.149.232-.226.347-.215.31-.453.662-.497 1.093-.055.535.199.976.442 1.401.115.199.226.386.298.574zM5.647 13.051c0 .166.138.304.303.304a.307.307 0 00.304-.31l-.011-1.649c-.006-.673-.011-1.368.165-2.014C6.728 8.23 7.666 7.292 8.803 7a.304.304 0 00-.15-.59c-1.34.347-2.449 1.45-2.83 2.813-.198.723-.193 1.462-.193 2.18l.017 1.65zm6.111 7.917c-1.015.375-2.284-.143-2.77-1.13a4.412 4.412 0 01-.237-.613c-.16-.458-.32-.938-.706-1.286-.31-.281-.684-.408-1.043-.53-.265-.088-.513-.176-.717-.314a1.316 1.316 0 01-.524-.855c-.067-.37 0-.734.187-1.004a.309.309 0 00-.077-.425.309.309 0 00-.425.077c-.281.403-.38.938-.287 1.462.094.519.381.971.778 1.247.276.188.574.287.866.386.315.105.613.21.828.403.27.248.403.63.54 1.032.078.226.16.458.266.684.485.988 1.539 1.6 2.604 1.6.309 0 .623-.055.921-.166a.307.307 0 00.182-.391c-.05-.155-.226-.232-.386-.177zm4.922-.048a5.61 5.61 0 01-3.111.512.315.315 0 00-.342.265.308.308 0 00.265.342c.248.034.502.05.755.05.927 0 1.865-.21 2.698-.618a.306.306 0 10-.265-.552zm-2.79-4.288c.486.53.596 1.379.254 2.013a.31.31 0 00.127.414.31.31 0 00.414-.127c.458-.855.309-1.997-.342-2.709a4.227 4.227 0 00-.557-.49c-.326-.26-.63-.503-.723-.834-.077-.265-.006-.574.066-.894.033-.149.066-.303.088-.452.177-1.17-.38-2.29-.916-3.244l-.05-.088c-.496-.883-1.009-1.8-.992-2.765a.303.303 0 00-.298-.309c-.144-.005-.31.133-.31.298-.021 1.126.536 2.113 1.071 3.073l.05.089c.485.866.993 1.876.844 2.858-.022.132-.05.27-.083.402-.083.364-.182.784-.06 1.198.148.518.546.833.926 1.142.182.138.353.276.491.425z" fill="#3E3E3E"/></svg>