<svg width="24" height="28" fill="none" xmlns="http://www.w3.org/2000/svg"><path d="M6.903 6.636c.322.443.66.872 1.01 1.295.981 1.172 2.072 2.26 3.295 3.182.482.342 1.178.32 1.637-.051 1.743-1.39 3.196-3.11 4.405-4.959a4.542 4.542 0 00.518-3.324C17.428 1.292 15.993.202 14.473.28a3.21 3.21 0 00-1.57.487c-.163.1-.542.325-.703.423a.378.378 0 01-.423-.026l-.056-.037c-.215-.138-.578-.383-.796-.515A3.246 3.246 0 009.584.18c-1.592-.163-3.15.934-3.543 2.5a4.606 4.606 0 00.193 2.79c.162.415.401.814.669 1.165zm.227-4.671C7.781.779 9.293.263 10.544.78c.28.104.66.356.922.504l.173.102c.208.138.493.14.7-.001.15-.095.522-.336.678-.435a2.914 2.914 0 011.465-.474 2.843 2.843 0 012.573 1.428c.34.595.42 1.293.326 1.962a3.804 3.804 0 01-.762 1.814c-.212.27-.456.52-.688.775-1.218 1.298-2.498 2.487-3.907 3.542L12.02 10c-.004.002-.007.001-.01.001a.032.032 0 01-.023-.005c0-.002-.002-.002-.003-.004h-.001l-.024-.019-.05-.04C10.538 8.861 9.3 7.628 8.149 6.322c-.219-.255-.456-.507-.652-.776a3.676 3.676 0 01-.449-.82c-.335-.877-.394-1.923.082-2.761z" fill="#3E3E3E"/><path d="M23.807 9.753c-.89.087-1.671.537-2.337 1.096-.622.531-1.194 1.146-1.56 1.892a.68.68 0 00-.19-.048c-2.573.061-5.147.229-7.72.146-2.381-.069-5.069-.2-7.459-.32l-.155-.008-.02-.001h-.015a.876.876 0 00-.346.065 5.134 5.134 0 00-.19-.312c-.59-.866-1.404-1.633-2.333-2.118-.408-.2-.819-.352-1.292-.392a.119.119 0 00-.12.154c.295.845.917 1.496 1.618 2.01.583.421 1.219.79 1.915.995a.897.897 0 00-.059.1l-.259.48c-.098.186-.655 1.208-.738 1.368-.02.038-.09.173-.109.206-.299.523.081 1.195.677 1.223l.183.007c.212.008.425.014.638.02-.267 3.264-.385 6.533-.464 9.804a1.075 1.075 0 001.027 1.134c4.978.094 10.017.058 14.998-.052a1.024 1.024 0 00.975-1.082c-.085-3.331-.209-6.66-.434-9.99l.661-.028.174-.008a.631.631 0 00.51-.943l-.037-.068-.074-.138c-.085-.167-.639-1.187-.733-1.371-.055-.1-.165-.31-.22-.412-.026-.048-.039-.081-.09-.163l-.026-.034c.148-.037.29-.082.427-.132.981-.368 1.92-.977 2.61-1.766.29-.348.536-.712.686-1.162.028-.076-.038-.16-.119-.152zm-4.326 5.516l-2.167-2.167 1.096.04 2.173 2.174c-.367-.017-.735-.032-1.102-.047zm-2.996-.111l-2.138-2.138c.37.005.741.013 1.112.022a.132.132 0 00.037.071l2.082 2.082a199.45 199.45 0 00-1.093-.037zm1.495.052l-2.158-2.158c.363.01.727.023 1.091.036l2.165 2.164-1.098-.042zm-3.97-2.193a.137.137 0 00.039.091l2.037 2.037-1.087-.032-2.097-2.096c.37-.004.738-.004 1.107 0zm-1.456.005c.005.026.017.05.037.07l2.01 2.01-1.085-.025-2.027-2.026.51-.016c.185-.005.37-.01.555-.013zM9.576 14.41l.622.622a202.05 202.05 0 00-.853-.003l.231-.619zm1.012.624l-.896-.895c.11-.231.247-.448.408-.648l1.555 1.555c-.356-.005-.712-.01-1.067-.012zm1.458.016l-1.772-1.771.159-.191.682-.024 2.005 2.005-1.074-.019zM4.37 13.383c-.008-.001-.011-.01-.007-.017v-.001h.004l.02-.002.155-.007 2.487-.123a289.44 289.44 0 013.038-.132l-.142.171c-.257.31-.46.659-.601 1.037l-.27.72c-1.808 0-3.615.027-5.422.088.182-.422.422-.978.518-1.209.045-.1.139-.33.184-.43.016-.043.049-.115.036-.095zm.166 12.612c.001 0 .001 0 0 0-.002 0 0 0 0 0zm14.926.052s.001 0 0 0zm.198-7.82l-1.78.319a.732.732 0 00-.572.505l-.29.933a.46.46 0 01-.31.305l-9.422 2.78a1.103 1.103 0 00-.739.722l-.483 1.507a.136.136 0 10.26.083l.484-1.507a.831.831 0 01.556-.543l9.422-2.78a.734.734 0 00.494-.487l.289-.933a.46.46 0 01.36-.317l1.716-.307c-.145 2.595-.258 5.293-.273 7.537a399.006 399.006 0 00-12.03-.089c-.718.005-1.908.024-2.622.036h-.023c-.082-3.222-.199-6.45-.461-9.665 5.181.152 10.373.034 15.552-.185-.045.68-.087 1.378-.128 2.087zm1.074-2.754zm-.298-.692l-1.625-1.624.802.026a.19.19 0 01.173.1l.65 1.498z" fill="#3E3E3E"/></svg>