<svg width="24" height="20" fill="none" xmlns="http://www.w3.org/2000/svg"><path d="M23.25 12.46c0-1.466-.414-3.15-1.107-4.503-.724-1.413-1.65-2.275-2.648-2.48-.564-2.55-2.045-4.97-3.98-4.97-1.534 0-2.783 1.522-3.515 3.425C11.268 2.029 10.019.508 8.484.508c-1.934 0-3.415 2.418-3.979 4.97-.997.204-1.924 1.066-2.648 2.479C1.164 9.31.75 10.994.75 12.461H0v4.219h1.722l1.406 2.812H6.81l1.406-2.812h.537l1.406 2.812h3.682l1.406-2.812h.537l1.406 2.812h3.682l1.406-2.812H24v-4.22h-.75zm-2.359-3.862c.588 1.147.953 2.627.953 3.863h-5.625c0-1.236.365-2.716.952-3.863.565-1.103 1.26-1.762 1.86-1.762.6 0 1.295.659 1.86 1.762zm-6.934-5.45c.501-.784 1.07-1.234 1.559-1.234.489 0 1.057.45 1.558 1.234.434.68.791 1.56 1.012 2.481-.813.349-1.56 1.145-2.166 2.328-.149.29-.283.594-.404.908a9.532 9.532 0 00-.404-.908c-.606-1.183-1.354-1.98-2.167-2.328.221-.921.578-1.801 1.012-2.48zm-.097 5.45c.588 1.147.953 2.627.953 3.863H9.186c0-1.236.365-2.716.953-3.863.565-1.103 1.26-1.762 1.86-1.762.6 0 1.295.659 1.86 1.762zm-6.934-5.45c.501-.784 1.07-1.234 1.558-1.234.49 0 1.058.45 1.559 1.234.434.68.79 1.56 1.012 2.481-.813.349-1.561 1.145-2.167 2.328a9.83 9.83 0 00-.404.908 9.53 9.53 0 00-.403-.908c-.606-1.183-1.354-1.98-2.167-2.328.22-.921.577-1.801 1.012-2.48zm-3.817 5.45c.565-1.103 1.26-1.762 1.86-1.762.6 0 1.295.659 1.86 1.762.587 1.147.952 2.627.952 3.863H2.156c0-1.236.365-2.716.953-3.863zm19.485 6.675h-1.185l-1.406 2.813h-1.944l-1.406-2.813h-2.275l-1.406 2.813h-1.944l-1.406-2.813H7.347L5.94 18.086H3.997l-1.406-2.813H1.406v-1.406h21.188v1.406z" fill="#3E3E3E"/></svg>