<svg width="22" height="22" fill="none" xmlns="http://www.w3.org/2000/svg"><path fill-rule="evenodd" clip-rule="evenodd" d="M21.75 1v1.913a4.577 4.577 0 01-4.577 4.577H15.26a.75.75 0 01-.75-.75V4.827A4.576 4.576 0 0119.087.25H21a.75.75 0 01.75.75zm-1.5.75h-1.163a3.078 3.078 0 00-3.077 3.077V5.99h1.163a3.078 3.078 0 003.077-3.077V1.75z" fill="#3E3E3E"/><path fill-rule="evenodd" clip-rule="evenodd" d="M21.193 9.986l-1.353 1.353a4.573 4.573 0 01-6.472 0l-1.353-1.353a.749.749 0 010-1.06l1.353-1.353a4.573 4.573 0 016.472 0l1.353 1.353a.749.749 0 010 1.06zm-1.591-.53l-.823-.823a3.075 3.075 0 00-4.351 0l-.822.823.822.823a3.078 3.078 0 004.35 0l.824-.823z" fill="#3E3E3E"/><path fill-rule="evenodd" clip-rule="evenodd" d="M17.132 14.045l-1.353 1.353a4.573 4.573 0 01-6.472 0l-1.353-1.353a.749.749 0 010-1.06l1.353-1.353a4.573 4.573 0 016.472 0l1.353 1.353a.749.749 0 010 1.06zm-1.59-.53l-.823-.823a3.078 3.078 0 00-4.352 0l-.822.823.822.823a3.078 3.078 0 004.352 0l.822-.823z" fill="#3E3E3E"/><path fill-rule="evenodd" clip-rule="evenodd" d="M13.073 18.104l-1.353 1.353a4.577 4.577 0 01-6.471 0l-1.353-1.353a.75.75 0 010-1.06l1.353-1.353a4.573 4.573 0 016.471 0l1.353 1.352a.75.75 0 010 1.061zm-1.59-.53l-.822-.823a3.077 3.077 0 00-4.352 0l-.822.823.822.822a3.079 3.079 0 004.352 0l.822-.822zM13.074.808l1.353 1.353a4.573 4.573 0 010 6.472l-1.353 1.353a.749.749 0 01-1.06 0l-1.353-1.353a4.573 4.573 0 010-6.472L12.014.808a.749.749 0 011.06 0zm-.53 1.59l-.823.824a3.075 3.075 0 000 4.35l.823.823.823-.822a3.078 3.078 0 000-4.351l-.823-.823z" fill="#3E3E3E"/><path fill-rule="evenodd" clip-rule="evenodd" d="M9.016 4.867l1.353 1.353a4.573 4.573 0 010 6.472l-1.353 1.353a.749.749 0 01-1.06 0l-1.353-1.353a4.573 4.573 0 010-6.472l1.353-1.353a.749.749 0 011.06 0zm-.53 1.591l-.823.822a3.078 3.078 0 000 4.352l.823.822.823-.822a3.078 3.078 0 000-4.352l-.823-.822z" fill="#3E3E3E"/><path fill-rule="evenodd" clip-rule="evenodd" d="M4.956 8.926l1.352 1.353a4.573 4.573 0 010 6.472l-1.352 1.353a.75.75 0 01-1.06 0l-1.354-1.353a4.577 4.577 0 010-6.472l1.353-1.353a.75.75 0 011.061 0zm-.53 1.591l-.823.822a3.079 3.079 0 000 4.352l.822.822.823-.822a3.078 3.078 0 000-4.352l-.823-.822z" fill="#3E3E3E"/><path fill-rule="evenodd" clip-rule="evenodd" d="M1.53 21.53a.749.749 0 11-1.06-1.06L12.352 8.587a.752.752 0 011.06 0 .752.752 0 010 1.06L1.53 21.53z" fill="#3E3E3E"/></svg>