<svg width="160" height="160" fill="none" xmlns="http://www.w3.org/2000/svg"><rect x="2" y="2" width="156" height="156" rx="78" stroke="#B7D8A1" stroke-width="4"/><path d="M113.975 75.414c-3.036-.828-6.167-.817-9.294-.947-.869-.036-1.736-.101-2.603-.156 3.513-3.94 8.357-7.047 10.145-12.233 1.75-5.072-1.345-9.05-6.04-10.928-2.966-1.186-6.028-.577-8.909 1.058-.775-.366-1.453.247-1.516.968-3.935 2.779-7.414 7.327-9.65 11.63.25-2.153.532-4.308.812-6.487.54-4.207 1.856-10.373-.345-14.374-2.895-5.26-14.909-5.59-16.71 1.017-1.305 4.783.757 10.059 1.055 14.857.17 2.744.483 5.512.867 8.285-1.4-1.882-2.997-3.64-4.282-5.095-2.833-3.205-6.55-5.617-10.942-5.427-9.396.406-9.886 11.422-3.938 16.502-6.984 1.35-12.123 5.02-10.363 13.008.104.472.545.903 1.013 1.013.947.222 1.896.385 2.845.563-1.413 9.254 3.079 19.696 5.484 28.359.39 1.402 1.846 1.454 2.675.727 16.706 1.149 34.256 4.151 50.778.47.979-.218 1.299-.991 1.184-1.736 5.28-8.614 5.96-18.755 8.149-28.444.523.059 1.045.096 1.566.165.625.083 1.324-.517 1.449-1.103.854-3.997 1.831-10.257-3.43-11.692zM97.582 55.732c.959.993 1.92 1.975 2.747 3.129a19.57 19.57 0 011.426 2.363c-2.072-1.459-4.328-2.634-6.69-3.626a21.308 21.308 0 012.517-1.866zm-3.476 2.723c3.68 1.927 7.059 4.268 9.66 7.579.771.98 2.255-.09 1.977-1.15-.946-3.62-2.891-7.593-5.671-10.435 1.328-.526 2.688-.83 4.064-.808 2.759.042 5.744 2.924 5.867 5.582.108 2.33-1.999 4.816-3.36 6.49-2.364 2.906-5.032 5.423-7.26 8.427-.705-.054-1.41-.114-2.116-.172a.946.946 0 00.012-.693c-.737-2.132-1.846-4.064-3.02-5.981-1.04-1.697-1.942-3.853-3.542-5.082 1.051-1.335 2.181-2.617 3.389-3.757zm-4.484 5.218c.348 1.515 1.435 2.852 2.266 4.141.249.386.495.773.741 1.161a19.151 19.151 0 00-4.873-2.482 44.466 44.466 0 011.866-2.82zm-4.037 6.841c.434-.93.943-1.914 1.515-2.918.004.001.005.004.008.005 3.186 1.258 5.941 3.422 7.958 6.186-3.205-.27-6.41-.536-9.626-.65.027-.879.088-1.75.145-2.623zM77.325 44.1c6.78-2.501 6.665 3.498 6.694 6.675.056 6.012-1.552 11.97-2.09 17.943-.403 4.472 1.704 15.103-4.857 14.274a95.517 95.517 0 00-.297-5.642c.723-.181.745-1.354-.033-1.6l-.109-.033c-.52-5.698-1.354-11.348-1.766-17.096-.217-3.015-1-6.027-1.38-9.023-.612-2.56.667-4.393 3.838-5.498zM72.6 74.709a65.432 65.432 0 00-8.685-1.144l1.843-.745c1.336-.54 2.82-.99 4.084-1.72.818 1.27 1.665 2.606 2.758 3.61zM51.636 64.062c.763-3.237 4.032-3.793 6.934-3.235-2.343 2.309-4.354 5.065-5.223 8.26-.202.742.55 1.689 1.362 1.361 1.64-.66 3.225-1.439 4.819-2.204 1.666-.8 3.605-1.286 5.044-2.448.602-.487.078-1.434-.598-1.442-1.544-.021-2.982.802-4.37 1.425-1.166.524-2.319 1.078-3.476 1.621.841-2.281 2.21-4.386 3.758-6.238a9.592 9.592 0 012.026.896c2.785 1.688 4.893 4.629 6.745 7.285-1.187.353-2.35.932-3.48 1.378l-2.297.909c.79-1.583 1.94-2.866 3.414-4.11.646-.548-.207-1.65-.905-1.173-2.548 1.744-4.771 3.8-5.471 6.922-.014.06-.013.122-.015.184-2.035.01-4.057.125-5.97.41a.742.742 0 00-.033-.697c-1.572-2.862-3.053-5.75-2.264-9.104zm1.317 13.783c6.407-1.522 13.579-1.146 20.29-.688.35 1.964.708 3.92 1.056 5.86-.793.727-.775 2.309.52 2.862.07.31.256.49.473.612-1.76.174-3.516.333-5.264.462-6.98.52-13.951.469-20.885-.546-9.306-1.361-.241-7.6 3.81-8.562zm51.913 37.104a1.824 1.824 0 00-.716-.009c-16.5 3.006-32.96-1.03-49.483.42-1.79-8.938-5.716-17.156-6.459-26.304 20.924 3.296 42.027-2.878 63.072-1.317-2.156 9.086-3.34 18.359-6.414 27.21zm8.488-30.088c-10.333-1.37-20.901-.222-31.349.92 2.338-1.694 3.134-5.4 3.324-9.354 6.46.215 12.888.936 19.352 1.196 2.458.098 4.902.022 7.346.385 3.275.488 4.364 7.255 1.327 6.853z" fill="#B7D8A1"/><path d="M105.141 92.025c-1.816 1.612-3.515 3.345-5.181 5.111l-.197-.172a47.233 47.233 0 00-4.559-3.554c.067-.625-.537-1.296-1.17-.836l-.033.025a50.75 50.75 0 00-1.646-1.025c-.667-.394-1.214.591-.598 1.02.39.273.742.586 1.122.87-2.435 1.888-4.743 4.02-6.955 6.282a95.338 95.338 0 00-4.371-3.773 124.97 124.97 0 003.332-3.291c.664-.686-.187-1.825-1.023-1.327-1.49.886-2.894 1.952-4.26 3.09-.51-.39-1.015-.787-1.538-1.164-.635-.457-1.44.589-.837 1.084.413.338.81.693 1.215 1.04-1.7 1.518-3.318 3.186-4.89 4.913a127.042 127.042 0 00-2.923-2.71 41.881 41.881 0 001.659-1.989c.597-.764-.366-1.819-1.096-1.095-.642.638-1.287 1.267-1.93 1.903-1.435-1.242-2.897-2.456-4.429-3.597-.474-.354-1.083.44-.631.818 1.406 1.176 2.74 2.458 4.052 3.774-1.406 1.39-2.81 2.785-4.223 4.167a92.957 92.957 0 00-4.435-4.313 49.033 49.033 0 012.445-2.343c.546-.483-.194-1.46-.785-1.017-.988.74-1.86 1.576-2.692 2.445-1.335-1.168-2.693-2.29-4.095-3.318.505-.383 1.015-.764 1.487-1.207.433-.406-.115-1-.597-.773-.656.307-1.265.79-1.818 1.338-.855-.596-1.712-1.188-2.592-1.717-.23-.138-.5.197-.29.376.773.66 1.511 1.354 2.25 2.047-.462.576-.868 1.19-1.142 1.816-.15.342.306.631.511.299.365-.591.835-1.049 1.333-1.475a96.464 96.464 0 013.778 3.892c-1.007 1.185-1.944 2.436-2.865 3.721-.372.519.49 1.185.884.683a59.33 59.33 0 012.893-3.411 337.222 337.222 0 014.064 4.559c-1.419 1.376-2.832 2.758-4.274 4.116a158.668 158.668 0 01-4.038-4.706c-.267-.322-.667.089-.53.41 1.436 3.363 4.158 6.645 7.156 8.717.574.396 1.22-.481.733-.951a66.005 66.005 0 01-2.486-2.558 292.965 292.965 0 004.551-3.766 209.07 209.07 0 003.287 3.653 94.941 94.941 0 01-3.101 3.387c-.335.346.112.979.529.686 1.28-.902 2.476-1.904 3.643-2.939 1.63 1.72 3.306 3.396 5.09 4.963.837.735 1.932-.374 1.214-1.216-1.477-1.73-3.004-3.523-4.569-5.32 1.465-1.397 2.88-2.851 4.297-4.295a179.052 179.052 0 004.463 4.738c-.768.881-1.531 1.757-2.289 2.617-.576.655.303 1.537.956.956.857-.761 1.718-1.555 2.578-2.336 2.097 2.046 4.282 3.964 6.675 5.575.829.558 1.645-.644 1.024-1.326-1.857-2.04-3.887-3.952-5.935-5.848a236.753 236.753 0 005.052-4.811c.228.233.459.463.686.697 1.15 1.183 2.283 2.488 3.454 3.775a90.04 90.04 0 01-2.62 2.642c-.74.711.356 1.776 1.115 1.115.918-.799 1.803-1.641 2.7-2.469 1.623 1.703 3.344 3.288 5.293 4.409.676.389 1.6-.419 1.117-1.118-.053-.077-.114-.149-.169-.226a.452.452 0 00.46-.158c2.001-2.417 3.892-4.963 5.34-7.75.135.108.254.235.393.338.755.553 1.569-.485 1.194-1.194-.877-1.66-2.245-3.045-3.668-4.33a272.036 272.036 0 004.767-5.327c.789-.906-.411-2.116-1.312-1.316zM68.354 106.28a165.173 165.173 0 00-3.082-3.384 67.859 67.859 0 004.3-4.152c.929.967 1.846 1.95 2.757 2.943-1.346 1.523-2.666 3.072-3.975 4.593zm11.5.087a144.603 144.603 0 01-3.634-3.451c-.316-.314-.637-.618-.954-.929 1.678-1.656 3.402-3.267 5.113-4.89a121.947 121.947 0 014.222 4.022 193.551 193.551 0 00-4.747 5.248zm12.368-.75c-1.26-1.153-2.528-2.282-3.704-3.423-.23-.223-.467-.439-.699-.661a151.438 151.438 0 006.53-6.93 53.81 53.81 0 014.1 3.673c.074.073.14.155.212.229-2.164 2.352-4.27 4.763-6.44 7.112zm10.285-2.871c-1.835 2.611-3.21 5.501-4.963 8.172a.509.509 0 00-.07.181c-1.128-1.468-2.445-2.84-3.83-4.158a171.915 171.915 0 006.597-6.696c.738.852 1.473 1.71 2.266 2.501z" fill="#B7D8A1"/></svg>