<svg width="24" height="24" fill="none" xmlns="http://www.w3.org/2000/svg"><path d="M3.979 22.58h6.314a2.86 2.86 0 001.982.75c1.6-.048 8.793.807 9.977-.937 1.76-1.152-.03-11.662.21-13.374.087-2.002-5.794-.72-6.78-1.064-.327-1.565.695-5.15-2.135-4.5-.233-3.847-5.094-3.778-5.426 0-.77.004-2.05-.198-2.12.898L5.66 10.58c-.84.226-4.253-.662-4.242.898.332 2.677-2.39 11.208 2.56 11.102zM21.337 8.705a.375.375 0 01.375.355c-.372 1.483 1.078 7.664.5 11.134a6.172 6.172 0 00-.8-.58.269.269 0 00-.364.364c.268.375.611.69 1.008.924-.037.127-.078.25-.123.365a26.005 26.005 0 01-1.47-1.223c-.101-.08-.22-.222-.36-.206-.796.183 1.293 1.77 1.587 1.903-.057.092-.121.18-.192.262a4.75 4.75 0 00-1.007-.745.135.135 0 00-.143.05c-.075.11.03.235.094.326.21.242.395.515.627.735a1.98 1.98 0 01-1.114.274c-.676-.08-10.285 1.579-9.927-2.436l.609-11.147a.375.375 0 01.374-.355h10.326zM8.97 2.768c.735-2.625 3.934-1.93 3.914.687h-4.04a3.81 3.81 0 01.126-.687zM6.457 9.734c.22-.23.462-.438.722-.621a.137.137 0 00-.133-.228 1.338 1.338 0 00-.565.413l.268-4.901c-.003-.336.772-.144.95-.192h.387c.005.25.027.5.065.748-.161.054-.397.175-.351.377a.216.216 0 00.203.155c.245.017.478-.077.722-.084.283.026.567-.043.806-.196.267-.41-.484-.499-.748-.416.01-.194.015-.39.02-.584h4.072c-.027.243.002.49.085.72-.26.004-.729.167-.438.422.342.1.7.135 1.055.104.679.052.709-.641.004-.573.055-.21-.077-.444-.042-.673h.16c.18.054 1.038-.153 1.035.19l.196 3.56c-2.45.313-5.522-1.298-5.127 2.625H8.027c.166-.122.322-.257.467-.402a.202.202 0 00-.104-.34.204.204 0 00-.14.022c-.377.179-.72.423-1.012.72h-.556c.508-.372.983-.788 1.419-1.242a.165.165 0 00.013-.213.163.163 0 00-.21-.042c-.52.394-1.015.821-1.481 1.28l.034-.63zm-4.725 9.724c1.052-9.907-2.315-7.983 8.03-8.128.094 1.282-.968 9.52-.083 10.5-1.99-.331-8.214 1.275-7.947-2.372z" fill="#3E3E3E"/><path d="M12.421 11.825c.146.071.31-.005.463-.014.333 6.045 6.636 5.392 7.16-.159a.327.327 0 00.05-.651 2.126 2.126 0 00-.668.058.252.252 0 00-.15.368.51.51 0 00.361.174 4.115 4.115 0 01-1.072 2.225c-2.505 3.024-4.744 1.148-5.365-2.061a.935.935 0 00.329-.08.26.26 0 00-.13-.483 8.168 8.168 0 00-.918.165.252.252 0 00-.156.352.253.253 0 00.096.106zm-8.736 1.921a.94.94 0 00.247.042c-.234.467.154 1.223.382 1.603.357.685 1.106.93 1.83.979 1.505.385 2.652-1.108 2.458-2.52.147-.053.365-.15.34-.34a.218.218 0 00-.158-.183 1.94 1.94 0 00-.867.039c-.794.112-.37.5.172.502a4.266 4.266 0 01-.394 1.49 1.315 1.315 0 01-1.414.563 2.077 2.077 0 01-1.916-2.077c.14.02.28.004.411-.045a.245.245 0 00.058-.442 1.352 1.352 0 00-1.199.012.209.209 0 00.05.377zm-.592 6.559c.252.192.736.432 1.007.158.23-.293-.123-.484-.382-.523-.837-.286-.903-1.463-.704-2.19a.17.17 0 00-.078-.192c-.377-.192-.477.533-.518.758a2.036 2.036 0 00.675 1.989zm1.642.25a.326.326 0 00.46-.46.325.325 0 00-.46.46zm17.124-.635l.02.015c-.013-.012-.031-.024-.02-.015zm-10.842.36c.1.322.319.593.612.76a1.26 1.26 0 001.105.032.248.248 0 00.088-.335.248.248 0 00-.088-.09c-.265-.131-.564-.08-.837-.185-.52-.225-.54-.89-.548-1.378a8.13 8.13 0 01.053-1.034c.015-.139-.209-.165-.242-.033-.155.733-.36 1.524-.143 2.263zm2.454 1.049a.39.39 0 00.553-.553.391.391 0 00-.553.553z" fill="#3E3E3E"/></svg>