<svg width="24" height="24" fill="none" xmlns="http://www.w3.org/2000/svg"><path d="M19.695 6.123c.003-2.226.149-2.44-2.231-2.436a34.227 34.227 0 00-1.627.001c-.067-1.027-.26-2.037-.91-2.866-1.475-1.66-4.298-.381-4.459 1.71-.084.488-.088.984-.075 1.48-.393.029-.782.057-1.162.082-.365.025-1.108.062-1.474.082-.356.06-1.214-.144-1.166.464.228 3.216-1.81 8.317 2.304 9.773 1.186.307 2.414-.025 3.601.137 2.127-.08 4.936.76 6.549-1.094.501-.67.587-1.546.515-2.35.106-1.658.16-3.32.135-4.983zm-7.257-4.936c1.759-.568 2.147 1.086 2.162 2.545-1.111.052-2.24.134-3.34.216-.036-1.116.117-2.154 1.178-2.761zm-1.724 12.395c-5.023.594-3.25-5.488-3.282-8.515.993.084 1.99.114 2.989.118a5.554 5.554 0 01-.138 1.298c-.208.729.98.942 1.04.189.069-.462.05-.97.014-1.49 1.073-.01 2.146-.041 3.219-.058-.108.883-.373 1.995.665 2.082.905-.072.66-1.079.671-1.723a31.112 31.112 0 01-.01-.369 40.98 40.98 0 012.345.064c.096 2.27.066 4.652.093 6.914-.353 2.547-5.724 1.094-7.606 1.49z" fill="#61B291"/><path d="M23.402 22.703c-5.116.229-10.823 1.34-15.126-2.096-2.479-1.79-4.488-4.214-6.814-6.187-.691-.625-.12-1.503.614-1.69.776-.204 1.488.26 2.124.715 1.952 1.45 3.26 3.679 5.354 4.988a.733.733 0 00.384.096c.318.12.677.207 1.076.257 1.643.24 3.326.067 4.946-.12.475-.044.475-.788-.01-.82-1.723-.187-3.523-.097-5.2-.562-1.347-.364-1.102-1.038-.496-2.027 2.19-.956 4.655-.633 6.988-.565 1.433-.106 2.95-.115 4.294.444 1.378.504 1.897 1.952 1.54 3.286-.101.515.712.67.806.152.079-.394.13-.802.116-1.223-.096-3.327-4.152-3.832-6.739-3.648-1.88-.095-7.075-.876-8.243.871a4.14 4.14 0 00-.571 1.111l-.25-.244c-1.632-1.518-3.936-4.548-6.474-3.845-1.672.536-2.362 2.422-.99 3.67 1.17.952 2.415 2.158 3.516 3.204 1.683 1.577 3.455 3.14 5.53 4.178 3.192 1.53 6.824 1.341 10.258 1.194a57.465 57.465 0 013.413-.081c.676-.023.646-1.095-.046-1.058z" fill="#61B291"/></svg>