<svg width="26" height="23" fill="none" xmlns="http://www.w3.org/2000/svg"><path d="M8.763 5.215h14.593l-7.972 6.26c-.169.133-.37.198-.552.216a1.086 1.086 0 01-.556-.215L8.58 7a.609.609 0 00-.203-.108c.268-.379.42-.836.413-1.33a3.194 3.194 0 00-.026-.347zM5.05 1.19a.556.556 0 01.115.045c.13.062.336.22.538.442.406.443.812 1.114 1.023 1.557a.753.753 0 01.02.042c.599 1.027.857 1.813.865 2.305.008.495-.125.708-.545.95l-1.082.624c-.706.406-1.039 1.133-1.121 1.812-.084.68.039 1.34.34 1.86l2.673 4.607c.303.521.82.957 1.452 1.225.632.269 1.432.345 2.137-.06l1.083-.623c.42-.24.673-.246 1.099.008.427.253.982.867 1.578 1.894a.6.6 0 00.026.043c.28.403.66 1.086.843 1.659.091.284.127.541.116.683-.013.143-.016.128-.054.15l-.824.473c-2.07.898-3.966.695-5.661-.184-1.699-.883-3.175-2.477-4.204-4.35-.003-.003-.005-.008-.008-.01l-2.254-3.885c-.004-.004-.005-.008-.008-.013-1.116-1.823-1.766-3.892-1.684-5.797.081-1.901.853-3.635 2.67-4.969l.824-.47c.02-.011.026-.02.043-.018zM5.06.032a1.229 1.229 0 00-.64.158l-.872.501-.056.034C1.396 2.26.43 4.395.336 6.597c-.094 2.201.64 4.473 1.855 6.458l2.247 3.872-.006-.011c1.122 2.038 2.73 3.806 4.693 4.824 1.965 1.02 4.306 1.257 6.69.217a.442.442 0 00.058-.028l.872-.502c.404-.23.607-.676.64-1.066.033-.389-.046-.768-.166-1.14-.236-.738-.647-1.455-.987-1.946-.642-1.104-1.262-1.87-1.978-2.3a2.256 2.256 0 00-2.295-.017l-1.083.624c-.32.184-.693.163-1.087-.004-.392-.166-.754-.499-.89-.732L6.228 10.24c-.135-.234-.245-.713-.193-1.135.05-.42.221-.75.542-.934l1.051-.605c.028.14.107.269.223.355l5.697 4.476c.37.291.81.453 1.252.479a.645.645 0 00.068 0c.442-.026.88-.188 1.25-.48l7.847-6.164v10.184c0 .155-.177.36-.523.36h-5.433a.588.588 0 100 1.173h5.433c.887 0 1.704-.642 1.704-1.533V5.574c0-.89-.817-1.532-1.704-1.532H8.439a10.455 10.455 0 00-.661-1.334C7.519 2.169 7.1 1.458 6.575.886 6.31.596 6.024.339 5.666.173v.001A1.513 1.513 0 005.06.032z" fill="#61B291"/></svg>