<svg width="20" height="20" fill="none" xmlns="http://www.w3.org/2000/svg"><g clip-path="url(#clip0_2118_8192)" fill="#3E3E3E"><path d="M11.675 7.882A3.786 3.786 0 007.892 4.1a3.785 3.785 0 00-3.781 3.782 3.787 3.787 0 003.781 3.782 3.787 3.787 0 003.783-3.782zm-3.783 2.61a2.613 2.613 0 01-2.61-2.61c0-1.44 1.172-2.61 2.61-2.61 1.44 0 2.611 1.17 2.611 2.61a2.614 2.614 0 01-2.61 2.61zm11.574 3.33l-4.324-3.675a.592.592 0 00.04-.108c.186-.72.28-1.445.28-2.157 0-4.174-3.396-7.57-7.57-7.57C3.72.313.325 3.708.325 7.883c0 2.049.756 4.112 2.31 6.309 1.296 1.832 2.934 3.443 4.25 4.738l.595.588a.584.584 0 00.827 0c.188-.187.386-.381.59-.582l.32-.316v.483c0 .323.263.585.586.585h8.014a.586.586 0 00.586-.585v-4.647l.305.26a.584.584 0 00.826-.067.586.586 0 00-.067-.826zM8.074 18.099l-.181.179-.187-.184c-2.62-2.579-6.21-6.11-6.21-10.212a6.404 6.404 0 016.396-6.398 6.405 6.405 0 016.398 6.398c0 .468-.048.945-.142 1.422a.586.586 0 00-.72.031l-5.276 4.487a.586.586 0 10.759.893l.305-.26v2.509c-.391.396-.772.771-1.142 1.135zm6.225.417h-.98v-2.511h.98v2.51zm2.93 0h-1.758v-3.097a.586.586 0 00-.586-.586h-2.153a.586.586 0 00-.586.586v3.097h-1.758v-5.057l3.42-2.908 3.422 2.908v5.057z"/><path d="M11.675 7.882A3.786 3.786 0 007.892 4.1a3.785 3.785 0 00-3.781 3.782 3.787 3.787 0 003.781 3.782 3.787 3.787 0 003.783-3.782zm-3.783 2.61a2.613 2.613 0 01-2.61-2.61c0-1.44 1.172-2.61 2.61-2.61 1.44 0 2.611 1.17 2.611 2.61a2.614 2.614 0 01-2.61 2.61zm11.574 3.33l-4.324-3.675a.592.592 0 00.04-.108c.186-.72.28-1.445.28-2.157 0-4.174-3.396-7.57-7.57-7.57C3.72.313.325 3.708.325 7.883c0 2.049.756 4.112 2.31 6.309 1.296 1.832 2.934 3.443 4.25 4.738l.595.588a.584.584 0 00.827 0c.188-.187.386-.381.59-.582l.32-.316v.483c0 .323.263.585.586.585h8.014a.586.586 0 00.586-.585v-4.647l.305.26a.584.584 0 00.826-.067.586.586 0 00-.067-.826zM8.074 18.099l-.181.179-.187-.184c-2.62-2.579-6.21-6.11-6.21-10.212a6.404 6.404 0 016.396-6.398 6.405 6.405 0 016.398 6.398c0 .468-.048.945-.142 1.422a.586.586 0 00-.72.031l-5.276 4.487a.586.586 0 10.759.893l.305-.26v2.509c-.391.396-.772.771-1.142 1.135zm6.225.417h-.98v-2.511h.98v2.51zm2.93 0h-1.758v-3.097a.586.586 0 00-.586-.586h-2.153a.586.586 0 00-.586.586v3.097h-1.758v-5.057l3.42-2.908 3.422 2.908v5.057z"/></g><defs><clipPath id="clip0_2118_8192"><path fill="#fff" d="M0 0h20v20H0z"/></clipPath></defs></svg>