<svg width="20" height="20" fill="none" xmlns="http://www.w3.org/2000/svg"><g clip-path="url(#clip0_2118_8177)" fill="#3E3E3E"><path d="M7.188 19.375a2.187 2.187 0 110-4.375 2.187 2.187 0 010 4.375zm0-3.125a.938.938 0 100 1.875.938.938 0 000-1.875zm6.875 3.125a2.187 2.187 0 110-4.375 2.187 2.187 0 010 4.375zm0-3.125a.937.937 0 100 1.875.937.937 0 000-1.875z"/><path d="M14.688 16.25H5.312a2.188 2.188 0 010-4.375h8.438a.624.624 0 110 1.25H5.312a.938.938 0 000 1.875h9.375a.624.624 0 110 1.25z"/><path d="M14.744 13.125H6.25a.625.625 0 01-.61-.49L3.25 1.876h-2a.625.625 0 010-1.25h2a1.242 1.242 0 011.219.979l2.281 10.27h7.994a.625.625 0 00.588-.415l2.83-7.92a.625.625 0 011.177.42l-2.829 7.92a1.879 1.879 0 01-1.766 1.245z"/><path d="M11.251 10.212c-.66 0-1.83-.984-3.474-2.927a2.809 2.809 0 01.037-3.697 2.449 2.449 0 013.382 0l.055.058.058-.058a2.449 2.449 0 013.382 0 2.82 2.82 0 010 3.734c-1.61 1.906-2.778 2.89-3.44 2.89zm-1.75-6.074a1.134 1.134 0 00-.807.334 1.625 1.625 0 000 1.967c.742.94 1.602 1.782 2.557 2.505a14.078 14.078 0 002.521-2.467 1.634 1.634 0 00.035-2.005 1.167 1.167 0 00-1.614 0l-.5.5a.625.625 0 01-.884 0l-.5-.5a1.136 1.136 0 00-.808-.334zM7.188 19.375a2.187 2.187 0 110-4.375 2.187 2.187 0 010 4.375zm0-3.125a.938.938 0 100 1.875.938.938 0 000-1.875zm6.875 3.125a2.187 2.187 0 110-4.375 2.187 2.187 0 010 4.375zm0-3.125a.937.937 0 100 1.875.937.937 0 000-1.875z"/><path d="M14.688 16.25H5.312a2.188 2.188 0 010-4.375h8.438a.624.624 0 110 1.25H5.312a.938.938 0 000 1.875h9.375a.624.624 0 110 1.25z"/><path d="M14.744 13.125H6.25a.625.625 0 01-.61-.49L3.25 1.876h-2a.625.625 0 010-1.25h2a1.242 1.242 0 011.219.979l2.281 10.27h7.994a.625.625 0 00.588-.415l2.83-7.92a.625.625 0 011.177.42l-2.829 7.92a1.879 1.879 0 01-1.766 1.245z"/><path d="M11.251 10.212c-.66 0-1.83-.984-3.474-2.927a2.809 2.809 0 01.037-3.697 2.449 2.449 0 013.382 0l.055.058.058-.058a2.449 2.449 0 013.382 0 2.82 2.82 0 010 3.734c-1.61 1.906-2.778 2.89-3.44 2.89zm-1.75-6.074a1.134 1.134 0 00-.807.334 1.625 1.625 0 000 1.967c.742.94 1.602 1.782 2.557 2.505a14.078 14.078 0 002.521-2.467 1.634 1.634 0 00.035-2.005 1.167 1.167 0 00-1.614 0l-.5.5a.625.625 0 01-.884 0l-.5-.5a1.136 1.136 0 00-.808-.334z"/></g><defs><clipPath id="clip0_2118_8177"><path fill="#fff" d="M0 0h20v20H0z"/></clipPath></defs></svg>