<svg width="20" height="20" fill="none" xmlns="http://www.w3.org/2000/svg"><g clip-path="url(#clip0_2118_8197)"><path d="M10.183 17.08h-4.87a4.109 4.109 0 01-4.104-4.105V5.1A4.11 4.11 0 015.313.994H9.97v1.804a2.781 2.781 0 002.778 2.778h1.814V7.81a.487.487 0 00.974 0V5.1a.487.487 0 00-.142-.345l-2.005-2.006L10.802.162a.487.487 0 00-.345-.142H5.313A5.085 5.085 0 00.234 5.1v7.875c0 2.8 2.279 5.08 5.08 5.08h4.87a.487.487 0 100-.975zM13.862 4.6h-1.114a1.805 1.805 0 01-1.803-1.803V1.683L12.7 3.438l1.162 1.163zM3.43 5.884c0-.269.218-.487.488-.487h4.388a.487.487 0 110 .975H3.918a.487.487 0 01-.488-.488zm8.423 3.64H3.918a.487.487 0 110-.974h7.935a.487.487 0 110 .974zm-2.591 2.178a.487.487 0 010 .975H3.918a.487.487 0 110-.975h5.344zm10.201-.92l-4.229-1.736a.487.487 0 00-.37 0l-4.228 1.736a.487.487 0 00-.302.45v3.84c0 .041.005.083.016.123.605 2.308 2.087 3.863 4.532 4.756a.488.488 0 00.334 0c2.444-.892 3.927-2.447 4.533-4.755a.483.483 0 00.016-.124v-3.84a.487.487 0 00-.302-.45zm-.672 4.226c-.515 1.891-1.741 3.19-3.742 3.965-2.001-.776-3.226-2.075-3.74-3.965V11.56l3.74-1.537 3.742 1.537v3.448z" fill="#3E3E3E"/></g><defs><clipPath id="clip0_2118_8197"><path fill="#fff" d="M0 0h20v20H0z"/></clipPath></defs></svg>