<svg width="20" height="20" fill="none" xmlns="http://www.w3.org/2000/svg"><g clip-path="url(#clip0_2118_8157)"><path d="M19.787 8.127l-9.48-6.94a.52.52 0 00-.614 0l-9.48 6.94a.52.52 0 10.614.839L10 2.249l9.173 6.717a.517.517 0 00.727-.112.52.52 0 00-.113-.727z" fill="#3E3E3E"/><path d="M19.787 8.127l-9.48-6.94a.52.52 0 00-.614 0l-9.48 6.94a.52.52 0 10.614.839L10 2.249l9.173 6.717a.517.517 0 00.727-.112.52.52 0 00-.113-.727z" fill="#61B291"/><path d="M17.273 9.084a.52.52 0 00-.52.52v8.27h-4.157V13.36a2.601 2.601 0 00-2.598-2.599A2.601 2.601 0 007.4 13.36v4.515H3.242V9.603a.52.52 0 00-1.039 0v8.792c0 .287.233.52.52.52h5.196a.52.52 0 00.52-.52V13.36c0-.86.7-1.56 1.559-1.56.86 0 1.56.7 1.56 1.56v5.035l.001.04a.52.52 0 00.518.48h5.196a.52.52 0 00.52-.52V9.603a.52.52 0 00-.52-.52z" fill="#3E3E3E"/><path d="M17.273 9.084a.52.52 0 00-.52.52v8.27h-4.157V13.36a2.601 2.601 0 00-2.598-2.599A2.601 2.601 0 007.4 13.36v4.515H3.242V9.603a.52.52 0 00-1.039 0v8.792c0 .287.233.52.52.52h5.196a.52.52 0 00.52-.52V13.36c0-.86.7-1.56 1.559-1.56.86 0 1.56.7 1.56 1.56v5.035l.001.04a.52.52 0 00.518.48h5.196a.52.52 0 00.52-.52V9.603a.52.52 0 00-.52-.52z" fill="#61B291"/></g><defs><clipPath id="clip0_2118_8157"><path fill="#fff" d="M0 0h20v20H0z"/></clipPath></defs></svg>