<svg width="29" height="29" fill="none" xmlns="http://www.w3.org/2000/svg"><path fill-rule="evenodd" clip-rule="evenodd" d="M13.915 24.14H3.94a.234.234 0 01-.233-.233v-1.692c0-.97.692-1.823 1.758-2.549 1.904-1.3 4.985-2.118 8.45-2.118a.875.875 0 000-1.75c-3.875 0-7.306.97-9.437 2.422-1.625 1.108-2.521 2.516-2.521 3.994v1.693A1.984 1.984 0 003.94 25.89h9.975a.874.874 0 100-1.75zm.002-22.182A6.419 6.419 0 007.5 8.375a6.42 6.42 0 006.417 6.417 6.419 6.419 0 006.416-6.417 6.419 6.419 0 00-6.416-6.417zm0 1.75a4.668 4.668 0 014.666 4.667 4.668 4.668 0 01-4.666 4.667A4.668 4.668 0 019.25 8.375a4.668 4.668 0 014.667-4.667zm6.123 17.208v2.917a.875.875 0 001.75 0v-2.916a.875.875 0 00-1.75 0z" fill="#61B291"/><path d="M20.917 19.458a1.167 1.167 0 100-2.333 1.167 1.167 0 000 2.333z" fill="#61B291"/><path fill-rule="evenodd" clip-rule="evenodd" d="M20.914 14.791a6.127 6.127 0 00-6.125 6.125 6.127 6.127 0 006.125 6.125 6.127 6.127 0 006.125-6.125 6.127 6.127 0 00-6.125-6.125zm0 1.75a4.377 4.377 0 014.375 4.375 4.377 4.377 0 01-4.375 4.375 4.377 4.377 0 01-4.375-4.375 4.377 4.377 0 014.375-4.375z" fill="#61B291"/></svg>