<svg width="32" height="32" fill="none" xmlns="http://www.w3.org/2000/svg"><defs><clipPath id="a"><path fill="#fff" fill-opacity="0" d="M0 0h32v32H0z"/></clipPath></defs><path d="M0 0h32v32H0z"/><g clip-path="url(#a)" fill="#3E3E3E"><path d="M26.655 6.557c-2.852-.846-6.638-1.312-10.66-1.312s-7.807.466-10.66 1.312C2.32 7.45.719 8.647.695 10.017a19.56 19.56 0 00-.07 1.663c0 3.525 1.607 6.836 4.525 9.322a15.623 15.623 0 004.279 2.58c.131 1.407 1.306 2.588 2.89 2.859a22.11 22.11 0 003.704.313c1.23.001 2.457-.105 3.669-.318 1.57-.277 2.734-1.453 2.867-2.85a15.628 15.628 0 004.291-2.584c2.918-2.486 4.525-5.797 4.525-9.322 0-.444-.035-1.244-.08-1.663-.024-1.37-1.626-2.566-4.64-3.46zm-21.107.719c2.785-.827 6.495-1.282 10.447-1.282 3.952 0 7.662.455 10.447 1.282 2.57.762 4.103 1.798 4.103 2.77 0 .973-1.534 2.01-4.103 2.771-2.785.826-6.495 1.281-10.447 1.281-3.952 0-7.662-.454-10.447-1.28-2.57-.763-4.103-1.799-4.103-2.771 0-.973 1.534-2.009 4.103-2.771zm14.014 18.422a21.042 21.042 0 01-7.116.003c-1.098-.187-1.945-.912-2.2-1.815a17.92 17.92 0 0011.495.004c-.255.895-1.094 1.616-2.18 1.808zM16 24.085c-8.064 0-14.625-5.565-14.625-12.405v-.146c.74.765 2.073 1.443 3.96 2.003 2.853.846 6.638 1.312 10.66 1.312s7.808-.466 10.66-1.312c1.894-.562 3.231-1.244 3.969-2.012l.001.154c0 6.841-6.56 12.406-14.625 12.406z"/><path d="M6.734 12.548c2.438.605 5.674.938 9.111.938 3.437 0 6.673-.333 9.111-.938 3.323-.825 4.021-1.87 4.021-2.602 0-.732-.698-1.777-4.02-2.602-2.44-.605-5.675-.938-9.112-.938-3.437 0-6.672.333-9.11.938-3.324.825-4.022 1.87-4.022 2.602 0 .732.698 1.777 4.021 2.602zm.18-4.476c2.382-.59 5.553-.916 8.931-.916 3.378 0 6.55.325 8.93.916 2.545.631 3.452 1.382 3.452 1.874 0 .492-.907 1.242-3.452 1.874-2.38.59-5.552.916-8.93.916s-6.55-.325-8.93-.916c-2.545-.632-3.452-1.382-3.452-1.874 0-.492.907-1.243 3.452-1.874z"/><path d="M23.67 8.919c1.63.283 2.156.798 2.156 1.004 0 .12-.389.557-2.118.972a.375.375 0 10.175.73c1.812-.435 2.694-.992 2.694-1.702 0-.79-1.039-1.44-2.778-1.743a.375.375 0 00-.129.739zM5.526 10.238a.375.375 0 00.375-.375c0-.157.551-.704 3.001-1.158a.373.373 0 00.3-.437.375.375 0 00-.437-.3c-2.432.45-3.614 1.07-3.614 1.895a.376.376 0 00.375.375zm7.198-.851c0 .307.186.636.524.929.305.263.877.618 1.877.811.52.097 1.048.143 1.576.14.635-.004 1.27-.053 1.897-.148 1.313-.191 1.945-.48 2.115-.966.167-.478-.217-.888-.343-1.022-1.514-1.613-2.96-1.513-3.908-1.145-.645.25-1.362.368-1.995.471-.425.07-.792.13-1.075.221-.443.143-.668.382-.668.71zm1.864-.19c.636-.103 1.427-.233 2.146-.512 1.064-.413 2.104-.09 3.09.959.155.166.177.246.18.264-.02.031-.213.28-1.513.469-.801.116-3.508.416-4.734-.613a.936.936 0 01-.267-.322c.182-.095.705-.18 1.098-.244zm-3.636 2.611c.625.32 1.691.514 2.695.514.25 0 .5-.013.75-.04a.375.375 0 00-.083-.745c-1.139.126-2.455-.108-3.021-.397a.379.379 0 00-.416.047.377.377 0 00-.041.53.375.375 0 00.116.091zM8.228 9.617l-1.54.647a.46.46 0 00.05.866l1.92.554a.459.459 0 00.371-.051l.908-.566a.46.46 0 00-.04-.803L8.61 9.628a.46.46 0 00-.382-.011zm.515 1.311l-1.007-.29.661-.279.702.347-.356.222zm11.786-1.832l.935.545a.432.432 0 00.473-.036l.733-.567a.465.465 0 00.178-.395.462.462 0 00-.217-.37l-1.04-.636a.431.431 0 00-.426-.015.373.373 0 00-.093.068l-.622.625a.467.467 0 00-.098.623.46.46 0 00.177.158zm.886-.687l.47.287-.237.184-.444-.259.211-.212zm-10.385.686a.376.376 0 00.522-.083c.022-.028.546-.69 2.063-.69a.375.375 0 000-.75c-1.932 0-2.64.957-2.67.998a.378.378 0 00.086.525zm9.885 1.876c-.733.604-2.126.602-2.14.601h-.002a.374.374 0 10-.004.75h.013c.168 0 1.698-.021 2.61-.772a.374.374 0 00-.477-.579z"/><path d="M15.886 9.87c.394.116.803.175 1.214.173.386.003.77-.056 1.137-.174a.375.375 0 10-.235-.712c-.918.303-1.865.005-1.882 0a.376.376 0 00-.234.712z"/></g></svg>