<svg width="32" height="32" fill="none" xmlns="http://www.w3.org/2000/svg"><defs><clipPath id="a"><path fill="#fff" fill-opacity="0" d="M0 0h32v32H0z"/></clipPath></defs><path d="M0 0h32v32H0z"/><g clip-path="url(#a)" fill="#3E3E3E"><path d="M26.513 9.259a7.194 7.194 0 00-2.144-4.687 7.197 7.197 0 00-5.081-2.082h-8.126a.469.469 0 100 .937h8.126c3.222 0 5.917 2.469 6.264 5.613a7.688 7.688 0 00-1.22-.097H17.33c-4.228 0-7.668 3.44-7.668 7.667v1.282h-.895a6.31 6.31 0 01-6.303-6.303V9.73c-.007-3.552 2.964-6.415 6.51-6.303a.469.469 0 100-.937C4.911 2.377 1.52 5.662 1.526 9.73v1.86a7.2 7.2 0 001.296 4.128c-.261.037-.518.08-.768.13a.885.885 0 00-.684.641c-.116.398.085.783.406 1.017l-.722.445a.881.881 0 00-.419.669.882.882 0 00.28.738l.26.241c-.402.134-.74.45-.731.898a.876.876 0 00.516.81c.393.18.781.326 1.154.435.138.055.158.186.045.291-.795.699-1.486 1.5-1.998 2.317a1.059 1.059 0 00.966 1.617l.28-.017-.107.64a1.059 1.059 0 001.085 1.234l.647-.024-.053.278a1.06 1.06 0 001.479 1.165c.876-.403 1.76-.985 2.555-1.683.12-.096.245-.064.288.084.06.392.155.797.282 1.205a.876.876 0 00.737.614.882.882 0 00.869-.42l.115-.188.207.288a.881.881 0 00.696.372.883.883 0 00.717-.328l.534-.659c.191.349.547.597.956.533a.885.885 0 00.723-.595c.242-.71.434-1.463.566-2.21a7.62 7.62 0 003.627.913h7.002c4.228 0 7.668-3.44 7.668-7.668v-2.89c0-3.471-2.318-6.41-5.487-7.352zM12.28 28.072l-.402-.593a.47.47 0 00-.752-.032l-.89 1.1-.582-.815a.471.471 0 00-.782.028l-.428.702a7.288 7.288 0 01-.218-.96 1.098 1.098 0 00-.712-.865 1.107 1.107 0 00-1.109.209l-.011.01a9.785 9.785 0 01-2.329 1.535c-.084.036-.18-.024-.166-.138l.163-.855a.468.468 0 00-.478-.557l-1.234.046c-.091-.008-.131-.053-.126-.144l.203-1.22a.469.469 0 00-.49-.545l-.868.052c-.114 0-.161-.103-.115-.183a9.791 9.791 0 011.823-2.11c.31-.265.45-.68.362-1.079a1.082 1.082 0 00-.763-.816 7.588 7.588 0 01-.924-.34l.75-.334a.469.469 0 00.13-.772l-.733-.68 1.205-.742a.468.468 0 00.065-.75l-.536-.475c.384-.074.783-.13 1.19-.17a7.22 7.22 0 005.243 2.25h.895c0 .091-.001.718.002.794-1.571.856-3.81.246-4.709-.305a.469.469 0 10-.49.8c.643.393 1.955.877 3.349.877.135 0 .27-.005.406-.015l-3.395 2.983a.469.469 0 00.619.704l3.385-2.974c-.3 1.506.044 3.072.382 3.827a.47.47 0 00.856-.383c-.317-.708-.663-2.382-.18-3.79a7.69 7.69 0 002.953 4.366 14.02 14.02 0 01-.56 2.359zm18.782-8.57c0 3.71-3.02 6.73-6.73 6.73H17.33a6.738 6.738 0 01-6.73-6.73V16.61c0-3.71 3.019-6.73 6.73-6.73h7.002c3.711 0 6.73 3.02 6.73 6.73v2.891z"/><path d="M24.332 11.258H17.33c-2.95 0-5.35 2.4-5.35 5.35V19.5c0 2.95 2.4 5.35 5.35 5.35h7.002c2.95 0 5.351-2.4 5.351-5.35v-2.891c0-2.95-2.4-5.351-5.35-5.351zm4.414 8.242a4.419 4.419 0 01-4.414 4.413H17.33a4.418 4.418 0 01-4.413-4.413v-2.891a4.418 4.418 0 014.413-4.414h7.002a4.418 4.418 0 014.414 4.414v2.89z"/><path d="M20.832 14.588c-2.228 0-3.973 1.082-3.973 2.462 0 1.361 1.78 3.447 3.973 3.447.546 0 1.09-.129 1.62-.383a.469.469 0 00-.407-.845c-.4.193-.809.29-1.213.29-1.66 0-3.035-1.661-3.035-2.51 0-.72 1.247-1.523 3.035-1.523 1.789 0 3.035.803 3.035 1.524 0 .25-.13.592-.357.937a.469.469 0 10.784.515c.33-.5.51-1.017.51-1.452 0-1.38-1.744-2.462-3.972-2.462z"/></g></svg>