<svg width="32" height="32" fill="none" xmlns="http://www.w3.org/2000/svg"><defs><clipPath id="a"><path fill="#fff" fill-opacity="0" d="M0 0h32v32H0z"/></clipPath></defs><path d="M0 0h32v32H0z"/><g clip-path="url(#a)" fill="#3E3E3E"><path d="M28.279 7.496a18.216 18.216 0 00-9.09-4.442 4.662 4.662 0 00-.82-1.722C17.714.472 16.868 0 15.99 0c-.879 0-1.725.473-2.382 1.332a4.66 4.66 0 00-.82 1.726 18.282 18.282 0 00-3.533.997.48.48 0 00-.054.025l-1.93.904a.457.457 0 00-.054.025 18.291 18.291 0 00-3.5 2.487 1.607 1.607 0 00-.333 1.973l3.396 6.195a1.221 1.221 0 00-.497.468c-.223.377-.231.83-.021 1.215l3.956 7.216a.468.468 0 10.822-.45l-3.956-7.216a.285.285 0 01.005-.287.284.284 0 01.248-.141h17.322c.148 0 .223.099.248.141a.284.284 0 01.005.287l-7.214 13.159a1.937 1.937 0 01-3.4 0l-2.203-4.02a.469.469 0 00-.822.451l2.203 4.02a2.874 2.874 0 005.044 0l7.214-13.16c.21-.384.203-.838-.02-1.214a1.222 1.222 0 00-.497-.469l.654-1.193 1.054-1.924 1.687-3.078a1.607 1.607 0 00-.332-1.973zm-2.177 4.6l1.644-2.999-6.243 1.087a8.353 8.353 0 00-4.918 2.797 9.29 9.29 0 011.299 2.55h6.335l.829-1.51 1.054-1.924zM15.99.938c1.067 0 2.372 1.387 2.372 3.004a2.375 2.375 0 01-2.372 2.372 2.375 2.375 0 01-2.373-2.372c0-1.617 1.305-3.003 2.373-3.003zm7.376 6.184a3.495 3.495 0 00-.585.02c-.106.013-.21-.047-.267-.152A3.23 3.23 0 0019.7 5.291a5.772 5.772 0 00-.539-.408c.081-.273.128-.56.135-.856a17.276 17.276 0 018.327 4.14l-1.718.299a3.416 3.416 0 00-2.54-1.345zm-15.7-1.29l1.933-.904c.995-.393 2.03-.693 3.083-.896.008.293.054.577.133.846a5.67 5.67 0 00-.546.414A3.23 3.23 0 009.465 6.99a.272.272 0 01-.268.152 3.413 3.413 0 00-3.123 1.325L4.37 8.17a17.35 17.35 0 013.296-2.337zm.995 2.226c.141-.007.285-.002.424.015.49.059.963-.19 1.205-.638a2.295 2.295 0 012.022-1.206.835.835 0 00.544-.205c.115-.1.234-.194.358-.283a3.31 3.31 0 002.776 1.511c1.16 0 2.181-.6 2.773-1.506a5 5 0 01.354.28c.15.131.342.203.54.203h.012a2.29 2.29 0 012.02 1.207c.242.446.715.696 1.203.637a2.466 2.466 0 011.915.585l-2.876.5a3.01 3.01 0 00-2.53-1.392c-.838 0-1.631.353-2.194.96a2.99 2.99 0 00-2.438-.004 2.995 2.995 0 00-2.192-.956 3.011 3.011 0 00-2.529 1.393l-2.876-.501a2.464 2.464 0 011.489-.6zM11.08 9.35a2.066 2.066 0 011.495-.648c.52 0 1.015.198 1.39.543a2.985 2.985 0 00-.676.905 9.301 9.301 0 00-2.209-.8zm7.598.803a2.985 2.985 0 00-.673-.904 2.057 2.057 0 011.395-.546c.571 0 1.11.242 1.494.646a9.3 9.3 0 00-2.216.804zM7.775 15.531L4.25 9.101l6.224 1.083a8.372 8.372 0 016.416 5.348H7.776zm8.214-3.292a9.306 9.306 0 00-1.885-1.618 2.057 2.057 0 013.761.005 9.29 9.29 0 00-1.876 1.613z" fill-rule="evenodd"/><path d="M19.61 21.429c0-1.22-1.592-2.174-3.625-2.174s-3.626.955-3.626 2.174c0 1.218 1.593 2.173 3.626 2.173s3.625-.955 3.625-2.173zm-6.313 0c0-.271.247-.56.678-.793.522-.282 1.254-.443 2.01-.443 1.538 0 2.688.652 2.688 1.236 0 .27-.247.56-.679.793-.521.281-1.253.443-2.01.443-1.538 0-2.687-.653-2.687-1.236z"/></g></svg>