<svg width="24" height="25" fill="none" xmlns="http://www.w3.org/2000/svg"><path d="M23.625 11.75h-2.083c-.256-4.39-3.533-8.012-7.749-8.827A1.877 1.877 0 0012 .5a1.877 1.877 0 00-1.793 2.423c-4.216.815-7.493 4.438-7.75 8.827H.376a.375.375 0 00-.375.375v1.125c0 1.034.841 1.875 1.875 1.875H7.5a.375.375 0 100-.75H1.875c-.62 0-1.125-.505-1.125-1.125v-.75h22.5v.75c0 .62-.505 1.125-1.125 1.125H20.28a1.117 1.117 0 00-.84-.375h-.068c-.402 0-.793.138-1.114.375h-7.3a1.298 1.298 0 00-.581-.177 1.326 1.326 0 00-.986.38l-.546.547-.86.86a.373.373 0 00-.11.265v2.204l-.714 2.854-.087.088-.897-.06a1.13 1.13 0 00-.87.327L3.11 23.86a.375.375 0 00.265.64h9c.1 0 .195-.04.265-.11l1.29-1.29a.742.742 0 00.173-.795.737.737 0 00-.477-.447l3.042-1.522a.377.377 0 00.125-.102l3.525-4.406c.165-.205.247-.452.247-.703h1.56A1.877 1.877 0 0024 13.25v-1.125a.375.375 0 00-.375-.375zm-12.75-9.375c0-.62.505-1.125 1.125-1.125s1.125.505 1.125 1.125c0 .15-.032.297-.09.433A9.454 9.454 0 0012 2.75c-.35 0-.695.02-1.035.058a1.118 1.118 0 01-.09-.433zM12 3.5c4.636 0 8.5 3.667 8.791 8.25H3.21C3.499 7.167 7.364 3.5 12 3.5zm4.72 12.375h-1.474c-.5 0-.971.195-1.325.55l-1.701 1.7h-.44l-.861-.861a.373.373 0 010-.528l.277-.277c.36-.36.484-.881.356-1.334h5.917l-.75.75zm-.75.75l-1.5 1.5h-1.19l1.17-1.17c.21-.21.5-.33.796-.33h.724zm-3.75 7.125H4.28l1.557-1.556a.375.375 0 01.29-.11l7.274.486-1.181 1.18zm7.512-8.39L16.26 19.7l-4.068 2.036L7.9 21.45l.715-2.86a.374.374 0 00.011-.091v-2.095l1.297-1.296a.551.551 0 01.821.044c.177.215.143.556-.077.775l-.277.278a1.124 1.124 0 000 1.588l.971.97a.37.37 0 00.265.111h3c.1 0 .195-.04.265-.11l3.686-3.686c.21-.21.5-.329.796-.329h.068c.148 0 .274.08.338.212a.367.367 0 01-.046.397z" fill="#3E3E3E"/><path d="M7.875 14.75a.375.375 0 01-.375.375h1.345l.546-.546c.08-.08.17-.148.265-.204H7.5c.207 0 .375.168.375.375zm10.796-6.96a8.065 8.065 0 00-.378-.513.375.375 0 10-.586.47c.12.15.235.304.344.464a.374.374 0 10.62-.422zm-3.524-2.9a.375.375 0 10-.294.69c.7.298 1.35.703 1.928 1.204a.373.373 0 00.528-.039.375.375 0 00-.038-.528 8.056 8.056 0 00-2.124-1.328z" fill="#3E3E3E"/></svg>