<svg width="24" height="25" fill="none" xmlns="http://www.w3.org/2000/svg"><path d="M22.596 15.95v-3.412c0-.006-.003-.01-.003-.015-.013-1.112-1.304-2.085-3.645-2.758V7.02c0-.717-.788-1.327-2.232-1.747l.262-.266a.375.375 0 00.09-.382l-1.056-3.12a.375.375 0 00-.441-.245l-2.92.693a.375.375 0 00-.289.365v.92a2.15 2.15 0 00-1.606.237 2.873 2.873 0 00-.4-.364 2.846 2.846 0 00-3.187-.117.375.375 0 00-.156.199 2.838 2.838 0 00.016 1.943c.025.067.058.13.088.194-1.35.42-2.066 1-2.066 1.691v2.743c-2.34.674-3.631 1.649-3.644 2.758l-.003.015v7.591c0 2.352 5.458 3.622 10.596 3.622 5.137 0 10.597-1.27 10.597-3.622v-.006l-.002-4.172zm-1.431 1.114a3.666 3.666 0 01-.49.92 1.023 1.023 0 01-.407.308c-.673.285-.95.096-1.37-.187a2.234 2.234 0 00-1.485-.501c-1.478.075-1.976.867-2.376 1.505-.322.514-.555.886-1.23.945-1.434.123-1.792-.331-2.207-.86a2.092 2.092 0 00-2.084-.979c-.657.05-1.077.516-1.449.928-.54.6-.884.924-1.653.61-.78-.317-.997-.967-1.226-1.655a6.463 6.463 0 00-.272-.716c-.446-.948-1.144-.935-1.65-.76-.536.18-.698.096-1.113-.421v-2.256C3.82 15.393 8.006 16.161 12 16.161c3.993 0 8.18-.768 9.845-2.216v1.89a5.003 5.003 0 00-.68 1.229zm-2.967-8.132a3.218 3.218 0 00-.423.727c-.072.184-.17.357-.292.514a.525.525 0 01-.21.146c-.333.132-.473.038-.787-.206a1.583 1.583 0 00-1.105-.44 2.058 2.058 0 00-1.71.96c-.24.305-.398.507-.788.54-.852.067-1.017-.143-1.226-.41a1.396 1.396 0 00-1.392-.606 1.575 1.575 0 00-.941.445.883.883 0 01-.971.243c-.331-.085-.525-.47-.733-.88l-.062-.122a.937.937 0 00-1.211-.525c-.269.084-.332.078-.547-.167V8.124c1.212.8 3.713 1.215 6.2 1.215s4.987-.415 6.198-1.215v.808zM5.802 11.557v-1.5c.254.076.527.067.775-.026.164-.053.218-.04.315.15l.061.12c.247.49.555 1.1 1.216 1.269a1.607 1.607 0 001.636-.394.875.875 0 01.515-.272.67.67 0 01.75.32 1.675 1.675 0 001.533.708c.107 0 .22-.005.343-.015a1.75 1.75 0 001.317-.825 1.341 1.341 0 011.155-.67c.216-.013.368.094.61.281.273.26.632.41 1.009.423v.43a.375.375 0 10.75 0v-.667a1.2 1.2 0 00.26-.222 1.64 1.64 0 00.15-.201v1.094c-.001.64-2.415 1.567-6.197 1.567S5.804 12.2 5.8 11.56v-.003zm7.31-8.942l2.3-.546.87 2.577-.989 1-1.362.25a2.128 2.128 0 00-.82-2.312l.001-.969zm-1.21 1.312a1.409 1.409 0 01.179 2.797 1.41 1.41 0 01-1.637-1.43.41.41 0 00-.012-.067h.016a1.407 1.407 0 011.404-1.3h.05zM7.62 3.843a2.25 2.25 0 01.062-.282 2.096 2.096 0 012.229.153c.099.074.191.156.276.246-.157.19-.28.407-.36.64a6.156 6.156 0 00-1.133-.75.375.375 0 10-.328.676c.487.26.938.583 1.342.96.018.256.081.508.188.742a2.046 2.046 0 01-.504-.013A2.092 2.092 0 017.62 3.844zm-.086 2.141a2.833 2.833 0 001.75.972 2.63 2.63 0 001.09-.06 2.14 2.14 0 001.4.595h.08a2.142 2.142 0 001.469-.579c.053-.054.103-.111.15-.171l2.07-.379a.375.375 0 00.2-.105l.361-.366c1.425.349 2.088.821 2.092 1.127v.007c-.007.637-2.42 1.564-6.197 1.564-3.778 0-6.19-.927-6.198-1.564v-.007c.003-.21.38-.649 1.733-1.034zm-2.483 4.562v1.014c0 1.52 3.496 2.317 6.949 2.317s6.948-.796 6.948-2.318v-1.013c1.798.548 2.896 1.295 2.896 1.992 0 1.359-4.042 2.873-9.844 2.873-5.8 0-9.845-1.514-9.845-2.873 0-.697 1.098-1.444 2.896-1.992zM12 23c-5.8 0-9.843-1.512-9.846-2.87v-2.885a1.425 1.425 0 001.356.085c.315-.109.514-.082.728.372.091.206.17.417.238.633.247.741.555 1.664 1.654 2.112 1.294.525 1.988-.242 2.493-.803.317-.352.591-.655.948-.682.84-.062 1.08.238 1.438.695a2.586 2.586 0 002.369 1.165c.153 0 .317-.007.493-.022 1.047-.092 1.448-.73 1.8-1.294.37-.59.69-1.1 1.778-1.154a1.55 1.55 0 011.026.373 1.892 1.892 0 001.956.302v1.002a.375.375 0 10.75 0v-1.491c.025-.027.05-.053.073-.08.248-.33.447-.692.59-1.078v2.749C21.842 21.488 17.8 23 12 23z" fill="#3E3E3E"/><path d="M20.809 15.586a.375.375 0 00-.375.375v.283a.375.375 0 00.75 0v-.283a.375.375 0 00-.375-.375z" fill="#3E3E3E"/></svg>