<svg width="24" height="24" fill="none" xmlns="http://www.w3.org/2000/svg"><g clip-path="url(#clip0_2014_3233)" fill="#3E3E3E"><path d="M20.91.026A.72.72 0 0020 .72v6.087A9.988 9.988 0 003.273 7.93L3.24 6.366A2 2 0 004 4.8V.4a.4.4 0 10-.8 0v2.8h-.8V.4a.4.4 0 10-.8 0v2.8H.8V.4a.4.4 0 00-.8 0v4.4a2 2 0 00.76 1.566L.424 22.393a1.576 1.576 0 103.152 0l-.092-4.37a9.984 9.984 0 0016.516.77v3.6a1.577 1.577 0 103.152 0l-.12-6.817a1.204 1.204 0 00.968-1.18V6.368C24 1.396 21.84.276 20.91.026zM2.554 22.968a.795.795 0 01-1.108 0 .774.774 0 01-.222-.56l.34-16.24a.4.4 0 00-.194-.351A1.188 1.188 0 01.8 4.8V4h2.4v.8a1.188 1.188 0 01-.57 1.017.4.4 0 00-.194.351l.34 16.24a.774.774 0 01-.222.56zM12 22a9.245 9.245 0 01-8.554-5.827l-.134-6.384A9.19 9.19 0 0120 8.27v9.061A9.196 9.196 0 0112 22zm10.13.968a.797.797 0 01-1.108 0 .779.779 0 01-.222-.568v-6.8h1.43l.12 6.808a.774.774 0 01-.22.56zm1.07-8.572a.403.403 0 01-.4.404h-2V.828c.796.26 2.4 1.308 2.4 5.54v8.028z"/><path d="M15.49 6.512a1.165 1.165 0 00-.04-.146 1.149 1.149 0 00-.654-.654 7.884 7.884 0 00-5.588 0 1.152 1.152 0 00-.657.655 1.17 1.17 0 00-.04.147 7.183 7.183 0 000 12.575c.01.05.024.099.04.147a1.151 1.151 0 00.654.653c1.8.682 3.788.682 5.588 0a1.152 1.152 0 00.657-.654c.016-.048.03-.097.04-.147a7.183 7.183 0 000-12.576zm-6.193.143a.349.349 0 01.203-.2 7.088 7.088 0 015.004 0 .345.345 0 01.186.48c-.581 1.2-.99 2.474-1.215 3.788-.34.148-.66.34-.95.572a1.49 1.49 0 00-1.05 0 4.253 4.253 0 00-.948-.572 14.19 14.19 0 00-1.216-3.79.343.343 0 01-.014-.278zm3.92 7.17a1.567 1.567 0 000-2.05c.237-.165.494-.3.766-.4.262-.099.538-.158.818-.175a.4.4 0 01.4.4V14a.39.39 0 01-.123.285.382.382 0 01-.277.115 3.094 3.094 0 01-1.582-.575h-.002zm-4.016.575a.391.391 0 01-.286-.123.384.384 0 01-.114-.277v-2.4a.4.4 0 01.397-.4c.28.017.556.076.819.176.27.1.528.235.765.4a1.567 1.567 0 000 2.05A3.174 3.174 0 019.2 14.4zm2-1.6a.8.8 0 111.6 0 .8.8 0 01-1.6 0zM8.63 18.233a6.387 6.387 0 010-10.866c.469.982.815 2.018 1.031 3.085a2.719 2.719 0 00-.46-.052A1.2 1.2 0 008 11.6V14a1.206 1.206 0 001.2 1.2 2.75 2.75 0 00.46-.053 13.287 13.287 0 01-1.031 3.086zm6.074.712a.345.345 0 01-.203.2 7.085 7.085 0 01-5.004 0 .347.347 0 01-.186-.48 14.13 14.13 0 001.215-3.786c.34-.15.66-.342.951-.573.338.127.71.127 1.047 0 .29.231.61.424.951.573a14.157 14.157 0 001.215 3.787.342.342 0 01.014.279zm.667-.712a13.29 13.29 0 01-1.03-3.086c.151.03.305.048.46.053A1.206 1.206 0 0016 14v-2.4a1.2 1.2 0 00-1.2-1.2 2.74 2.74 0 00-.46.052 13.302 13.302 0 011.03-3.085 6.386 6.386 0 010 10.866z"/></g><defs><clipPath id="clip0_2014_3233"><path fill="#fff" d="M0 0h24v24H0z"/></clipPath></defs></svg>