<svg width="245" height="245" fill="none" xmlns="http://www.w3.org/2000/svg"><path d="M46.231 202.566c-1.592 5.831 4.263 10.559 9.261 11.49 8.894 2.744 20.752-3.43 18.081-13.916-3.16-10.069-17.664-11.466-24.5-4.459-1.519 1.715-2.425 4.165-1.568 6.37.196.613 3.43.539 3.798.27 2.989-3.185 6.419-3.773 10.486-3.038 3.111.441 5.757 2.94 3.846 5.855-1.543 1.985-4.826 2.916-7.497 3.063-1.837.024-3.038-.809-4.606-1.372-1.641-.686-2.793-1.789-4.091-3.822-.172-.196-3.16-.809-3.234-.441h.024zm-18.152 18.963c-1.544 4.606 3.234 8.501 7.154 9.212 6.982 2.254 16.219-3.087 14.063-11.197-2.524-8.452-15.754-9.359-19.943-1.96-.466 1.152-.564 2.426.024 3.553.22.49 3.455.416 3.798.269 1.298-.735 1.666-.588 2.131-.833 1.52-.563 5.145-.343 6.125.539.294.27.417.221.466.588.294 1.054-.392 1.544-1.544 2.254-.808.368-1.788.711-2.842.882-1.225.147-1.935-.563-2.964-.759-1.103-.319-1.911-.809-3.21-2.205-.171-.098-3.136-.613-3.234-.319l-.024-.024z" fill="#61B291"/><path d="M46.231 202.566c-1.592 5.831 4.263 10.559 9.261 11.49 8.894 2.744 20.752-3.43 18.081-13.916-3.16-10.069-17.664-11.466-24.5-4.459-1.519 1.715-2.425 4.165-1.568 6.37.196.613 3.43.539 3.798.27 2.989-3.185 6.419-3.773 10.486-3.038 3.111.441 5.757 2.94 3.846 5.855-1.543 1.985-4.826 2.916-7.497 3.063-1.837.024-3.038-.809-4.606-1.372-1.641-.686-2.793-1.789-4.091-3.822-.172-.196-3.16-.809-3.234-.441h.024zm-18.152 18.963c-1.544 4.606 3.234 8.501 7.154 9.212 6.982 2.254 16.219-3.087 14.063-11.197-2.524-8.452-15.754-9.359-19.943-1.96-.466 1.152-.564 2.426.024 3.553.22.49 3.455.416 3.798.269 1.298-.735 1.666-.588 2.131-.833 1.52-.563 5.145-.343 6.125.539.294.27.417.221.466.588.294 1.054-.392 1.544-1.544 2.254-.808.368-1.788.711-2.842.882-1.225.147-1.935-.563-2.964-.759-1.103-.319-1.911-.809-3.21-2.205-.171-.098-3.136-.613-3.234-.319l-.024-.024zm204.555-105.758c-1.715-4.606-4.214-8.918-7.178-12.838l-.637 5.562c10.78-7.865 17.468-20.8 18.546-34.055 4.288-44.443-52.601-73.525-87.538-47.285l5.439 1.127c-6.885-11.32-17.934-19.747-30.527-23.716-18.865-5.709-42.851-2.279-55.224 14.21-1.298 1.666 1.225 3.7 2.769 2.597 12.421-10.07 28.739-14.553 44.345-11.074 13.132 2.72 25.015 10.584 31.924 21.952 1.176 1.96 3.773 2.548 5.708 1.298 14.529-10.78 34.839-11.196 50.617-2.72 29.351 15.02 35.893 51.132 10.78 73.648-.514.367-.612 1.127-.196 1.592a82.314 82.314 0 017.448 9.384c.662.955 4.141 1.519 3.7.294l.024.024zM68.632 25.734c-.687 1.004-1.348 2.009-2.034 3.013l4.165-1.74C18.137 8.046-23.733 70.962 17.99 110.603l-.686-4.557c-6.419 11.735-8.673 26.239-4.116 39.053 5.463 16.023 19.306 29.816 35.892 33.418 1.74.367 2.647-2.744 1.25-3.577-11.785-6.444-22.858-15.043-28.175-27.538-5.61-12.177-4.41-26.191 2.058-37.853a3.985 3.985 0 00-.858-4.557c-4.802-4.581-8.746-9.947-11.367-15.876C1.869 67.58 14.732 39.527 37.32 32.153c10.217-3.553 21.536-3.603 32.39-1.568.098 0 .22-.05.245-.147l.661-1.715c.343-.931-1.347-3.92-1.984-3.014v.025zM57.827 182.117c13.597 3.822 28.837-.049 40.18-8.158h-4.508c19.674 14.038 46.134 16.954 66.493 2.499l-4.214.147c28.249 17.836 68.135 6.737 78.988-25.995 2.72-8.158 3.185-17.64-.196-25.48-.661-1.666-3.748-.686-3.675.907 1.225 13.426-2.009 26.876-11.49 36.603-15.092 16.709-40.842 19.036-59.78 7.35a3.772 3.772 0 00-4.018.196c-7.154 5.071-15.876 8.158-24.794 8.575-11.736.735-24.059-3.381-33.982-9.898a2.21 2.21 0 00-2.328.049c-3.503 2.376-7.08 4.263-11.319 6.076-7.227 3.038-15.165 4.091-23.299 4.165-.98 0-3.136 2.646-2.082 2.915l.024.049z" fill="#61B291"/></svg>