<svg width="29" height="29" fill="none" xmlns="http://www.w3.org/2000/svg"><path d="M16.23 21.95v-8.938a.684.684 0 111.367 0v8.938a.684.684 0 01-1.367 0zm-4.146.684a.684.684 0 00.683-.684v-8.938a.684.684 0 10-1.367 0v8.938c0 .377.306.684.684.684zM25.208 6.23v1.612c0 .818-.665 1.483-1.483 1.483h-.447v13.12a5.048 5.048 0 01-5.043 5.043h-7.473a5.048 5.048 0 01-5.043-5.043V9.325h-.447a1.484 1.484 0 01-1.483-1.483V6.23c0-.818.665-1.483 1.483-1.483h4.961V3.746a2.237 2.237 0 012.235-2.234h4.061a2.237 2.237 0 012.235 2.234v1.001h4.961c.818 0 1.483.665 1.483 1.483zM11.601 4.747h5.795V3.746a.868.868 0 00-.867-.867h-4.061a.868.868 0 00-.867.867v1.001zm10.31 4.578H7.085v13.12a3.68 3.68 0 003.676 3.676h7.473a3.68 3.68 0 003.675-3.675V9.325zm1.93-3.095a.119.119 0 00-.116-.116H5.272a.119.119 0 00-.116.116v1.612c0 .062.054.116.116.116h18.453a.119.119 0 00.116-.116V6.23z" fill="#ECBBB5"/></svg>