<svg width="14" height="11" fill="none" xmlns="http://www.w3.org/2000/svg"><path d="M12.496.168H1.504A1.506 1.506 0 000 1.672v7.656a1.506 1.506 0 001.504 1.504h10.992A1.505 1.505 0 0014 9.328V1.672A1.505 1.505 0 0012.496.168zm.684 1.504v7.656a.673.673 0 01-.008.1L9.23 5.5l3.943-3.927a.673.673 0 01.008.099zm-.684-.684a.73.73 0 01.094.007L7 6.562 1.41.995a.711.711 0 01.094-.007h10.992zM.828 9.428a.663.663 0 01-.008-.1V1.672c0-.033.003-.067.008-.1L4.77 5.5.828 9.427zm.676.584a.722.722 0 01-.094-.007L5.353 6.08 6.71 7.43a.41.41 0 00.578 0l1.359-1.35 3.943 3.926a.722.722 0 01-.094.007H1.504z" fill="#3E3E3E"/></svg>