<svg width="20" height="20" fill="none" xmlns="http://www.w3.org/2000/svg"><path d="M16.25 19.844H3.75c-.603 0-1.094-.49-1.094-1.094v-2.5A7.325 7.325 0 017.21 9.455l.357.866a6.391 6.391 0 00-3.972 5.93v2.5c0 .086.07.156.156.156h12.5c.086 0 .156-.07.156-.157v-2.5a6.364 6.364 0 00-1.875-4.53 6.397 6.397 0 00-2.097-1.399l.357-.866c.903.372 1.712.91 2.403 1.602a7.295 7.295 0 012.15 5.194v2.5c0 .603-.491 1.093-1.094 1.093z" fill="#3E3E3E"/><path d="M10 11.094a5.475 5.475 0 01-5.469-5.469A5.475 5.475 0 0110 .156a5.475 5.475 0 015.469 5.469A5.475 5.475 0 0110 11.094zm0-10a4.536 4.536 0 00-4.531 4.531A4.536 4.536 0 0010 10.156a4.536 4.536 0 004.531-4.531A4.536 4.536 0 0010 1.094z" fill="#3E3E3E"/></svg>