<svg width="29" height="29" fill="none" xmlns="http://www.w3.org/2000/svg"><g clip-path="url(#clip0_2118_16933)" fill="#FFD580"><path d="M16.375 28.5h-8.4a3.736 3.736 0 01-3.737-3.736V4.236A3.736 3.736 0 017.975.5h8.4a2.8 2.8 0 012.8 2.8v5.25a.936.936 0 01-1.864 0V3.3a.937.937 0 00-.936-.936h-8.4a1.873 1.873 0 00-1.873 1.872v20.528a1.873 1.873 0 001.864 1.864h8.4a.936.936 0 00.936-.928v-5.25a.937.937 0 111.864 0v5.25a2.8 2.8 0 01-2.791 2.8z"/><path d="M24.693 14.859a.954.954 0 00-.202-1.015L21.691 11a.936.936 0 00-1.32 1.321l1.207 1.208h-7.779a.936.936 0 000 1.864h7.779L20.37 16.6a.963.963 0 001.322 1.4l2.8-2.8a.937.937 0 00.2-.341z"/></g><defs><clipPath id="clip0_2118_16933"><path fill="#fff" transform="translate(.5 .5)" d="M0 0h28v28H0z"/></clipPath></defs></svg>