<svg width="24" height="24" fill="none" xmlns="http://www.w3.org/2000/svg"><path d="M23.94 11.714c-4.64-9.582-19.28-9.533-23.88 0a.703.703 0 000 .572c4.639 9.58 19.273 9.54 23.88 0a.702.702 0 000-.572zM1.49 12c.785-1.45 2.322-3.364 4.642-4.637-2.134 2.577-2.134 6.698 0 9.274C3.807 15.362 2.272 13.445 1.49 12zM12 18.075A6.082 6.082 0 015.925 12c.334-8.06 11.818-8.057 12.15 0A6.082 6.082 0 0112 18.075zm5.867-1.438c2.134-2.577 2.134-6.698 0-9.274 2.325 1.275 3.86 3.192 4.642 4.637-.785 1.45-2.322 3.364-4.642 4.637z" fill="#FFFFF5"/><path d="M12 2.913a.703.703 0 00.703-.704V.703c-.037-.933-1.37-.932-1.406 0V2.21c0 .389.315.704.703.704zm0 18.174a.703.703 0 00-.703.704v1.506c.037.933 1.37.932 1.406 0V21.79a.703.703 0 00-.703-.704zM3.218 4.213a.703.703 0 00.994-.995L3.148 2.154a.703.703 0 00-.995.994l1.065 1.065zm0 15.574l-1.065 1.065a.703.703 0 10.995.994l1.064-1.064a.703.703 0 10-.994-.995zM20.782 4.213l1.065-1.065a.703.703 0 10-.994-.994l-1.065 1.064a.703.703 0 00.994.995zm0 15.574a.703.703 0 10-.994.995l1.065 1.064a.703.703 0 10.994-.994l-1.065-1.065zM12 9.038A2.966 2.966 0 009.037 12c.163 3.93 5.763 3.93 5.925 0A2.966 2.966 0 0012 9.038zm0 4.518A1.558 1.558 0 0110.443 12c.086-2.065 3.028-2.064 3.113 0 0 .858-.698 1.556-1.556 1.556z" fill="#FFFFF5"/></svg>