<svg width="16" height="16" fill="none" xmlns="http://www.w3.org/2000/svg"><g clip-path="url(#clip0_2146_22721)"><path d="M14.764 6.684H8.811a.475.475 0 00-.475.475v1.903c0 .262.212.475.475.475h3.353a4.47 4.47 0 01-1.925 2.256l1.428 2.475c2.29-1.325 3.647-3.653 3.647-6.256 0-.372-.028-.638-.081-.935a.48.48 0 00-.469-.393z" fill="#167EE6"/><path d="M8.015 12.394a4.44 4.44 0 01-3.84-2.222l-2.476 1.425a7.285 7.285 0 009.966 2.675v-.003l-1.428-2.475a4.41 4.41 0 01-2.222.6z" fill="#12B347"/><path d="M11.662 14.271v-.003l-1.428-2.475c-.653.378-1.409.6-2.218.6v2.856a7.264 7.264 0 003.646-.978z" fill="#0F993E"/><path d="M3.575 7.952c0-.809.222-1.565.6-2.218L1.7 4.309a7.207 7.207 0 00-.981 3.643c0 1.328.356 2.572.981 3.644l2.475-1.425a4.383 4.383 0 01-.6-2.219z" fill="#FFD500"/><path d="M8.015 3.513c1.069 0 2.053.38 2.819 1.012.19.156.465.144.637-.028l1.347-1.347a.479.479 0 00-.028-.7A7.251 7.251 0 008.015.656 7.285 7.285 0 001.699 4.31l2.475 1.425a4.44 4.44 0 013.84-2.221z" fill="#FF4B26"/><path d="M10.834 4.525a.475.475 0 00.638-.028l1.347-1.347a.479.479 0 00-.028-.7A7.251 7.251 0 008.016.656v2.857c1.068 0 2.053.378 2.818 1.012z" fill="#D93F21"/></g><defs><clipPath id="clip0_2146_22721"><path fill="#fff" d="M0 0h16v16H0z"/></clipPath></defs></svg>