<svg width="24" height="24" fill="none" xmlns="http://www.w3.org/2000/svg"><defs><clipPath id="a"><path fill="#fff" fill-opacity="0" d="M0 0h24v24H0z"/></clipPath></defs><path d="M0 0h24v24H0z"/><g clip-path="url(#a)" fill="#3E3E3E"><path d="M23.977 7.056c-.056-1.275-.262-2.152-.558-2.912a5.857 5.857 0 00-1.387-2.128A5.907 5.907 0 0019.908.633C19.144.338 18.27.13 16.996.075 15.712.015 15.304 0 12.046 0c-3.26 0-3.667.014-4.947.07-1.275.057-2.152.263-2.911.558a5.856 5.856 0 00-2.129 1.388A5.91 5.91 0 00.676 4.14C.38 4.904.174 5.776.118 7.05.058 8.336.043 8.744.043 12.002c0 3.259.014 3.667.07 4.947.056 1.275.263 2.151.558 2.911a5.918 5.918 0 001.389 2.13 5.9 5.9 0 002.124 1.383c.764.295 1.636.501 2.911.558 1.28.056 1.688.07 4.947.07 3.258 0 3.666-.014 4.946-.07 1.275-.057 2.152-.263 2.911-.558a6.139 6.139 0 003.512-3.512c.295-.764.502-1.636.558-2.911.056-1.28.07-1.688.07-4.947 0-3.258-.004-3.666-.06-4.946zm-2.16 9.799c-.052 1.172-.25 1.805-.414 2.227a3.981 3.981 0 01-2.278 2.278c-.422.165-1.06.361-2.227.413-1.266.056-1.646.07-4.848.07s-3.587-.014-4.848-.07c-1.172-.052-1.805-.248-2.227-.413a3.693 3.693 0 01-1.378-.895 3.732 3.732 0 01-.896-1.378c-.164-.422-.36-1.06-.412-2.227-.057-1.266-.07-1.646-.07-4.848 0-3.203.013-3.587.07-4.848.051-1.172.248-1.805.412-2.227.193-.52.497-.994.9-1.379a3.725 3.725 0 011.379-.895c.422-.164 1.06-.36 2.227-.413 1.266-.056 1.646-.07 4.848-.07 3.207 0 3.586.014 4.848.07 1.172.052 1.805.249 2.227.413.52.192.994.497 1.378.895.398.39.703.858.895 1.379.165.422.362 1.06.413 2.227.056 1.266.07 1.645.07 4.848 0 3.202-.014 3.577-.07 4.843z"/><path d="M12.044 5.838a6.167 6.167 0 00-6.165 6.165 6.167 6.167 0 006.165 6.165 6.167 6.167 0 006.165-6.165 6.167 6.167 0 00-6.165-6.165zm0 10.164a4 4 0 11.001-8 4 4 0 010 8zm7.85-10.408a1.44 1.44 0 11-2.878 0 1.44 1.44 0 012.878 0z"/></g></svg>