<svg width="21" height="20" fill="none" xmlns="http://www.w3.org/2000/svg"><path d="M17.714 1.373a2.582 2.582 0 00-3.648 0l-.914.918-9.721 9.717-.021.02c-.005.006-.005.011-.01.011-.01.016-.026.031-.036.047 0 .005-.006.005-.006.01-.01.015-.015.026-.026.041-.005.005-.005.01-.01.016l-.015.041c0 .005-.005.005-.005.01l-2.157 6.487a.508.508 0 00.123.526.519.519 0 00.532.124l6.481-2.162c.005 0 .005 0 .01-.005a.187.187 0 00.047-.021.019.019 0 00.01-.005c.016-.01.036-.02.052-.031.015-.01.03-.026.046-.036.006-.006.01-.006.01-.01.006-.006.016-.01.021-.021L19.113 6.415a2.582 2.582 0 000-3.649l-1.399-1.393zM8.116 15.966l-3.591-3.591 8.989-8.99 3.591 3.592-8.989 8.989zM4.02 13.329l3.137 3.138-4.711 1.568 1.574-4.706zm14.366-7.637l-.547.552-3.592-3.591.553-.552a1.548 1.548 0 012.188 0l1.403 1.403c.6.607.598 1.584-.005 2.188z" fill="#3E3E3E"/></svg>