<svg width="19" height="20" fill="none" xmlns="http://www.w3.org/2000/svg"><path d="M18.31 14.46c-.84-.85-1.67-1.68-2.49-2.49-.44-.43-.96-.67-1.5-.67s-1.05.24-1.49.67l-.11.11c-.44.44-.9.89-1.34 1.35-.1-.05-.19-.09-.27-.14-.21-.1-.4-.19-.57-.3-1.33-.84-2.55-1.95-3.73-3.4-.58-.71-.98-1.34-1.26-1.97.4-.38.78-.77 1.16-1.15.09-.1.19-.2.28-.29.93-.92.92-2.12 0-3.05-.28-.29-.57-.57-.85-.85-.12-.12-.24-.25-.37-.37l-.39-.39c-.28-.29-.57-.58-.87-.86C4.07.22 3.55 0 3.01 0c-.53 0-1.05.22-1.49.66-.21.21-.43.42-.63.62-.3.3-.6.61-.91.91-.58.55-.9 1.24-.97 2.07-.09 1.29.27 2.46.59 3.33.73 1.98 1.86 3.85 3.43 5.73 1.97 2.34 4.34 4.19 7.04 5.51 1.48.72 2.76 1.09 4 1.16.09 0 .18.01.27.01 1.05 0 1.91-.38 2.56-1.1.28-.32.59-.61.9-.92.16-.16.33-.32.49-.48.93-.93.93-2.12.02-3.04zm-.8 2.25l-.47.47c-.32.31-.65.64-.96.98-.48.54-1.09.77-1.94.72-1.09-.06-2.23-.39-3.58-1.05-2.56-1.25-4.8-3-6.67-5.21C2.4 10.84 1.34 9.07.65 7.22.22 6.08.07 5.19.13 4.36c.04-.55.24-.99.62-1.34.32-.32.63-.64.93-.94.21-.21.41-.42.62-.62.16-.16.41-.35.71-.35.31 0 .56.19.72.35.29.28.58.57.86.85.13.13.26.27.39.39.12.13.25.25.37.38.28.27.56.56.84.84.5.5.5.98.01 1.48-.1.09-.2.19-.29.29-.4.4-.82.82-1.24 1.22-.2.2-.4.54-.2 1.03.32.77.79 1.52 1.46 2.36 1.26 1.54 2.58 2.74 4.01 3.64.22.14.45.25.67.36.13.06.25.12.37.19.15.08.3.12.44.12.24 0 .46-.11.65-.3.47-.49.96-.97 1.42-1.43l.11-.11c.16-.16.41-.35.71-.35.31 0 .56.19.72.35.81.8 1.65 1.63 2.48 2.48.48.47.48.98 0 1.46z" fill="#3E3E3E"/></svg>