<svg width="48" height="48" fill="none" xmlns="http://www.w3.org/2000/svg"><defs><clipPath id="a"><path fill="#fff" fill-opacity="0" d="M0 0h48v48H0z"/></clipPath></defs><path d="M0 0h48v48H0z"/><g clip-path="url(#a)" fill="#3E3E3E"><path d="M17.072 47.633c-1.136-1.395-2.25-2.807-3.398-4.19-1.105-.858-7.066 2.614-5.848-.38.117-.837 1.083-2.019.688-2.743-1.764.094-4.142.042-3.778-2.39.499-2.399-1.416-11.251 1.636-11.35 2.225.483 1.121-2.394.433-3.454-5.249-6.068 1.824-7.247 1.097-14.508.761-3.091 4.76-2.47 6.543-4.526 4.436-7.362 7.413-.805 13.698-3.7 4.767-.673 3.7 4.576 10.14 5.924 3.324 1.371 1.504 5.33 2.805 7.849 4.76 6.161 1.157 5.608-.493 11.118.027.521-.352 1.398.498 1.289 1.415-.237 2.563.82 2.358 2.264-.05 3.384.115 6.786-.065 10.16-.464 2.015-2.733.834-3.857 1.524-.023 1.034 2.197 3.952.117 3.754-6.294-1.582-4.593-1.246-8.546 3.358h-.54c-.761-1.248-2.003-7.46-3.145-7.335-9.574-.09-6.358-1.02-9.803 7.335h-.54zm7.01-8.458h16.896c.46-.019 1.185.112 1.286-.494-.022-15.94 2.185-9.561-12.052-11.174-.487-.519.241-.945.58-1.274 7.702-6.686.327-20.035-9.517-16.864-7.364 2.094-9.447 11.615-4.157 16.628 5.07 4.075-12.053-.548-11.23 2.95-.236 15.06-1.756 9.094 18.194 10.228zm12.32-12.63c5.496.346.798-.465 5.47-6.17 1.827-3.625-3.035-3.678-2.644-11.31-.867-2.86-5.026-2.006-6.519-4.43-3.78-6.505-6.27-.357-11.613-2.797-5.083-1.89-4.015 4.214-10.244 5.312-1.944.548-2.16 2.57-2.06 4.298.087 2.56-.999 4.91-1.527 7.363-.662 1.41 1.98 5.256 2.774 2.786C7.66 10.37 20.046.897 29.988 5.885c.717.653-.312 1.307-.945.796-11.442-5.05-23.207 9.099-15.94 19.463.493.82 1.807.298 2.68.41C1.614 2.57 46.452 2.219 32.39 26.249c-.312.61 1.98.227 2.404.284 3.832-5.086 3.086-12.66-1.479-17.043-.321-.3-.849-.741-.43-1.18 6.278 2.523 6.58 12.887 3.519 18.236zM16.04 44.477c.326.322.71 1.382 1.156 1.021.514-1.522 1.155-3.024 1.558-4.575-.431-.131-.803-.098-1.513.134a110.79 110.79 0 00-1.2 3.42zm16.111.007c-.378-.887-.489-2.069-1.111-2.762-2.476-.432-.227 2.456-.097 3.65.333.709.924-.594 1.208-.888zM15.213 43.28c.085-.552 1.296-2.307.205-2.163-.922.28-3.068-.286-3.296.827-.023.91 1.593-.394 2.03.291.365.336.57.896 1.061 1.045zm17.755-.012c1.548-1.124.721-1.48 3.016-1.005.496-1.884-2.609-.851-3.58-.63.15.568.344 1.095.564 1.635zm6.056-.507c-.282-.591-.261-1.663-.894-1.935-1.055.142-1.292-.016-.889 1.055-.026.777 1.327 1.298 1.783.88zm-28.566-1.232c-.969.066-.904.03-1.201.895-.126.265-.15.596.261.488 1.382.023 1.934-1.522.94-1.383zM41.913 4.628c1.33.174-.244 2.21-1.008 1.638-.643-.59.448-1.511 1.008-1.638zm-3.163-.312c.263-1.688 1.557-.378 1.083.874-.562.952-1.298.004-1.083-.874zm3.828 4.093c-.486.046-1.25-.17-.974-.82.3-.51 1.083-.298 1.581-.28.852.368.134 1.282-.607 1.1z"/><path d="M20.305 14.528c2.02-.146 3.36.691 4.95.874 1.412-.776 2.927-1.424 4.095-2.564.22-.243.67-.268.869.011 2 3.532 1.843 9.231-2.126 11.314-6.68 5.164-16.32-9.699-7.788-9.635zm8.203.44c-3.618 1.45-6.937 4.274-4.688 8.416 2.18-2.057 3.983-5.476 4.688-8.417zm-6.51 5.195h-.006c-.014-1.094-1.64-1.521-2.296-2.304-.416-.191-.955-1.181-1.365-.888-.443 2.2 2.878 7.973 3.667 3.192zm8.34-2.54c-.19-5.566-1.652 1.366-2.822 2.735.43.503 1.598-.234 2.225-.328.736-.48.434-1.495.596-2.407zm-5.09 6.21c1.503-.049 3.44-.952 4.05-2.377a17.59 17.59 0 00-2.787.513c-.405.648-.93 1.164-1.263 1.863zm-2.962-6.755h.005c.087.278-.209 1.221.18 1.135.194-.685 1.404-1.412 1.238-1.993-1.13-.488-1.6-.534-1.423.858zm-2.953-1.285c-.012.363 1.45 1.726 1.764 1.466.305-1.703-.278-1.718-1.764-1.466zm10.693 18.113c.147.702 1.867 1.41.774 2.112-.9.434-2.696-3.332-2.757-1.39.192.775-.396 2.122-1.08 1.042-.102-1.428-.011-2.87-.04-4.304.012-1.308 1.892-.601 2.735-.755 1.82.099 1.987 2.696.368 3.295zm-1.3-1.142c.822.178 1.928-.397.919-.98-.486.005-1.142-.175-1.545.12-.225.612.091.917.626.86zm-17.353.611c.196 8.068-3.708-4.801-3.13 2.093-.106.96-1.333.562-1.115-.275.27-.921-.78-5.22.93-4.411.477.272 2.188 3.702 2.187 2.127-.082-.745-.044-3.341 1.091-1.863.075.773.022 1.553.037 2.33zm14.859-.74c.348 5.397-5.695 4.314-4.148-1.768 2.216-1.14-.121 3.992 1.92 4.036 2.292-.1.11-3.63 1.644-4.276.944.122.482 1.36.586 2.008h-.002zm-13.557 3.424c-1.553-.252.776-3.688.86-4.732.091-.656.957-1.009 1.217-.262.192 1.284 2.069 3.933 1.28 4.909-1.26.832-1.395-4.075-2.122-2.342-.42.741-.387 2.08-1.235 2.427zm21.398-2.844c-.458.612-1.139 4.416-2.01 2.185 1.895-6.422 2.263-6.087 4.054.1-1.067 2.001-1.474-1.75-2.044-2.285zM19.13 30.593c2.138-.38 3.169 1.116.848 1.182-.615.76-.083 2.27-.255 3.275.199 1.27-1.317 1.333-1.154.035-.2-.998.423-2.646-.313-3.32-2.254-.08-1.198-1.546.874-1.172zm17.694 2.703c0-.738-.27-3.766 1.078-2.28.099 1.128.01 2.268.044 3.399.14 1.348 2.83-.327 3.106 1.072-.347 1.19-2.532.359-3.515.59-1.258-.106-.53-1.93-.713-2.78zM31.537 6.813c.645-.05.826.979.132 1.08-.76.12-.833-1.022-.132-1.08z"/></g></svg>