<svg width="48" height="48" fill="none" xmlns="http://www.w3.org/2000/svg"><defs><clipPath id="a"><path fill="#fff" fill-opacity="0" d="M0 0h48v48H0z"/></clipPath></defs><path d="M0 0h48v48H0z"/><g clip-path="url(#a)" fill="#3E3E3E"><path d="M21.186 7.91c.118-1.8-.038-3.477-2.056-4.066-4.303-1.159-8.853-1.15-13.258-.648-6.678 1.132-5.9 1.529-5.788 7.677a.84.84 0 00.75 1.015c.3.028.603.054.905.08-.833 2.549-.28 7.96 5.377 8.352 2.444.255 4.787-.256 7.163-.574 2.165-.208 3.952-.752 4.43-3.139.332-1.374.26-2.832.306-4.238.885-.166 1.705-.52 2.172-1.287.485-1.064-.028-2.126-.001-3.172zm-4.715 9.318c-2.944 1.028-8.662 1.13-11.272-.61-1.347-1.057-1.51-2.855-1.527-4.508 2 .131 4.005.213 6.012.27-.145.44-.257.896-.407 1.174-.699 2.645 3.55 2.678 2.872.012-.126-.286-.245-.716-.389-1.136 1.648.035 3.296.059 4.94.086.21 0 .436-.001.67-.005-.048 1.655.072 3.386-.9 4.717zm2.965-10.253c-.133.943-.114 1.968-.147 2.9-1.294.285-2.69-.128-4.052-.232-4.188-.137-8.714-.058-12.902-.048-.076-1.1-.543-2.455-.129-3.453 4.462-1.908 12.158-2.228 16.71-.658.657.3.6.867.52 1.49z"/><path d="M45.561 33.728c.166-.644.154-1.41.009-1.892-.251-.877-1.704-5.383-2.96-4.426-1.184.892 1.13 1.749.275 5.132a10.893 10.893 0 00-.767-.163c-2.597-.406-4.572 1.128-5.59 3.252a99.324 99.324 0 01-6.801.307c3.077-2.164 5.469-5.66 5.98-8.996.37-1.9.449-3.808.586-5.69.091-1.27.232-2.543.334-3.82a36.76 36.76 0 011.565 1.914c.543.49.887 1.788 1.771 1.584a.654.654 0 00.402-.833c-.824-2.244-1.955-4.37-3.281-6.36a1.717 1.717 0 00-.373-.39 16.652 16.652 0 00-.05-.626c-.122-3.426-2.614-6.615-6.301-5.927-.998.143-.93 1.575.085 1.615 6.107.012 3.272 8.786 3.11 12.588-.254 2.458-.349 4.884-1.144 7.208-1.622 4.094-7.216 9.189-11.723 6.484-4.36-3.706.042-9.358.887-13.748.857-1.911-12.164-.854-13.344-.278C.279 22.347.03 31.946.405 38.579c-.242 3.32 2 6.87 6.209 6.526 3.831-.103 7.37-3.078 6.443-7.035 7.586.71 15.32-.188 22.896-.78-.516 2.294-.028 4.836 1.787 6.343 7.833 5.457 13.813-5.664 7.821-9.905zm-26.364-11.75c-1.697 4.085-4.25 9.625-1.2 13.494-1.93.005-3.853.152-5.754.557-1.517-2.409-4.722-3.498-7.501-2.671-1.216.3-2.163.891-2.86 1.656-.004-10.812 4.562-14.456 17.315-13.036zm-8.672 18.18c-1.803 2.902-8.443 3.14-8.492-1.07a.891.891 0 00.01-.241L2.04 38.8c0-.016 0-.03.002-.047-.02-1.57.69-2.781 2.116-3.467 3.106-1.65 8.024 1.201 6.367 4.871zm34.778.616c-1.915 4.332-8.82 2.685-7.86-2.212.47-6.06 10.397-2.988 7.86 2.212z"/></g></svg>