<svg width="48" height="48" fill="none" xmlns="http://www.w3.org/2000/svg"><defs><clipPath id="a"><path fill="#fff" fill-opacity="0" d="M0 0h48v48H0z"/></clipPath></defs><path d="M0 0h48v48H0z"/><g clip-path="url(#a)" fill="#3E3E3E"><path d="M27.032 30.477c-1.411-.821-2.144-.043-3.394.442-1.884.393-2.809-1.437-3.601-.418-.936 1.41 3.172 2.608 4.154 2.638 1.334.33 4.675-1.206 2.841-2.662zm-8.165-29.33C8.8 3.621 5.51 16.159 9.96 24.716a1.039 1.039 0 101.836-.966C7.817 17.057 9.742 6.771 17.391 3.666c12.656-5.735 25.83 7.67 17.41 19.635a1.426 1.426 0 102.389 1.558c8.544-12.7-3.955-28.45-18.323-23.712z"/><path d="M28.137 15.525c-1.025.037-3.223.503-3.729-.615-.303-2.014.549-4.039.696-6.104a1.428 1.428 0 10-2.846-.182c.06 2.206-.503 4.473.113 6.663.692 2.29 3.394 2.235 5.282 1.7.49-.144 1.271-.198 1.215-.884a.645.645 0 00-.731-.578z"/><path d="M47.86 10.084c-.351-3.323-3.597-6.276-6.986-5-.968.316-1.87 1.104-2.114 2.145-.001.035-.037.11-.032.146l-.305 4.57c-.279 4.1-.381 8.272-.95 12.35-3.39-2.245-8.55 1.245-10.67 4.405-1.077 1.351-2.102 2.835-3.18 4.137-2.582-2.966-5.658-5.565-8.251-8.45-.606-.777-1.621-1.23-2.556-1.296-1.213-.129-2.332.24-3.256.924.128-4.187.301-8.378.476-12.56-.042-1.348-.039-2.76-.477-4.054-1.397-3.333-7.084-3.443-8.345.064-.915 3.21-.706 6.73-1.107 9.948-.06.468.118.912.437 1.213C-.991 29.017.314 41.393 9.826 47.58c.763.489 1.627-.43 1.1-1.161C4.794 38.87.875 31.6 1.908 21.59c.057-.91.14-1.819.25-2.726.43-.215.741-.64.785-1.154.289-3.22-.039-6.413.636-9.487.394-1.04 1.88-1.202 2.847-.874 1.77.463 1.428 3.096 1.593 4.555-.043 4.56-.02 9.125.086 13.683-2.584 4.262 1.907 8.205 4.815 10.85 1.019.922 2.21 1.91 3.085 2.93.627.715 1.749-.011 1.347-.88-.695-1.372-1.764-2.56-2.762-3.714-1.783-2.257-6.727-6.291-3.014-8.826.492-.207 1.032-.308 1.511-.165 2.874 2.413 5.74 4.932 8.426 7.57 3.533 3.103 6.302 9.3 1.231 12.358-.86.63-.011 1.894.898 1.333 4.464-2.604 4.295-8.072 1.768-11.945a1.76 1.76 0 00.246-.258c2.572-3.462 4.775-8.988 9.608-9.286 2.312.105 3.318 3.06 1.805 4.71-1.303 1.752-2.999 2.915-4.59 4.494a1.04 1.04 0 101.558 1.37c.688-.925 1.568-1.756 2.461-2.645 2.02-1.854 4.132-4.642 2.574-7.443a6.544 6.544 0 00-.189-.3l.008-.06c.76-4.489.993-9.056 1.501-13.57.16-1.428.334-2.847.551-4.253.122-.239.292-.303.603-.394 5.653-.512 2.81 8.882 4.16 12.193.254.888 1.54.743 1.582-.187.084-3.062 1.072-6.268.571-9.386zm-1.688 18.668c-.51-.113-.944.285-.987.785-.8 4.077-2.4 7.917-4.888 11.238-1.093 1.547-2.313 2.984-3.407 4.535-.437.678.248 1.532 1.008 1.24 1.937-.822 3.52-2.342 4.68-4.076 1.9-3.382 2.989-7.211 3.833-10.98.052-.864.965-2.362-.239-2.742z"/></g></svg>