<svg width="42" height="42" fill="none" xmlns="http://www.w3.org/2000/svg"><path d="M1 1h1.38v1.38H1V1z" fill="#FFFFF5"/><path d="M2.38 1h1.379v1.38h-1.38V1z" fill="#FFFFF5"/><path d="M3.759 1h1.379v1.38h-1.38V1zm1.379 0h1.38v1.38h-1.38V1z" fill="#FFFFF5"/><path d="M6.517 1h1.38v1.38h-1.38V1z" fill="#FFFFF5"/><path d="M7.897 1h1.379v1.38h-1.38V1zm1.379 0h1.38v1.38h-1.38V1zm4.138 0h1.38v1.38h-1.38V1zm9.655 0h1.38v1.38h-1.38V1zm8.276 0h1.38v1.38h-1.38V1z" fill="#FFFFF5"/><path d="M32.724 1h1.38v1.38h-1.38V1z" fill="#FFFFF5"/><path d="M34.103 1h1.38v1.38h-1.38V1z" fill="#FFFFF5"/><path d="M35.483 1h1.38v1.38h-1.38V1z" fill="#FFFFF5"/><path d="M36.862 1h1.38v1.38h-1.38V1z" fill="#FFFFF5"/><path d="M38.241 1h1.38v1.38h-1.38V1z" fill="#FFFFF5"/><path d="M39.62 1H41v1.38h-1.38V1zM1 2.38h1.38v1.379H1v-1.38zm8.276 0h1.38v1.379h-1.38v-1.38zm4.138 0h1.38v1.379h-1.38v-1.38zm4.138 0h1.379v1.379h-1.38v-1.38zm2.758 0h1.38v1.379h-1.38v-1.38zm2.759 0h1.38v1.379h-1.38v-1.38zm2.759 0h1.379v1.379h-1.38v-1.38zm5.517 0h1.38v1.379h-1.38v-1.38z" fill="#FFFFF5"/><path d="M39.62 2.38H41v1.379h-1.38v-1.38zM1 3.759h1.38v1.379H1v-1.38zm2.759 0h1.379v1.379h-1.38v-1.38zm1.379 0h1.38v1.379h-1.38v-1.38z" fill="#FFFFF5"/><path d="M6.517 3.759h1.38v1.379h-1.38v-1.38zm2.759 0h1.38v1.379h-1.38v-1.38zm4.138 0h1.38v1.379h-1.38v-1.38zm4.138 0h1.379v1.379h-1.38v-1.38zm1.379 0h1.38v1.379h-1.38v-1.38zm2.759 0h1.379v1.379h-1.38v-1.38z" fill="#FFFFF5"/><path d="M23.069 3.759h1.38v1.379h-1.38v-1.38zm2.759 0h1.379v1.379h-1.38v-1.38zm1.379 0h1.38v1.379h-1.38v-1.38zm4.138 0h1.38v1.379h-1.38v-1.38zm2.758 0h1.38v1.379h-1.38v-1.38z" fill="#FFFFF5"/><path d="M35.483 3.759h1.38v1.379h-1.38v-1.38z" fill="#FFFFF5"/><path d="M36.862 3.759h1.38v1.379h-1.38v-1.38zm2.758 0H41v1.379h-1.38v-1.38zM1 5.138h1.38v1.38H1v-1.38zm2.759 0h1.379v1.38h-1.38v-1.38zm1.379 0h1.38v1.38h-1.38v-1.38z" fill="#FFFFF5"/><path d="M6.517 5.138h1.38v1.38h-1.38v-1.38zm2.759 0h1.38v1.38h-1.38v-1.38zm5.517 0h1.38v1.38h-1.38v-1.38zm2.759 0h1.379v1.38h-1.38v-1.38zm2.758 0h1.38v1.38h-1.38v-1.38z" fill="#FFFFF5"/><path d="M21.69 5.138h1.379v1.38h-1.38v-1.38z" fill="#FFFFF5"/><path d="M23.069 5.138h1.38v1.38h-1.38v-1.38z" fill="#FFFFF5"/><path d="M24.448 5.138h1.38v1.38h-1.38v-1.38zm6.897 0h1.38v1.38h-1.38v-1.38zm2.758 0h1.38v1.38h-1.38v-1.38z" fill="#FFFFF5"/><path d="M35.483 5.138h1.38v1.38h-1.38v-1.38z" fill="#FFFFF5"/><path d="M36.862 5.138h1.38v1.38h-1.38v-1.38zm2.758 0H41v1.38h-1.38v-1.38zM1 6.517h1.38v1.38H1v-1.38zm2.759 0h1.379v1.38h-1.38v-1.38zm1.379 0h1.38v1.38h-1.38v-1.38z" fill="#FFFFF5"/><path d="M6.517 6.517h1.38v1.38h-1.38v-1.38zm2.759 0h1.38v1.38h-1.38v-1.38zm2.758 0h1.38v1.38h-1.38v-1.38zm1.38 0h1.38v1.38h-1.38v-1.38z" fill="#FFFFF5"/><path d="M14.793 6.517h1.38v1.38h-1.38v-1.38z" fill="#FFFFF5"/><path d="M16.172 6.517h1.38v1.38h-1.38v-1.38z" fill="#FFFFF5"/><path d="M17.552 6.517h1.379v1.38h-1.38v-1.38zm1.379 0h1.38v1.38h-1.38v-1.38z" fill="#FFFFF5"/><path d="M20.31 6.517h1.38v1.38h-1.38v-1.38zm2.759 0h1.38v1.38h-1.38v-1.38zm4.138 0h1.38v1.38h-1.38v-1.38zm4.138 0h1.38v1.38h-1.38v-1.38zm2.758 0h1.38v1.38h-1.38v-1.38z" fill="#FFFFF5"/><path d="M35.483 6.517h1.38v1.38h-1.38v-1.38z" fill="#FFFFF5"/><path d="M36.862 6.517h1.38v1.38h-1.38v-1.38zm2.758 0H41v1.38h-1.38v-1.38zM1 7.897h1.38v1.379H1v-1.38zm8.276 0h1.38v1.379h-1.38v-1.38zm5.517 0h1.38v1.379h-1.38v-1.38z" fill="#FFFFF5"/><path d="M16.172 7.897h1.38v1.379h-1.38v-1.38zm8.276 0h1.38v1.379h-1.38v-1.38z" fill="#FFFFF5"/><path d="M25.828 7.897h1.379v1.379h-1.38v-1.38zm1.379 0h1.38v1.379h-1.38v-1.38z" fill="#FFFFF5"/><path d="M28.586 7.897h1.38v1.379h-1.38v-1.38zm2.759 0h1.38v1.379h-1.38v-1.38zm8.275 0H41v1.379h-1.38v-1.38zM1 9.276h1.38v1.38H1v-1.38z" fill="#FFFFF5"/><path d="M2.38 9.276h1.379v1.38h-1.38v-1.38z" fill="#FFFFF5"/><path d="M3.759 9.276h1.379v1.38h-1.38v-1.38zm1.379 0h1.38v1.38h-1.38v-1.38z" fill="#FFFFF5"/><path d="M6.517 9.276h1.38v1.38h-1.38v-1.38z" fill="#FFFFF5"/><path d="M7.897 9.276h1.379v1.38h-1.38v-1.38zm1.379 0h1.38v1.38h-1.38v-1.38zm2.758 0h1.38v1.38h-1.38v-1.38zm2.759 0h1.38v1.38h-1.38v-1.38zm2.759 0h1.379v1.38h-1.38v-1.38zm2.758 0h1.38v1.38h-1.38v-1.38zm2.759 0h1.38v1.38h-1.38v-1.38zm2.759 0h1.379v1.38h-1.38v-1.38zm2.758 0h1.38v1.38h-1.38v-1.38zm2.759 0h1.38v1.38h-1.38v-1.38z" fill="#FFFFF5"/><path d="M32.724 9.276h1.38v1.38h-1.38v-1.38z" fill="#FFFFF5"/><path d="M34.103 9.276h1.38v1.38h-1.38v-1.38z" fill="#FFFFF5"/><path d="M35.483 9.276h1.38v1.38h-1.38v-1.38z" fill="#FFFFF5"/><path d="M36.862 9.276h1.38v1.38h-1.38v-1.38z" fill="#FFFFF5"/><path d="M38.241 9.276h1.38v1.38h-1.38v-1.38z" fill="#FFFFF5"/><path d="M39.62 9.276H41v1.38h-1.38v-1.38zm-27.586 1.379h1.38v1.38h-1.38v-1.38zm2.759 0h1.38v1.38h-1.38v-1.38zm2.759 0h1.379v1.38h-1.38v-1.38zm4.138 0h1.379v1.38h-1.38v-1.38zm6.896 0h1.38v1.38h-1.38v-1.38zM3.759 12.034h1.379v1.38h-1.38v-1.38zm1.379 0h1.38v1.38h-1.38v-1.38zm4.138 0h1.38v1.38h-1.38v-1.38z" fill="#FFFFF5"/><path d="M10.655 12.034h1.38v1.38h-1.38v-1.38z" fill="#FFFFF5"/><path d="M12.034 12.034h1.38v1.38h-1.38v-1.38z" fill="#FFFFF5"/><path d="M13.414 12.034h1.38v1.38h-1.38v-1.38zm2.758 0h1.38v1.38h-1.38v-1.38z" fill="#FFFFF5"/><path d="M17.552 12.034h1.379v1.38h-1.38v-1.38zm2.758 0h1.38v1.38h-1.38v-1.38zm5.518 0h1.379v1.38h-1.38v-1.38zm4.137 0h1.38v1.38h-1.38v-1.38zm1.38 0h1.38v1.38h-1.38v-1.38zm2.758 0h1.38v1.38h-1.38v-1.38zM1 13.414h1.38v1.38H1v-1.38z" fill="#FFFFF5"/><path d="M2.38 13.414h1.379v1.38h-1.38v-1.38z" fill="#FFFFF5"/><path d="M3.759 13.414h1.379v1.38h-1.38v-1.38zm15.172 0h1.38v1.38h-1.38v-1.38zm2.759 0h1.379v1.38h-1.38v-1.38z" fill="#FFFFF5"/><path d="M23.069 13.414h1.38v1.38h-1.38v-1.38zm2.759 0h1.379v1.38h-1.38v-1.38zm2.758 0h1.38v1.38h-1.38v-1.38z" fill="#FFFFF5"/><path d="M29.965 13.414h1.38v1.38h-1.38v-1.38zm2.759 0h1.38v1.38h-1.38v-1.38zm2.759 0h1.38v1.38h-1.38v-1.38z" fill="#FFFFF5"/><path d="M36.862 13.414h1.38v1.38h-1.38v-1.38zm2.758 0H41v1.38h-1.38v-1.38zM1 14.793h1.38v1.38H1v-1.38z" fill="#FFFFF5"/><path d="M2.38 14.793h1.379v1.38h-1.38v-1.38zm4.137 0h1.38v1.38h-1.38v-1.38zm2.759 0h1.38v1.38h-1.38v-1.38zm4.138 0h1.38v1.38h-1.38v-1.38zm13.793 0h1.38v1.38h-1.38v-1.38z" fill="#FFFFF5"/><path d="M28.586 14.793h1.38v1.38h-1.38v-1.38zm2.759 0h1.38v1.38h-1.38v-1.38z" fill="#FFFFF5"/><path d="M32.724 14.793h1.38v1.38h-1.38v-1.38z" fill="#FFFFF5"/><path d="M34.103 14.793h1.38v1.38h-1.38v-1.38zm4.138 0h1.38v1.38h-1.38v-1.38zM1 16.172h1.38v1.38H1v-1.38zm5.517 0h1.38v1.38h-1.38v-1.38z" fill="#FFFFF5"/><path d="M7.897 16.172h1.379v1.38h-1.38v-1.38zm4.137 0h1.38v1.38h-1.38v-1.38zm16.552 0h1.38v1.38h-1.38v-1.38zm4.138 0h1.38v1.38h-1.38v-1.38z" fill="#FFFFF5"/><path d="M34.103 16.172h1.38v1.38h-1.38v-1.38zm5.517 0H41v1.38h-1.38v-1.38zm-37.24 1.38h1.379v1.379h-1.38v-1.38zm4.137 0h1.38v1.379h-1.38v-1.38zm2.759 0h1.38v1.379h-1.38v-1.38z" fill="#FFFFF5"/><path d="M10.655 17.552h1.38v1.379h-1.38v-1.38z" fill="#FFFFF5"/><path d="M12.034 17.552h1.38v1.379h-1.38v-1.38z" fill="#FFFFF5"/><path d="M13.414 17.552h1.38v1.379h-1.38v-1.38zm13.793 0h1.38v1.379h-1.38v-1.38zm2.758 0h1.38v1.379h-1.38v-1.38zm2.759 0h1.38v1.379h-1.38v-1.38zm4.138 0h1.38v1.379h-1.38v-1.38z" fill="#FFFFF5"/><path d="M38.241 17.552h1.38v1.379h-1.38v-1.38z" fill="#FFFFF5"/><path d="M39.62 17.552H41v1.379h-1.38v-1.38zM5.138 18.931h1.38v1.38h-1.38v-1.38zm2.759 0h1.379v1.38h-1.38v-1.38zm4.137 0h1.38v1.38h-1.38v-1.38zm1.38 0h1.38v1.38h-1.38v-1.38zm13.793 0h1.38v1.38h-1.38v-1.38zm4.138 0h1.38v1.38h-1.38v-1.38z" fill="#FFFFF5"/><path d="M32.724 18.931h1.38v1.38h-1.38v-1.38zm2.759 0h1.38v1.38h-1.38v-1.38z" fill="#FFFFF5"/><path d="M36.862 18.931h1.38v1.38h-1.38v-1.38zm2.758 0H41v1.38h-1.38v-1.38zM1 20.31h1.38v1.38H1v-1.38z" fill="#FFFFF5"/><path d="M2.38 20.31h1.379v1.38h-1.38v-1.38zm6.896 0h1.38v1.38h-1.38v-1.38z" fill="#FFFFF5"/><path d="M10.655 20.31h1.38v1.38h-1.38v-1.38zm16.552 0h1.38v1.38h-1.38v-1.38zm4.138 0h1.38v1.38h-1.38v-1.38z" fill="#FFFFF5"/><path d="M32.724 20.31h1.38v1.38h-1.38v-1.38z" fill="#FFFFF5"/><path d="M34.103 20.31h1.38v1.38h-1.38v-1.38z" fill="#FFFFF5"/><path d="M35.483 20.31h1.38v1.38h-1.38v-1.38zm4.137 0H41v1.38h-1.38v-1.38zM1 21.69h1.38v1.379H1v-1.38zm4.138 0h1.38v1.379h-1.38v-1.38zm2.759 0h1.379v1.379h-1.38v-1.38zm4.137 0h1.38v1.379h-1.38v-1.38zm1.38 0h1.38v1.379h-1.38v-1.38zm13.793 0h1.38v1.379h-1.38v-1.38z" fill="#FFFFF5"/><path d="M28.586 21.69h1.38v1.379h-1.38v-1.38zm5.517 0h1.38v1.379h-1.38v-1.38z" fill="#FFFFF5"/><path d="M35.483 21.69h1.38v1.379h-1.38v-1.38zM1 23.069h1.38v1.38H1v-1.38zm2.759 0h1.379v1.38h-1.38v-1.38zm1.379 0h1.38v1.38h-1.38v-1.38z" fill="#FFFFF5"/><path d="M6.517 23.069h1.38v1.38h-1.38v-1.38zm2.759 0h1.38v1.38h-1.38v-1.38zm4.138 0h1.38v1.38h-1.38v-1.38zm19.31 0h1.38v1.38h-1.38v-1.38zm2.759 0h1.38v1.38h-1.38v-1.38zM2.38 24.448h1.379v1.38h-1.38v-1.38z" fill="#FFFFF5"/><path d="M5.138 24.448h1.38v1.38h-1.38v-1.38z" fill="#FFFFF5"/><path d="M6.517 24.448h1.38v1.38h-1.38v-1.38z" fill="#FFFFF5"/><path d="M7.897 24.448h1.379v1.38h-1.38v-1.38zm2.758 0h1.38v1.38h-1.38v-1.38zm2.759 0h1.38v1.38h-1.38v-1.38zm13.793 0h1.38v1.38h-1.38v-1.38zm2.758 0h1.38v1.38h-1.38v-1.38zm1.38 0h1.38v1.38h-1.38v-1.38zm4.138 0h1.38v1.38h-1.38v-1.38zM1 25.828h1.38v1.379H1v-1.38zm2.759 0h1.379v1.379h-1.38v-1.38zm1.379 0h1.38v1.379h-1.38v-1.38z" fill="#FFFFF5"/><path d="M9.276 25.828h1.38v1.379h-1.38v-1.38z" fill="#FFFFF5"/><path d="M10.655 25.828h1.38v1.379h-1.38v-1.38zm2.759 0h1.38v1.379h-1.38v-1.38zm15.172 0h1.38v1.379h-1.38v-1.38zm2.759 0h1.38v1.379h-1.38v-1.38z" fill="#FFFFF5"/><path d="M32.724 25.828h1.38v1.379h-1.38v-1.38z" fill="#FFFFF5"/><path d="M34.103 25.828h1.38v1.379h-1.38v-1.38z" fill="#FFFFF5"/><path d="M35.483 25.828h1.38v1.379h-1.38v-1.38z" fill="#FFFFF5"/><path d="M36.862 25.828h1.38v1.379h-1.38v-1.38zM5.138 27.207h1.38v1.38h-1.38v-1.38z" fill="#FFFFF5"/><path d="M6.517 27.207h1.38v1.38h-1.38v-1.38z" fill="#FFFFF5"/><path d="M7.897 27.207h1.379v1.38h-1.38v-1.38zm4.137 0h1.38v1.38h-1.38v-1.38zm1.38 0h1.38v1.38h-1.38v-1.38z" fill="#FFFFF5"/><path d="M14.793 27.207h1.38v1.38h-1.38v-1.38zm2.759 0h1.379v1.38h-1.38v-1.38zm1.379 0h1.38v1.38h-1.38v-1.38zm2.759 0h1.379v1.38h-1.38v-1.38z" fill="#FFFFF5"/><path d="M23.069 27.207h1.38v1.38h-1.38v-1.38zm2.759 0h1.379v1.38h-1.38v-1.38zm2.758 0h1.38v1.38h-1.38v-1.38z" fill="#FFFFF5"/><path d="M29.965 27.207h1.38v1.38h-1.38v-1.38zm1.38 0h1.38v1.38h-1.38v-1.38zm2.758 0h1.38v1.38h-1.38v-1.38z" fill="#FFFFF5"/><path d="M35.483 27.207h1.38v1.38h-1.38v-1.38z" fill="#FFFFF5"/><path d="M36.862 27.207h1.38v1.38h-1.38v-1.38z" fill="#FFFFF5"/><path d="M38.241 27.207h1.38v1.38h-1.38v-1.38zM2.38 28.586h1.379v1.38h-1.38v-1.38z" fill="#FFFFF5"/><path d="M3.759 28.586h1.379v1.38h-1.38v-1.38zm1.379 0h1.38v1.38h-1.38v-1.38zm2.759 0h1.379v1.38h-1.38v-1.38zm1.379 0h1.38v1.38h-1.38v-1.38z" fill="#FFFFF5"/><path d="M10.655 28.586h1.38v1.38h-1.38v-1.38z" fill="#FFFFF5"/><path d="M12.034 28.586h1.38v1.38h-1.38v-1.38zm2.759 0h1.38v1.38h-1.38v-1.38z" fill="#FFFFF5"/><path d="M16.172 28.586h1.38v1.38h-1.38v-1.38z" fill="#FFFFF5"/><path d="M17.552 28.586h1.379v1.38h-1.38v-1.38zm8.276 0h1.379v1.38h-1.38v-1.38zm1.379 0h1.38v1.38h-1.38v-1.38z" fill="#FFFFF5"/><path d="M28.586 28.586h1.38v1.38h-1.38v-1.38z" fill="#FFFFF5"/><path d="M29.965 28.586h1.38v1.38h-1.38v-1.38zm1.38 0h1.38v1.38h-1.38v-1.38z" fill="#FFFFF5"/><path d="M32.724 28.586h1.38v1.38h-1.38v-1.38z" fill="#FFFFF5"/><path d="M34.103 28.586h1.38v1.38h-1.38v-1.38z" fill="#FFFFF5"/><path d="M35.483 28.586h1.38v1.38h-1.38v-1.38z" fill="#FFFFF5"/><path d="M36.862 28.586h1.38v1.38h-1.38v-1.38zm2.758 0H41v1.38h-1.38v-1.38zm-27.586 1.379h1.38v1.38h-1.38v-1.38zm2.759 0h1.38v1.38h-1.38v-1.38zm4.138 0h1.38v1.38h-1.38v-1.38zm2.759 0h1.379v1.38h-1.38v-1.38z" fill="#FFFFF5"/><path d="M23.069 29.965h1.38v1.38h-1.38v-1.38z" fill="#FFFFF5"/><path d="M24.448 29.965h1.38v1.38h-1.38v-1.38zm4.138 0h1.38v1.38h-1.38v-1.38zm5.517 0h1.38v1.38h-1.38v-1.38z" fill="#FFFFF5"/><path d="M35.483 29.965h1.38v1.38h-1.38v-1.38zm2.758 0h1.38v1.38h-1.38v-1.38z" fill="#FFFFF5"/><path d="M39.62 29.965H41v1.38h-1.38v-1.38zM1 31.345h1.38v1.38H1v-1.38z" fill="#FFFFF5"/><path d="M2.38 31.345h1.379v1.38h-1.38v-1.38z" fill="#FFFFF5"/><path d="M3.759 31.345h1.379v1.38h-1.38v-1.38zm1.379 0h1.38v1.38h-1.38v-1.38z" fill="#FFFFF5"/><path d="M6.517 31.345h1.38v1.38h-1.38v-1.38z" fill="#FFFFF5"/><path d="M7.897 31.345h1.379v1.38h-1.38v-1.38zm1.379 0h1.38v1.38h-1.38v-1.38zm2.758 0h1.38v1.38h-1.38v-1.38zm9.656 0h1.379v1.38h-1.38v-1.38zm2.758 0h1.38v1.38h-1.38v-1.38z" fill="#FFFFF5"/><path d="M25.828 31.345h1.379v1.38h-1.38v-1.38zm1.379 0h1.38v1.38h-1.38v-1.38z" fill="#FFFFF5"/><path d="M28.586 31.345h1.38v1.38h-1.38v-1.38zm2.759 0h1.38v1.38h-1.38v-1.38zm2.758 0h1.38v1.38h-1.38v-1.38zm2.759 0h1.38v1.38h-1.38v-1.38z" fill="#FFFFF5"/><path d="M38.241 31.345h1.38v1.38h-1.38v-1.38zM1 32.724h1.38v1.38H1v-1.38zm8.276 0h1.38v1.38h-1.38v-1.38zm4.138 0h1.38v1.38h-1.38v-1.38zm9.655 0h1.38v1.38h-1.38v-1.38zm5.517 0h1.38v1.38h-1.38v-1.38zm5.517 0h1.38v1.38h-1.38v-1.38z" fill="#FFFFF5"/><path d="M38.241 32.724h1.38v1.38h-1.38v-1.38z" fill="#FFFFF5"/><path d="M39.62 32.724H41v1.38h-1.38v-1.38zM1 34.103h1.38v1.38H1v-1.38zm2.759 0h1.379v1.38h-1.38v-1.38zm1.379 0h1.38v1.38h-1.38v-1.38z" fill="#FFFFF5"/><path d="M6.517 34.103h1.38v1.38h-1.38v-1.38zm2.759 0h1.38v1.38h-1.38v-1.38zm4.138 0h1.38v1.38h-1.38v-1.38z" fill="#FFFFF5"/><path d="M14.793 34.103h1.38v1.38h-1.38v-1.38z" fill="#FFFFF5"/><path d="M16.172 34.103h1.38v1.38h-1.38v-1.38zm4.138 0h1.38v1.38h-1.38v-1.38z" fill="#FFFFF5"/><path d="M21.69 34.103h1.379v1.38h-1.38v-1.38zm2.758 0h1.38v1.38h-1.38v-1.38zm4.138 0h1.38v1.38h-1.38v-1.38z" fill="#FFFFF5"/><path d="M29.965 34.103h1.38v1.38h-1.38v-1.38zm1.38 0h1.38v1.38h-1.38v-1.38z" fill="#FFFFF5"/><path d="M32.724 34.103h1.38v1.38h-1.38v-1.38z" fill="#FFFFF5"/><path d="M34.103 34.103h1.38v1.38h-1.38v-1.38z" fill="#FFFFF5"/><path d="M35.483 34.103h1.38v1.38h-1.38v-1.38z" fill="#FFFFF5"/><path d="M36.862 34.103h1.38v1.38h-1.38v-1.38zm2.758 0H41v1.38h-1.38v-1.38zM1 35.483h1.38v1.38H1v-1.38zm2.759 0h1.379v1.38h-1.38v-1.38zm1.379 0h1.38v1.38h-1.38v-1.38z" fill="#FFFFF5"/><path d="M6.517 35.483h1.38v1.38h-1.38v-1.38zm2.759 0h1.38v1.38h-1.38v-1.38zm2.758 0h1.38v1.38h-1.38v-1.38zm6.897 0h1.38v1.38h-1.38v-1.38zm2.759 0h1.379v1.38h-1.38v-1.38zm5.517 0h1.38v1.38h-1.38v-1.38zm6.896 0h1.38v1.38h-1.38v-1.38z" fill="#FFFFF5"/><path d="M35.483 35.483h1.38v1.38h-1.38v-1.38zm2.758 0h1.38v1.38h-1.38v-1.38zM1 36.862h1.38v1.38H1v-1.38zm2.759 0h1.379v1.38h-1.38v-1.38zm1.379 0h1.38v1.38h-1.38v-1.38z" fill="#FFFFF5"/><path d="M6.517 36.862h1.38v1.38h-1.38v-1.38zm2.759 0h1.38v1.38h-1.38v-1.38zm2.758 0h1.38v1.38h-1.38v-1.38zm4.138 0h1.38v1.38h-1.38v-1.38z" fill="#FFFFF5"/><path d="M17.552 36.862h1.379v1.38h-1.38v-1.38zm5.517 0h1.38v1.38h-1.38v-1.38z" fill="#FFFFF5"/><path d="M24.448 36.862h1.38v1.38h-1.38v-1.38z" fill="#FFFFF5"/><path d="M25.828 36.862h1.379v1.38h-1.38v-1.38zm2.758 0h1.38v1.38h-1.38v-1.38zm4.138 0h1.38v1.38h-1.38v-1.38zm4.138 0h1.38v1.38h-1.38v-1.38zm2.758 0H41v1.38h-1.38v-1.38zM1 38.241h1.38v1.38H1v-1.38zm8.276 0h1.38v1.38h-1.38v-1.38zm6.896 0h1.38v1.38h-1.38v-1.38z" fill="#FFFFF5"/><path d="M17.552 38.241h1.379v1.38h-1.38v-1.38zm1.379 0h1.38v1.38h-1.38v-1.38zm2.759 0h1.379v1.38h-1.38v-1.38zm2.758 0h1.38v1.38h-1.38v-1.38z" fill="#FFFFF5"/><path d="M25.828 38.241h1.379v1.38h-1.38v-1.38zm5.517 0h1.38v1.38h-1.38v-1.38zm2.758 0h1.38v1.38h-1.38v-1.38z" fill="#FFFFF5"/><path d="M35.483 38.241h1.38v1.38h-1.38v-1.38zm2.758 0h1.38v1.38h-1.38v-1.38zM1 39.62h1.38V41H1v-1.38z" fill="#FFFFF5"/><path d="M2.38 39.62h1.379V41h-1.38v-1.38z" fill="#FFFFF5"/><path d="M3.759 39.62h1.379V41h-1.38v-1.38zm1.379 0h1.38V41h-1.38v-1.38z" fill="#FFFFF5"/><path d="M6.517 39.62h1.38V41h-1.38v-1.38z" fill="#FFFFF5"/><path d="M7.897 39.62h1.379V41h-1.38v-1.38zm1.379 0h1.38V41h-1.38v-1.38zm4.138 0h1.38V41h-1.38v-1.38zm4.138 0h1.379V41h-1.38v-1.38zm6.896 0h1.38V41h-1.38v-1.38zm2.759 0h1.38V41h-1.38v-1.38zm4.138 0h1.38V41h-1.38v-1.38z" fill="#FFFFF5"/><path d="M32.724 39.62h1.38V41h-1.38v-1.38zm5.517 0h1.38V41h-1.38v-1.38z" fill="#FFFFF5"/><path d="M2.38 1H1v1.38M2.38 1v1.38m0-1.38h1.379m-1.38 1.38H1m1.38 0h1.379m-1.38 0v1.379M1 2.379v1.38M3.759 1v1.38m0-1.38h1.379m-1.38 1.38h1.38m0-1.38v1.38m0-1.38h1.38m-1.38 1.38h1.38m0-1.38v1.38m0-1.38h1.379m-1.38 1.38h1.38m0-1.38v1.38m0-1.38h1.379m-1.38 1.38h1.38m0-1.38v1.38m0-1.38h1.38v1.38m-1.38 0h1.38m-1.38 0v1.379m1.38-1.38v1.38m4.137-1.38V1h-1.38v1.38m1.38 0h-1.38m1.38 0v1.379m-1.38-1.38v1.38m11.035-1.38V1H23.07v1.38m1.38 0h-1.38m1.38 0v1.379m-1.38-1.38v1.38M32.724 1h-1.38v1.38M32.725 1v1.38m0-1.38h1.38m-1.38 1.38h-1.38m1.38 0h1.38m-1.38 0v1.379m-1.38-1.38v1.38M34.105 1v1.38m0-1.38h1.379m-1.38 1.38h1.38m0-1.38v1.38m0-1.38h1.38m-1.38 1.38h1.38m0-1.38v1.38m0-1.38h1.378m-1.379 1.38h1.38m0-1.38v1.38m0-1.38h1.379m-1.38 1.38h1.38m0-1.38v1.38m0-1.38H41v1.38m-1.38 0H41m-1.38 0v1.379M41 2.379v1.38m-38.62 0H1m1.38 0v1.379M1 3.758v1.38m9.655-1.38h-1.38m1.38 0v1.38m-1.38-1.38v1.38m5.518-1.38h-1.38m1.38 0v1.38m-1.38-1.38v1.38h1.38m4.138-1.38V2.38h-1.38v1.38m1.38 0h-1.38m1.38 0v1.379m0-1.38h1.38m-2.76 0v1.38m4.139-1.38V2.38h-1.38v1.38m1.38 0h-1.38m1.38 0h1.379m-1.38 0v1.379m-1.379-1.38v1.38m4.138-1.38H23.07m1.38 0v1.38m-1.38-1.38v1.38m4.138-1.38V2.38h-1.38v1.38m1.38 0h-1.38m1.38 0v1.379m0-1.38h1.38v1.38h-1.38m-1.38-1.38v1.38m6.897-1.38h-1.38m1.38 0v1.38m-1.38-1.38v1.38M41 3.758h-1.38m1.38 0v1.38m-1.38-1.38v1.38m-37.24 0H1m1.38 0v1.38M1 5.137v1.38m4.138-2.76h-1.38v1.38m1.38-1.38v1.38m0-1.38h1.38m-1.38 1.38h-1.38m1.38 0h1.38m-1.38 0v1.38m-1.38-1.38v1.38m2.76-2.76v1.38m0-1.38h1.379v1.38m-1.38 0h1.38m-1.38 0v1.38m1.38-1.38v1.38m2.758-1.38h-1.38m1.38 0v1.38m-1.38-1.38v1.38m5.518-1.38h1.38v1.38m-1.38-1.38v1.38m4.138-1.38h-1.38m1.38 0h1.38m-1.38 0v1.38m-1.38-1.38v1.38m2.76-1.38h1.379m-1.38 0v1.38m2.759-1.38h-1.38m1.38 0h1.38m-1.38 0v1.38m-1.38-1.38v1.38m2.76-1.38v1.38m0-1.38h1.379m1.379 0h-1.38m0 0v1.38h-1.379m8.276-1.38h-1.38m1.38 0v1.38m-1.38-1.38v1.38m4.139-2.76h-1.38v1.38m1.38-1.38v1.38m0-1.38h1.38m-1.38 1.38h-1.38m1.38 0h1.38m-1.38 0v1.38m-1.38-1.38v1.38m2.76-2.76v1.38m0-1.38h1.378v1.38m-1.379 0h1.38m-1.38 0v1.38m1.38-1.38v1.38M41 5.137h-1.38m1.38 0v1.38m-1.38-1.38v1.38m-37.24 0H1m1.38 0v1.379M1 6.517v1.38m4.138-1.38h-1.38m1.38 0h1.38m-1.38 0v1.38m-1.38-1.38v1.38h1.38m1.38-1.38h1.379m-1.38 0v1.38m1.38-1.38v1.38h-1.38m4.138-1.38h-1.38m1.38 0v1.38m-1.38-1.38v1.38m6.897-1.38h-1.379m1.38 0v1.38m0-1.38h1.379m-2.759 0h-1.38m1.38 0v1.38m4.138-1.38h-1.38m1.38 0v1.38m0-1.38h1.38m-2.76 0v1.38m4.139-1.38h-1.38m1.38 0h1.379m-1.38 0v1.38H20.31m0-1.38v1.38m2.759-1.38h1.38m-1.38 0v1.38h1.38m0-1.38v1.38m8.275-1.38h-1.38m1.38 0v1.38m-1.38-1.38v1.38m4.139-1.38h-1.38m1.38 0h1.38m-1.38 0v1.38m-1.38-1.38v1.38h1.38m1.38-1.38h1.378m-1.379 0v1.38m1.38-1.38v1.38h-1.38M41 6.517h-1.38m1.38 0v1.38m-1.38-1.38v1.38m-37.24 0H1m1.38 0v1.379M1 7.896v1.38m4.138-1.38h1.38m4.137 0h-1.38m1.38 0v1.38m-1.38-1.38v1.38m4.139-2.759h-1.38v1.38h1.38m0-1.38v1.38m0 0h1.38m0 0h1.378m-1.379 0v1.379m1.38-1.38h1.379m-1.38 0v1.38m1.38-1.38h1.379m-1.38 0v1.38m1.38-1.38h1.38m4.137 0h1.38m-1.38 0v1.38m4.138-1.38V6.518h-1.38v1.38m1.38 0h-1.38m1.38 0v1.379m0-1.38h1.38v1.38m-2.76-1.38h-1.378m1.379 0v1.38m5.517-1.38h-1.38m1.38 0v1.38m-1.38-1.38v1.38m4.139-1.38h1.38m4.137 0h-1.38m1.38 0v1.38m-1.38-1.38v1.38m-37.24 0H1m1.38 0v1.38m0-1.38h1.379M1 9.276v1.38h1.38m8.275-1.38h-1.38m1.38 0v1.38h-1.38m0-1.38H7.898m1.379 0v1.38m6.896-1.38h-1.379m1.38 0h1.379m-1.38 0v1.38m-1.379-1.38v1.38m2.759-1.38h1.379v1.38m-1.38-1.38v1.38m8.277-2.76v1.38m0 0h-1.38m1.38 0h1.379m-1.38 0v1.38h1.38v-1.38m-2.759 0H23.07v1.38m1.38-1.38v1.38h-1.38m4.138-1.38h1.38m0 0h1.378m-1.379 0v1.38m1.38-1.38v1.38m2.758-1.38h-1.38m1.38 0v1.38m0-1.38h1.38m-2.76 0v1.38h1.38M41 9.275h-1.38m1.38 0v1.38h-1.38m0-1.38h-1.379m1.38 0v1.38m-37.242 0h1.38m0-1.38v1.38m0-1.38h1.379m-1.38 1.38h1.38m0-1.38v1.38m0-1.38h1.38m-1.38 1.38h1.38m0-1.38v1.38m0-1.38h1.379m-1.38 1.38h1.38m0-1.38v1.38m0 0h1.379m4.138 0v-1.38h-1.38v1.38m1.38 0h-1.38m1.38 0v1.378m-1.38-1.379v1.38m4.138-1.38h-1.379m1.38 0v1.38m-1.38-1.38v1.38m4.138-1.38h-1.38m1.38 0v1.38m-1.38-1.38v1.38m4.139-1.38v-1.38h-1.38v1.38h1.38zm0 0h1.379m-1.38 0v1.38m1.38-1.38v1.38h-1.38m8.276-1.38h-1.379m1.38 0v1.38m-1.38-1.38v1.38h1.38m2.758-1.38h1.38m0-1.38v1.38m0-1.38h1.379m-1.38 1.38h1.38m0-1.38v1.38m0-1.38h1.38m-1.38 1.38h1.38m0-1.38v1.38m0-1.38h1.378m-1.379 1.38h1.38m0-1.38v1.38m0 0h1.379m-26.207 1.38h-1.38m1.38 0v1.379m0-1.38h1.38m-2.76 0h-1.379m1.38 0v1.38m4.137-1.38h-1.379m1.38 0h1.379m-1.38 0v1.38h1.38m-2.759-1.38v1.38h-1.38m5.518-1.38h-1.38m1.38 0v1.38m-1.38-1.38v1.38m4.139-1.38h-1.38v1.38m1.38-1.38v1.38m8.275-1.38h1.38m-1.38 0v1.38m-24.827-1.38h-1.38v1.38m1.38-1.38v1.38m0-1.38h1.38v1.38h-1.38m0 0h-1.38m1.38 0v1.38h-1.38m0-1.38H2.38m1.38 0v1.38m6.896-2.76h-1.38v1.38h1.38m0-1.38v1.38m0 0h1.38m0 0h1.379m4.138 0h1.379m0 0h1.38m-1.38 0v1.38h1.38v-1.38m1.379 0h-1.38m1.38 0h1.379m-1.38 0v1.38h1.38m4.138-1.38v-1.38h-1.38v1.38m1.38 0h-1.38m1.38 0v1.38m-1.38-1.38v1.38h1.38m4.138-2.76v1.38m0-1.38h1.38v1.38m-1.38 0h-1.38m1.38 0h1.38m-1.38 0v1.38m-1.38-1.38h-1.379v1.38m1.38-1.38v1.38m2.758-1.38h1.38m-1.38 0v1.38m2.759-1.38v-1.38h-1.38v1.38m1.38 0h-1.38m1.38 0h1.38m-1.38 0v1.38m-1.38-1.38v1.38M2.38 13.413H1v1.38m1.38-1.38v1.38m0 0H1m1.38 0h1.379m-1.38 0v1.378M1 14.793v1.38m2.759-1.38v1.38h-1.38m20.69-2.76v1.38m0-1.38h1.38v1.38h-1.38m4.138 0h1.38m-1.38 0v1.38h1.38m1.378-1.38h-1.379m1.38 0h1.379m-1.38 0v1.38m-1.379-1.38v1.38m2.759-1.38h1.38m-1.38 0v1.38h1.38m1.378-1.38h-1.379m1.38 0v1.38m0-1.38h1.379m-2.759 0v1.38m4.138-2.76v1.38m0-1.38h1.38v1.38m-1.38 0h-1.38m1.38 0h1.38m-2.76 0v1.38m2.76-1.38h1.379m-1.38 0v1.38h1.38m0-1.38H41v-1.38h-1.38v1.38zm0 0v1.38m-37.242 0H1m1.38 0v1.379M1 16.172v1.38h1.38m5.517-1.38v-1.379h-1.38v1.38m1.38 0h-1.38m1.38 0v1.379m0-1.38h1.379m-2.759 0v1.38m2.759-1.38h1.38v-1.379h-1.38v1.38zm0 0v1.38m4.138-1.38h1.38v-1.379h-1.38v1.38zm0 0h-1.38v1.38m1.38-1.38v1.38m15.172-1.38h1.38m-1.38 0v1.38m1.38-1.38v1.38m2.758-1.38h1.38m-1.38 0v1.38m1.38-1.38h1.379m-1.38 0v1.38m1.38-1.38v1.38h-1.38m5.518-1.38H41v1.38m-1.38-1.38v1.38m-37.24 0h1.379v1.379h-1.38v-1.38zm5.517 0h-1.38m1.38 0h1.379m-1.38 0v1.379m-1.379-1.38v1.38m2.759-1.38h1.38m-1.38 0v1.38m4.138-1.38h-1.38m1.38 0v1.38m0-1.38h1.38v1.38m-2.76-1.38h-1.379m1.38 0v1.38m17.93-1.38h-1.379m1.38 0h1.379v1.38m-1.38-1.38v1.38h1.38m-2.759-1.38h-1.38v1.38m1.38-1.38v1.38m5.517-1.38h-1.379m1.38 0v1.38m-1.38-1.38v1.38M41 17.551h-1.38m1.38 0v1.38m-1.38-1.38h-1.379m1.38 0v1.38m-31.724 0h-1.38m1.38 0h1.379m-1.38 0v1.38h1.38m-2.759-1.38h-1.38v1.38h1.38v-1.38zm4.138-1.38v1.38m0 0h-1.38m1.38 0h1.38m-2.76 0v1.38m2.76-1.38h1.379m-1.38 0v1.38m1.38-1.38h1.38m-1.38 0v1.38m1.38-1.38v1.38h-1.38m15.172-1.38h-1.38m1.38 0v1.38m-1.38-1.38v1.38m4.139-1.38h1.38m-1.38 0v1.38m2.758-1.38h-1.379m1.38 0v1.38m-1.38-1.38v1.38m5.517-2.76h-1.379v1.38m1.38-1.38v1.38m0 0h-1.38m1.38 0h1.379m-1.38 0v1.38h-1.379m0-1.38h-1.38v1.38m1.38-1.38v1.38m2.759-1.38H41m-1.38 0v1.38M41 18.93v1.38m-31.724 0h1.38m-1.38 0v1.379m4.138-1.38h-1.38m0 0h-1.379m1.38 0v1.38m16.551-1.38h-1.38m1.38 0v1.38m-1.38-1.38v1.38m5.518-1.38h-1.38m1.38 0h1.38m-1.38 0v1.38m-1.38-1.38v1.38h1.38m1.38-1.38v1.38m0-1.38h1.379m1.38 0h-1.38m1.38 0v1.38m-1.38-1.38v1.38M41 20.31h-1.38m1.38 0v1.38h-1.38v-1.38m-37.24 0H1v1.38m1.38-1.38v1.38m0-1.38h1.379v1.38h-1.38m0 0H1m1.38 0v1.379M1 21.689v1.38m9.655-2.759v1.38m0 0h-1.38m1.38 0h1.38m-2.76 0H7.898v1.379m1.379-1.38v1.38m2.758-1.38h1.38m-1.38 0v1.38h1.38m15.172-1.38h-1.38m1.38 0v1.38m0-1.38h1.38v1.38h-1.38m-1.38-1.38v1.38h1.38m4.138-1.38h1.38m0 0h1.379m-1.38 0v1.38m1.38-1.38h1.38m-1.38 0v1.38m1.38-1.38v1.38m-34.484 0H1m1.38 0v1.38M1 23.068v1.38h1.38m4.137-1.38v-1.38h-1.38v1.38m1.38 0h-1.38m1.38 0v1.38m0-1.38h1.38m-2.76 0H3.76v1.38m1.379-1.38v1.38m4.138-1.38h-1.38m1.38 0h1.38v1.38m-1.38-1.38v1.38m-1.38-1.38v1.38m5.518-2.76v1.38m0-1.38h1.38v1.38m-1.38 0h1.38m-1.38 0v1.38m1.38-1.38v1.38m20.689-1.38h-1.38m1.38 0h1.38m-1.38 0v1.38m-1.38-1.38h-1.379v1.38m1.38-1.38v1.38h-1.38m4.138-1.38v1.38m-34.483 0h1.38m-1.38 0v1.379m2.759-1.38h-1.38m1.38 0h1.38m-1.38 0v1.38m-1.38-1.38v1.38m2.76-1.38h1.379m-1.38 0v1.38m1.38-1.38v1.38m0-1.38h1.379m1.38 0h-1.38m1.38 0h1.378v1.38m-1.379-1.38v1.38m-1.38-1.38v1.38m5.518-1.38h-1.38m1.38 0v1.38m-1.38-1.38v1.38m19.311-1.38h-1.38m1.38 0v1.38m4.138-1.38h-1.38m1.38 0v1.38m-1.38-1.38v1.38m-31.723 0H2.38m1.38 0h1.379m-1.38 0v1.379h1.38m-2.759-1.38H1v1.38h1.38v-1.38zm4.138 0h-1.38m1.38 0h1.38m-1.38 0v1.38m-1.38-1.38v1.38m2.76-1.38h1.379m0 0h1.38m-1.38 0v1.38m2.758-1.38h-1.379m1.38 0v1.38m-1.38-1.38v1.38m4.138-1.38h-1.38m1.38 0v1.38m-1.38-1.38v1.38m15.173-1.38v-1.379h-1.38v1.38h1.38zm0 0h1.38m-1.38 0v1.38m2.759-2.759h-1.38v1.38m1.38-1.38v1.38m0 0h-1.38m1.38 0h1.38m-1.38 0v1.379m-1.38-1.38v1.38m2.76-1.38v1.38m0-1.38h1.378m2.76 0h-1.38m1.38 0v1.38m0-1.38h1.378v1.38m-2.758-1.38h-1.38m1.38 0v1.38m-30.345 0h1.38m-1.38 0v1.38m1.38-1.38v1.38m0-1.38h1.379m2.758 0h-1.38m1.38 0h1.38m-2.76 0H7.898m1.379 0v1.38m2.758-1.38h1.38m-1.38 0v1.38m2.76-1.38h-1.38m1.38 0v1.38m0-1.38h1.378v1.38m-2.758-1.38v1.38m16.551-1.38h-1.379m1.38 0v1.38m0-1.38h1.379m-2.759 0v1.38m4.138-1.38h-1.38m1.38 0h1.38m-1.38 0v1.38m-1.38-1.38v1.38m2.76-2.76v1.38m0 0h1.379m-1.38 0v1.38m1.38-1.38h1.38m-1.38 0v1.38m1.38-1.38h1.378m-1.379 0v1.38m1.38-1.38v1.38m0-1.38h1.379v1.38m-33.104 0h-1.38m1.38 0h1.38m-1.38 0v1.378h-1.38m0-1.379H3.76m1.379 0v1.38m2.759-2.76v1.38m0 0h1.379m-1.38 0v1.38h1.38m0-1.38v1.38m0-1.38h1.38m2.758 0h-1.38m1.38 0h1.38m-1.38 0v1.38m-1.38-1.38h-1.379m1.38 0v1.38m2.758-1.38h1.38m-1.38 0v1.38m1.38-1.38v1.38m0-1.38h1.379m1.379-1.38h-1.38v1.38m1.38-1.38v1.38m0-1.38h1.38v1.38h-1.38m0 0h-1.38m1.38 0v1.38m-1.38-1.38v1.38m5.518-2.76h-1.38v1.38h1.38m0-1.38v1.38m0-1.38h1.38v1.38h-1.38m4.138 0v-1.38h-1.38v1.38m1.38 0h-1.38m1.38 0v1.38m0-1.38h1.38m-2.76 0v1.38m4.138-1.38h-1.379m1.38 0h1.379m-1.38 0v1.38m-1.379-1.38v1.38m2.759-1.38h1.38m-1.38 0v1.38m1.38-1.38v1.38m0-1.38h1.378m1.38 0h-1.38m1.38 0h1.38m-1.38 0v1.38m-1.38-1.38v1.38m2.76-1.38h1.378m-1.379 0v1.38m1.38-1.38h1.379m-1.38 0v1.38m1.38-1.38H41v1.38m-1.38-1.38v1.38m-35.86-1.38H2.38v1.38h1.38m0-1.38v1.38m0 0h1.379m4.138 0h1.38m0-1.38v1.38m0 0h1.378m0 0h1.38m-1.38 0v1.379m1.38-1.38v1.38m2.758-1.38h-1.379m1.38 0h1.379m-1.38 0v1.38h-1.379v-1.38m2.759 0h1.379m0 0h1.38v1.38h-1.38v-1.38zm8.276 0h-1.38m1.38 0h1.38m-2.76 0h-1.379m1.38 0v1.38m2.758-1.38h1.38m-1.38 0v1.38m1.38-1.38h1.379m-1.38 0v1.38m1.38-1.38h1.38m0 0h1.378m0 0h1.38m-1.38 0v1.38m1.38-1.38h1.38m-1.38 0v1.38m1.38-1.38h1.378m-1.379 0v1.38m1.38-1.38h1.379m-1.38 0v1.38M41 29.965h-1.38m1.38 0v1.38h-1.38m0-1.38v1.38m-26.206 0h-1.38m1.38 0v1.38m-1.38-1.38v1.38h1.38m9.655-2.76h-1.38v1.38m1.38-1.38v1.38m0-1.38h1.38m-1.38 1.38h-1.38m1.38 0h1.38m-1.38 0v1.38m-1.38-1.38v1.38h1.38m1.38-2.76v1.38m0 0h1.379m-1.38 0v1.38m1.38-1.38v1.38m0-1.38h1.379m2.758 0h-1.379m1.38 0v1.38m-1.38-1.38h-1.38m1.38 0v1.38m6.897-1.38h-1.38m1.38 0h1.38m-1.38 0v1.38m-1.38-1.38v1.38m2.76-1.38h1.378m-1.379 0v1.38h1.38m1.379-1.38h-1.38m1.38 0v1.38m-1.38-1.38v1.38M2.38 31.344H1v1.38m1.38-1.38v1.38m0-1.38h1.379m-1.38 1.38H1m1.38 0h1.379m-1.38 0v1.378M1 32.724v1.38m2.759-2.76v1.38m0-1.38h1.379m-1.38 1.38h1.38m0-1.38v1.38m0-1.38h1.38m-1.38 1.38h1.38m0-1.38v1.38m0-1.38h1.379m-1.38 1.38h1.38m0-1.38v1.38m0-1.38h1.379m-1.38 1.38h1.38m0-1.38v1.38m0-1.38h1.38v1.38m-1.38 0h1.38m-1.38 0v1.38m1.38-1.38v1.38m2.758-1.38h1.38v1.38m-1.38-1.38v1.38m9.655-1.38h1.38m-1.38 0v1.38m2.759-1.38h-1.38m1.38 0h1.379m-2.759 0v1.38m2.759-2.76v1.38m0 0h1.38m0 0h1.378m-1.379 0v1.38m1.38-1.38v1.38m5.517-1.38h-1.38m1.38 0v1.38m-1.38-1.38v1.38m4.138-1.38h1.38m-1.38 0v1.38m1.38-1.38v1.38m0-1.38H41v1.38m-38.62 0H1m1.38 0v1.379M1 34.103v1.38m9.655-1.38h-1.38m1.38 0v1.38m-1.38-1.38v1.38m5.518-1.38h-1.38m1.38 0v1.38m0-1.38h1.38m-2.76 0v1.38m11.035-1.38H23.07m1.38 0h1.379v1.38h-1.38v-1.38zm-1.38 0h-1.38m1.38 0v1.38m6.896-1.38h-1.379m1.38 0v1.38m0-1.38h1.379m-2.759 0v1.38m6.897-1.38h-1.38m1.38 0v1.38m0-1.38h1.38m-2.76 0h-1.379m1.38 0v1.38m5.517-1.38h-1.38m1.38 0H41m-1.38 0v1.38m-1.379-1.38h-1.379m1.38 0v1.38M41 34.103v1.38h-1.38m-37.24 0H1m1.38 0v1.38M1 35.482v1.38m4.138-2.76h-1.38v1.38m1.38-1.38v1.38m0-1.38h1.38m-1.38 1.38h-1.38m1.38 0h1.38m-1.38 0v1.38m-1.38-1.38v1.38m2.76-2.76v1.38m0-1.38h1.379v1.38m-1.38 0h1.38m-1.38 0v1.38m1.38-1.38v1.38m2.758-1.38h-1.38m1.38 0v1.38m-1.38-1.38v1.38m5.518-1.38h-1.38m1.38 0h1.38m-2.76 0h-1.379v1.38m1.38-1.38v1.38m2.758-2.76v1.38m0-1.38h1.38v1.38h-1.38m5.518-1.38h-1.38v1.38m1.38-1.38v1.38m0 0h-1.38m1.38 0h1.379m-1.38 0v1.38h1.38m-2.759-1.38h-1.379v1.38m1.38-1.38v1.38h-1.38m4.138-1.38v1.38m6.896-1.38h-1.379m1.38 0h1.379m-2.759 0h-1.38v1.38m1.38-1.38v1.38m2.759-2.76v1.38m0-1.38h1.38m-1.38 1.38h1.38m0-1.38v1.38m0 0h1.378m0 0h1.38m-1.38 0v1.38m1.38-1.38h1.38m-1.38 0v1.38m1.38-2.76v1.38m0 0h1.378m-1.379 0v1.38m1.38-1.38h1.379m-1.38 0v1.38m1.38-1.38v1.38m-37.242 0H1m1.38 0v1.378M1 36.862v1.38m4.138-1.38h-1.38m1.38 0h1.38m-1.38 0v1.38m-1.38-1.38v1.38h1.38m1.38-1.38h1.379m-1.38 0v1.38m1.38-1.38v1.38h-1.38m4.138-1.38h-1.38m1.38 0v1.38m-1.38-1.38v1.38m4.139-1.38h-1.38m1.38 0v1.38h-1.38v-1.38m6.897 0h-1.38m1.38 0v1.38m4.138-1.38h1.38m-1.38 0v1.38m5.517-1.38h-1.38m1.38 0h1.38v1.38h-1.38v-1.38zm-1.38 0h-1.378m1.379 0v1.38m8.276-1.38h-1.38m1.38 0h1.38m-2.76 0h-1.379v1.38m1.38-1.38v1.38m2.758-1.38h1.38m-1.38 0v1.38m2.759-1.38h-1.38m1.38 0H41v1.38h-1.38m0-1.38v1.38m-1.379-1.38v1.38m-35.862 0H1m1.38 0v1.379M1 38.24v1.38m4.138-1.38h1.38m4.137 0h-1.38m1.38 0v1.38m-1.38-1.38v1.38m8.277-2.759h-1.38v1.38m1.38-1.38v1.38m0 0h-1.38m1.38 0h1.379m-1.38 0v1.379m-1.379-1.38v1.38h1.38m1.379-1.38v1.38m0-1.38h1.38v1.38h-1.38m5.517-2.759v1.38m0-1.38h1.38m-1.38 1.38H23.07m1.38 0h1.379m-1.38 0v1.379m-1.379-1.38h-1.38v1.38h1.38v-1.38zm2.759-1.379v1.38m0 0h1.379m-1.38 0v1.379m1.38-1.38v1.38m6.896-1.38h-1.379m1.38 0h1.379m-1.38 0v1.38m-1.379-1.38h-1.38v1.38m1.38-1.38v1.38m5.517-1.38h-1.379m1.38 0h1.379m-1.38 0v1.38m-1.379-1.38h-1.38m1.38 0v1.38h-1.38m4.139-1.38v1.38m-37.242 0H1m1.38 0V41m0-1.38h1.379M1 39.62V41h1.38m8.275-1.38h-1.38m1.38 0V41h-1.38m0-1.38H7.898m1.379 0V41m8.276-1.38h1.379m-1.38 0V41h1.38v-1.38m6.897 0h-1.38m1.38 0h1.379m-1.38 0V41h-1.379v-1.38m2.759 0h1.38V41h-1.38v-1.38zm5.517 0h-1.38m1.38 0V41m0-1.38h1.38m-2.76 0V41h1.38m2.759-2.759v1.38m0 0h-1.38m0 0V41h-1.379m6.897-1.38h-1.38m1.38 0V41h-1.38v-1.38M2.38 41h1.38m0-1.38V41m0-1.38h1.379M3.758 41h1.38m0-1.38V41m0-1.38h1.38M5.137 41h1.38m0-1.38V41m0-1.38h1.379M6.517 41h1.38m0-1.38V41m0 0h1.379m22.069-9.655h1.38v1.38h-1.38v-1.38zM13.414 39.62h1.38V41h-1.38v-1.38z" stroke="#FFFFF5" stroke-width=".5"/></svg>