<svg width="16" height="16" fill="none" xmlns="http://www.w3.org/2000/svg"><path d="M14.281 1.906H1.72A1.72 1.72 0 000 3.625v8.75a1.72 1.72 0 001.719 1.719H14.28A1.72 1.72 0 0016 12.375v-8.75a1.72 1.72 0 00-1.719-1.719zm.781 1.719v8.75a.768.768 0 01-.008.113L10.547 8l4.507-4.488a.77.77 0 01.008.113zm-.78-.781a.78.78 0 01.107.007L8 9.213 1.611 2.851a.812.812 0 01.108-.007H14.28zM.945 12.488a.756.756 0 01-.008-.113v-8.75c0-.038.002-.076.008-.113L5.453 8 .946 12.488zm.773.668a.822.822 0 01-.108-.007l4.506-4.487 1.552 1.545a.469.469 0 00.662 0l1.552-1.545 4.506 4.487a.824.824 0 01-.108.007H1.72z" fill="#3E3E3E"/></svg>