<svg width="27.321" height="27.429" fill="none" xmlns="http://www.w3.org/2000/svg"><path d="M3.898 22.286a.47.47 0 01-.4-.427l-.002-.015v-.005a15.4 15.4 0 01.023-1.618l.185-1.523c.117-.668.28-1.32.49-1.954a12.767 12.767 0 011.975-3.75 13.764 13.764 0 01-3.679-.84l-.898-.372a15.241 15.241 0 01-1.36-.701c-.23-.144-.266-.367-.206-.565 1.172-3.243 3.26-5.782 6.039-7.341a.469.469 0 01.459.817C4.192 5.3 2.382 7.359 1.247 9.979l.308-.064c.583-.121 1.309-.272 1.435-.522.364-.72.776-1.538 2.004-1.985 1.012-.37 1.762-.188 2.41.065.334-.61.793-1.228 1.804-1.596 1.013-.368 1.762-.187 2.409.066.272-.5.63-1.007 1.31-1.377a14.039 14.039 0 01-.172-2.024 11.531 11.531 0 00-4.32.597.467.467 0 01-.594-.293.469.469 0 01.293-.595 12.459 12.459 0 014.637-.646c.019-.388.053-.778.102-1.171a.472.472 0 01.44-.41c2.11-.116 4.116.19 5.962.912a12.482 12.482 0 014.627 3.124 12.494 12.494 0 012.801 4.84c.592 1.894.76 3.92.498 6.02a.472.472 0 01-.44.41c-.399.022-.766.026-1.039.022-.149 2.928-1.276 5.69-3.202 7.82-2.095 2.319-4.972 3.788-8.32 4.25-.26.045-.451-.152-.51-.318a16.12 16.12 0 01-.39-1.411l-.18-.946a13.534 13.534 0 01-.01-4.282c-1.853 1.164-4 1.829-6.276 1.953l-1.44.007a15.398 15.398 0 01-1.496-.14zM14.554 9.13c-2.916.421-5.418 1.824-7.165 3.824-1.81 2.07-2.884 4.819-2.962 7.93.087-.06.174-.118.26-.175.496-.33 1.113-.742 1.136-1.021.067-.805.143-1.717 1.114-2.592.8-.721 1.563-.834 2.26-.842.08-.69.274-1.436 1.074-2.155.801-.721 1.563-.834 2.258-.841.08-.69.272-1.437 1.073-2.159.601-.541 1.181-.74 1.728-.809a12.33 12.33 0 01-.776-1.16zm1.334-3.673c-.764-.819-.87-1.607-.883-2.324-.501-.237-.893-.798-1.301-1.388-.147 3.417.948 6.542 3.144 8.899 2.257 2.422 5.407 3.742 8.944 3.77l-.175-.254c-.324-.472-.727-1.059-1.004-1.077-.805-.054-1.718-.115-2.608-1.07-.734-.788-.86-1.548-.88-2.243-.692-.069-1.442-.248-2.177-1.035-.733-.787-.86-1.546-.881-2.24-.694-.07-1.444-.249-2.18-1.038zm1.541-1.435c-.484-.52-.962-.668-1.48-.73.025.52.14 1.006.624 1.526.485.52.963.67 1.483.732-.027-.522-.142-1.009-.627-1.528zm3.055 3.28c-.483-.519-.959-.668-1.476-.731.027.52.142 1.006.626 1.524.483.518.959.667 1.475.73-.026-.52-.141-1.004-.625-1.523zm3.058 3.28c-.484-.52-.96-.668-1.476-.73.027.519.142 1.004.625 1.521.484.52.96.669 1.478.732-.025-.53-.139-1-.627-1.524zm-5.001 9.326c.496-.16.935-.398 1.31-1 .375-.6.396-1.098.323-1.613-.495.16-.933.397-1.31.998-.375.601-.396 1.1-.323 1.615zm-2.376 3.805c.496-.16.936-.397 1.313-1 .377-.603.397-1.102.323-1.62-.498.16-.938.397-1.314 1-.377.603-.396 1.102-.322 1.62zm-.629-7.218c-1.66 2.77-2.08 6.09-1.213 9.433l.196-.232.006-.007c.385-.455.865-1.02.81-1.294-.157-.793-.335-1.69.357-2.799.57-.914 1.273-1.233 1.94-1.433-.113-.685-.132-1.455.438-2.367.572-.914 1.273-1.232 1.939-1.431-.104-.63-.13-1.33.308-2.149a12.69 12.69 0 01-1.84-.989c-.618.469-1.188.995-1.696 1.57a.467.467 0 01-.662.04.469.469 0 01-.04-.662 12.603 12.603 0 011.6-1.513 12.198 12.198 0 01-1.064-.918c-.127.53-.386 1.079-.98 1.613-.801.72-1.563.834-2.259.842-.08.69-.272 1.437-1.072 2.157s-1.561.834-2.256.843c-.081.692-.273 1.44-1.075 2.16-.832.75-1.623.842-2.34.842-.245.497-.812.879-1.408 1.276 3.036.179 5.898-.637 8.176-2.348a12.465 12.465 0 011.331-3.116.469.469 0 11.804.482zm-7.971 1.298c-.528.476-.685.95-.757 1.468.522-.017 1.01-.123 1.538-.598.529-.476.686-.951.757-1.47-.522.018-1.01.124-1.538.6zm3.333-2.997c-.527.474-.685.947-.757 1.463.521-.018 1.008-.125 1.535-.6.526-.473.684-.946.756-1.462-.52.018-1.007.124-1.534.599zm3.332-3c-.527.475-.685.948-.756 1.463.52-.018 1.007-.125 1.533-.598.527-.475.685-.948.757-1.464-.52.017-1.008.125-1.534.599zm6.967 2.768c-.334.57-.35 1.048-.28 1.542.496-.16.934-.398 1.31-.998.04-.066.078-.131.111-.196a13.54 13.54 0 01-1.141-.349zm-4.94 10.1c-.1.546-.541 1.07-1.005 1.618 5.528-1.228 9.264-5.489 9.534-10.97a14.357 14.357 0 01-1.509-.193c-.07.162-.154.323-.256.486-.57.913-1.272 1.232-1.938 1.43.113.687.134 1.457-.436 2.37-.57.913-1.271 1.233-1.937 1.433.113.687.134 1.458-.437 2.373-.594.949-1.328 1.256-2.017 1.454zM26.37 13.603c.143-3.42-.956-6.547-3.154-8.902-2.256-2.419-5.4-3.734-8.931-3.762l.179.257c.339.49.76 1.099 1.04 1.117.806.054 1.72.114 2.61 1.069.736.788.863 1.549.883 2.244.691.07 1.44.25 2.173 1.037.735.789.86 1.549.88 2.243.692.068 1.441.247 2.177 1.035.764.819.871 1.606.884 2.32.492.23.869.772 1.26 1.341zM13.374 6.47c-.106-.338-.2-.702-.251-.918-.281.21-.468.464-.63.747.282.104.565.175.881.17zm-2.2.31c-.488-.18-.98-.263-1.646-.02-.666.241-.99.621-1.25 1.073.49.179.982.262 1.648.02.665-.243.988-.623 1.248-1.074zM6.966 8.31c-.49-.18-.984-.264-1.651-.02-.668.243-.991.624-1.251 1.077.49.18.982.264 1.65.021.668-.242.991-.624 1.252-1.078zm-2.05 2.168c-.52 0-.963-.142-1.368-.305-.413.368-1.082.51-1.783.656 1.664.789 3.425 1.222 5.16 1.269 1.868-2.014 4.37-3.357 7.16-3.84a12.684 12.684 0 01-.385-.872 2.926 2.926 0 01-.358.022c-.49 0-.91-.125-1.292-.274-.334.61-.791 1.23-1.803 1.599-1.01.368-1.76.189-2.407-.064-.335.611-.793 1.232-1.806 1.6a3.24 3.24 0 01-1.117.21z" fill="#3E3E3E" fill-rule="evenodd"/></svg>