<svg width="32" height="30.116" fill="none" xmlns="http://www.w3.org/2000/svg"><path d="M31.74 7.375a10.37 10.37 0 00-2.597-4.343A10.288 10.288 0 0021.86 0h-.038a10.284 10.284 0 00-7.262 2.975 10.252 10.252 0 00-3.049 6.704 10.417 10.417 0 00-4.03.267 10.37 10.37 0 00-7.222 7.02 6.072 6.072 0 00.96 5.413 6.125 6.125 0 004.086 2.432A6.12 6.12 0 007.744 28.9a6.097 6.097 0 005.434.95 10.358 10.358 0 004.317-2.588 10.352 10.352 0 002.998-6.738l.118.002a6.096 6.096 0 003.646-1.218 6.118 6.118 0 002.437-4.086 6.125 6.125 0 004.085-2.432 6.072 6.072 0 00.96-5.414zM11.95 20.53a.937.937 0 00-1.285-.326l-.652.388a2.748 2.748 0 00-1.506-1.905.938.938 0 00-.807 1.692.86.86 0 01.499.753.86.86 0 01-.425.793l-1.392.81a4.716 4.716 0 011.384-6.84 4.713 4.713 0 016.457 1.637 4.716 4.716 0 01-1.637 6.458 4.68 4.68 0 01-3.567.519 4.736 4.736 0 01-1.16-.464l3.765-2.23a.937.937 0 00.326-1.285zm-9.227.73a4.214 4.214 0 01-.667-3.757 8.489 8.489 0 012.126-3.555 8.41 8.41 0 017.378-2.369c.081.7.232 1.383.448 2.042a6.568 6.568 0 00-5.2.663c-2.844 1.693-3.949 5.206-2.717 8.177a4.319 4.319 0 01-1.368-1.202zm13.446 4.675a8.48 8.48 0 01-3.534 2.12 4.227 4.227 0 01-3.775-.662 4.313 4.313 0 01-1.2-1.363 6.68 6.68 0 002.53.502 6.594 6.594 0 006.548-7.165c.602.34 1.237.62 1.894.832a8.478 8.478 0 01-2.461 5.737zm9.7-13.173c-.079.132-.164.26-.253.382l-1.392-.81a.86.86 0 01-.425-.793.86.86 0 01.5-.752.938.938 0 00-.808-1.692 2.748 2.748 0 00-1.506 1.905l-.652-.389a.937.937 0 10-.959 1.611l3.762 2.228c-1.423.8-3.224.84-4.724-.053a4.679 4.679 0 01-2.156-2.89 4.68 4.68 0 01.518-3.567 4.716 4.716 0 016.458-1.638 4.716 4.716 0 011.637 6.458zm3.405-1.093a4.317 4.317 0 01-1.367 1.201c1.232-2.97.127-6.484-2.716-8.177a6.593 6.593 0 00-9.027 2.29 6.542 6.542 0 00-.725 4.987 6.542 6.542 0 003.014 4.04 6.545 6.545 0 004.988.725c.309-.078.61-.178.9-.297-.293.525-.699.99-1.202 1.364a4.226 4.226 0 01-3.776.662 8.488 8.488 0 01-3.534-2.12 8.418 8.418 0 01-2.465-6.025c.009-2.288.9-4.421 2.512-6.008a8.446 8.446 0 015.946-2.427c2.173 0 4.346.825 5.994 2.473a8.489 8.489 0 012.126 3.555 4.214 4.214 0 01-.668 3.757z" fill="#3E3E3E"/></svg>