<svg width="28" height="33" fill="none" xmlns="http://www.w3.org/2000/svg"><path d="M4.777 19.557c0 4.497 4.22 8.18 9.455 8.18 5.182 0 9.455-3.683 9.455-8.18 0-4.496-4.273-8.18-9.455-8.18-5.181 0-9.455 3.684-9.455 8.18zm17.789-1.95h-.374a.424.424 0 00-.428.433c0 .271.214.38.428.38h.587c.054.379.107.758.107 1.137 0 1.138-.32 2.276-.908 3.25l-.107-.108a.415.415 0 00-.587 0 .43.43 0 000 .596l.213.217c-.908 1.192-2.19 2.167-3.74 2.763l-.16-.38c-.106-.216-.32-.27-.534-.162-.213.108-.267.325-.16.542l.107.27c-.855.271-1.816.38-2.778.38a8.601 8.601 0 01-2.403-.325l.16-.434c.107-.216 0-.433-.214-.541-.214-.109-.427 0-.534.216l-.214.542c-1.656-.596-3.098-1.571-4.06-2.871l.374-.38a.43.43 0 000-.595.415.415 0 00-.587 0l-.267.27a6.39 6.39 0 01-.908-3.304c0-.38.053-.758.106-1.138h.641a.424.424 0 00.428-.433c0-.27-.16-.433-.428-.433h-.48c.427-1.409 1.335-2.655 2.564-3.576v.054l.374.38c.16.162.427.162.587 0a.43.43 0 000-.596l-.213-.163a9.81 9.81 0 014.754-1.408v.379c0 .217.16.433.427.433.214 0 .374-.162.374-.433v-.38a9.461 9.461 0 014.487 1.3l-.48.488a.43.43 0 000 .596c.16.163.427.163.587 0l.48-.487c.054-.054.054-.054.054-.109 1.282.921 2.244 2.167 2.725 3.63z" fill="#3E3E3E"/><path d="M15.248 18.905l-.588-3.358c-.053-.217-.213-.325-.374-.325-.213 0-.374.162-.374.325l-.48 3.25c-.641.27-1.069.813-1.069 1.463 0 .92.855 1.625 1.923 1.625 1.069 0 1.923-.704 1.923-1.625-.053-.596-.427-1.084-.961-1.355zm-.908-.704l.053.433h-.16l.107-.433zm-.107 2.871c-.588 0-1.122-.379-1.122-.812 0-.434.48-.813 1.122-.813.587 0 1.122.38 1.122.813 0 .433-.481.812-1.122.812z" fill="#3E3E3E"/><path d="M15.994 5.85c3.846-.162 7.745-1.029 10.79-3.52.374-.326 1.336-1.355 1.122-1.897a.694.694 0 00-.64-.433C18.504.704 9.69.867 1.09.542a.694.694 0 00-.64.433v.054c-.108 0-.161.163-.108.38 0 .65.588 1.191 1.069 1.516C4.562 5.038 8.569 5.58 12.36 5.796c.481.813.268 2.113-.16 2.98-.16.054-.267.054-.427.108-5.021 1.03-8.921 4.388-10.577 10.564-.801 2.925-.961 6.013-1.175 9.1-.054.868-.054 1.789.534 2.384.48.488 1.229.596 1.977.542.053.325.16.704.427.921 1.015 1.03 2.564.217 2.51-1.083 5.396 0 11.272-.109 17.789-.271.107.758.748 1.462 1.549 1.462.748 0 1.442-.704 1.496-1.57.373 0 .694-.109 1.015-.434.32-.38.48-.867.427-1.3l-.855-8.018c-.213-1.733-.374-3.575-1.068-5.254-1.496-3.792-5.075-6.555-9.242-7.205-.267-.054-.534-.054-.747-.109-.16-1.029-.107-1.95.16-2.762zM26.998.868c-3.472 3.358-8.92 3.846-13.728 3.792-4.167-.054-8.761-.488-11.913-3.305 8.44.325 17.04.163 25.641-.487zM3.494 31.853c-.107-.108-.214-.27-.214-.433.481-.054.909-.054 1.39-.108 0 .595-.642 1.083-1.176.541zm21.314-.108c-.32 0-.641-.325-.695-.704.481 0 .962 0 1.39-.054-.054.433-.375.758-.695.758zm.214-15.493c.64 1.57.854 3.358 1.015 5.038l.854 8.017c.054.325-.267.867-.534.867-9.188.27-17.147.325-24.252.325a.482.482 0 01-.374-.162.59.59 0 01-.16-.38c0-3.088.107-6.392.801-9.588.428-2.005 1.336-4.876 3.259-7.15 1.976-2.384 5.395-3.847 8.867-3.847.641 0 1.282.054 1.923.162 3.9.65 7.212 3.196 8.6 6.718zM13.804 8.613c.16-.92.16-1.896-.107-2.817h1.496c-.214.813-.32 1.734-.214 2.763-.427.054-.801.054-1.175.054z" fill="#3E3E3E"/></svg>