<svg width="24" height="20" viewBox="0 0 24 20" fill="none" xmlns="http://www.w3.org/2000/svg">
<path d="M23.25 12.4609C23.25 10.9942 22.8361 9.31047 22.143 7.957C21.4194 6.54405 20.4924 5.68192 19.4949 5.47745C18.931 2.92637 17.45 0.507812 15.5156 0.507812C13.9814 0.507812 12.7325 2.02933 12 3.93161C11.2675 2.02933 10.0186 0.507812 8.48438 0.507812C6.54998 0.507812 5.06902 2.92637 4.50511 5.47745C3.50761 5.68197 2.58066 6.54405 1.857 7.957C1.16386 9.31047 0.75 10.9942 0.75 12.4609H0V16.6797H1.72167L3.12792 19.4922H6.80953L8.21578 16.6797H8.75292L10.1592 19.4922H13.8408L15.247 16.6797H15.7842L17.1904 19.4922H20.872L22.2783 16.6797H24V12.4609H23.25ZM20.8913 8.59802C21.4788 9.74509 21.8438 11.2253 21.8438 12.4609H16.2188C16.2188 11.2253 16.5837 9.74509 17.1712 8.59802C17.7362 7.49467 18.4316 6.83594 19.0312 6.83594C19.6309 6.83594 20.3263 7.49467 20.8913 8.59802ZM13.957 3.14842C14.4584 2.36397 15.0265 1.91406 15.5156 1.91406C16.0047 1.91406 16.5728 2.36397 17.0742 3.14842C17.5085 3.82788 17.8651 4.70753 18.0862 5.62923C17.2734 5.97752 16.5252 6.7742 15.9195 7.95695C15.7714 8.24617 15.6369 8.55105 15.5156 8.86506C15.3943 8.55105 15.2599 8.24617 15.1118 7.95695C14.506 6.7742 13.7578 5.97752 12.945 5.62923C13.1661 4.70758 13.5227 3.82792 13.957 3.14842ZM13.8601 8.59802C14.4476 9.74509 14.8125 11.2253 14.8125 12.4609H9.1875C9.1875 11.2253 9.55242 9.74509 10.1399 8.59802C10.705 7.49467 11.4004 6.83594 12 6.83594C12.5996 6.83594 13.295 7.49467 13.8601 8.59802ZM6.92578 3.14842C7.42716 2.36397 7.99528 1.91406 8.48438 1.91406C8.97347 1.91406 9.54159 2.36397 10.043 3.14842C10.4773 3.82788 10.8338 4.70753 11.055 5.62923C10.2422 5.97752 9.49397 6.7742 8.88825 7.95695C8.74012 8.24617 8.60564 8.55105 8.48438 8.86506C8.36306 8.55105 8.22863 8.24617 8.0805 7.95695C7.47478 6.7742 6.72652 5.97752 5.91375 5.62923C6.13486 4.70758 6.49148 3.82792 6.92578 3.14842ZM3.10866 8.59802C3.67373 7.49467 4.36913 6.83594 4.96875 6.83594C5.56837 6.83594 6.26377 7.49467 6.82884 8.59802C7.41633 9.74509 7.78125 11.2253 7.78125 12.4609H2.15625C2.15625 11.2253 2.52117 9.74509 3.10866 8.59802ZM22.5938 15.2734H21.4092L20.0029 18.0859H18.0595L16.6533 15.2734H14.3779L12.9717 18.0859H11.0283L9.62203 15.2734H7.34667L5.94042 18.0859H3.99708L2.59083 15.2734H1.40625V13.8672H22.5938V15.2734Z" fill="#3E3E3E"/>
</svg>
