<svg width="18" height="24" viewBox="0 0 18 24" fill="none" xmlns="http://www.w3.org/2000/svg">
<path d="M17.7737 20.9692C17.9108 20.91 17.9997 20.7751 18 20.6257V5.99854C18.0004 5.91573 17.9733 5.83512 17.9231 5.76929L15.3762 2.49756V1.12354C15.3754 0.916155 15.2064 0.74881 14.999 0.750006H2.99805C2.79208 0.75083 2.62531 0.917585 2.62449 1.12354V2.49756L0.0783807 5.77002C0.0282359 5.83575 0.000413817 5.91572 2.79341e-06 5.99854V22.8735C-0.000788073 23.0806 0.166453 23.2492 0.373569 23.25H12.3745C12.425 23.2497 12.4751 23.2387 12.5218 23.22L17.7737 20.9692ZM3.37455 1.50074H14.6255V2.25074H3.37455V1.50074ZM3.18337 3.00074H14.2314C13.5514 3.87568 12.8703 4.74976 12.1907 5.625H1.14194L3.18337 3.00074ZM14.6255 3.71705V18.6423L12.7518 21.5859V6.12891L14.6255 3.71705ZM15.3762 3.72073L17.2499 6.12893V19.8955L15.3762 18.5574V3.72073ZM0.750066 6.37503H12.001V8.62577H0.750066V6.37503ZM0.750066 9.37577H12.001V19.4993H0.750066V9.37577ZM8.24994 10.5C8.24994 10.9552 8.08871 11.3704 7.8295 11.6866C7.41481 11.4121 6.91958 11.25 6.37552 11.25C5.83147 11.25 5.33548 11.4128 4.9208 11.6873C4.66158 11.3712 4.50035 10.956 4.50035 10.5008C4.50275 10.2945 4.33817 10.1295 4.13191 10.1258C3.92049 10.1221 3.74774 10.2894 3.75029 10.5008C3.75029 11.1434 3.97758 11.7315 4.36118 12.1883C4.28095 12.2839 4.2105 12.3835 4.14437 12.49C3.92985 12.3028 3.642 12.1498 3.31521 12.0616C2.90852 11.9518 2.50739 12.0056 2.20844 12.1143C2.05349 12.1707 1.9169 12.2448 1.80118 12.3333C1.68545 12.4218 1.56728 12.54 1.52137 12.7127C1.47918 12.8713 1.51811 13.0433 1.57411 13.1778C1.63019 13.3123 1.71203 13.4438 1.81802 13.5704C2.03003 13.8235 2.34378 14.0641 2.75047 14.1739C3.10164 14.2687 3.44377 14.2808 3.75031 14.2061V15.375C3.75031 15.7591 3.83095 16.1216 3.97957 16.4517C3.83287 16.6829 3.75031 16.9567 3.75031 17.2493C3.75031 18.0883 4.42585 18.7503 5.25043 18.75C6.00025 18.7492 6.75006 18.7493 7.49988 18.7493C8.32446 18.7493 9 18.0876 9 17.2486C9 16.9559 8.91744 16.6821 8.77073 16.4509C8.91935 16.1209 9 15.7584 9 15.3743V14.2053C9.30654 14.28 9.64867 14.2679 9.99984 14.1731C10.4065 14.0633 10.7203 13.8227 10.9323 13.5696C11.0383 13.443 11.1201 13.3115 11.1762 13.177C11.2323 13.0425 11.2711 12.8705 11.2289 12.7119C11.183 12.5393 11.0649 12.421 10.9491 12.3325C10.8334 12.244 10.6968 12.1699 10.5419 12.1135C10.2429 12.0048 9.84179 11.951 9.43509 12.0608C9.10831 12.149 8.82045 12.302 8.60593 12.4893C8.53979 12.3828 8.46934 12.2831 8.38911 12.1875C8.77272 11.7307 9 11.1426 9 10.5C9.0024 10.2886 8.8298 10.1213 8.61838 10.125C8.41212 10.1287 8.24751 10.2938 8.24994 10.5ZM8.24994 13.8743V15.3743C8.24994 15.5639 8.22405 15.7377 8.17304 15.909C7.97055 15.8069 7.74097 15.7514 7.49989 15.7515C6.75007 15.7512 6.00025 15.7517 5.25044 15.7522C5.00935 15.7522 4.77977 15.8077 4.57729 15.9097C4.52628 15.7384 4.50038 15.5646 4.50038 15.375V13.875C4.50038 12.8535 5.32245 12.0011 6.37553 12.0008C7.4286 12.0004 8.24994 12.8528 8.24994 13.8743ZM10.473 12.9119C10.4504 12.9593 10.4116 13.0227 10.3566 13.0884C10.2306 13.2388 10.033 13.3867 9.80573 13.448C9.54782 13.5176 9.30112 13.5131 9.14137 13.4671C9.00826 13.4287 8.96687 13.3797 8.9502 13.3638C8.94678 13.3472 8.93772 13.3048 8.93408 13.2884C8.93408 13.2693 8.95544 13.2007 9.05054 13.1016C9.16662 12.9806 9.37349 12.8534 9.6314 12.7837C9.7347 12.7571 9.84663 12.7468 9.95882 12.753C10.071 12.7591 10.1835 12.7817 10.2877 12.8196C10.3671 12.8485 10.4302 12.8826 10.473 12.9119ZM3.69977 13.1023C3.79488 13.2014 3.81623 13.27 3.81623 13.2891C3.81256 13.3056 3.80347 13.348 3.80012 13.3646C3.78344 13.3805 3.74206 13.4295 3.60894 13.4678C3.44919 13.5139 3.20249 13.5184 2.94458 13.4488C2.71728 13.3874 2.51973 13.2396 2.39375 13.0892C2.33876 13.0235 2.29992 12.9601 2.27729 12.9126C2.32011 12.8833 2.38318 12.8492 2.46261 12.8204C2.56685 12.7824 2.6793 12.7598 2.79149 12.7537C2.90369 12.7476 3.01562 12.7578 3.11891 12.7845C3.37682 12.8541 3.58368 12.9814 3.69977 13.1023ZM7.49988 16.5015C7.94383 16.5015 8.24994 16.8593 8.24994 17.2486C8.24994 17.6618 7.9219 17.9984 7.49988 17.9986C6.75006 17.9994 6.00025 17.9993 5.25043 17.9993C4.82841 17.9993 4.50037 17.6625 4.50037 17.2493C4.50037 16.86 4.80648 16.5024 5.25043 16.5022C6.00025 16.5025 6.75006 16.502 7.49988 16.5015ZM5.62473 16.875C5.4176 16.875 5.2497 17.0429 5.2497 17.25C5.2497 17.4571 5.4176 17.625 5.62473 17.625C5.83185 17.625 5.99976 17.4571 5.99976 17.25C5.99976 17.0429 5.83185 16.875 5.62473 16.875ZM7.12485 16.875C6.91773 16.875 6.74982 17.0429 6.74982 17.25C6.74982 17.4571 6.91773 17.625 7.12485 17.625C7.33197 17.625 7.49988 17.4571 7.49988 17.25C7.49988 17.0429 7.33197 16.875 7.12485 16.875ZM15.1045 19.2862L16.8639 20.5423L13.3421 22.0525L15.1045 19.2862ZM0.750066 20.2493H12.001V22.5H0.750066V20.2493Z" fill="#3E3E3E"/>
</svg>
