<svg width="22" height="22" viewBox="0 0 22 22" fill="none" xmlns="http://www.w3.org/2000/svg">
<path fill-rule="evenodd" clip-rule="evenodd" d="M21.7498 1V2.913C21.7498 4.127 21.2678 5.291 20.4088 6.15C19.5508 7.008 18.3868 7.49 17.1728 7.49H15.2598C14.8458 7.49 14.5098 7.154 14.5098 6.74V4.827C14.5098 3.613 14.9918 2.449 15.8498 1.591C16.7088 0.732 17.8728 0.25 19.0868 0.25H20.9998C21.4138 0.25 21.7498 0.586 21.7498 1ZM20.2498 1.75H19.0868C18.2708 1.75 17.4878 2.074 16.9108 2.651C16.3338 3.228 16.0098 4.011 16.0098 4.827V5.99H17.1728C17.9888 5.99 18.7718 5.666 19.3488 5.089C19.9258 4.512 20.2498 3.729 20.2498 2.913V1.75Z" fill="#3E3E3E"/>
<path fill-rule="evenodd" clip-rule="evenodd" d="M21.1927 9.98593L19.8397 11.3389C18.9817 12.1979 17.8177 12.6799 16.6037 12.6799C15.3897 12.6799 14.2257 12.1979 13.3677 11.3389L12.0147 9.98593C11.7217 9.69293 11.7217 9.21893 12.0147 8.92593L13.3677 7.57293C14.2257 6.71393 15.3897 6.23193 16.6037 6.23193C17.8177 6.23193 18.9817 6.71393 19.8397 7.57293L21.1927 8.92593C21.4857 9.21893 21.4857 9.69293 21.1927 9.98593ZM19.6017 9.45593L18.7787 8.63293C18.2017 8.05593 17.4197 7.73193 16.6037 7.73193C15.7877 7.73193 15.0047 8.05593 14.4277 8.63293L13.6057 9.45593L14.4277 10.2789C15.0047 10.8559 15.7877 11.1799 16.6037 11.1799C17.4197 11.1799 18.2017 10.8559 18.7787 10.2789L19.6017 9.45593Z" fill="#3E3E3E"/>
<path fill-rule="evenodd" clip-rule="evenodd" d="M17.1321 14.045L15.7791 15.398C14.9211 16.257 13.7571 16.739 12.5431 16.739C11.3291 16.739 10.1651 16.257 9.30712 15.398L7.95413 14.045C7.66113 13.752 7.66113 13.277 7.95413 12.985L9.30712 11.632C10.1651 10.773 11.3291 10.291 12.5431 10.291C13.7571 10.291 14.9211 10.773 15.7791 11.632L17.1321 12.985C17.4251 13.277 17.4251 13.752 17.1321 14.045ZM15.5411 13.515L14.7191 12.692C14.1421 12.115 13.3591 11.791 12.5431 11.791C11.7271 11.791 10.9441 12.115 10.3671 12.692L9.54512 13.515L10.3671 14.338C10.9441 14.915 11.7271 15.239 12.5431 15.239C13.3591 15.239 14.1421 14.915 14.7191 14.338L15.5411 13.515Z" fill="#3E3E3E"/>
<path fill-rule="evenodd" clip-rule="evenodd" d="M13.0735 18.1041L11.7205 19.4571C10.8625 20.3151 9.69853 20.7981 8.48453 20.7981C7.27053 20.7981 6.10653 20.3151 5.24853 19.4571L3.89553 18.1041C3.60253 17.8111 3.60253 17.3361 3.89553 17.0431L5.24853 15.6911C6.10653 14.8321 7.27053 14.3501 8.48453 14.3501C9.69853 14.3501 10.8625 14.8321 11.7205 15.6911L13.0735 17.0431C13.3665 17.3361 13.3665 17.8111 13.0735 18.1041ZM11.4825 17.5741L10.6605 16.7511C10.0835 16.1741 9.30053 15.8501 8.48453 15.8501C7.66853 15.8501 6.88553 16.1741 6.30853 16.7511L5.48653 17.5741L6.30853 18.3961C6.88553 18.9731 7.66853 19.2981 8.48453 19.2981C9.30053 19.2981 10.0835 18.9731 10.6605 18.3961L11.4825 17.5741Z" fill="#3E3E3E"/>
<path fill-rule="evenodd" clip-rule="evenodd" d="M13.0743 0.807885L14.4273 2.16088C15.2863 3.01888 15.7683 4.18288 15.7683 5.39688C15.7683 6.61088 15.2863 7.77488 14.4273 8.63288L13.0743 9.98588C12.7813 10.2789 12.3073 10.2789 12.0143 9.98588L10.6613 8.63288C9.80231 7.77488 9.32031 6.61088 9.32031 5.39688C9.32031 4.18288 9.80231 3.01888 10.6613 2.16088L12.0143 0.807885C12.3073 0.514885 12.7813 0.514885 13.0743 0.807885ZM12.5443 2.39888L11.7213 3.22188C11.1443 3.79888 10.8203 4.58088 10.8203 5.39688C10.8203 6.21288 11.1443 6.99588 11.7213 7.57288L12.5443 8.39489L13.3673 7.57288C13.9443 6.99588 14.2683 6.21288 14.2683 5.39688C14.2683 4.58088 13.9443 3.79888 13.3673 3.22188L12.5443 2.39888Z" fill="#3E3E3E"/>
<path fill-rule="evenodd" clip-rule="evenodd" d="M9.01572 4.86697L10.3687 6.21997C11.2277 7.07797 11.7097 8.24197 11.7097 9.45597C11.7097 10.67 11.2277 11.834 10.3687 12.692L9.01572 14.045C8.72372 14.338 8.24872 14.338 7.95572 14.045L6.60272 12.692C5.74372 11.834 5.26172 10.67 5.26172 9.45597C5.26172 8.24197 5.74372 7.07797 6.60272 6.21997L7.95572 4.86697C8.24872 4.57397 8.72372 4.57397 9.01572 4.86697ZM8.48572 6.45797L7.66272 7.27997C7.08572 7.85697 6.76172 8.63997 6.76172 9.45597C6.76172 10.272 7.08572 11.055 7.66272 11.632L8.48572 12.454L9.30872 11.632C9.88572 11.055 10.2097 10.272 10.2097 9.45597C10.2097 8.63997 9.88572 7.85697 9.30872 7.27997L8.48572 6.45797Z" fill="#3E3E3E"/>
<path fill-rule="evenodd" clip-rule="evenodd" d="M4.95617 8.92605L6.30817 10.279C7.16717 11.137 7.64917 12.301 7.64917 13.515C7.64917 14.729 7.16717 15.893 6.30817 16.751L4.95617 18.104C4.66317 18.397 4.18817 18.397 3.89517 18.104L2.54217 16.751C1.68417 15.893 1.20117 14.729 1.20117 13.515C1.20117 12.301 1.68417 11.137 2.54217 10.279L3.89517 8.92605C4.18817 8.63305 4.66317 8.63305 4.95617 8.92605ZM4.42517 10.517L3.60317 11.339C3.02617 11.916 2.70117 12.699 2.70117 13.515C2.70117 14.331 3.02617 15.114 3.60317 15.691L4.42517 16.513L5.24817 15.691C5.82517 15.114 6.14917 14.331 6.14917 13.515C6.14917 12.699 5.82517 11.916 5.24817 11.339L4.42517 10.517Z" fill="#3E3E3E"/>
<path fill-rule="evenodd" clip-rule="evenodd" d="M1.52975 21.5299C1.23775 21.8229 0.76175 21.8229 0.46975 21.5299C0.17675 21.2379 0.17675 20.7619 0.46975 20.4699L12.3518 8.58692C12.6448 8.29492 13.1198 8.29492 13.4128 8.58692C13.7048 8.87992 13.7048 9.35492 13.4128 9.64792L1.52975 21.5299Z" fill="#3E3E3E"/>
</svg>
