<svg width="24" height="22" viewBox="0 0 24 22" fill="none" xmlns="http://www.w3.org/2000/svg">
<path d="M23.0149 10.7962C22.9284 10.7627 21.5023 10.2227 19.8398 10.249C19.9204 10.1842 19.9994 10.1181 20.0764 10.0504C21.3114 8.96465 22.2423 7.33996 22.7686 5.3519C23.1631 3.86198 23.1947 2.70182 23.1959 2.65317C23.2005 2.45788 23.0544 2.29176 22.8601 2.27132C22.8117 2.26621 21.6571 2.14898 20.1289 2.34942C18.0898 2.61674 16.3592 3.33196 15.1243 4.41773C14.2436 5.19192 13.5292 6.2151 12.9955 7.46484C12.5775 6.02493 11.806 4.30879 10.3851 3.05957C9.15015 1.97381 7.41957 1.25859 5.38051 0.991259C3.85234 0.790915 2.69771 0.908056 2.64924 0.913165C2.45494 0.933603 2.30888 1.09968 2.31352 1.29501C2.31469 1.34367 2.34634 2.50382 2.74079 3.99374C3.2671 5.98181 4.19804 7.60649 5.43301 8.69221C5.49844 8.74977 5.56571 8.80612 5.63405 8.86167C3.62809 7.84401 1.19434 8.17612 1.07588 8.19309C0.898554 8.21859 0.763976 8.36596 0.754695 8.54488C0.75282 8.58135 0.71082 9.45074 0.91857 10.555C1.1978 12.0393 1.8024 13.2412 2.66696 14.0308C3.09493 14.4215 3.61107 14.737 4.20685 14.9748C3.47748 15.5227 3.00469 16.3946 3.00469 17.375C3.00469 19.0292 4.35048 20.375 6.00469 20.375C7.65891 20.375 9.00469 19.0292 9.00469 17.375C9.00469 17.2417 8.99504 17.1105 8.97812 16.9817C9.11143 16.9936 9.24549 17 9.37969 17C9.37969 19.4813 11.3984 21.5 13.8797 21.5C16.361 21.5 18.3797 19.4813 18.3797 17C18.3797 16.9039 18.3763 16.8085 18.3703 16.7139C19.0328 16.6192 19.6318 16.4228 20.1545 16.1279C22.5999 14.7483 23.2237 11.3549 23.249 11.2111C23.2801 11.0346 23.182 10.8608 23.0149 10.7962ZM9.77377 8.01463L9.77701 8.01749C9.77274 8.01712 9.76848 8.01702 9.76421 8.01665L9.77377 8.01463ZM13.5047 8.75001C14.2017 8.75001 14.8544 8.94173 15.4141 9.27435C15.4201 9.27857 15.4263 9.28246 15.4326 9.28635C15.4362 9.28856 15.4397 9.29076 15.4434 9.29282C15.4491 9.2961 15.455 9.2992 15.4609 9.3022C16.536 9.96229 17.2547 11.1487 17.2547 12.5001C17.2547 12.9209 17.1863 13.33 17.0516 13.7207C17.0267 13.7251 17.0027 13.732 16.9797 13.7411C16.172 12.9724 15.08 12.5 13.8797 12.5C13.8797 11.5682 13.5974 10.6741 13.0631 9.91443C12.8152 9.56184 12.5215 9.25063 12.1914 8.98617C12.609 8.82942 13.049 8.75001 13.5047 8.75001ZM15.6195 4.98102C17.8866 2.98785 21.3138 2.94951 22.4227 2.99484C22.3269 4.09968 21.8527 7.4901 19.5811 9.48721C19.0314 9.97045 18.3731 10.3736 17.6229 10.687C17.4536 10.304 17.2326 9.94884 16.9685 9.63056L17.3874 9.71817C17.4133 9.72356 17.4391 9.72618 17.4646 9.72618C17.6384 9.72618 17.7943 9.60468 17.8313 9.42787C17.8736 9.22513 17.7436 9.02643 17.541 8.98401L16.4398 8.75381L17.1439 8.13482L18.7956 8.48015C18.8215 8.48554 18.8474 8.48817 18.8728 8.48817C19.0466 8.48817 19.2025 8.36667 19.2395 8.18985C19.2819 7.98712 19.1519 7.78842 18.9492 7.74599L17.8481 7.51579L18.5522 6.89681L20.2038 7.24213C20.2298 7.24752 20.2556 7.25015 20.281 7.25015C20.4548 7.25015 20.6107 7.12865 20.6477 6.95184C20.6901 6.7491 20.5601 6.5504 20.3574 6.50798L19.2564 6.27778L20.3829 5.28735C20.5384 5.15062 20.5537 4.91367 20.417 4.75809C20.2801 4.60251 20.0432 4.58737 19.8877 4.72401L18.761 5.71452L18.6737 4.59285C18.6576 4.38642 18.4786 4.23201 18.2707 4.24813C18.0643 4.26421 17.9099 4.44459 17.926 4.65112L18.0569 6.3336L17.3528 6.95259L17.2655 5.83092C17.2494 5.62448 17.0701 5.47026 16.8625 5.4862C16.6561 5.50227 16.5017 5.68265 16.5178 5.88918L16.6487 7.57162L15.9446 8.1906L15.8573 7.06888C15.8412 6.86245 15.6617 6.70799 15.4543 6.72417C15.2478 6.74024 15.0935 6.92062 15.1096 7.12715L15.2034 8.33334C14.7027 8.12845 14.1571 8.01131 13.5859 8.00113C14.0854 6.74428 14.7686 5.7291 15.6195 4.98102ZM3.08715 1.63668C4.19715 1.59149 7.62338 1.63021 9.88993 3.62287C11.3332 4.89173 12.0477 6.72013 12.3999 8.13632C12.0761 8.21807 11.7617 8.33615 11.459 8.49093C11.4574 8.49173 11.456 8.49276 11.4544 8.4936L10.269 7.45138L10.3999 5.76899C10.416 5.56251 10.2616 5.38209 10.0552 5.36601C9.84826 5.34946 9.66826 5.50424 9.65218 5.71073L9.56485 6.83235L8.86074 6.21337L8.99166 4.53093C9.00774 4.32445 8.85338 4.14402 8.64694 4.12795C8.44037 4.11149 8.25999 4.26618 8.24396 4.47267L8.15663 5.59429L7.45252 4.97531L7.58345 3.29287C7.59952 3.08638 7.44516 2.90596 7.23873 2.88988C7.03149 2.87352 6.85182 3.02812 6.83574 3.2346L6.74841 4.35623L5.62196 3.36595C5.46648 3.22921 5.22948 3.24435 5.09274 3.39998C4.95596 3.55551 4.9712 3.79246 5.12677 3.9292L6.25332 4.91962L5.15218 5.14982C4.94945 5.1922 4.81946 5.39095 4.86184 5.59363C4.89882 5.77049 5.05473 5.89199 5.22854 5.89199C5.25395 5.89199 5.27977 5.88937 5.30565 5.88398L6.95748 5.53865L7.66154 6.15763L6.56035 6.38784C6.35762 6.43021 6.22763 6.62896 6.27001 6.83165C6.30699 7.00851 6.4629 7.13001 6.63671 7.13001C6.66212 7.13001 6.68795 7.12738 6.71382 7.12199L8.36565 6.77667L9.06971 7.39565L7.96852 7.6259C7.76584 7.66827 7.6358 7.86703 7.67823 8.06976C7.69641 8.15667 7.74343 8.23012 7.80709 8.28248C7.46457 8.41035 7.13752 8.58121 6.83129 8.79229C6.50584 8.5927 6.20246 8.37018 5.92834 8.12915C3.66141 6.13607 3.18404 2.74227 3.08715 1.63668ZM3.17274 13.477C1.7018 12.1338 1.51838 9.76181 1.50207 8.90423C1.82059 8.88074 2.34929 8.86087 2.9612 8.91496C3.76651 8.98602 4.87046 9.20203 5.77177 9.81168C5.5118 10.1598 5.30593 10.542 5.15729 10.9455L5.22563 10.4992C5.25694 10.2945 5.11641 10.1031 4.91171 10.0717C4.70691 10.0404 4.51562 10.181 4.48426 10.3857L4.38568 11.0296L3.72418 10.4256C3.57123 10.2861 3.33404 10.2968 3.1944 10.4498C3.05476 10.6027 3.06554 10.8399 3.21854 10.9796L3.88004 11.5835L3.24774 11.7401C3.04669 11.7899 2.92412 11.9932 2.9739 12.1942C3.01623 12.365 3.16927 12.4792 3.33765 12.4792C3.36751 12.4792 3.39784 12.4755 3.42812 12.4681L4.54576 12.1912L4.77657 12.4019C4.80812 12.4307 4.84332 12.4527 4.8804 12.4687C4.88035 12.4792 4.87969 12.4895 4.87969 12.5C4.87969 12.6468 4.88757 12.7927 4.90154 12.9376L4.63252 13.0043C4.43148 13.0541 4.3089 13.2575 4.35868 13.4585C4.40101 13.6292 4.55405 13.7434 4.72243 13.7434C4.75229 13.7434 4.78262 13.7398 4.8129 13.7323L5.03616 13.677C5.06349 13.7779 5.09349 13.8781 5.12794 13.9771C5.12907 13.9806 5.13029 13.9841 5.13151 13.9877C5.18724 14.1466 5.25226 14.3021 5.32538 14.4535C5.26754 14.467 5.21026 14.4819 5.15373 14.4987C4.34855 14.2853 3.68218 13.9422 3.17274 13.477ZM4.50469 18.875C4.50469 18.6682 4.67293 18.5 4.87969 18.5C5.08646 18.5 5.25469 18.6682 5.25469 18.875C5.25469 19.0818 5.08646 19.25 4.87969 19.25C4.80507 19.25 4.73565 19.2278 4.67715 19.1901C4.66229 19.1792 4.64766 19.168 4.63313 19.1568C4.55462 19.088 4.50469 18.9873 4.50469 18.875ZM6.00469 19.625C5.9124 19.625 5.82155 19.6188 5.73212 19.6079C5.90176 19.4108 6.00469 19.1548 6.00469 18.875C6.00469 18.2547 5.49999 17.75 4.87969 17.75C4.48543 17.75 4.13813 17.9541 3.93718 18.2619C3.81994 17.9896 3.75469 17.6898 3.75469 17.375C3.75469 16.1343 4.76401 15.125 6.00469 15.125C7.24538 15.125 8.25469 16.1343 8.25469 17.375C8.25469 18.6157 7.24538 19.625 6.00469 19.625ZM9.37969 16.25C9.17302 16.25 8.96687 16.233 8.76455 16.1995C8.32243 15.1654 7.31551 14.4286 6.13379 14.3782C6.01759 14.1782 5.91976 13.9672 5.84241 13.7486C5.84143 13.7454 5.8403 13.7422 5.83923 13.7391C5.70019 13.3424 5.62969 12.9256 5.62969 12.5C5.62969 11.574 5.97034 10.685 6.58979 9.99553C6.76594 9.79785 6.96577 9.61781 7.18379 9.46035C7.18585 9.45885 7.18787 9.4574 7.18988 9.45581C7.83024 8.99409 8.58732 8.75001 9.37969 8.75001C9.83673 8.75001 10.2831 8.83138 10.7064 8.99188C10.7099 8.9932 10.7134 8.99451 10.717 8.99568C12.1606 9.54646 13.1297 10.9534 13.1297 12.5C13.1297 12.5212 13.1286 12.542 13.1282 12.5631C11.2479 12.8806 9.76027 14.3682 9.44284 16.2485C9.42169 16.2489 9.40093 16.25 9.37969 16.25ZM13.8797 20.75C11.8119 20.75 10.1297 19.0678 10.1297 17C10.1297 14.9323 11.8119 13.25 13.8797 13.25C15.9474 13.25 17.6297 14.9323 17.6297 17C17.6297 19.0678 15.9474 20.75 13.8797 20.75ZM19.786 15.4747C19.3441 15.724 18.8321 15.8906 18.2611 15.9719C18.2082 15.7465 18.1381 15.5276 18.0527 15.3165L18.1306 15.356C18.1849 15.3835 18.2428 15.3965 18.2997 15.3965C18.4366 15.3965 18.5685 15.3213 18.6346 15.1908C18.7281 15.006 18.6542 14.7804 18.4694 14.6868L17.8885 14.3924L18.7366 13.9139L19.7635 14.4345C19.8179 14.4621 19.8758 14.4751 19.9328 14.4751C20.0696 14.4751 20.2014 14.3999 20.2676 14.2695C20.3612 14.0848 20.2874 13.8592 20.1026 13.7655L19.5217 13.471L20.3017 13.031C20.4821 12.9292 20.5458 12.7004 20.4441 12.5201C20.3423 12.3397 20.1136 12.2761 19.9332 12.3778L19.1531 12.8179L19.2015 12.1682C19.2168 11.9617 19.0619 11.7818 18.8553 11.7665C18.6489 11.7502 18.4689 11.906 18.4536 12.1126L18.3681 13.2608L17.8856 13.5329C17.9646 13.1971 18.0047 12.852 18.0047 12.5C18.0047 12.1229 17.9579 11.7564 17.87 11.4061C18.9459 10.9185 20.1845 10.9582 21.0433 11.0805C21.6395 11.1654 22.1397 11.3006 22.4401 11.3935C22.2317 12.2259 21.5206 14.496 19.786 15.4747Z" fill="#3E3E3E"/>
<path d="M12.3789 16.4951C11.5518 16.4951 10.8789 17.168 10.8789 17.9951C10.8789 18.8222 11.5518 19.4951 12.3789 19.4951C13.206 19.4951 13.8789 18.8222 13.8789 17.9951C13.8789 17.168 13.206 16.4951 12.3789 16.4951ZM12.3789 18.7451C11.9654 18.7451 11.6289 18.4086 11.6289 17.9951C11.6289 17.5816 11.9654 17.2451 12.3789 17.2451C12.7924 17.2451 13.1289 17.5816 13.1289 17.9951C13.1289 18.4086 12.7924 18.7451 12.3789 18.7451Z" fill="#3E3E3E"/>
<path d="M11.253 12.125C11.6323 12.125 11.9253 11.988 12.0883 11.7308C12.2755 11.4353 12.2461 11.0527 12.0054 10.6534C11.8125 10.3332 11.4932 10.0219 11.1066 9.77692C10.7199 9.5319 10.3022 9.37618 9.9302 9.33845C9.46637 9.29134 9.10778 9.42817 8.92061 9.72362C8.73339 10.0191 8.76282 10.4017 9.00348 10.801C9.19642 11.1212 9.51568 11.4325 9.90231 11.6775C10.289 11.9225 10.7067 12.0782 11.0787 12.1159C11.1386 12.122 11.1968 12.125 11.253 12.125ZM9.6459 10.4139C9.53528 10.2303 9.54728 10.136 9.55422 10.1251C9.55998 10.116 9.6159 10.0793 9.75625 10.0793C9.78531 10.0793 9.81798 10.0809 9.85459 10.0846C10.1092 10.1104 10.4192 10.2292 10.7052 10.4104C10.9912 10.5916 11.231 10.8212 11.3631 11.0404C11.4737 11.224 11.4617 11.3183 11.4548 11.3293C11.4478 11.3402 11.3677 11.3912 11.1544 11.3697C10.8999 11.3439 10.5898 11.2251 10.3038 11.0439C10.0179 10.8626 9.77795 10.6331 9.6459 10.4139Z" fill="#3E3E3E"/>
</svg>
