<svg width="24" height="24" viewBox="0 0 24 24" fill="none" xmlns="http://www.w3.org/2000/svg">
<path d="M3.97871 22.5801H10.2925C10.8329 23.0747 11.5424 23.3431 12.2749 23.3301C13.8754 23.2818 21.0683 24.1366 22.2522 22.393C24.0112 21.2405 22.2215 10.7309 22.4611 9.01892C22.5494 7.01691 16.6678 8.29847 15.6811 7.95507C15.3552 6.39046 16.3771 2.8059 13.5471 3.45507C13.3139 -0.391972 8.45265 -0.322713 8.12118 3.45507C7.35018 3.4592 6.07015 3.25739 6.00059 4.35348L5.65994 10.5801C4.82002 10.8057 1.40691 9.91776 1.41805 11.4782C1.75009 14.1554 -0.972095 22.6865 3.97871 22.5801ZM21.3373 8.70507C21.4332 8.70505 21.5255 8.74182 21.5952 8.80779C21.6649 8.87377 21.7066 8.96395 21.7117 9.05975C21.3405 10.5427 22.7902 16.7245 22.212 20.1941C21.9611 19.9797 21.6934 19.7859 21.4115 19.6143C21.3607 19.5863 21.3021 19.5755 21.2445 19.5836C21.187 19.5917 21.1337 19.6183 21.0926 19.6594C21.0516 19.7005 21.025 19.7538 21.0168 19.8113C21.0087 19.8688 21.0195 19.9274 21.0476 19.9783C21.316 20.3529 21.6594 20.6675 22.056 20.9022C22.0188 21.0292 21.9783 21.1518 21.9327 21.2669C21.4314 20.8729 20.935 20.4737 20.4638 20.0438C20.362 19.9635 20.2435 19.8216 20.1038 19.838C19.3073 20.0212 21.396 21.6089 21.6901 21.7408C21.6328 21.833 21.5686 21.9208 21.4981 22.0033C21.1969 21.7116 20.8584 21.4611 20.4915 21.2583C20.4655 21.2511 20.4379 21.252 20.4123 21.2607C20.3868 21.2694 20.3645 21.2856 20.3482 21.3072C20.2728 21.4173 20.3787 21.5428 20.4416 21.6344C20.6517 21.8757 20.8375 22.1486 21.0687 22.3692C20.7327 22.5685 20.3453 22.664 19.9551 22.6435C19.2792 22.5627 9.66994 24.2216 10.0281 20.2074L10.6369 9.05958C10.6422 8.96384 10.6839 8.87373 10.7535 8.80779C10.8231 8.74186 10.9153 8.7051 11.0112 8.70509L21.3373 8.70507ZM8.96872 2.76786C9.70437 0.143315 12.9029 0.837443 12.8825 3.45507H8.84296C8.86374 3.22263 8.90584 2.99259 8.96872 2.76786ZM6.45739 9.73377C6.677 9.50369 6.91866 9.29572 7.17889 9.11284C7.19934 9.09132 7.21226 9.06374 7.21571 9.03425C7.21916 9.00476 7.21295 8.97495 7.19801 8.94929C7.18307 8.92363 7.16021 8.90351 7.13286 8.89194C7.10551 8.88038 7.07515 8.87801 7.04634 8.88517C6.82473 8.97011 6.62971 9.11247 6.48126 9.29765L6.74928 4.39698C6.7459 4.06126 7.52073 4.25261 7.69887 4.20509H8.08563C8.09131 4.45566 8.11317 4.7056 8.15109 4.95335C7.98959 5.00735 7.75363 5.12815 7.7998 5.33032C7.81276 5.37445 7.83948 5.41329 7.87608 5.44115C7.91267 5.46902 7.95722 5.48445 8.00321 5.4852C8.24761 5.50225 8.48109 5.40791 8.72538 5.40072C9.00823 5.42661 9.29167 5.35788 9.53125 5.20532C9.79753 4.79457 9.04735 4.7064 8.7835 4.78933C8.79376 4.59473 8.79787 4.39979 8.80252 4.20508H12.8755C12.8479 4.44834 12.8768 4.69468 12.9598 4.92498C12.7005 4.92926 12.2313 5.09197 12.522 5.34692C12.8641 5.44703 13.2218 5.48228 13.5769 5.45086C14.256 5.50265 14.2857 4.80998 13.5812 4.8784C13.6357 4.66746 13.5043 4.43361 13.5388 4.20508H13.6989C13.8798 4.25948 14.7367 4.05245 14.7343 4.39436L14.9299 7.95508C12.4794 8.26766 9.40764 6.65734 9.80278 10.5801H8.0274C8.19301 10.458 8.34915 10.3235 8.49448 10.1779C8.52885 10.1431 8.5494 10.097 8.5523 10.0482C8.55521 9.99933 8.54027 9.95111 8.51027 9.91247C8.48021 9.87405 8.43738 9.84767 8.38954 9.83811C8.3417 9.82856 8.29202 9.83647 8.24951 9.8604C7.87269 10.0389 7.53033 10.2826 7.23819 10.5801H6.6816C7.18976 10.2079 7.66468 9.79236 8.10103 9.33812C8.12809 9.3098 8.14422 9.2728 8.14655 9.2337C8.14887 9.1946 8.13724 9.15594 8.11374 9.12462C8.08975 9.09345 8.05528 9.07203 8.01672 9.06433C7.97815 9.05663 7.9381 9.06318 7.90399 9.08276C7.38342 9.47703 6.88875 9.90437 6.42303 10.3621L6.45739 9.73377ZM1.73182 19.4581C2.7839 9.55063 -0.582836 11.4747 9.76185 11.3301C9.85621 12.612 8.7942 20.8498 9.67851 21.8301C7.68909 21.4989 1.46508 23.1046 1.73182 19.4581Z" fill="#3E3E3E"/>
<path d="M12.4211 11.8253C12.567 11.8963 12.7315 11.8205 12.8845 11.8109C13.2171 17.8556 19.5203 17.2029 20.0432 11.652C20.1288 11.6575 20.2132 11.6292 20.2781 11.573C20.343 11.5169 20.3832 11.4374 20.39 11.3518C20.3968 11.2663 20.3696 11.1815 20.3144 11.1158C20.2591 11.0501 20.1802 11.0088 20.0947 11.0008C19.8702 10.9847 19.6445 11.0044 19.4261 11.0591C19.3893 11.0697 19.3555 11.0885 19.3271 11.1141C19.2987 11.1397 19.2765 11.1714 19.262 11.2068C19.2476 11.2422 19.2414 11.2804 19.2439 11.3186C19.2464 11.3567 19.2575 11.3938 19.2764 11.4271C19.3216 11.4789 19.3769 11.5211 19.4389 11.551C19.5009 11.5809 19.5683 11.598 19.6371 11.6012C19.516 12.4352 19.1417 13.2118 18.5649 13.8262C16.0599 16.8504 13.8212 14.9738 13.1998 11.7648C13.3134 11.7581 13.4248 11.7308 13.5286 11.6841C13.5763 11.6546 13.6132 11.6105 13.6338 11.5584C13.6544 11.5062 13.6576 11.4488 13.6429 11.3946C13.6283 11.3405 13.5965 11.2926 13.5524 11.2579C13.5083 11.2233 13.4541 11.2038 13.3981 11.2024C13.0895 11.2399 12.7833 11.295 12.481 11.3674C12.434 11.3812 12.3921 11.4084 12.3604 11.4456C12.3286 11.4827 12.3083 11.5284 12.3019 11.5769C12.2956 11.6254 12.3035 11.6747 12.3246 11.7188C12.3458 11.7629 12.3793 11.7999 12.4211 11.8253Z" fill="#3E3E3E"/>
<path d="M3.6847 13.7462C3.76506 13.7709 3.84832 13.7849 3.93233 13.788C3.69828 14.2551 4.08568 15.0105 4.31402 15.391C4.67098 16.0761 5.42016 16.321 6.14364 16.3698C7.64852 16.7547 8.79629 15.2618 8.60198 13.8498C8.74887 13.7967 8.96718 13.6996 8.94135 13.5101C8.936 13.4675 8.91822 13.4275 8.89022 13.395C8.86223 13.3625 8.82527 13.339 8.78397 13.3274C8.49569 13.2745 8.19916 13.2875 7.91665 13.3656C7.1233 13.4778 7.54742 13.8652 8.08856 13.8683C8.04895 14.3849 7.91556 14.8899 7.69493 15.3587C7.5465 15.5873 7.3307 15.7642 7.07737 15.8648C6.82404 15.9655 6.54569 15.9849 6.28082 15.9205C5.75864 15.8797 5.27116 15.6431 4.916 15.2581C4.56084 14.8731 4.36421 14.3682 4.36549 13.8444C4.50413 13.8638 4.6454 13.8481 4.77643 13.7988C4.82129 13.785 4.86124 13.7586 4.89152 13.7228C4.92179 13.6869 4.94112 13.6431 4.94721 13.5965C4.95329 13.55 4.94587 13.5027 4.92582 13.4602C4.90578 13.4178 4.87396 13.382 4.83415 13.3571C4.64688 13.2668 4.44129 13.2209 4.23338 13.223C4.02547 13.2251 3.82085 13.2752 3.63545 13.3693C3.60145 13.3905 3.57427 13.421 3.55715 13.4572C3.54002 13.4935 3.53368 13.5338 3.53887 13.5736C3.54406 13.6133 3.56057 13.6507 3.58643 13.6813C3.61229 13.7119 3.6464 13.7344 3.6847 13.7462Z" fill="#3E3E3E"/>
<path d="M3.09286 20.305C3.34532 20.4965 3.82899 20.737 4.09983 20.4633C4.33011 20.1705 3.97694 19.9792 3.71799 19.9401C2.88126 19.6539 2.81489 18.4768 3.01374 17.7492C3.02342 17.7133 3.02108 17.6752 3.00706 17.6407C2.99305 17.6063 2.96814 17.5774 2.93614 17.5584C2.55891 17.3655 2.45926 18.091 2.41794 18.3161C2.339 18.6777 2.36013 19.0539 2.47905 19.4044C2.59797 19.7548 2.81019 20.0662 3.09286 20.305Z" fill="#3E3E3E"/>
<path d="M4.7353 20.5555C4.79669 20.6145 4.87876 20.6471 4.96391 20.6463C5.04905 20.6454 5.13047 20.6112 5.19068 20.551C5.25088 20.4908 5.28508 20.4094 5.28592 20.3242C5.28676 20.2391 5.25417 20.157 5.19517 20.0956C5.13378 20.0366 5.0517 20.0041 4.96656 20.0049C4.88141 20.0057 4.8 20.0399 4.73979 20.1002C4.67958 20.1604 4.64539 20.2418 4.64455 20.3269C4.64371 20.4121 4.67629 20.4941 4.7353 20.5555Z" fill="#3E3E3E"/>
<path d="M21.859 19.9202L21.8784 19.9352C21.8659 19.9234 21.8477 19.9109 21.859 19.9202Z" fill="#3E3E3E"/>
<path d="M11.017 20.2798C11.1172 20.6016 11.3359 20.8734 11.6289 21.04C11.7986 21.1288 11.9863 21.1778 12.1778 21.1832C12.3693 21.1887 12.5595 21.1505 12.734 21.0716C12.7708 21.0496 12.8012 21.0185 12.8224 20.9813C12.8435 20.944 12.8546 20.9019 12.8546 20.8591C12.8546 20.8163 12.8435 20.7742 12.8224 20.7369C12.8012 20.6997 12.7708 20.6685 12.734 20.6466C12.4687 20.5157 12.1699 20.5675 11.8972 20.4617C11.3779 20.237 11.3573 19.5716 11.3493 19.084C11.3447 18.7386 11.3622 18.3933 11.4016 18.0502C11.4174 17.9111 11.1932 17.8853 11.1599 18.0175C11.0054 18.7501 10.8 19.5412 11.017 20.2798Z" fill="#3E3E3E"/>
<path d="M13.4714 21.3289C13.545 21.4007 13.644 21.4406 13.7469 21.4399C13.8497 21.4393 13.9482 21.3981 14.0209 21.3254C14.0937 21.2526 14.1348 21.1542 14.1355 21.0513C14.1361 20.9485 14.0963 20.8495 14.0245 20.7758C13.9508 20.704 13.8518 20.6641 13.749 20.6648C13.6461 20.6655 13.5477 20.7066 13.4749 20.7794C13.4022 20.8521 13.361 20.9506 13.3604 21.0534C13.3597 21.1563 13.3996 21.2553 13.4714 21.3289Z" fill="#3E3E3E"/>
</svg>
