<svg width="18" height="20" viewBox="0 0 18 20" fill="none" xmlns="http://www.w3.org/2000/svg">
<path d="M3.83568 19.7693H14.1951C16.0132 19.7693 17.4923 18.2902 17.4923 16.4721V6.61544C17.4923 6.2939 17.2292 6.03083 16.9077 6.03083H13.4V5.1539C13.4 2.73652 11.4328 0.769287 9.01537 0.769287C6.59799 0.769287 4.63076 2.73652 4.63076 5.1539V6.03083H1.12307C0.801529 6.03083 0.538452 6.2939 0.538452 6.61544V16.4721C0.538452 18.2902 2.01753 19.7693 3.83568 19.7693ZM5.79999 5.1539C5.79999 3.37959 7.24107 1.93852 9.01537 1.93852C10.7897 1.93852 12.2308 3.37959 12.2308 5.1539V6.03083H5.79999V5.1539ZM1.70768 7.20006H4.63076V8.6616C4.63076 8.98313 4.89384 9.24621 5.21537 9.24621C5.53691 9.24621 5.79999 8.98313 5.79999 8.6616V7.20006H12.2308V8.6616C12.2308 8.98313 12.4938 9.24621 12.8154 9.24621C13.1369 9.24621 13.4 8.98313 13.4 8.6616V7.20006H16.3231V16.4721C16.3231 17.6442 15.3672 18.6001 14.1951 18.6001H3.83568C2.66353 18.6001 1.70768 17.6442 1.70768 16.4721V7.20006Z" fill="#3E3E3E"/>
</svg>
