<svg width="24" height="24" viewBox="0 0 24 24" fill="none" xmlns="http://www.w3.org/2000/svg">
<path d="M19.695 6.12327C19.6975 3.89718 19.8438 3.6839 17.4637 3.68681C16.935 3.67348 16.3904 3.67561 15.837 3.68807C15.7702 2.6614 15.5779 1.65082 14.927 0.821573C13.4517 -0.837116 10.6293 0.440734 10.4683 2.53217C10.3836 3.02033 10.3804 3.51571 10.3932 4.01196C9.99962 4.04089 9.61093 4.06881 9.23091 4.09392C8.86588 4.11922 8.123 4.15635 7.75719 4.17559C7.40112 4.23541 6.54279 4.03168 6.59126 4.64034C6.81859 7.85578 4.78178 12.9573 8.8952 14.413C10.0808 14.7204 11.3087 14.3878 12.4961 14.5496C14.6235 14.4706 17.4321 15.3094 19.0448 13.4562C19.5463 12.786 19.6321 11.9104 19.5598 11.106C19.6659 9.44773 19.7208 7.78511 19.695 6.12327ZM12.4377 1.18695C14.1969 0.619399 14.5854 2.27276 14.6002 3.73184C13.4886 3.7837 12.3592 3.86572 11.2592 3.94768C11.224 2.83192 11.3768 1.79357 12.4377 1.18695ZM10.7136 13.5819C5.69139 14.1758 7.46462 8.09358 7.43209 5.06689C8.42459 5.15137 9.4217 5.18123 10.4208 5.18491C10.4182 5.62246 10.3876 6.05682 10.2829 6.48341C10.0754 7.21194 11.2626 7.42526 11.3238 6.67197C11.3917 6.2096 11.3726 5.70118 11.3374 5.18167C12.4098 5.1712 13.4835 5.14066 14.5555 5.12437C14.4482 6.00747 14.1834 7.11921 15.2213 7.20622C16.1264 7.13429 15.8802 6.12705 15.8924 5.48263C15.8882 5.36091 15.8851 5.23789 15.8823 5.1141C16.6658 5.11531 17.4477 5.13198 18.2268 5.17784C18.3234 7.44809 18.293 9.83016 18.3204 12.0925C17.9668 14.6388 12.5959 13.1857 10.7136 13.5819Z" fill="#61B291"/>
<path d="M23.402 22.7033C18.2858 22.9317 12.5791 24.0437 8.27607 20.6068C5.79701 18.8164 3.78787 16.3926 1.46236 14.4197C0.770627 13.7954 1.3422 12.9166 2.07606 12.7309C2.85232 12.5258 3.56422 12.9891 4.20041 13.4455C6.1525 14.895 7.45923 17.1237 9.55441 18.4335C9.68804 18.5057 9.8177 18.5341 9.93801 18.5292C10.2557 18.6487 10.6154 18.7358 11.0136 18.7858C12.6568 19.0266 14.3403 18.8528 15.9603 18.6655C16.435 18.6224 16.4354 17.8779 15.9494 17.8454C14.2267 17.6593 12.4267 17.7488 10.7492 17.2841C9.40308 16.9203 9.64776 16.2459 10.2544 15.257C12.4434 14.3008 14.909 14.6242 17.2417 14.6922C18.6755 14.586 20.1912 14.5766 21.5361 15.1356C22.9143 15.6403 23.4326 17.0877 23.0758 18.4222C22.9749 18.9367 23.7881 19.0923 23.8818 18.5736C23.961 18.1796 24.0111 17.7723 23.9978 17.3512C23.9023 14.0242 19.8456 13.5186 17.2592 13.7027C15.3798 13.6083 10.1836 12.8268 9.01579 14.5741C8.74625 14.9583 8.55808 15.3308 8.44475 15.6851C8.36167 15.6034 8.27874 15.5218 8.19561 15.4411C6.5631 13.9229 4.25862 10.8931 1.72086 11.5958C0.0485976 12.1321 -0.641489 14.0179 0.731413 15.2667C1.90103 16.2177 3.14626 17.4239 4.24748 18.47C5.92967 20.047 7.70174 21.6106 9.77776 22.6484C12.9691 24.1778 16.6009 23.9893 20.035 23.8421C21.1518 23.7899 22.3339 23.7452 23.4476 23.7607C24.1244 23.7379 24.0945 22.6659 23.402 22.7033Z" fill="#61B291"/>
</svg>
