<svg width="160" height="160" viewBox="0 0 160 160" fill="none" xmlns="http://www.w3.org/2000/svg">
<rect x="2" y="2" width="156" height="156" rx="78" stroke="#B7D8A1" stroke-width="4"/>
<path d="M113.975 75.4143C110.939 74.5864 107.808 74.5972 104.681 74.4674C103.812 74.4313 102.945 74.3656 102.078 74.3115C105.591 70.3708 110.435 67.2636 112.223 62.0782C113.973 57.006 110.878 53.0284 106.183 51.1504C103.217 49.9643 100.155 50.5727 97.2741 52.2079C96.4994 51.8423 95.8211 52.4553 95.7579 53.1764C91.8226 55.9548 88.344 60.5026 86.1075 64.8067C86.3574 62.6525 86.6398 60.4976 86.9197 58.3185C87.4599 54.1117 88.7765 47.9458 86.5749 43.9452C83.6802 38.6851 71.6665 38.3557 69.8642 44.9624C68.5596 49.7448 70.6218 55.0207 70.92 59.8193C71.0905 62.5627 71.4032 65.3311 71.7875 68.1044C70.3861 66.2218 68.79 64.4632 67.505 63.0093C64.6718 59.8039 60.9548 57.3924 56.5634 57.5816C47.1667 57.9879 46.6768 69.0035 52.6252 74.0844C45.6409 75.4335 40.5022 79.1047 42.2621 87.092C42.3661 87.5636 42.8073 87.9953 43.2747 88.1046C44.2224 88.3267 45.1714 88.4897 46.12 88.6685C44.7073 97.9222 49.199 108.364 51.6043 117.027C51.994 118.429 53.4499 118.481 54.2787 117.754C70.9853 118.903 88.5353 121.905 105.057 118.224C106.036 118.006 106.356 117.233 106.241 116.488C111.521 107.874 112.201 97.733 114.39 88.0439C114.913 88.1025 115.435 88.1396 115.956 88.209C116.581 88.2922 117.28 87.6925 117.405 87.1062C118.259 83.1094 119.236 76.8491 113.975 75.4143ZM97.5822 55.7319C98.5408 56.7253 99.5018 57.7072 100.329 58.8608C100.868 59.613 101.33 60.409 101.755 61.2237C99.6832 59.7652 97.4271 58.59 95.0651 57.5982C95.8797 56.9004 96.7198 56.2737 97.5822 55.7319ZM94.1057 58.4549C97.7864 60.3824 101.165 62.7232 103.766 66.0339C104.537 67.0136 106.021 65.9436 105.743 64.8832C104.797 61.2636 102.852 57.2905 100.072 54.4494C101.4 53.9225 102.76 53.6197 104.136 53.6409C106.895 53.6829 109.88 56.5652 110.003 59.223C110.111 61.553 108.004 64.0394 106.643 65.7137C104.279 68.6188 101.611 71.136 99.3829 74.1402C98.6776 74.0861 97.9723 74.0262 97.267 73.968C97.3473 73.7725 97.3714 73.5434 97.2787 73.2752C96.5418 71.1431 95.4335 69.211 94.2587 67.2939C93.2187 65.5968 92.3175 63.4414 90.7173 62.2121C91.7682 60.8768 92.8985 59.5952 94.1057 58.4549ZM89.6219 63.6731C89.9696 65.188 91.057 66.5254 91.8883 67.8142C92.137 68.2001 92.3832 68.5872 92.629 68.9752C91.1506 67.941 89.5462 67.0989 87.756 66.493C88.3282 65.5515 88.9516 64.6075 89.6219 63.6731ZM85.5852 70.5143C86.0185 69.5836 86.5284 68.5997 87.0997 67.5958C87.1035 67.5971 87.1052 67.5996 87.1081 67.6008C90.2944 68.8592 93.049 71.0229 95.0659 73.7871C91.8609 73.5172 88.6559 73.2515 85.4401 73.1379C85.4667 72.2584 85.5278 71.3872 85.5852 70.5143ZM77.3246 44.0987C84.1052 41.5977 83.99 47.5969 84.0195 50.774C84.0752 56.7856 82.4667 62.7432 81.929 68.717C81.5264 73.1891 83.6328 83.8196 77.0718 82.9913C77.0344 81.0999 76.9229 79.2215 76.7749 77.3489C77.4976 77.1676 77.5201 75.9949 76.7424 75.7487C76.7083 75.7379 76.6684 75.7271 76.6335 75.7163C76.1132 70.0182 75.279 64.368 74.8665 58.6204C74.6502 55.6054 73.8676 52.5926 73.4867 49.5967C72.8745 47.0363 74.1537 45.204 77.3246 44.0987ZM72.6005 74.7095C70.0596 74.1913 67.0438 73.7671 63.9149 73.5654C64.5291 73.3168 65.1434 73.0685 65.7576 72.8198C67.0941 72.2792 68.5771 71.8292 69.8417 71.1007C70.6601 72.3703 71.5068 73.706 72.6005 74.7095ZM51.6363 64.0615C52.3986 60.8236 55.6676 60.2676 58.5699 60.8261C56.2274 63.1349 54.2163 65.8908 53.3467 69.0854C53.1446 69.8277 53.8965 70.7746 54.7087 70.4474C56.3492 69.7861 57.9345 69.0081 59.528 68.2429C61.1935 67.4432 63.1327 66.9567 64.5715 65.7948C65.1741 65.3082 64.6497 64.3613 63.974 64.3526C62.4295 64.3318 60.9919 65.1548 59.6046 65.7781C58.4377 66.3025 57.2853 66.8564 56.1276 67.3991C56.9693 65.1177 58.3387 63.0127 59.8861 61.1613C60.645 61.4037 61.3424 61.7123 61.9117 62.0575C64.6967 63.7454 66.8055 66.6859 68.6569 69.3424C67.4701 69.6951 66.3061 70.2739 65.1779 70.7197C64.4119 71.0229 63.6459 71.3256 62.8798 71.6288C63.6704 70.0461 64.8206 68.7631 66.2936 67.5181C66.9403 66.9712 66.0865 65.8684 65.3891 66.3458C62.8412 68.0903 60.618 70.1467 59.9177 73.2681C59.9044 73.3276 59.9052 73.39 59.9027 73.4519C57.8684 73.4623 55.846 73.5771 53.9335 73.8615C54.0263 73.6623 54.0412 73.422 53.8998 73.1646C52.3279 70.3026 50.8466 67.4149 51.6363 64.0615ZM52.9529 77.8438C59.36 76.3222 66.5319 76.6981 73.2438 77.1564C73.5927 79.1196 73.9512 81.0754 74.2993 83.0158C73.5058 83.7431 73.5245 85.325 74.8187 85.8785C74.889 86.1879 75.0748 86.3676 75.2919 86.4903C73.5312 86.6641 71.7758 86.8225 70.028 86.9523C63.0474 87.4713 56.0768 87.4205 49.1429 86.4063C39.8368 85.0448 48.9017 78.8061 52.9529 77.8438ZM104.866 114.948C104.647 114.902 104.408 114.891 104.15 114.939C87.6508 117.945 71.1899 113.909 54.6667 115.359C52.8764 106.421 48.9507 98.2029 48.208 89.0553C69.1322 92.3509 90.2349 86.1767 111.28 87.7378C109.124 96.8239 107.94 106.097 104.866 114.948ZM113.354 84.8597C103.021 83.4899 92.4527 84.6376 82.0051 85.78C84.3426 84.0858 85.139 80.3801 85.3286 76.4257C91.7894 76.6411 98.2173 77.3622 104.681 77.6217C107.139 77.7203 109.583 77.6438 112.027 78.0072C115.302 78.4946 116.391 85.2618 113.354 84.8597Z" fill="#B7D8A1"/>
<path d="M105.141 92.0249C103.325 93.6372 101.626 95.3696 99.9598 97.1362C99.8949 97.0784 99.8279 97.021 99.7631 96.9636C98.3201 95.6828 96.7914 94.5042 95.204 93.4101C95.2714 92.7847 94.6667 92.1139 94.0338 92.5738C94.023 92.5821 94.0122 92.5909 94.0014 92.5992C93.4579 92.2486 92.9118 91.9026 92.3546 91.5737C91.688 91.1803 91.1407 92.1654 91.757 92.5946C92.1475 92.8666 92.4993 93.1801 92.8786 93.4642C90.4441 95.3517 88.1357 97.4843 85.9242 99.7465C84.5045 98.4428 83.0473 97.1877 81.5527 95.9734C82.6809 94.8918 83.8008 93.8027 84.8854 92.6819C85.5487 91.9962 84.6982 90.8572 83.8615 91.3549C82.3711 92.2411 80.968 93.307 79.6028 94.4456C79.0913 94.0559 78.5872 93.6579 78.0637 93.2812C77.4291 92.8242 76.6231 93.8696 77.2274 94.3649C77.6399 94.7026 78.0366 95.0581 78.4417 95.4041C76.7425 96.9228 75.1236 98.5908 73.552 100.318C72.5902 99.3993 71.6175 98.4944 70.629 97.6078C71.202 96.9603 71.7572 96.2995 72.2878 95.6195C72.8846 94.8548 71.9219 93.8002 71.1925 94.5242C70.5504 95.1617 69.9054 95.7913 69.2629 96.4271C67.827 95.185 66.3652 93.9715 64.8332 92.8296C64.3591 92.4761 63.7503 93.27 64.2019 93.648C65.6075 94.8236 66.942 96.1061 68.2544 97.4223C66.8476 98.8125 65.4433 100.207 64.0306 101.589C62.5934 100.097 61.115 98.6557 59.5963 97.2759C60.3835 96.4745 61.189 95.6886 62.0411 94.933C62.5867 94.4497 61.8473 93.4729 61.256 93.9162C60.2683 94.6556 59.3963 95.4915 58.5642 96.3614C57.2293 95.1929 55.8715 94.0701 54.4692 93.0433C54.9737 92.6599 55.4839 92.279 55.9563 91.8365C56.3892 91.4302 55.8407 90.8368 55.3592 91.0626C54.7029 91.3703 54.0941 91.8523 53.541 92.4012C52.6864 91.8045 51.8294 91.2135 50.9486 90.6837C50.7194 90.5461 50.4483 90.8809 50.6587 91.0597C51.4322 91.7196 52.1704 92.4137 52.9085 93.1074C52.4473 93.6829 52.0414 94.2975 51.7674 94.9234C51.6177 95.2652 52.0731 95.5543 52.2781 95.222C52.6428 94.6306 53.1131 94.1732 53.6105 93.7465C54.9129 95.0028 56.1601 96.3124 57.3889 97.6389C56.3817 98.8241 55.4448 100.075 54.5237 101.36C54.1523 101.879 55.0144 102.545 55.4082 102.043C56.3372 100.859 57.3 99.727 58.3013 98.6316C59.6712 100.138 61.0227 101.661 62.3655 103.191C60.9462 104.567 59.5335 105.949 58.0909 107.307C56.7186 105.781 55.3982 104.219 54.0534 102.601C53.7856 102.279 53.3855 102.69 53.5227 103.011C54.9587 106.374 57.6813 109.656 60.6788 111.728C61.2527 112.124 61.8997 111.247 61.4124 110.777C60.5441 109.937 59.7265 109.082 58.9255 108.219C60.4397 106.984 61.97 105.734 63.4775 104.453C64.5616 105.683 65.6537 106.904 66.7644 108.106C65.7352 109.277 64.7047 110.418 63.663 111.493C63.3282 111.839 63.7748 112.472 64.1919 112.179C65.4728 111.277 66.668 110.275 67.8348 109.24C69.4658 110.96 71.1405 112.636 72.9241 114.203C73.7616 114.938 74.8566 113.829 74.1388 112.987C72.6621 111.257 71.1355 109.464 69.5702 107.667C71.0345 106.27 72.4492 104.816 73.8669 103.372C75.3352 104.979 76.8157 106.569 78.3302 108.11C77.5617 108.991 76.7986 109.867 76.0414 110.727C75.465 111.382 76.3441 112.264 76.9974 111.683C77.8537 110.922 78.7149 110.128 79.5749 109.347C81.6716 111.393 83.8566 113.311 86.2498 114.922C87.079 115.48 87.8949 114.278 87.2741 113.596C85.4173 111.556 83.3866 109.644 81.3394 107.748C83.0406 106.179 84.7249 104.567 86.3908 102.937C86.6191 103.17 86.8499 103.4 87.0774 103.634C88.2268 104.817 89.3604 106.122 90.5311 107.409C89.6731 108.305 88.8052 109.191 87.9107 110.051C87.1709 110.762 88.2667 111.827 89.0265 111.166C89.9439 110.367 90.8292 109.525 91.7258 108.697C93.3489 110.4 95.0701 111.985 97.0188 113.106C97.6946 113.495 98.6182 112.687 98.1362 111.988C98.083 111.911 98.0215 111.839 97.967 111.762C98.1288 111.794 98.298 111.76 98.4265 111.604C100.428 109.187 102.319 106.641 103.767 103.854C103.902 103.962 104.021 104.089 104.16 104.192C104.915 104.745 105.729 103.707 105.354 102.998C104.477 101.338 103.109 99.9532 101.686 98.6674C103.301 96.907 104.895 95.1313 106.453 93.3407C107.242 92.4349 106.042 91.2252 105.141 92.0249ZM68.3543 106.281C67.3475 105.143 66.3182 104.016 65.2715 102.897C66.7669 101.57 68.2087 100.189 69.5727 98.7447C70.5009 99.7116 71.4179 100.695 72.329 101.688C70.9829 103.211 69.663 104.76 68.3543 106.281ZM79.8544 106.368C78.6238 105.23 77.4 104.087 76.2198 102.917C75.9037 102.603 75.5831 102.299 75.2662 101.988C76.9442 100.332 78.6679 98.721 80.3787 97.0987C81.8189 98.4045 83.2249 99.7465 84.6014 101.12C82.9787 102.839 81.3997 104.606 79.8544 106.368ZM92.2219 105.618C90.9623 104.465 89.6939 103.336 88.5179 102.195C88.2875 101.972 88.0513 101.756 87.8193 101.534C90.0865 99.2699 92.2743 96.9532 94.3482 94.6032C95.7692 95.7618 97.1453 96.9711 98.4494 98.2773C98.5226 98.3505 98.5887 98.4316 98.6606 98.506C96.4974 100.858 94.3902 103.269 92.2219 105.618ZM102.507 102.747C100.672 105.358 99.2961 108.248 97.5441 110.919C97.5054 110.979 97.4858 111.04 97.4738 111.1C96.3456 109.632 95.0294 108.26 93.6433 106.942C95.9035 104.778 98.0992 102.534 100.241 100.246C100.979 101.098 101.714 101.956 102.507 102.747Z" fill="#B7D8A1"/>
</svg>
