<svg width="29" height="29" viewBox="0 0 29 29" fill="none" xmlns="http://www.w3.org/2000/svg">
<path fill-rule="evenodd" clip-rule="evenodd" d="M13.9154 24.1404H3.94036C3.87853 24.1404 3.81903 24.1148 3.77586 24.0716C3.73153 24.0273 3.70703 23.9689 3.70703 23.9071C3.70703 23.9059 3.70703 22.2154 3.70703 22.2154C3.70703 21.2459 4.39886 20.3919 5.4652 19.6663C7.3692 18.3666 10.4504 17.5476 13.9154 17.5476C14.3984 17.5476 14.7904 17.1556 14.7904 16.6726C14.7904 16.1908 14.3984 15.7976 13.9154 15.7976C10.0397 15.7976 6.60853 16.7671 4.4782 18.2196C2.85303 19.3279 1.95703 20.7361 1.95703 22.2143V23.9071C1.95703 24.4321 2.16586 24.9373 2.53803 25.3094C2.9102 25.6804 3.4142 25.8904 3.94036 25.8904H13.9154C14.3984 25.8893 14.7904 25.4973 14.7904 25.0143C14.7904 24.5324 14.3984 24.1393 13.9154 24.1404Z" fill="#61B291"/>
<path fill-rule="evenodd" clip-rule="evenodd" d="M13.9167 1.95825C10.3747 1.95825 7.5 4.83292 7.5 8.37492C7.5 11.9169 10.3747 14.7916 13.9167 14.7916C17.4587 14.7916 20.3333 11.9169 20.3333 8.37492C20.3333 4.83292 17.4587 1.95825 13.9167 1.95825ZM13.9167 3.70825C16.4927 3.70825 18.5833 5.79892 18.5833 8.37492C18.5833 10.9509 16.4927 13.0416 13.9167 13.0416C11.3407 13.0416 9.25 10.9509 9.25 8.37492C9.25 5.79892 11.3407 3.70825 13.9167 3.70825Z" fill="#61B291"/>
<path fill-rule="evenodd" clip-rule="evenodd" d="M20.0391 20.9165V23.8332C20.0391 24.3162 20.4311 24.7082 20.9141 24.7082C21.3971 24.7082 21.7891 24.3162 21.7891 23.8332V20.9165C21.7891 20.4335 21.3971 20.0415 20.9141 20.0415C20.4311 20.0415 20.0391 20.4335 20.0391 20.9165Z" fill="#61B291"/>
<path d="M20.9167 19.4583C21.561 19.4583 22.0833 18.936 22.0833 18.2917C22.0833 17.6473 21.561 17.125 20.9167 17.125C20.2723 17.125 19.75 17.6473 19.75 18.2917C19.75 18.936 20.2723 19.4583 20.9167 19.4583Z" fill="#61B291"/>
<path fill-rule="evenodd" clip-rule="evenodd" d="M20.9141 14.7915C17.5331 14.7915 14.7891 17.5355 14.7891 20.9165C14.7891 24.2975 17.5331 27.0415 20.9141 27.0415C24.2951 27.0415 27.0391 24.2975 27.0391 20.9165C27.0391 17.5355 24.2951 14.7915 20.9141 14.7915ZM20.9141 16.5415C23.3291 16.5415 25.2891 18.5015 25.2891 20.9165C25.2891 23.3315 23.3291 25.2915 20.9141 25.2915C18.4991 25.2915 16.5391 23.3315 16.5391 20.9165C16.5391 18.5015 18.4991 16.5415 20.9141 16.5415Z" fill="#61B291"/>
</svg>
