<svg width="20" height="20" viewBox="0 0 20 20" fill="none" xmlns="http://www.w3.org/2000/svg">
<g clip-path="url(#clip0_2118_8192)">
<path d="M11.675 7.88184C11.675 5.79676 9.97816 4.10039 7.89246 4.10039C5.80676 4.10039 4.11098 5.79672 4.11098 7.88184C4.11098 9.96695 5.80734 11.6644 7.89246 11.6644C9.97758 11.6644 11.675 9.96758 11.675 7.88184ZM7.89246 10.4925C6.45352 10.4925 5.28285 9.32141 5.28285 7.88184C5.28285 6.44227 6.45352 5.27227 7.89246 5.27227C9.33141 5.27227 10.5031 6.44289 10.5031 7.88184C10.5031 9.32078 9.33199 10.4925 7.89246 10.4925ZM19.4662 13.822L15.1424 10.1468C15.1587 10.1128 15.1721 10.0769 15.1819 10.039C15.3676 9.31934 15.4618 8.59359 15.4618 7.88184C15.4618 3.70809 12.0662 0.3125 7.8925 0.3125C3.71879 0.3125 0.324219 3.70809 0.324219 7.88184C0.324219 9.9307 1.07973 11.9944 2.63395 14.1907C3.9302 16.0225 5.56809 17.6343 6.88418 18.9293C7.09004 19.1319 7.28914 19.3278 7.47918 19.5169C7.59348 19.6306 7.74297 19.6875 7.89246 19.6875C8.04195 19.6875 8.19129 19.6307 8.30559 19.5171C8.49414 19.3296 8.69152 19.1355 8.89551 18.9348C9.0016 18.8305 9.10859 18.7252 9.21652 18.6188V19.1016C9.21652 19.4252 9.47887 19.6875 9.80246 19.6875H17.8156C18.1392 19.6875 18.4016 19.4252 18.4016 19.1016V14.4551L18.7072 14.7149C18.8174 14.8086 18.9523 14.8544 19.0864 14.8544C19.2524 14.8544 19.4173 14.7843 19.5332 14.6479C19.7427 14.4013 19.7128 14.0315 19.4662 13.822L19.4662 13.822ZM8.07371 18.0994C8.01273 18.1594 7.95238 18.2188 7.89258 18.2776C7.83109 18.217 7.76891 18.1558 7.70613 18.094C5.08535 15.5152 1.49609 11.9832 1.49609 7.88184C1.49609 4.35426 4.36551 1.48438 7.89246 1.48438C11.4194 1.48438 14.2899 4.35426 14.2899 7.88184C14.2899 8.35019 14.2418 8.82687 14.1475 9.3041C13.9309 9.1502 13.6346 9.16059 13.4289 9.33547L8.1518 13.822C7.90523 14.0316 7.87531 14.4014 8.08492 14.648C8.29449 14.8945 8.6643 14.9244 8.91086 14.7148L9.21648 14.455V16.9639C8.82504 17.3603 8.44387 17.7353 8.07367 18.0994H8.07371ZM14.2988 18.5156H13.3182V16.0048H14.2988V18.5156ZM17.2296 18.5156H15.4707V15.4189C15.4707 15.0953 15.2083 14.8329 14.8847 14.8329H12.7322C12.4086 14.8329 12.1463 15.0953 12.1463 15.4189V18.5156H10.3884V13.4587L13.8085 10.5509L17.2297 13.4589V18.5156H17.2296Z" fill="#3E3E3E"/>
<path d="M11.675 7.88184C11.675 5.79676 9.97816 4.10039 7.89246 4.10039C5.80676 4.10039 4.11098 5.79672 4.11098 7.88184C4.11098 9.96695 5.80734 11.6644 7.89246 11.6644C9.97758 11.6644 11.675 9.96758 11.675 7.88184ZM7.89246 10.4925C6.45352 10.4925 5.28285 9.32141 5.28285 7.88184C5.28285 6.44227 6.45352 5.27227 7.89246 5.27227C9.33141 5.27227 10.5031 6.44289 10.5031 7.88184C10.5031 9.32078 9.33199 10.4925 7.89246 10.4925ZM19.4662 13.822L15.1424 10.1468C15.1587 10.1128 15.1721 10.0769 15.1819 10.039C15.3676 9.31934 15.4618 8.59359 15.4618 7.88184C15.4618 3.70809 12.0662 0.3125 7.8925 0.3125C3.71879 0.3125 0.324219 3.70809 0.324219 7.88184C0.324219 9.9307 1.07973 11.9944 2.63395 14.1907C3.9302 16.0225 5.56809 17.6343 6.88418 18.9293C7.09004 19.1319 7.28914 19.3278 7.47918 19.5169C7.59348 19.6306 7.74297 19.6875 7.89246 19.6875C8.04195 19.6875 8.19129 19.6307 8.30559 19.5171C8.49414 19.3296 8.69152 19.1355 8.89551 18.9348C9.0016 18.8305 9.10859 18.7252 9.21652 18.6188V19.1016C9.21652 19.4252 9.47887 19.6875 9.80246 19.6875H17.8156C18.1392 19.6875 18.4016 19.4252 18.4016 19.1016V14.4551L18.7072 14.7149C18.8174 14.8086 18.9523 14.8544 19.0864 14.8544C19.2524 14.8544 19.4173 14.7843 19.5332 14.6479C19.7427 14.4013 19.7128 14.0315 19.4662 13.822L19.4662 13.822ZM8.07371 18.0994C8.01273 18.1594 7.95238 18.2188 7.89258 18.2776C7.83109 18.217 7.76891 18.1558 7.70613 18.094C5.08535 15.5152 1.49609 11.9832 1.49609 7.88184C1.49609 4.35426 4.36551 1.48438 7.89246 1.48438C11.4194 1.48438 14.2899 4.35426 14.2899 7.88184C14.2899 8.35019 14.2418 8.82687 14.1475 9.3041C13.9309 9.1502 13.6346 9.16059 13.4289 9.33547L8.1518 13.822C7.90523 14.0316 7.87531 14.4014 8.08492 14.648C8.29449 14.8945 8.6643 14.9244 8.91086 14.7148L9.21648 14.455V16.9639C8.82504 17.3603 8.44387 17.7353 8.07367 18.0994H8.07371ZM14.2988 18.5156H13.3182V16.0048H14.2988V18.5156ZM17.2296 18.5156H15.4707V15.4189C15.4707 15.0953 15.2083 14.8329 14.8847 14.8329H12.7322C12.4086 14.8329 12.1463 15.0953 12.1463 15.4189V18.5156H10.3884V13.4587L13.8085 10.5509L17.2297 13.4589V18.5156H17.2296Z" fill="#3E3E3E"/>
</g>
<defs>
<clipPath id="clip0_2118_8192">
<rect width="20" height="20" fill="white"/>
</clipPath>
</defs>
</svg>
