<svg width="26" height="23" viewBox="0 0 26 23" fill="none" xmlns="http://www.w3.org/2000/svg">
<path d="M8.76267 5.21541H23.3563L15.3844 11.4756C15.2154 11.6081 15.0145 11.6728 14.8321 11.6906C14.6486 11.6725 14.447 11.6078 14.2762 11.4756L8.57912 7.00025C8.51876 6.95172 8.45063 6.91469 8.37565 6.89167C8.64383 6.51336 8.7969 6.05572 8.78881 5.5626C8.78725 5.44967 8.7773 5.33332 8.76267 5.21541ZM5.05143 1.18932C5.06978 1.19243 5.09996 1.20394 5.16561 1.23443C5.29534 1.29603 5.50161 1.45469 5.70352 1.67589C6.11014 2.11892 6.51645 2.78998 6.72738 3.23301C6.73392 3.24607 6.74076 3.26038 6.74698 3.275C7.34556 4.30198 7.60379 5.08754 7.61156 5.58034C7.61996 6.07532 7.48712 6.28843 7.06743 6.52954L5.98476 7.15363C5.27947 7.55963 4.94627 8.28732 4.86352 8.96616C4.78045 9.64532 4.90272 10.3052 5.20481 10.8269L7.87725 15.4329C8.17996 15.9543 8.69672 16.3905 9.32859 16.6584C9.96107 16.9269 10.7609 17.0028 11.4662 16.5977L12.5489 15.9749C12.9683 15.7344 13.2218 15.7294 13.6477 15.9826C14.0749 16.2365 14.6296 16.8497 15.2257 17.8773C15.2341 17.8926 15.2422 17.9053 15.2518 17.9199C15.5312 18.3228 15.9117 19.0063 16.0953 19.5788C16.1864 19.8631 16.2222 20.1201 16.2107 20.2623C16.1979 20.4051 16.1948 20.3905 16.1572 20.4129L15.3333 20.8851C13.2638 21.7827 11.367 21.5802 9.67174 20.701C7.97338 19.818 6.49716 18.2236 5.46801 16.3516C5.46458 16.3479 5.46303 16.3432 5.46023 16.3407L3.20592 12.4556C3.20218 12.4518 3.20063 12.4484 3.19752 12.4434C2.08218 10.6203 1.43227 8.55052 1.51378 6.6462C1.5953 4.74469 2.36685 3.01118 4.18436 1.67745L5.0085 1.20674C5.02747 1.19585 5.0337 1.18745 5.05143 1.18932ZM5.05983 0.031672C4.84174 0.0282497 4.6193 0.073983 4.41925 0.190027L3.54783 0.691227C3.52823 0.702427 3.51018 0.713939 3.49245 0.725139C1.39587 2.25954 0.430495 4.39563 0.336229 6.59736C0.241962 8.79816 0.976806 11.0696 2.19076 13.0554L4.43761 16.9272L4.43232 16.9157C5.55387 18.9538 7.16107 20.7218 9.12512 21.7404C11.0901 22.7605 13.4309 22.997 15.8153 21.9572C15.8349 21.9488 15.8548 21.9395 15.8725 21.9286L16.7452 21.4274C17.1487 21.1978 17.3515 20.751 17.3845 20.3609C17.4184 19.972 17.3391 19.5934 17.2187 19.2204C16.9829 18.4827 16.5716 17.7662 16.2318 17.2747C15.59 16.1706 14.9703 15.4043 14.2541 14.9759C13.5323 14.5456 12.6659 14.5518 11.959 14.9582L10.8764 15.5822C10.5565 15.7664 10.1826 15.745 9.78903 15.5785C9.39734 15.4121 9.03458 15.0792 8.89987 14.8458L6.22743 10.2402C6.09241 10.0056 5.98196 9.52709 6.03423 9.10523C6.08463 8.68461 6.25543 8.35514 6.57556 8.17065L7.62743 7.56585C7.65481 7.70678 7.73445 7.83465 7.84987 7.92052L13.5473 12.3968C13.9178 12.688 14.3568 12.8501 14.7989 12.8756C14.8213 12.8768 14.8443 12.8768 14.867 12.8756C15.3094 12.8501 15.7462 12.6877 16.117 12.3968L23.9639 6.23243V16.4163C23.9639 16.5713 23.7872 16.7754 23.4406 16.7754H18.0083C17.6813 16.7735 17.4165 17.0373 17.4165 17.3624C17.4165 17.6869 17.6816 17.9507 18.0083 17.9489H23.4406C24.3285 17.9489 25.1445 17.307 25.1445 16.4163V5.57443C25.1445 4.68309 24.3285 4.04158 23.4406 4.04158H8.43943C8.2733 3.62625 8.05396 3.18603 7.7777 2.70754C7.51916 2.16932 7.09978 1.45781 6.57494 0.885672C6.30987 0.595716 6.02396 0.338739 5.6665 0.172605V0.174161C5.48885 0.0901609 5.27761 0.0363386 5.05983 0.031672Z" fill="#61B291"/>
</svg>
