<svg width="20" height="20" viewBox="0 0 20 20" fill="none" xmlns="http://www.w3.org/2000/svg">
<g clip-path="url(#clip0_2118_8157)">
<path d="M19.7873 8.12735L10.307 1.18606C10.1242 1.05224 9.87584 1.05224 9.69311 1.18606L0.212718 8.12735C-0.0188446 8.29692 -0.0691571 8.62208 0.100413 8.85364C0.269984 9.08521 0.595179 9.13544 0.826702 8.96595L10 2.24938L19.1733 8.96591C19.2658 9.03368 19.3733 9.0663 19.4799 9.0663C19.6399 9.0663 19.7978 8.99267 19.8996 8.8536C20.0692 8.62208 20.0189 8.29692 19.7873 8.12735Z" fill="#3E3E3E"/>
<path d="M19.7873 8.12735L10.307 1.18606C10.1242 1.05224 9.87584 1.05224 9.69311 1.18606L0.212718 8.12735C-0.0188446 8.29692 -0.0691571 8.62208 0.100413 8.85364C0.269984 9.08521 0.595179 9.13544 0.826702 8.96595L10 2.24938L19.1733 8.96591C19.2658 9.03368 19.3733 9.0663 19.4799 9.0663C19.6399 9.0663 19.7978 8.99267 19.8996 8.8536C20.0692 8.62208 20.0189 8.29692 19.7873 8.12735Z" fill="#61B291"/>
<path d="M17.2732 9.08374C16.9862 9.08374 16.7536 9.3164 16.7536 9.60339V17.8748H12.5964V13.3598C12.5964 11.9269 11.4307 10.7613 9.99801 10.7613C8.56527 10.7613 7.39957 11.927 7.39957 13.3598V17.8749H3.24242V9.60343C3.24242 9.31644 3.00973 9.08378 2.72277 9.08378C2.43582 9.08378 2.20312 9.31644 2.20312 9.60343V18.3946C2.20312 18.6816 2.43582 18.9142 2.72277 18.9142H7.91922C8.1925 18.9142 8.41613 18.7031 8.43684 18.435C8.43809 18.4229 8.43887 18.4096 8.43887 18.3946V13.3598C8.43887 12.5001 9.13828 11.8007 9.99801 11.8007C10.8577 11.8007 11.5571 12.5001 11.5571 13.3598V18.3946C11.5571 18.4095 11.5579 18.4226 11.5592 18.4346C11.5796 18.7028 11.8034 18.9142 12.0768 18.9142H17.2732C17.5602 18.9142 17.7929 18.6816 17.7929 18.3946V9.60343C17.7929 9.3164 17.5602 9.08374 17.2732 9.08374Z" fill="#3E3E3E"/>
<path d="M17.2732 9.08374C16.9862 9.08374 16.7536 9.3164 16.7536 9.60339V17.8748H12.5964V13.3598C12.5964 11.9269 11.4307 10.7613 9.99801 10.7613C8.56527 10.7613 7.39957 11.927 7.39957 13.3598V17.8749H3.24242V9.60343C3.24242 9.31644 3.00973 9.08378 2.72277 9.08378C2.43582 9.08378 2.20312 9.31644 2.20312 9.60343V18.3946C2.20312 18.6816 2.43582 18.9142 2.72277 18.9142H7.91922C8.1925 18.9142 8.41613 18.7031 8.43684 18.435C8.43809 18.4229 8.43887 18.4096 8.43887 18.3946V13.3598C8.43887 12.5001 9.13828 11.8007 9.99801 11.8007C10.8577 11.8007 11.5571 12.5001 11.5571 13.3598V18.3946C11.5571 18.4095 11.5579 18.4226 11.5592 18.4346C11.5796 18.7028 11.8034 18.9142 12.0768 18.9142H17.2732C17.5602 18.9142 17.7929 18.6816 17.7929 18.3946V9.60343C17.7929 9.3164 17.5602 9.08374 17.2732 9.08374Z" fill="#61B291"/>
</g>
<defs>
<clipPath id="clip0_2118_8157">
<rect width="20" height="20" fill="white"/>
</clipPath>
</defs>
</svg>
