<svg width="20" height="20" viewBox="0 0 20 20" fill="none" xmlns="http://www.w3.org/2000/svg">
<g clip-path="url(#clip0_2118_8197)">
<path d="M10.1833 17.0796H5.31328C3.0502 17.0796 1.20906 15.2385 1.20906 12.9754V5.09957C1.20906 2.83586 3.0502 0.994219 5.31328 0.994219H9.97008V2.7977C9.97008 4.32953 11.2164 5.57582 12.7482 5.57582H14.5616V7.81137C14.5616 8.08055 14.7798 8.29871 15.049 8.29871C15.3181 8.29871 15.5363 8.08051 15.5363 7.81137V5.09953C15.5363 4.97031 15.485 4.84641 15.3937 4.75504L13.389 2.74926L10.802 0.162266C10.7106 0.0708984 10.5867 0.0195312 10.4574 0.0195312H5.31328C2.51273 0.0195312 0.234375 2.29844 0.234375 5.09957V12.9754C0.234375 15.7759 2.51277 18.0543 5.31328 18.0543H10.1833C10.4525 18.0543 10.6707 17.8361 10.6707 17.567C10.6707 17.2979 10.4525 17.0796 10.1833 17.0796ZM13.8618 4.60117H12.7482C11.7538 4.60117 10.9448 3.79215 10.9448 2.79773V1.68344L12.6997 3.43836L13.8618 4.60117ZM3.4302 5.88418C3.4302 5.615 3.6484 5.39684 3.91754 5.39684H8.30582C8.575 5.39684 8.79316 5.615 8.79316 5.88418C8.79316 6.15336 8.57496 6.37152 8.30582 6.37152H3.91754C3.6484 6.37152 3.4302 6.15336 3.4302 5.88418ZM11.8531 9.5243H3.91758C3.6484 9.5243 3.43023 9.30609 3.43023 9.03695C3.43023 8.76781 3.64844 8.54961 3.91758 8.54961H11.8531C12.1223 8.54961 12.3405 8.76781 12.3405 9.03695C12.3405 9.30609 12.1223 9.5243 11.8531 9.5243ZM9.26172 11.7023C9.5309 11.7023 9.74906 11.9205 9.74906 12.1897C9.74906 12.4589 9.53086 12.677 9.26172 12.677H3.91758C3.6484 12.677 3.43023 12.4588 3.43023 12.1897C3.43023 11.9205 3.64844 11.7023 3.91758 11.7023H9.26172ZM19.4631 10.7819L15.234 9.04582C15.1155 8.99715 14.9824 8.99711 14.8639 9.04586L10.6359 10.7819C10.453 10.857 10.3336 11.035 10.3336 11.2327V15.0717C10.3336 15.1134 10.339 15.155 10.3496 15.1954C10.9549 17.5029 12.4374 19.0585 14.8818 19.9509C14.9358 19.9706 14.9924 19.9805 15.049 19.9805C15.1055 19.9805 15.1621 19.9706 15.2161 19.9509C17.66 19.0592 19.1429 17.5037 19.7494 15.1956C19.7601 15.1552 19.7654 15.1136 19.7654 15.0718V11.2327C19.7654 11.035 19.646 10.857 19.4631 10.7819ZM18.7907 15.0077C18.2755 16.899 17.05 18.1979 15.049 18.9725C13.0477 18.1974 11.8225 16.8984 11.3083 15.0078V11.5595L15.049 10.0235L18.7907 11.5595V15.0077Z" fill="#3E3E3E"/>
</g>
<defs>
<clipPath id="clip0_2118_8197">
<rect width="20" height="20" fill="white"/>
</clipPath>
</defs>
</svg>
