<svg width="20" height="20" viewBox="0 0 20 20" fill="none" xmlns="http://www.w3.org/2000/svg">
<g clip-path="url(#clip0_2118_8177)">
<path d="M7.1875 19.375C6.75485 19.375 6.33192 19.2467 5.97219 19.0063C5.61246 18.766 5.33208 18.4243 5.16651 18.0246C5.00095 17.6249 4.95763 17.1851 5.04203 16.7607C5.12644 16.3364 5.33478 15.9466 5.64071 15.6407C5.94663 15.3348 6.33641 15.1264 6.76074 15.042C7.18507 14.9576 7.62491 15.0009 8.02462 15.1665C8.42433 15.3321 8.76598 15.6125 9.00634 15.9722C9.24671 16.3319 9.375 16.7549 9.375 17.1875C9.375 17.7677 9.14453 18.3241 8.7343 18.7343C8.32406 19.1445 7.76766 19.375 7.1875 19.375ZM7.1875 16.25C7.00208 16.25 6.82083 16.305 6.66665 16.408C6.51248 16.511 6.39232 16.6574 6.32136 16.8287C6.25041 17 6.23184 17.1885 6.26801 17.3704C6.30419 17.5523 6.39348 17.7193 6.52459 17.8504C6.6557 17.9815 6.82275 18.0708 7.0046 18.107C7.18646 18.1432 7.37496 18.1246 7.54627 18.0536C7.71757 17.9827 7.86399 17.8625 7.967 17.7083C8.07002 17.5542 8.125 17.3729 8.125 17.1875C8.125 16.9389 8.02623 16.7004 7.85041 16.5246C7.6746 16.3488 7.43614 16.25 7.1875 16.25Z" fill="#3E3E3E"/>
<path d="M14.0625 19.375C13.6299 19.375 13.2069 19.2467 12.8472 19.0063C12.4875 18.766 12.2071 18.4243 12.0415 18.0246C11.8759 17.6249 11.8326 17.1851 11.917 16.7607C12.0014 16.3364 12.2098 15.9466 12.5157 15.6407C12.8216 15.3348 13.2114 15.1264 13.6357 15.042C14.0601 14.9576 14.4999 15.0009 14.8996 15.1665C15.2993 15.3321 15.641 15.6125 15.8813 15.9722C16.1217 16.3319 16.25 16.7549 16.25 17.1875C16.25 17.7677 16.0195 18.3241 15.6093 18.7343C15.1991 19.1445 14.6427 19.375 14.0625 19.375ZM14.0625 16.25C13.8771 16.25 13.6958 16.305 13.5417 16.408C13.3875 16.511 13.2673 16.6574 13.1964 16.8287C13.1254 17 13.1068 17.1885 13.143 17.3704C13.1792 17.5523 13.2685 17.7193 13.3996 17.8504C13.5307 17.9815 13.6977 18.0708 13.8796 18.107C14.0615 18.1432 14.25 18.1246 14.4213 18.0536C14.5926 17.9827 14.739 17.8625 14.842 17.7083C14.945 17.5542 15 17.3729 15 17.1875C15 16.9389 14.9012 16.7004 14.7254 16.5246C14.5496 16.3488 14.3111 16.25 14.0625 16.25Z" fill="#3E3E3E"/>
<path d="M14.6875 16.25H5.3125C4.73234 16.25 4.17594 16.0195 3.7657 15.6093C3.35547 15.1991 3.125 14.6427 3.125 14.0625C3.125 13.4823 3.35547 12.9259 3.7657 12.5157C4.17594 12.1055 4.73234 11.875 5.3125 11.875H13.75C13.9158 11.875 14.0747 11.9408 14.1919 12.0581C14.3092 12.1753 14.375 12.3342 14.375 12.5C14.375 12.6658 14.3092 12.8247 14.1919 12.9419C14.0747 13.0592 13.9158 13.125 13.75 13.125H5.3125C5.06386 13.125 4.8254 13.2238 4.64959 13.3996C4.47377 13.5754 4.375 13.8139 4.375 14.0625C4.375 14.3111 4.47377 14.5496 4.64959 14.7254C4.8254 14.9012 5.06386 15 5.3125 15H14.6875C14.8533 15 15.0122 15.0658 15.1294 15.1831C15.2467 15.3003 15.3125 15.4592 15.3125 15.625C15.3125 15.7908 15.2467 15.9497 15.1294 16.0669C15.0122 16.1842 14.8533 16.25 14.6875 16.25Z" fill="#3E3E3E"/>
<path d="M14.7437 13.125H6.25C6.10782 13.125 5.9699 13.0765 5.859 12.9875C5.7481 12.8985 5.67085 12.7744 5.64 12.6356L3.25 1.87501H1.25C1.08424 1.87501 0.925268 1.80916 0.808058 1.69195C0.690848 1.57474 0.625 1.41577 0.625 1.25001C0.625 1.08425 0.690848 0.925279 0.808058 0.808069C0.925268 0.690858 1.08424 0.62501 1.25 0.62501H3.25C3.53453 0.623849 3.81083 0.720427 4.03268 0.898589C4.25452 1.07675 4.40847 1.32569 4.46875 1.60376L6.75 11.875H14.7437C14.8727 11.875 14.9985 11.8352 15.1039 11.7609C15.2093 11.6866 15.2892 11.5815 15.3325 11.46L18.1612 3.54001C18.2169 3.38386 18.3324 3.25624 18.4822 3.18521C18.5564 3.15004 18.6367 3.12982 18.7187 3.12571C18.8007 3.1216 18.8827 3.13368 18.96 3.16126C19.0373 3.18884 19.1084 3.23137 19.1693 3.28644C19.2302 3.34151 19.2796 3.40802 19.3148 3.48219C19.35 3.55636 19.3702 3.63674 19.3743 3.71872C19.3784 3.8007 19.3663 3.88269 19.3387 3.96001L16.51 11.8806C16.3794 12.2446 16.1397 12.5594 15.8236 12.7821C15.5075 13.0048 15.1304 13.1246 14.7437 13.125Z" fill="#3E3E3E"/>
<path d="M11.2514 10.2121C10.5901 10.2121 9.42137 9.22772 7.77699 7.28459C7.33485 6.76833 7.09492 6.10924 7.1017 5.42955C7.10848 4.74986 7.36151 4.09569 7.81387 3.58834C8.26941 3.15344 8.875 2.91078 9.50481 2.91078C10.1346 2.91078 10.7402 3.15344 11.1957 3.58834L11.2514 3.64584L11.3089 3.58772C11.7644 3.15282 12.37 2.91016 12.9998 2.91016C13.6296 2.91016 14.2352 3.15282 14.6907 3.58772C15.1462 4.10305 15.3977 4.76712 15.3977 5.45491C15.3977 6.14269 15.1462 6.80676 14.6907 7.32209C13.0814 9.22772 11.9126 10.2121 11.2514 10.2121ZM9.50137 4.13772C9.35145 4.13737 9.20295 4.16674 9.06446 4.22414C8.92596 4.28153 8.80022 4.36581 8.69449 4.47209C8.47952 4.75488 8.36312 5.10031 8.36312 5.45553C8.36312 5.81075 8.47952 6.15619 8.69449 6.43897C9.43645 7.37961 10.2957 8.22144 11.2514 8.94397C12.1917 8.2306 13.0385 7.40181 13.772 6.47709C13.9998 6.19431 14.127 5.84368 14.1333 5.4806C14.1396 5.11751 14.0248 4.76265 13.807 4.47209C13.5897 4.26416 13.3006 4.1481 12.9998 4.1481C12.6991 4.1481 12.4099 4.26416 12.1926 4.47209L11.6926 4.97209C11.5754 5.08926 11.4165 5.15509 11.2507 5.15509C11.085 5.15509 10.9261 5.08926 10.8089 4.97209L10.3089 4.47209C10.203 4.36579 10.0772 4.2815 9.93857 4.22411C9.79997 4.16672 9.65138 4.13736 9.50137 4.13772Z" fill="#3E3E3E"/>
<path d="M7.1875 19.375C6.75485 19.375 6.33192 19.2467 5.97219 19.0063C5.61246 18.766 5.33208 18.4243 5.16651 18.0246C5.00095 17.6249 4.95763 17.1851 5.04203 16.7607C5.12644 16.3364 5.33478 15.9466 5.64071 15.6407C5.94663 15.3348 6.33641 15.1264 6.76074 15.042C7.18507 14.9576 7.62491 15.0009 8.02462 15.1665C8.42433 15.3321 8.76598 15.6125 9.00634 15.9722C9.24671 16.3319 9.375 16.7549 9.375 17.1875C9.375 17.7677 9.14453 18.3241 8.7343 18.7343C8.32406 19.1445 7.76766 19.375 7.1875 19.375ZM7.1875 16.25C7.00208 16.25 6.82083 16.305 6.66665 16.408C6.51248 16.511 6.39232 16.6574 6.32136 16.8287C6.25041 17 6.23184 17.1885 6.26801 17.3704C6.30419 17.5523 6.39348 17.7193 6.52459 17.8504C6.6557 17.9815 6.82275 18.0708 7.0046 18.107C7.18646 18.1432 7.37496 18.1246 7.54627 18.0536C7.71757 17.9827 7.86399 17.8625 7.967 17.7083C8.07002 17.5542 8.125 17.3729 8.125 17.1875C8.125 16.9389 8.02623 16.7004 7.85041 16.5246C7.6746 16.3488 7.43614 16.25 7.1875 16.25Z" fill="#3E3E3E"/>
<path d="M14.0625 19.375C13.6299 19.375 13.2069 19.2467 12.8472 19.0063C12.4875 18.766 12.2071 18.4243 12.0415 18.0246C11.8759 17.6249 11.8326 17.1851 11.917 16.7607C12.0014 16.3364 12.2098 15.9466 12.5157 15.6407C12.8216 15.3348 13.2114 15.1264 13.6357 15.042C14.0601 14.9576 14.4999 15.0009 14.8996 15.1665C15.2993 15.3321 15.641 15.6125 15.8813 15.9722C16.1217 16.3319 16.25 16.7549 16.25 17.1875C16.25 17.7677 16.0195 18.3241 15.6093 18.7343C15.1991 19.1445 14.6427 19.375 14.0625 19.375ZM14.0625 16.25C13.8771 16.25 13.6958 16.305 13.5417 16.408C13.3875 16.511 13.2673 16.6574 13.1964 16.8287C13.1254 17 13.1068 17.1885 13.143 17.3704C13.1792 17.5523 13.2685 17.7193 13.3996 17.8504C13.5307 17.9815 13.6977 18.0708 13.8796 18.107C14.0615 18.1432 14.25 18.1246 14.4213 18.0536C14.5926 17.9827 14.739 17.8625 14.842 17.7083C14.945 17.5542 15 17.3729 15 17.1875C15 16.9389 14.9012 16.7004 14.7254 16.5246C14.5496 16.3488 14.3111 16.25 14.0625 16.25Z" fill="#3E3E3E"/>
<path d="M14.6875 16.25H5.3125C4.73234 16.25 4.17594 16.0195 3.7657 15.6093C3.35547 15.1991 3.125 14.6427 3.125 14.0625C3.125 13.4823 3.35547 12.9259 3.7657 12.5157C4.17594 12.1055 4.73234 11.875 5.3125 11.875H13.75C13.9158 11.875 14.0747 11.9408 14.1919 12.0581C14.3092 12.1753 14.375 12.3342 14.375 12.5C14.375 12.6658 14.3092 12.8247 14.1919 12.9419C14.0747 13.0592 13.9158 13.125 13.75 13.125H5.3125C5.06386 13.125 4.8254 13.2238 4.64959 13.3996C4.47377 13.5754 4.375 13.8139 4.375 14.0625C4.375 14.3111 4.47377 14.5496 4.64959 14.7254C4.8254 14.9012 5.06386 15 5.3125 15H14.6875C14.8533 15 15.0122 15.0658 15.1294 15.1831C15.2467 15.3003 15.3125 15.4592 15.3125 15.625C15.3125 15.7908 15.2467 15.9497 15.1294 16.0669C15.0122 16.1842 14.8533 16.25 14.6875 16.25Z" fill="#3E3E3E"/>
<path d="M14.7437 13.125H6.25C6.10782 13.125 5.9699 13.0765 5.859 12.9875C5.7481 12.8985 5.67085 12.7744 5.64 12.6356L3.25 1.87501H1.25C1.08424 1.87501 0.925268 1.80916 0.808058 1.69195C0.690848 1.57474 0.625 1.41577 0.625 1.25001C0.625 1.08425 0.690848 0.925279 0.808058 0.808069C0.925268 0.690858 1.08424 0.62501 1.25 0.62501H3.25C3.53453 0.623849 3.81083 0.720427 4.03268 0.898589C4.25452 1.07675 4.40847 1.32569 4.46875 1.60376L6.75 11.875H14.7437C14.8727 11.875 14.9985 11.8352 15.1039 11.7609C15.2093 11.6866 15.2892 11.5815 15.3325 11.46L18.1612 3.54001C18.2169 3.38386 18.3324 3.25624 18.4822 3.18521C18.5564 3.15004 18.6367 3.12982 18.7187 3.12571C18.8007 3.1216 18.8827 3.13368 18.96 3.16126C19.0373 3.18884 19.1084 3.23137 19.1693 3.28644C19.2302 3.34151 19.2796 3.40802 19.3148 3.48219C19.35 3.55636 19.3702 3.63674 19.3743 3.71872C19.3784 3.8007 19.3663 3.88269 19.3387 3.96001L16.51 11.8806C16.3794 12.2446 16.1397 12.5594 15.8236 12.7821C15.5075 13.0048 15.1304 13.1246 14.7437 13.125Z" fill="#3E3E3E"/>
<path d="M11.2514 10.2121C10.5901 10.2121 9.42137 9.22772 7.77699 7.28459C7.33485 6.76833 7.09492 6.10924 7.1017 5.42955C7.10848 4.74986 7.36151 4.09569 7.81387 3.58834C8.26941 3.15344 8.875 2.91078 9.50481 2.91078C10.1346 2.91078 10.7402 3.15344 11.1957 3.58834L11.2514 3.64584L11.3089 3.58772C11.7644 3.15282 12.37 2.91016 12.9998 2.91016C13.6296 2.91016 14.2352 3.15282 14.6907 3.58772C15.1462 4.10305 15.3977 4.76712 15.3977 5.45491C15.3977 6.14269 15.1462 6.80676 14.6907 7.32209C13.0814 9.22772 11.9126 10.2121 11.2514 10.2121ZM9.50137 4.13772C9.35145 4.13737 9.20295 4.16674 9.06446 4.22414C8.92596 4.28153 8.80022 4.36581 8.69449 4.47209C8.47952 4.75488 8.36312 5.10031 8.36312 5.45553C8.36312 5.81075 8.47952 6.15619 8.69449 6.43897C9.43645 7.37961 10.2957 8.22144 11.2514 8.94397C12.1917 8.2306 13.0385 7.40181 13.772 6.47709C13.9998 6.19431 14.127 5.84368 14.1333 5.4806C14.1396 5.11751 14.0248 4.76265 13.807 4.47209C13.5897 4.26416 13.3006 4.1481 12.9998 4.1481C12.6991 4.1481 12.4099 4.26416 12.1926 4.47209L11.6926 4.97209C11.5754 5.08926 11.4165 5.15509 11.2507 5.15509C11.085 5.15509 10.9261 5.08926 10.8089 4.97209L10.3089 4.47209C10.203 4.36579 10.0772 4.2815 9.93857 4.22411C9.79997 4.16672 9.65138 4.13736 9.50137 4.13772Z" fill="#3E3E3E"/>
</g>
<defs>
<clipPath id="clip0_2118_8177">
<rect width="20" height="20" fill="white"/>
</clipPath>
</defs>
</svg>
