<svg width="16" height="17" viewBox="0 0 16 17" fill="none" xmlns="http://www.w3.org/2000/svg">
<g clip-path="url(#clip0_2014_18642)">
<path d="M8.00102 8.795C5.71352 8.795 3.85352 6.935 3.85352 4.6475C3.85352 2.36 5.71352 0.5 8.00102 0.5C10.2885 0.5 12.1485 2.36 12.1485 4.6475C12.1485 6.935 10.2885 8.795 8.00102 8.795ZM8.00102 1.2175C6.10852 1.2175 4.57102 2.7575 4.57102 4.6475C4.57102 6.54 6.11102 8.0775 8.00102 8.0775C9.89352 8.0775 11.431 6.5375 11.431 4.6475C11.431 2.755 9.89352 1.2175 8.00102 1.2175Z" fill="#3E3E3E"/>
<path d="M8.00008 2.05C7.80258 2.05 7.64258 1.89 7.64258 1.6925V0.8575C7.64258 0.66 7.80258 0.5 8.00008 0.5C8.19758 0.5 8.35758 0.66 8.35758 0.8575V1.69C8.35758 1.89 8.19758 2.05 8.00008 2.05Z" fill="#3E3E3E"/>
<path d="M8.00008 8.79506C7.80258 8.79506 7.64258 8.63506 7.64258 8.43756V7.60506C7.64258 7.40756 7.80258 7.24756 8.00008 7.24756C8.19758 7.24756 8.35758 7.40756 8.35758 7.60506V8.43756C8.35758 8.63506 8.19758 8.79506 8.00008 8.79506Z" fill="#3E3E3E"/>
<path d="M11.7907 5.00504H10.9532C10.7557 5.00504 10.5957 4.84504 10.5957 4.64754C10.5957 4.45004 10.7557 4.29004 10.9532 4.29004H11.7907C11.9882 4.29004 12.1482 4.45004 12.1482 4.64754C12.1482 4.84504 11.9882 5.00504 11.7907 5.00504Z" fill="#3E3E3E"/>
<path d="M5.04852 5.00504H4.21102C4.01352 5.00504 3.85352 4.84504 3.85352 4.64754C3.85352 4.45004 4.01352 4.29004 4.21102 4.29004H5.04852C5.24602 4.29004 5.40602 4.45004 5.40602 4.64754C5.40602 4.84504 5.24602 5.00504 5.04852 5.00504Z" fill="#3E3E3E"/>
<path d="M10.088 2.91492C9.99547 2.91492 9.90297 2.87992 9.83547 2.80992C9.69547 2.66992 9.69547 2.44242 9.83547 2.30242L10.428 1.71242C10.568 1.57242 10.7955 1.57242 10.9355 1.71242C11.0755 1.85242 11.0755 2.07992 10.9355 2.21992L10.343 2.80992C10.2705 2.87992 10.1805 2.91492 10.088 2.91492Z" fill="#3E3E3E"/>
<path d="M5.32039 7.68494C5.22789 7.68494 5.13539 7.64994 5.06789 7.57994C4.92789 7.43994 4.92789 7.21244 5.06789 7.07244L5.66039 6.48244C5.80039 6.34244 6.02789 6.34244 6.16789 6.48244C6.30789 6.62244 6.30789 6.84994 6.16789 6.98994L5.57539 7.57994C5.50289 7.64994 5.41289 7.68494 5.32039 7.68494Z" fill="#3E3E3E"/>
<path d="M10.6805 7.68494C10.588 7.68494 10.498 7.64994 10.428 7.57994L9.83547 6.98994C9.69547 6.84994 9.69547 6.62244 9.83547 6.48244C9.97547 6.34244 10.203 6.34244 10.343 6.48244L10.9355 7.07244C11.0755 7.21244 11.0755 7.43994 10.9355 7.57994C10.863 7.64994 10.7705 7.68494 10.6805 7.68494Z" fill="#3E3E3E"/>
<path d="M5.91289 2.91492C5.82039 2.91492 5.73039 2.87992 5.66039 2.80992L5.06789 2.21992C4.92789 2.07992 4.92789 1.85242 5.06789 1.71242C5.20789 1.57242 5.43539 1.57242 5.57539 1.71242L6.16789 2.30242C6.30789 2.44242 6.30789 2.66992 6.16789 2.80992C6.09539 2.87992 6.00539 2.91492 5.91289 2.91492Z" fill="#3E3E3E"/>
<path d="M8.00117 5.32241C7.62867 5.32241 7.32617 5.01991 7.32617 4.64741C7.32617 4.27491 7.62867 3.97241 8.00117 3.97241C8.37367 3.97241 8.67617 4.27491 8.67617 4.64741C8.67617 5.01991 8.37367 5.32241 8.00117 5.32241ZM8.00117 4.60491C7.97867 4.60491 7.95867 4.62241 7.95867 4.64741C7.95867 4.69241 8.04117 4.69241 8.04117 4.64741C8.04367 4.62491 8.02367 4.60491 8.00117 4.60491Z" fill="#3E3E3E"/>
<path d="M8.00203 4.68998C7.80453 4.68998 7.64453 4.52998 7.64453 4.33248V2.96248C7.64453 2.76498 7.80453 2.60498 8.00203 2.60498C8.19953 2.60498 8.35953 2.76498 8.35953 2.96248V4.32998C8.35953 4.52748 8.19953 4.68998 8.00203 4.68998Z" fill="#3E3E3E"/>
<path d="M7.04109 13.8825C6.84359 13.8825 6.68359 13.7225 6.68359 13.525V8.31502C6.68359 8.11752 6.84359 7.95752 7.04109 7.95752C7.23859 7.95752 7.39859 8.11752 7.39859 8.31502V13.525C7.40109 13.72 7.24109 13.8825 7.04109 13.8825Z" fill="#3E3E3E"/>
<path d="M8.96102 13.8825C8.76352 13.8825 8.60352 13.7225 8.60352 13.525V8.31502C8.60352 8.11752 8.76352 7.95752 8.96102 7.95752C9.15852 7.95752 9.31852 8.11752 9.31852 8.31502V13.525C9.31852 13.72 9.15852 13.8825 8.96102 13.8825Z" fill="#3E3E3E"/>
<path d="M15.2982 15.295H0.703203C0.505703 15.295 0.345703 15.135 0.345703 14.9375V14.285C0.345703 13.6675 0.848203 13.165 1.4657 13.165H14.5407C15.1582 13.165 15.6607 13.6675 15.6607 14.285V14.9375C15.6582 15.135 15.4982 15.295 15.2982 15.295ZM1.0607 14.58H14.9407V14.285C14.9407 14.0625 14.7607 13.8825 14.5382 13.8825H1.4632C1.2407 13.8825 1.0607 14.0625 1.0607 14.285V14.58Z" fill="#3E3E3E"/>
<path d="M3.58547 16.5H2.92797C2.57797 16.5 2.29297 16.2325 2.29297 15.9025V14.94C2.29297 14.7425 2.45297 14.5825 2.65047 14.5825C2.84797 14.5825 3.00797 14.7425 3.00797 14.94V15.785H3.50547V14.94C3.50547 14.7425 3.66547 14.5825 3.86297 14.5825C4.06047 14.5825 4.22047 14.7425 4.22047 14.94V15.9025C4.22297 16.2325 3.93797 16.5 3.58547 16.5Z" fill="#3E3E3E"/>
<path d="M13.0738 16.5H12.4163C12.0663 16.5 11.7812 16.2325 11.7812 15.9025V14.94C11.7812 14.7425 11.9413 14.5825 12.1388 14.5825C12.3363 14.5825 12.4963 14.7425 12.4963 14.94V15.785H12.9938V14.94C12.9938 14.7425 13.1538 14.5825 13.3513 14.5825C13.5488 14.5825 13.7088 14.7425 13.7088 14.94V15.9025C13.7113 16.2325 13.4238 16.5 13.0738 16.5Z" fill="#3E3E3E"/>
</g>
<defs>
<clipPath id="clip0_2014_18642">
<rect width="16" height="16" fill="white" transform="translate(0 0.5)"/>
</clipPath>
</defs>
</svg>
