<svg width="16" height="17" viewBox="0 0 16 17" fill="none" xmlns="http://www.w3.org/2000/svg">
<g clip-path="url(#clip0_2014_18691)">
<path d="M14.5938 9.3125H12.5312V7.56916C12.5312 7.26687 12.649 6.98269 12.8627 6.76897C13.2535 6.37816 13.4688 5.85853 13.4688 5.30584V0.96875C13.4688 0.709875 13.2589 0.5 13 0.5C12.7411 0.5 12.5312 0.709875 12.5312 0.96875V3.625H11.5938V0.96875C11.5938 0.709875 11.3839 0.5 11.125 0.5C10.8661 0.5 10.6562 0.709875 10.6562 0.96875V3.625H9.71875V0.96875C9.71875 0.709875 9.50887 0.5 9.25 0.5C8.99113 0.5 8.78125 0.709875 8.78125 0.96875V5.30584C8.78125 5.85853 8.9965 6.37813 9.38731 6.76894C9.60106 6.98269 9.71875 7.26688 9.71875 7.56913V9.3125H6.59375V6.5655C7.37075 5.97081 7.84375 4.9305 7.84375 3.78125C7.84375 2.92628 7.58116 2.11781 7.10431 1.50472C6.60038 0.856813 5.91966 0.5 5.1875 0.5C4.45534 0.5 3.77463 0.856813 3.27069 1.50472C2.79384 2.11781 2.53125 2.92631 2.53125 3.78125C2.53125 4.93047 3.00425 5.97078 3.78125 6.5655V9.3125H1.40625C0.630844 9.3125 0 9.94334 0 10.7188V15.0938C0 15.8692 0.630844 16.5 1.40625 16.5H14.5938C15.3692 16.5 16 15.8692 16 15.0938V10.7188C16 9.94334 15.3692 9.3125 14.5938 9.3125ZM9.71875 4.5625H12.5312V5.30584C12.5312 5.60813 12.4135 5.89231 12.1998 6.10603C11.809 6.49684 11.5938 7.01647 11.5938 7.56916V9.3125H10.6562V7.56916C10.6562 7.01647 10.441 6.49687 10.0502 6.10606C9.83644 5.89231 9.71875 5.60812 9.71875 5.30587V4.5625ZM3.46875 3.78125C3.46875 3.13372 3.66122 2.52962 4.01072 2.08028C4.33313 1.66578 4.75103 1.4375 5.1875 1.4375C5.62397 1.4375 6.04191 1.66578 6.36428 2.08028C6.71378 2.52962 6.90625 3.13369 6.90625 3.78125C6.90625 4.69897 6.50356 5.53834 5.88037 5.91962C5.74116 6.00478 5.65625 6.15625 5.65625 6.31947V9.3125H4.71875V6.31947C4.71875 6.15625 4.63384 6.00481 4.49463 5.91962C3.87144 5.53834 3.46875 4.69897 3.46875 3.78125ZM15.0625 15.0938C15.0625 15.3522 14.8522 15.5625 14.5938 15.5625H1.40625C1.14778 15.5625 0.9375 15.3522 0.9375 15.0938V10.7188C0.9375 10.4603 1.14778 10.25 1.40625 10.25H14.5938C14.8522 10.25 15.0625 10.4603 15.0625 10.7188V15.0938Z" fill="#3E3E3E"/>
<path d="M13.6256 14.0755C13.6248 14.0755 13.6241 14.0755 13.6233 14.0755C13.3825 14.0768 13.1245 14.0778 12.9219 14.0781V11.3438C12.9219 11.128 12.747 10.9531 12.5312 10.9531C12.3155 10.9531 12.1406 11.128 12.1406 11.3438V14.4661C12.1406 14.6564 12.2777 14.819 12.4652 14.8511C12.4931 14.8559 12.5144 14.8596 12.8627 14.8596C13.03 14.8596 13.2727 14.8587 13.6277 14.8567C13.8435 14.8555 14.0174 14.6797 14.0162 14.4639C14.0149 14.249 13.8403 14.0755 13.6256 14.0755Z" fill="#3E3E3E"/>
<path d="M7.83486 13.7283C7.66955 13.5896 7.42314 13.6113 7.28458 13.7767C7.2573 13.8092 7.22795 13.8395 7.19733 13.8668C7.03989 14.007 6.83877 14.0781 6.59958 14.0781C5.95342 14.0781 5.42773 13.5524 5.42773 12.9062C5.42773 12.2601 5.95342 11.7344 6.59958 11.7344C6.83448 11.7344 7.06095 11.8035 7.25448 11.9342C7.4333 12.055 7.67608 12.008 7.79683 11.8293C7.91761 11.6505 7.87061 11.4077 7.69186 11.2869C7.36867 11.0686 6.99095 10.9531 6.59958 10.9531C5.52264 10.9531 4.64648 11.8293 4.64648 12.9062C4.64648 13.9832 5.52264 14.8594 6.59958 14.8594C7.02998 14.8594 7.41639 14.7179 7.71686 14.4503C7.7757 14.3979 7.8317 14.3402 7.88327 14.2786C8.02186 14.1132 8.0002 13.8669 7.83486 13.7283Z" fill="#3E3E3E"/>
<path d="M11.575 14.3308L10.4122 11.2498C10.4109 11.2461 10.4094 11.2425 10.408 11.2389C10.3365 11.0652 10.169 10.9531 9.98125 10.9531C9.98106 10.9531 9.98081 10.9531 9.98062 10.9531C9.79262 10.9534 9.62518 11.066 9.55409 11.24C9.5529 11.2429 9.55178 11.2458 9.55065 11.2487L8.37725 14.3297C8.30046 14.5313 8.40165 14.757 8.60325 14.8338C8.80487 14.9106 9.03056 14.8094 9.10734 14.6077L9.30375 14.092H10.6498L10.8441 14.6066C10.9202 14.8085 11.1456 14.9103 11.3475 14.8342C11.5493 14.7581 11.6512 14.5327 11.575 14.3308ZM9.60128 13.3108L9.97987 12.3168L10.355 13.3108H9.60128Z" fill="#3E3E3E"/>
<path d="M3.04475 12.8433L4.32041 11.6707C4.47925 11.5247 4.48966 11.2777 4.34366 11.1188C4.19766 10.96 3.95056 10.9496 3.79172 11.0956L2.76563 12.0387V11.3438C2.76563 11.128 2.59072 10.9531 2.375 10.9531C2.15928 10.9531 1.98438 11.128 1.98438 11.3438V14.4688C1.98438 14.6845 2.15928 14.8594 2.375 14.8594C2.59072 14.8594 2.76563 14.6845 2.76563 14.4688V13.6596L3.89575 14.7499C4.051 14.8997 4.29831 14.8952 4.44809 14.74C4.59788 14.5847 4.59344 14.3374 4.43819 14.1876L3.04475 12.8433Z" fill="#3E3E3E"/>
</g>
<defs>
<clipPath id="clip0_2014_18691">
<rect width="16" height="16" fill="white" transform="translate(0 0.5)"/>
</clipPath>
</defs>
</svg>
