<svg width="13" height="14" viewBox="0 0 13 14" fill="none" xmlns="http://www.w3.org/2000/svg">
<path d="M9.27654 6.7946C9.66694 6.7386 10.0669 6.6666 10.4717 6.6266C10.9341 6.5802 11.3997 6.5578 11.8637 6.5306C11.9949 6.5226 12.1037 6.569 12.1629 6.7018C12.2349 6.8618 12.1805 6.9658 12.0061 6.9706C11.7405 6.9786 11.4749 6.9754 11.2109 6.9834C10.5837 7.001 9.96454 7.0778 9.32294 7.2138C9.45574 7.9466 9.37574 8.6538 9.07494 9.337C9.31974 9.5178 9.54854 9.6826 9.77254 9.857C9.82854 9.9002 9.88294 9.9658 9.90214 10.0314C9.92134 10.0954 9.92134 10.2058 9.88294 10.2346C9.82694 10.2778 9.72294 10.2922 9.65094 10.273C9.57414 10.2522 9.51334 10.177 9.44454 10.1274C9.27014 10.0026 9.09574 9.8778 8.89414 9.7354C8.60934 10.3738 8.09094 10.7242 7.56294 11.0458C7.68774 11.577 7.80614 12.0826 7.92294 12.5898C8.00454 12.9418 8.08134 13.2938 8.16294 13.6442C8.19014 13.761 8.20294 13.873 8.09254 13.9546C7.93894 14.0682 7.76294 13.9946 7.70854 13.7818C7.63494 13.497 7.57734 13.2074 7.51334 12.921C7.41254 12.4762 7.31334 12.0314 7.20774 11.5882C7.18374 11.489 7.13894 11.3946 7.09574 11.2794C6.32774 11.465 5.60934 11.225 4.87494 11.0394C4.82374 11.2666 4.78054 11.4778 4.72934 11.6874C4.67974 11.8906 4.64294 11.921 4.49574 11.9002C4.32454 11.8762 4.23334 11.7866 4.24614 11.6154C4.25734 11.465 4.30374 11.3178 4.33094 11.169C4.35334 11.049 4.36934 10.929 4.38534 10.8186C3.96614 10.553 3.56774 10.3018 3.14054 10.0314C2.98534 10.1674 2.80294 10.3146 2.63334 10.4778C2.23654 10.8602 1.84454 11.2474 1.45094 11.6346C1.28934 11.793 1.04934 11.7786 0.948537 11.5978C0.892537 11.4986 0.889337 11.409 0.986937 11.3194C1.52614 10.825 2.06054 10.3258 2.59654 9.8266C2.66534 9.7626 2.72934 9.6922 2.80614 9.6138C2.66694 9.3434 2.50854 9.0746 2.39014 8.7898C2.27494 8.5114 2.19974 8.217 2.09894 7.9034C1.80454 7.9258 1.49894 7.969 1.20294 8.0714C1.13094 8.0954 1.06054 8.1226 0.990137 8.1514C0.657337 8.2826 0.590137 8.2538 0.410937 7.881C0.490937 7.8346 0.569337 7.7674 0.660537 7.7418C0.969337 7.6538 1.28454 7.5818 1.59494 7.4986C1.76774 7.4522 1.93574 7.3914 2.07814 7.345C2.15654 6.9546 2.22694 6.6026 2.30214 6.2298C1.79654 5.7194 1.30374 5.1674 0.695737 4.7338C0.540537 4.6234 0.398137 4.4986 0.249337 4.3802C0.226937 4.3626 0.202937 4.345 0.183737 4.3242C0.103737 4.2362 0.0189368 4.1194 0.121337 4.0282C0.190137 3.9658 0.332537 3.9578 0.434937 3.9722C0.506937 3.9818 0.570937 4.0682 0.634937 4.1226C1.23974 4.6282 1.86374 5.113 2.40294 5.6906C2.43494 5.7242 2.47654 5.7514 2.54054 5.8042C2.87494 5.2474 3.32294 4.809 3.91654 4.5034C3.74694 4.2058 3.59014 3.9274 3.43174 3.649C3.32294 3.4586 3.31814 3.3658 3.41254 3.2938C3.52934 3.2042 3.72934 3.241 3.83654 3.3994C3.95814 3.5802 4.04934 3.7802 4.15494 3.9706C4.19974 4.0522 4.24774 4.1322 4.30374 4.2282C4.94854 3.9178 5.57734 3.617 6.32614 3.841C6.41574 3.4586 6.49574 3.1114 6.57894 2.7626C6.70214 2.2458 6.82694 1.7274 6.95174 1.2106C6.95814 1.1834 6.96614 1.1562 6.97574 1.129C7.03174 0.972196 7.12134 0.911396 7.24614 0.944996C7.37094 0.978596 7.45254 1.1146 7.41574 1.2586C7.34374 1.5338 7.25894 1.8058 7.18374 2.081C7.02374 2.657 6.86374 3.233 6.70534 3.809C6.69574 3.8442 6.69574 3.8842 6.68934 3.9434C7.27334 4.1738 7.80294 4.4986 8.26534 4.9658C8.33734 4.905 8.39654 4.849 8.46214 4.801C8.61574 4.6906 8.76774 4.577 8.92774 4.4778C9.03654 4.4106 9.14694 4.4346 9.24134 4.521C9.36774 4.6362 9.35494 4.7386 9.21254 4.8362C8.99334 4.9834 8.78054 5.1402 8.58214 5.281C8.82214 5.7962 9.04134 6.2778 9.27654 6.7946ZM8.97094 7.8554C8.93094 7.2442 8.75334 6.5162 8.59654 6.1674C8.18374 5.2506 7.47494 4.6554 6.55494 4.2906C6.07014 4.097 5.59014 4.1018 5.12614 4.3514C4.77574 4.5402 4.42694 4.7354 4.08294 4.9338C3.07974 5.5114 2.41254 6.8554 2.66214 8.1466C2.81094 8.9178 3.14534 9.585 3.84454 10.0122C4.50374 10.4154 5.19494 10.7434 5.95814 10.8986C6.31174 10.969 6.65734 10.9738 6.98694 10.8058C7.15654 10.7194 7.32134 10.6266 7.48294 10.5274C8.52934 9.881 8.91174 8.8826 8.97094 7.8554Z" fill="#3E3E3E"/>
<path d="M5.66035 7.38426C5.44275 7.37786 5.35155 7.24986 5.44915 7.06586C5.62355 6.74106 5.81075 6.42426 6.00595 6.11226C6.22035 5.76666 6.44915 5.43066 6.67315 5.09146C6.77075 4.94266 6.87955 4.94586 6.97875 5.09466C7.06995 5.23386 7.04435 5.35866 6.95795 5.48986C6.73715 5.82106 6.51475 6.15066 6.30515 6.48666C6.15475 6.72666 6.02195 6.97626 5.88435 7.22426C5.83315 7.32026 5.78515 7.41146 5.66035 7.38426Z" fill="#3E3E3E"/>
<path d="M6.76034 7.72502C6.38914 7.73622 6.28834 7.59702 6.44834 7.30262C6.69954 6.83702 6.96834 6.37942 7.22914 5.91862C7.27714 5.83222 7.33954 5.72662 7.44034 5.80342C7.51874 5.86262 7.57474 5.97782 7.59874 6.07702C7.61314 6.13462 7.55074 6.21462 7.51554 6.28182C7.26594 6.76022 7.01474 7.23702 6.76034 7.72502Z" fill="#3E3E3E"/>
<path d="M7.30428 8.12199C7.26908 8.11879 7.20028 8.12359 7.13948 8.10439C6.97628 8.04999 6.92348 7.92999 7.00988 7.77319C7.11388 7.58279 7.22908 7.39719 7.35228 7.21639C7.49148 7.01319 7.64348 6.81959 7.78908 6.61959C7.84668 6.54119 7.89948 6.45959 8.01788 6.51559C8.13788 6.57159 8.22748 6.73159 8.18428 6.84039C8.15228 6.91879 8.10268 6.98919 8.05308 7.05959C7.80828 7.40839 7.56348 7.75559 7.30428 8.12199Z" fill="#3E3E3E"/>
</svg>
