<svg width="32.000000" height="32.000000" viewBox="0 0 32 32" fill="none" xmlns="http://www.w3.org/2000/svg" xmlns:xlink="http://www.w3.org/1999/xlink">
	<desc>
			Created with Pixso.
	</desc>
	<defs>
		<clipPath id="clip2_2671">
			<rect id="categories icon" width="32.000000" height="32.000000" fill="white" fill-opacity="0"/>
		</clipPath>
	</defs>
	<rect id="categories icon" width="32.000000" height="32.000000" fill="#FFFFFF" fill-opacity="0"/>
	<g clip-path="url(#clip2_2671)">
		<path id="svg" d="M28.3326 23.7733C27.6871 20.463 27.6044 17.0258 27.6154 14.1016C27.6209 12.1816 27.6761 10.3113 28.3216 8.61743C28.4044 8.39673 28.4982 8.17603 28.5919 7.94983C29.0388 6.89062 29.4968 5.7926 29.0885 4.68372C28.7685 3.8175 27.9023 3.18298 26.9809 3.13879C26.1202 3.10022 25.2595 3.59131 24.8292 4.33606C24.272 4.09888 23.6706 4.0437 23.1685 4.20361C22.6002 4.38574 22.203 4.74988 22.043 5.20776C22.0319 5.20227 22.0154 5.19678 22.0044 5.19128C21.4747 5.03125 20.6857 4.90442 19.9133 5.21887C19.2678 5.47815 18.7823 6.0354 18.6278 6.64783C18.225 6.60913 17.8223 6.63672 17.4471 6.74707C16.8016 6.93469 16.1119 7.50854 15.6595 8.34155C15.6595 8.20361 15.6595 8.06018 15.665 7.92224C15.6926 6.76917 15.7147 5.58301 14.9313 4.7002C14.3134 4.01062 13.2761 3.74023 12.4044 4.03821C11.5823 4.31958 10.9644 5.08643 10.8375 5.94165C10.2306 5.92505 9.6568 6.09058 9.24298 6.43262C8.78503 6.81335 8.54779 7.29333 8.56439 7.7843C8.55334 7.7843 8.5368 7.7843 8.52576 7.7843C7.974 7.82849 7.19055 8.005 6.58917 8.57886C6.0816 9.05884 5.83331 9.75403 5.91608 10.3774C5.52435 10.4878 5.16577 10.6643 4.85675 10.9071C3.95197 11.6133 3.58228 12.8878 3.9906 13.8644C3.99609 13.8699 4.00159 13.8754 4.00714 13.8809C3.99609 13.892 3.97955 13.8975 3.96851 13.9084C3.54919 14.2395 3.01404 14.8022 2.83746 15.5802C2.67749 16.303 2.80988 16.954 3.19055 17.3788C3.09125 17.5719 3.00299 17.765 2.94781 17.9747C2.60022 19.2327 3.07471 20.6726 4.11194 21.4727C4.11749 21.4781 4.12299 21.4727 4.12848 21.4781C4.0899 21.6216 4.05127 21.765 4.01813 21.9141C3.91882 22.3774 3.85266 22.8685 4.01263 23.343C4.16711 23.8009 4.53125 24.2036 5.03882 24.4795C5.40851 24.6781 5.72296 24.772 6.0816 24.8657L6.0816 24.8933C6.22504 25.7981 6.72162 26.543 7.40576 26.8795C7.7478 27.0505 8.11194 27.1112 8.44849 27.1112C8.72986 27.1112 8.9837 27.0671 9.20435 27.0175C9.24847 27.1554 9.30365 27.2933 9.38092 27.4258C9.73956 28.0382 10.4623 28.4464 11.312 28.5127C11.3782 28.5182 11.4499 28.5182 11.5216 28.5182C12.1506 28.5182 12.9395 28.3306 13.5519 28.176C13.6733 28.314 13.8057 28.4464 13.9658 28.5513C14.2692 28.7554 14.6443 28.8602 15.0416 28.8602C15.1464 28.8602 15.2568 28.8547 15.3671 28.8381C15.7643 28.783 16.1671 28.6285 16.603 28.3691C17.0499 28.5403 17.5023 28.6285 17.9382 28.6285C18.2085 28.6285 18.4733 28.5953 18.7271 28.5292C19.5878 28.2975 20.1506 27.8947 20.4154 27.3209C20.4871 27.354 20.5644 27.3816 20.6416 27.4092C20.8071 27.4589 20.9781 27.481 21.1437 27.481C21.4305 27.481 21.7064 27.4037 21.9326 27.2657C22.512 27.8064 23.1961 28.1595 23.8912 28.2423C24.0513 28.2588 24.2057 28.2699 24.3547 28.2699C25.0168 28.2699 25.5244 28.0823 25.8995 27.7292C25.9602 27.7843 26.0154 27.8451 26.0816 27.8947C26.3906 28.132 26.7437 28.2588 27.0858 28.2588C27.2513 28.2588 27.4113 28.2312 27.5602 28.1705C27.9961 27.994 28.3271 27.5747 28.4982 26.9789C28.7795 25.9912 28.5809 24.9816 28.3878 24.0106L28.3326 23.7733ZM23.345 4.78296C23.7589 4.65051 24.2609 4.7113 24.7299 4.95398C25.1216 5.15259 25.4857 5.46155 25.9161 5.94714C25.9382 5.96924 25.9658 5.98572 25.9878 6.00232C25.2375 5.97473 24.5312 6.02441 23.8636 6.14026C23.8416 6.11267 23.814 6.08508 23.7864 6.06848C23.3947 5.8313 23.003 5.6106 22.5947 5.42847C22.7382 5.01465 23.1961 4.83264 23.345 4.78296ZM20.134 5.78711C20.6085 5.59399 21.2043 5.59399 21.8223 5.77612C22.2361 5.90295 22.6333 6.09607 23.0306 6.32227C22.1037 6.57605 21.2651 6.95679 20.5202 7.44226C20.5037 7.34302 19.665 6.89612 19.2347 6.77466C19.3395 6.35535 19.6761 5.97473 20.134 5.78711ZM17.6127 7.33752C18.3575 7.11682 19.2568 7.29883 19.9961 7.8009C18.3078 9.06433 17.1382 10.8188 16.465 12.5513C16.1727 11.7181 15.9299 10.885 15.7864 10.0409C15.8802 8.65613 16.785 7.5802 17.6127 7.33752ZM9.62366 6.9071C9.96021 6.63123 10.4512 6.50439 10.9754 6.55408C11.4113 6.59814 11.8636 6.74707 12.443 7.04504C12.4706 7.05603 12.4926 7.06165 12.5202 7.06714C11.8361 7.30994 11.1961 7.61328 10.6113 7.97742C10.5782 7.96094 10.545 7.94434 10.5064 7.93884C10.054 7.86707 9.60712 7.8009 9.16577 7.7843C9.13818 7.34302 9.49677 7.01196 9.62366 6.9071ZM7.00299 9.02026C7.37262 8.66711 7.92987 8.44641 8.56989 8.39124C9.00024 8.35815 9.44159 8.39124 9.89404 8.45752C9.15472 9.01465 8.50366 9.67126 7.96301 10.4161C7.89679 10.2671 6.96991 10.223 6.52301 10.2671C6.47333 9.84229 6.64435 9.3623 7.00299 9.02026ZM7.67059 26.3389C7.16296 26.0851 6.79333 25.5112 6.67749 24.7996C6.56714 24.121 6.68298 23.4092 6.79333 22.7195C6.82092 22.554 6.70508 22.3995 6.53955 22.3719C6.37402 22.3444 6.21954 22.4602 6.19196 22.6257C6.11469 23.1278 6.02643 23.6741 6.03192 24.2257C5.78369 24.1541 5.56299 24.0768 5.32025 23.9443C4.94507 23.7402 4.68573 23.4589 4.58093 23.1499C4.47058 22.8134 4.52576 22.4216 4.60852 22.0464C4.79059 21.2078 5.07196 20.3967 5.45264 19.6299C5.52435 19.481 5.46368 19.2988 5.3147 19.2216C5.16577 19.1444 4.9837 19.2106 4.90643 19.3595C4.66919 19.8395 4.47058 20.3361 4.30505 20.8436C3.58228 20.1705 3.25677 19.1002 3.52161 18.1458C3.80847 17.1195 4.74646 16.314 5.80573 16.1926C5.97125 16.1705 6.09265 16.0216 6.07056 15.8561C6.04852 15.6906 5.89404 15.5692 5.73401 15.5913C4.8678 15.6906 4.07886 16.165 3.53815 16.8381C3.34503 16.5127 3.33954 16.0768 3.4223 15.7181C3.56024 15.1112 3.99609 14.6643 4.33813 14.3885C4.80164 14.0244 5.35333 13.765 5.883 13.5112C6.03748 13.4396 6.09814 13.2574 6.02643 13.1085C5.95471 12.954 5.77264 12.8933 5.62366 12.9651C5.25403 13.1416 4.87885 13.3237 4.51471 13.5388C4.26642 12.816 4.55884 11.9113 5.22089 11.3926C5.83331 10.9182 6.73816 10.7527 7.60437 10.9513C6.94781 11.9995 6.48438 13.1913 6.24158 14.5044C5.60162 18.0188 6.6499 21.7264 8.87885 24.1541C8.82367 24.1595 8.763 24.1705 8.71332 24.2092C8.58093 24.3085 8.55334 24.5016 8.65814 24.634C8.92297 24.9761 8.96161 25.4506 9.01123 25.9526C9.02783 26.1127 9.04437 26.2726 9.06641 26.4326C8.68573 26.5209 8.14508 26.576 7.67059 26.3389ZM11.3561 27.9058C10.7051 27.8561 10.1589 27.5581 9.90503 27.1168C9.70642 26.7747 9.66779 26.3444 9.62366 25.892C9.58508 25.4672 9.54089 25.0312 9.36987 24.634C9.5354 24.7885 9.70093 24.932 9.87195 25.0754C10.694 25.7374 11.6044 26.2174 12.5809 26.5209C12.5147 26.6202 12.5147 26.7582 12.5864 26.863L13.1492 27.652C12.5588 27.7899 11.8416 27.9443 11.3561 27.9058ZM20.8016 26.8188C20.4706 26.7195 20.1782 26.5154 19.8416 26.2285C19.7147 26.1182 19.5216 26.1403 19.4113 26.2671C19.3009 26.394 19.3174 26.5872 19.4499 26.6975C19.5823 26.8079 19.7202 26.9126 19.8636 27.012C19.6871 27.4423 19.2678 27.7512 18.5616 27.9388C17.9382 28.1044 17.2043 28.0106 16.4982 27.6741C16.3492 27.6023 16.1671 27.663 16.0899 27.8175C16.0678 27.8671 16.0623 27.9167 16.0623 27.9664C15.7809 28.1099 15.5161 28.2036 15.2678 28.2368C14.9037 28.2864 14.5506 28.2202 14.2913 28.0492C14.0595 27.8947 13.8774 27.6354 13.7009 27.3926L13.2043 26.6919C13.8499 26.8409 14.523 26.9237 15.2181 26.9237C16.6857 26.9237 18.2471 26.5872 19.8471 25.9196C20.0016 25.8533 20.0733 25.6768 20.0126 25.5223C19.9464 25.3678 19.7699 25.2961 19.6154 25.3568C16.0457 26.8574 12.7189 26.5872 10.2526 24.601C7.52161 22.405 6.15332 18.394 6.84851 14.6091C7.47192 11.194 9.70093 8.62292 12.9561 7.55811C13.1161 7.50854 13.2043 7.33191 13.1492 7.172C13.0995 7.02295 12.9506 6.9458 12.8016 6.97327C12.8182 6.95129 12.8402 6.93469 12.8513 6.9126C12.9285 6.76367 12.8678 6.58154 12.7189 6.50439C12.2333 6.2561 11.8251 6.10156 11.4333 6.0188C11.5327 5.38989 11.9906 4.82715 12.592 4.62292C13.243 4.40234 14.0099 4.60095 14.4678 5.11401C15.0912 5.8147 15.0692 6.88501 15.0471 7.91675C15.0416 8.16504 15.0361 8.41333 15.0416 8.65613C15.0637 10.3499 16.0016 13.125 16.4374 14.234C17.5244 16.9816 18.8651 20.1871 20.7078 23.0726L20.8347 23.2712C21.3312 24.0492 21.8499 24.8492 21.9326 25.7264C21.9547 25.925 21.9658 26.4105 21.6844 26.6754C21.4913 26.863 21.1437 26.9182 20.8016 26.8188ZM27.9023 26.8079C27.8471 26.9954 27.6816 27.4534 27.323 27.6023C27.0692 27.7072 26.7216 27.6299 26.4402 27.4147C26.1699 27.2051 25.9713 26.9016 25.7616 26.5154C25.6788 26.3665 25.4968 26.3113 25.3478 26.394C25.1989 26.4768 25.1437 26.6588 25.2264 26.8079C25.3092 26.9568 25.3975 27.1057 25.4968 27.2548C25.1768 27.5857 24.6747 27.7236 23.952 27.6409C23.3837 27.5747 22.8264 27.2823 22.3409 26.8298C22.5175 26.5209 22.5947 26.1237 22.5506 25.6713C22.4512 24.6505 21.894 23.7843 21.3588 22.9458L21.2319 22.7471C19.4167 19.9058 18.0816 16.7389 17.0112 14.0133C16.9395 13.8257 16.8678 13.6382 16.7961 13.4506C17.8554 10.074 20.9671 6.30017 26.214 6.61475C26.3851 6.62573 26.5285 6.4989 26.534 6.32776C26.545 6.17334 26.4347 6.04089 26.2858 6.01331C26.3078 6.00232 26.3354 5.99121 26.3519 5.97473C26.4788 5.86438 26.4899 5.67126 26.3795 5.54431C26.0209 5.13611 25.6954 4.84363 25.3644 4.61743C25.6899 4.07129 26.3243 3.71265 26.9533 3.74573C27.6375 3.77881 28.283 4.2478 28.5202 4.89331C28.8458 5.77612 28.4319 6.76367 28.0292 7.71265C27.9299 7.94434 27.8361 8.17053 27.7478 8.39673C27.0692 10.1898 27.0085 12.1154 27.003 14.0961C26.9974 17.0479 27.0747 20.5237 27.7368 23.8892L27.7809 24.121C27.9575 25.0258 28.1451 25.9636 27.9023 26.8079Z" fill="#3E3E3E" fill-opacity="1.000000" fill-rule="nonzero"/>
		<path id="svg" d="M23.9814 8.50171C24.158 8.5238 24.3014 8.40234 24.3235 8.23682C24.3455 8.07129 24.2242 7.91687 24.0587 7.90027C22.6793 7.72925 21.2449 8.35266 20.3952 9.47827C19.9428 10.0741 19.678 10.7693 19.4186 11.4369L18.8228 12.9762C18.7621 13.1306 18.8394 13.3073 18.9993 13.3679C19.0324 13.3844 19.071 13.39 19.1097 13.39C19.2311 13.39 19.3469 13.3182 19.3965 13.1969L19.9924 11.6576C20.2352 11.0286 20.489 10.3776 20.8862 9.8479C21.6035 8.88794 22.8228 8.36377 23.9814 8.50171Z" fill="#3E3E3E" fill-opacity="1.000000" fill-rule="nonzero"/>
		<path id="svg" d="M26.1979 24.3417C25.1387 24.4244 24.0407 24.1873 23.1138 23.6742C22.9704 23.5969 22.7828 23.6466 22.7 23.7955C22.6172 23.9445 22.6724 24.1266 22.8214 24.2094C23.7207 24.7003 24.7579 24.9652 25.7897 24.9652C25.9387 24.9652 26.0931 24.9597 26.2421 24.9486C26.4076 24.9376 26.5345 24.7886 26.5235 24.6232C26.5125 24.452 26.3635 24.3307 26.1979 24.3417Z" fill="#3E3E3E" fill-opacity="1.000000" fill-rule="nonzero"/>
		<path id="svg" d="M25.1793 19.3257C25.4385 19.9988 25.2234 20.8264 24.6772 21.2898C24.5503 21.4001 24.5338 21.5933 24.6441 21.7202C24.7048 21.7919 24.7875 21.825 24.8758 21.825C24.9475 21.825 25.0137 21.803 25.0744 21.7533C25.8137 21.1243 26.0951 20.0099 25.7476 19.105C25.6592 18.8678 25.5323 18.6526 25.4109 18.4429C25.2068 18.0844 25.0082 17.7478 25.0468 17.4056C25.0744 17.1299 25.251 16.8705 25.4385 16.5946C25.5269 16.4678 25.6151 16.3408 25.6924 16.2085C26.2827 15.1823 26.1779 13.9409 26.0289 12.854L26.0123 12.7491C25.8745 11.745 25.7365 10.7023 26.1061 9.81946C26.1724 9.66504 26.0951 9.4884 25.9406 9.42224C25.7861 9.35608 25.6096 9.43323 25.5434 9.58777C25.113 10.625 25.262 11.7505 25.4109 12.8374L25.4276 12.9423C25.5599 13.9243 25.6592 15.0498 25.1627 15.9105C25.0965 16.0264 25.0137 16.1422 24.9365 16.2581C24.7213 16.567 24.4841 16.9202 24.4399 17.3505C24.3848 17.8857 24.6385 18.327 24.8813 18.752C24.9972 18.9506 25.1075 19.1381 25.1793 19.3257Z" fill="#3E3E3E" fill-opacity="1.000000" fill-rule="nonzero"/>
		<path id="svg" d="M8.41754 16.1881C8.41754 16.3535 8.55548 16.4915 8.72101 16.4915C8.88654 16.4915 9.02448 16.3535 9.02448 16.1825L9.01343 14.5328C9.00793 13.8597 9.00238 13.1646 9.17896 12.519C9.49896 11.366 10.4369 10.4281 11.5734 10.1356C11.739 10.0916 11.8328 9.92603 11.7941 9.76599C11.75 9.60596 11.59 9.5011 11.4244 9.54529C10.0838 9.89282 8.97479 10.9963 8.59412 12.3591C8.39551 13.0818 8.401 13.8212 8.401 14.5385L8.41754 16.1881Z" fill="#3E3E3E" fill-opacity="1.000000" fill-rule="nonzero"/>
		<path id="svg" d="M14.5288 24.105C13.5137 24.4801 12.2447 23.9615 11.7592 22.9739C11.6653 22.7864 11.5936 22.5822 11.5219 22.3615C11.3619 21.9036 11.2019 21.4236 10.8157 21.0759C10.5068 20.7946 10.1316 20.6677 9.77295 20.5463C9.50812 20.458 9.25983 20.3698 9.05573 20.2318C8.79089 20.0498 8.59778 19.7408 8.53156 19.3767C8.46539 19.007 8.53156 18.6428 8.71918 18.3726C8.81299 18.2346 8.77985 18.047 8.64191 17.9478C8.50397 17.8539 8.31641 17.887 8.2171 18.0249C7.93573 18.4277 7.83643 18.9629 7.93018 19.4871C8.02399 20.0056 8.31091 20.458 8.70813 20.7339C8.98401 20.9215 9.28192 21.0208 9.57434 21.1201C9.88879 21.225 10.1868 21.3297 10.4019 21.5228C10.6722 21.7711 10.8047 22.1519 10.9426 22.5546C11.0198 22.7808 11.1026 23.0126 11.2075 23.2388C11.6929 24.2263 12.7468 24.8387 13.8116 24.8387C14.1205 24.8387 14.4351 24.7836 14.733 24.6732C14.8929 24.6125 14.9702 24.4415 14.915 24.2815C14.8654 24.127 14.6888 24.0498 14.5288 24.105Z" fill="#3E3E3E" fill-opacity="1.000000" fill-rule="nonzero"/>
		<path id="svg" d="M19.4511 24.0559C18.4966 24.5194 17.3877 24.7014 16.3394 24.5691C16.1849 24.547 16.0194 24.6683 15.9973 24.8339C15.9753 24.9994 16.0967 25.1539 16.2621 25.1759C16.5104 25.2091 16.7642 25.2256 17.018 25.2256C17.9449 25.2256 18.8829 25.016 19.7159 24.6077C19.8649 24.536 19.9312 24.3539 19.8594 24.1995C19.7822 24.0449 19.6056 23.9843 19.4511 24.0559Z" fill="#3E3E3E" fill-opacity="1.000000" fill-rule="nonzero"/>
		<path id="svg" d="M16.6611 19.7682C17.1467 20.2979 17.257 21.1476 16.9149 21.782C16.8377 21.931 16.8929 22.113 17.0418 22.1958C17.0859 22.2179 17.1356 22.2289 17.1852 22.2289C17.2956 22.2289 17.4005 22.1682 17.4556 22.069C17.9136 21.2137 17.7646 20.0717 17.1135 19.36C16.9425 19.1724 16.7494 19.0179 16.5563 18.8689C16.2308 18.6096 15.9274 18.3668 15.8336 18.0358C15.7563 17.771 15.828 17.462 15.8998 17.142C15.9329 16.993 15.9659 16.8386 15.988 16.6896C16.1646 15.5199 15.6074 14.3999 15.0721 13.4454L15.0225 13.3572C14.5259 12.4745 14.0129 11.5586 14.0294 10.593C14.0349 10.4275 13.897 10.2841 13.7314 10.2841C13.588 10.2786 13.4225 10.4165 13.4225 10.582C13.4005 11.7075 13.9577 12.6952 14.4929 13.6552L14.5425 13.7434C15.028 14.6096 15.5356 15.6193 15.3867 16.6013C15.3646 16.7338 15.337 16.8717 15.3039 17.0042C15.2211 17.3683 15.1218 17.7876 15.2432 18.2013C15.3922 18.72 15.7894 19.0344 16.1701 19.3434C16.3522 19.4813 16.5232 19.6193 16.6611 19.7682Z" fill="#3E3E3E" fill-opacity="1.000000" fill-rule="nonzero"/>
	</g>
</svg>
