<svg width="32.000000" height="32.000000" viewBox="0 0 32 32" fill="none" xmlns="http://www.w3.org/2000/svg" xmlns:xlink="http://www.w3.org/1999/xlink">
	<desc>
			Created with Pixso.
	</desc>
	<defs>
		<clipPath id="clip2_2764">
			<rect id="Property 1=популярное" width="32.000000" height="32.000000" fill="white" fill-opacity="0"/>
		</clipPath>
	</defs>
	<rect id="Property 1=популярное" width="32.000000" height="32.000000" fill="#FFFFFF" fill-opacity="0"/>
	<g clip-path="url(#clip2_2764)">
		<path id="svg" d="M6.75891 15.7722C6.81812 15.7971 6.87958 15.8088 6.94 15.8088C7.12317 15.8088 7.29718 15.7008 7.37244 15.5214C8.49731 12.84 10.1354 10.8552 10.789 10.1246L12.9543 11.8568C13.0707 11.95 13.2245 11.9821 13.3688 11.9435C13.5128 11.9047 13.6299 11.7997 13.684 11.6606L16.8499 3.51978C17.7966 5.11523 19.9583 9.05847 21.8205 14.645C21.8719 14.7992 21.9994 14.9156 22.1575 14.953C22.3156 14.9904 22.4818 14.9431 22.5966 14.8282L23.5316 13.8933C23.7147 13.7102 23.7147 13.4135 23.5316 13.2303C23.3486 13.0474 23.0518 13.0474 22.8688 13.2303L22.4666 13.6326C20.0209 6.56824 17.1736 2.25671 17.1442 2.21252C17.0472 2.06714 16.8773 1.98804 16.7034 2.00659C16.5295 2.02551 16.3806 2.13965 16.3173 2.30273L13.0415 10.7261L11.0349 9.12073C10.8483 8.97144 10.5794 8.98645 10.4106 9.15527C10.3132 9.25269 8.00891 11.5808 6.50793 15.1587C6.40778 15.3973 6.52014 15.6721 6.75891 15.7722Z" fill="#3E3E3E" fill-opacity="1.000000" fill-rule="nonzero"/>
		<path id="svg" d="M25.7423 14.7053C25.4932 14.7758 25.3484 15.0348 25.4188 15.2839C26.0055 17.3583 26.3029 19.2849 26.3029 21.0104C26.3029 26.5532 21.7934 31.0627 16.2505 31.0627C14.5032 31.0627 12.7823 30.6077 11.2742 29.7467C9.81091 28.9114 8.57001 27.7111 7.68561 26.2756C7.54987 26.0552 7.26099 25.9866 7.04065 26.1224C6.82031 26.2583 6.75165 26.547 6.88751 26.7675C7.854 28.3361 9.21014 29.6478 10.8094 30.5608C12.4589 31.5024 14.3403 32.0002 16.2505 32.0002C22.3104 32.0002 27.2404 27.0702 27.2404 21.0103C27.2404 19.1986 26.931 17.1862 26.3209 15.0288C26.2505 14.7797 25.9913 14.6349 25.7423 14.7053Z" fill="#3E3E3E" fill-opacity="1.000000" fill-rule="nonzero"/>
		<path id="svg" d="M11.2098 19.2571C11.2098 17.7555 9.98816 16.5338 8.48657 16.5338C7.71039 16.5338 6.99005 16.8627 6.48248 17.4235C5.97498 16.8628 5.25464 16.5338 4.47852 16.5338C2.97687 16.5338 1.75525 17.7555 1.75525 19.2571C1.75525 20.575 2.41913 21.9159 3.67505 23.1348C4.6709 24.1011 5.79718 24.7522 6.31128 24.954C6.36633 24.9756 6.42444 24.9865 6.48254 24.9865C6.54071 24.9865 6.59882 24.9756 6.65387 24.954C7.16797 24.7522 8.29431 24.1011 9.2901 23.1348C10.546 21.9159 11.2098 20.575 11.2098 19.2571ZM6.48242 24.0062C5.43597 23.5078 2.69263 21.6007 2.69263 19.2571C2.69263 18.2725 3.49371 17.4713 4.47839 17.4713C5.14874 17.4713 5.75635 17.8488 6.06433 18.4563C6.1441 18.6139 6.30579 18.7131 6.48242 18.7131C6.65906 18.7131 6.82074 18.6139 6.90057 18.4563C7.20844 17.8488 7.8161 17.4713 8.48651 17.4713C9.47119 17.4713 10.2723 18.2725 10.2723 19.2571C10.2723 21.6007 7.52893 23.5079 6.48242 24.0062Z" fill="#3E3E3E" fill-opacity="1.000000" fill-rule="nonzero"/>
		<path id="svg" d="M28.0547 7.01306C27.47 7.01306 26.9247 7.24463 26.5222 7.64392C26.1197 7.24463 25.5744 7.01306 24.9897 7.01306C23.7806 7.01306 22.7969 7.9967 22.7969 9.20593C22.7969 11.5437 25.4019 13.2925 26.351 13.665C26.4059 13.6866 26.4641 13.6974 26.5222 13.6974C26.5803 13.6974 26.6384 13.6866 26.6935 13.665C27.6425 13.2925 30.2475 11.5437 30.2475 9.20593C30.2475 7.9967 29.2638 7.01306 28.0547 7.01306ZM26.5223 12.7151C25.7108 12.3132 23.7344 10.9128 23.7344 9.20581C23.7344 8.51367 24.2975 7.95044 24.9897 7.95044C25.4606 7.95044 25.8876 8.21594 26.1041 8.64331C26.184 8.8009 26.3456 8.90015 26.5223 8.90015C26.6989 8.90015 26.8605 8.8009 26.9404 8.64331C27.1569 8.21594 27.5839 7.95044 28.0547 7.95044C28.7469 7.95044 29.3101 8.51367 29.3101 9.20581C29.31 10.9128 27.3336 12.3132 26.5223 12.7151Z" fill="#3E3E3E" fill-opacity="1.000000" fill-rule="nonzero"/>
		<path id="svg" d="M11.3186 5.76782C11.3737 5.78943 11.4318 5.80029 11.4899 5.80029C11.548 5.80029 11.6062 5.78943 11.6613 5.76782C12.4764 5.44775 14.7142 3.94324 14.7142 1.92761C14.7142 0.864746 13.8495 0 12.7867 0C12.2967 0 11.8382 0.184937 11.4899 0.506104C11.1417 0.184937 10.6832 0 10.1932 0C9.13031 0 8.26562 0.864746 8.26562 1.92761C8.26562 3.94324 10.5034 5.44775 11.3186 5.76782ZM10.1932 0.9375C10.5643 0.9375 10.9009 1.14697 11.0718 1.48413C11.1516 1.64172 11.3133 1.74109 11.4899 1.74109C11.6666 1.74109 11.8282 1.64172 11.9081 1.48413C12.0789 1.14697 12.4156 0.9375 12.7866 0.9375C13.3326 0.9375 13.7767 1.38159 13.7767 1.92761C13.7767 3.3175 12.1807 4.46497 11.4899 4.81653C10.7991 4.46497 9.20312 3.3175 9.20312 1.92761C9.20312 1.38159 9.64734 0.9375 10.1932 0.9375Z" fill="#3E3E3E" fill-opacity="1.000000" fill-rule="nonzero"/>
		<path id="svg" d="M15.4929 20.8995C15.601 20.9716 15.7342 20.9956 15.8605 20.9657C15.987 20.9358 16.0954 20.8549 16.1599 20.7421L17.8154 17.8451C18.0912 18.2251 18.4709 18.7893 18.8484 19.4814C18.9724 19.7087 19.2571 19.7925 19.4844 19.6686C19.7116 19.5446 19.7954 19.2599 19.6714 19.0326C18.9052 17.6278 18.1448 16.7347 18.1128 16.6975C18.0136 16.5817 17.8645 16.5215 17.7126 16.5359C17.5608 16.5503 17.4255 16.6376 17.3499 16.77L15.595 19.8411L14.5098 19.1176C14.3105 18.9847 14.0432 19.0236 13.8897 19.2075C13.783 19.3356 11.276 22.3687 11.276 24.5177C11.276 27.2626 13.509 29.4955 16.2538 29.4955C18.9987 29.4955 21.2317 27.2625 21.2317 24.5177C21.2317 23.4015 20.8932 21.9774 20.5765 21.0171C20.4955 20.7711 20.2302 20.6377 19.9846 20.7186C19.7388 20.7997 19.6052 21.0648 19.6863 21.3105C19.9801 22.2019 20.2942 23.5125 20.2942 24.5177C20.2942 26.7456 18.4817 28.558 16.2538 28.558C14.0261 28.558 12.2135 26.7455 12.2135 24.5177C12.2135 23.1849 13.5752 21.1399 14.3478 20.1364L15.4929 20.8995Z" fill="#3E3E3E" fill-opacity="1.000000" fill-rule="nonzero"/>
	</g>
</svg>
