<svg width="32.000000" height="32.000000" viewBox="0 0 32 32" fill="none" xmlns="http://www.w3.org/2000/svg" xmlns:xlink="http://www.w3.org/1999/xlink">
	<desc>
			Created with Pixso.
	</desc>
	<defs>
		<clipPath id="clip2_2783">
			<rect id="Property 1=зразы" width="32.000000" height="32.000000" fill="white" fill-opacity="0"/>
		</clipPath>
	</defs>
	<rect id="Property 1=зразы" width="32.000000" height="32.000000" fill="#FFFFFF" fill-opacity="0"/>
	<g clip-path="url(#clip2_2783)">
		<path id="svg" d="M26.5128 9.25879C26.3991 7.48315 25.6456 5.8302 24.3689 4.57227C23.0059 3.22925 21.2014 2.48975 19.2877 2.48975L11.162 2.48975C10.9031 2.48975 10.6933 2.69958 10.6933 2.9585C10.6933 3.21741 10.9031 3.42725 11.162 3.42725L19.2877 3.42725C22.5098 3.42725 25.2048 5.89563 25.5522 9.03992C25.1547 8.97607 24.7473 8.9425 24.3322 8.9425L17.33 8.9425C13.1018 8.9425 9.66199 12.3823 9.66199 16.6104L9.66199 17.8922L8.76709 17.8922C5.2915 17.8922 2.46393 15.0646 2.46393 11.589L2.46393 9.73035C2.45734 6.17786 5.42847 3.31506 8.97449 3.42725C9.23346 3.42725 9.44324 3.21753 9.44324 2.9585C9.44324 2.69958 9.23346 2.48975 8.97449 2.48975C4.91138 2.37659 1.51978 5.66162 1.52643 9.73047L1.52643 11.5891C1.52643 13.1224 2.00592 14.5458 2.82233 15.7177C2.56104 15.7545 2.30408 15.798 2.05353 15.8485C1.72046 15.9156 1.45862 16.161 1.37018 16.489C1.25427 16.8868 1.45483 17.2716 1.77551 17.5063L1.05365 17.9507C0.815308 18.0973 0.662842 18.3412 0.635315 18.6196C0.607727 18.8982 0.709412 19.1671 0.914429 19.3578L1.17432 19.5995C0.773193 19.7327 0.435425 20.0494 0.443787 20.4972C0.441589 20.8496 0.638611 21.16 0.959534 21.3077C1.35272 21.4872 1.74115 21.6334 2.11389 21.7424C2.25171 21.7975 2.27185 21.9281 2.159 22.0332C1.36389 22.7316 0.672913 23.5327 0.160889 24.3497C-0.0491943 24.6851 -0.053894 25.1055 0.148804 25.4469C0.353149 25.7913 0.727173 25.9902 1.12671 25.9663L1.40656 25.9495L1.30005 26.5895C1.24762 26.905 1.33862 27.2238 1.54987 27.4639C1.76105 27.704 2.06525 27.8344 2.38507 27.8234L3.03198 27.7997L2.979 28.0778C2.90424 28.4701 3.05353 28.8671 3.36859 29.1138C3.68091 29.3585 4.09833 29.408 4.45764 29.2429C5.33447 28.8403 6.21832 28.2583 7.01349 27.5597C7.13385 27.4635 7.25812 27.4955 7.30054 27.644C7.3609 28.0355 7.45593 28.4407 7.58319 28.8488C7.68781 29.1846 7.97021 29.42 8.32001 29.4633C8.67102 29.506 9.00452 29.3461 9.18884 29.0439L9.30438 28.8545L9.51056 29.1434C9.67322 29.3713 9.92682 29.507 10.2065 29.5155C10.4847 29.5243 10.7481 29.4043 10.9241 29.1868L11.4576 28.5282C11.649 28.8766 12.0053 29.1254 12.4142 29.0613C12.7508 29.0159 13.028 28.788 13.1375 28.4663C13.3793 27.756 13.5711 27.0031 13.7026 26.2552C14.7832 26.838 16.0186 27.1692 17.33 27.1692L24.3322 27.1692C28.5603 27.1692 32.0001 23.7294 32.0001 19.5011L32.0001 16.6104C32.0001 13.1396 29.6819 10.2006 26.5128 9.25879ZM12.2809 28.0719L11.8787 27.4792C11.7953 27.3564 11.6589 27.2804 11.5106 27.274C11.3617 27.2681 11.22 27.3322 11.1266 27.4474L10.2361 28.5464L9.65527 27.7323C9.56372 27.6041 9.414 27.5314 9.25684 27.5361C9.09943 27.5417 8.95551 27.626 8.87347 27.7604L8.44537 28.462C8.34833 28.1353 8.27496 27.8125 8.22699 27.5012C8.16595 27.1051 7.89331 26.7738 7.51538 26.6367C7.1347 26.4984 6.70929 26.5785 6.40601 26.8455L6.39484 26.8552C5.66687 27.4948 4.86169 28.0258 4.06641 28.3909C3.98181 28.4265 3.88562 28.3665 3.89984 28.2532L4.06281 27.3975C4.08954 27.2573 4.05103 27.1125 3.95801 27.0044C3.86505 26.8961 3.72595 26.8378 3.58527 26.8413L2.35077 26.8865C2.25995 26.8794 2.21997 26.8335 2.22473 26.7433L2.4278 25.5232C2.45123 25.3824 2.40924 25.2386 2.31384 25.1327C2.21832 25.0266 2.07904 24.9702 1.93732 24.9784L1.07037 25.0304C0.956238 25.0298 0.908997 24.9269 0.955261 24.8475C1.41974 24.1063 2.04993 23.3767 2.77765 22.7374C3.08856 22.4719 3.22839 22.0563 3.1402 21.6581C3.05255 21.2615 2.76721 20.9565 2.37695 20.8425C2.07935 20.7555 1.76868 20.6407 1.453 20.5016L2.20374 20.1676C2.34766 20.1036 2.44977 19.9717 2.47565 19.8164C2.50159 19.6611 2.44775 19.5032 2.33246 19.396L1.60004 18.7151L2.80475 17.9736C2.93115 17.8959 3.01312 17.7629 3.026 17.6151C3.03888 17.4674 2.98102 17.3223 2.87006 17.2238L2.33429 16.7487C2.71796 16.6746 3.11743 16.6183 3.5249 16.5786C4.84467 17.9646 6.70673 18.8297 8.76709 18.8297L9.66199 18.8297C9.66229 18.9202 9.66089 19.5472 9.66357 19.6228C8.09283 20.479 5.85449 19.869 4.95508 19.3179C4.7345 19.1825 4.44574 19.2518 4.31042 19.4727C4.17517 19.6932 4.24445 19.9819 4.46521 20.1172C5.10785 20.5111 6.41998 20.9952 7.81396 20.9952C7.94873 20.9952 8.08429 20.99 8.22021 20.9805L4.82501 23.9629C4.63049 24.1337 4.61133 24.4299 4.7821 24.6244C4.95343 24.8195 5.24994 24.8375 5.4436 24.6672L8.82935 21.6931C8.52942 23.1986 8.87329 24.7651 9.21082 25.5198C9.31677 25.7584 9.59937 25.8611 9.83014 25.7562C10.0665 25.6505 10.1724 25.3732 10.0667 25.137C9.75 24.4292 9.40411 22.7546 9.88708 21.3472C10.3291 23.129 11.3957 24.6665 12.8403 25.7135C12.6981 26.6863 12.467 27.5115 12.2809 28.0719ZM31.0626 19.5011C31.0626 23.2124 28.0434 26.2316 24.3322 26.2316L17.33 26.2316C13.6188 26.2316 10.5995 23.2124 10.5995 19.5011L10.5995 16.6104C10.5995 12.8992 13.6188 9.88 17.33 9.88L24.3322 9.88C28.0433 9.88 31.0625 12.8992 31.0625 16.6104L31.0625 19.5011L31.0626 19.5011Z" fill="#3E3E3E" fill-opacity="1.000000" fill-rule="nonzero"/>
		<path id="svg" d="M24.3323 11.2578L17.3301 11.2578C14.3796 11.2578 11.9791 13.6582 11.9791 16.6088L11.9791 19.4996C11.9791 22.4502 14.3796 24.8507 17.3301 24.8507L24.3323 24.8507C27.2829 24.8507 29.6833 22.4502 29.6833 19.4996L29.6833 16.6088C29.6833 13.6582 27.2829 11.2578 24.3323 11.2578ZM28.7458 19.4996C28.7458 21.9332 26.7659 23.9131 24.3323 23.9131L17.3301 23.9131C14.8965 23.9131 12.9167 21.9332 12.9167 19.4996L12.9167 16.6088C12.9167 14.1753 14.8965 12.1954 17.3301 12.1954L24.3323 12.1954C26.7659 12.1954 28.7458 14.1753 28.7458 16.6088L28.7458 19.4996Z" fill="#3E3E3E" fill-opacity="1.000000" fill-rule="nonzero"/>
		<path id="svg" d="M20.8322 14.5885C18.6044 14.5885 16.8594 15.6697 16.8594 17.0498C16.8594 18.411 18.6391 20.4968 20.8322 20.4968C21.378 20.4968 21.9227 20.3682 22.4512 20.1145C22.6846 20.0024 22.783 19.7224 22.671 19.489C22.5588 19.2556 22.2787 19.1573 22.0455 19.2693C21.6447 19.4617 21.2364 19.5593 20.8322 19.5593C19.1711 19.5593 17.797 17.8978 17.797 17.0498C17.797 16.3291 19.0436 15.5261 20.8322 15.5261C22.6208 15.5261 23.8674 16.3291 23.8674 17.0498C23.8674 17.3008 23.7372 17.6425 23.5104 17.9872C23.368 18.2034 23.428 18.494 23.6442 18.6364C23.8604 18.7786 24.1512 18.7188 24.2935 18.5024C24.6232 18.0015 24.8049 17.4855 24.8049 17.0498C24.8048 15.6697 23.0598 14.5885 20.8322 14.5885Z" fill="#3E3E3E" fill-opacity="1.000000" fill-rule="nonzero"/>
	</g>
</svg>
