<svg width="32.000000" height="32.000000" viewBox="0 0 32 32" fill="none" xmlns="http://www.w3.org/2000/svg" xmlns:xlink="http://www.w3.org/1999/xlink">
	<desc>
			Created with Pixso.
	</desc>
	<defs>
		<clipPath id="clip2_2777">
			<rect id="Property 1=блинчики" width="32.000000" height="32.000000" fill="white" fill-opacity="0"/>
		</clipPath>
	</defs>
	<rect id="Property 1=блинчики" width="32.000000" height="32.000000" fill="#FFFFFF" fill-opacity="0"/>
	<g clip-path="url(#clip2_2777)">
		<path id="svg" d="M28.2789 7.49609C25.7191 5.18115 22.582 3.64941 19.1882 3.05383C19.0429 2.44666 18.7593 1.84082 18.3698 1.33179C17.7128 0.4729 16.8671 0 15.9886 0C15.11 0 14.2644 0.4729 13.6073 1.33179C13.2169 1.84204 12.9327 2.44958 12.7878 3.05835C11.5801 3.27136 10.3925 3.60498 9.25354 4.05469C9.23511 4.06201 9.21741 4.07031 9.20044 4.07959L7.26917 4.98352C7.25104 4.9906 7.23309 4.99902 7.21552 5.00867C5.96039 5.69373 4.78265 6.53064 3.71509 7.49609C3.15796 8.00012 3.02142 8.81165 3.38287 9.46912L6.77856 15.6644C6.57605 15.7676 6.40338 15.9271 6.2818 16.1322C6.05865 16.5088 6.05078 16.9629 6.26099 17.3473L10.2173 24.5635C10.3417 24.7905 10.6266 24.8737 10.8536 24.7491C11.0806 24.6248 11.1638 24.3398 11.0393 24.1128L7.08325 16.897C7.01178 16.7662 7.06287 16.6528 7.0882 16.6102C7.1134 16.5676 7.18805 16.4688 7.33636 16.4688L24.6577 16.4688C24.8063 16.4688 24.881 16.5679 24.9062 16.6105C24.9315 16.6531 24.9824 16.7662 24.911 16.8966L17.6966 30.056C17.3565 30.6769 16.7053 31.0625 15.9971 31.0625C15.2889 31.0625 14.6377 30.6769 14.2974 30.0559L12.0937 26.0366C11.9692 25.8096 11.6843 25.7264 11.4573 25.8508C11.2303 25.9753 11.1472 26.2603 11.2716 26.4873L13.4753 30.5065C13.9799 31.4277 14.9462 32 15.997 32C17.0478 32 18.014 31.4277 18.5187 30.5066L25.7331 17.3472C25.9435 16.9634 25.936 16.5094 25.7129 16.1327C25.5912 15.9274 25.4184 15.7676 25.2156 15.6643L25.8699 14.4708L25.87 14.4707L26.9244 12.5471L28.611 9.46948C28.9727 8.81165 28.8361 8.00012 28.2789 7.49609ZM26.1022 12.0966L27.7461 9.09705L21.5026 10.1836C19.5811 10.5182 17.8484 11.5068 16.5853 12.9811C17.1458 13.757 17.584 14.6165 17.8835 15.5312L24.2195 15.5312L25.0478 14.0201L26.1022 12.0966ZM15.9886 0.9375C17.0565 0.9375 18.3609 2.32361 18.3609 3.94116C18.3609 5.24927 17.2967 6.31348 15.9886 6.31348C14.6804 6.31348 13.6162 5.24927 13.6162 3.94116C13.6163 2.32361 14.9207 0.9375 15.9886 0.9375ZM23.3653 7.12122C23.1715 7.11145 22.975 7.11792 22.7799 7.14099C22.6745 7.15393 22.57 7.09412 22.5133 6.98926C21.9529 5.95093 20.877 5.30237 19.6998 5.29077C19.5282 5.14355 19.3475 5.00806 19.1612 4.88281C19.2422 4.61047 19.2886 4.32361 19.2963 4.02722C22.4 4.62219 25.2674 6.04602 27.6226 8.16699L25.9047 8.46594C25.2957 7.66833 24.3684 7.17139 23.3653 7.12122ZM7.66461 5.83154L9.5979 4.92664C10.5934 4.53357 11.6282 4.23389 12.681 4.03088C12.6888 4.3241 12.7347 4.60791 12.8144 4.87744C12.6243 5.00464 12.4407 5.14221 12.268 5.29089C11.0945 5.30591 10.0228 5.95374 9.46399 6.98889C9.4071 7.09412 9.3028 7.15344 9.19556 7.14075C9.00208 7.11792 8.80579 7.11133 8.61261 7.12122C7.60919 7.17065 6.68182 7.66772 6.07245 8.46594L4.3689 8.16943C5.37524 7.26282 6.4837 6.47607 7.66461 5.83154ZM8.65967 8.0575C8.80115 8.05029 8.94452 8.05505 9.08417 8.07153C9.57458 8.13086 10.0473 7.88123 10.2889 7.43445C10.6905 6.69043 11.4648 6.22803 12.3107 6.22803C12.5075 6.22803 12.7 6.15588 12.8549 6.02271C12.9697 5.92285 13.0892 5.82861 13.2126 5.74023C13.8034 6.64856 14.8267 7.25098 15.9886 7.25098C17.1486 7.25098 18.1703 6.65063 18.7616 5.745C18.8836 5.83276 19.0023 5.92627 19.1161 6.02539C19.2657 6.15601 19.4576 6.22803 19.6565 6.22803L19.6678 6.22803C20.5125 6.22803 21.2867 6.69031 21.6886 7.43481C21.9299 7.88123 22.4031 8.13123 22.8914 8.07178C23.0328 8.05518 23.1762 8.05029 23.3181 8.0575C23.8712 8.08508 24.3932 8.30042 24.8062 8.6571L21.9297 9.15771C21.3855 8.30164 20.4284 7.76489 19.4007 7.76489C18.562 7.76489 17.7685 8.11792 17.206 8.72424C16.8303 8.55627 16.4158 8.46387 15.9838 8.46387C15.5545 8.46387 15.1423 8.55518 14.7682 8.72144C14.2061 8.11682 13.4137 7.76489 12.5764 7.76489C11.5488 7.76489 10.5916 8.30164 10.0473 9.15759L7.17096 8.65698C7.58405 8.30005 8.10626 8.08484 8.65967 8.0575ZM11.0813 9.35022C11.4647 8.94543 12.0043 8.70239 12.5764 8.70239C13.0963 8.70239 13.5908 8.90015 13.9662 9.24487C13.6884 9.4978 13.4577 9.80396 13.2899 10.1499C12.5934 9.79248 11.8522 9.52344 11.0813 9.35022ZM18.6793 10.1531C18.5123 9.80762 18.2827 9.50183 18.0061 9.2489C18.3823 8.90173 18.8787 8.70251 19.4006 8.70251C19.9722 8.70251 20.5115 8.94507 20.8949 9.34937C20.1198 9.52356 19.3761 9.79468 18.6793 10.1531ZM7.77466 15.5312L4.24982 9.10034L10.4744 10.1837C12.0421 10.4565 13.4917 11.1654 14.6664 12.2335C15.6663 13.1426 16.4269 14.2736 16.8909 15.5312L7.77466 15.5312ZM15.9891 12.239C15.7716 11.9949 15.5409 11.7614 15.2972 11.5398C14.9234 11.2 14.5238 10.894 14.1041 10.6215C14.4294 9.88928 15.1609 9.40137 15.9838 9.40137C16.8089 9.40137 17.5411 9.89099 17.8653 10.6256C17.175 11.0745 16.5436 11.6158 15.9891 12.239Z" fill="#3E3E3E" fill-opacity="1.000000" fill-rule="evenodd"/>
		<path id="svg" d="M19.6104 21.4286C19.6104 20.2098 18.0179 19.2552 15.9849 19.2552C13.9519 19.2552 12.3594 20.21 12.3594 21.4286C12.3594 22.6473 13.9519 23.6021 15.9849 23.6021C18.0179 23.6021 19.6104 22.6473 19.6104 21.4286ZM13.2969 21.4286C13.2969 21.1576 13.5442 20.8685 13.9755 20.6357C14.4968 20.3541 15.2292 20.1926 15.9849 20.1926C17.5233 20.1926 18.6729 20.8452 18.6729 21.4286C18.6729 21.6996 18.4255 21.9885 17.9943 22.2216C17.473 22.5031 16.7405 22.6646 15.9849 22.6646C14.4464 22.6646 13.2969 22.012 13.2969 21.4286Z" fill="#3E3E3E" fill-opacity="1.000000" fill-rule="nonzero"/>
	</g>
</svg>
