<svg width="32.000000" height="32.000000" viewBox="0 0 32 32" fill="none" xmlns="http://www.w3.org/2000/svg" xmlns:xlink="http://www.w3.org/1999/xlink">
	<desc>
			Created with Pixso.
	</desc>
	<defs>
		<clipPath id="clip2_2789">
			<rect id="Property 1=другое" width="32.000000" height="32.000000" fill="white" fill-opacity="0"/>
		</clipPath>
	</defs>
	<rect id="Property 1=другое" width="32.000000" height="32.000000" fill="#FFFFFF" fill-opacity="0"/>
	<g clip-path="url(#clip2_2789)">
		<path id="Vector" d="M26.6553 6.55688C23.8027 5.71069 20.0167 5.24475 15.9949 5.24475C11.9731 5.24475 8.1875 5.71069 5.33453 6.55688C2.32086 7.45068 0.718567 8.64685 0.69574 10.0171C0.647522 10.4546 0.625 11.2649 0.625 11.6797C0.625 15.2051 2.23206 18.516 5.15002 21.0022C6.42871 22.0858 7.87341 22.9565 9.42883 23.5811C9.56006 24.9888 10.735 26.1699 12.3194 26.441C13.543 26.649 14.7819 26.7537 16.0231 26.7535C17.2529 26.755 18.4805 26.6489 19.6918 26.4365C21.2612 26.1593 22.4256 24.9829 22.5593 23.5862C24.1191 22.9612 25.568 22.0886 26.85 21.0022C29.7681 18.516 31.375 15.2051 31.375 11.6797C31.375 11.2362 31.3405 10.4363 31.2941 10.0171C31.2712 8.64673 29.6688 7.45081 26.6553 6.55688ZM5.54785 7.27563C8.33319 6.44946 12.0433 5.99438 15.9949 5.99438C19.9465 5.99438 23.6567 6.44934 26.4421 7.27563C29.0114 8.03772 30.5452 9.07361 30.5452 10.0465C30.5452 11.0194 29.0114 12.0552 26.4421 12.8173C23.6567 13.6434 19.9465 14.0985 15.9949 14.0985C12.0434 14.0985 8.33319 13.6436 5.54785 12.8173C2.97858 12.0552 1.4447 11.0194 1.4447 10.0465C1.4447 9.07361 2.97858 8.03796 5.54785 7.27588L5.54785 7.27563ZM19.5616 25.6975C17.2072 26.1027 14.801 26.104 12.446 25.7015C11.3481 25.5137 10.5009 24.7891 10.246 23.886C13.9734 25.1497 18.0131 25.1512 21.7414 23.8903C21.4858 24.785 20.6474 25.506 19.5616 25.6978L19.5616 25.6975ZM16 24.0851C7.93573 24.0851 1.375 18.52 1.375 11.6797C1.375 11.6354 1.375 11.5862 1.37579 11.5345C2.11536 12.2993 3.44849 12.9772 5.33453 13.5366C8.1875 14.3827 11.9731 14.8486 15.9949 14.8486C20.0167 14.8486 23.8027 14.3827 26.6553 13.5366C28.5494 12.9747 29.886 12.2935 30.6237 11.5248C30.6245 11.58 30.625 11.6323 30.625 11.6793C30.625 18.52 24.0643 24.0851 16 24.0851Z" fill="#3E3E3E" fill-opacity="1.000000" fill-rule="nonzero"/>
		<path id="Vector" d="M6.73438 12.5477C9.17249 13.1526 12.4081 13.4856 15.8451 13.4856C19.282 13.4856 22.5177 13.1526 24.9561 12.5477C28.2795 11.7231 28.9772 10.6777 28.9772 9.94592C28.9772 9.21411 28.2795 8.1687 24.9561 7.34424C22.5179 6.73926 19.2823 6.40625 15.8453 6.40625C12.4083 6.40625 9.17273 6.73926 6.73462 7.34424C3.41113 8.1687 2.7135 9.21411 2.7135 9.94592C2.7135 10.6777 3.41089 11.7231 6.73438 12.5477ZM6.91492 8.07214C9.29572 7.48145 12.4672 7.15625 15.8451 7.15625C19.223 7.15625 22.3945 7.4812 24.7753 8.07214C27.3202 8.70337 28.2269 9.45398 28.2269 9.94592C28.2269 10.4379 27.3202 11.1884 24.7753 11.8197C22.3945 12.4104 19.223 12.7356 15.8451 12.7356C12.4671 12.7356 9.29572 12.4106 6.91492 11.8197C4.37 11.1885 3.46326 10.4379 3.46326 9.94592C3.46326 9.45398 4.37 8.70349 6.91492 8.07214Z" fill="#3E3E3E" fill-opacity="1.000000" fill-rule="nonzero"/>
		<path id="Vector" d="M23.67 8.91895C25.2994 9.2019 25.8263 9.71741 25.8263 9.92261C25.8263 10.0431 25.437 10.4802 23.7076 10.8948C23.6597 10.9062 23.6145 10.927 23.5746 10.9559C23.5348 10.9849 23.501 11.0214 23.4753 11.0634C23.4233 11.1482 23.4072 11.2502 23.4304 11.3469C23.4418 11.3948 23.4626 11.4399 23.4916 11.4799C23.5206 11.5197 23.5571 11.5535 23.5991 11.5791C23.6838 11.6311 23.7858 11.6473 23.8826 11.6241C25.6954 11.1896 26.5767 10.6331 26.5767 9.92261C26.5767 9.13354 25.5382 8.48218 23.7986 8.17993C23.7006 8.16296 23.5998 8.18555 23.5185 8.2428C23.4372 8.30005 23.3819 8.38733 23.3649 8.48535C23.3479 8.58325 23.3705 8.68408 23.4277 8.76538C23.485 8.84668 23.5723 8.90198 23.6702 8.91895L23.67 8.91895Z" fill="#3E3E3E" fill-opacity="1.000000" fill-rule="nonzero"/>
		<path id="Vector" d="M5.526 10.2377C5.62543 10.2377 5.72083 10.1981 5.79114 10.1278C5.86151 10.0575 5.901 9.96216 5.901 9.86267C5.901 9.70642 6.45233 9.15881 8.90204 8.70471C8.9505 8.6958 8.99664 8.67737 9.03796 8.65051C9.07928 8.62366 9.11487 8.58899 9.14282 8.54834C9.17072 8.50781 9.19031 8.46216 9.20056 8.41394C9.21082 8.36572 9.21143 8.31604 9.20245 8.26758C9.19348 8.21924 9.17505 8.17297 9.14825 8.13171C9.1214 8.09045 9.08673 8.05481 9.04614 8.02686C9.00555 7.99902 8.95984 7.97937 8.91168 7.96912C8.86353 7.95886 8.81378 7.95825 8.76538 7.96716C6.33325 8.41809 5.151 9.03796 5.151 9.86255C5.151 9.91187 5.16071 9.96057 5.1795 10.0061C5.19836 10.0516 5.22601 10.093 5.2608 10.1278C5.29565 10.1626 5.33698 10.1903 5.38251 10.2091C5.42798 10.2279 5.47675 10.2377 5.526 10.2377Z" fill="#3E3E3E" fill-opacity="1.000000" fill-rule="nonzero"/>
		<path id="Vector" d="M12.724 9.38733C12.724 9.6936 12.9102 10.0231 13.2482 10.3157C13.5527 10.5791 14.1252 10.9336 15.1252 11.1273C15.645 11.2236 16.1727 11.2703 16.7012 11.2665C17.3363 11.2628 17.9703 11.2135 18.5984 11.1189C19.9109 10.928 20.5433 10.639 20.7133 10.1528C20.8804 9.6748 20.4961 9.26526 20.3699 9.13086C18.8563 7.51831 17.4092 7.61841 16.4619 7.98633C15.8167 8.23694 15.0997 8.354 14.4671 8.4574C14.0421 8.52686 13.6746 8.58679 13.3922 8.67798C12.9489 8.82141 12.724 9.06006 12.724 9.38733ZM14.5881 9.19739C15.2239 9.09363 16.0151 8.96448 16.7336 8.6853C17.7985 8.27173 18.8379 8.59424 19.8231 9.64404C19.9794 9.8103 20.0008 9.89038 20.0038 9.90796C19.9843 9.93921 19.791 10.1874 18.4906 10.3767C17.6899 10.4933 14.9825 10.7932 13.7568 9.76379C13.6447 9.67786 13.5535 9.56763 13.4901 9.44153C13.6719 9.34717 14.1954 9.26172 14.5881 9.19751L14.5881 9.19739Z" fill="#3E3E3E" fill-opacity="1.000000" fill-rule="nonzero"/>
		<path id="Vector" d="M10.9519 11.808C11.5769 12.1273 12.6432 12.3217 13.6467 12.3217C13.8973 12.3223 14.1479 12.3091 14.3971 12.2822C14.4959 12.2712 14.5864 12.2214 14.6485 12.1437C14.7106 12.066 14.7394 11.9669 14.7284 11.868C14.7174 11.7692 14.6676 11.6787 14.59 11.6166C14.5123 11.5544 14.4131 11.5258 14.3143 11.5367C13.1754 11.6632 11.8593 11.4292 11.293 11.14C11.249 11.1172 11.201 11.1033 11.1517 11.099C11.1024 11.0948 11.0527 11.1003 11.0056 11.1155C10.9584 11.1305 10.9147 11.1548 10.877 11.1868C10.8393 11.2189 10.8083 11.2581 10.7858 11.3021C10.7632 11.3462 10.7497 11.3943 10.7458 11.4436C10.7421 11.493 10.748 11.5426 10.7635 11.5896C10.7789 11.6367 10.8035 11.6802 10.8359 11.7177C10.8682 11.7551 10.9077 11.7859 10.9519 11.808Z" fill="#3E3E3E" fill-opacity="1.000000" fill-rule="nonzero"/>
		<path id="Vector" d="M8.22833 9.6167L6.68805 10.2643C6.60028 10.3011 6.52618 10.3643 6.47583 10.4451C6.42554 10.5259 6.40149 10.6202 6.40704 10.7152C6.4126 10.8103 6.44751 10.9012 6.5069 10.9756C6.56628 11.0499 6.64728 11.104 6.73871 11.1304L8.65881 11.6844C8.72076 11.7023 8.78577 11.7069 8.84961 11.698C8.91345 11.6892 8.97473 11.667 9.02948 11.6329L9.93744 11.0673C10.007 11.0239 10.0638 10.9629 10.1018 10.8903C10.1398 10.8176 10.1578 10.7361 10.1537 10.6542C10.1497 10.5724 10.1238 10.493 10.0789 10.4244C10.0339 10.356 9.97144 10.3007 9.89789 10.2644L8.61041 9.6283C8.55127 9.59912 8.48657 9.58289 8.42065 9.58093C8.35474 9.57886 8.28912 9.59106 8.22833 9.6167ZM8.74261 10.9281L7.73553 10.6375L8.39697 10.3594L9.09894 10.7062L8.74261 10.9281Z" fill="#3E3E3E" fill-opacity="1.000000" fill-rule="nonzero"/>
		<path id="Vector" d="M20.5286 9.09607L21.4636 9.64062C21.4835 9.65222 21.5045 9.66199 21.5261 9.6698C21.5945 9.69421 21.668 9.70105 21.7397 9.68958C21.8114 9.67798 21.8791 9.64868 21.9364 9.60413L22.6703 9.03845C22.7297 8.99194 22.777 8.93164 22.8079 8.86279C22.8389 8.79395 22.8526 8.71851 22.848 8.64319C22.8445 8.56848 22.823 8.49585 22.7852 8.43127C22.7474 8.36682 22.6945 8.3125 22.631 8.27295L21.5905 7.63696C21.527 7.59778 21.4543 7.57581 21.3797 7.57312C21.3051 7.57056 21.2311 7.5874 21.165 7.62219C21.1307 7.63989 21.0994 7.66296 21.0721 7.69031L20.4503 8.31494C20.3913 8.3623 20.3447 8.42346 20.3145 8.49292C20.2844 8.56238 20.2716 8.63818 20.2773 8.71375C20.2821 8.79382 20.3079 8.87134 20.3519 8.93848C20.396 9.00549 20.4569 9.05981 20.5286 9.09607ZM21.4153 8.40857L21.8858 8.69604L21.6476 8.87964L21.2039 8.62109L21.4153 8.40857Z" fill="#3E3E3E" fill-opacity="1.000000" fill-rule="nonzero"/>
		<path id="Vector" d="M11.0307 9.09546C11.0947 9.1416 11.1715 9.1665 11.2504 9.1665C11.3094 9.16663 11.3676 9.15271 11.42 9.12573C11.4725 9.09875 11.5178 9.05969 11.5521 9.01172C11.5737 8.98352 12.0975 8.32288 13.6146 8.32288C13.7141 8.32288 13.8094 8.28333 13.8798 8.21301C13.9501 8.1427 13.9896 8.04736 13.9896 7.94788C13.9896 7.84839 13.9501 7.75305 13.8798 7.68274C13.8094 7.61243 13.7141 7.57288 13.6146 7.57288C11.6834 7.57288 10.9751 8.52917 10.9459 8.56982C10.8877 8.65088 10.864 8.75159 10.8798 8.8501C10.8957 8.94861 10.95 9.03687 11.0307 9.09546Z" fill="#3E3E3E" fill-opacity="1.000000" fill-rule="nonzero"/>
		<path id="Vector" d="M20.915 10.9711C20.1824 11.5748 18.7889 11.5732 18.7756 11.5723L18.7726 11.5723C18.6731 11.5718 18.5776 11.6108 18.5069 11.6809C18.4363 11.7509 18.3963 11.8461 18.3959 11.9456C18.3954 12.045 18.4345 12.1406 18.5045 12.2112C18.5745 12.2819 18.6697 12.3218 18.7692 12.3223L18.782 12.3223C18.9498 12.3223 20.4805 12.301 21.3921 11.5498C21.4301 11.5184 21.4615 11.48 21.4846 11.4364C21.5078 11.3929 21.5221 11.3453 21.5268 11.2964C21.5316 11.2473 21.5266 11.1979 21.5121 11.1508C21.4977 11.1036 21.4742 11.0598 21.4429 11.0219C21.4116 10.9839 21.3731 10.9524 21.3296 10.9293C21.2861 10.9061 21.2385 10.8918 21.1895 10.8871C21.1404 10.8823 21.091 10.8873 21.0439 10.9017C20.9968 10.9161 20.953 10.9397 20.915 10.9711Z" fill="#3E3E3E" fill-opacity="1.000000" fill-rule="nonzero"/>
		<path id="Vector" d="M15.8856 9.86938C16.2798 9.98633 16.6889 10.0449 17.1 10.0433C17.4858 10.046 17.8695 9.9873 18.2368 9.86938C18.2836 9.854 18.3269 9.82947 18.3642 9.79736C18.4015 9.76526 18.4321 9.72607 18.4543 9.68201C18.4765 9.63806 18.4898 9.59009 18.4935 9.54102C18.4971 9.49182 18.491 9.4425 18.4756 9.39575C18.4602 9.349 18.4357 9.30566 18.4036 9.26831C18.3714 9.23108 18.3322 9.20044 18.2882 9.17822C18.2443 9.15601 18.1964 9.1427 18.1472 9.13904C18.0981 9.1355 18.0487 9.14148 18.002 9.15686C17.0837 9.45984 16.1365 9.16199 16.1198 9.15686C16.0255 9.12671 15.9231 9.13501 15.8349 9.17993C15.7467 9.22485 15.6799 9.30286 15.649 9.39697C15.6181 9.49097 15.6256 9.59338 15.6699 9.68188C15.7143 9.77051 15.7918 9.83789 15.8856 9.86938Z" fill="#3E3E3E" fill-opacity="1.000000" fill-rule="nonzero"/>
	</g>
</svg>
