<svg width="32.000000" height="32.000000" viewBox="0 0 32 32" fill="none" xmlns="http://www.w3.org/2000/svg" xmlns:xlink="http://www.w3.org/1999/xlink">
	<desc>
			Created with Pixso.
	</desc>
	<defs>
		<clipPath id="clip2_2773">
			<rect id="Property 1=пельмени" width="32.000000" height="32.000000" fill="white" fill-opacity="0"/>
		</clipPath>
	</defs>
	<rect id="Property 1=пельмени" width="32.000000" height="32.000000" fill="#FFFFFF" fill-opacity="0"/>
	<g clip-path="url(#clip2_2773)">
		<path id="svg" d="M31.7392 8.31616C31.2512 6.68555 30.3533 5.18384 29.1427 3.97314C27.1975 2.02795 24.6115 0.951294 21.8608 0.941528C21.8481 0.941528 21.8355 0.941406 21.8228 0.941406C19.0878 0.941406 16.5103 1.99719 14.5614 3.91663C12.7415 5.70911 11.6728 8.06995 11.5122 10.6202C10.1681 10.4467 8.79474 10.5352 7.4826 10.8875C5.73975 11.3555 4.1405 12.2809 2.8576 13.5638C1.64655 14.7749 0.748535 16.2767 0.260742 17.9072C-0.298584 19.7764 0.0512695 21.7493 1.2204 23.3199C2.22247 24.6664 3.67889 25.5251 5.30603 25.7531C5.53381 27.3811 6.39435 28.8386 7.74396 29.8402C8.82465 30.6423 10.0941 31.0576 11.3896 31.0575C11.9854 31.0575 12.587 30.9696 13.1779 30.7911C14.7991 30.3016 16.2921 29.4065 17.4955 28.2024C19.2897 26.4082 20.3517 23.9988 20.4935 21.4646C20.5326 21.4655 20.5717 21.4668 20.6106 21.4668C21.9066 21.4668 23.1766 21.0513 24.2573 20.2489C25.6061 19.2473 26.466 17.7904 26.6938 16.1627C28.3199 15.9352 29.7765 15.0767 30.779 13.7303C31.9488 12.1592 32.2988 10.1858 31.7392 8.31616ZM11.951 21.4716C11.6862 21.0266 11.111 20.8807 10.6661 21.1456L10.014 21.5338C9.83673 20.7074 9.28723 20.0006 8.5083 19.6288C8.04089 19.4058 7.48151 19.6038 7.25842 20.0709C7.03546 20.5382 7.23346 21.0978 7.70062 21.3208C8.12939 21.5255 8.1925 21.9154 8.19977 22.0736C8.20691 22.2313 8.17987 22.6238 7.77466 22.8669L6.38318 23.6761C6.29333 23.5536 6.20868 23.4261 6.12994 23.2939C4.80109 21.0621 5.53564 18.1653 7.76733 16.8365C8.52087 16.3878 9.35022 16.1744 10.1695 16.1744C11.7766 16.1744 13.3446 16.9957 14.2247 18.4739C15.5536 20.7057 14.8191 23.6024 12.5873 24.9313C11.5062 25.5751 10.239 25.7593 9.01953 25.45C8.60846 25.3457 8.22009 25.1885 7.86023 24.986L11.6251 22.7566C12.07 22.4918 12.2159 21.9165 11.951 21.4716ZM2.72443 22.2006C1.91241 21.1096 1.66913 19.7407 2.05695 18.4448C2.45599 17.111 3.19128 15.8816 4.18335 14.8895C6.14246 12.9304 8.8595 12.0699 11.561 12.5209C11.6422 13.2206 11.7925 13.9036 12.0087 14.5619C10.3177 14.0726 8.43646 14.2561 6.80817 15.2256C3.96515 16.9183 2.86047 20.4313 4.09235 23.4023C3.56573 23.1099 3.09943 22.7043 2.72443 22.2006ZM16.1697 26.8768C15.184 27.863 13.9621 28.5959 12.6359 28.9963C11.3339 29.3898 9.95801 29.1486 8.86139 28.3347C8.3576 27.9608 7.95203 27.4956 7.65924 26.9698C7.94922 27.0891 8.24939 27.1888 8.55872 27.2673C9.09888 27.4043 9.64569 27.472 10.1889 27.472C11.36 27.472 12.5139 27.157 13.5465 26.5422C15.7864 25.2085 16.9474 22.7451 16.7369 20.307C17.3387 20.6473 17.9738 20.9266 18.6312 21.1395C18.5664 23.2964 17.6891 25.3574 16.1697 26.8768ZM25.8702 13.703C25.7912 13.8358 25.7062 13.9629 25.6166 14.085L24.2254 13.2761C23.8203 13.0328 23.7932 12.6405 23.8004 12.4827C23.8077 12.3246 23.8708 11.9346 24.2996 11.7299C24.7668 11.507 24.9647 10.9473 24.7417 10.4801C24.5187 10.0128 23.9591 9.8147 23.4919 10.038C22.713 10.4098 22.1635 11.1166 21.9862 11.9429L21.3342 11.5548C20.8891 11.2898 20.314 11.4359 20.0492 11.8806C19.7843 12.3256 19.9302 12.9009 20.3751 13.1658L24.137 15.3934C22.7139 16.1934 20.9135 16.234 19.4129 15.3405C18.3317 14.6968 17.566 13.6704 17.2568 12.4508C16.9475 11.2312 17.1317 9.96411 17.7755 8.88306C19.1043 6.65125 22.001 5.91675 24.2328 7.24561C26.4645 8.57446 27.1991 11.4713 25.8702 13.703ZM29.2752 12.6106C28.9003 13.1141 28.4341 13.5194 27.9077 13.8118C29.1397 10.8406 28.0352 7.32764 25.192 5.63464C22.0721 3.77698 18.0223 4.80383 16.1645 7.92395C15.2646 9.4353 15.0071 11.2067 15.4395 12.9117C15.8718 14.6168 16.9423 16.0515 18.4537 16.9514C19.4863 17.5662 20.6401 17.8811 21.8114 17.8811C22.3544 17.8811 22.9014 17.8134 23.4415 17.6765C23.7508 17.598 24.0511 17.4983 24.3411 17.3792C24.0485 17.9045 23.6431 18.3696 23.1396 18.7435C22.043 19.5579 20.6669 19.7992 19.3641 19.4055C18.0385 19.0051 16.8165 18.2722 15.8302 17.2859C14.2307 15.6921 13.3528 13.5256 13.3652 11.2607C13.3739 8.97302 14.2659 6.83911 15.877 5.25244C17.5205 3.63367 19.6717 2.82532 21.8227 2.82532C23.9958 2.82532 26.1688 3.65063 27.817 5.29883C28.8087 6.29053 29.5438 7.51978 29.9431 8.85376C30.3311 10.1501 30.0876 11.5195 29.2752 12.6106Z" fill="#3E3E3E" fill-opacity="1.000000" fill-rule="nonzero"/>
	</g>
</svg>
