<svg width="24" height="25" viewBox="0 0 24 25" fill="none" xmlns="http://www.w3.org/2000/svg">
<g clip-path="url(#clip0_2014_14673)">
<path d="M2.48438 19.8125H0.46875C0.209839 19.8125 0 20.0223 0 20.2812C0 22.6074 1.89258 24.5 4.21875 24.5H18.7031C18.962 24.5 19.1719 24.2902 19.1719 24.0312V15.5C21.2488 15.5 23.0546 14.1606 23.7208 12.3652C23.8109 12.1224 23.6871 11.8527 23.4443 11.7626C23.2015 11.6727 22.9318 11.7963 22.8417 12.0391C22.2905 13.5248 20.7814 14.5625 19.1719 14.5625C18.6769 14.5625 18.1763 14.4669 17.6918 14.2582C18.2629 13.3665 18.6042 12.3601 18.6839 11.317C18.7037 11.0588 18.5105 10.8336 18.2523 10.8138C17.9941 10.7931 17.7689 10.9874 17.7491 11.2455C17.5278 14.1445 14.9658 16.4375 12 16.4375C9.03442 16.4375 6.47223 14.1448 6.25085 11.2455C6.23108 10.9874 6.00568 10.7942 5.74768 10.8138C5.48969 10.8336 5.29633 11.0588 5.3161 11.317C5.39575 12.3601 5.73724 13.3665 6.30817 14.2582C5.8396 14.4601 5.34119 14.5625 4.82812 14.5625C2.71912 14.5625 0.9375 12.8452 0.9375 10.8125C0.9375 8.77985 2.71912 7.0625 4.82812 7.0625C5.1123 7.0625 5.3963 7.09454 5.67188 7.15753C5.95386 7.22217 6.22742 7.01782 6.24445 6.72797C6.4151 3.81091 8.99707 1.4375 12 1.4375C15.0029 1.4375 17.5849 3.81091 17.7556 6.72797C17.7726 7.01691 18.0452 7.22235 18.3281 7.15753C18.6037 7.09454 18.8877 7.0625 19.1719 7.0625C20.4842 7.0625 21.7474 7.74713 22.4691 8.84924C22.6108 9.06586 22.9014 9.12665 23.118 8.98474C23.3346 8.84283 23.3952 8.55225 23.2533 8.33563C22.3607 6.97205 20.7968 6.125 19.1719 6.125C18.9939 6.125 18.8161 6.13507 18.6396 6.15503C18.1871 2.96735 15.3276 0.5 12 0.5C8.67627 0.5 5.81342 2.96368 5.36041 6.15503C5.1839 6.13507 5.0061 6.125 4.82812 6.125C2.28625 6.125 0 8.17816 0 10.8125C0 13.447 2.28644 15.5 4.82812 15.5V20.5242C4.14093 20.0648 3.32666 19.8125 2.48438 19.8125ZM4.21875 23.5625C2.5686 23.5625 1.19897 22.3381 0.970825 20.75H2.48438C4.10779 20.75 5.49921 21.9448 5.73212 23.5625H4.21875ZM11.428 21.1014C11.068 22.4992 9.79834 23.5625 8.25 23.5625H6.73608C6.96057 21.9847 8.31848 20.7495 9.98438 20.7495H11.4979C11.4811 20.8681 11.4576 20.9857 11.428 21.1014ZM10.9016 23.5625C11.534 23.0496 11.9775 22.3954 12.228 21.6875H18.2344V23.5625H10.9016ZM12 17.375C13.9541 17.375 15.8379 16.5042 17.1176 15.0272C17.473 15.201 17.8466 15.3273 18.2344 15.4059V20.75H12.4424C12.4596 20.5945 12.4688 20.438 12.4688 20.2812C12.4688 20.0223 12.2589 19.8125 12 19.8125H9.98438C8.35327 19.8125 6.93787 20.735 6.23346 22.0984C6.10272 21.8452 5.9469 21.6044 5.76562 21.3804V15.4059C6.15344 15.3275 6.52698 15.201 6.88239 15.0272C8.16211 16.5042 10.0459 17.375 12 17.375Z" fill="#3E3E3E"/>
<path d="M22.5 8C23.5 9.5 24 10.5 23 13" stroke="#3E3E3E" stroke-width="0.9" stroke-linecap="round"/>
</g>
<defs>
<clipPath id="clip0_2014_14673">
<rect width="24" height="24" fill="white" transform="translate(0 0.5)"/>
</clipPath>
</defs>
</svg>
