<svg width="24" height="25" viewBox="0 0 24 25" fill="none" xmlns="http://www.w3.org/2000/svg">
<g clip-path="url(#clip0_2014_7403)">
<path d="M0.4308 15.6056C0.481505 15.9329 0.613535 16.2424 0.8148 16.5056C0.974273 18.6236 1.43699 20.7078 2.1888 22.6944C2.38969 23.2261 2.7481 23.684 3.21613 24.0066C3.68417 24.3293 4.23953 24.5014 4.808 24.5H19.192C19.7603 24.5015 20.3156 24.3295 20.7836 24.007C21.2515 23.6845 21.6099 23.2268 21.8108 22.6952C22.5628 20.7084 23.0257 18.6239 23.1852 16.5056C23.3865 16.2424 23.5185 15.9329 23.5692 15.6056C23.6985 15.5383 23.8069 15.4371 23.8828 15.3127C23.9587 15.1884 23.9993 15.0456 24 14.9V14.1C23.9995 13.9575 23.9608 13.8177 23.888 13.6953C23.8152 13.5728 23.7109 13.4721 23.586 13.4036C23.2968 10.182 18.3124 7.69995 12 7.69995C5.6876 7.69995 0.7032 10.182 0.414 13.4036C0.289084 13.4721 0.184802 13.5728 0.111996 13.6953C0.0391903 13.8177 0.000518073 13.9575 0 14.1L0 14.9C0.000749897 15.0456 0.0412714 15.1884 0.117192 15.3127C0.193112 15.4371 0.301549 15.5383 0.4308 15.6056ZM23.2 14.1V14.9H0.8V14.1H23.2ZM21.6 16.5C21.3519 16.4996 21.1099 16.4226 20.9074 16.2794C20.7048 16.1361 20.5514 15.9338 20.4684 15.7H22.7316C22.6486 15.9338 22.4952 16.1361 22.2926 16.2794C22.0901 16.4226 21.8481 16.4996 21.6 16.5ZM1.2684 15.7H3.5316C3.44898 15.9341 3.29577 16.1368 3.0931 16.2802C2.89043 16.4236 2.64827 16.5006 2.4 16.5006C2.15173 16.5006 1.90957 16.4236 1.7069 16.2802C1.50423 16.1368 1.35102 15.9341 1.2684 15.7ZM19.5316 15.7C19.449 15.9341 19.2958 16.1368 19.0931 16.2802C18.8904 16.4236 18.6483 16.5006 18.4 16.5006C18.1517 16.5006 17.9096 16.4236 17.7069 16.2802C17.5042 16.1368 17.351 15.9341 17.2684 15.7H19.5316ZM16.3316 15.7C16.249 15.9341 16.0958 16.1368 15.8931 16.2802C15.6904 16.4236 15.4483 16.5006 15.2 16.5006C14.9517 16.5006 14.7096 16.4236 14.5069 16.2802C14.3042 16.1368 14.151 15.9341 14.0684 15.7H16.3316ZM13.1316 15.7C13.049 15.9341 12.8958 16.1368 12.6931 16.2802C12.4904 16.4236 12.2483 16.5006 12 16.5006C11.7517 16.5006 11.5096 16.4236 11.3069 16.2802C11.1042 16.1368 10.951 15.9341 10.8684 15.7H13.1316ZM9.9316 15.7C9.84898 15.9341 9.69577 16.1368 9.4931 16.2802C9.29043 16.4236 9.04827 16.5006 8.8 16.5006C8.55173 16.5006 8.30957 16.4236 8.1069 16.2802C7.90423 16.1368 7.75102 15.9341 7.6684 15.7H9.9316ZM6.7316 15.7C6.64898 15.9341 6.49577 16.1368 6.2931 16.2802C6.09043 16.4236 5.84827 16.5006 5.6 16.5006C5.35173 16.5006 5.10957 16.4236 4.9069 16.2802C4.70423 16.1368 4.55102 15.9341 4.4684 15.7H6.7316ZM21.0604 22.4176C20.9165 22.7961 20.6605 23.1217 20.3267 23.3508C19.9928 23.58 19.5969 23.7018 19.192 23.7H4.808C4.40291 23.7017 4.00692 23.5798 3.67297 23.3505C3.33902 23.1212 3.08302 22.7955 2.9392 22.4168C2.30415 20.7222 1.87886 18.9562 1.6728 17.1584C2.08001 17.3217 2.5301 17.3444 2.95169 17.2229C3.37328 17.1014 3.74222 16.8426 4 16.4876C4.18396 16.7393 4.42474 16.9441 4.70275 17.0853C4.98077 17.2265 5.28819 17.3001 5.6 17.3001C5.91181 17.3001 6.21923 17.2265 6.49725 17.0853C6.77526 16.9441 7.01604 16.7393 7.2 16.4876C7.38396 16.7393 7.62474 16.9441 7.90276 17.0853C8.18077 17.2265 8.48819 17.3001 8.8 17.3001C9.11181 17.3001 9.41923 17.2265 9.69725 17.0853C9.97526 16.9441 10.216 16.7393 10.4 16.4876C10.584 16.7393 10.8247 16.9441 11.1028 17.0853C11.3808 17.2265 11.6882 17.3001 12 17.3001C12.3118 17.3001 12.6192 17.2265 12.8972 17.0853C13.1753 16.9441 13.416 16.7393 13.6 16.4876C13.784 16.7393 14.0247 16.9441 14.3028 17.0853C14.5808 17.2265 14.8882 17.3001 15.2 17.3001C15.5118 17.3001 15.8192 17.2265 16.0972 17.0853C16.3753 16.9441 16.616 16.7393 16.8 16.4876C16.984 16.7393 17.2247 16.9441 17.5028 17.0853C17.7808 17.2265 18.0882 17.3001 18.4 17.3001C18.7118 17.3001 19.0192 17.2265 19.2972 17.0853C19.5753 16.9441 19.816 16.7393 20 16.4876C20.2578 16.8426 20.6267 17.1014 21.0483 17.2229C21.4699 17.3444 21.92 17.3217 22.3272 17.1584C22.1209 18.9565 21.6955 20.7227 21.0604 22.4176ZM14.8 8.68635C15.0709 8.72262 15.3376 8.76382 15.6 8.80995V10.5C15.6 10.606 15.5579 10.7078 15.4828 10.7828C15.4078 10.8578 15.3061 10.9 15.2 10.9C15.0939 10.9 14.9922 10.8578 14.9172 10.7828C14.8421 10.7078 14.8 10.606 14.8 10.5V8.68635ZM12.4 8.50515V10.1C12.4 10.206 12.3579 10.3078 12.2828 10.3828C12.2078 10.4578 12.1061 10.5 12 10.5C11.8939 10.5 11.7922 10.4578 11.7172 10.3828C11.6421 10.3078 11.6 10.206 11.6 10.1V8.50515C11.7332 8.50235 11.866 8.49995 12 8.49995C12.134 8.49995 12.2668 8.50235 12.4 8.50515ZM8.4 8.80995C8.6624 8.76355 8.92907 8.72235 9.2 8.68635V10.5C9.2 10.606 9.15786 10.7078 9.08284 10.7828C9.00783 10.8578 8.90609 10.9 8.8 10.9C8.69391 10.9 8.59217 10.8578 8.51716 10.7828C8.44214 10.7078 8.4 10.606 8.4 10.5V8.80995ZM7.6 8.96995V10.5C7.6 10.8182 7.72643 11.1234 7.95147 11.3485C8.17652 11.5735 8.48174 11.7 8.8 11.7C9.11826 11.7 9.42348 11.5735 9.64853 11.3485C9.87357 11.1234 10 10.8182 10 10.5V8.59475C10.264 8.56995 10.5307 8.54995 10.8 8.53475V10.1C10.8 10.4182 10.9264 10.7234 11.1515 10.9485C11.3765 11.1735 11.6817 11.3 12 11.3C12.3183 11.3 12.6235 11.1735 12.8485 10.9485C13.0736 10.7234 13.2 10.4182 13.2 10.1V8.53475C13.4696 8.54942 13.7363 8.56942 14 8.59475V10.5C14 10.8182 14.1264 11.1234 14.3515 11.3485C14.5765 11.5735 14.8817 11.7 15.2 11.7C15.5183 11.7 15.8235 11.5735 16.0485 11.3485C16.2736 11.1234 16.4 10.8182 16.4 10.5V8.96995C19.8908 9.74475 22.4456 11.3968 22.7632 13.3H1.2368C1.5544 11.3968 4.1092 9.74475 7.6 8.96995Z" fill="#3E3E3E"/>
<path d="M6.40136 22.1H4.80936C4.73077 22.1023 4.65336 22.0805 4.58746 22.0376C4.52156 21.9947 4.47031 21.9328 4.44056 21.86C4.02505 20.7441 3.70392 19.5952 3.48056 18.4256C3.46072 18.3214 3.40029 18.2293 3.31256 18.1696C3.22483 18.1099 3.11699 18.0876 3.01276 18.1074C2.90853 18.1272 2.81645 18.1877 2.75677 18.2754C2.6971 18.3631 2.67472 18.471 2.69456 18.5752C2.92656 19.7884 3.25987 20.9801 3.69096 22.1376C3.77774 22.3633 3.93129 22.5572 4.13111 22.6934C4.33093 22.8297 4.56753 22.9017 4.80936 22.9H6.40136C6.50744 22.9 6.60919 22.8579 6.6842 22.7828C6.75921 22.7078 6.80136 22.6061 6.80136 22.5C6.80136 22.3939 6.75921 22.2922 6.6842 22.2172C6.60919 22.1421 6.50744 22.1 6.40136 22.1Z" fill="#3E3E3E"/>
<path d="M11.9266 6.46731L11.7774 6.56691C11.6891 6.62568 11.6277 6.71715 11.6067 6.8212C11.5858 6.92524 11.6071 7.03334 11.6658 7.12171C11.7246 7.21008 11.8161 7.27148 11.9201 7.29241C12.0242 7.31334 12.1323 7.29208 12.2206 7.23331L12.3706 7.13331C12.6426 6.95181 12.859 6.69847 12.9957 6.40142C13.1324 6.10437 13.1841 5.77524 13.145 5.45059C13.1059 5.12594 12.9776 4.81848 12.7743 4.56236C12.571 4.30623 12.3007 4.11147 11.9934 3.99971C11.8465 3.94608 11.7147 3.85766 11.6094 3.74199C11.5041 3.62633 11.4283 3.48687 11.3887 3.33555C11.349 3.18423 11.3466 3.02555 11.3816 2.87309C11.4166 2.72063 11.4881 2.57893 11.5898 2.46011L12.703 1.16051C12.7372 1.12059 12.7631 1.07433 12.7794 1.02438C12.7957 0.974432 12.8019 0.921768 12.7978 0.869396C12.7938 0.817023 12.7794 0.765969 12.7556 0.719147C12.7318 0.672325 12.699 0.630652 12.659 0.596508C12.6191 0.562365 12.5729 0.536418 12.5229 0.520151C12.473 0.503884 12.4203 0.497614 12.3679 0.5017C12.3156 0.505786 12.2645 0.520147 12.2177 0.543964C12.1709 0.567781 12.1292 0.600586 12.095 0.640508L10.9822 1.94011C10.7963 2.15704 10.6657 2.4158 10.6017 2.69423C10.5376 2.97266 10.542 3.26247 10.6144 3.53885C10.6868 3.81522 10.8251 4.06993 11.0175 4.28116C11.2099 4.49239 11.4506 4.65384 11.719 4.75171C11.8872 4.81296 12.0352 4.91963 12.1464 5.05988C12.2577 5.20014 12.3279 5.36848 12.3492 5.54621C12.3705 5.72395 12.3422 5.90412 12.2673 6.06672C12.1924 6.22932 12.074 6.36798 11.925 6.46731H11.9266Z" fill="#3E3E3E"/>
<path d="M8.97041 6.46723L8.82081 6.56683C8.73244 6.62565 8.67106 6.71717 8.65017 6.82126C8.62927 6.92534 8.65058 7.03346 8.70941 7.12183C8.76823 7.2102 8.85976 7.27158 8.96384 7.29247C9.06792 7.31336 9.17604 7.29205 9.26441 7.23323L9.41401 7.13323C9.68607 6.95192 9.90256 6.69875 10.0394 6.40185C10.1763 6.10494 10.2282 5.7759 10.1894 5.45127C10.1506 5.12665 10.0225 4.81914 9.81948 4.56288C9.61644 4.30663 9.34636 4.11166 9.03921 3.99963C8.89206 3.94627 8.76004 3.85804 8.65446 3.74249C8.54887 3.62694 8.47287 3.48752 8.43296 3.33617C8.39304 3.18482 8.39041 3.02605 8.42529 2.87346C8.46017 2.72087 8.53151 2.57901 8.63321 2.46003L9.74641 1.16123C9.81217 1.08026 9.84371 0.976815 9.8343 0.872933C9.82488 0.769051 9.77526 0.672956 9.69602 0.605134C9.61677 0.537311 9.51416 0.503128 9.41007 0.50987C9.30598 0.516613 9.20865 0.563749 9.13881 0.641228L8.02561 1.94003C7.83945 2.15707 7.70872 2.41603 7.64461 2.69469C7.58051 2.97335 7.58495 3.2634 7.65755 3.53997C7.73015 3.81654 7.86876 4.07137 8.06147 4.28261C8.25418 4.49386 8.49525 4.65521 8.76401 4.75283C8.93224 4.81403 9.08022 4.92067 9.1915 5.0609C9.30278 5.20113 9.37302 5.36946 9.3944 5.5472C9.41578 5.72494 9.38748 5.90513 9.31263 6.06775C9.23779 6.23038 9.11933 6.36907 8.97041 6.46843V6.46723Z" fill="#3E3E3E"/>
<path d="M15.1683 6.46763L15.0191 6.56723C14.9309 6.62616 14.8696 6.71774 14.8489 6.82182C14.8282 6.9259 14.8496 7.03396 14.9085 7.12223C14.9675 7.21049 15.0591 7.27173 15.1631 7.29247C15.2672 7.31321 15.3753 7.29176 15.4635 7.23283L15.6123 7.13323C15.8845 6.95188 16.101 6.69862 16.2379 6.40159C16.3747 6.10457 16.4265 5.77541 16.3875 5.45071C16.3485 5.12601 16.2202 4.81848 16.0169 4.56231C15.8136 4.30614 15.5433 4.11136 15.2359 3.99963C15.089 3.94605 14.9571 3.85765 14.8518 3.74201C14.7464 3.62636 14.6706 3.48691 14.6309 3.33559C14.5912 3.18426 14.5887 3.02557 14.6238 2.87309C14.6588 2.72061 14.7302 2.57888 14.8319 2.46003L15.9451 1.16123C16.0109 1.08026 16.0424 0.976815 16.033 0.872933C16.0236 0.769051 15.974 0.672956 15.8947 0.605134C15.8155 0.537311 15.7129 0.503128 15.6088 0.50987C15.5047 0.516613 15.4074 0.563749 15.3375 0.641228L14.2247 1.94003C14.0387 2.15705 13.908 2.41595 13.8439 2.69455C13.7798 2.97315 13.7841 3.26313 13.8567 3.53966C13.9292 3.81619 14.0676 4.07101 14.2602 4.2823C14.4528 4.49359 14.6937 4.65504 14.9623 4.75283C15.1306 4.81403 15.2787 4.9207 15.39 5.06099C15.5013 5.20128 15.5715 5.36969 15.5929 5.5475C15.6142 5.72531 15.5859 5.90555 15.5109 6.0682C15.436 6.23085 15.3174 6.36953 15.1683 6.46883V6.46763Z" fill="#3E3E3E"/>
</g>
<defs>
<clipPath id="clip0_2014_7403">
<rect width="24" height="24" fill="white" transform="translate(0 0.5)"/>
</clipPath>
</defs>
</svg>
