<svg width="24" height="25" viewBox="0 0 24 25" fill="none" xmlns="http://www.w3.org/2000/svg">
<path d="M8.49609 17.0515C8.30189 17.0515 8.14453 16.8942 8.14453 16.7V16.1375C8.14453 15.9432 8.30189 15.7859 8.49609 15.7859C8.6903 15.7859 8.84766 15.9432 8.84766 16.1375V16.7C8.84766 16.8941 8.69025 17.0515 8.49609 17.0515Z" fill="#3E3E3E"/>
<path d="M11.9993 18.7611C11.193 18.7611 10.5371 18.0459 10.5371 17.1668C10.5371 16.0643 11.5617 16.0643 11.9993 16.0643C12.4368 16.0643 13.4615 16.0643 13.4615 17.1668C13.4615 18.0459 12.8055 18.7611 11.9993 18.7611ZM11.9993 16.7675C11.2709 16.7675 11.2402 16.8899 11.2402 17.1668C11.2402 17.6582 11.5808 18.0581 11.9993 18.0581C12.4178 18.0581 12.7583 17.6583 12.7583 17.1668C12.7583 16.8899 12.7276 16.7675 11.9993 16.7675Z" fill="#3E3E3E"/>
<path d="M15.502 17.0515C15.3077 17.0515 15.1504 16.8942 15.1504 16.7V16.1375C15.1504 15.9432 15.3077 15.7859 15.502 15.7859C15.6962 15.7859 15.8535 15.9432 15.8535 16.1375V16.7C15.8535 16.8941 15.6962 17.0515 15.502 17.0515Z" fill="#3E3E3E"/>
<path d="M19.4297 5.89062C20.8655 5.89062 22.125 5.06923 22.125 4.13281C22.125 3.19639 20.8655 2.375 19.4297 2.375C17.9939 2.375 16.7344 3.19639 16.7344 4.13281C16.7344 5.06923 17.9939 5.89062 19.4297 5.89062ZM19.4297 3.07812C20.6273 3.07812 21.4219 3.71295 21.4219 4.13281C21.4219 4.55267 20.6273 5.1875 19.4297 5.1875C18.2321 5.1875 17.4375 4.55267 17.4375 4.13281C17.4375 3.71295 18.2321 3.07812 19.4297 3.07812Z" fill="#3E3E3E"/>
<path d="M22.2419 10.7432H14.8325C15.1104 10.4945 15.3727 10.2347 15.616 9.96528C16.3575 9.14431 16.7917 8.11742 16.8437 7.13009C17.5995 7.54245 18.4954 7.76562 19.4294 7.76562C21.9495 7.76562 23.9997 6.13592 23.9997 4.13281C23.9997 2.1297 21.9495 0.5 19.4294 0.5C18.1124 0.5 16.8598 0.95 15.9929 1.73464C15.5366 2.14756 14.9487 2.375 14.3376 2.375H1.75781C0.788531 2.375 0 3.16353 0 4.13281C0 5.10209 0.788531 5.89062 1.75781 5.89062H7.31067C7.30622 5.90422 7.30125 5.91739 7.29694 5.93108C7.08783 6.60055 7.10616 7.39484 7.34845 8.16758C7.40653 8.35283 7.60373 8.45586 7.78908 8.39783C7.97433 8.33975 8.07741 8.1425 8.01933 7.9572C7.66959 6.84172 7.83141 5.48745 8.98139 4.97633C10.4678 4.31572 11.6873 5.63773 11.7379 5.69366C11.8043 5.76795 11.8995 5.81019 11.9992 5.81042H12.0002C12.0995 5.81042 12.1946 5.76805 12.2612 5.69431C12.3125 5.63773 13.5317 4.31581 15.0183 4.97633C15.7272 5.29138 15.991 5.89991 16.0875 6.35497C16.3003 7.35823 15.9105 8.59039 15.0943 9.494C14.6905 9.94109 14.2312 10.3607 13.729 10.7432H10.2707C9.76856 10.3607 9.30923 9.941 8.90541 9.49395C8.80031 9.37766 8.70042 9.254 8.6085 9.12645C8.58447 9.09312 8.55568 9.06525 8.52373 9.0431C8.40475 8.9606 8.24195 8.9574 8.11772 9.04686C7.96027 9.16039 7.92459 9.38009 8.03813 9.53764C8.14505 9.686 8.26134 9.82991 8.38369 9.96533C8.62702 10.2348 8.88933 10.4945 9.16725 10.7432H1.75781C0.788531 10.7432 0 11.5317 0 12.501C0 13.4703 0.788531 14.2588 1.75781 14.2588H2.81939C2.922 16.9708 4.20905 19.4759 6.33502 21.1403C5.72512 21.4164 5.2995 22.0303 5.2995 22.7422C5.2995 23.7115 6.08803 24.5 7.05731 24.5H16.9425C17.9117 24.5 18.7003 23.7115 18.7003 22.7422C18.7003 22.0303 18.2746 21.4163 17.6646 21.1402C19.7898 19.4762 21.0777 16.9704 21.1803 14.2588H22.2419C23.2112 14.2588 23.9997 13.4703 23.9997 12.501C23.9997 11.5317 23.2112 10.7432 22.2419 10.7432ZM15.3038 4.33381C14.4882 3.97133 13.6095 4.01295 12.7628 4.45419C12.438 4.6235 12.1772 4.82136 11.9999 4.97431C11.8225 4.82136 11.5617 4.62355 11.2369 4.45419C10.3902 4.01295 9.51155 3.97119 8.69588 4.33381C8.2658 4.52497 7.91498 4.81456 7.65619 5.1875H1.75781C1.17628 5.1875 0.703125 4.71434 0.703125 4.13281C0.703125 3.55128 1.17628 3.07812 1.75781 3.07812H14.3376C15.1235 3.07812 15.8789 2.78614 16.4648 2.25594C17.204 1.58689 18.2845 1.20312 19.4294 1.20312C21.5618 1.20312 23.2966 2.51736 23.2966 4.13281C23.2966 5.74827 21.5618 7.0625 19.4294 7.0625C18.4407 7.0625 17.5068 6.78008 16.7865 6.26666C16.7828 6.24748 16.7794 6.22817 16.7753 6.20909C16.5909 5.33956 16.0684 4.67356 15.3038 4.33381ZM17.9971 22.7422C17.9971 23.3237 17.5239 23.7969 16.9424 23.7969H7.05731C6.47578 23.7969 6.00262 23.3237 6.00262 22.7422C6.00262 22.1607 6.47578 21.6875 7.05731 21.6875H16.9425C17.524 21.6875 17.9971 22.1607 17.9971 22.7422ZM22.2419 13.5557H18.5498C18.3556 13.5557 18.1982 13.713 18.1982 13.9072C18.1982 14.1014 18.3556 14.2588 18.5498 14.2588H20.4763C20.3647 16.9788 18.9621 19.4722 16.6797 20.9844H7.31967C5.03653 19.4716 3.63488 16.9791 3.52336 14.2588H17.1436C17.3378 14.2588 17.4952 14.1014 17.4952 13.9072C17.4952 13.713 17.3378 13.5557 17.1436 13.5557H1.75781C1.17628 13.5557 0.703125 13.0825 0.703125 12.501C0.703125 11.9195 1.17628 11.4463 1.75781 11.4463H22.2419C22.8234 11.4463 23.2966 11.9195 23.2966 12.501C23.2966 13.0825 22.8234 13.5557 22.2419 13.5557Z" fill="#3E3E3E"/>
<path d="M7.78908 8.39783C7.60373 8.45586 7.40653 8.35283 7.34845 8.16758C7.46316 8.53525 7.75768 9.17188 8.03813 9.53764C7.92459 9.38009 7.96027 9.16039 8.11772 9.04686C8.24195 8.9574 8.40475 8.9606 8.52373 9.0431C8.34711 8.81596 8.12248 8.25084 8.01933 7.9572C8.07741 8.1425 7.97433 8.33975 7.78908 8.39783Z" fill="#3E3E3E"/>
<path d="M18.1982 13.9072C18.1982 13.713 18.3556 13.5557 18.5498 13.5557H17.1436C17.3378 13.5557 17.4952 13.713 17.4952 13.9072C17.4952 14.1014 17.3378 14.2588 17.1436 14.2588H18.5498C18.3556 14.2588 18.1982 14.1014 18.1982 13.9072Z" fill="#3E3E3E"/>
</svg>
