<svg width="24" height="25" viewBox="0 0 24 25" fill="none" xmlns="http://www.w3.org/2000/svg">
<g clip-path="url(#clip0_2014_7220)">
<path d="M23.2969 0.5H17.625C14.9111 0.5 12.7031 2.70795 12.7031 5.42188V11.0938C12.7031 11.4821 13.0179 11.7969 13.4062 11.7969H19.0781C21.792 11.7969 24 9.56792 24 6.82812V1.20312C24 0.814812 23.6852 0.5 23.2969 0.5ZM22.5938 6.82812C22.5938 8.79247 21.0166 10.3906 19.0781 10.3906H14.1094V5.42188C14.1094 3.48336 15.6865 1.90625 17.625 1.90625H22.5938V6.82812Z" fill="#3E3E3E"/>
<path d="M19.0781 13.2031H13.4062C13.0179 13.2031 12.7031 13.5179 12.7031 13.9062V19.5781C12.7031 21.5166 14.2802 23.0938 16.2188 23.0938H21.8906C22.2789 23.0938 22.5938 22.7789 22.5938 22.3906V16.7188C22.5938 14.7802 21.0166 13.2031 19.0781 13.2031ZM21.1875 21.6875H16.2188C15.0556 21.6875 14.1094 20.7412 14.1094 19.5781V14.6094H19.0781C20.2412 14.6094 21.1875 15.5556 21.1875 16.7188V21.6875Z" fill="#3E3E3E"/>
<path d="M10.5938 13.2031H4.92188C2.20795 13.2031 0 15.4111 0 18.125V23.7969C0 24.1852 0.314812 24.5 0.703125 24.5H6.32812C9.06792 24.5 11.2969 22.292 11.2969 19.5781V13.9062C11.2969 13.5179 10.9821 13.2031 10.5938 13.2031ZM9.89062 19.5781C9.89062 21.5166 8.29252 23.0938 6.32812 23.0938H1.40625V18.125C1.40625 16.1865 2.98336 14.6094 4.92188 14.6094H9.89062V19.5781Z" fill="#3E3E3E"/>
<path d="M6.32812 1.90625H2.10938C1.72106 1.90625 1.40625 2.22106 1.40625 2.60938V6.82812C1.40625 9.56787 3.6142 11.7969 6.32812 11.7969H10.5938C10.9821 11.7969 11.2969 11.4821 11.2969 11.0938V6.82812C11.2969 4.1142 9.06792 1.90625 6.32812 1.90625ZM9.89062 10.3906H6.32812C4.38961 10.3906 2.8125 8.79247 2.8125 6.82812V3.3125H6.32812C8.29252 3.3125 9.89062 4.88961 9.89062 6.82812V10.3906Z" fill="#3E3E3E"/>
</g>
<defs>
<clipPath id="clip0_2014_7220">
<rect width="24" height="24" fill="white" transform="translate(0 0.5)"/>
</clipPath>
</defs>
</svg>
