<svg width="18" height="25" viewBox="0 0 18 25" fill="none" xmlns="http://www.w3.org/2000/svg">
<path d="M1.02362 22.11C0.602246 22.4888 0.329437 23.0052 0.254019 23.5668C0.212463 23.7964 0.275364 24.0326 0.425619 24.2112C0.578193 24.3944 0.804384 24.5003 1.04282 24.5H16.9556C17.1941 24.5003 17.4202 24.3944 17.5728 24.2112C17.7231 24.0326 17.786 23.7964 17.7444 23.5668C17.669 23.0052 17.3962 22.4888 16.9748 22.11C17.4913 21.7361 17.7977 21.1376 17.7992 20.5V4.5C17.7977 3.86238 17.4913 3.26395 16.9748 2.89C17.3962 2.51119 17.669 1.99478 17.7444 1.4332C17.786 1.20357 17.7231 0.967356 17.5728 0.788801C17.4202 0.605573 17.1941 0.499734 16.9556 0.500001H1.04282C0.804384 0.499734 0.578193 0.605573 0.425619 0.788801C0.275364 0.967356 0.212463 1.20357 0.254019 1.4332C0.329437 1.99478 0.602246 2.51119 1.02362 2.89C0.507163 3.26395 0.200739 3.86238 0.199219 4.5V20.5C0.200739 21.1376 0.507163 21.7361 1.02362 22.11ZM16.9592 23.7C16.9582 23.7004 16.957 23.7004 16.956 23.7H15.7992C15.7992 23.4791 15.6201 23.3 15.3992 23.3C15.1783 23.3 14.9992 23.4791 14.9992 23.7H14.1992C14.1992 23.4791 14.0201 23.3 13.7992 23.3C13.5783 23.3 13.3992 23.4791 13.3992 23.7V23.702H12.5992V23.7C12.5992 23.4791 12.4201 23.3 12.1992 23.3C11.9783 23.3 11.7992 23.4791 11.7992 23.7V23.7028H10.9992V23.7C10.9992 23.4791 10.8201 23.3 10.5992 23.3C10.3783 23.3 10.1992 23.4791 10.1992 23.7V23.704H9.39922V23.7C9.39922 23.4791 9.22013 23.3 8.99922 23.3C8.77831 23.3 8.59922 23.4791 8.59922 23.7V23.7048H7.79922V23.7C7.79922 23.4791 7.62013 23.3 7.39922 23.3C7.17831 23.3 6.99922 23.4791 6.99922 23.7V23.7056H6.19922V23.7C6.19922 23.4791 6.02013 23.3 5.79922 23.3C5.5783 23.3 5.39922 23.4791 5.39922 23.7V23.7068H4.59922V23.7C4.59922 23.4791 4.42013 23.3 4.19922 23.3C3.9783 23.3 3.79922 23.4791 3.79922 23.7V23.7076H2.99922V23.7C2.99922 23.4791 2.82013 23.3 2.59922 23.3C2.3783 23.3 2.19922 23.4791 2.19922 23.7V23.7084H1.04122C1.18682 22.9068 1.57602 22.5 2.19922 22.5H15.7992C16.4224 22.5 16.8116 22.9068 16.9592 23.7ZM1.04282 1.3H2.19922C2.19922 1.52091 2.3783 1.7 2.59922 1.7C2.82013 1.7 2.99922 1.52091 2.99922 1.3H3.79922C3.79922 1.52091 3.9783 1.7 4.19922 1.7C4.42013 1.7 4.59922 1.52091 4.59922 1.3H5.39922C5.39922 1.52091 5.5783 1.7 5.79922 1.7C6.02013 1.7 6.19922 1.52091 6.19922 1.3H6.99922C6.99922 1.52091 7.17831 1.7 7.39922 1.7C7.62013 1.7 7.79922 1.52091 7.79922 1.3H8.59922C8.59922 1.52091 8.77831 1.7 8.99922 1.7C9.22013 1.7 9.39922 1.52091 9.39922 1.3H10.1992C10.1992 1.52091 10.3783 1.7 10.5992 1.7C10.8201 1.7 10.9992 1.52091 10.9992 1.3H11.7992C11.7992 1.52091 11.9783 1.7 12.1992 1.7C12.4201 1.7 12.5992 1.52091 12.5992 1.3H13.3992C13.3992 1.52091 13.5783 1.7 13.7992 1.7C14.0201 1.7 14.1992 1.52091 14.1992 1.3H14.9992C14.9992 1.52091 15.1783 1.7 15.3992 1.7C15.6201 1.7 15.7992 1.52091 15.7992 1.3H16.9552C16.808 2.096 16.4196 2.5 15.7992 2.5H2.19922C1.57602 2.5 1.18682 2.0932 1.04282 1.3ZM0.999219 4.5C0.999219 3.83726 1.53648 3.3 2.19922 3.3H15.7992C16.462 3.3 16.9992 3.83726 16.9992 4.5V20.5C16.9992 21.1627 16.462 21.7 15.7992 21.7H2.19922C1.53648 21.7 0.999219 21.1627 0.999219 20.5V4.5Z" fill="#3E3E3E"/>
<path d="M8.99961 16.9001C12.5342 16.9001 15.3996 14.0347 15.3996 10.5001C15.3996 6.96548 12.5342 4.1001 8.99961 4.1001C5.46499 4.1001 2.59961 6.96548 2.59961 10.5001C2.6038 14.033 5.46672 16.8959 8.99961 16.9001ZM8.99961 4.9001C12.0924 4.9001 14.5996 7.4073 14.5996 10.5001C14.5996 13.5929 12.0924 16.1001 8.99961 16.1001C5.90682 16.1001 3.39961 13.5929 3.39961 10.5001C3.40292 7.40867 5.90819 4.9034 8.99961 4.9001Z" fill="#3E3E3E"/>
<path d="M5.38824 13.0464L5.77984 12.82L5.73544 13.5136C5.72129 13.7339 5.88833 13.924 6.10864 13.9384H6.13504C6.34619 13.9388 6.52132 13.7751 6.53504 13.5644L6.61504 12.3388L8.59865 11.1928V13.486L7.57664 14.166C7.45775 14.2453 7.39019 14.382 7.39943 14.5246C7.40867 14.6672 7.4933 14.7941 7.62143 14.8574C7.74957 14.9207 7.90175 14.9109 8.02065 14.8316L8.59865 14.4472V14.9C8.59865 15.1209 8.77773 15.3 8.99864 15.3C9.21956 15.3 9.39864 15.1209 9.39864 14.9V14.4472L9.97664 14.8328C10.0955 14.9121 10.2477 14.9219 10.3759 14.8586C10.504 14.7953 10.5886 14.6684 10.5979 14.5258C10.6071 14.3832 10.5395 14.2465 10.4206 14.1672L9.39864 13.486V11.1928L11.3846 12.34L11.4646 13.5656C11.4784 13.7763 11.6535 13.94 11.8646 13.9396H11.891C12.1114 13.9252 12.2784 13.7351 12.2642 13.5148L12.2174 12.82L12.609 13.0464C12.7329 13.1189 12.8861 13.1196 13.0106 13.0481C13.135 12.9766 13.2117 12.8439 13.2113 12.7004C13.211 12.5569 13.1338 12.4245 13.009 12.3536L12.6174 12.1272L13.2386 11.82C13.4367 11.722 13.5178 11.482 13.4198 11.284C13.3219 11.0859 13.0819 11.0048 12.8838 11.1028L11.783 11.6472L9.79865 10.5L11.7846 9.35355L12.8854 9.89995C13.0141 9.96304 13.1666 9.95273 13.2855 9.87289C13.4045 9.79305 13.4718 9.65582 13.4621 9.51289C13.4524 9.36996 13.3673 9.24304 13.2386 9.17995L12.6158 8.87195L13.0074 8.64555C13.1322 8.57461 13.2094 8.44224 13.2097 8.2987C13.2101 8.15517 13.1334 8.02246 13.009 7.95097C12.8845 7.87948 12.7313 7.88016 12.6074 7.95275L12.2158 8.17915L12.2602 7.48555C12.2745 7.26464 12.107 7.074 11.886 7.05975C11.6651 7.0455 11.4745 7.21304 11.4602 7.43395L11.3802 8.65955L9.39864 9.80715V7.51395L10.4206 6.83395C10.5395 6.75464 10.6071 6.61792 10.5979 6.47529C10.5886 6.33267 10.504 6.20581 10.3759 6.14249C10.2477 6.07918 10.0955 6.08904 9.97664 6.16835L9.39864 6.55275V6.09995C9.39864 5.87904 9.21956 5.69995 8.99864 5.69995C8.77773 5.69995 8.59865 5.87904 8.59865 6.09995V6.55275L8.02065 6.16715C7.83684 6.04454 7.58845 6.09415 7.46584 6.27795C7.34324 6.46175 7.39284 6.71014 7.57664 6.83275L8.59865 7.51395V9.80715L6.61264 8.65995L6.53264 7.43435C6.5184 7.21344 6.32776 7.0459 6.10684 7.06015C5.88593 7.0744 5.7184 7.26504 5.73264 7.48595L5.77704 8.17955L5.38544 7.95315C5.26162 7.88056 5.10838 7.87988 4.98392 7.95137C4.85945 8.02286 4.78283 8.15557 4.78315 8.2991C4.78346 8.44264 4.86066 8.57501 4.98544 8.64595L5.37704 8.87235L4.75864 9.17995C4.5606 9.27793 4.47947 9.5179 4.57744 9.71595C4.67542 9.914 4.9154 9.99513 5.11344 9.89715L6.21424 9.35275L8.19864 10.5L6.21264 11.6464L5.11184 11.102C4.98359 11.0389 4.83141 11.049 4.71264 11.1285C4.59387 11.208 4.52655 11.3449 4.53604 11.4875C4.54553 11.6301 4.63039 11.7569 4.75864 11.82L5.38144 12.128L4.98984 12.3544C4.86506 12.4253 4.78786 12.5577 4.78755 12.7012C4.78723 12.8447 4.86385 12.9774 4.98832 13.0489C5.11278 13.1204 5.26602 13.1197 5.38984 13.0472L5.38824 13.0464Z" fill="#3E3E3E"/>
<path d="M3.8 18.1001H3.4C3.17909 18.1001 3 18.2792 3 18.5001C3 18.721 3.17909 18.9001 3.4 18.9001H3.8C4.02091 18.9001 4.2 18.721 4.2 18.5001C4.2 18.2792 4.02091 18.1001 3.8 18.1001Z" fill="#3E3E3E"/>
<path d="M14.5988 18.1001H14.1988C13.9779 18.1001 13.7988 18.2792 13.7988 18.5001C13.7988 18.721 13.9779 18.9001 14.1988 18.9001H14.5988C14.8197 18.9001 14.9988 18.721 14.9988 18.5001C14.9988 18.2792 14.8197 18.1001 14.5988 18.1001Z" fill="#3E3E3E"/>
<path d="M12.6 18.1001H5.4C5.17909 18.1001 5 18.2792 5 18.5001C5 18.721 5.17909 18.9001 5.4 18.9001H12.6C12.8209 18.9001 13 18.721 13 18.5001C13 18.2792 12.8209 18.1001 12.6 18.1001Z" fill="#3E3E3E"/>
<path d="M3.8 19.7H3.4C3.17909 19.7 3 19.879 3 20.1C3 20.3209 3.17909 20.5 3.4 20.5H3.8C4.02091 20.5 4.2 20.3209 4.2 20.1C4.2 19.879 4.02091 19.7 3.8 19.7Z" fill="#3E3E3E"/>
<path d="M14.5988 19.7H14.1988C13.9779 19.7 13.7988 19.879 13.7988 20.1C13.7988 20.3209 13.9779 20.5 14.1988 20.5H14.5988C14.8197 20.5 14.9988 20.3209 14.9988 20.1C14.9988 19.879 14.8197 19.7 14.5988 19.7Z" fill="#3E3E3E"/>
<path d="M12.6 19.7H5.4C5.17909 19.7 5 19.879 5 20.1C5 20.3209 5.17909 20.5 5.4 20.5H12.6C12.8209 20.5 13 20.3209 13 20.1C13 19.879 12.8209 19.7 12.6 19.7Z" fill="#3E3E3E"/>
</svg>
