<svg width="24" height="25" viewBox="0 0 24 25" fill="none" xmlns="http://www.w3.org/2000/svg">
<path d="M22.5955 15.95V12.5375C22.5955 12.5322 22.5925 12.5277 22.5925 12.5225C22.5802 11.411 21.289 10.4375 18.9479 9.76511V9.06761C18.9481 9.06511 18.9481 9.0626 18.9479 9.06011V7.02498V7.01973C18.9479 6.30348 18.1604 5.69336 16.7159 5.27298L16.9784 5.00711C17.0272 4.95791 17.0614 4.89616 17.0772 4.82871C17.093 4.76126 17.0899 4.69074 17.068 4.62498L16.0124 1.50498C15.9825 1.41647 15.9207 1.34231 15.839 1.29702C15.7572 1.25173 15.6616 1.23856 15.5707 1.26011L12.6505 1.95348C12.5684 1.97298 12.4953 2.0196 12.443 2.08582C12.3906 2.15203 12.3622 2.23396 12.3622 2.31836V3.23748C12.22 3.20276 12.0746 3.18265 11.9283 3.17748C11.5175 3.16478 11.1114 3.26783 10.7564 3.47486C10.6348 3.34117 10.5008 3.21925 10.3563 3.11073C9.89744 2.7751 9.34856 2.58461 8.78042 2.56382C8.21229 2.54303 7.65096 2.6929 7.1688 2.99411C7.09537 3.04032 7.04024 3.11056 7.0128 3.19286C6.95312 3.36881 6.90882 3.54962 6.88042 3.73323C6.81107 4.20563 6.86201 4.68788 7.02855 5.13536C7.05367 5.20286 7.08705 5.26548 7.11705 5.32998C5.7663 5.74998 5.05117 6.32973 5.05117 7.02123V7.02648V9.76398C2.7108 10.4375 1.41967 11.4125 1.4073 12.5221C1.4073 12.5274 1.4043 12.5319 1.4043 12.5371V20.1219V20.1275C1.40317 22.4802 6.86242 23.75 11.9999 23.75C17.1374 23.75 22.5967 22.4802 22.5967 20.1275V20.1219L22.5955 15.95ZM21.1649 17.0637C21.0462 17.3923 20.8812 17.7021 20.6748 17.984C20.5674 18.1194 20.4274 18.2255 20.2679 18.2922C19.5952 18.5769 19.318 18.3882 18.8977 18.1047C18.4794 17.7638 17.9519 17.5859 17.4127 17.6037C15.9348 17.6787 15.4372 18.4711 15.0374 19.109C14.7149 19.6231 14.482 19.9947 13.8063 20.0544C12.3727 20.177 12.0149 19.7225 11.6002 19.1945C11.3867 18.8453 11.0754 18.5663 10.7049 18.3923C10.3344 18.2183 9.92103 18.1567 9.51592 18.2154C8.85892 18.2649 8.43855 18.7314 8.0673 19.1427C7.52655 19.7427 7.18342 20.0671 6.41392 19.7532C5.63392 19.4356 5.41717 18.7861 5.18767 18.098C5.11142 17.8541 5.02076 17.6149 4.91617 17.3817C4.4703 16.4345 3.77167 16.4469 3.26617 16.6224C2.7303 16.8027 2.56792 16.7176 2.15317 16.2009V13.9452C3.8193 15.3927 8.0058 16.1607 11.9988 16.1607C15.9918 16.1607 20.1787 15.3927 21.8444 13.9452V15.8341C21.561 16.2099 21.3323 16.6238 21.1649 17.0637ZM18.1979 8.93186C18.0257 9.15465 17.8835 9.39912 17.7749 9.65898C17.7028 9.84342 17.6044 10.0165 17.4828 10.1727C17.4262 10.2381 17.3543 10.2885 17.2735 10.3194C16.9398 10.451 16.7999 10.3569 16.486 10.1127C16.1887 9.82832 15.7924 9.67082 15.3809 9.67361C15.0385 9.67841 14.7028 9.76858 14.404 9.93596C14.1053 10.1033 13.8531 10.3426 13.6702 10.6321C13.4309 10.9381 13.273 11.1402 12.8827 11.1721C12.0307 11.2404 11.8664 11.0296 11.6572 10.763C11.5083 10.5386 11.2977 10.3621 11.0508 10.2547C10.8039 10.1472 10.5312 10.1134 10.2655 10.1574C9.91019 10.1945 9.57801 10.3513 9.32355 10.6021C9.20534 10.736 9.04933 10.831 8.87607 10.8744C8.70281 10.9179 8.52045 10.9078 8.35305 10.8455C8.02155 10.7604 7.82805 10.3745 7.6203 9.96536L7.55842 9.84273C7.46656 9.61309 7.28767 9.42906 7.06072 9.33072C6.83378 9.23239 6.57717 9.22772 6.3468 9.31773C6.0783 9.40211 6.0153 9.39573 5.79967 9.15086V8.12411C7.01242 8.92361 9.51292 9.33873 11.9999 9.33873C14.4869 9.33873 16.9874 8.92361 18.1979 8.12411V8.93186ZM5.80192 11.5569V10.0569C6.05617 10.1335 6.32857 10.1243 6.57705 10.0306C6.7413 9.97773 6.79492 9.99011 6.89205 10.1806L6.95317 10.301C7.19992 10.7907 7.5078 11.4001 8.16892 11.57C8.45143 11.6621 8.75396 11.6741 9.04287 11.6046C9.33178 11.5351 9.59575 11.3868 9.80542 11.1762C9.94084 11.0292 10.1226 10.933 10.3203 10.9036C10.4631 10.8672 10.614 10.8789 10.7495 10.9368C10.8851 10.9947 10.9978 11.0955 11.0703 11.2239C11.2402 11.4671 11.4716 11.6609 11.741 11.7853C12.0104 11.9097 12.308 11.9603 12.6033 11.9319C12.7098 11.9319 12.8238 11.9274 12.946 11.9172C13.2143 11.8904 13.4727 11.802 13.7011 11.6589C13.9295 11.5158 14.1218 11.3218 14.263 11.0922C14.3801 10.8892 14.5484 10.7204 14.751 10.6027C14.9537 10.485 15.1837 10.4225 15.418 10.4214C15.6344 10.4086 15.7863 10.5159 16.0274 10.7034C16.3013 10.9623 16.6602 11.1125 17.0369 11.1256V11.5565C17.0369 11.6559 17.0764 11.7513 17.1468 11.8216C17.2171 11.892 17.3125 11.9315 17.4119 11.9315C17.5114 11.9315 17.6068 11.892 17.6771 11.8216C17.7474 11.7513 17.7869 11.6559 17.7869 11.5565V10.8894C17.8837 10.8279 17.9713 10.7532 18.0472 10.6674C18.1024 10.6042 18.1525 10.5369 18.1972 10.466V11.558V11.5602C18.196 12.2 15.7822 13.127 11.9999 13.127C8.21767 13.127 5.8038 12.2 5.80117 11.5602L5.80192 11.5569ZM13.1122 2.61498L15.4124 2.06898L16.2828 4.64598L15.2935 5.64648L13.9308 5.89548C14.0494 5.47268 14.0344 5.02353 13.8877 4.60963C13.741 4.19572 13.4698 3.83733 13.1114 3.58361L13.1122 2.61498ZM11.9017 3.92748C12.1799 3.93754 12.4489 4.02979 12.6747 4.1926C12.9005 4.35541 13.0731 4.58148 13.1705 4.84226C13.268 5.10305 13.286 5.38686 13.2223 5.65787C13.1586 5.92888 13.016 6.17494 12.8125 6.36498C12.6092 6.554 12.3545 6.67873 12.0805 6.72353C11.8065 6.76832 11.5254 6.73119 11.2724 6.61678C11.0195 6.50237 10.8059 6.31579 10.6586 6.08046C10.5113 5.84512 10.4368 5.57152 10.4444 5.29398C10.442 5.27142 10.4378 5.24909 10.4317 5.22723H10.4485C10.4752 4.87325 10.6348 4.54245 10.8952 4.30118C11.1556 4.05991 11.4976 3.92602 11.8525 3.92636L11.9017 3.92748ZM7.62067 3.84348C7.63552 3.74806 7.65619 3.65363 7.68255 3.56073C8.03079 3.37343 8.4249 3.28845 8.81938 3.31559C9.21386 3.34273 9.59262 3.48088 9.91192 3.71411C10.0109 3.78791 10.1033 3.87022 10.1879 3.96011C10.0308 4.15066 9.9087 4.3675 9.82717 4.60061C9.47873 4.30965 9.09917 4.05812 8.69542 3.85061C8.60591 3.8071 8.50278 3.80092 8.40872 3.83345C8.31466 3.86598 8.23737 3.93453 8.19386 4.02404C8.15035 4.11356 8.14418 4.21669 8.1767 4.31075C8.20923 4.40481 8.27779 4.4821 8.3673 4.52561C8.85384 4.78681 9.30489 5.10932 9.70942 5.48523C9.72667 5.74213 9.79019 5.9938 9.89692 6.22811C9.72913 6.24437 9.55997 6.23984 9.3933 6.21461C9.12109 6.1756 8.85925 6.0833 8.62276 5.943C8.38626 5.80269 8.17975 5.61714 8.01504 5.39694C7.85033 5.17674 7.73065 4.92623 7.66285 4.65974C7.59505 4.39324 7.58046 4.116 7.61992 3.84386L7.62067 3.84348ZM7.5348 5.98436C7.98054 6.51062 8.60294 6.85622 9.2853 6.95636C9.64907 7.01251 10.0206 6.99169 10.3758 6.89523C10.7533 7.25875 11.2513 7.47071 11.7749 7.49073H11.8552C12.4004 7.49195 12.9256 7.28515 13.3237 6.91248C13.3767 6.85798 13.4268 6.80064 13.4737 6.74073L15.544 6.36198C15.6196 6.3482 15.6891 6.31155 15.7432 6.25698L16.1054 5.89061C17.5304 6.23973 18.1934 6.71223 18.1968 7.01823V7.02498C18.19 7.66248 15.7777 8.58873 11.9999 8.58873C8.22217 8.58873 5.8098 7.66248 5.80192 7.02498V7.01823C5.8053 6.80786 6.1818 6.36911 7.5348 5.98436ZM5.05192 10.5462V11.5557V11.5595C5.05192 13.0809 8.54767 13.877 12.0007 13.877C15.4537 13.877 18.9494 13.0809 18.9494 11.5595V11.5557V10.5462C20.7472 11.0941 21.8452 11.8407 21.8452 12.5382C21.8452 13.8969 17.8027 15.4107 12.0014 15.4107C6.20017 15.4107 2.15617 13.8969 2.15617 12.5375C2.15617 11.8407 3.25417 11.0941 5.05192 10.5462ZM11.9999 23C6.20017 23 2.1573 21.4876 2.15355 20.1294V20.1249V17.2449C2.35463 17.3709 2.58402 17.4448 2.82088 17.4597C3.05775 17.4747 3.2946 17.4302 3.50992 17.3304C3.82492 17.2212 4.02405 17.2475 4.2378 17.7016C4.32925 17.9078 4.40864 18.1192 4.47555 18.3346C4.72305 19.0764 5.0313 19.9992 6.13042 20.4466C7.4238 20.9716 8.11792 20.2051 8.62342 19.6437C8.9403 19.2924 9.21405 18.989 9.57142 18.962C10.411 18.8997 10.651 19.2001 11.0095 19.6565C11.2631 20.0457 11.6169 20.3593 12.0336 20.5645C12.4503 20.7696 12.9146 20.8587 13.3777 20.8224C13.531 20.8224 13.6949 20.8152 13.8708 20.8002C14.9185 20.708 15.319 20.0697 15.6708 19.5061C16.0409 18.9155 16.3608 18.4059 17.449 18.3515C17.8249 18.3479 18.1893 18.4804 18.475 18.7246C18.7414 18.9507 19.0652 19.0987 19.4105 19.152C19.7559 19.2054 20.1092 19.1621 20.4314 19.0269V20.0289C20.4314 20.1283 20.4709 20.2237 20.5413 20.294C20.6116 20.3643 20.707 20.4039 20.8064 20.4039C20.9059 20.4039 21.0013 20.3643 21.0716 20.294C21.1419 20.2237 21.1814 20.1283 21.1814 20.0289V18.5375C21.2058 18.5105 21.2317 18.4854 21.2542 18.4572C21.5022 18.1288 21.7009 17.7659 21.8437 17.3799V20.1241V20.1286C21.8425 21.4876 17.7997 23 11.9999 23Z" fill="#3E3E3E"/>
<path d="M20.8086 15.5859C20.7091 15.5859 20.6138 15.6254 20.5434 15.6958C20.4731 15.7661 20.4336 15.8615 20.4336 15.9609V16.2441C20.4336 16.3435 20.4731 16.4389 20.5434 16.5092C20.6138 16.5796 20.7091 16.6191 20.8086 16.6191C20.908 16.6191 21.0034 16.5796 21.0738 16.5092C21.1441 16.4389 21.1836 16.3435 21.1836 16.2441V15.9609C21.1836 15.8615 21.1441 15.7661 21.0738 15.6958C21.0034 15.6254 20.908 15.5859 20.8086 15.5859Z" fill="#3E3E3E"/>
</svg>
