<svg width="24" height="25" viewBox="0 0 24 25" fill="none" xmlns="http://www.w3.org/2000/svg">
<path d="M23.625 11.75H21.5422C21.2857 7.36063 18.0086 3.73775 13.7933 2.92325C13.8473 2.74662 13.875 2.5625 13.875 2.375C13.875 1.34113 13.0339 0.5 12 0.5C10.9661 0.5 10.125 1.34113 10.125 2.375C10.125 2.5625 10.1528 2.74662 10.2067 2.92325C5.99137 3.73775 2.71425 7.36063 2.45775 11.75H0.375C0.168 11.75 0 11.9176 0 12.125V13.25C0 14.2839 0.841125 15.125 1.875 15.125H7.5C7.707 15.125 7.875 14.9574 7.875 14.75C7.875 14.5426 7.707 14.375 7.5 14.375H1.875C1.25475 14.375 0.75 13.8702 0.75 13.25V12.5H23.25V13.25C23.25 13.8702 22.7453 14.375 22.125 14.375H20.28C20.0704 14.1388 19.7689 14 19.44 14H19.3725C18.9701 14 18.5794 14.138 18.2584 14.375H10.9579C10.7812 14.2734 10.584 14.2089 10.377 14.1984C10.1253 14.1872 9.87349 14.2492 9.65621 14.375C9.56008 14.4307 9.47072 14.4988 9.39112 14.5786L8.84475 15.125L7.98487 15.9849C7.91437 16.055 7.875 16.1503 7.875 16.25V18.4539L7.16138 21.308L7.074 21.3958L6.177 21.3361C5.85113 21.3166 5.5365 21.434 5.307 21.6631L3.11025 23.8599C3.003 23.9671 2.97075 24.1284 3.02887 24.2686C3.087 24.4089 3.2235 24.5 3.375 24.5H12.375C12.4744 24.5 12.57 24.4606 12.6401 24.3901L13.9309 23.0998C14.1416 22.889 14.2076 22.5845 14.1026 22.3055C14.0194 22.0842 13.8431 21.9256 13.6264 21.8581L16.6684 20.3356C16.7167 20.3112 16.7595 20.2768 16.7933 20.2344L20.3179 15.8285C20.4825 15.623 20.5654 15.3755 20.5654 15.125H22.125C23.1589 15.125 24 14.2839 24 13.25V12.125C24 11.9176 23.832 11.75 23.625 11.75ZM10.875 2.375C10.875 1.75475 11.3798 1.25 12 1.25C12.6202 1.25 13.125 1.75475 13.125 2.375C13.125 2.52537 13.0928 2.67163 13.0354 2.80813C12.6949 2.77063 12.3495 2.75 12 2.75C11.6505 2.75 11.3051 2.77063 10.9646 2.80813C10.9073 2.67163 10.875 2.52537 10.875 2.375ZM12 3.5C16.6357 3.5 20.5009 7.16675 20.7915 11.75H3.2085C3.49913 7.16675 7.36425 3.5 12 3.5ZM16.7197 15.875H15.2464C14.7458 15.875 14.2748 16.0704 13.9208 16.4244L12.2197 18.125H11.7802L10.9189 17.2636C10.7734 17.1181 10.7734 16.8815 10.9189 16.7364L11.196 16.4589C11.5568 16.0981 11.6797 15.578 11.5522 15.125H17.4694L16.7197 15.875ZM15.9697 16.625L14.4697 18.125H13.2803L14.4506 16.9546C14.6602 16.745 14.9501 16.625 15.2464 16.625H15.9697ZM12.2197 23.75H4.28025L5.83687 22.1937C5.91337 22.1172 6.021 22.0767 6.12713 22.0846L13.4006 22.5695L12.2197 23.75ZM19.7321 15.3594L16.2585 19.7015L12.1912 21.737L7.89862 21.4509L8.61375 18.5911C8.62125 18.5611 8.625 18.5308 8.625 18.5V16.4053L9.92175 15.1089C10.0335 14.9971 10.185 14.9431 10.3399 14.9473C10.4978 14.9551 10.6406 15.0279 10.743 15.1528C10.9196 15.368 10.8859 15.7085 10.6661 15.9282L10.389 16.2057C9.95138 16.6434 9.95138 17.3559 10.389 17.7935L11.3603 18.7648C11.43 18.8356 11.5256 18.875 11.625 18.875H14.625C14.7244 18.875 14.82 18.8356 14.8901 18.7651L18.5764 15.0789C18.7856 14.8696 19.0755 14.75 19.3725 14.75H19.44C19.5881 14.75 19.7145 14.8295 19.7782 14.9623C19.842 15.095 19.8251 15.2435 19.7321 15.3594Z" fill="#3E3E3E"/>
<path d="M7.875 14.75C7.875 14.9574 7.707 15.125 7.5 15.125H8.84475L9.39112 14.5786C9.47072 14.4988 9.56008 14.4307 9.65621 14.375H7.5C7.707 14.375 7.875 14.5426 7.875 14.75Z" fill="#3E3E3E"/>
<path d="M18.6711 7.78928C18.5515 7.61341 18.4251 7.44241 18.2927 7.27741C18.163 7.11503 17.9271 7.08991 17.7655 7.21928C17.6038 7.34903 17.578 7.58491 17.7073 7.74616C17.8277 7.89653 17.9425 8.05141 18.0512 8.21116C18.1236 8.31766 18.2413 8.37503 18.3613 8.37503C18.4337 8.37503 18.5072 8.35403 18.5721 8.31016C18.7431 8.19391 18.7877 7.96066 18.6711 7.78928Z" fill="#3E3E3E"/>
<path d="M15.147 4.88942C14.9557 4.80767 14.736 4.89729 14.655 5.08742C14.574 5.27792 14.6628 5.49842 14.8533 5.57942C15.5538 5.87754 16.2022 6.28254 16.7805 6.78354C16.8513 6.84504 16.9387 6.87504 17.0257 6.87504C17.1307 6.87504 17.2353 6.83117 17.3092 6.74529C17.445 6.58892 17.4277 6.35192 17.2713 6.21654C16.6338 5.66417 15.9191 5.21792 15.147 4.88942Z" fill="#3E3E3E"/>
</svg>
