<svg width="24" height="24" viewBox="0 0 24 24" fill="none" xmlns="http://www.w3.org/2000/svg">
<g clip-path="url(#clip0_2014_3233)">
<path d="M20.9096 0.026C20.8028 -0.00314415 20.6908 -0.00728278 20.5822 0.0139056C20.4735 0.0350939 20.3713 0.0810389 20.2833 0.148171C20.1953 0.215304 20.1239 0.301817 20.0748 0.40099C20.0257 0.500163 20.0001 0.609326 20 0.72V6.8068C19.0021 5.47221 17.6861 4.40851 16.172 3.71259C14.6578 3.01668 12.9936 2.71066 11.331 2.82243C9.66831 2.9342 8.06003 3.46019 6.65265 4.3525C5.24527 5.2448 4.08351 6.47506 3.2732 7.9312L3.24 6.3664C3.47655 6.17948 3.66778 5.94149 3.79939 5.67024C3.931 5.39899 3.99958 5.10149 4 4.8V0.4C4 0.293913 3.95786 0.192172 3.88284 0.117157C3.80783 0.0421427 3.70609 0 3.6 0C3.49391 0 3.39217 0.0421427 3.31716 0.117157C3.24214 0.192172 3.2 0.293913 3.2 0.4V3.2H2.4V0.4C2.4 0.293913 2.35786 0.192172 2.28284 0.117157C2.20783 0.0421427 2.10609 0 2 0C1.89391 0 1.79217 0.0421427 1.71716 0.117157C1.64214 0.192172 1.6 0.293913 1.6 0.4V3.2H0.8V0.4C0.8 0.293913 0.757857 0.192172 0.682843 0.117157C0.607828 0.0421427 0.506087 0 0.4 0C0.293913 0 0.192172 0.0421427 0.117157 0.117157C0.0421427 0.192172 0 0.293913 0 0.4L0 4.8C0.000422869 5.10149 0.0690025 5.39899 0.20061 5.67024C0.332218 5.94149 0.523448 6.17948 0.76 6.3664L0.424 22.3928C0.419269 22.6028 0.456536 22.8115 0.533612 23.0069C0.610688 23.2022 0.726019 23.3802 0.872832 23.5304C1.01965 23.6805 1.19498 23.7998 1.38855 23.8813C1.58211 23.9627 1.79 24.0047 2 24.0047C2.21 24.0047 2.41789 23.9627 2.61145 23.8813C2.80502 23.7998 2.98035 23.6805 3.12717 23.5304C3.27398 23.3802 3.38931 23.2022 3.46639 23.0069C3.54346 22.8115 3.58073 22.6028 3.576 22.3928L3.4844 18.0228C4.33519 19.4148 5.51415 20.5771 6.91812 21.408C8.32209 22.2389 9.90829 22.7131 11.5379 22.7891C13.1676 22.8651 14.791 22.5405 16.2662 21.8438C17.7414 21.1472 19.0234 20.0996 20 18.7928V22.3928C19.9953 22.6028 20.0325 22.8115 20.1096 23.0069C20.1867 23.2022 20.302 23.3802 20.4488 23.5304C20.5956 23.6805 20.771 23.7998 20.9645 23.8813C21.1581 23.9627 21.366 24.0047 21.576 24.0047C21.786 24.0047 21.9939 23.9627 22.1875 23.8813C22.381 23.7998 22.5564 23.6805 22.7032 23.5304C22.85 23.3802 22.9653 23.2022 23.0424 23.0069C23.1195 22.8115 23.1567 22.6028 23.152 22.3928L23.032 15.5764C23.305 15.5219 23.5506 15.3745 23.7271 15.1593C23.9036 14.9441 24 14.6743 24 14.396V6.368C24 1.3964 21.84 0.2764 20.9096 0.026ZM2.5536 22.9684C2.40523 23.1123 2.20668 23.1927 2 23.1927C1.79332 23.1927 1.59477 23.1123 1.4464 22.9684C1.37374 22.8947 1.31661 22.8071 1.27841 22.711C1.2402 22.6148 1.2217 22.5119 1.224 22.4084L1.564 6.1684C1.56553 6.09789 1.54839 6.02824 1.51432 5.96649C1.48025 5.90474 1.43046 5.8531 1.37 5.8168C1.19565 5.71056 1.05161 5.56118 0.95177 5.38309C0.851931 5.20499 0.799661 5.00417 0.8 4.8V4H3.2V4.8C3.20034 5.00417 3.14807 5.20499 3.04823 5.38309C2.94839 5.56118 2.80435 5.71056 2.63 5.8168C2.56954 5.8531 2.51975 5.90474 2.48568 5.96649C2.45161 6.02824 2.43447 6.09789 2.436 6.1684L2.776 22.4084C2.77825 22.5119 2.75973 22.6147 2.72153 22.7109C2.68333 22.8071 2.62623 22.8947 2.5536 22.9684ZM12 22C10.1556 21.9928 8.35547 21.434 6.83113 20.3956C5.30678 19.3572 4.12788 17.8866 3.446 16.1728L3.312 9.7892C3.88989 8.11671 4.93831 6.6466 6.33136 5.55546C7.72441 4.46431 9.40284 3.79852 11.1651 3.63805C12.9273 3.47759 14.6984 3.82926 16.2656 4.65085C17.8328 5.47244 19.1295 6.72899 20 8.2696V17.3304C19.1989 18.7469 18.0363 19.9256 16.6308 20.7459C15.2254 21.5663 13.6274 21.9991 12 22ZM22.1296 22.9684C21.981 23.1119 21.7826 23.1921 21.576 23.1921C21.3694 23.1921 21.171 23.1119 21.0224 22.9684C20.949 22.8935 20.8914 22.8046 20.8532 22.7069C20.815 22.6092 20.7969 22.5048 20.8 22.4V15.6H22.2308L22.3508 22.4076C22.3533 22.5111 22.3351 22.6141 22.2971 22.7104C22.2591 22.8068 22.2021 22.8945 22.1296 22.9684ZM23.2 14.396C23.2004 14.5026 23.1585 14.605 23.0836 14.6807C23.0086 14.7565 22.9066 14.7994 22.8 14.8H20.8V0.828C21.596 1.0872 23.2 2.136 23.2 6.368V14.396Z" fill="#3E3E3E"/>
<path d="M15.4898 6.51247C15.4797 6.46272 15.4663 6.41369 15.4498 6.36567C15.392 6.2175 15.3041 6.08295 15.1916 5.97051C15.0791 5.85808 14.9444 5.77021 14.7962 5.71247C12.9959 5.03009 11.0082 5.03009 9.20784 5.71247C9.05907 5.77013 8.9239 5.85807 8.8109 5.97072C8.69791 6.08337 8.60955 6.21827 8.55145 6.36687C8.53494 6.41489 8.52158 6.46392 8.51144 6.51367C7.38737 7.13434 6.45024 8.045 5.79762 9.15083C5.14501 10.2567 4.80078 11.5172 4.80078 12.8013C4.80078 14.0853 5.14501 15.3459 5.79762 16.4517C6.45024 17.5575 7.38737 18.4682 8.51144 19.0889C8.52158 19.1386 8.53494 19.1877 8.55145 19.2357C8.60931 19.3839 8.69727 19.5185 8.80976 19.631C8.92226 19.7434 9.05685 19.8314 9.20504 19.8893C11.0054 20.5714 12.9931 20.5714 14.7934 19.8893C14.9422 19.8316 15.0774 19.7437 15.1904 19.631C15.3034 19.5184 15.3917 19.3835 15.4498 19.2349C15.4663 19.1869 15.4797 19.1378 15.4898 19.0881C16.6139 18.4674 17.5511 17.5567 18.2037 16.4509C18.8563 15.3451 19.2005 14.0845 19.2005 12.8005C19.2005 11.5164 18.8563 10.2559 18.2037 9.15003C17.5511 8.0442 16.6139 7.13314 15.4898 6.51247ZM9.29704 6.65487C9.31492 6.6091 9.34226 6.56763 9.37728 6.53316C9.41229 6.4987 9.4542 6.47202 9.50025 6.45487C11.1127 5.8466 12.8914 5.8466 14.5038 6.45487C14.5494 6.47182 14.5909 6.49824 14.6256 6.5324C14.6602 6.56656 14.6872 6.60768 14.7048 6.65304C14.7224 6.6984 14.7301 6.74698 14.7276 6.79556C14.725 6.84414 14.7121 6.89162 14.6898 6.93487C14.1089 8.13406 13.6998 9.40913 13.4746 10.7225C13.1348 10.8711 12.8158 11.0636 12.5258 11.2949C12.1873 11.1674 11.814 11.1674 11.4754 11.2949C11.1855 11.0636 10.8665 10.8711 10.5266 10.7225C10.3014 9.40872 9.89216 8.13325 9.31104 6.93367C9.28931 6.89078 9.27683 6.84379 9.27442 6.79576C9.27201 6.74773 9.27972 6.69973 9.29704 6.65487ZM13.217 13.8253C13.4632 13.5406 13.5987 13.1768 13.5987 12.8005C13.5987 12.4241 13.4632 12.0604 13.217 11.7757C13.4541 11.6101 13.7114 11.4757 13.9826 11.3757C14.2449 11.2761 14.5207 11.2169 14.8006 11.2001C14.9067 11.2001 15.0085 11.2422 15.0835 11.3172C15.1585 11.3922 15.2006 11.494 15.2006 11.6001V14.0001C15.2008 14.0535 15.1899 14.1063 15.1688 14.1554C15.1477 14.2044 15.1167 14.2486 15.0778 14.2853C15.0417 14.3221 14.9986 14.3512 14.9509 14.3709C14.9033 14.3906 14.8522 14.4005 14.8006 14.4001C14.2303 14.3584 13.6827 14.1594 13.2186 13.8253H13.217ZM9.20064 14.4001C9.14724 14.4002 9.09438 14.3893 9.04532 14.3682C8.99627 14.3471 8.95207 14.3161 8.91544 14.2773C8.87867 14.2412 8.84954 14.198 8.82982 14.1504C8.8101 14.1027 8.80017 14.0516 8.80064 14.0001V11.6001C8.80064 11.4944 8.84246 11.393 8.91695 11.3181C8.99145 11.2431 9.09257 11.2007 9.19824 11.2001C9.47839 11.2169 9.75434 11.2763 10.0166 11.3761C10.2878 11.4762 10.5449 11.6106 10.7818 11.7761C10.5358 12.0607 10.4004 12.4244 10.4004 12.8007C10.4004 13.1769 10.5358 13.5406 10.7818 13.8253C10.3161 14.1556 9.76981 14.3542 9.20064 14.4001ZM11.2006 12.8001C11.2006 12.6418 11.2476 12.4872 11.3355 12.3556C11.4234 12.2241 11.5483 12.1215 11.6945 12.061C11.8407 12.0004 12.0015 11.9846 12.1567 12.0154C12.3119 12.0463 12.4544 12.1225 12.5663 12.2344C12.6782 12.3463 12.7544 12.4888 12.7853 12.644C12.8161 12.7992 12.8003 12.96 12.7397 13.1062C12.6792 13.2524 12.5767 13.3773 12.4451 13.4652C12.3135 13.5532 12.1589 13.6001 12.0006 13.6001C11.7885 13.6001 11.585 13.5158 11.435 13.3658C11.2849 13.2157 11.2006 13.0122 11.2006 12.8001ZM8.62984 18.2329C7.70374 17.6605 6.9393 16.861 6.40914 15.9101C5.87898 14.9592 5.60068 13.8886 5.60068 12.7999C5.60068 11.7112 5.87898 10.6406 6.40914 9.68968C6.9393 8.73879 7.70374 7.93921 8.62984 7.36687C9.09854 8.3492 9.44486 9.38535 9.66104 10.4521C9.50933 10.4217 9.35531 10.4043 9.20064 10.4001C8.88238 10.4001 8.57716 10.5265 8.35212 10.7515C8.12707 10.9766 8.00064 11.2818 8.00064 11.6001V14.0001C8.00222 14.3178 8.12916 14.6222 8.35386 14.8469C8.57856 15.0716 8.88287 15.1985 9.20064 15.2001C9.35532 15.1955 9.50934 15.1778 9.66104 15.1473C9.44499 16.2142 9.09867 17.2505 8.62984 18.2329ZM14.7042 18.9449C14.6865 18.9907 14.6592 19.0322 14.6241 19.0667C14.5891 19.1012 14.5472 19.1278 14.501 19.1449C12.8887 19.7534 11.1098 19.7534 9.49745 19.1449C9.45192 19.1278 9.41052 19.1013 9.37595 19.0672C9.34138 19.033 9.31443 18.9919 9.29687 18.9466C9.2793 18.9012 9.27152 18.8527 9.27403 18.8042C9.27655 18.7556 9.2893 18.7081 9.31144 18.6649C9.89281 17.4663 10.3018 16.1916 10.5262 14.8785C10.8668 14.7298 11.1864 14.5372 11.477 14.3057C11.8146 14.4326 12.1867 14.4326 12.5242 14.3057C12.8149 14.5372 13.1345 14.7298 13.475 14.8785C13.6998 16.1919 14.1089 17.4671 14.6902 18.6661C14.712 18.709 14.7245 18.756 14.7269 18.804C14.7293 18.852 14.7216 18.9 14.7042 18.9449ZM15.3714 18.2329C14.9026 17.2505 14.5563 16.2142 14.3402 15.1473C14.492 15.1778 14.646 15.1955 14.8006 15.2001C15.1184 15.1985 15.4227 15.0716 15.6474 14.8469C15.8721 14.6222 15.9991 14.3178 16.0006 14.0001V11.6001C16.0006 11.2818 15.8742 10.9766 15.6492 10.7515C15.4241 10.5265 15.1189 10.4001 14.8006 10.4001C14.646 10.4043 14.492 10.4215 14.3402 10.4517C14.5565 9.38523 14.9028 8.34935 15.3714 7.36727C16.2976 7.93956 17.062 8.7391 17.5922 9.68995C18.1223 10.6408 18.4006 11.7114 18.4006 12.8001C18.4006 13.8887 18.1223 14.9593 17.5922 15.9102C17.062 16.861 16.2976 17.6606 15.3714 18.2329Z" fill="#3E3E3E"/>
</g>
<defs>
<clipPath id="clip0_2014_3233">
<rect width="24" height="24" fill="white"/>
</clipPath>
</defs>
</svg>
