<svg width="56" height="56" viewBox="0 0 56 56" fill="none" xmlns="http://www.w3.org/2000/svg">
<path d="M40.3773 19.1154C41.2318 19.9699 41.2318 21.355 40.3773 22.2091L25.7023 36.8846C24.8478 37.7386 23.4631 37.7386 22.6086 36.8846L15.6227 29.8983C14.7682 29.0442 14.7682 27.6591 15.6227 26.805C16.4767 25.9505 17.8619 25.9505 18.7159 26.805L24.1552 32.2443L37.2836 19.1154C38.1381 18.2614 39.5233 18.2614 40.3773 19.1154ZM56 28C56 43.477 43.4749 56 28 56C12.523 56 0 43.4749 0 28C0 12.523 12.5251 0 28 0C43.477 0 56 12.5251 56 28ZM51.625 28C51.625 14.9412 41.0571 4.375 28 4.375C14.9412 4.375 4.375 14.9429 4.375 28C4.375 41.0588 14.9429 51.625 28 51.625C41.0588 51.625 51.625 41.0571 51.625 28Z" fill="#61B291"/>
</svg>
