<svg width="245" height="245" viewBox="0 0 245 245" fill="none" xmlns="http://www.w3.org/2000/svg">
<path d="M46.2314 202.566C44.6389 208.397 50.4944 213.125 55.4924 214.056C64.3859 216.8 76.2439 210.626 73.5734 200.14C70.4129 190.071 55.9089 188.674 49.0734 195.681C47.5544 197.396 46.6479 199.846 47.5054 202.051C47.7014 202.664 50.9354 202.59 51.3029 202.321C54.2919 199.136 57.7219 198.548 61.7889 199.283C64.9004 199.724 67.5464 202.223 65.6354 205.138C64.0919 207.123 60.8089 208.054 58.1384 208.201C56.3009 208.225 55.1004 207.392 53.5324 206.829C51.8909 206.143 50.7394 205.04 49.4409 203.007C49.2694 202.811 46.2804 202.198 46.2069 202.566H46.2314Z" fill="#61B291"/>
<path d="M28.0786 221.529C26.5351 226.135 31.3126 230.03 35.2326 230.741C42.2151 232.995 51.4516 227.654 49.2956 219.544C46.7721 211.092 33.5421 210.185 29.3526 217.584C28.8871 218.736 28.7891 220.01 29.3771 221.137C29.5976 221.627 32.8316 221.553 33.1746 221.406C34.4731 220.671 34.8406 220.818 35.3061 220.573C36.8251 220.01 40.4511 220.23 41.4311 221.112C41.7251 221.382 41.8476 221.333 41.8966 221.7C42.1906 222.754 41.5046 223.244 40.3531 223.954C39.5446 224.322 38.5646 224.665 37.5111 224.836C36.2861 224.983 35.5756 224.273 34.5466 224.077C33.4441 223.758 32.6356 223.268 31.3371 221.872C31.1656 221.774 28.2011 221.259 28.1031 221.553L28.0786 221.529Z" fill="#61B291"/>
<path d="M46.2314 202.566C44.6389 208.397 50.4944 213.125 55.4924 214.056C64.3859 216.8 76.2439 210.626 73.5734 200.14C70.4129 190.071 55.9089 188.674 49.0734 195.681C47.5544 197.396 46.6479 199.846 47.5054 202.051C47.7014 202.664 50.9354 202.59 51.3029 202.321C54.2919 199.136 57.7219 198.548 61.7889 199.283C64.9004 199.724 67.5464 202.223 65.6354 205.138C64.0919 207.123 60.8089 208.054 58.1384 208.201C56.3009 208.225 55.1004 207.392 53.5324 206.829C51.8909 206.143 50.7394 205.04 49.4409 203.007C49.2694 202.811 46.2804 202.198 46.2069 202.566H46.2314Z" fill="#61B291"/>
<path d="M28.0786 221.529C26.5351 226.135 31.3126 230.03 35.2326 230.741C42.2151 232.995 51.4516 227.654 49.2956 219.544C46.7721 211.092 33.5421 210.185 29.3526 217.584C28.8871 218.736 28.7891 220.01 29.3771 221.137C29.5976 221.627 32.8316 221.553 33.1746 221.406C34.4731 220.671 34.8406 220.818 35.3061 220.573C36.8251 220.01 40.4511 220.23 41.4311 221.112C41.7251 221.382 41.8476 221.333 41.8966 221.7C42.1906 222.754 41.5046 223.244 40.3531 223.954C39.5446 224.322 38.5646 224.665 37.5111 224.836C36.2861 224.983 35.5756 224.273 34.5466 224.077C33.4441 223.758 32.6356 223.268 31.3371 221.872C31.1656 221.774 28.2011 221.259 28.1031 221.553L28.0786 221.529Z" fill="#61B291"/>
<path d="M232.634 115.771C230.919 111.165 228.42 106.853 225.456 102.933L224.819 108.495C235.599 100.63 242.287 87.6941 243.365 74.4396C247.653 29.9966 190.764 0.915097 155.827 27.1546L161.266 28.2816C154.381 16.9626 143.332 8.5346 130.739 4.5656C111.874 -1.1429 87.888 2.2871 75.5155 18.7756C74.217 20.4416 76.7405 22.4751 78.284 21.3726C90.7055 11.3031 107.023 6.8196 122.629 10.2986C135.761 13.0181 147.644 20.8826 154.553 32.2506C155.729 34.2106 158.326 34.7986 160.261 33.5491C174.79 22.7691 195.1 22.3526 210.878 30.8296C240.229 45.8481 246.771 81.9611 221.658 104.477C221.144 104.844 221.046 105.604 221.462 106.069C224.133 108.985 226.632 112.096 228.91 115.453C229.572 116.408 233.051 116.972 232.61 115.747L232.634 115.771Z" fill="#61B291"/>
<path d="M68.6315 25.7337C67.9455 26.7382 67.284 27.7427 66.598 28.7472L70.763 27.0077C18.137 8.04468 -23.7335 70.9607 17.99 110.602L17.304 106.045C10.885 117.78 8.63097 132.284 13.188 145.098C18.6515 161.121 32.494 174.914 49.0805 178.516C50.82 178.883 51.7265 175.772 50.33 174.939C38.5455 168.495 27.4715 159.896 22.155 147.401C16.5445 135.224 17.745 121.21 24.213 109.548C24.948 107.956 24.556 106.143 23.3555 104.991C18.5535 100.41 14.609 95.0442 11.9875 89.1152C1.86897 67.5797 14.7315 39.5272 37.3205 32.1527C47.537 28.6002 58.856 28.5512 69.7095 30.5847C69.8075 30.5847 69.93 30.5357 69.9545 30.4377L70.616 28.7227C70.959 27.7917 69.2685 24.8027 68.6315 25.7092V25.7337Z" fill="#61B291"/>
<path d="M57.827 182.117C71.4245 185.939 86.6635 182.068 98.007 173.959H93.499C113.173 187.997 139.633 190.913 159.992 176.458L155.778 176.605C184.027 194.441 223.913 183.342 234.766 150.61C237.486 142.452 237.951 132.97 234.57 125.13C233.909 123.464 230.822 124.444 230.895 126.037C232.12 139.463 228.886 152.913 219.405 162.64C204.313 179.349 178.563 181.676 159.625 169.99C158.326 169.255 156.758 169.377 155.607 170.186C148.453 175.257 139.731 178.344 130.813 178.761C119.077 179.496 106.754 175.38 96.831 168.863C96.096 168.422 95.165 168.471 94.5035 168.912C91 171.288 87.423 173.175 83.1845 174.988C75.957 178.026 68.019 179.079 59.885 179.153C58.905 179.153 56.749 181.799 57.8025 182.068L57.827 182.117Z" fill="#61B291"/>
</svg>
