<svg width="17" height="17" viewBox="0 0 17 17" fill="none" xmlns="http://www.w3.org/2000/svg">
<g clip-path="url(#clip0_2_7272)">
<path d="M8.5 0.5C4.08888 0.5 0.5 4.08888 0.5 8.5C0.5 12.9111 4.08888 16.5 8.5 16.5C12.9111 16.5 16.5 12.9111 16.5 8.5C16.5 4.08888 12.9111 0.5 8.5 0.5ZM8.5 15.5C4.64013 15.5 1.5 12.3599 1.5 8.5C1.5 4.64013 4.64013 1.5 8.5 1.5C12.3599 1.5 15.5 4.64013 15.5 8.5C15.5 12.3599 12.3599 15.5 8.5 15.5Z" fill="#3E3E3E"/>
<path d="M9 3.5H8V8.70702L11.1465 11.8535L11.8535 11.1465L9 8.29295V3.5Z" fill="#3E3E3E"/>
</g>
<defs>
<clipPath id="clip0_2_7272">
<rect width="16" height="16" fill="white" transform="translate(0.5 0.5)"/>
</clipPath>
</defs>
</svg>
