<svg width="28" height="28" viewBox="0 0 28 28" fill="none" xmlns="http://www.w3.org/2000/svg">
<path fill-rule="evenodd" clip-rule="evenodd" d="M17.9335 24.433L21.6724 27.4443C21.8192 27.5629 21.9966 27.6376 22.184 27.6597C22.3715 27.6817 22.5613 27.6502 22.7316 27.5689C22.9019 27.4875 23.0457 27.3595 23.1463 27.1999C23.2469 27.0402 23.3003 26.8552 23.3002 26.6665V21.6636C24.648 20.5746 25.7384 19.201 26.4933 17.6413C27.2482 16.0815 27.649 14.3742 27.6668 12.6415C27.6668 5.88033 21.5724 0.33313 14.0002 0.33313C6.42795 0.33313 0.333496 5.88033 0.333496 12.6415C0.333496 19.4026 6.42794 24.9526 14.0002 24.9526C15.3285 24.9548 16.6513 24.7801 17.9335 24.433ZM18.7835 22.5498C18.6555 22.4469 18.5042 22.3772 18.3429 22.3467C18.1816 22.3161 18.0152 22.3258 17.8585 22.3748C16.6088 22.7603 15.308 22.9551 14.0002 22.9526C7.59186 22.9526 2.3335 18.3665 2.3335 12.6415C2.3335 6.9192 7.59186 2.33313 14.0002 2.33313C20.4085 2.33313 25.6668 6.9192 25.6668 12.6415C25.6442 14.1528 25.2732 15.6385 24.5828 16.9832C23.8925 18.3278 22.9012 19.495 21.6863 20.3942C21.5659 20.4875 21.4685 20.6071 21.4016 20.7438C21.3346 20.8806 21.2999 21.0309 21.3002 21.1832V24.5776L18.7835 22.5498Z" fill="#61B291"/>
</svg>
