<svg width="12" height="13" viewBox="0 0 12 13" fill="none" xmlns="http://www.w3.org/2000/svg">
<path d="M6 12.125C4.88748 12.125 3.79995 11.7951 2.87492 11.177C1.94989 10.5589 1.22892 9.68043 0.80318 8.6526C0.377437 7.62476 0.266043 6.49376 0.483085 5.40262C0.700127 4.31148 1.23586 3.3092 2.02253 2.52253C2.8092 1.73586 3.81148 1.20013 4.90262 0.983085C5.99376 0.766043 7.12476 0.877437 8.1526 1.30318C9.18043 1.72892 10.0589 2.44989 10.677 3.37492C11.2951 4.29995 11.625 5.38748 11.625 6.5C11.625 7.99185 11.0324 9.42259 9.97748 10.4775C8.92259 11.5324 7.49185 12.125 6 12.125ZM6 1.625C5.03582 1.625 4.09329 1.91092 3.2916 2.44659C2.48991 2.98226 1.86507 3.74363 1.49609 4.63442C1.12711 5.52521 1.03057 6.50541 1.21867 7.45107C1.40678 8.39673 1.87108 9.26537 2.55286 9.94715C3.23464 10.6289 4.10328 11.0932 5.04894 11.2813C5.99459 11.4694 6.97479 11.3729 7.86558 11.0039C8.75637 10.6349 9.51775 10.0101 10.0534 9.20841C10.5891 8.40672 10.875 7.46419 10.875 6.5C10.875 5.20707 10.3614 3.9671 9.44715 3.05286C8.53291 2.13862 7.29293 1.625 6 1.625ZM8.1225 8.6225C8.19312 8.55189 8.23279 8.45612 8.23279 8.35625C8.23279 8.25639 8.19312 8.16062 8.1225 8.09C8.05189 8.01939 7.95612 7.97972 7.85625 7.97972C7.75639 7.97972 7.66062 8.01939 7.59 8.09C7.16813 8.51135 6.59625 8.74802 6 8.74802C5.40375 8.74802 4.83188 8.51135 4.41 8.09C3.98865 7.66813 3.75198 7.09625 3.75198 6.5C3.75198 5.90375 3.98865 5.33188 4.41 4.91C4.83188 4.48865 5.40375 4.25198 6 4.25198C6.59625 4.25198 7.16813 4.48865 7.59 4.91C7.62497 4.94497 7.66648 4.9727 7.71216 4.99162C7.75784 5.01055 7.80681 5.02029 7.85625 5.02029C7.9057 5.02029 7.95466 5.01055 8.00035 4.99162C8.04603 4.9727 8.08754 4.94497 8.1225 4.91C8.15747 4.87504 8.1852 4.83353 8.20412 4.78785C8.22305 4.74216 8.23279 4.6932 8.23279 4.64375C8.23279 4.59431 8.22305 4.54534 8.20412 4.49966C8.1852 4.45398 8.15747 4.41247 8.1225 4.3775C7.70281 3.95828 7.16826 3.67289 6.58641 3.5574C6.00455 3.44192 5.40153 3.50152 4.85354 3.72868C4.30556 3.95584 3.83722 4.34036 3.50772 4.83364C3.17823 5.32691 3.00236 5.9068 3.00236 6.5C3.00236 7.0932 3.17823 7.67309 3.50772 8.16637C3.83722 8.65964 4.30556 9.04416 4.85354 9.27132C5.40153 9.49848 6.00455 9.55809 6.58641 9.4426C7.16826 9.32712 7.70281 9.04173 8.1225 8.6225Z" fill="#3E3E3E"/>
</svg>
