<svg width="24" height="24" viewBox="0 0 24 24" fill="none" xmlns="http://www.w3.org/2000/svg">
<path d="M18.1321 15.0235C18.0859 15.0062 18.0368 14.9981 17.9875 14.9997C17.9382 15.0014 17.8897 15.0127 17.8448 15.0331C17.7999 15.0535 17.7595 15.0826 17.7258 15.1187C17.6922 15.1547 17.666 15.1971 17.6487 15.2433L16.8751 17.3069L16.1015 15.2444C16.0667 15.1512 15.9963 15.0757 15.9057 15.0344C15.8152 14.9931 15.712 14.9895 15.6188 15.0243C15.5256 15.0591 15.4501 15.1295 15.4088 15.22C15.3675 15.3105 15.3639 15.4137 15.3987 15.5069L16.5237 18.5069C16.5504 18.5786 16.5984 18.6403 16.6612 18.6839C16.724 18.7275 16.7986 18.7509 16.8751 18.7509C16.9515 18.7509 17.0262 18.7275 17.089 18.6839C17.1518 18.6403 17.1998 18.5786 17.2265 18.5069L18.3515 15.5069C18.3688 15.4608 18.377 15.4117 18.3753 15.3624C18.3737 15.3131 18.3624 15.2646 18.342 15.2197C18.3216 15.1748 18.2926 15.1344 18.2566 15.1007C18.2206 15.0671 18.1783 15.0408 18.1321 15.0235Z" fill="#E1E1E1"/>
<path d="M19.4765 15.2433C19.4592 15.1972 19.4331 15.1549 19.3995 15.1189C19.3659 15.0828 19.3256 15.0538 19.2807 15.0333C19.2359 15.0129 19.1875 15.0015 19.1383 14.9997C19.0891 14.998 19.04 15.006 18.9938 15.0232C18.9477 15.0405 18.9054 15.0666 18.8694 15.1002C18.8333 15.1338 18.8043 15.1741 18.7838 15.2189C18.7634 15.2638 18.752 15.3122 18.7502 15.3614C18.7485 15.4106 18.7565 15.4597 18.7737 15.5058L19.8987 18.5058C19.9254 18.5775 19.9734 18.6393 20.0362 18.6829C20.099 18.7265 20.1736 18.7499 20.2501 18.7499C20.3265 18.7499 20.4012 18.7265 20.464 18.6829C20.5268 18.6393 20.5748 18.5775 20.6015 18.5058L21.7265 15.5058C21.7437 15.4597 21.7517 15.4106 21.7499 15.3614C21.7482 15.3122 21.7368 15.2638 21.7164 15.2189C21.6959 15.1741 21.6668 15.1338 21.6308 15.1002C21.5948 15.0666 21.5525 15.0405 21.5063 15.0232C21.4602 15.006 21.4111 14.998 21.3619 14.9997C21.3127 15.0015 21.2643 15.0129 21.2194 15.0333C21.1746 15.0538 21.1343 15.0828 21.1007 15.1189C21.0671 15.1549 21.0409 15.1972 21.0237 15.2433L20.2501 17.307L19.4765 15.2433Z" fill="#E1E1E1"/>
<path d="M21.375 3H2.625C2.12772 3 1.65081 3.19754 1.29917 3.54917C0.947544 3.90081 0.75 4.37772 0.75 4.875V16.875C0.75 17.3723 0.947544 17.8492 1.29917 18.2008C1.65081 18.5525 2.12772 18.75 2.625 18.75H10.7812C11.2298 20.2095 12.1872 21.4596 13.4795 22.2728C14.7718 23.0861 16.3131 23.4085 17.823 23.1815C19.3329 22.9544 20.7112 22.193 21.7071 21.0356C22.7031 19.8783 23.2506 18.4019 23.25 16.875V4.875C23.25 4.37772 23.0525 3.90081 22.7008 3.54917C22.3492 3.19754 21.8723 3 21.375 3ZM16.875 22.5C15.7625 22.5 14.6749 22.1701 13.7499 21.552C12.8249 20.9339 12.1039 20.0554 11.6782 19.0276C11.2524 17.9998 11.141 16.8688 11.3581 15.7776C11.5751 14.6865 12.1109 13.6842 12.8975 12.8975C13.6842 12.1109 14.6865 11.5751 15.7776 11.3581C16.8688 11.141 17.9998 11.2524 19.0276 11.6782C20.0554 12.1039 20.9339 12.8249 21.552 13.7499C22.1701 14.6749 22.5 15.7625 22.5 16.875C22.4982 18.3663 21.905 19.796 20.8505 20.8505C19.796 21.905 18.3663 22.4982 16.875 22.5ZM22.5 13.8825C21.8328 12.6264 20.7645 11.6297 19.4652 11.051C18.166 10.4722 16.7105 10.3448 15.3305 10.689C13.9505 11.0331 12.7252 11.829 11.8499 12.9501C10.9745 14.0711 10.4993 15.4527 10.5 16.875C10.5025 17.2523 10.5376 17.6287 10.605 18H2.625C2.32691 17.9991 2.04127 17.8803 1.83049 17.6695C1.6197 17.4587 1.50089 17.1731 1.5 16.875V9.75H22.5V13.8825ZM22.5 9H1.5V6.75H22.5V9ZM22.5 6H1.5V4.875C1.50089 4.57691 1.6197 4.29127 1.83049 4.08049C2.04127 3.8697 2.32691 3.75089 2.625 3.75H21.375C21.6731 3.75089 21.9587 3.8697 22.1695 4.08049C22.3803 4.29127 22.4991 4.57691 22.5 4.875V6Z" fill="#E1E1E1"/>
<path d="M8.25 13.5H4.5C4.10218 13.5 3.72064 13.658 3.43934 13.9393C3.15804 14.2206 3 14.6022 3 15C3 15.3978 3.15804 15.7794 3.43934 16.0607C3.72064 16.342 4.10218 16.5 4.5 16.5H8.25C8.64782 16.5 9.02936 16.342 9.31066 16.0607C9.59196 15.7794 9.75 15.3978 9.75 15C9.75 14.6022 9.59196 14.2206 9.31066 13.9393C9.02936 13.658 8.64782 13.5 8.25 13.5ZM8.25 15.75H4.5C4.30109 15.75 4.11032 15.671 3.96967 15.5303C3.82902 15.3897 3.75 15.1989 3.75 15C3.75 14.8011 3.82902 14.6103 3.96967 14.4697C4.11032 14.329 4.30109 14.25 4.5 14.25H8.25C8.44891 14.25 8.63968 14.329 8.78033 14.4697C8.92098 14.6103 9 14.8011 9 15C9 15.1989 8.92098 15.3897 8.78033 15.5303C8.63968 15.671 8.44891 15.75 8.25 15.75Z" fill="#E1E1E1"/>
<path d="M13.875 15.7501C14.0594 15.7501 14.2374 15.818 14.3749 15.9409C14.4113 15.9755 14.4542 16.0024 14.5011 16.02C14.5481 16.0376 14.5981 16.0457 14.6482 16.0437C14.6983 16.0416 14.7475 16.0296 14.7929 16.0082C14.8383 15.9868 14.8789 15.9566 14.9124 15.9192C14.9458 15.8818 14.9715 15.8381 14.9877 15.7907C15.004 15.7433 15.0106 15.693 15.0072 15.643C15.0037 15.593 14.9902 15.5441 14.9675 15.4994C14.9449 15.4547 14.9134 15.4149 14.8751 15.3826C14.6593 15.1895 14.3923 15.063 14.1062 15.0184C13.8201 14.9738 13.5272 15.0129 13.2629 15.1311C12.9986 15.2492 12.7741 15.4413 12.6165 15.6843C12.459 15.9272 12.3751 16.2105 12.375 16.5001V17.2501C12.3751 17.5396 12.459 17.8229 12.6165 18.0659C12.7741 18.3088 12.9986 18.5009 13.2629 18.6191C13.5272 18.7372 13.8201 18.7763 14.1062 18.7317C14.3923 18.6871 14.6593 18.5606 14.8751 18.3676C14.9134 18.3352 14.9449 18.2955 14.9675 18.2507C14.9902 18.206 15.0037 18.1572 15.0072 18.1071C15.0106 18.0571 15.004 18.0069 14.9877 17.9594C14.9715 17.912 14.9458 17.8683 14.9124 17.8309C14.8789 17.7936 14.8383 17.7633 14.7929 17.7419C14.7475 17.7206 14.6983 17.7085 14.6482 17.7065C14.5981 17.7044 14.5481 17.7125 14.5011 17.7301C14.4542 17.7478 14.4113 17.7747 14.3749 17.8092C14.267 17.9057 14.1334 17.9689 13.9904 17.9911C13.8473 18.0134 13.7009 17.9938 13.5687 17.9347C13.4366 17.8756 13.3244 17.7795 13.2456 17.658C13.1669 17.5365 13.125 17.3948 13.125 17.2501V16.5001C13.125 16.3012 13.204 16.1104 13.3447 15.9697C13.4853 15.8291 13.6761 15.7501 13.875 15.7501Z" fill="#E1E1E1"/>
</svg>
