<svg width="29" height="29" viewBox="0 0 29 29" fill="none" xmlns="http://www.w3.org/2000/svg">
<path d="M16.23 21.9499V13.012C16.23 12.6344 16.5361 12.3284 16.9136 12.3284C17.2911 12.3284 17.5972 12.6344 17.5972 13.012V21.9499C17.5972 22.3274 17.2911 22.6335 16.9136 22.6335C16.5361 22.6335 16.23 22.3274 16.23 21.9499ZM12.0835 22.6335C12.461 22.6335 12.7671 22.3274 12.7671 21.9499V13.012C12.7671 12.6344 12.461 12.3284 12.0835 12.3284C11.706 12.3284 11.3999 12.6344 11.3999 13.012V21.9499C11.3999 22.3274 11.706 22.6335 12.0835 22.6335ZM25.208 6.22972V7.84229C25.208 8.65987 24.5428 9.32503 23.7252 9.32503H23.2777V22.4455C23.2777 25.2261 21.0156 27.4883 18.2349 27.4883H10.762C7.98146 27.4883 5.71931 25.2261 5.71931 22.4455V9.32509H5.2718C4.45423 9.32509 3.78906 8.65992 3.78906 7.84234V6.22977C3.78906 5.4122 4.45423 4.74703 5.2718 4.74703H10.2335V3.74603C10.2335 2.51403 11.2358 1.51172 12.4678 1.51172H16.5292C17.7612 1.51172 18.7635 2.51403 18.7635 3.74603V4.74698H23.7252C24.5428 4.74698 25.208 5.41214 25.208 6.22972ZM11.6007 4.74698H17.3964V3.74603C17.3964 3.2679 17.0074 2.87891 16.5293 2.87891H12.4679C11.9897 2.87891 11.6007 3.2679 11.6007 3.74603L11.6007 4.74698ZM21.9105 9.32509H7.0865V22.4455C7.0865 24.4723 8.73533 26.1211 10.762 26.1211H18.2349C20.2617 26.1211 21.9105 24.4723 21.9105 22.4455V9.32509ZM23.8408 6.22972C23.8408 6.16814 23.7868 6.11416 23.7252 6.11416H5.2718C5.21023 6.11416 5.15625 6.16814 5.15625 6.22972V7.84229C5.15625 7.90387 5.21023 7.95784 5.2718 7.95784H23.7252C23.7868 7.95784 23.8408 7.90387 23.8408 7.84229V6.22972Z" fill="#ECBBB5"/>
</svg>
