<svg width="14" height="11" viewBox="0 0 14 11" fill="none" xmlns="http://www.w3.org/2000/svg">
<path d="M12.4961 0.167969H1.50391C1.10518 0.168403 0.722907 0.326989 0.440964 0.608932C0.159021 0.890875 0.000434265 1.27315 0 1.67188V9.32812C0.000434265 9.72685 0.159021 10.1091 0.440964 10.3911C0.722907 10.673 1.10518 10.8316 1.50391 10.832H12.4961C12.8948 10.8316 13.2771 10.673 13.559 10.3911C13.841 10.1091 13.9996 9.72685 14 9.32812V1.67188C13.9996 1.27315 13.841 0.890875 13.559 0.608932C13.2771 0.326989 12.8948 0.168403 12.4961 0.167969ZM13.1797 1.67188V9.32812C13.1797 9.36135 13.1772 9.39453 13.1723 9.42738L9.22879 5.5L13.1723 1.57262C13.1772 1.60547 13.1797 1.63865 13.1797 1.67188ZM12.4961 0.988281C12.5276 0.988385 12.559 0.990577 12.5902 0.994844L7 6.56176L1.40984 0.994844C1.44102 0.990577 1.47244 0.988385 1.50391 0.988281H12.4961ZM0.827695 9.42738C0.82275 9.39453 0.820282 9.36135 0.820312 9.32812V1.67188C0.820282 1.63865 0.82275 1.60547 0.827695 1.57262L4.77121 5.5L0.827695 9.42738ZM1.50391 10.0117C1.47244 10.0116 1.44102 10.0094 1.40984 10.0052L5.35254 6.07887L6.7107 7.43129C6.78756 7.50776 6.89158 7.5507 7 7.5507C7.10842 7.5507 7.21244 7.50776 7.2893 7.43129L8.64746 6.07887L12.5902 10.0052C12.559 10.0094 12.5276 10.0116 12.4961 10.0117H1.50391Z" fill="#3E3E3E"/>
</svg>
