<svg width="12" height="11" viewBox="0 0 12 11" fill="none" xmlns="http://www.w3.org/2000/svg">
<path d="M11.25 9V7.25C11.25 7.13397 11.2039 7.02269 11.1219 6.94064C11.0398 6.85859 10.9285 6.8125 10.8125 6.8125C10.6965 6.8125 10.5852 6.85859 10.5031 6.94064C10.4211 7.02269 10.375 7.13397 10.375 7.25V9C10.375 9.11603 10.3289 9.22731 10.2469 9.30936C10.1648 9.39141 10.0535 9.4375 9.9375 9.4375H2.0625C1.94647 9.4375 1.83519 9.39141 1.75314 9.30936C1.67109 9.22731 1.625 9.11603 1.625 9V7.25C1.625 7.13397 1.57891 7.02269 1.49686 6.94064C1.41481 6.85859 1.30353 6.8125 1.1875 6.8125C1.07147 6.8125 0.960188 6.85859 0.878141 6.94064C0.796094 7.02269 0.75 7.13397 0.75 7.25V9C0.75 9.3481 0.888281 9.68194 1.13442 9.92808C1.38056 10.1742 1.7144 10.3125 2.0625 10.3125H9.9375C10.2856 10.3125 10.6194 10.1742 10.8656 9.92808C11.1117 9.68194 11.25 9.3481 11.25 9ZM8.45875 6.71625L6.27125 8.46625C6.19401 8.52729 6.09844 8.56049 6 8.56049C5.90156 8.56049 5.80599 8.52729 5.72875 8.46625L3.54125 6.71625C3.46154 6.64101 3.41298 6.5386 3.40517 6.42927C3.39736 6.31995 3.43087 6.21167 3.49908 6.12587C3.56728 6.04007 3.6652 5.98299 3.77347 5.96593C3.88174 5.94887 3.99247 5.97307 4.08375 6.03375L5.5625 7.215V1.125C5.5625 1.00897 5.60859 0.897688 5.69064 0.815641C5.77269 0.733594 5.88397 0.6875 6 0.6875C6.11603 0.6875 6.22731 0.733594 6.30936 0.815641C6.39141 0.897688 6.4375 1.00897 6.4375 1.125V7.215L7.91625 6.03375C7.96031 5.99216 8.01252 5.96018 8.06958 5.93983C8.12664 5.91948 8.18731 5.9112 8.24773 5.91551C8.30816 5.91983 8.36704 5.93665 8.42062 5.96491C8.47421 5.99316 8.52135 6.03224 8.55905 6.07967C8.59674 6.12709 8.62418 6.18183 8.63962 6.24041C8.65506 6.299 8.65816 6.36015 8.64873 6.41999C8.6393 6.47983 8.61755 6.53707 8.58484 6.58807C8.55214 6.63906 8.5092 6.68271 8.45875 6.71625Z" fill="#3E3E3E"/>
</svg>
