<svg width="14" height="11" viewBox="0 0 14 11" fill="none" xmlns="http://www.w3.org/2000/svg">
<path d="M8.3125 1.5625H7.875V2.4375H8.3125C10.4838 2.4375 12.25 3.98538 12.25 6.15625C12.25 8.32712 10.4838 9.875 8.3125 9.875H5.6875C3.51619 9.875 1.75 8.32712 1.75 6.15625C1.75415 5.21067 2.11836 4.30217 2.76854 3.61558C3.41872 2.92899 4.30604 2.51586 5.25 2.46025V3.75L7 2L5.25 0.25V1.58263C4.07399 1.64028 2.96485 2.14666 2.15097 2.99749C1.33709 3.84833 0.880418 4.97884 0.875 6.15625C0.875 8.80969 3.03406 10.75 5.6875 10.75H8.3125C10.9659 10.75 13.125 8.80969 13.125 6.15625C13.125 3.50281 10.9659 1.5625 8.3125 1.5625Z" fill="#3E3E3E"/>
</svg>
