<svg width="20" height="20" viewBox="0 0 20 20" fill="none" xmlns="http://www.w3.org/2000/svg">
<path d="M16.25 19.8443H3.75C3.147 19.8443 2.65625 19.3535 2.65625 18.7505V16.2505C2.65625 13.2604 4.44337 10.5929 7.20888 9.45459L7.56594 10.3213C5.15294 11.3147 3.59375 13.6419 3.59375 16.2505V18.7505C3.59375 18.8366 3.66394 18.9068 3.75 18.9068H16.25C16.3361 18.9068 16.4063 18.8366 16.4063 18.7505V16.2505C16.4063 14.5379 15.7404 12.9287 14.5309 11.7196C13.9276 11.1163 13.2221 10.646 12.4341 10.3213L12.7911 9.45459C13.6941 9.82659 14.5026 10.3655 15.1938 11.0568C16.5802 12.4429 17.3437 14.2873 17.3437 16.2506V18.7506C17.3437 19.3536 16.853 19.8443 16.25 19.8443Z" fill="#3E3E3E"/>
<path d="M10 11.0938C6.98456 11.0938 4.53125 8.64044 4.53125 5.625C4.53125 2.60956 6.98456 0.15625 10 0.15625C13.0154 0.15625 15.4688 2.60956 15.4688 5.625C15.4688 8.64044 13.0154 11.0938 10 11.0938ZM10 1.09375C7.5015 1.09375 5.46875 3.1265 5.46875 5.625C5.46875 8.1235 7.5015 10.1562 10 10.1562C12.4985 10.1562 14.5312 8.1235 14.5312 5.625C14.5312 3.1265 12.4985 1.09375 10 1.09375Z" fill="#3E3E3E"/>
</svg>
