<svg width="48" height="48" viewBox="0 0 48 48" fill="none" xmlns="http://www.w3.org/2000/svg">
<path fill-rule="evenodd" clip-rule="evenodd" d="M24.0003 4.25641C13.0962 4.25641 4.25673 13.0959 4.25673 24C4.25673 34.9041 13.0962 43.7435 24.0003 43.7435C34.9045 43.7435 43.7438 34.9041 43.7438 24C43.7438 13.0959 34.9045 4.25641 24.0003 4.25641ZM0.666992 24C0.666992 11.1134 11.1137 0.666672 24.0003 0.666672C36.8869 0.666672 47.3337 11.1134 47.3337 24C47.3337 36.8865 36.8869 47.3333 24.0003 47.3333C11.1137 47.3333 0.666992 36.8865 0.666992 24Z" fill="#ECBBB5"/>
<path fill-rule="evenodd" clip-rule="evenodd" d="M23.9999 13.829C24.9911 13.829 25.7947 14.6326 25.7947 15.6239V25.1964C25.7947 26.1879 24.9911 26.9915 23.9999 26.9915C23.0087 26.9915 22.2051 26.1879 22.2051 25.1964V15.6239C22.2051 14.6326 23.0087 13.829 23.9999 13.829Z" fill="#ECBBB5"/>
<path d="M26.3936 32.376C26.3936 33.6978 25.3221 34.7693 24.0005 34.7693C22.6789 34.7693 21.6074 33.6978 21.6074 32.376C21.6074 31.0544 22.6789 29.9829 24.0005 29.9829C25.3221 29.9829 26.3936 31.0544 26.3936 32.376Z" fill="#ECBBB5"/>
</svg>
