<svg width="29" height="29" viewBox="0 0 29 29" fill="none" xmlns="http://www.w3.org/2000/svg">
<g clip-path="url(#clip0_2118_16933)">
<path d="M16.3745 28.5H7.97453C6.98362 28.5 6.03329 28.1064 5.3326 27.4057C4.63192 26.705 4.23828 25.7547 4.23828 24.7638V4.23625C4.23828 3.24533 4.63192 2.29501 5.3326 1.59432C6.03329 0.89364 6.98362 0.5 7.97453 0.5L16.3745 0.5C17.1171 0.5 17.8293 0.794999 18.3544 1.3201C18.8795 1.8452 19.1745 2.55739 19.1745 3.3V8.55C19.1521 8.78157 19.0442 8.99648 18.8719 9.15285C18.6996 9.30922 18.4753 9.39585 18.2427 9.39585C18.01 9.39585 17.7857 9.30922 17.6134 9.15285C17.4411 8.99648 17.3332 8.78157 17.3108 8.55V3.3C17.3108 3.05169 17.2121 2.81355 17.0366 2.63797C16.861 2.46239 16.6228 2.36375 16.3745 2.36375H7.97453C7.47791 2.36375 7.00164 2.56103 6.65047 2.91219C6.29931 3.26335 6.10203 3.73963 6.10203 4.23625V24.7638C6.10433 25.2573 6.30143 25.7301 6.65045 26.0791C6.99948 26.4281 7.47219 26.6252 7.96578 26.6275H16.3658C16.6126 26.6275 16.8494 26.5301 17.0247 26.3564C17.2001 26.1827 17.2997 25.9468 17.302 25.7V20.45C17.2894 20.32 17.3041 20.1889 17.3452 20.0649C17.3863 19.941 17.4529 19.827 17.5407 19.7303C17.6284 19.6337 17.7354 19.5564 17.8548 19.5035C17.9742 19.4507 18.1033 19.4233 18.2339 19.4233C18.3645 19.4233 18.4936 19.4507 18.613 19.5035C18.7324 19.5564 18.8394 19.6337 18.9272 19.7303C19.0149 19.827 19.0815 19.941 19.1226 20.0649C19.1637 20.1889 19.1784 20.32 19.1658 20.45V25.7C19.1658 26.4411 18.872 27.152 18.3488 27.6768C17.8256 28.2017 17.1156 28.4977 16.3745 28.5Z" fill="#FFD580"/>
<path d="M24.6927 14.8589C24.7604 14.6883 24.7774 14.5017 24.7417 14.3217C24.706 14.1417 24.6191 13.9757 24.4915 13.8439L21.6915 11.0001C21.5128 10.8433 21.2811 10.7603 21.0434 10.7681C20.8058 10.7758 20.58 10.8737 20.4119 11.0418C20.2438 11.2099 20.1459 11.4357 20.1382 11.6733C20.1304 11.911 20.2134 12.1427 20.3702 12.3214L21.5777 13.5289H13.799C13.5674 13.5513 13.3525 13.6592 13.1961 13.8315C13.0398 14.0038 12.9531 14.2281 12.9531 14.4607C12.9531 14.6934 13.0398 14.9177 13.1961 15.09C13.3525 15.2623 13.5674 15.3701 13.799 15.3926H21.5777L20.3702 16.6001C20.1846 16.7753 20.0761 17.0171 20.0687 17.2723C20.0614 17.5274 20.1556 17.7751 20.3308 17.9607C20.5061 18.1464 20.7478 18.2548 21.003 18.2622C21.2582 18.2696 21.5058 18.1753 21.6915 18.0001L24.4915 15.2001C24.5821 15.102 24.6507 14.9857 24.6927 14.8589Z" fill="#FFD580"/>
</g>
<defs>
<clipPath id="clip0_2118_16933">
<rect width="28" height="28" fill="white" transform="translate(0.5 0.5)"/>
</clipPath>
</defs>
</svg>
