<svg width="24" height="24" viewBox="0 0 24 24" fill="none" xmlns="http://www.w3.org/2000/svg">
<path d="M23.9394 11.7145C19.2999 2.13157 4.66144 2.18056 0.0606094 11.7145C-0.0202031 11.8963 -0.0202031 12.1038 0.0606094 12.2856C4.69889 21.8665 19.3335 21.8254 23.9394 12.2856C24.0203 12.1038 24.0203 11.8963 23.9394 11.7145ZM1.49114 12.0001C2.27602 10.5499 3.81267 8.63604 6.13303 7.36343C3.99867 9.93959 3.99905 14.0609 6.13303 16.6366C3.80822 15.3616 2.27325 13.4451 1.49114 12.0001ZM12 18.075C8.65027 18.075 5.92505 15.3498 5.92505 12C6.25875 3.94071 17.7426 3.94306 18.075 12.0001C18.075 15.3498 15.3498 18.075 12 18.075ZM17.8671 16.6366C20.0014 14.0605 20.001 9.93912 17.8671 7.36348C20.1919 8.63848 21.7268 10.555 22.509 12C21.7241 13.4501 20.1874 15.364 17.8671 16.6366Z" fill="#FFFFF5"/>
<path d="M12 2.9125C12.3883 2.9125 12.7031 2.59769 12.7031 2.20937V0.703139C12.666 -0.229767 11.3337 -0.229064 11.2969 0.703139V2.20937C11.2969 2.59769 11.6117 2.9125 12 2.9125Z" fill="#FFFFF5"/>
<path d="M12 21.0875C11.6117 21.0875 11.2969 21.4023 11.2969 21.7906V23.2969C11.334 24.2298 12.6663 24.2291 12.7031 23.2969V21.7906C12.7031 21.4023 12.3883 21.0875 12 21.0875Z" fill="#FFFFF5"/>
<path d="M3.21808 4.21281C3.49263 4.48736 3.9378 4.4874 4.21244 4.21281C4.48699 3.93822 4.48699 3.49305 4.21244 3.21845L3.14754 2.1535C2.87299 1.87895 2.42777 1.8789 2.15318 2.1535C1.87863 2.42809 1.87863 2.87326 2.15318 3.14786L3.21808 4.21281Z" fill="#FFFFF5"/>
<path d="M3.21812 19.7872L2.15321 20.8521C1.87862 21.1267 1.87862 21.5719 2.15321 21.8464C2.42771 22.121 2.87298 22.1211 3.14757 21.8464L4.21248 20.7815C4.48707 20.5069 4.48707 20.0618 4.21248 19.7872C3.93793 19.5126 3.49271 19.5126 3.21812 19.7872Z" fill="#FFFFF5"/>
<path d="M20.7823 4.21289L21.8472 3.14798C22.1218 2.87339 22.1218 2.42821 21.8472 2.15362C21.5726 1.87903 21.1275 1.87907 20.8529 2.15362L19.788 3.21848C19.5134 3.49307 19.5134 3.93825 19.788 4.21284C20.063 4.48785 20.5081 4.48701 20.7823 4.21289Z" fill="#FFFFF5"/>
<path d="M20.7823 19.7872C20.5078 19.5126 20.0626 19.5126 19.788 19.7872C19.5134 20.0618 19.5134 20.5069 19.788 20.7815L20.8529 21.8464C21.1274 22.121 21.5726 22.1211 21.8472 21.8464C22.1218 21.5719 22.1218 21.1267 21.8472 20.8521L20.7823 19.7872Z" fill="#FFFFF5"/>
<path d="M11.9996 9.03754C10.3661 9.03754 9.03711 10.3665 9.03711 12C9.19986 15.9302 14.8 15.9291 14.9622 12C14.9621 10.3665 13.6332 9.03754 11.9996 9.03754ZM11.9996 13.5563C11.1415 13.5563 10.4434 12.8581 10.4434 12C10.5289 9.93543 13.4707 9.93604 13.5559 12C13.5559 12.8582 12.8577 13.5563 11.9996 13.5563Z" fill="#FFFFF5"/>
</svg>
