<svg width="15" height="22" viewBox="0 0 15 22" fill="none" xmlns="http://www.w3.org/2000/svg">
<path d="M5.86971 0.413086C5.66346 0.413086 5.52596 0.481836 5.38846 0.619336L1.12596 4.88184C0.850958 5.15684 0.850958 5.56934 1.12596 5.84434C1.40096 6.11934 1.88221 6.11934 2.15721 5.84434L5.18221 2.81934V18.0131C5.18221 18.4256 5.52596 18.7693 5.86971 18.7693C6.28221 18.7693 6.55721 18.4256 6.55721 18.0131V1.10059C6.55721 0.756836 6.28221 0.413086 5.86971 0.413086ZM10.0635 2.54434C9.65096 2.54434 9.37596 2.88809 9.37596 3.23184V20.8318C9.37596 21.4506 10.1322 21.7943 10.5447 21.3131L14.7385 17.0506C15.0135 16.7756 15.0135 16.2943 14.7385 16.0193C14.4635 15.7443 13.9822 15.7443 13.7072 16.0193L10.6822 19.0443V3.23184C10.8197 2.81934 10.476 2.54434 10.0635 2.54434Z" fill="#3E3E3E"/>
</svg>
