<svg width="22.000000" height="17.618652" viewBox="0 0 22 17.6187" fill="none" xmlns="http://www.w3.org/2000/svg" xmlns:xlink="http://www.w3.org/1999/xlink">
	<desc>
			Created with Pixso.
	</desc>
	<defs/>
	<path id="svg" d="M0.6875 3.55054L11.8815 3.55054C12.1902 4.7981 13.3187 5.72583 14.6603 5.72583C16.002 5.72583 17.1305 4.7981 17.4392 3.55054L21.3125 3.55054C21.6921 3.55054 22 3.24268 22 2.86304C22 2.48315 21.6921 2.17554 21.3125 2.17554L17.4392 2.17554C17.1305 0.927979 16.002 0 14.6603 0C13.3186 0 12.1901 0.927979 11.8813 2.17554L0.6875 2.17554C0.307861 2.17554 0 2.48315 0 2.86304C0 3.24268 0.307861 3.55054 0.6875 3.55054ZM14.6603 1.375C15.4808 1.375 16.1483 2.04248 16.1483 2.86279C16.1483 3.68335 15.4808 4.35083 14.6603 4.35083C13.8398 4.35083 13.1724 3.68335 13.1724 2.86279C13.1724 2.04248 13.8398 1.375 14.6603 1.375ZM0.6875 9.49683L4.56079 9.49683C4.86951 10.7444 5.99805 11.6721 7.33972 11.6721C8.6814 11.6721 9.80981 10.7444 10.1187 9.49683L21.3125 9.49683C21.6921 9.49683 22 9.18896 22 8.80933C22 8.42969 21.6921 8.12183 21.3125 8.12183L10.1185 8.12183C9.80981 6.87427 8.68127 5.94629 7.33972 5.94629C5.99805 5.94629 4.86951 6.87427 4.56079 8.12183L0.6875 8.12183C0.307861 8.12183 0 8.42969 0 8.80933C0 9.18896 0.307739 9.49683 0.6875 9.49683ZM7.33972 7.32129C8.16016 7.32129 8.82764 7.98877 8.82764 8.80933C8.82764 9.62964 8.16016 10.2971 7.33972 10.2971C6.51917 10.2971 5.85168 9.62964 5.85168 8.80933C5.85168 7.98877 6.51917 7.32129 7.33972 7.32129ZM21.3125 14.0681L17.4392 14.0681C17.1305 12.8206 16.002 11.8928 14.6603 11.8928C13.3186 11.8928 12.1902 12.8206 11.8813 14.0681L0.6875 14.0681C0.307861 14.0681 0 14.376 0 14.7556C0 15.1353 0.307861 15.4431 0.6875 15.4431L11.8815 15.4431C12.1902 16.6907 13.3187 17.6187 14.6603 17.6187C16.002 17.6187 17.1305 16.6907 17.4392 15.4431L21.3125 15.4431C21.6921 15.4431 22 15.1353 22 14.7556C22 14.376 21.6923 14.0681 21.3125 14.0681ZM14.6603 16.2437C13.8398 16.2437 13.1724 15.5762 13.1724 14.7556C13.1724 13.9353 13.8398 13.2678 14.6603 13.2678C15.4808 13.2678 16.1483 13.9353 16.1483 14.7556C16.1483 15.5762 15.4808 16.2437 14.6603 16.2437Z" fill="#3E3E3E" fill-opacity="1.000000" fill-rule="nonzero"/>
</svg>
