<svg width="16" height="16" viewBox="0 0 16 16" fill="none" xmlns="http://www.w3.org/2000/svg">
<g clip-path="url(#clip0_2146_22721)">
<path d="M14.7641 6.68359H8.81094C8.54844 6.68359 8.33594 6.89609 8.33594 7.15859V9.06172C8.33594 9.32422 8.54844 9.53672 8.81094 9.53672H12.1641C11.7984 10.4898 11.1109 11.2867 10.2391 11.793L11.6672 14.268C13.9578 12.943 15.3141 10.6148 15.3141 8.01172C15.3141 7.63984 15.2859 7.37422 15.2328 7.07734C15.1891 6.84922 14.9922 6.68359 14.7641 6.68359Z" fill="#167EE6"/>
<path d="M8.01484 12.3938C6.37422 12.3938 4.94297 11.4969 4.17422 10.1719L1.69922 11.5969C2.95859 13.7813 5.31797 15.25 8.01484 15.25C9.33984 15.25 10.5867 14.8938 11.6648 14.2719V14.2688L10.2367 11.7937C9.58047 12.175 8.82422 12.3938 8.01484 12.3938Z" fill="#12B347"/>
<path d="M11.6625 14.2711V14.268L10.2344 11.793C9.58125 12.1711 8.825 12.393 8.01562 12.393V15.2492C9.34063 15.2492 10.5875 14.893 11.6625 14.2711Z" fill="#0F993E"/>
<path d="M3.575 7.95234C3.575 7.14297 3.79688 6.38672 4.175 5.73359L1.7 4.30859C1.075 5.38047 0.71875 6.62422 0.71875 7.95234C0.71875 9.28047 1.075 10.5242 1.7 11.5961L4.175 10.1711C3.79375 9.51797 3.575 8.76172 3.575 7.95234Z" fill="#FFD500"/>
<path d="M8.01484 3.5125C9.08359 3.5125 10.068 3.89375 10.8336 4.525C11.0242 4.68125 11.2992 4.66875 11.4711 4.49687L12.818 3.15C13.0148 2.95313 12.9992 2.63125 12.7898 2.45C11.5055 1.33125 9.83359 0.65625 8.01484 0.65625C5.31797 0.65625 2.95859 2.125 1.69922 4.30937L4.17422 5.73438C4.94297 4.40937 6.37422 3.5125 8.01484 3.5125Z" fill="#FF4B26"/>
<path d="M10.8344 4.525C11.025 4.68125 11.3 4.66875 11.4719 4.49687L12.8188 3.15C13.0156 2.95313 13 2.63125 12.7906 2.45C11.5062 1.33125 9.83438 0.65625 8.01562 0.65625V3.5125C9.08438 3.5125 10.0688 3.89063 10.8344 4.525Z" fill="#D93F21"/>
</g>
<defs>
<clipPath id="clip0_2146_22721">
<rect width="16" height="16" fill="white"/>
</clipPath>
</defs>
</svg>
