<svg width="17" height="16" viewBox="0 0 17 16" fill="none" xmlns="http://www.w3.org/2000/svg">
<path d="M15.9667 7.46666H14.9433C14.6851 4.32444 12.1756 1.81494 9.03333 1.5567V0.533335C9.03333 0.2388 8.79453 0 8.5 0C8.20547 0 7.96666 0.2388 7.96666 0.533335V1.5567C4.82444 1.81494 2.31494 4.32444 2.0567 7.46666H1.03333C0.7388 7.46666 0.5 7.70547 0.5 8C0.5 8.29453 0.7388 8.53333 1.03333 8.53333H2.0567C2.31494 11.6756 4.82444 14.1851 7.96666 14.4433V15.4667C7.96666 15.7612 8.20547 16 8.5 16C8.79453 16 9.03333 15.7612 9.03333 15.4667V14.4433C12.1756 14.1851 14.6851 11.6756 14.9433 8.53333H15.9667C16.2615 8.53333 16.5 8.29453 16.5 8C16.5 7.70547 16.2615 7.46666 15.9667 7.46666ZM13.8766 7.46666H11.6518C11.4261 6.12952 10.3705 5.07393 9.03333 4.84818V2.62337C11.588 2.87487 13.6251 4.91204 13.8766 7.46666ZM8.5 10.1333C7.3237 10.1333 6.36666 9.17631 6.36666 8C6.36666 6.82369 7.3237 5.86666 8.5 5.86666C9.67656 5.86666 10.6333 6.82369 10.6333 8C10.6333 9.17631 9.67656 10.1333 8.5 10.1333ZM7.96666 2.62337V4.84818C6.62952 5.07393 5.57393 6.12952 5.34818 7.46666H3.12337C3.37487 4.91204 5.41204 2.87487 7.96666 2.62337ZM3.12337 8.53333H5.34818C5.57393 9.87047 6.62952 10.9261 7.96666 11.1518V13.3766C5.41204 13.1251 3.37487 11.088 3.12337 8.53333ZM9.03333 13.3766V11.1518C10.3705 10.9261 11.4261 9.87047 11.6518 8.53333H13.8766C13.6251 11.088 11.588 13.1251 9.03333 13.3766Z" fill="#3E3E3E"/>
</svg>
