<svg width="18.750122" height="15.000061" viewBox="0 0 18.7501 15.0001" fill="none" xmlns="http://www.w3.org/2000/svg" xmlns:xlink="http://www.w3.org/1999/xlink">
	<desc>
			Created with Pixso.
	</desc>
	<defs/>
	<path id="svg" d="M13.75 15.0001L5 15.0001C4.17151 14.9991 3.3772 14.6696 2.79138 14.0837C2.20557 13.4979 1.87598 12.7036 1.875 11.8751L1.875 8.12506C1.875 7.95929 1.94092 7.80035 2.05811 7.68311C2.17529 7.56592 2.33423 7.50006 2.5 7.50006C2.66577 7.50006 2.82483 7.56592 2.94202 7.68311C3.0592 7.80035 3.125 7.95929 3.125 8.12506L3.125 11.8751C3.12561 12.3722 3.32336 12.8488 3.6748 13.2003C4.02637 13.5518 4.50293 13.7495 5 13.7501L13.75 13.7501C14.2472 13.7495 14.7238 13.5518 15.0753 13.2003C15.4268 12.8488 15.6245 12.3722 15.625 11.8751L15.625 8.12506C15.625 7.95929 15.6909 7.80035 15.8081 7.68311C15.9253 7.56592 16.0842 7.50006 16.25 7.50006C16.4158 7.50006 16.5748 7.56592 16.692 7.68311C16.8092 7.80035 16.875 7.95929 16.875 8.12506L16.875 11.8751C16.874 12.7036 16.5446 13.4979 15.9586 14.0837C15.3728 14.6696 14.5785 14.9991 13.75 15.0001ZM18.6337 7.23822C18.6814 7.17145 18.7155 7.09589 18.734 7.01593C18.7526 6.93591 18.7551 6.85309 18.7416 6.77209C18.728 6.69116 18.6987 6.61365 18.6553 6.54401C18.6117 6.47437 18.5549 6.414 18.4882 6.36633L9.73816 0.116333C9.6322 0.0406494 9.50525 0 9.375 0C9.24487 0 9.11792 0.0406494 9.01196 0.116333L0.261963 6.36633C0.126953 6.46265 0.0358887 6.60858 0.00854492 6.77209C-0.0187988 6.93561 0.0200195 7.10327 0.116333 7.23822C0.212646 7.37317 0.358643 7.46429 0.522095 7.49158C0.685669 7.51892 0.853271 7.4801 0.988281 7.38379L9.375 1.39319L17.7618 7.38379C17.8286 7.43152 17.9042 7.46558 17.9841 7.48407C18.0641 7.50256 18.147 7.50513 18.2279 7.49164C18.3088 7.47809 18.3864 7.44879 18.4559 7.40527C18.5256 7.36182 18.5861 7.30505 18.6337 7.23822ZM11.875 11.8751L11.875 10.6251C11.875 9.96204 11.6117 9.32611 11.1428 8.8573C10.674 8.38843 10.0381 8.12506 9.375 8.12506C8.71204 8.12506 8.07617 8.38843 7.6073 8.8573C7.13843 9.32611 6.875 9.96204 6.875 10.6251L6.875 11.8751C6.875 12.0408 6.94092 12.1998 7.05811 12.317C7.17529 12.4342 7.33423 12.5001 7.5 12.5001C7.66577 12.5001 7.82483 12.4342 7.94202 12.317C8.0592 12.1998 8.125 12.0408 8.125 11.8751L8.125 10.6251C8.125 10.2935 8.25671 9.97559 8.49121 9.74115C8.72559 9.50677 9.04346 9.37506 9.375 9.37506C9.70654 9.37506 10.0245 9.50677 10.2589 9.74115C10.4933 9.97559 10.625 10.2935 10.625 10.6251L10.625 11.8751C10.625 12.0408 10.6909 12.1998 10.8081 12.317C10.9253 12.4342 11.0842 12.5001 11.25 12.5001C11.4158 12.5001 11.5748 12.4342 11.692 12.317C11.8092 12.1998 11.875 12.0408 11.875 11.8751Z" fill="#3E3E3E" fill-opacity="1.000000" fill-rule="nonzero"/>
</svg>
