<svg width="24.000000" height="24.000000" viewBox="0 0 24 24" fill="none" xmlns="http://www.w3.org/2000/svg" xmlns:xlink="http://www.w3.org/1999/xlink">
	<desc>
			Created with Pixso.
	</desc>
	<defs>
		<clipPath id="clip2_4322">
			<rect id="icon set link/click" width="24.000000" height="24.000000" fill="white" fill-opacity="0"/>
		</clipPath>
	</defs>
	<rect id="icon set link/click" width="24.000000" height="24.000000" fill="#FFFFFF" fill-opacity="0"/>
	<g clip-path="url(#clip2_4322)">
		<path id="svg" d="M23.9774 7.05609C23.9211 5.78088 23.7149 4.90417 23.4195 4.14447C23.1147 3.33813 22.6459 2.61615 22.0316 2.01599C21.4315 1.40656 20.7048 0.932922 19.9078 0.632935C19.1437 0.337524 18.2715 0.131287 16.9963 0.0750732C15.7116 0.0140991 15.3038 0 12.0453 0C8.78687 0 8.37903 0.0140991 7.09906 0.0703125C5.82385 0.126526 4.94714 0.332947 4.18762 0.628174C3.3811 0.932922 2.65912 1.40173 2.05896 2.01599C1.44952 2.61615 0.976074 3.3429 0.675903 4.13989C0.380493 4.90417 0.174255 5.77606 0.118042 7.05133C0.0570679 8.33606 0.0429688 8.7439 0.0429688 12.0023C0.0429688 15.2608 0.0570679 15.6686 0.113281 16.9486C0.169495 18.2238 0.375916 19.1005 0.671326 19.8602C0.976074 20.6666 1.44952 21.3885 2.05896 21.9886C2.65912 22.5981 3.38586 23.0718 4.18286 23.3718C4.94714 23.6672 5.81903 23.8734 7.09448 23.9296C8.37427 23.986 8.78229 23.9999 12.0407 23.9999C15.2992 23.9999 15.707 23.986 16.987 23.9296C18.2622 23.8734 19.1389 23.6672 19.8984 23.3718C21.5114 22.7482 22.7866 21.473 23.4102 19.8602C23.7054 19.0959 23.9117 18.2238 23.968 16.9486C24.0242 15.6686 24.0383 15.2608 24.0383 12.0023C24.0383 8.7439 24.0336 8.33606 23.9774 7.05609ZM21.8161 16.8549C21.7645 18.027 21.5676 18.6599 21.4034 19.0818C21.0002 20.1274 20.1703 20.9572 19.1248 21.3605C18.7029 21.5246 18.0654 21.7215 16.8978 21.7729C15.632 21.8293 15.2523 21.8433 12.05 21.8433C8.84784 21.8433 8.46344 21.8293 7.20215 21.7729C6.03003 21.7215 5.39709 21.5246 4.97516 21.3605C4.45483 21.1682 3.98126 20.8635 3.5968 20.465C3.1983 20.0757 2.89355 19.6069 2.70129 19.0866C2.53717 18.6647 2.34027 18.027 2.28882 16.8596C2.23242 15.5938 2.21851 15.2139 2.21851 12.0117C2.21851 8.80945 2.23242 8.42505 2.28882 7.16394C2.34027 5.99182 2.53717 5.35889 2.70129 4.93695C2.89355 4.41644 3.1983 3.94305 3.60156 3.55841C3.9906 3.15991 4.45941 2.85516 4.97992 2.66309C5.40186 2.49896 6.03955 2.30206 7.20691 2.25043C8.47278 2.19421 8.8526 2.18011 12.0546 2.18011C15.2617 2.18011 15.6413 2.19421 16.9026 2.25043C18.0747 2.30206 18.7076 2.49896 19.1296 2.66309C19.6499 2.85516 20.1235 3.15991 20.5079 3.55841C20.9064 3.94763 21.2112 4.41644 21.4034 4.93695C21.5676 5.35889 21.7645 5.9964 21.8161 7.16394C21.8723 8.42981 21.8864 8.80945 21.8864 12.0117C21.8864 15.2139 21.8723 15.589 21.8161 16.8549Z" fill="#3E3E3E" fill-opacity="1.000000" fill-rule="nonzero"/>
		<path id="svg" d="M12.0442 5.83789C8.6405 5.83789 5.87891 8.5993 5.87891 12.0032C5.87891 15.407 8.6405 18.1684 12.0442 18.1684C15.4481 18.1684 18.2094 15.407 18.2094 12.0032C18.2094 8.5993 15.4481 5.83789 12.0442 5.83789ZM12.0442 16.0024C9.83606 16.0024 8.04492 14.2115 8.04492 12.0032C8.04492 9.79486 9.83606 8.00391 12.0442 8.00391C14.2525 8.00391 16.0435 9.79486 16.0435 12.0032C16.0435 14.2115 14.2525 16.0024 12.0442 16.0024Z" fill="#3E3E3E" fill-opacity="1.000000" fill-rule="nonzero"/>
		<path id="svg" d="M19.8944 5.59363C19.8944 6.38843 19.2499 7.0329 18.455 7.0329C17.6601 7.0329 17.0156 6.38843 17.0156 5.59363C17.0156 4.79858 17.6601 4.1543 18.455 4.1543C19.2499 4.1543 19.8944 4.79858 19.8944 5.59363Z" fill="#3E3E3E" fill-opacity="1.000000" fill-rule="nonzero"/>
	</g>
</svg>
