<svg width="20" height="24" viewBox="0 0 20 24" fill="none" xmlns="http://www.w3.org/2000/svg">
<path d="M16.5763 2.71341C14.8265 0.963656 12.491 0 9.99999 0C7.50891 0 5.17341 0.963656 3.42362 2.71341C0.16768 5.96934 -0.342038 9.87924 1.90866 14.3343C3.75474 17.9885 7.0794 21.3127 9.50701 23.7399L9.60226 23.8352C9.71213 23.9451 9.85604 24 9.99999 24C10.1439 24 10.2879 23.9451 10.3977 23.8352L10.4932 23.7398C12.9207 21.3126 16.2453 17.9883 18.0913 14.3342C20.342 9.87914 19.8323 5.96934 16.5763 2.71341ZM17.0873 13.827C15.3963 17.1742 12.3409 20.2985 9.99999 22.6419C7.65915 20.2986 4.6037 17.1742 2.91277 13.8271C0.877508 9.79833 1.30477 6.42323 4.21913 3.50892C5.81293 1.91517 7.90646 1.11825 9.99995 1.11825C12.0935 1.11825 14.187 1.91513 15.7808 3.50892C18.6951 6.42319 19.1225 9.79828 17.0873 13.827ZM9.99995 5.70928C7.72149 5.70928 5.86777 7.563 5.86777 9.8415C5.86777 12.12 7.72149 13.9737 9.99995 13.9737C12.2784 13.9737 14.1322 12.12 14.1322 9.8415C14.1322 7.563 12.2785 5.70928 9.99995 5.70928ZM9.99995 12.8487C8.34179 12.8487 6.99277 11.4997 6.99277 9.8415C6.99277 8.1833 8.34179 6.83428 9.99995 6.83428C11.6581 6.83428 13.0072 8.1833 13.0072 9.8415C13.0072 11.4997 11.6581 12.8487 9.99995 12.8487Z" fill="#3E3E3E"/>
</svg>
