<svg width="21" height="20" viewBox="0 0 21 20" fill="none" xmlns="http://www.w3.org/2000/svg">
<path d="M17.7142 1.37311C16.7062 0.366843 15.0738 0.366843 14.0658 1.37311L13.1525 2.2914L3.4306 12.0081L3.40994 12.0289C3.40493 12.0339 3.40493 12.0393 3.39961 12.0393C3.38928 12.0548 3.37378 12.0701 3.36361 12.0856C3.36361 12.0908 3.35829 12.0908 3.35829 12.0959C3.34796 12.1114 3.34295 12.1217 3.33246 12.1372C3.32746 12.1424 3.32746 12.1474 3.32229 12.1527C3.31712 12.1682 3.31196 12.1786 3.30663 12.1941C3.30663 12.1991 3.30163 12.1991 3.30163 12.2044L1.14464 18.6907C1.08136 18.8754 1.12946 19.0799 1.26844 19.2169C1.3661 19.3133 1.49781 19.3672 1.63486 19.3667C1.69087 19.3657 1.74639 19.357 1.79998 19.3409L8.28129 17.1787C8.28629 17.1787 8.28629 17.1787 8.29162 17.1737C8.30792 17.1689 8.32358 17.1619 8.33795 17.1529C8.34198 17.1524 8.34553 17.1506 8.34844 17.1479C8.36377 17.1376 8.38443 17.1271 8.39993 17.1167C8.41526 17.1066 8.43092 17.0911 8.44642 17.0807C8.45158 17.0754 8.45659 17.0754 8.45659 17.0704C8.46191 17.0652 8.47224 17.0602 8.47741 17.0498L19.1126 6.41459C20.1188 5.40655 20.1188 3.77416 19.1126 2.76628L17.7142 1.37311ZM8.11616 15.966L4.52467 12.3747L13.5137 3.38563L17.1052 6.97696L8.11616 15.966ZM4.0188 13.3293L7.15639 16.4667L2.445 18.0354L4.0188 13.3293ZM18.3851 5.69209L17.838 6.24429L14.2464 2.65264L14.7988 2.1006C15.4029 1.49691 16.3822 1.49691 16.9866 2.1006L18.3901 3.50411C18.9897 4.11103 18.9875 5.08808 18.3851 5.69209Z" fill="#3E3E3E"/>
</svg>
