<svg width="19.000000" height="20.000000" viewBox="0 0 19 20" fill="none" xmlns="http://www.w3.org/2000/svg" xmlns:xlink="http://www.w3.org/1999/xlink">
	<desc>
			Created with Pixso.
	</desc>
	<defs/>
	<path id="svg" d="M18.31 14.46C17.47 13.61 16.64 12.78 15.82 11.97C15.38 11.54 14.86 11.3 14.32 11.3C13.78 11.3 13.27 11.54 12.83 11.97L12.72 12.08C12.28 12.52 11.82 12.97 11.38 13.43C11.28 13.38 11.19 13.34 11.11 13.29C10.9 13.19 10.71 13.1 10.54 12.99C9.21 12.15 7.99 11.04 6.81 9.59C6.23 8.88 5.83 8.25 5.55 7.62C5.95 7.24 6.33 6.85 6.71 6.47C6.8 6.37 6.9 6.27 6.99 6.18C7.92 5.26 7.91 4.06 6.99 3.13C6.71 2.84 6.42 2.56 6.14 2.28C6.02 2.16 5.9 2.03 5.77 1.91C5.64 1.78 5.51 1.65 5.38 1.52C5.1 1.23 4.81 0.94 4.51 0.66C4.07 0.22 3.55 0 3.01 0C2.48 0 1.96 0.22 1.52 0.66C1.31 0.87 1.09 1.08 0.89 1.28C0.59 1.58 0.29 1.89 -0.02 2.19C-0.6 2.74 -0.92 3.43 -0.99 4.26C-1.08 5.55 -0.72 6.72 -0.4 7.59C0.33 9.57 1.46 11.44 3.03 13.32C5 15.66 7.37 17.51 10.07 18.83C11.55 19.55 12.83 19.92 14.07 19.99C14.16 19.99 14.25 20 14.34 20C15.39 20 16.25 19.62 16.9 18.9C17.18 18.58 17.49 18.29 17.8 17.98C17.96 17.82 18.13 17.66 18.29 17.5C19.22 16.57 19.22 15.38 18.31 14.46ZM17.51 16.71C17.35 16.87 17.19 17.03 17.04 17.18C16.72 17.49 16.39 17.82 16.08 18.16C15.6 18.7 14.99 18.93 14.14 18.88C13.05 18.82 11.91 18.49 10.56 17.83C8 16.58 5.76 14.83 3.89 12.62C2.4 10.84 1.34 9.07 0.65 7.22C0.22 6.08 0.07 5.19 0.13 4.36C0.17 3.81 0.37 3.37 0.75 3.02C1.07 2.7 1.38 2.38 1.68 2.08C1.89 1.87 2.09 1.66 2.3 1.46C2.46 1.3 2.71 1.11 3.01 1.11C3.32 1.11 3.57 1.3 3.73 1.46C4.02 1.74 4.31 2.03 4.59 2.31C4.72 2.44 4.85 2.58 4.98 2.7C5.1 2.83 5.23 2.95 5.35 3.08C5.63 3.35 5.91 3.64 6.19 3.92C6.69 4.42 6.69 4.9 6.2 5.4C6.1 5.49 6 5.59 5.91 5.69C5.51 6.09 5.09 6.51 4.67 6.91C4.47 7.11 4.27 7.45 4.47 7.94C4.79 8.71 5.26 9.46 5.93 10.3C7.19 11.84 8.51 13.04 9.94 13.94C10.16 14.08 10.39 14.19 10.61 14.3C10.74 14.36 10.86 14.42 10.98 14.49C11.13 14.57 11.28 14.61 11.42 14.61C11.66 14.61 11.88 14.5 12.07 14.31C12.54 13.82 13.03 13.34 13.49 12.88L13.6 12.77C13.76 12.61 14.01 12.42 14.31 12.42C14.62 12.42 14.87 12.61 15.03 12.77C15.84 13.57 16.68 14.4 17.51 15.25C17.99 15.72 17.99 16.23 17.51 16.71Z" fill="#3E3E3E" fill-opacity="1.000000" fill-rule="nonzero"/>
</svg>
