<svg width="48.000000" height="48.000000" viewBox="0 0 48 48" fill="none" xmlns="http://www.w3.org/2000/svg" xmlns:xlink="http://www.w3.org/1999/xlink">
	<desc>
			Created with Pixso.
	</desc>
	<defs>
		<clipPath id="clip2_7081">
			<rect id="icon set " width="48.000000" height="48.000000" fill="white" fill-opacity="0"/>
		</clipPath>
	</defs>
	<rect id="icon set " width="48.000000" height="48.000000" fill="#FFFFFF" fill-opacity="0"/>
	<g clip-path="url(#clip2_7081)">
		<path id="svg" d="M47.2559 25.0463C39.8256 16.3033 32.8586 6.52026 23.0886 0.213135C22.3467 -0.265991 21.536 0.12854 21.0615 0.744385C14.1802 9.68311 5.40857 17.2194 0.508789 27.5547C0.0438232 28.5353 0.59082 29.7681 1.7782 29.7668C3.85303 29.7645 5.92749 29.7548 8.00208 29.7357C7.77795 35.6096 7.67896 41.4482 8.53149 47.2874C8.69421 48.4015 10.5399 48.1296 10.4828 47.0234C10.1584 40.7483 10.4484 34.5563 10.9213 28.2968C10.9806 27.5098 10.2247 26.8754 9.48938 26.8649C7.72095 26.84 5.95239 26.8414 4.18384 26.8384C8.97595 18.1052 16.4446 11.2343 22.6392 3.48206C30.8937 9.15234 37.1191 17.4625 43.4872 25.1432C41.3524 25.4434 39.2725 25.3832 37.0284 25.3467C36.2206 25.3334 35.5468 26.03 35.5468 26.8281C35.5468 30.6176 35.478 34.4147 35.5629 38.2031C35.5953 39.6406 35.7032 41.0789 35.7605 42.5156C35.7876 43.2064 35.7927 43.8978 35.7765 44.589C35.7017 44.8929 35.6842 45.1084 35.7133 45.2528C35.4698 45.7113 35.4696 46.3477 35.823 46.76C35.8911 46.8391 35.9585 46.9182 36.0262 46.9974C36.3684 47.3971 37.1224 47.5007 37.554 47.1948C39.3171 45.9454 38.751 43.2124 38.6771 41.359C38.5042 37.0146 38.5067 32.6753 38.509 28.3289C41.2589 28.354 43.8954 28.2731 46.6017 27.5223C47.7413 27.2059 47.9615 25.8767 47.2559 25.0463Z" fill="#3E3E3E" fill-opacity="1.000000" fill-rule="nonzero"/>
		<path id="svg" d="M32.4209 19.8231C28.476 15.5983 24.1974 20.2474 22.2963 24.426C19.9248 21.5803 16.2258 19.6565 13.7461 23.7544C9.80579 30.2661 16.563 39.181 21.8059 42.4327C22.8038 43.0519 23.6058 41.921 23.2321 41.0626C23.7279 41.835 25.0782 42.1465 25.7894 41.1405C28.9226 36.7106 37.6669 25.4402 32.4209 19.8231ZM30.923 23.2452C30.7773 23.1682 30.6356 23.0913 30.5095 23.0125C29.6688 22.4847 28.8782 21.8972 28.0984 21.2935C29.6505 20.6096 30.6144 21.7419 30.923 23.2452ZM20.4574 26.295C19.5714 25.5715 18.6888 24.8431 17.7998 24.1222C18.8723 24.2112 19.7729 25.2205 20.4574 26.295ZM23.1385 40.8834C23.0691 40.7817 22.991 40.682 22.8789 40.5974C21.6104 39.6388 20.4609 38.5173 19.4521 37.2867C19.6951 37.4952 19.9246 37.7168 20.1731 37.9198C21.0431 38.6307 22.0817 39.5419 23.2269 39.823C23.0123 40.2029 23.0039 40.5707 23.1385 40.8834ZM24.0481 38.6407C21.699 37.92 19.5498 36.0968 17.545 34.4633C16.8164 33.1316 16.2539 31.7129 15.9141 30.2256C17.2544 31.9067 18.6768 33.5045 20.2296 34.9989C21.3877 36.1135 22.7491 37.4364 24.2126 38.4131C24.1581 38.4884 24.1016 38.5665 24.0481 38.6407ZM25.1381 37.1326C23.8037 36.1156 22.3137 35.2201 21.0585 34.1697C19.2301 32.6403 17.5643 30.9243 16.012 29.1185C15.9259 29.0181 15.8125 28.9941 15.7023 29.0109C15.6858 28.8942 15.6565 28.7809 15.6432 28.6635C15.6234 28.4928 15.6079 28.2946 15.6 28.0795C17.193 29.792 18.8965 31.3973 20.6501 32.9471C22.0654 34.1982 23.6816 35.7617 25.4224 36.7363C25.3278 36.8684 25.2322 37.0023 25.1381 37.1326ZM26.2751 35.5291C24.5902 34.109 22.4978 32.9772 20.7992 31.6292C18.9756 30.1819 17.2732 28.5953 15.6316 26.9468C15.6639 26.6003 15.722 26.2493 15.8102 25.9164C17.2346 27.7811 18.9828 29.3427 20.7894 30.8861C22.27 32.1514 24.4126 34.4298 26.4592 35.2572C26.3975 35.3468 26.3365 35.4399 26.2751 35.5291ZM27.3767 33.8839C26.8615 33.458 26.2566 33.1355 25.6869 32.7546C24.1671 31.7396 22.7019 30.6376 21.2587 29.5172C19.5385 28.182 17.5875 26.8 16.0503 25.2579C16.217 24.9006 16.4463 24.6079 16.7385 24.4023C19.8616 27.5452 23.6277 31.2698 27.6729 33.4115C27.5739 33.5686 27.478 33.7281 27.3767 33.8839ZM28.5115 32.0216C26.8878 30.9315 25.1996 29.9276 23.6166 28.7675C23.5793 28.7402 23.5438 28.7112 23.5066 28.6837C23.7705 28.5151 23.9774 28.2681 24.0386 27.9283C24.0607 27.8052 24.0895 27.6842 24.1136 27.5613C24.74 28.1293 25.3851 28.6749 26.0693 29.1836C26.9382 29.8297 27.9882 30.6727 29.0684 31.011C28.8903 31.3495 28.7042 31.6866 28.5115 32.0216ZM29.7084 29.6964C28.9286 29.1078 27.9622 28.704 27.1438 28.192C26.1882 27.5942 25.3029 26.8967 24.4524 26.1586C24.5781 25.7334 24.7267 25.3179 24.8978 24.9148C25.7839 25.7134 26.6594 26.5232 27.6013 27.2581C28.2822 27.7893 29.2393 28.5752 30.172 28.5603C30.0281 28.9395 29.8798 29.3182 29.7084 29.6964ZM30.5812 27.3174C29.8705 26.7743 28.8723 26.4713 28.1267 25.9691C27.1832 25.3333 26.3035 24.6062 25.4084 23.9025C25.5414 23.6744 25.6846 23.454 25.8397 23.2408C26.6985 23.9613 27.5618 24.6779 28.3969 25.4244C29.0448 26.0043 29.7686 26.8654 30.593 27.2704C30.5884 27.286 30.5856 27.3015 30.5812 27.3174ZM29.1329 24.4697C28.2428 23.822 27.3785 23.1381 26.5085 22.4626C26.6611 22.3074 26.8208 22.1573 26.9891 22.0139C27.7015 22.6835 28.5229 23.2653 29.299 23.8307C29.8088 24.2024 30.3828 24.7478 30.9934 25.151C30.9771 25.3386 30.962 25.526 30.9341 25.715C30.3627 25.251 29.6721 24.8619 29.1329 24.4697Z" fill="#3E3E3E" fill-opacity="1.000000" fill-rule="nonzero"/>
	</g>
</svg>
