<svg width="48.000000" height="48.000000" viewBox="0 0 48 48" fill="none" xmlns="http://www.w3.org/2000/svg" xmlns:xlink="http://www.w3.org/1999/xlink">
	<desc>
			Created with Pixso.
	</desc>
	<defs>
		<clipPath id="clip2_7077">
			<rect id="icon set " width="48.000000" height="48.000000" fill="white" fill-opacity="0"/>
		</clipPath>
	</defs>
	<rect id="icon set " width="48.000000" height="48.000000" fill="#FFFFFF" fill-opacity="0"/>
	<g clip-path="url(#clip2_7077)">
		<path id="svg" d="M47.9645 23.9824C47.9645 17.5763 45.4698 11.554 40.9402 7.02429C36.4105 2.49463 30.3882 0 23.9824 0C17.5763 0 11.554 2.49463 7.02429 7.02429C2.49463 11.554 0 17.5763 0 23.9824C0 30.3882 2.49463 36.4105 7.02429 40.9402C11.554 45.4698 17.5763 47.9645 23.9824 47.9645C26.1145 47.9645 28.2034 47.6862 30.2095 47.15C30.8251 47.4639 31.4865 47.6982 32.1819 47.8407C32.7037 47.9473 33.2278 48 33.7482 48C35.2471 48 36.7145 47.5624 37.994 46.7175C39.7181 45.5793 40.8955 43.8376 41.3097 41.814C41.4064 41.3419 41.4569 40.8677 41.4657 40.3964C45.6617 35.9337 47.9645 30.1351 47.9645 23.9824ZM2.8103 23.9824C2.8103 12.308 12.308 2.8103 23.9824 2.8103C35.6565 2.8103 45.1542 12.308 45.1542 23.9824C45.1542 28.8585 43.496 33.3545 40.715 36.9379C40.5615 36.6167 40.3861 36.304 40.1865 36.0018L37.496 31.927C38.0464 31.0397 38.5122 30.0963 38.8824 29.1042L36.2498 28.1213C34.3488 33.2135 29.4192 36.6346 23.9824 36.6346C18.5457 36.6346 13.6161 33.2135 11.7151 28.1213L9.0824 29.1042C10.2041 32.1094 12.1871 34.6802 14.8169 36.5387C17.4917 38.4287 20.64 39.4329 23.9242 39.4446L27.2787 44.525C27.3538 44.6385 27.4318 44.7495 27.512 44.8583C26.3639 45.052 25.1847 45.1538 23.9824 45.1538C12.308 45.1542 2.8103 35.6565 2.8103 23.9824ZM38.5562 41.2504C38.2925 42.5391 37.5428 43.6476 36.4457 44.3723C34.1799 45.8683 31.1195 45.2421 29.6235 42.9763L27.0916 39.1417C28.4553 38.8718 29.774 38.4243 31.021 37.8069L33.2512 41.1848L35.5964 39.6365L33.4193 36.3391C34.2473 35.7279 35.0079 35.0453 35.6946 34.299L37.8413 37.5505C38.566 38.6481 38.8198 39.962 38.5562 41.2504Z" fill="#3E3E3E" fill-opacity="1.000000" fill-rule="nonzero"/>
		<path id="svg" d="M16.1005 18.4578C17.4261 18.4578 18.505 19.5363 18.505 20.8623L21.3153 20.8623C21.3153 17.9868 18.976 15.6475 16.1005 15.6475C13.225 15.6475 10.8853 17.9868 10.8853 20.8619L13.6959 20.8619C13.6959 19.5363 14.7744 18.4578 16.1005 18.4578Z" fill="#3E3E3E" fill-opacity="1.000000" fill-rule="nonzero"/>
		<path id="svg" d="M31.864 18.4578C33.1901 18.4578 34.2686 19.5363 34.2686 20.8623L37.0789 20.8623C37.0789 17.9868 34.7395 15.6475 31.864 15.6475C28.9885 15.6475 26.6492 17.9868 26.6492 20.8619L29.4595 20.8619C29.4595 19.5363 30.5383 18.4578 31.864 18.4578Z" fill="#3E3E3E" fill-opacity="1.000000" fill-rule="nonzero"/>
	</g>
</svg>
