<svg width="48.000000" height="48.000000" viewBox="0 0 48 48" fill="none" xmlns="http://www.w3.org/2000/svg" xmlns:xlink="http://www.w3.org/1999/xlink">
	<desc>
			Created with Pixso.
	</desc>
	<defs>
		<clipPath id="clip2_7073">
			<rect id="icon set " width="48.000000" height="48.000000" fill="white" fill-opacity="0"/>
		</clipPath>
	</defs>
	<rect id="icon set " width="48.000000" height="48.000000" fill="#FFFFFF" fill-opacity="0"/>
	<g clip-path="url(#clip2_7073)">
		<path id="svg" d="M21.1857 7.91028C21.3036 6.11084 21.1477 4.43274 19.1302 3.84387C14.8269 2.68542 10.277 2.69348 5.8717 3.19592C-0.806396 4.32825 -0.0272217 4.72461 0.0838623 10.8728C-0.0280762 11.3627 0.331665 11.8513 0.833374 11.8883C1.13489 11.9161 1.43677 11.9421 1.73865 11.9672C0.90564 14.5167 1.45825 19.928 7.11597 20.3196C9.56006 20.5745 11.9028 20.0636 14.2787 19.7456C16.4437 19.5382 18.2313 18.9937 18.7094 16.6074C19.0414 15.2333 18.9683 13.7748 19.0155 12.3689C19.9004 12.2034 20.7197 11.8481 21.1874 11.0817C21.6715 10.0182 21.1586 8.9563 21.1857 7.91028ZM16.4706 17.2283C13.5266 18.2557 7.80859 18.3574 5.19934 16.6178C3.85229 15.5612 3.68835 13.7632 3.67188 12.1102C5.67188 12.2412 7.67749 12.3228 9.68384 12.3794C9.53918 12.8203 9.42651 13.2765 9.27747 13.5544C8.57849 16.1992 12.8269 16.2316 12.1489 13.5664C12.0228 13.2798 11.9037 12.8497 11.76 12.4302C13.4082 12.4651 15.0555 12.489 16.6996 12.516C16.9108 12.5151 17.1362 12.5148 17.3698 12.5106C17.3218 14.1663 17.4423 15.8969 16.4706 17.2283ZM19.4365 6.97485C19.3033 7.91809 19.3218 8.94336 19.2888 9.87488C17.9954 10.16 16.5986 9.74707 15.2367 9.64331C11.049 9.50598 6.52332 9.58508 2.33508 9.59485C2.25867 8.49438 1.79163 7.14026 2.20642 6.14246C6.66809 4.23413 14.3638 3.9137 18.9156 5.48352C19.5732 5.78369 19.516 6.3512 19.4365 6.97485Z" fill="#3E3E3E" fill-opacity="1.000000" fill-rule="nonzero"/>
		<path id="svg" d="M45.5612 33.7278C45.7275 33.0841 45.7147 32.3187 45.5699 31.8365C45.3188 30.9587 43.866 26.4526 42.6093 27.4099C41.4265 28.302 43.7395 29.1586 42.8845 32.542C42.6388 32.4802 42.3835 32.4255 42.118 32.3787C39.5208 31.9725 37.5457 33.5068 36.5273 35.6309C34.2736 35.8096 31.9988 35.9142 29.7267 35.938C32.8043 33.7738 35.1959 30.2783 35.7065 26.9425C36.0769 25.0413 36.1555 23.1337 36.293 21.252C36.3844 19.9822 36.5254 18.7089 36.6274 17.4319C37.1699 18.0519 37.6918 18.6909 38.192 19.3459C38.7349 19.8359 39.0792 21.1345 39.9631 20.9298C40.3043 20.8107 40.4845 20.4376 40.3655 20.0966C39.5409 17.8531 38.4098 15.7277 37.0839 13.7372C36.9695 13.5748 36.844 13.4462 36.7115 13.347C36.6982 13.1387 36.6824 12.9302 36.6615 12.7214C36.5394 9.29468 34.047 6.1062 30.3596 6.79395C29.3617 6.93701 29.4293 8.3689 30.4448 8.4093C36.5519 8.4209 33.7172 17.1951 33.5555 20.9968C33.3007 23.4553 33.2065 25.8809 32.4108 28.2054C30.7888 32.2987 25.1946 37.3938 20.6879 34.6893C16.3284 30.9828 20.7301 25.3315 21.5747 20.9407C22.4323 19.0298 9.41089 20.0868 8.23096 20.6626C0.278931 22.3466 0.0297852 31.9456 0.405273 38.5791C0.16333 41.8992 2.40503 45.4482 6.61365 45.1046C10.4452 45.002 13.9844 42.027 13.0575 38.0695C20.6434 38.7793 28.3774 37.8817 35.9535 37.2903C35.4371 39.5837 35.9255 42.1255 37.7396 43.6335C45.573 49.0903 51.5527 37.9689 45.5612 33.7278ZM19.1973 21.9784C17.5004 26.0634 14.9479 31.603 17.9973 35.4718C16.0673 35.4768 14.1439 35.6243 12.2434 36.0294C10.7263 33.62 7.52051 32.5312 4.74182 33.3577C3.52637 33.6575 2.57874 34.2494 1.8811 35.0137C1.87756 24.2018 6.4436 20.5583 19.1973 21.9784ZM10.5253 40.158C8.72217 43.0602 2.08215 43.2985 2.03333 39.0881C2.04651 39.0139 2.05115 38.934 2.04297 38.8469C2.04175 38.8315 2.04077 38.8167 2.03967 38.8013C2.04065 38.7855 2.04065 38.7701 2.04175 38.754C2.02271 37.1842 2.73279 35.973 4.15833 35.2871C7.26355 33.6378 12.1821 36.488 10.5253 40.158ZM45.3027 40.7738C43.3879 45.1063 36.4827 43.4594 37.4421 38.5615C37.9121 32.5013 47.8396 35.5737 45.3027 40.7738Z" fill="#3E3E3E" fill-opacity="1.000000" fill-rule="nonzero"/>
	</g>
</svg>
