<svg width="48.000000" height="48.000000" viewBox="0 0 48 48" fill="none" xmlns="http://www.w3.org/2000/svg" xmlns:xlink="http://www.w3.org/1999/xlink">
	<desc>
			Created with Pixso.
	</desc>
	<defs>
		<clipPath id="clip2_7069">
			<rect id="icon set " width="48.000000" height="48.000000" fill="white" fill-opacity="0"/>
		</clipPath>
	</defs>
	<rect id="icon set " width="48.000000" height="48.000000" fill="#FFFFFF" fill-opacity="0"/>
	<g clip-path="url(#clip2_7069)">
		<path id="svg" d="M17.0718 47.6326C15.9364 46.2382 14.8215 44.8263 13.6743 43.4421C12.569 42.5847 6.60815 46.0571 7.82581 43.0632C7.94275 42.2256 8.90857 41.0444 8.51428 40.3198C6.74988 40.4136 4.37158 40.3624 4.73584 37.9309C5.23462 35.5311 3.32019 26.6787 6.37158 26.5801C8.5968 27.0629 7.49316 24.1859 6.80457 23.1263C1.55603 17.0576 8.62903 15.8793 7.90186 8.6178C8.66309 5.52686 12.6625 6.14844 14.4452 4.09192C18.8809 -3.27039 21.8577 3.28711 28.1429 0.392822C32.9102 -0.281494 31.8431 4.9679 38.2826 6.31641C41.6072 7.68726 39.7874 11.646 41.0884 14.1647C45.8473 20.3264 42.2452 19.7734 40.5953 25.2826C40.6218 25.8041 40.2426 26.6815 41.0928 26.5718C42.5079 26.3348 43.6564 27.3915 43.4508 28.8364C43.401 32.2197 43.5663 35.6221 43.386 38.9957C42.9218 41.0112 40.6533 39.83 39.5292 40.5205C39.5056 41.5542 41.7257 44.4716 39.6465 44.2743C33.3524 42.6917 35.053 43.0277 31.1003 47.6323C30.9205 47.6323 30.7407 47.6323 30.5609 47.6323C29.7987 46.3835 28.557 40.1724 27.4149 40.2968C17.8412 40.2073 21.0574 39.2764 17.6116 47.6323C17.4315 47.6326 17.2517 47.6326 17.0718 47.6326ZM24.0817 39.1752C29.7136 39.1748 35.3457 39.1761 40.9777 39.1742C41.4376 39.1561 42.1633 39.287 42.2639 38.6814C42.2422 22.7417 44.4495 29.1195 30.2125 27.5066C29.7251 26.9885 30.4532 26.5621 30.7925 26.2327C38.4944 19.5475 31.1189 6.19812 21.2748 9.36902C13.9114 11.4634 11.8284 20.9836 17.1183 25.9967C22.1886 30.0715 5.0647 25.4493 5.88879 28.9462C5.65161 44.0076 4.13196 38.0406 24.0817 39.1752ZM36.4028 26.5454C41.8977 26.891 37.1997 26.0803 41.8711 20.3743C43.6992 16.7501 38.8375 16.6969 39.2285 9.06506C38.3605 6.20459 34.2018 7.05872 32.7095 4.63513C28.929 -1.87024 26.4382 4.2782 21.0964 1.83777C16.0127 -0.0515137 17.0807 6.05151 10.8518 7.14966C8.9082 7.69751 8.69263 9.71936 8.79285 11.4478C8.87878 14.0074 7.79346 16.358 7.26526 18.8112C6.60327 20.2213 9.24438 24.0668 10.0393 21.5973C7.65918 10.3695 20.0463 0.897461 29.9879 5.88513C30.7051 6.53833 29.6761 7.19238 29.0431 6.68066C17.6012 1.63086 5.83643 15.7795 13.1038 26.1439C13.5957 26.9645 14.9099 26.4423 15.7836 26.5547C1.61279 2.57043 46.4506 2.21826 32.3894 26.2476C32.077 26.8589 34.3683 26.4752 34.7926 26.532C38.6246 21.4457 37.879 13.8715 33.314 9.48889C32.9927 9.18982 32.4652 8.74805 32.8846 8.30945C39.1621 10.8319 39.4639 21.1958 36.4028 26.5454ZM16.0391 44.4771C16.3646 44.7985 16.7489 45.859 17.1951 45.4983C17.7092 43.9761 18.35 42.4738 18.7526 40.9225C18.322 40.7916 17.9502 40.8248 17.2399 41.0569C16.8322 42.1588 16.437 43.287 16.0391 44.4771ZM32.1503 44.4841C31.7723 43.5973 31.661 42.415 31.0389 41.722C28.5635 41.2896 30.812 44.178 30.9419 45.3722C31.2748 46.0808 31.8661 44.7782 32.1503 44.4841ZM15.213 43.2794C15.2979 42.7274 16.509 40.9722 15.4182 41.1162C14.4961 41.3962 12.3501 40.8301 12.1221 41.9431C12.0986 42.8527 13.715 41.5486 14.1527 42.2341C14.5171 42.5698 14.7211 43.1302 15.213 43.2794ZM32.9685 43.2672C34.5159 42.1427 33.689 41.787 35.9844 42.2618C36.4796 40.3784 33.3752 41.4109 32.4048 41.6316C32.5531 42.2001 32.7476 42.7266 32.9685 43.2672ZM39.0236 42.7603C38.7421 42.1685 38.7628 41.0974 38.1304 40.8248C37.075 40.9675 36.8376 40.8094 37.2415 41.8804C37.2146 42.6575 38.5676 43.1785 39.0236 42.7603ZM10.458 41.5275C9.48914 41.5939 9.55396 41.5579 9.25684 42.4232C9.13147 42.6882 9.10742 43.019 9.51807 42.9115C10.8999 42.9341 11.4519 41.389 10.458 41.5275Z" fill="#3E3E3E" fill-opacity="1.000000" fill-rule="nonzero"/>
		<path id="svg" d="M41.9132 4.62842C43.243 4.80237 41.6685 6.83777 40.9053 6.26611C40.2616 5.67664 41.3535 4.75476 41.9132 4.62842Z" fill="#3E3E3E" fill-opacity="1.000000" fill-rule="nonzero"/>
		<path id="svg" d="M38.7504 4.31592C39.0126 2.62805 40.3069 3.93848 39.8325 5.19043C39.2708 6.14246 38.5345 5.1936 38.7504 4.31592Z" fill="#3E3E3E" fill-opacity="1.000000" fill-rule="nonzero"/>
		<path id="svg" d="M42.5785 8.40869C42.0922 8.45483 41.3273 8.2384 41.6038 7.58826C41.9045 7.07849 42.6866 7.29102 43.1853 7.30969C44.0375 7.67749 43.3186 8.59058 42.5785 8.40869Z" fill="#3E3E3E" fill-opacity="1.000000" fill-rule="nonzero"/>
		<path id="svg" d="M20.3052 14.5281C22.3259 14.382 23.6643 15.2195 25.2556 15.4025C26.6672 14.6262 28.1816 13.9783 29.3502 12.8375C29.5704 12.5947 30.0204 12.5699 30.2188 12.8494C32.2186 16.3813 32.0621 22.0804 28.093 24.1632C21.4135 29.3267 11.7721 14.464 20.3052 14.5281ZM28.5077 14.9675C24.8903 16.4187 21.5706 19.2417 23.8203 23.3837C25.9999 21.327 27.803 17.9082 28.5077 14.9675ZM21.9977 20.1628C21.9957 20.1626 21.9938 20.1625 21.9918 20.1622C21.9777 19.0688 20.3528 18.6416 19.696 17.859C19.2802 17.668 18.7408 16.6779 18.3311 16.9709C17.8881 19.1708 21.2089 24.9442 21.9977 20.1628ZM30.3374 17.6226C30.1471 12.0574 28.6855 18.9894 27.5165 20.3575C27.9469 20.8611 29.114 20.1244 29.741 20.0302C30.4769 19.5507 30.1752 18.5347 30.3374 17.6226ZM25.248 23.8324C26.7506 23.7841 28.6886 22.8805 29.2972 21.4557C28.418 21.5471 27.3894 21.723 26.5109 21.9692C26.106 22.6173 25.5808 23.1331 25.248 23.8324ZM22.2859 17.0775C22.2875 17.0775 22.2891 17.0776 22.2908 17.0776C22.3778 17.3563 22.082 18.2994 22.4707 18.2131C22.6654 17.5281 23.8754 16.8013 23.7085 16.2198C22.5798 15.7319 22.1085 15.6864 22.2859 17.0775ZM19.333 15.7933C19.3208 16.1555 20.7831 17.519 21.0974 17.2585C21.4025 15.556 20.8187 15.5414 19.333 15.7933Z" fill="#3E3E3E" fill-opacity="1.000000" fill-rule="nonzero"/>
		<path id="svg" d="M30.0256 33.906C30.1727 34.6079 31.8926 35.3167 30.7996 36.0181C29.9 36.4518 28.1042 32.6864 28.0432 34.6274C28.2347 35.4032 27.6471 36.7502 26.963 35.6699C26.8612 34.2421 26.9519 32.7992 26.9233 31.3662C26.9351 30.0582 28.8149 30.7648 29.658 30.6108C31.4785 30.7098 31.6453 33.3068 30.0256 33.906ZM28.7257 32.764C29.5476 32.9423 30.6536 32.3674 29.6447 31.7839C29.1586 31.7893 28.5029 31.6091 28.0999 31.9042C27.8748 32.5162 28.1914 32.8213 28.7257 32.764Z" fill="#3E3E3E" fill-opacity="1.000000" fill-rule="nonzero"/>
		<path id="svg" d="M11.3727 33.3751C11.5693 41.4434 7.66492 28.5736 8.24268 35.4683C8.1366 36.4274 6.91028 36.0303 7.12817 35.1926C7.39795 34.2717 6.34778 29.9733 8.05798 30.7817C8.53516 31.0544 10.2455 34.4844 10.2449 32.9091C10.1628 32.1639 10.2012 29.568 11.3361 31.0463C11.411 31.8192 11.3583 32.5995 11.3727 33.3751Z" fill="#3E3E3E" fill-opacity="1.000000" fill-rule="nonzero"/>
		<path id="svg" d="M26.2319 32.6349C26.5804 38.0322 20.5367 36.9487 22.0836 30.8671C24.3004 29.7274 21.9628 34.8588 24.0031 34.9031C26.2957 34.8026 24.1139 31.2739 25.6479 30.6267C26.592 30.7489 26.1296 31.9863 26.2343 32.6349C26.2335 32.6349 26.2328 32.6349 26.2319 32.6349Z" fill="#3E3E3E" fill-opacity="1.000000" fill-rule="nonzero"/>
		<path id="svg" d="M12.6748 36.0586C11.1218 35.8065 13.4515 32.3708 13.5343 31.327C13.626 30.6709 14.4923 30.3185 14.7517 31.0651C14.9438 32.3488 16.8209 34.9979 16.0328 35.9739C14.7721 36.8058 14.6367 31.899 13.9097 33.6315C13.4905 34.373 13.5234 35.7114 12.6748 36.0586Z" fill="#3E3E3E" fill-opacity="1.000000" fill-rule="nonzero"/>
		<path id="svg" d="M34.0729 33.2147C33.6154 33.8274 32.934 37.6313 32.0625 35.3997C33.9584 28.9784 34.3262 29.3132 36.1167 35.5005C35.0498 37.5011 34.6434 33.7506 34.0729 33.2147Z" fill="#3E3E3E" fill-opacity="1.000000" fill-rule="nonzero"/>
		<path id="svg" d="M19.1299 30.5928C21.2683 30.2136 22.2986 31.7089 19.9775 31.7753C19.3632 32.5342 19.8953 34.0455 19.7228 35.05C19.9219 36.3204 18.4056 36.3832 18.5688 35.0847C18.3685 34.0873 18.9921 32.4393 18.2565 31.7645C16.002 31.6852 17.0581 30.2188 19.1299 30.5928Z" fill="#3E3E3E" fill-opacity="1.000000" fill-rule="nonzero"/>
		<path id="svg" d="M36.8241 33.2964C36.824 32.5577 36.5546 29.5297 37.9015 31.0162C38.0009 32.1436 37.9115 33.2837 37.9457 34.415C38.0868 35.7633 40.7769 34.088 41.0516 35.4869C40.7048 36.6763 38.5204 35.8458 37.5366 36.0771C36.2795 35.9712 37.0078 34.1467 36.8241 33.2964Z" fill="#3E3E3E" fill-opacity="1.000000" fill-rule="nonzero"/>
		<path id="svg" d="M31.5366 6.8125C32.1825 6.76318 32.3628 7.7915 31.6691 7.89246C30.9084 8.01294 30.8358 6.87109 31.5366 6.8125Z" fill="#3E3E3E" fill-opacity="1.000000" fill-rule="nonzero"/>
	</g>
</svg>
