<svg width="48.000000" height="48.000000" viewBox="0 0 48 48" fill="none" xmlns="http://www.w3.org/2000/svg" xmlns:xlink="http://www.w3.org/1999/xlink">
	<desc>
			Created with Pixso.
	</desc>
	<defs>
		<clipPath id="clip2_7065">
			<rect id="icon set " width="48.000000" height="48.000000" fill="white" fill-opacity="0"/>
		</clipPath>
	</defs>
	<rect id="icon set " width="48.000000" height="48.000000" fill="#FFFFFF" fill-opacity="0"/>
	<g clip-path="url(#clip2_7065)">
		<path id="svg" d="M27.0324 30.4772C25.6209 29.6558 24.8884 30.4337 23.6376 30.9188C21.7543 31.3124 20.8292 29.4819 20.037 30.5015C19.1006 31.9113 23.209 33.1095 24.1911 33.1393C25.5249 33.4686 28.8656 31.9335 27.0324 30.4772Z" fill="#3E3E3E" fill-opacity="1.000000" fill-rule="nonzero"/>
		<path id="svg" d="M18.8672 1.14697C8.79883 3.62134 5.5094 16.1586 9.96045 24.7159C10.2166 25.2568 10.8897 25.4684 11.4092 25.1702C11.9094 24.8862 12.0831 24.2485 11.7961 23.7501C7.81726 17.0566 9.74164 6.771 17.3909 3.66602C30.0472 -2.06909 43.2216 11.3362 34.8014 23.3008C34.338 23.9691 34.533 24.9011 35.228 25.3257C35.8989 25.7383 36.7773 25.5291 37.1899 24.8583C45.7338 12.1587 33.2347 -3.59119 18.8672 1.14697Z" fill="#3E3E3E" fill-opacity="1.000000" fill-rule="nonzero"/>
		<path id="svg" d="M28.1366 15.5253C27.1121 15.5615 24.9136 16.0278 24.4081 14.91C24.1053 12.8956 24.9568 10.8711 25.1038 8.80579C25.2128 7.96533 24.5419 7.20117 23.6935 7.20288C22.9047 7.19897 22.2621 7.83521 22.2583 8.62402C22.318 10.8301 21.7546 13.0968 22.3709 15.2871C23.0625 17.5773 25.7654 17.5216 27.6533 16.9866C28.1434 16.8433 28.924 16.7893 28.8684 16.1033C28.836 15.7369 28.4993 15.4746 28.1366 15.5253Z" fill="#3E3E3E" fill-opacity="1.000000" fill-rule="nonzero"/>
		<path id="svg" d="M47.8592 10.0835C47.509 6.76147 44.2631 3.80835 40.8736 5.08472C39.906 5.40039 39.0042 6.1875 38.7596 7.22925C38.7589 7.26428 38.7228 7.33875 38.7275 7.37512L38.4235 11.9454C38.144 16.0447 38.0416 20.2168 37.4735 24.2946C34.083 22.0505 28.9221 25.5397 26.8034 28.7002C25.7259 30.0513 24.7015 31.5348 23.6229 32.8365C21.0414 29.8708 17.965 27.2719 15.3716 24.3876C14.7658 23.6105 13.751 23.1573 12.8164 23.0906C11.6029 22.9624 10.4836 23.3311 9.55969 24.0153C9.68817 19.8278 9.86133 15.6375 10.0355 11.4548C9.99377 10.1068 9.99707 8.6947 9.55945 7.401C8.16229 4.06775 2.47546 3.95776 1.21362 7.46509C0.299377 10.6758 0.507874 14.1958 0.106873 17.4127C0.0469971 17.8811 0.225281 18.3246 0.543884 18.6263C-0.991455 29.0175 0.313721 41.3933 9.82605 47.5787C10.5894 48.0675 11.453 47.1492 10.9257 46.4178C4.79364 38.8701 0.874634 31.5997 1.9079 21.5908C1.96484 20.6812 2.04816 19.772 2.15881 18.865C2.58783 18.6499 2.89905 18.2247 2.94263 17.7114C3.23175 14.4908 2.90411 11.2976 3.57861 8.22351C3.97345 7.18372 5.45929 7.02197 6.42572 7.34961C8.19574 7.81323 7.85376 10.4463 8.01947 11.9047C7.97638 16.4641 7.99878 21.0298 8.1051 25.5878C5.52094 29.8505 10.0125 33.7931 12.9199 36.4376C13.9388 37.3597 15.1298 38.3479 16.0048 39.3674C16.6317 40.0825 17.754 39.3569 17.3517 38.4886C16.6566 37.1158 15.5876 35.9272 14.5897 34.7737C12.8066 32.5171 7.8631 28.4827 11.5758 25.9484C12.0679 25.7405 12.6076 25.6405 13.087 25.7831C15.9609 28.1965 18.8278 30.7148 21.5134 33.3528C25.046 36.4562 27.815 42.6538 22.744 45.7112C21.8845 46.3403 22.7325 47.605 23.6425 47.0444C28.1058 44.4403 27.9373 38.9725 25.4099 35.0985C25.4958 35.0253 25.5786 34.9402 25.6564 34.8405C28.2276 31.3795 30.4312 25.8534 35.2643 25.5555C37.5762 25.6602 38.5823 28.6154 37.0694 30.2651C35.7656 32.0166 34.0704 33.1803 32.4788 34.7592C32.0192 35.1963 32.0676 35.9679 32.5809 36.3423C33.0419 36.6853 33.6938 36.5897 34.037 36.1287C34.7249 35.2042 35.6049 34.3727 36.4983 33.484C38.5178 31.6298 40.6303 28.8418 39.0718 26.0415C39.0105 25.9374 38.9473 25.8383 38.8831 25.7416C38.8861 25.7214 38.8895 25.7017 38.8912 25.6807C39.6508 21.1921 39.884 16.6248 40.3922 12.1104C40.5515 10.6835 40.7258 9.26367 40.9432 7.8584C41.0651 7.61914 41.2353 7.55469 41.5464 7.46387C47.1985 6.9519 44.3563 16.3455 45.7067 19.6571C45.9597 20.5449 47.2462 20.4003 47.2883 19.4702C47.3717 16.4081 48.3596 13.202 47.8592 10.0835Z" fill="#3E3E3E" fill-opacity="1.000000" fill-rule="nonzero"/>
		<path id="svg" d="M46.1722 28.7517C45.6613 28.6387 45.2285 29.037 45.1852 29.5365C44.3856 33.6143 42.7858 37.454 40.2971 40.775C39.2042 42.3223 37.9835 43.759 36.8902 45.3105C36.4529 45.988 37.1384 46.8422 37.8984 46.5505C39.8351 45.7278 41.4182 44.2075 42.578 42.4735C44.4784 39.0917 45.5667 35.2628 46.4113 31.4932C46.4633 30.6301 47.3759 29.1324 46.1722 28.7517Z" fill="#3E3E3E" fill-opacity="1.000000" fill-rule="nonzero"/>
	</g>
</svg>
