<svg width="20" height="21" viewBox="0 0 20 21" fill="none" xmlns="http://www.w3.org/2000/svg">
<path d="M0.00338508 12.9141C0.333537 12.0176 4.09292 12.6975 5.14792 12.4974C5.11599 12.2095 5.19335 11.9611 5.36174 11.7321C3.22765 9.92237 5.96751 7.84817 7.5758 9.8393C8.4829 9.25955 9.58681 10.0434 9.82706 10.9694C10.7372 10.8505 11.2449 11.7172 11.3691 12.4973C14.0694 12.4973 16.7696 12.4977 19.4699 12.4964C20.0559 12.4677 20.0268 13.1184 19.9741 13.5295C19.9587 16.3931 17.7877 19.0747 14.7653 18.9822C14.4599 21.4882 8.73843 20.0493 6.76774 20.4063C6.00628 20.3164 5.3722 19.7449 5.25651 18.9827C1.89339 19.0604 -0.0934648 15.9986 0.00338508 12.9141ZM19.5141 12.9873C19.4108 12.9672 1.6781 12.9702 1.60073 12.9906C1.61147 13.3102 1.62871 13.6305 1.68357 13.9543C19.6377 13.7066 19.9686 14.6741 1.77107 14.4321C3.06733 20.2154 10.2389 18.14 14.5868 18.5027C17.0361 18.6344 19.0549 16.807 19.3787 14.4321C16.0248 14.6493 16.314 13.713 19.4512 13.9543C19.4975 13.6279 19.5207 13.308 19.5141 12.9873ZM10.8718 12.4974C10.5138 10.775 9.66821 11.9048 9.39415 11.2807C9.3252 10.7666 8.97349 10.2884 8.45655 10.1527C7.96655 9.86014 7.56438 10.8364 7.29168 10.3112C6.36022 8.51733 4.24957 9.45576 5.34358 11.024C6.60973 12.1669 5.41133 11.4446 5.45129 12.4921H8.23642C7.94395 12.2425 5.48977 11.0438 6.53616 10.7701C7.86942 11.729 9.11314 12.7933 10.8718 12.4974ZM6.07079 19.5518C6.59792 20.0875 14.1173 20.3976 14.189 19.2298C11.4749 19.3374 8.7762 19.4445 6.07079 19.5518Z" fill="#3E3E3E"/>
<path d="M19.9901 3.44466C19.7898 5.42557 16.7412 5.5111 16.4612 3.51989C16.1082 0.895005 20.2233 0.812013 19.9901 3.44466ZM19.5168 3.23609C19.5155 1.26576 17.1587 1.57693 16.9208 3.24057C16.6547 5.10185 19.5413 4.90869 19.5168 3.23609Z" fill="#3E3E3E"/>
<path d="M13.0612 6.67715C13.4558 6.62993 13.8603 6.80641 14.2304 6.79848C14.6169 6.48739 15.0048 6.17709 15.3714 5.84271C15.6586 5.6467 15.9251 4.88234 16.2727 5.42537C17.7326 7.29616 17.3891 10.3022 14.781 10.8615C12.1483 11.5183 8.65643 6.44988 13.0612 6.67715ZM15.6885 6.2232C14.2366 7.24704 12.9607 8.56199 14.3557 10.2631C15.051 9.00239 15.4756 7.65764 15.6885 6.2232ZM11.4462 7.80774C11.6014 8.60854 11.9509 9.2699 12.5839 9.76777C12.853 9.63487 13.2116 9.07393 13.2277 8.76518C12.6164 8.49588 12.0394 8.15987 11.4462 7.80774ZM15.5641 8.75515C17.1292 8.49148 16.701 7.26059 16.1804 6.20217C16.0627 7.07959 15.8584 7.92012 15.5641 8.75515ZM14.8749 10.3205C15.5833 10.0954 16.2856 9.61019 16.5223 8.88129C15.4215 9.37096 15.3528 9.11929 14.8749 10.3205ZM13.8034 7.22636C13.56 7.17423 13.3132 7.14919 13.0665 7.16012C13.1328 7.50924 13.1515 7.96215 13.3002 8.2677C13.4211 7.89101 13.5828 7.55757 13.8034 7.22636ZM11.7281 7.40557C11.866 7.51645 12.6225 7.94247 12.7145 7.9578C12.6659 7.70549 12.6179 7.45604 12.5702 7.20873C12.3845 7.21321 11.8399 7.34227 11.7281 7.40557Z" fill="#3E3E3E"/>
<path d="M3.71632 3.24731C3.09562 3.38386 1.3128 2.06031 2.05323 1.52235C2.7495 1.46217 5.54305 0.0469112 5.78091 0.648692C6.18663 1.96024 5.10388 3.32226 3.71632 3.24731ZM4.96215 1.10473C5.02962 2.35928 3.42126 2.79246 2.82272 1.78265C2.68507 1.82437 2.55835 1.86465 2.42354 1.90985C3.13015 3.51241 5.74198 2.58243 5.35478 0.982245C5.22424 1.02297 5.09469 1.06337 4.96215 1.10473ZM3.31156 1.62665C3.60115 2.10056 4.52589 1.80024 4.45603 1.26481C4.07721 1.38457 3.69888 1.5042 3.31156 1.62665Z" fill="#3E3E3E"/>
<path d="M6.31266 6.58808C7.78389 8.00616 5.14787 9.07733 5.19178 7.04603C3.11773 7.64686 3.12376 4.61818 5.14651 4.33625C6.53846 3.7681 7.92909 5.97529 6.31266 6.58808ZM5.58305 4.55131C3.69428 4.52818 3.60023 7.29615 5.27071 6.48212C6.00131 6.27109 5.39019 7.69629 6.00171 7.69431C6.6819 7.54738 5.91991 6.93015 5.74198 6.63855C5.4183 6.06593 6.67224 6.22577 6.56253 5.64091C6.51079 5.16177 6.14092 4.53594 5.58305 4.55131Z" fill="#3E3E3E"/>
<path d="M13.8875 3.76759C14.0255 5.80507 11.3486 4.84355 12.7471 3.36638C10.677 2.39935 13.0691 -0.143095 14.9647 1.61998C15.9352 2.3862 15.1919 4.32247 13.8875 3.76759ZM13.4906 1.49638C12.858 1.46457 12.2737 1.7681 12.2214 2.31062C12.1214 2.91842 13.5527 2.79038 13.3391 3.36241C13.2054 3.66812 12.4645 4.22898 13.0325 4.44163C13.7693 4.58662 13.0186 3.01286 13.7911 3.2118C15.4214 3.94344 15.2727 1.50668 13.4906 1.49638Z" fill="#3E3E3E"/>
<path d="M3.61695 9.87752C3.62134 12.1952 -0.0205123 12.1324 0.0531031 9.83308C0.0567759 7.59772 3.62293 7.53782 3.61695 9.87752ZM3.13334 9.87836C3.13397 8.05 0.697598 8.18362 0.535356 9.82765C0.328842 11.9208 3.15737 11.5443 3.13334 9.87836Z" fill="#3E3E3E"/>
<path d="M17.8608 10.0913C18.3262 7.61918 20.3926 11.0229 18.5889 11.2457C18.1508 11.0593 17.8603 10.6277 17.8608 10.0913ZM18.5021 9.72381C18.1857 10.0747 18.3844 10.6102 18.6782 10.7382C18.9253 10.4489 18.8677 9.94225 18.5021 9.72381Z" fill="#3E3E3E"/>
<path d="M0.691997 5.52925C0.748207 3.7287 2.87132 5.47537 2.08323 6.51846C1.55275 7.04109 0.651437 6.12917 0.691997 5.52925ZM1.22347 5.25666C1.04802 5.6513 1.35985 6.12322 1.71052 6.16395C1.87815 5.74099 1.56133 5.31105 1.22347 5.25666Z" fill="#3E3E3E"/>
<path d="M8.85742 5.24183C7.64548 5.11688 8.77387 3.15082 9.77578 3.519C10.5223 4.03569 9.66719 5.31289 8.85742 5.24183ZM8.85938 4.75227C9.29217 4.77572 9.63274 4.31457 9.53936 3.98257C9.09739 3.9733 8.78153 4.41674 8.85938 4.75227Z" fill="#3E3E3E"/>
<path d="M9.32008 7.81819C9.33369 8.7519 7.86757 8.74441 7.8807 7.81621C7.86976 6.897 9.33672 6.89284 9.32008 7.81819ZM8.83838 7.81625C8.84162 7.50991 8.35377 7.52096 8.363 7.82274C8.36882 8.12742 8.84501 8.12544 8.83838 7.81625Z" fill="#3E3E3E"/>
<path d="M18.6933 7.63231C17.7548 7.64174 17.7699 6.18164 18.7057 6.20461C19.6319 6.19998 19.6269 7.65315 18.6933 7.63231ZM18.693 7.15413C19.0023 7.16245 19.0082 6.68636 18.701 6.68288C18.3949 6.67591 18.3819 7.15132 18.693 7.15413Z" fill="#3E3E3E"/>
<path d="M19.2918 18.1187C18.9036 18.2494 18.6376 17.6996 19.0995 17.6427C19.7178 17.4742 20.0646 18.1449 19.2918 18.1191C19.2918 18.119 19.2918 18.1188 19.2918 18.1187Z" fill="#3E3E3E"/>
<path d="M17.6651 19.2567C17.632 18.487 18.3144 18.8381 18.145 19.4469C18.0766 19.9095 17.5326 19.6382 17.6663 19.2567C17.6659 19.2567 17.6655 19.2567 17.6651 19.2567Z" fill="#3E3E3E"/>
<path d="M18.765 18.4631C18.9837 18.5366 19.4272 18.8955 19.2049 19.1448C18.8845 19.4659 18.1327 18.5035 18.765 18.4631Z" fill="#3E3E3E"/>
<path d="M16.2865 13.9553C16.5998 13.9421 16.6024 14.4332 16.2944 14.4317C15.9845 14.4408 15.9724 13.9543 16.2865 13.9553Z" fill="#3E3E3E"/>
<path d="M18.9363 3.2385C18.9433 4.17011 17.4762 4.15731 17.4978 3.2263C17.4931 2.30471 18.9573 2.31386 18.9363 3.2385ZM18.4555 3.23053C18.4551 2.92673 17.9695 2.93624 17.9787 3.23909C17.9827 3.54234 18.4644 3.536 18.4555 3.23053Z" fill="#3E3E3E"/>
<path d="M1.83201 10.5775C0.898089 10.5907 0.903877 9.14057 1.83241 9.15004C2.76331 9.13344 2.77289 10.5969 1.83201 10.5775ZM1.82742 10.1003C2.13757 10.1126 2.14764 9.63663 1.84168 9.62803C1.53723 9.61741 1.51496 10.0944 1.82742 10.1003Z" fill="#3E3E3E"/>
</svg>
