<svg width="16" height="17" viewBox="0 0 16 17" fill="none" xmlns="http://www.w3.org/2000/svg">
<path d="M12.0952 7.61837C12.5832 7.54837 13.0832 7.45837 13.5892 7.40837C14.1672 7.35037 14.7492 7.32237 15.3292 7.28837C15.4932 7.27837 15.6292 7.33637 15.7032 7.50237C15.7932 7.70237 15.7252 7.83237 15.5072 7.83837C15.1752 7.84837 14.8432 7.84437 14.5132 7.85437C13.7292 7.87637 12.9552 7.97237 12.1532 8.14237C12.3192 9.05837 12.2192 9.94237 11.8432 10.7964C12.1492 11.0224 12.4352 11.2284 12.7152 11.4464C12.7852 11.5004 12.8532 11.5824 12.8772 11.6644C12.9012 11.7444 12.9012 11.8824 12.8532 11.9184C12.7832 11.9724 12.6532 11.9904 12.5632 11.9664C12.4672 11.9404 12.3912 11.8464 12.3052 11.7844C12.0872 11.6284 11.8692 11.4724 11.6172 11.2944C11.2612 12.0924 10.6132 12.5304 9.95318 12.9324C10.1092 13.5964 10.2572 14.2284 10.4032 14.8624C10.5052 15.3024 10.6012 15.7424 10.7032 16.1804C10.7372 16.3264 10.7532 16.4664 10.6152 16.5684C10.4232 16.7104 10.2032 16.6184 10.1352 16.3524C10.0432 15.9964 9.97118 15.6344 9.89118 15.2764C9.76518 14.7204 9.64118 14.1644 9.50918 13.6104C9.47918 13.4864 9.42318 13.3684 9.36918 13.2244C8.40918 13.4564 7.51118 13.1564 6.59318 12.9244C6.52918 13.2084 6.47518 13.4724 6.41118 13.7344C6.34918 13.9884 6.30318 14.0264 6.11918 14.0004C5.90518 13.9704 5.79118 13.8584 5.80718 13.6444C5.82118 13.4564 5.87918 13.2724 5.91318 13.0864C5.94118 12.9364 5.96118 12.7864 5.98118 12.6484C5.45718 12.3164 4.95918 12.0024 4.42518 11.6644C4.23118 11.8344 4.00318 12.0184 3.79118 12.2224C3.29518 12.7004 2.80518 13.1844 2.31318 13.6684C2.11118 13.8664 1.81118 13.8484 1.68518 13.6224C1.61518 13.4984 1.61118 13.3864 1.73318 13.2744C2.40718 12.6564 3.07518 12.0324 3.74518 11.4084C3.83118 11.3284 3.91118 11.2404 4.00718 11.1424C3.83318 10.8044 3.63518 10.4684 3.48718 10.1124C3.34318 9.76437 3.24918 9.39637 3.12318 9.00437C2.75518 9.03237 2.37318 9.08637 2.00318 9.21437C1.91318 9.24437 1.82518 9.27837 1.73718 9.31437C1.32118 9.47837 1.23718 9.44237 1.01318 8.97637C1.11318 8.91837 1.21118 8.83437 1.32518 8.80237C1.71118 8.69237 2.10518 8.60237 2.49318 8.49837C2.70918 8.44037 2.91918 8.36437 3.09718 8.30637C3.19518 7.81837 3.28318 7.37837 3.37718 6.91237C2.74518 6.27437 2.12918 5.58437 1.36918 5.04237C1.17518 4.90437 0.997183 4.74837 0.811183 4.60037C0.783183 4.57837 0.753183 4.55637 0.729183 4.53037C0.629183 4.42037 0.523183 4.27437 0.651183 4.16037C0.737183 4.08237 0.915183 4.07237 1.04318 4.09037C1.13318 4.10237 1.21318 4.21037 1.29318 4.27837C2.04918 4.91037 2.82918 5.51637 3.50318 6.23837C3.54318 6.28037 3.59518 6.31437 3.67518 6.38037C4.09318 5.68437 4.65318 5.13637 5.39518 4.75437C5.18318 4.38237 4.98718 4.03437 4.78918 3.68637C4.65318 3.44837 4.64718 3.33237 4.76518 3.24237C4.91118 3.13037 5.16118 3.17637 5.29518 3.37437C5.44718 3.60037 5.56118 3.85037 5.69318 4.08837C5.74918 4.19037 5.80918 4.29037 5.87918 4.41037C6.68518 4.02237 7.47118 3.64637 8.40718 3.92637C8.51918 3.44837 8.61918 3.01437 8.72318 2.57837C8.87718 1.93237 9.03318 1.28437 9.18918 0.638367C9.19718 0.604367 9.20718 0.570367 9.21918 0.536367C9.28918 0.340367 9.40118 0.264367 9.55718 0.306367C9.71318 0.348367 9.81518 0.518367 9.76918 0.698367C9.67918 1.04237 9.57318 1.38237 9.47918 1.72637C9.27918 2.44637 9.07918 3.16637 8.88118 3.88637C8.86918 3.93037 8.86918 3.98037 8.86118 4.05437C9.59118 4.34237 10.2532 4.74837 10.8312 5.33237C10.9212 5.25637 10.9952 5.18637 11.0772 5.12637C11.2692 4.98837 11.4592 4.84637 11.6592 4.72237C11.7952 4.63837 11.9332 4.66837 12.0512 4.77637C12.2092 4.92037 12.1932 5.04837 12.0152 5.17037C11.7412 5.35437 11.4752 5.55037 11.2272 5.72637C11.5272 6.37037 11.8012 6.97237 12.0952 7.61837ZM11.7132 8.94437C11.6632 8.18037 11.4412 7.27037 11.2452 6.83437C10.7292 5.68837 9.84318 4.94437 8.69318 4.48837C8.08718 4.24637 7.48718 4.25237 6.90718 4.56437C6.46918 4.80037 6.03318 5.04437 5.60318 5.29237C4.34918 6.01437 3.51518 7.69437 3.82718 9.30837C4.01318 10.2724 4.43118 11.1064 5.30518 11.6404C6.12918 12.1444 6.99318 12.5544 7.94718 12.7484C8.38918 12.8364 8.82118 12.8424 9.23318 12.6324C9.44518 12.5244 9.65118 12.4084 9.85318 12.2844C11.1612 11.4764 11.6392 10.2284 11.7132 8.94437Z" fill="#3E3E3E"/>
<path d="M7.57397 8.35557C7.30197 8.34757 7.18797 8.18757 7.30997 7.95757C7.52797 7.55157 7.76197 7.15557 8.00597 6.76557C8.27397 6.33357 8.55997 5.91357 8.83997 5.48957C8.96197 5.30357 9.09797 5.30757 9.22197 5.49357C9.33597 5.66757 9.30397 5.82357 9.19597 5.98757C8.91997 6.40157 8.64197 6.81357 8.37997 7.23357C8.19197 7.53357 8.02597 7.84557 7.85397 8.15557C7.78997 8.27557 7.72997 8.38957 7.57397 8.35557Z" fill="#3E3E3E"/>
<path d="M8.95043 8.7814C8.48643 8.7954 8.36043 8.6214 8.56043 8.2534C8.87443 7.6714 9.21043 7.0994 9.53643 6.5234C9.59643 6.4154 9.67443 6.2834 9.80043 6.3794C9.89843 6.4534 9.96843 6.5974 9.99843 6.7214C10.0164 6.7934 9.93843 6.8934 9.89443 6.9774C9.58243 7.5754 9.26843 8.1714 8.95043 8.7814Z" fill="#3E3E3E"/>
<path d="M9.63035 9.27773C9.58635 9.27373 9.50034 9.27973 9.42434 9.25573C9.22034 9.18773 9.15434 9.03773 9.26234 8.84173C9.39234 8.60373 9.53634 8.37173 9.69034 8.14573C9.86434 7.89173 10.0543 7.64973 10.2363 7.39973C10.3083 7.30173 10.3743 7.19973 10.5223 7.26973C10.6723 7.33973 10.7843 7.53973 10.7303 7.67573C10.6903 7.77373 10.6283 7.86173 10.5663 7.94973C10.2603 8.38573 9.95435 8.81973 9.63035 9.27773Z" fill="#3E3E3E"/>
</svg>
