<svg width="42" height="42" viewBox="0 0 42 42" fill="none" xmlns="http://www.w3.org/2000/svg">
<path d="M1 1H2.37931V2.37931H1V1Z" fill="#FFFFF5"/>
<path d="M2.37931 1H3.75862V2.37931H2.37931V1Z" fill="#FFFFF5"/>
<path d="M3.75862 1H5.13793V2.37931H3.75862V1Z" fill="#FFFFF5"/>
<path d="M5.13793 1H6.51724V2.37931H5.13793V1Z" fill="#FFFFF5"/>
<path d="M6.51724 1H7.89655V2.37931H6.51724V1Z" fill="#FFFFF5"/>
<path d="M7.89655 1H9.27586V2.37931H7.89655V1Z" fill="#FFFFF5"/>
<path d="M9.27586 1H10.6552V2.37931H9.27586V1Z" fill="#FFFFF5"/>
<path d="M13.4138 1H14.7931V2.37931H13.4138V1Z" fill="#FFFFF5"/>
<path d="M23.069 1H24.4483V2.37931H23.069V1Z" fill="#FFFFF5"/>
<path d="M31.3448 1H32.7241V2.37931H31.3448V1Z" fill="#FFFFF5"/>
<path d="M32.7241 1H34.1034V2.37931H32.7241V1Z" fill="#FFFFF5"/>
<path d="M34.1034 1H35.4828V2.37931H34.1034V1Z" fill="#FFFFF5"/>
<path d="M35.4828 1H36.8621V2.37931H35.4828V1Z" fill="#FFFFF5"/>
<path d="M36.8621 1H38.2414V2.37931H36.8621V1Z" fill="#FFFFF5"/>
<path d="M38.2414 1H39.6207V2.37931H38.2414V1Z" fill="#FFFFF5"/>
<path d="M39.6207 1H41V2.37931H39.6207V1Z" fill="#FFFFF5"/>
<path d="M1 2.37931H2.37931V3.75862H1V2.37931Z" fill="#FFFFF5"/>
<path d="M9.27586 2.37931H10.6552V3.75862H9.27586V2.37931Z" fill="#FFFFF5"/>
<path d="M13.4138 2.37931H14.7931V3.75862H13.4138V2.37931Z" fill="#FFFFF5"/>
<path d="M17.5517 2.37931H18.931V3.75862H17.5517V2.37931Z" fill="#FFFFF5"/>
<path d="M20.3103 2.37931H21.6897V3.75862H20.3103V2.37931Z" fill="#FFFFF5"/>
<path d="M23.069 2.37931H24.4483V3.75862H23.069V2.37931Z" fill="#FFFFF5"/>
<path d="M25.8276 2.37931H27.2069V3.75862H25.8276V2.37931Z" fill="#FFFFF5"/>
<path d="M31.3448 2.37931H32.7241V3.75862H31.3448V2.37931Z" fill="#FFFFF5"/>
<path d="M39.6207 2.37931H41V3.75862H39.6207V2.37931Z" fill="#FFFFF5"/>
<path d="M1 3.75862H2.37931V5.13793H1V3.75862Z" fill="#FFFFF5"/>
<path d="M3.75862 3.75862H5.13793V5.13793H3.75862V3.75862Z" fill="#FFFFF5"/>
<path d="M5.13793 3.75862H6.51724V5.13793H5.13793V3.75862Z" fill="#FFFFF5"/>
<path d="M6.51724 3.75862H7.89655V5.13793H6.51724V3.75862Z" fill="#FFFFF5"/>
<path d="M9.27586 3.75862H10.6552V5.13793H9.27586V3.75862Z" fill="#FFFFF5"/>
<path d="M13.4138 3.75862H14.7931V5.13793H13.4138V3.75862Z" fill="#FFFFF5"/>
<path d="M17.5517 3.75862H18.931V5.13793H17.5517V3.75862Z" fill="#FFFFF5"/>
<path d="M18.931 3.75862H20.3103V5.13793H18.931V3.75862Z" fill="#FFFFF5"/>
<path d="M21.6897 3.75862H23.069V5.13793H21.6897V3.75862Z" fill="#FFFFF5"/>
<path d="M23.069 3.75862H24.4483V5.13793H23.069V3.75862Z" fill="#FFFFF5"/>
<path d="M25.8276 3.75862H27.2069V5.13793H25.8276V3.75862Z" fill="#FFFFF5"/>
<path d="M27.2069 3.75862H28.5862V5.13793H27.2069V3.75862Z" fill="#FFFFF5"/>
<path d="M31.3448 3.75862H32.7241V5.13793H31.3448V3.75862Z" fill="#FFFFF5"/>
<path d="M34.1034 3.75862H35.4828V5.13793H34.1034V3.75862Z" fill="#FFFFF5"/>
<path d="M35.4828 3.75862H36.8621V5.13793H35.4828V3.75862Z" fill="#FFFFF5"/>
<path d="M36.8621 3.75862H38.2414V5.13793H36.8621V3.75862Z" fill="#FFFFF5"/>
<path d="M39.6207 3.75862H41V5.13793H39.6207V3.75862Z" fill="#FFFFF5"/>
<path d="M1 5.13793H2.37931V6.51724H1V5.13793Z" fill="#FFFFF5"/>
<path d="M3.75862 5.13793H5.13793V6.51724H3.75862V5.13793Z" fill="#FFFFF5"/>
<path d="M5.13793 5.13793H6.51724V6.51724H5.13793V5.13793Z" fill="#FFFFF5"/>
<path d="M6.51724 5.13793H7.89655V6.51724H6.51724V5.13793Z" fill="#FFFFF5"/>
<path d="M9.27586 5.13793H10.6552V6.51724H9.27586V5.13793Z" fill="#FFFFF5"/>
<path d="M14.7931 5.13793H16.1724V6.51724H14.7931V5.13793Z" fill="#FFFFF5"/>
<path d="M17.5517 5.13793H18.931V6.51724H17.5517V5.13793Z" fill="#FFFFF5"/>
<path d="M20.3103 5.13793H21.6897V6.51724H20.3103V5.13793Z" fill="#FFFFF5"/>
<path d="M21.6897 5.13793H23.069V6.51724H21.6897V5.13793Z" fill="#FFFFF5"/>
<path d="M23.069 5.13793H24.4483V6.51724H23.069V5.13793Z" fill="#FFFFF5"/>
<path d="M24.4483 5.13793H25.8276V6.51724H24.4483V5.13793Z" fill="#FFFFF5"/>
<path d="M31.3448 5.13793H32.7241V6.51724H31.3448V5.13793Z" fill="#FFFFF5"/>
<path d="M34.1034 5.13793H35.4828V6.51724H34.1034V5.13793Z" fill="#FFFFF5"/>
<path d="M35.4828 5.13793H36.8621V6.51724H35.4828V5.13793Z" fill="#FFFFF5"/>
<path d="M36.8621 5.13793H38.2414V6.51724H36.8621V5.13793Z" fill="#FFFFF5"/>
<path d="M39.6207 5.13793H41V6.51724H39.6207V5.13793Z" fill="#FFFFF5"/>
<path d="M1 6.51724H2.37931V7.89655H1V6.51724Z" fill="#FFFFF5"/>
<path d="M3.75862 6.51724H5.13793V7.89655H3.75862V6.51724Z" fill="#FFFFF5"/>
<path d="M5.13793 6.51724H6.51724V7.89655H5.13793V6.51724Z" fill="#FFFFF5"/>
<path d="M6.51724 6.51724H7.89655V7.89655H6.51724V6.51724Z" fill="#FFFFF5"/>
<path d="M9.27586 6.51724H10.6552V7.89655H9.27586V6.51724Z" fill="#FFFFF5"/>
<path d="M12.0345 6.51724H13.4138V7.89655H12.0345V6.51724Z" fill="#FFFFF5"/>
<path d="M13.4138 6.51724H14.7931V7.89655H13.4138V6.51724Z" fill="#FFFFF5"/>
<path d="M14.7931 6.51724H16.1724V7.89655H14.7931V6.51724Z" fill="#FFFFF5"/>
<path d="M16.1724 6.51724H17.5517V7.89655H16.1724V6.51724Z" fill="#FFFFF5"/>
<path d="M17.5517 6.51724H18.931V7.89655H17.5517V6.51724Z" fill="#FFFFF5"/>
<path d="M18.931 6.51724H20.3103V7.89655H18.931V6.51724Z" fill="#FFFFF5"/>
<path d="M20.3103 6.51724H21.6897V7.89655H20.3103V6.51724Z" fill="#FFFFF5"/>
<path d="M23.069 6.51724H24.4483V7.89655H23.069V6.51724Z" fill="#FFFFF5"/>
<path d="M27.2069 6.51724H28.5862V7.89655H27.2069V6.51724Z" fill="#FFFFF5"/>
<path d="M31.3448 6.51724H32.7241V7.89655H31.3448V6.51724Z" fill="#FFFFF5"/>
<path d="M34.1034 6.51724H35.4828V7.89655H34.1034V6.51724Z" fill="#FFFFF5"/>
<path d="M35.4828 6.51724H36.8621V7.89655H35.4828V6.51724Z" fill="#FFFFF5"/>
<path d="M36.8621 6.51724H38.2414V7.89655H36.8621V6.51724Z" fill="#FFFFF5"/>
<path d="M39.6207 6.51724H41V7.89655H39.6207V6.51724Z" fill="#FFFFF5"/>
<path d="M1 7.89655H2.37931V9.27586H1V7.89655Z" fill="#FFFFF5"/>
<path d="M9.27586 7.89655H10.6552V9.27586H9.27586V7.89655Z" fill="#FFFFF5"/>
<path d="M14.7931 7.89655H16.1724V9.27586H14.7931V7.89655Z" fill="#FFFFF5"/>
<path d="M16.1724 7.89655H17.5517V9.27586H16.1724V7.89655Z" fill="#FFFFF5"/>
<path d="M24.4483 7.89655H25.8276V9.27586H24.4483V7.89655Z" fill="#FFFFF5"/>
<path d="M25.8276 7.89655H27.2069V9.27586H25.8276V7.89655Z" fill="#FFFFF5"/>
<path d="M27.2069 7.89655H28.5862V9.27586H27.2069V7.89655Z" fill="#FFFFF5"/>
<path d="M28.5862 7.89655H29.9655V9.27586H28.5862V7.89655Z" fill="#FFFFF5"/>
<path d="M31.3448 7.89655H32.7241V9.27586H31.3448V7.89655Z" fill="#FFFFF5"/>
<path d="M39.6207 7.89655H41V9.27586H39.6207V7.89655Z" fill="#FFFFF5"/>
<path d="M1 9.27586H2.37931V10.6552H1V9.27586Z" fill="#FFFFF5"/>
<path d="M2.37931 9.27586H3.75862V10.6552H2.37931V9.27586Z" fill="#FFFFF5"/>
<path d="M3.75862 9.27586H5.13793V10.6552H3.75862V9.27586Z" fill="#FFFFF5"/>
<path d="M5.13793 9.27586H6.51724V10.6552H5.13793V9.27586Z" fill="#FFFFF5"/>
<path d="M6.51724 9.27586H7.89655V10.6552H6.51724V9.27586Z" fill="#FFFFF5"/>
<path d="M7.89655 9.27586H9.27586V10.6552H7.89655V9.27586Z" fill="#FFFFF5"/>
<path d="M9.27586 9.27586H10.6552V10.6552H9.27586V9.27586Z" fill="#FFFFF5"/>
<path d="M12.0345 9.27586H13.4138V10.6552H12.0345V9.27586Z" fill="#FFFFF5"/>
<path d="M14.7931 9.27586H16.1724V10.6552H14.7931V9.27586Z" fill="#FFFFF5"/>
<path d="M17.5517 9.27586H18.931V10.6552H17.5517V9.27586Z" fill="#FFFFF5"/>
<path d="M20.3103 9.27586H21.6897V10.6552H20.3103V9.27586Z" fill="#FFFFF5"/>
<path d="M23.069 9.27586H24.4483V10.6552H23.069V9.27586Z" fill="#FFFFF5"/>
<path d="M25.8276 9.27586H27.2069V10.6552H25.8276V9.27586Z" fill="#FFFFF5"/>
<path d="M28.5862 9.27586H29.9655V10.6552H28.5862V9.27586Z" fill="#FFFFF5"/>
<path d="M31.3448 9.27586H32.7241V10.6552H31.3448V9.27586Z" fill="#FFFFF5"/>
<path d="M32.7241 9.27586H34.1034V10.6552H32.7241V9.27586Z" fill="#FFFFF5"/>
<path d="M34.1034 9.27586H35.4828V10.6552H34.1034V9.27586Z" fill="#FFFFF5"/>
<path d="M35.4828 9.27586H36.8621V10.6552H35.4828V9.27586Z" fill="#FFFFF5"/>
<path d="M36.8621 9.27586H38.2414V10.6552H36.8621V9.27586Z" fill="#FFFFF5"/>
<path d="M38.2414 9.27586H39.6207V10.6552H38.2414V9.27586Z" fill="#FFFFF5"/>
<path d="M39.6207 9.27586H41V10.6552H39.6207V9.27586Z" fill="#FFFFF5"/>
<path d="M12.0345 10.6552H13.4138V12.0345H12.0345V10.6552Z" fill="#FFFFF5"/>
<path d="M14.7931 10.6552H16.1724V12.0345H14.7931V10.6552Z" fill="#FFFFF5"/>
<path d="M17.5517 10.6552H18.931V12.0345H17.5517V10.6552Z" fill="#FFFFF5"/>
<path d="M21.6897 10.6552H23.069V12.0345H21.6897V10.6552Z" fill="#FFFFF5"/>
<path d="M28.5862 10.6552H29.9655V12.0345H28.5862V10.6552Z" fill="#FFFFF5"/>
<path d="M3.75862 12.0345H5.13793V13.4138H3.75862V12.0345Z" fill="#FFFFF5"/>
<path d="M5.13793 12.0345H6.51724V13.4138H5.13793V12.0345Z" fill="#FFFFF5"/>
<path d="M9.27586 12.0345H10.6552V13.4138H9.27586V12.0345Z" fill="#FFFFF5"/>
<path d="M10.6552 12.0345H12.0345V13.4138H10.6552V12.0345Z" fill="#FFFFF5"/>
<path d="M12.0345 12.0345H13.4138V13.4138H12.0345V12.0345Z" fill="#FFFFF5"/>
<path d="M13.4138 12.0345H14.7931V13.4138H13.4138V12.0345Z" fill="#FFFFF5"/>
<path d="M16.1724 12.0345H17.5517V13.4138H16.1724V12.0345Z" fill="#FFFFF5"/>
<path d="M17.5517 12.0345H18.931V13.4138H17.5517V12.0345Z" fill="#FFFFF5"/>
<path d="M20.3103 12.0345H21.6897V13.4138H20.3103V12.0345Z" fill="#FFFFF5"/>
<path d="M25.8276 12.0345H27.2069V13.4138H25.8276V12.0345Z" fill="#FFFFF5"/>
<path d="M29.9655 12.0345H31.3448V13.4138H29.9655V12.0345Z" fill="#FFFFF5"/>
<path d="M31.3448 12.0345H32.7241V13.4138H31.3448V12.0345Z" fill="#FFFFF5"/>
<path d="M34.1034 12.0345H35.4828V13.4138H34.1034V12.0345Z" fill="#FFFFF5"/>
<path d="M1 13.4138H2.37931V14.7931H1V13.4138Z" fill="#FFFFF5"/>
<path d="M2.37931 13.4138H3.75862V14.7931H2.37931V13.4138Z" fill="#FFFFF5"/>
<path d="M3.75862 13.4138H5.13793V14.7931H3.75862V13.4138Z" fill="#FFFFF5"/>
<path d="M18.931 13.4138H20.3103V14.7931H18.931V13.4138Z" fill="#FFFFF5"/>
<path d="M21.6897 13.4138H23.069V14.7931H21.6897V13.4138Z" fill="#FFFFF5"/>
<path d="M23.069 13.4138H24.4483V14.7931H23.069V13.4138Z" fill="#FFFFF5"/>
<path d="M25.8276 13.4138H27.2069V14.7931H25.8276V13.4138Z" fill="#FFFFF5"/>
<path d="M28.5862 13.4138H29.9655V14.7931H28.5862V13.4138Z" fill="#FFFFF5"/>
<path d="M29.9655 13.4138H31.3448V14.7931H29.9655V13.4138Z" fill="#FFFFF5"/>
<path d="M32.7241 13.4138H34.1034V14.7931H32.7241V13.4138Z" fill="#FFFFF5"/>
<path d="M35.4828 13.4138H36.8621V14.7931H35.4828V13.4138Z" fill="#FFFFF5"/>
<path d="M36.8621 13.4138H38.2414V14.7931H36.8621V13.4138Z" fill="#FFFFF5"/>
<path d="M39.6207 13.4138H41V14.7931H39.6207V13.4138Z" fill="#FFFFF5"/>
<path d="M1 14.7931H2.37931V16.1724H1V14.7931Z" fill="#FFFFF5"/>
<path d="M2.37931 14.7931H3.75862V16.1724H2.37931V14.7931Z" fill="#FFFFF5"/>
<path d="M6.51724 14.7931H7.89655V16.1724H6.51724V14.7931Z" fill="#FFFFF5"/>
<path d="M9.27586 14.7931H10.6552V16.1724H9.27586V14.7931Z" fill="#FFFFF5"/>
<path d="M13.4138 14.7931H14.7931V16.1724H13.4138V14.7931Z" fill="#FFFFF5"/>
<path d="M27.2069 14.7931H28.5862V16.1724H27.2069V14.7931Z" fill="#FFFFF5"/>
<path d="M28.5862 14.7931H29.9655V16.1724H28.5862V14.7931Z" fill="#FFFFF5"/>
<path d="M31.3448 14.7931H32.7241V16.1724H31.3448V14.7931Z" fill="#FFFFF5"/>
<path d="M32.7241 14.7931H34.1034V16.1724H32.7241V14.7931Z" fill="#FFFFF5"/>
<path d="M34.1034 14.7931H35.4828V16.1724H34.1034V14.7931Z" fill="#FFFFF5"/>
<path d="M38.2414 14.7931H39.6207V16.1724H38.2414V14.7931Z" fill="#FFFFF5"/>
<path d="M1 16.1724H2.37931V17.5517H1V16.1724Z" fill="#FFFFF5"/>
<path d="M6.51724 16.1724H7.89655V17.5517H6.51724V16.1724Z" fill="#FFFFF5"/>
<path d="M7.89655 16.1724H9.27586V17.5517H7.89655V16.1724Z" fill="#FFFFF5"/>
<path d="M12.0345 16.1724H13.4138V17.5517H12.0345V16.1724Z" fill="#FFFFF5"/>
<path d="M28.5862 16.1724H29.9655V17.5517H28.5862V16.1724Z" fill="#FFFFF5"/>
<path d="M32.7241 16.1724H34.1034V17.5517H32.7241V16.1724Z" fill="#FFFFF5"/>
<path d="M34.1034 16.1724H35.4828V17.5517H34.1034V16.1724Z" fill="#FFFFF5"/>
<path d="M39.6207 16.1724H41V17.5517H39.6207V16.1724Z" fill="#FFFFF5"/>
<path d="M2.37931 17.5517H3.75862V18.931H2.37931V17.5517Z" fill="#FFFFF5"/>
<path d="M6.51724 17.5517H7.89655V18.931H6.51724V17.5517Z" fill="#FFFFF5"/>
<path d="M9.27586 17.5517H10.6552V18.931H9.27586V17.5517Z" fill="#FFFFF5"/>
<path d="M10.6552 17.5517H12.0345V18.931H10.6552V17.5517Z" fill="#FFFFF5"/>
<path d="M12.0345 17.5517H13.4138V18.931H12.0345V17.5517Z" fill="#FFFFF5"/>
<path d="M13.4138 17.5517H14.7931V18.931H13.4138V17.5517Z" fill="#FFFFF5"/>
<path d="M27.2069 17.5517H28.5862V18.931H27.2069V17.5517Z" fill="#FFFFF5"/>
<path d="M29.9655 17.5517H31.3448V18.931H29.9655V17.5517Z" fill="#FFFFF5"/>
<path d="M32.7241 17.5517H34.1034V18.931H32.7241V17.5517Z" fill="#FFFFF5"/>
<path d="M36.8621 17.5517H38.2414V18.931H36.8621V17.5517Z" fill="#FFFFF5"/>
<path d="M38.2414 17.5517H39.6207V18.931H38.2414V17.5517Z" fill="#FFFFF5"/>
<path d="M39.6207 17.5517H41V18.931H39.6207V17.5517Z" fill="#FFFFF5"/>
<path d="M5.13793 18.931H6.51724V20.3103H5.13793V18.931Z" fill="#FFFFF5"/>
<path d="M7.89655 18.931H9.27586V20.3103H7.89655V18.931Z" fill="#FFFFF5"/>
<path d="M12.0345 18.931H13.4138V20.3103H12.0345V18.931Z" fill="#FFFFF5"/>
<path d="M13.4138 18.931H14.7931V20.3103H13.4138V18.931Z" fill="#FFFFF5"/>
<path d="M27.2069 18.931H28.5862V20.3103H27.2069V18.931Z" fill="#FFFFF5"/>
<path d="M31.3448 18.931H32.7241V20.3103H31.3448V18.931Z" fill="#FFFFF5"/>
<path d="M32.7241 18.931H34.1034V20.3103H32.7241V18.931Z" fill="#FFFFF5"/>
<path d="M35.4828 18.931H36.8621V20.3103H35.4828V18.931Z" fill="#FFFFF5"/>
<path d="M36.8621 18.931H38.2414V20.3103H36.8621V18.931Z" fill="#FFFFF5"/>
<path d="M39.6207 18.931H41V20.3103H39.6207V18.931Z" fill="#FFFFF5"/>
<path d="M1 20.3103H2.37931V21.6897H1V20.3103Z" fill="#FFFFF5"/>
<path d="M2.37931 20.3103H3.75862V21.6897H2.37931V20.3103Z" fill="#FFFFF5"/>
<path d="M9.27586 20.3103H10.6552V21.6897H9.27586V20.3103Z" fill="#FFFFF5"/>
<path d="M10.6552 20.3103H12.0345V21.6897H10.6552V20.3103Z" fill="#FFFFF5"/>
<path d="M27.2069 20.3103H28.5862V21.6897H27.2069V20.3103Z" fill="#FFFFF5"/>
<path d="M31.3448 20.3103H32.7241V21.6897H31.3448V20.3103Z" fill="#FFFFF5"/>
<path d="M32.7241 20.3103H34.1034V21.6897H32.7241V20.3103Z" fill="#FFFFF5"/>
<path d="M34.1034 20.3103H35.4828V21.6897H34.1034V20.3103Z" fill="#FFFFF5"/>
<path d="M35.4828 20.3103H36.8621V21.6897H35.4828V20.3103Z" fill="#FFFFF5"/>
<path d="M39.6207 20.3103H41V21.6897H39.6207V20.3103Z" fill="#FFFFF5"/>
<path d="M1 21.6897H2.37931V23.069H1V21.6897Z" fill="#FFFFF5"/>
<path d="M5.13793 21.6897H6.51724V23.069H5.13793V21.6897Z" fill="#FFFFF5"/>
<path d="M7.89655 21.6897H9.27586V23.069H7.89655V21.6897Z" fill="#FFFFF5"/>
<path d="M12.0345 21.6897H13.4138V23.069H12.0345V21.6897Z" fill="#FFFFF5"/>
<path d="M13.4138 21.6897H14.7931V23.069H13.4138V21.6897Z" fill="#FFFFF5"/>
<path d="M27.2069 21.6897H28.5862V23.069H27.2069V21.6897Z" fill="#FFFFF5"/>
<path d="M28.5862 21.6897H29.9655V23.069H28.5862V21.6897Z" fill="#FFFFF5"/>
<path d="M34.1034 21.6897H35.4828V23.069H34.1034V21.6897Z" fill="#FFFFF5"/>
<path d="M35.4828 21.6897H36.8621V23.069H35.4828V21.6897Z" fill="#FFFFF5"/>
<path d="M1 23.069H2.37931V24.4483H1V23.069Z" fill="#FFFFF5"/>
<path d="M3.75862 23.069H5.13793V24.4483H3.75862V23.069Z" fill="#FFFFF5"/>
<path d="M5.13793 23.069H6.51724V24.4483H5.13793V23.069Z" fill="#FFFFF5"/>
<path d="M6.51724 23.069H7.89655V24.4483H6.51724V23.069Z" fill="#FFFFF5"/>
<path d="M9.27586 23.069H10.6552V24.4483H9.27586V23.069Z" fill="#FFFFF5"/>
<path d="M13.4138 23.069H14.7931V24.4483H13.4138V23.069Z" fill="#FFFFF5"/>
<path d="M32.7241 23.069H34.1034V24.4483H32.7241V23.069Z" fill="#FFFFF5"/>
<path d="M35.4828 23.069H36.8621V24.4483H35.4828V23.069Z" fill="#FFFFF5"/>
<path d="M2.37931 24.4483H3.75862V25.8276H2.37931V24.4483Z" fill="#FFFFF5"/>
<path d="M5.13793 24.4483H6.51724V25.8276H5.13793V24.4483Z" fill="#FFFFF5"/>
<path d="M6.51724 24.4483H7.89655V25.8276H6.51724V24.4483Z" fill="#FFFFF5"/>
<path d="M7.89655 24.4483H9.27586V25.8276H7.89655V24.4483Z" fill="#FFFFF5"/>
<path d="M10.6552 24.4483H12.0345V25.8276H10.6552V24.4483Z" fill="#FFFFF5"/>
<path d="M13.4138 24.4483H14.7931V25.8276H13.4138V24.4483Z" fill="#FFFFF5"/>
<path d="M27.2069 24.4483H28.5862V25.8276H27.2069V24.4483Z" fill="#FFFFF5"/>
<path d="M29.9655 24.4483H31.3448V25.8276H29.9655V24.4483Z" fill="#FFFFF5"/>
<path d="M31.3448 24.4483H32.7241V25.8276H31.3448V24.4483Z" fill="#FFFFF5"/>
<path d="M35.4828 24.4483H36.8621V25.8276H35.4828V24.4483Z" fill="#FFFFF5"/>
<path d="M1 25.8276H2.37931V27.2069H1V25.8276Z" fill="#FFFFF5"/>
<path d="M3.75862 25.8276H5.13793V27.2069H3.75862V25.8276Z" fill="#FFFFF5"/>
<path d="M5.13793 25.8276H6.51724V27.2069H5.13793V25.8276Z" fill="#FFFFF5"/>
<path d="M9.27586 25.8276H10.6552V27.2069H9.27586V25.8276Z" fill="#FFFFF5"/>
<path d="M10.6552 25.8276H12.0345V27.2069H10.6552V25.8276Z" fill="#FFFFF5"/>
<path d="M13.4138 25.8276H14.7931V27.2069H13.4138V25.8276Z" fill="#FFFFF5"/>
<path d="M28.5862 25.8276H29.9655V27.2069H28.5862V25.8276Z" fill="#FFFFF5"/>
<path d="M31.3448 25.8276H32.7241V27.2069H31.3448V25.8276Z" fill="#FFFFF5"/>
<path d="M32.7241 25.8276H34.1034V27.2069H32.7241V25.8276Z" fill="#FFFFF5"/>
<path d="M34.1034 25.8276H35.4828V27.2069H34.1034V25.8276Z" fill="#FFFFF5"/>
<path d="M35.4828 25.8276H36.8621V27.2069H35.4828V25.8276Z" fill="#FFFFF5"/>
<path d="M36.8621 25.8276H38.2414V27.2069H36.8621V25.8276Z" fill="#FFFFF5"/>
<path d="M5.13793 27.2069H6.51724V28.5862H5.13793V27.2069Z" fill="#FFFFF5"/>
<path d="M6.51724 27.2069H7.89655V28.5862H6.51724V27.2069Z" fill="#FFFFF5"/>
<path d="M7.89655 27.2069H9.27586V28.5862H7.89655V27.2069Z" fill="#FFFFF5"/>
<path d="M12.0345 27.2069H13.4138V28.5862H12.0345V27.2069Z" fill="#FFFFF5"/>
<path d="M13.4138 27.2069H14.7931V28.5862H13.4138V27.2069Z" fill="#FFFFF5"/>
<path d="M14.7931 27.2069H16.1724V28.5862H14.7931V27.2069Z" fill="#FFFFF5"/>
<path d="M17.5517 27.2069H18.931V28.5862H17.5517V27.2069Z" fill="#FFFFF5"/>
<path d="M18.931 27.2069H20.3103V28.5862H18.931V27.2069Z" fill="#FFFFF5"/>
<path d="M21.6897 27.2069H23.069V28.5862H21.6897V27.2069Z" fill="#FFFFF5"/>
<path d="M23.069 27.2069H24.4483V28.5862H23.069V27.2069Z" fill="#FFFFF5"/>
<path d="M25.8276 27.2069H27.2069V28.5862H25.8276V27.2069Z" fill="#FFFFF5"/>
<path d="M28.5862 27.2069H29.9655V28.5862H28.5862V27.2069Z" fill="#FFFFF5"/>
<path d="M29.9655 27.2069H31.3448V28.5862H29.9655V27.2069Z" fill="#FFFFF5"/>
<path d="M31.3448 27.2069H32.7241V28.5862H31.3448V27.2069Z" fill="#FFFFF5"/>
<path d="M34.1034 27.2069H35.4828V28.5862H34.1034V27.2069Z" fill="#FFFFF5"/>
<path d="M35.4828 27.2069H36.8621V28.5862H35.4828V27.2069Z" fill="#FFFFF5"/>
<path d="M36.8621 27.2069H38.2414V28.5862H36.8621V27.2069Z" fill="#FFFFF5"/>
<path d="M38.2414 27.2069H39.6207V28.5862H38.2414V27.2069Z" fill="#FFFFF5"/>
<path d="M2.37931 28.5862H3.75862V29.9655H2.37931V28.5862Z" fill="#FFFFF5"/>
<path d="M3.75862 28.5862H5.13793V29.9655H3.75862V28.5862Z" fill="#FFFFF5"/>
<path d="M5.13793 28.5862H6.51724V29.9655H5.13793V28.5862Z" fill="#FFFFF5"/>
<path d="M7.89655 28.5862H9.27586V29.9655H7.89655V28.5862Z" fill="#FFFFF5"/>
<path d="M9.27586 28.5862H10.6552V29.9655H9.27586V28.5862Z" fill="#FFFFF5"/>
<path d="M10.6552 28.5862H12.0345V29.9655H10.6552V28.5862Z" fill="#FFFFF5"/>
<path d="M12.0345 28.5862H13.4138V29.9655H12.0345V28.5862Z" fill="#FFFFF5"/>
<path d="M14.7931 28.5862H16.1724V29.9655H14.7931V28.5862Z" fill="#FFFFF5"/>
<path d="M16.1724 28.5862H17.5517V29.9655H16.1724V28.5862Z" fill="#FFFFF5"/>
<path d="M17.5517 28.5862H18.931V29.9655H17.5517V28.5862Z" fill="#FFFFF5"/>
<path d="M25.8276 28.5862H27.2069V29.9655H25.8276V28.5862Z" fill="#FFFFF5"/>
<path d="M27.2069 28.5862H28.5862V29.9655H27.2069V28.5862Z" fill="#FFFFF5"/>
<path d="M28.5862 28.5862H29.9655V29.9655H28.5862V28.5862Z" fill="#FFFFF5"/>
<path d="M29.9655 28.5862H31.3448V29.9655H29.9655V28.5862Z" fill="#FFFFF5"/>
<path d="M31.3448 28.5862H32.7241V29.9655H31.3448V28.5862Z" fill="#FFFFF5"/>
<path d="M32.7241 28.5862H34.1034V29.9655H32.7241V28.5862Z" fill="#FFFFF5"/>
<path d="M34.1034 28.5862H35.4828V29.9655H34.1034V28.5862Z" fill="#FFFFF5"/>
<path d="M35.4828 28.5862H36.8621V29.9655H35.4828V28.5862Z" fill="#FFFFF5"/>
<path d="M36.8621 28.5862H38.2414V29.9655H36.8621V28.5862Z" fill="#FFFFF5"/>
<path d="M39.6207 28.5862H41V29.9655H39.6207V28.5862Z" fill="#FFFFF5"/>
<path d="M12.0345 29.9655H13.4138V31.3448H12.0345V29.9655Z" fill="#FFFFF5"/>
<path d="M14.7931 29.9655H16.1724V31.3448H14.7931V29.9655Z" fill="#FFFFF5"/>
<path d="M18.931 29.9655H20.3103V31.3448H18.931V29.9655Z" fill="#FFFFF5"/>
<path d="M21.6897 29.9655H23.069V31.3448H21.6897V29.9655Z" fill="#FFFFF5"/>
<path d="M23.069 29.9655H24.4483V31.3448H23.069V29.9655Z" fill="#FFFFF5"/>
<path d="M24.4483 29.9655H25.8276V31.3448H24.4483V29.9655Z" fill="#FFFFF5"/>
<path d="M28.5862 29.9655H29.9655V31.3448H28.5862V29.9655Z" fill="#FFFFF5"/>
<path d="M34.1034 29.9655H35.4828V31.3448H34.1034V29.9655Z" fill="#FFFFF5"/>
<path d="M35.4828 29.9655H36.8621V31.3448H35.4828V29.9655Z" fill="#FFFFF5"/>
<path d="M38.2414 29.9655H39.6207V31.3448H38.2414V29.9655Z" fill="#FFFFF5"/>
<path d="M39.6207 29.9655H41V31.3448H39.6207V29.9655Z" fill="#FFFFF5"/>
<path d="M1 31.3448H2.37931V32.7241H1V31.3448Z" fill="#FFFFF5"/>
<path d="M2.37931 31.3448H3.75862V32.7241H2.37931V31.3448Z" fill="#FFFFF5"/>
<path d="M3.75862 31.3448H5.13793V32.7241H3.75862V31.3448Z" fill="#FFFFF5"/>
<path d="M5.13793 31.3448H6.51724V32.7241H5.13793V31.3448Z" fill="#FFFFF5"/>
<path d="M6.51724 31.3448H7.89655V32.7241H6.51724V31.3448Z" fill="#FFFFF5"/>
<path d="M7.89655 31.3448H9.27586V32.7241H7.89655V31.3448Z" fill="#FFFFF5"/>
<path d="M9.27586 31.3448H10.6552V32.7241H9.27586V31.3448Z" fill="#FFFFF5"/>
<path d="M12.0345 31.3448H13.4138V32.7241H12.0345V31.3448Z" fill="#FFFFF5"/>
<path d="M21.6897 31.3448H23.069V32.7241H21.6897V31.3448Z" fill="#FFFFF5"/>
<path d="M24.4483 31.3448H25.8276V32.7241H24.4483V31.3448Z" fill="#FFFFF5"/>
<path d="M25.8276 31.3448H27.2069V32.7241H25.8276V31.3448Z" fill="#FFFFF5"/>
<path d="M27.2069 31.3448H28.5862V32.7241H27.2069V31.3448Z" fill="#FFFFF5"/>
<path d="M28.5862 31.3448H29.9655V32.7241H28.5862V31.3448Z" fill="#FFFFF5"/>
<path d="M31.3448 31.3448H32.7241V32.7241H31.3448V31.3448Z" fill="#FFFFF5"/>
<path d="M34.1034 31.3448H35.4828V32.7241H34.1034V31.3448Z" fill="#FFFFF5"/>
<path d="M36.8621 31.3448H38.2414V32.7241H36.8621V31.3448Z" fill="#FFFFF5"/>
<path d="M38.2414 31.3448H39.6207V32.7241H38.2414V31.3448Z" fill="#FFFFF5"/>
<path d="M1 32.7241H2.37931V34.1034H1V32.7241Z" fill="#FFFFF5"/>
<path d="M9.27586 32.7241H10.6552V34.1034H9.27586V32.7241Z" fill="#FFFFF5"/>
<path d="M13.4138 32.7241H14.7931V34.1034H13.4138V32.7241Z" fill="#FFFFF5"/>
<path d="M23.069 32.7241H24.4483V34.1034H23.069V32.7241Z" fill="#FFFFF5"/>
<path d="M28.5862 32.7241H29.9655V34.1034H28.5862V32.7241Z" fill="#FFFFF5"/>
<path d="M34.1034 32.7241H35.4828V34.1034H34.1034V32.7241Z" fill="#FFFFF5"/>
<path d="M38.2414 32.7241H39.6207V34.1034H38.2414V32.7241Z" fill="#FFFFF5"/>
<path d="M39.6207 32.7241H41V34.1034H39.6207V32.7241Z" fill="#FFFFF5"/>
<path d="M1 34.1034H2.37931V35.4828H1V34.1034Z" fill="#FFFFF5"/>
<path d="M3.75862 34.1034H5.13793V35.4828H3.75862V34.1034Z" fill="#FFFFF5"/>
<path d="M5.13793 34.1034H6.51724V35.4828H5.13793V34.1034Z" fill="#FFFFF5"/>
<path d="M6.51724 34.1034H7.89655V35.4828H6.51724V34.1034Z" fill="#FFFFF5"/>
<path d="M9.27586 34.1034H10.6552V35.4828H9.27586V34.1034Z" fill="#FFFFF5"/>
<path d="M13.4138 34.1034H14.7931V35.4828H13.4138V34.1034Z" fill="#FFFFF5"/>
<path d="M14.7931 34.1034H16.1724V35.4828H14.7931V34.1034Z" fill="#FFFFF5"/>
<path d="M16.1724 34.1034H17.5517V35.4828H16.1724V34.1034Z" fill="#FFFFF5"/>
<path d="M20.3103 34.1034H21.6897V35.4828H20.3103V34.1034Z" fill="#FFFFF5"/>
<path d="M21.6897 34.1034H23.069V35.4828H21.6897V34.1034Z" fill="#FFFFF5"/>
<path d="M24.4483 34.1034H25.8276V35.4828H24.4483V34.1034Z" fill="#FFFFF5"/>
<path d="M28.5862 34.1034H29.9655V35.4828H28.5862V34.1034Z" fill="#FFFFF5"/>
<path d="M29.9655 34.1034H31.3448V35.4828H29.9655V34.1034Z" fill="#FFFFF5"/>
<path d="M31.3448 34.1034H32.7241V35.4828H31.3448V34.1034Z" fill="#FFFFF5"/>
<path d="M32.7241 34.1034H34.1034V35.4828H32.7241V34.1034Z" fill="#FFFFF5"/>
<path d="M34.1034 34.1034H35.4828V35.4828H34.1034V34.1034Z" fill="#FFFFF5"/>
<path d="M35.4828 34.1034H36.8621V35.4828H35.4828V34.1034Z" fill="#FFFFF5"/>
<path d="M36.8621 34.1034H38.2414V35.4828H36.8621V34.1034Z" fill="#FFFFF5"/>
<path d="M39.6207 34.1034H41V35.4828H39.6207V34.1034Z" fill="#FFFFF5"/>
<path d="M1 35.4828H2.37931V36.8621H1V35.4828Z" fill="#FFFFF5"/>
<path d="M3.75862 35.4828H5.13793V36.8621H3.75862V35.4828Z" fill="#FFFFF5"/>
<path d="M5.13793 35.4828H6.51724V36.8621H5.13793V35.4828Z" fill="#FFFFF5"/>
<path d="M6.51724 35.4828H7.89655V36.8621H6.51724V35.4828Z" fill="#FFFFF5"/>
<path d="M9.27586 35.4828H10.6552V36.8621H9.27586V35.4828Z" fill="#FFFFF5"/>
<path d="M12.0345 35.4828H13.4138V36.8621H12.0345V35.4828Z" fill="#FFFFF5"/>
<path d="M18.931 35.4828H20.3103V36.8621H18.931V35.4828Z" fill="#FFFFF5"/>
<path d="M21.6897 35.4828H23.069V36.8621H21.6897V35.4828Z" fill="#FFFFF5"/>
<path d="M27.2069 35.4828H28.5862V36.8621H27.2069V35.4828Z" fill="#FFFFF5"/>
<path d="M34.1034 35.4828H35.4828V36.8621H34.1034V35.4828Z" fill="#FFFFF5"/>
<path d="M35.4828 35.4828H36.8621V36.8621H35.4828V35.4828Z" fill="#FFFFF5"/>
<path d="M38.2414 35.4828H39.6207V36.8621H38.2414V35.4828Z" fill="#FFFFF5"/>
<path d="M1 36.8621H2.37931V38.2414H1V36.8621Z" fill="#FFFFF5"/>
<path d="M3.75862 36.8621H5.13793V38.2414H3.75862V36.8621Z" fill="#FFFFF5"/>
<path d="M5.13793 36.8621H6.51724V38.2414H5.13793V36.8621Z" fill="#FFFFF5"/>
<path d="M6.51724 36.8621H7.89655V38.2414H6.51724V36.8621Z" fill="#FFFFF5"/>
<path d="M9.27586 36.8621H10.6552V38.2414H9.27586V36.8621Z" fill="#FFFFF5"/>
<path d="M12.0345 36.8621H13.4138V38.2414H12.0345V36.8621Z" fill="#FFFFF5"/>
<path d="M16.1724 36.8621H17.5517V38.2414H16.1724V36.8621Z" fill="#FFFFF5"/>
<path d="M17.5517 36.8621H18.931V38.2414H17.5517V36.8621Z" fill="#FFFFF5"/>
<path d="M23.069 36.8621H24.4483V38.2414H23.069V36.8621Z" fill="#FFFFF5"/>
<path d="M24.4483 36.8621H25.8276V38.2414H24.4483V36.8621Z" fill="#FFFFF5"/>
<path d="M25.8276 36.8621H27.2069V38.2414H25.8276V36.8621Z" fill="#FFFFF5"/>
<path d="M28.5862 36.8621H29.9655V38.2414H28.5862V36.8621Z" fill="#FFFFF5"/>
<path d="M32.7241 36.8621H34.1034V38.2414H32.7241V36.8621Z" fill="#FFFFF5"/>
<path d="M36.8621 36.8621H38.2414V38.2414H36.8621V36.8621Z" fill="#FFFFF5"/>
<path d="M39.6207 36.8621H41V38.2414H39.6207V36.8621Z" fill="#FFFFF5"/>
<path d="M1 38.2414H2.37931V39.6207H1V38.2414Z" fill="#FFFFF5"/>
<path d="M9.27586 38.2414H10.6552V39.6207H9.27586V38.2414Z" fill="#FFFFF5"/>
<path d="M16.1724 38.2414H17.5517V39.6207H16.1724V38.2414Z" fill="#FFFFF5"/>
<path d="M17.5517 38.2414H18.931V39.6207H17.5517V38.2414Z" fill="#FFFFF5"/>
<path d="M18.931 38.2414H20.3103V39.6207H18.931V38.2414Z" fill="#FFFFF5"/>
<path d="M21.6897 38.2414H23.069V39.6207H21.6897V38.2414Z" fill="#FFFFF5"/>
<path d="M24.4483 38.2414H25.8276V39.6207H24.4483V38.2414Z" fill="#FFFFF5"/>
<path d="M25.8276 38.2414H27.2069V39.6207H25.8276V38.2414Z" fill="#FFFFF5"/>
<path d="M31.3448 38.2414H32.7241V39.6207H31.3448V38.2414Z" fill="#FFFFF5"/>
<path d="M34.1034 38.2414H35.4828V39.6207H34.1034V38.2414Z" fill="#FFFFF5"/>
<path d="M35.4828 38.2414H36.8621V39.6207H35.4828V38.2414Z" fill="#FFFFF5"/>
<path d="M38.2414 38.2414H39.6207V39.6207H38.2414V38.2414Z" fill="#FFFFF5"/>
<path d="M1 39.6207H2.37931V41H1V39.6207Z" fill="#FFFFF5"/>
<path d="M2.37931 39.6207H3.75862V41H2.37931V39.6207Z" fill="#FFFFF5"/>
<path d="M3.75862 39.6207H5.13793V41H3.75862V39.6207Z" fill="#FFFFF5"/>
<path d="M5.13793 39.6207H6.51724V41H5.13793V39.6207Z" fill="#FFFFF5"/>
<path d="M6.51724 39.6207H7.89655V41H6.51724V39.6207Z" fill="#FFFFF5"/>
<path d="M7.89655 39.6207H9.27586V41H7.89655V39.6207Z" fill="#FFFFF5"/>
<path d="M9.27586 39.6207H10.6552V41H9.27586V39.6207Z" fill="#FFFFF5"/>
<path d="M13.4138 39.6207H14.7931V41H13.4138V39.6207Z" fill="#FFFFF5"/>
<path d="M17.5517 39.6207H18.931V41H17.5517V39.6207Z" fill="#FFFFF5"/>
<path d="M24.4483 39.6207H25.8276V41H24.4483V39.6207Z" fill="#FFFFF5"/>
<path d="M27.2069 39.6207H28.5862V41H27.2069V39.6207Z" fill="#FFFFF5"/>
<path d="M31.3448 39.6207H32.7241V41H31.3448V39.6207Z" fill="#FFFFF5"/>
<path d="M32.7241 39.6207H34.1034V41H32.7241V39.6207Z" fill="#FFFFF5"/>
<path d="M38.2414 39.6207H39.6207V41H38.2414V39.6207Z" fill="#FFFFF5"/>
<path d="M2.37931 1H1V2.37931M2.37931 1V2.37931M2.37931 1H3.75862M2.37931 2.37931H1M2.37931 2.37931H3.75862M2.37931 2.37931V3.75862M1 2.37931V3.75862M3.75862 1V2.37931M3.75862 1H5.13793M3.75862 2.37931H5.13793M5.13793 1V2.37931M5.13793 1H6.51724M5.13793 2.37931H6.51724M6.51724 1V2.37931M6.51724 1H7.89655M6.51724 2.37931H7.89655M7.89655 1V2.37931M7.89655 1H9.27586M7.89655 2.37931H9.27586M9.27586 1V2.37931M9.27586 1H10.6552V2.37931M9.27586 2.37931H10.6552M9.27586 2.37931V3.75862M10.6552 2.37931V3.75862M14.7931 2.37931V1H13.4138V2.37931M14.7931 2.37931H13.4138M14.7931 2.37931V3.75862M13.4138 2.37931V3.75862M24.4483 2.37931V1H23.069V2.37931M24.4483 2.37931H23.069M24.4483 2.37931V3.75862M23.069 2.37931V3.75862M32.7241 1H31.3448V2.37931M32.7241 1V2.37931M32.7241 1H34.1034M32.7241 2.37931H31.3448M32.7241 2.37931H34.1034M32.7241 2.37931V3.75862M31.3448 2.37931V3.75862M34.1034 1V2.37931M34.1034 1H35.4828M34.1034 2.37931H35.4828M35.4828 1V2.37931M35.4828 1H36.8621M35.4828 2.37931H36.8621M36.8621 1V2.37931M36.8621 1H38.2414M36.8621 2.37931H38.2414M38.2414 1V2.37931M38.2414 1H39.6207M38.2414 2.37931H39.6207M39.6207 1V2.37931M39.6207 1H41V2.37931M39.6207 2.37931H41M39.6207 2.37931V3.75862M41 2.37931V3.75862M2.37931 3.75862H1M2.37931 3.75862V5.13793M1 3.75862V5.13793M10.6552 3.75862H9.27586M10.6552 3.75862V5.13793M9.27586 3.75862V5.13793M14.7931 3.75862H13.4138M14.7931 3.75862V5.13793M13.4138 3.75862V5.13793H14.7931M18.931 3.75862V2.37931H17.5517V3.75862M18.931 3.75862H17.5517M18.931 3.75862V5.13793M18.931 3.75862H20.3103M17.5517 3.75862V5.13793M21.6897 3.75862V2.37931H20.3103V3.75862M21.6897 3.75862H20.3103M21.6897 3.75862H23.069M21.6897 3.75862V5.13793M20.3103 3.75862V5.13793M24.4483 3.75862H23.069M24.4483 3.75862V5.13793M23.069 3.75862V5.13793M27.2069 3.75862V2.37931H25.8276V3.75862M27.2069 3.75862H25.8276M27.2069 3.75862V5.13793M27.2069 3.75862H28.5862V5.13793H27.2069M25.8276 3.75862V5.13793M32.7241 3.75862H31.3448M32.7241 3.75862V5.13793M31.3448 3.75862V5.13793M41 3.75862H39.6207M41 3.75862V5.13793M39.6207 3.75862V5.13793M2.37931 5.13793H1M2.37931 5.13793V6.51724M1 5.13793V6.51724M5.13793 3.75862H3.75862V5.13793M5.13793 3.75862V5.13793M5.13793 3.75862H6.51724M5.13793 5.13793H3.75862M5.13793 5.13793H6.51724M5.13793 5.13793V6.51724M3.75862 5.13793V6.51724M6.51724 3.75862V5.13793M6.51724 3.75862H7.89655V5.13793M6.51724 5.13793H7.89655M6.51724 5.13793V6.51724M7.89655 5.13793V6.51724M10.6552 5.13793H9.27586M10.6552 5.13793V6.51724M9.27586 5.13793V6.51724M14.7931 5.13793H16.1724V6.51724M14.7931 5.13793V6.51724M18.931 5.13793H17.5517M18.931 5.13793H20.3103M18.931 5.13793V6.51724M17.5517 5.13793V6.51724M20.3103 5.13793H21.6897M20.3103 5.13793V6.51724M23.069 5.13793H21.6897M23.069 5.13793H24.4483M23.069 5.13793V6.51724M21.6897 5.13793V6.51724M24.4483 5.13793V6.51724M24.4483 5.13793H25.8276M27.2069 5.13793H25.8276M25.8276 5.13793V6.51724H24.4483M32.7241 5.13793H31.3448M32.7241 5.13793V6.51724M31.3448 5.13793V6.51724M35.4828 3.75862H34.1034V5.13793M35.4828 3.75862V5.13793M35.4828 3.75862H36.8621M35.4828 5.13793H34.1034M35.4828 5.13793H36.8621M35.4828 5.13793V6.51724M34.1034 5.13793V6.51724M36.8621 3.75862V5.13793M36.8621 3.75862H38.2414V5.13793M36.8621 5.13793H38.2414M36.8621 5.13793V6.51724M38.2414 5.13793V6.51724M41 5.13793H39.6207M41 5.13793V6.51724M39.6207 5.13793V6.51724M2.37931 6.51724H1M2.37931 6.51724V7.89655M1 6.51724V7.89655M5.13793 6.51724H3.75862M5.13793 6.51724H6.51724M5.13793 6.51724V7.89655M3.75862 6.51724V7.89655H5.13793M6.51724 6.51724H7.89655M6.51724 6.51724V7.89655M7.89655 6.51724V7.89655H6.51724M10.6552 6.51724H9.27586M10.6552 6.51724V7.89655M9.27586 6.51724V7.89655M16.1724 6.51724H14.7931M16.1724 6.51724V7.89655M16.1724 6.51724H17.5517M14.7931 6.51724H13.4138M14.7931 6.51724V7.89655M18.931 6.51724H17.5517M18.931 6.51724V7.89655M18.931 6.51724H20.3103M17.5517 6.51724V7.89655M21.6897 6.51724H20.3103M21.6897 6.51724H23.069M21.6897 6.51724V7.89655H20.3103M20.3103 6.51724V7.89655M23.069 6.51724H24.4483M23.069 6.51724V7.89655H24.4483M24.4483 6.51724V7.89655M32.7241 6.51724H31.3448M32.7241 6.51724V7.89655M31.3448 6.51724V7.89655M35.4828 6.51724H34.1034M35.4828 6.51724H36.8621M35.4828 6.51724V7.89655M34.1034 6.51724V7.89655H35.4828M36.8621 6.51724H38.2414M36.8621 6.51724V7.89655M38.2414 6.51724V7.89655H36.8621M41 6.51724H39.6207M41 6.51724V7.89655M39.6207 6.51724V7.89655M2.37931 7.89655H1M2.37931 7.89655V9.27586M1 7.89655V9.27586M5.13793 7.89655H6.51724M10.6552 7.89655H9.27586M10.6552 7.89655V9.27586M9.27586 7.89655V9.27586M13.4138 6.51724H12.0345V7.89655H13.4138M13.4138 6.51724V7.89655M13.4138 7.89655H14.7931M14.7931 7.89655H16.1724M14.7931 7.89655V9.27586M16.1724 7.89655H17.5517M16.1724 7.89655V9.27586M17.5517 7.89655H18.931M17.5517 7.89655V9.27586M18.931 7.89655H20.3103M24.4483 7.89655H25.8276M24.4483 7.89655V9.27586M28.5862 7.89655V6.51724H27.2069V7.89655M28.5862 7.89655H27.2069M28.5862 7.89655V9.27586M28.5862 7.89655H29.9655V9.27586M27.2069 7.89655H25.8276M27.2069 7.89655V9.27586M32.7241 7.89655H31.3448M32.7241 7.89655V9.27586M31.3448 7.89655V9.27586M35.4828 7.89655H36.8621M41 7.89655H39.6207M41 7.89655V9.27586M39.6207 7.89655V9.27586M2.37931 9.27586H1M2.37931 9.27586V10.6552M2.37931 9.27586H3.75862M1 9.27586V10.6552H2.37931M10.6552 9.27586H9.27586M10.6552 9.27586V10.6552H9.27586M9.27586 9.27586H7.89655M9.27586 9.27586V10.6552M16.1724 9.27586H14.7931M16.1724 9.27586H17.5517M16.1724 9.27586V10.6552M14.7931 9.27586V10.6552M17.5517 9.27586H18.931V10.6552M17.5517 9.27586V10.6552M25.8276 7.89655V9.27586M25.8276 9.27586H24.4483M25.8276 9.27586H27.2069M25.8276 9.27586V10.6552H27.2069V9.27586M24.4483 9.27586H23.069V10.6552M24.4483 9.27586V10.6552H23.069M27.2069 9.27586H28.5862M28.5862 9.27586H29.9655M28.5862 9.27586V10.6552M29.9655 9.27586V10.6552M32.7241 9.27586H31.3448M32.7241 9.27586V10.6552M32.7241 9.27586H34.1034M31.3448 9.27586V10.6552H32.7241M41 9.27586H39.6207M41 9.27586V10.6552H39.6207M39.6207 9.27586H38.2414M39.6207 9.27586V10.6552M2.37931 10.6552H3.75862M3.75862 9.27586V10.6552M3.75862 9.27586H5.13793M3.75862 10.6552H5.13793M5.13793 9.27586V10.6552M5.13793 9.27586H6.51724M5.13793 10.6552H6.51724M6.51724 9.27586V10.6552M6.51724 9.27586H7.89655M6.51724 10.6552H7.89655M7.89655 9.27586V10.6552M7.89655 10.6552H9.27586M13.4138 10.6552V9.27586H12.0345V10.6552M13.4138 10.6552H12.0345M13.4138 10.6552V12.0345M12.0345 10.6552V12.0345M16.1724 10.6552H14.7931M16.1724 10.6552V12.0345M14.7931 10.6552V12.0345M18.931 10.6552H17.5517M18.931 10.6552V12.0345M17.5517 10.6552V12.0345M21.6897 10.6552V9.27586H20.3103V10.6552H21.6897ZM21.6897 10.6552H23.069M21.6897 10.6552V12.0345M23.069 10.6552V12.0345H21.6897M29.9655 10.6552H28.5862M29.9655 10.6552V12.0345M28.5862 10.6552V12.0345H29.9655M32.7241 10.6552H34.1034M34.1034 9.27586V10.6552M34.1034 9.27586H35.4828M34.1034 10.6552H35.4828M35.4828 9.27586V10.6552M35.4828 9.27586H36.8621M35.4828 10.6552H36.8621M36.8621 9.27586V10.6552M36.8621 9.27586H38.2414M36.8621 10.6552H38.2414M38.2414 9.27586V10.6552M38.2414 10.6552H39.6207M13.4138 12.0345H12.0345M13.4138 12.0345V13.4138M13.4138 12.0345H14.7931M12.0345 12.0345H10.6552M12.0345 12.0345V13.4138M16.1724 12.0345H14.7931M16.1724 12.0345H17.5517M16.1724 12.0345V13.4138H17.5517M14.7931 12.0345V13.4138H13.4138M18.931 12.0345H17.5517M18.931 12.0345V13.4138M17.5517 12.0345V13.4138M21.6897 12.0345H20.3103V13.4138M21.6897 12.0345V13.4138M29.9655 12.0345H31.3448M29.9655 12.0345V13.4138M5.13793 12.0345H3.75862V13.4138M5.13793 12.0345V13.4138M5.13793 12.0345H6.51724V13.4138H5.13793M5.13793 13.4138H3.75862M5.13793 13.4138V14.7931H3.75862M3.75862 13.4138H2.37931M3.75862 13.4138V14.7931M10.6552 12.0345H9.27586V13.4138H10.6552M10.6552 12.0345V13.4138M10.6552 13.4138H12.0345M12.0345 13.4138H13.4138M17.5517 13.4138H18.931M18.931 13.4138H20.3103M18.931 13.4138V14.7931H20.3103V13.4138M21.6897 13.4138H20.3103M21.6897 13.4138H23.069M21.6897 13.4138V14.7931H23.069M27.2069 13.4138V12.0345H25.8276V13.4138M27.2069 13.4138H25.8276M27.2069 13.4138V14.7931M25.8276 13.4138V14.7931H27.2069M31.3448 12.0345V13.4138M31.3448 12.0345H32.7241V13.4138M31.3448 13.4138H29.9655M31.3448 13.4138H32.7241M31.3448 13.4138V14.7931M29.9655 13.4138H28.5862V14.7931M29.9655 13.4138V14.7931M32.7241 13.4138H34.1034M32.7241 13.4138V14.7931M35.4828 13.4138V12.0345H34.1034V13.4138M35.4828 13.4138H34.1034M35.4828 13.4138H36.8621M35.4828 13.4138V14.7931M34.1034 13.4138V14.7931M2.37931 13.4138H1V14.7931M2.37931 13.4138V14.7931M2.37931 14.7931H1M2.37931 14.7931H3.75862M2.37931 14.7931V16.1724M1 14.7931V16.1724M3.75862 14.7931V16.1724H2.37931M23.069 13.4138V14.7931M23.069 13.4138H24.4483V14.7931H23.069M27.2069 14.7931H28.5862M27.2069 14.7931V16.1724H28.5862M29.9655 14.7931H28.5862M29.9655 14.7931H31.3448M29.9655 14.7931V16.1724M28.5862 14.7931V16.1724M31.3448 14.7931H32.7241M31.3448 14.7931V16.1724H32.7241M34.1034 14.7931H32.7241M34.1034 14.7931V16.1724M34.1034 14.7931H35.4828M32.7241 14.7931V16.1724M36.8621 13.4138V14.7931M36.8621 13.4138H38.2414V14.7931M36.8621 14.7931H35.4828M36.8621 14.7931H38.2414M35.4828 14.7931V16.1724M38.2414 14.7931H39.6207M38.2414 14.7931V16.1724H39.6207M39.6207 14.7931H41V13.4138H39.6207V14.7931ZM39.6207 14.7931V16.1724M2.37931 16.1724H1M2.37931 16.1724V17.5517M1 16.1724V17.5517H2.37931M7.89655 16.1724V14.7931H6.51724V16.1724M7.89655 16.1724H6.51724M7.89655 16.1724V17.5517M7.89655 16.1724H9.27586M6.51724 16.1724V17.5517M9.27586 16.1724H10.6552V14.7931H9.27586V16.1724ZM9.27586 16.1724V17.5517M13.4138 16.1724H14.7931V14.7931H13.4138V16.1724ZM13.4138 16.1724H12.0345V17.5517M13.4138 16.1724V17.5517M28.5862 16.1724H29.9655M28.5862 16.1724V17.5517M29.9655 16.1724V17.5517M32.7241 16.1724H34.1034M32.7241 16.1724V17.5517M34.1034 16.1724H35.4828M34.1034 16.1724V17.5517M35.4828 16.1724V17.5517H34.1034M39.6207 16.1724H41V17.5517M39.6207 16.1724V17.5517M2.37931 17.5517H3.75862V18.931H2.37931V17.5517ZM7.89655 17.5517H6.51724M7.89655 17.5517H9.27586M7.89655 17.5517V18.931M6.51724 17.5517V18.931M9.27586 17.5517H10.6552M9.27586 17.5517V18.931M13.4138 17.5517H12.0345M13.4138 17.5517V18.931M13.4138 17.5517H14.7931V18.931M12.0345 17.5517H10.6552M12.0345 17.5517V18.931M29.9655 17.5517H28.5862M29.9655 17.5517H31.3448V18.931M29.9655 17.5517V18.931H31.3448M28.5862 17.5517H27.2069V18.931M28.5862 17.5517V18.931M34.1034 17.5517H32.7241M34.1034 17.5517V18.931M32.7241 17.5517V18.931M41 17.5517H39.6207M41 17.5517V18.931M39.6207 17.5517H38.2414M39.6207 17.5517V18.931M7.89655 18.931H6.51724M7.89655 18.931H9.27586M7.89655 18.931V20.3103H9.27586M6.51724 18.931H5.13793V20.3103H6.51724V18.931ZM10.6552 17.5517V18.931M10.6552 18.931H9.27586M10.6552 18.931H12.0345M9.27586 18.931V20.3103M12.0345 18.931H13.4138M12.0345 18.931V20.3103M13.4138 18.931H14.7931M13.4138 18.931V20.3103M14.7931 18.931V20.3103H13.4138M28.5862 18.931H27.2069M28.5862 18.931V20.3103M27.2069 18.931V20.3103M31.3448 18.931H32.7241M31.3448 18.931V20.3103M34.1034 18.931H32.7241M34.1034 18.931V20.3103M32.7241 18.931V20.3103M38.2414 17.5517H36.8621V18.931M38.2414 17.5517V18.931M38.2414 18.931H36.8621M38.2414 18.931H39.6207M38.2414 18.931V20.3103H36.8621M36.8621 18.931H35.4828V20.3103M36.8621 18.931V20.3103M39.6207 18.931H41M39.6207 18.931V20.3103M41 18.931V20.3103M9.27586 20.3103H10.6552M9.27586 20.3103V21.6897M13.4138 20.3103H12.0345M12.0345 20.3103H10.6552M12.0345 20.3103V21.6897M28.5862 20.3103H27.2069M28.5862 20.3103V21.6897M27.2069 20.3103V21.6897M32.7241 20.3103H31.3448M32.7241 20.3103H34.1034M32.7241 20.3103V21.6897M31.3448 20.3103V21.6897H32.7241M34.1034 20.3103V21.6897M34.1034 20.3103H35.4828M36.8621 20.3103H35.4828M36.8621 20.3103V21.6897M35.4828 20.3103V21.6897M41 20.3103H39.6207M41 20.3103V21.6897H39.6207V20.3103M2.37931 20.3103H1V21.6897M2.37931 20.3103V21.6897M2.37931 20.3103H3.75862V21.6897H2.37931M2.37931 21.6897H1M2.37931 21.6897V23.069M1 21.6897V23.069M10.6552 20.3103V21.6897M10.6552 21.6897H9.27586M10.6552 21.6897H12.0345M9.27586 21.6897H7.89655V23.069M9.27586 21.6897V23.069M12.0345 21.6897H13.4138M12.0345 21.6897V23.069H13.4138M28.5862 21.6897H27.2069M28.5862 21.6897V23.069M28.5862 21.6897H29.9655V23.069H28.5862M27.2069 21.6897V23.069H28.5862M32.7241 21.6897H34.1034M34.1034 21.6897H35.4828M34.1034 21.6897V23.069M35.4828 21.6897H36.8621M35.4828 21.6897V23.069M36.8621 21.6897V23.069M2.37931 23.069H1M2.37931 23.069V24.4483M1 23.069V24.4483H2.37931M6.51724 23.069V21.6897H5.13793V23.069M6.51724 23.069H5.13793M6.51724 23.069V24.4483M6.51724 23.069H7.89655M5.13793 23.069H3.75862V24.4483M5.13793 23.069V24.4483M9.27586 23.069H7.89655M9.27586 23.069H10.6552V24.4483M9.27586 23.069V24.4483M7.89655 23.069V24.4483M13.4138 21.6897V23.069M13.4138 21.6897H14.7931V23.069M13.4138 23.069H14.7931M13.4138 23.069V24.4483M14.7931 23.069V24.4483M35.4828 23.069H34.1034M35.4828 23.069H36.8621M35.4828 23.069V24.4483M34.1034 23.069H32.7241V24.4483M34.1034 23.069V24.4483H32.7241M36.8621 23.069V24.4483M2.37931 24.4483H3.75862M2.37931 24.4483V25.8276M5.13793 24.4483H3.75862M5.13793 24.4483H6.51724M5.13793 24.4483V25.8276M3.75862 24.4483V25.8276M6.51724 24.4483H7.89655M6.51724 24.4483V25.8276M7.89655 24.4483V25.8276M7.89655 24.4483H9.27586M10.6552 24.4483H9.27586M10.6552 24.4483H12.0345V25.8276M10.6552 24.4483V25.8276M9.27586 24.4483V25.8276M14.7931 24.4483H13.4138M14.7931 24.4483V25.8276M13.4138 24.4483V25.8276M32.7241 24.4483H31.3448M32.7241 24.4483V25.8276M36.8621 24.4483H35.4828M36.8621 24.4483V25.8276M35.4828 24.4483V25.8276M3.75862 25.8276H2.37931M3.75862 25.8276H5.13793M3.75862 25.8276V27.2069H5.13793M2.37931 25.8276H1V27.2069H2.37931V25.8276ZM6.51724 25.8276H5.13793M6.51724 25.8276H7.89655M6.51724 25.8276V27.2069M5.13793 25.8276V27.2069M7.89655 25.8276H9.27586M9.27586 25.8276H10.6552M9.27586 25.8276V27.2069M12.0345 25.8276H10.6552M12.0345 25.8276V27.2069M10.6552 25.8276V27.2069M14.7931 25.8276H13.4138M14.7931 25.8276V27.2069M13.4138 25.8276V27.2069M28.5862 25.8276V24.4483H27.2069V25.8276H28.5862ZM28.5862 25.8276H29.9655M28.5862 25.8276V27.2069M31.3448 24.4483H29.9655V25.8276M31.3448 24.4483V25.8276M31.3448 25.8276H29.9655M31.3448 25.8276H32.7241M31.3448 25.8276V27.2069M29.9655 25.8276V27.2069M32.7241 25.8276V27.2069M32.7241 25.8276H34.1034M36.8621 25.8276H35.4828M36.8621 25.8276V27.2069M36.8621 25.8276H38.2414V27.2069M35.4828 25.8276H34.1034M35.4828 25.8276V27.2069M5.13793 27.2069H6.51724M5.13793 27.2069V28.5862M6.51724 27.2069V28.5862M6.51724 27.2069H7.89655M10.6552 27.2069H9.27586M10.6552 27.2069H12.0345M9.27586 27.2069H7.89655M9.27586 27.2069V28.5862M12.0345 27.2069H13.4138M12.0345 27.2069V28.5862M14.7931 27.2069H13.4138M14.7931 27.2069V28.5862M14.7931 27.2069H16.1724V28.5862M13.4138 27.2069V28.5862M29.9655 27.2069H28.5862M29.9655 27.2069V28.5862M29.9655 27.2069H31.3448M28.5862 27.2069V28.5862M32.7241 27.2069H31.3448M32.7241 27.2069H34.1034M32.7241 27.2069V28.5862M31.3448 27.2069V28.5862M34.1034 25.8276V27.2069M34.1034 27.2069H35.4828M34.1034 27.2069V28.5862M35.4828 27.2069H36.8621M35.4828 27.2069V28.5862M36.8621 27.2069H38.2414M36.8621 27.2069V28.5862M38.2414 27.2069V28.5862M38.2414 27.2069H39.6207V28.5862M6.51724 28.5862H5.13793M6.51724 28.5862H7.89655M6.51724 28.5862V29.9655H5.13793M5.13793 28.5862H3.75862M5.13793 28.5862V29.9655M7.89655 27.2069V28.5862M7.89655 28.5862H9.27586M7.89655 28.5862V29.9655H9.27586M9.27586 28.5862V29.9655M9.27586 28.5862H10.6552M13.4138 28.5862H12.0345M13.4138 28.5862H14.7931M13.4138 28.5862V29.9655M12.0345 28.5862H10.6552M12.0345 28.5862V29.9655M14.7931 28.5862H16.1724M14.7931 28.5862V29.9655M16.1724 28.5862V29.9655M16.1724 28.5862H17.5517M18.931 27.2069H17.5517V28.5862M18.931 27.2069V28.5862M18.931 27.2069H20.3103V28.5862H18.931M18.931 28.5862H17.5517M18.931 28.5862V29.9655M17.5517 28.5862V29.9655M23.069 27.2069H21.6897V28.5862H23.069M23.069 27.2069V28.5862M23.069 27.2069H24.4483V28.5862H23.069M27.2069 28.5862V27.2069H25.8276V28.5862M27.2069 28.5862H25.8276M27.2069 28.5862V29.9655M27.2069 28.5862H28.5862M25.8276 28.5862V29.9655M29.9655 28.5862H28.5862M29.9655 28.5862H31.3448M29.9655 28.5862V29.9655M28.5862 28.5862V29.9655M31.3448 28.5862H32.7241M31.3448 28.5862V29.9655M32.7241 28.5862V29.9655M32.7241 28.5862H34.1034M35.4828 28.5862H34.1034M35.4828 28.5862H36.8621M35.4828 28.5862V29.9655M34.1034 28.5862V29.9655M36.8621 28.5862H38.2414M36.8621 28.5862V29.9655M38.2414 28.5862H39.6207M38.2414 28.5862V29.9655M39.6207 28.5862H41V29.9655M39.6207 28.5862V29.9655M3.75862 28.5862H2.37931V29.9655H3.75862M3.75862 28.5862V29.9655M3.75862 29.9655H5.13793M9.27586 29.9655H10.6552M10.6552 28.5862V29.9655M10.6552 29.9655H12.0345M12.0345 29.9655H13.4138M12.0345 29.9655V31.3448M13.4138 29.9655V31.3448M16.1724 29.9655H14.7931M16.1724 29.9655H17.5517M16.1724 29.9655V31.3448H14.7931V29.9655M17.5517 29.9655H18.931M18.931 29.9655H20.3103V31.3448H18.931V29.9655ZM27.2069 29.9655H25.8276M27.2069 29.9655H28.5862M25.8276 29.9655H24.4483M25.8276 29.9655V31.3448M28.5862 29.9655H29.9655M28.5862 29.9655V31.3448M29.9655 29.9655H31.3448M29.9655 29.9655V31.3448M31.3448 29.9655H32.7241M32.7241 29.9655H34.1034M34.1034 29.9655H35.4828M34.1034 29.9655V31.3448M35.4828 29.9655H36.8621M35.4828 29.9655V31.3448M36.8621 29.9655H38.2414M36.8621 29.9655V31.3448M38.2414 29.9655H39.6207M38.2414 29.9655V31.3448M41 29.9655H39.6207M41 29.9655V31.3448H39.6207M39.6207 29.9655V31.3448M13.4138 31.3448H12.0345M13.4138 31.3448V32.7241M12.0345 31.3448V32.7241H13.4138M23.069 29.9655H21.6897V31.3448M23.069 29.9655V31.3448M23.069 29.9655H24.4483M23.069 31.3448H21.6897M23.069 31.3448H24.4483M23.069 31.3448V32.7241M21.6897 31.3448V32.7241H23.069M24.4483 29.9655V31.3448M24.4483 31.3448H25.8276M24.4483 31.3448V32.7241M25.8276 31.3448V32.7241M25.8276 31.3448H27.2069M29.9655 31.3448H28.5862M29.9655 31.3448V32.7241M28.5862 31.3448H27.2069M28.5862 31.3448V32.7241M35.4828 31.3448H34.1034M35.4828 31.3448H36.8621M35.4828 31.3448V32.7241M34.1034 31.3448V32.7241M36.8621 31.3448H38.2414M36.8621 31.3448V32.7241H38.2414M39.6207 31.3448H38.2414M39.6207 31.3448V32.7241M38.2414 31.3448V32.7241M2.37931 31.3448H1V32.7241M2.37931 31.3448V32.7241M2.37931 31.3448H3.75862M2.37931 32.7241H1M2.37931 32.7241H3.75862M2.37931 32.7241V34.1034M1 32.7241V34.1034M3.75862 31.3448V32.7241M3.75862 31.3448H5.13793M3.75862 32.7241H5.13793M5.13793 31.3448V32.7241M5.13793 31.3448H6.51724M5.13793 32.7241H6.51724M6.51724 31.3448V32.7241M6.51724 31.3448H7.89655M6.51724 32.7241H7.89655M7.89655 31.3448V32.7241M7.89655 31.3448H9.27586M7.89655 32.7241H9.27586M9.27586 31.3448V32.7241M9.27586 31.3448H10.6552V32.7241M9.27586 32.7241H10.6552M9.27586 32.7241V34.1034M10.6552 32.7241V34.1034M13.4138 32.7241H14.7931V34.1034M13.4138 32.7241V34.1034M23.069 32.7241H24.4483M23.069 32.7241V34.1034M25.8276 32.7241H24.4483M25.8276 32.7241H27.2069M24.4483 32.7241V34.1034M27.2069 31.3448V32.7241M27.2069 32.7241H28.5862M28.5862 32.7241H29.9655M28.5862 32.7241V34.1034M29.9655 32.7241V34.1034M35.4828 32.7241H34.1034M35.4828 32.7241V34.1034M34.1034 32.7241V34.1034M38.2414 32.7241H39.6207M38.2414 32.7241V34.1034M39.6207 32.7241V34.1034M39.6207 32.7241H41V34.1034M2.37931 34.1034H1M2.37931 34.1034V35.4828M1 34.1034V35.4828M10.6552 34.1034H9.27586M10.6552 34.1034V35.4828M9.27586 34.1034V35.4828M14.7931 34.1034H13.4138M14.7931 34.1034V35.4828M14.7931 34.1034H16.1724M13.4138 34.1034V35.4828M24.4483 34.1034H23.069M24.4483 34.1034H25.8276V35.4828H24.4483V34.1034ZM23.069 34.1034H21.6897M23.069 34.1034V35.4828M29.9655 34.1034H28.5862M29.9655 34.1034V35.4828M29.9655 34.1034H31.3448M28.5862 34.1034V35.4828M35.4828 34.1034H34.1034M35.4828 34.1034V35.4828M35.4828 34.1034H36.8621M34.1034 34.1034H32.7241M34.1034 34.1034V35.4828M39.6207 34.1034H38.2414M39.6207 34.1034H41M39.6207 34.1034V35.4828M38.2414 34.1034H36.8621M38.2414 34.1034V35.4828M41 34.1034V35.4828H39.6207M2.37931 35.4828H1M2.37931 35.4828V36.8621M1 35.4828V36.8621M5.13793 34.1034H3.75862V35.4828M5.13793 34.1034V35.4828M5.13793 34.1034H6.51724M5.13793 35.4828H3.75862M5.13793 35.4828H6.51724M5.13793 35.4828V36.8621M3.75862 35.4828V36.8621M6.51724 34.1034V35.4828M6.51724 34.1034H7.89655V35.4828M6.51724 35.4828H7.89655M6.51724 35.4828V36.8621M7.89655 35.4828V36.8621M10.6552 35.4828H9.27586M10.6552 35.4828V36.8621M9.27586 35.4828V36.8621M14.7931 35.4828H13.4138M14.7931 35.4828H16.1724M13.4138 35.4828H12.0345V36.8621M13.4138 35.4828V36.8621M16.1724 34.1034V35.4828M16.1724 34.1034H17.5517V35.4828H16.1724M21.6897 34.1034H20.3103V35.4828M21.6897 34.1034V35.4828M21.6897 35.4828H20.3103M21.6897 35.4828H23.069M21.6897 35.4828V36.8621H23.069M20.3103 35.4828H18.931V36.8621M20.3103 35.4828V36.8621H18.931M23.069 35.4828V36.8621M29.9655 35.4828H28.5862M29.9655 35.4828H31.3448M28.5862 35.4828H27.2069V36.8621M28.5862 35.4828V36.8621M31.3448 34.1034V35.4828M31.3448 34.1034H32.7241M31.3448 35.4828H32.7241M32.7241 34.1034V35.4828M32.7241 35.4828H34.1034M34.1034 35.4828H35.4828M34.1034 35.4828V36.8621M35.4828 35.4828H36.8621M35.4828 35.4828V36.8621M36.8621 34.1034V35.4828M36.8621 35.4828H38.2414M36.8621 35.4828V36.8621M38.2414 35.4828H39.6207M38.2414 35.4828V36.8621M39.6207 35.4828V36.8621M2.37931 36.8621H1M2.37931 36.8621V38.2414M1 36.8621V38.2414M5.13793 36.8621H3.75862M5.13793 36.8621H6.51724M5.13793 36.8621V38.2414M3.75862 36.8621V38.2414H5.13793M6.51724 36.8621H7.89655M6.51724 36.8621V38.2414M7.89655 36.8621V38.2414H6.51724M10.6552 36.8621H9.27586M10.6552 36.8621V38.2414M9.27586 36.8621V38.2414M13.4138 36.8621H12.0345M13.4138 36.8621V38.2414H12.0345V36.8621M18.931 36.8621H17.5517M18.931 36.8621V38.2414M23.069 36.8621H24.4483M23.069 36.8621V38.2414M28.5862 36.8621H27.2069M28.5862 36.8621H29.9655V38.2414H28.5862V36.8621ZM27.2069 36.8621H25.8276M27.2069 36.8621V38.2414M35.4828 36.8621H34.1034M35.4828 36.8621H36.8621M34.1034 36.8621H32.7241V38.2414M34.1034 36.8621V38.2414M36.8621 36.8621H38.2414M36.8621 36.8621V38.2414M39.6207 36.8621H38.2414M39.6207 36.8621H41V38.2414H39.6207M39.6207 36.8621V38.2414M38.2414 36.8621V38.2414M2.37931 38.2414H1M2.37931 38.2414V39.6207M1 38.2414V39.6207M5.13793 38.2414H6.51724M10.6552 38.2414H9.27586M10.6552 38.2414V39.6207M9.27586 38.2414V39.6207M17.5517 36.8621H16.1724V38.2414M17.5517 36.8621V38.2414M17.5517 38.2414H16.1724M17.5517 38.2414H18.931M17.5517 38.2414V39.6207M16.1724 38.2414V39.6207H17.5517M18.931 38.2414V39.6207M18.931 38.2414H20.3103V39.6207H18.931M24.4483 36.8621V38.2414M24.4483 36.8621H25.8276M24.4483 38.2414H23.069M24.4483 38.2414H25.8276M24.4483 38.2414V39.6207M23.069 38.2414H21.6897V39.6207H23.069V38.2414ZM25.8276 36.8621V38.2414M25.8276 38.2414H27.2069M25.8276 38.2414V39.6207M27.2069 38.2414V39.6207M34.1034 38.2414H32.7241M34.1034 38.2414H35.4828M34.1034 38.2414V39.6207M32.7241 38.2414H31.3448V39.6207M32.7241 38.2414V39.6207M38.2414 38.2414H36.8621M38.2414 38.2414H39.6207M38.2414 38.2414V39.6207M36.8621 38.2414H35.4828M36.8621 38.2414V39.6207H35.4828M39.6207 38.2414V39.6207M2.37931 39.6207H1M2.37931 39.6207V41M2.37931 39.6207H3.75862M1 39.6207V41H2.37931M10.6552 39.6207H9.27586M10.6552 39.6207V41H9.27586M9.27586 39.6207H7.89655M9.27586 39.6207V41M17.5517 39.6207H18.931M17.5517 39.6207V41H18.931V39.6207M25.8276 39.6207H24.4483M25.8276 39.6207H27.2069M25.8276 39.6207V41H24.4483V39.6207M27.2069 39.6207H28.5862V41H27.2069V39.6207ZM32.7241 39.6207H31.3448M32.7241 39.6207V41M32.7241 39.6207H34.1034M31.3448 39.6207V41H32.7241M35.4828 38.2414V39.6207M35.4828 39.6207H34.1034M34.1034 39.6207V41H32.7241M39.6207 39.6207H38.2414M39.6207 39.6207V41H38.2414V39.6207M2.37931 41H3.75862M3.75862 39.6207V41M3.75862 39.6207H5.13793M3.75862 41H5.13793M5.13793 39.6207V41M5.13793 39.6207H6.51724M5.13793 41H6.51724M6.51724 39.6207V41M6.51724 39.6207H7.89655M6.51724 41H7.89655M7.89655 39.6207V41M7.89655 41H9.27586M31.3448 31.3448H32.7241V32.7241H31.3448V31.3448ZM13.4138 39.6207H14.7931V41H13.4138V39.6207Z" stroke="#FFFFF5" stroke-width="0.5"/>
</svg>
