<svg width="20.000000" height="12.265625" viewBox="0 0 20 12.2656" fill="none" xmlns="http://www.w3.org/2000/svg" xmlns:xlink="http://www.w3.org/1999/xlink">
	<desc>
			Created with Pixso.
	</desc>
	<defs/>
	<path id="svg" d="M19.2188 10.7031L18.48 10.7031C18.1118 6.63074 14.8694 3.3739 10.7812 3.00446L10.7812 1.5625L11.4844 1.5625C11.9159 1.5625 12.2656 1.21277 12.2656 0.78125C12.2656 0.349731 11.9159 0 11.4844 0L8.51562 0C8.08411 0 7.73438 0.349731 7.73438 0.78125C7.73438 1.21277 8.08411 1.5625 8.51562 1.5625L9.21875 1.5625L9.21875 3.00446C5.14636 3.3725 1.88953 6.61499 1.52002 10.7031L0.78125 10.7031C0.349731 10.7031 0 11.0529 0 11.4844C0 11.9159 0.349731 12.2656 0.78125 12.2656L19.2188 12.2656C19.6503 12.2656 20 11.9159 20 11.4844C20 11.0529 19.6503 10.7031 19.2188 10.7031ZM3.09058 10.7031C3.47974 7.23541 6.42993 4.53125 10 4.53125C13.5701 4.53125 16.5203 7.23541 16.9094 10.7031L3.09058 10.7031Z" fill="#3E3E3E" fill-opacity="1.000000" fill-rule="nonzero"/>
</svg>
