<svg width="32" height="32" viewBox="0 0 32 32" fill="none" xmlns="http://www.w3.org/2000/svg">
<path d="M29.3862 7.19117L24.8085 2.61339C24.5454 2.34832 24.2324 2.138 23.8876 1.99459C23.5428 1.85117 23.173 1.7775 22.7996 1.77783H6.51512C5.25858 1.77783 4.05351 2.27699 3.16501 3.1655C2.2765 4.054 1.77734 5.25907 1.77734 6.51561V25.4845C1.77969 26.7403 2.27961 27.944 3.1676 28.832C4.0556 29.72 5.25931 30.2199 6.51512 30.2223H25.484C26.7398 30.2199 27.9435 29.72 28.8315 28.832C29.7195 27.944 30.2194 26.7403 30.2218 25.4845V9.20006C30.2186 8.44655 29.9183 7.72471 29.3862 7.19117ZM23.5818 4.07117L27.9285 8.41783H24.5329C24.2806 8.41783 24.0387 8.31763 23.8604 8.13926C23.682 7.96089 23.5818 7.71897 23.5818 7.46672V4.07117ZM27.4929 27.4934C27.2298 27.7585 26.9169 27.9688 26.5721 28.1122C26.2273 28.2556 25.8575 28.3293 25.484 28.3289H6.51512C5.76073 28.3289 5.03723 28.0293 4.5038 27.4958C3.97036 26.9624 3.67068 26.2389 3.67068 25.4845V6.51561C3.67068 5.76122 3.97036 5.03772 4.5038 4.50428C5.03723 3.97085 5.76073 3.67117 6.51512 3.67117H21.6885V7.46672C21.6885 8.22112 21.9881 8.94461 22.5216 9.47805C23.055 10.0115 23.7785 10.3112 24.5329 10.3112H28.3285V25.4845C28.3288 25.8579 28.2551 26.2278 28.1117 26.5726C27.9683 26.9174 27.758 27.2303 27.4929 27.4934Z" fill="#61B291"/>
<path d="M9.35938 18.8444H22.6305V20.7377H9.35938V18.8444Z" fill="#61B291"/>
<path d="M9.35938 15.0488H15.9994V16.9422H9.35938V15.0488Z" fill="#61B291"/>
</svg>
