<svg width="18" height="17" viewBox="0 0 18 17" fill="none" xmlns="http://www.w3.org/2000/svg">
<path fill-rule="evenodd" clip-rule="evenodd" d="M16.1336 0.266495C16.4491 0.122417 16.8208 0.188798 17.0669 0.43316C17.3113 0.679276 17.3777 1.05101 17.2336 1.3665L10.5669 16.3165C10.4327 16.6151 10.136 16.8075 9.80862 16.8082H9.73362C9.37893 16.7755 9.08424 16.521 9.00027 16.1748L7.47527 9.9915L1.32527 8.49984C0.981879 8.4134 0.730608 8.1194 0.698717 7.76675C0.666829 7.41409 0.861289 7.07978 1.1836 6.93315L16.1336 0.266495ZM9.00027 9.13315L10.0086 13.4082L14.8336 2.6665L4.09193 7.4915L8.39193 8.52484C8.6918 8.59915 8.92593 8.83331 9.00027 9.13315Z" fill="#61B291"/>
</svg>
