<svg width="16" height="16" viewBox="0 0 16 16" fill="none" xmlns="http://www.w3.org/2000/svg">
<path d="M14.2812 1.90625H1.71875C1.26306 1.90675 0.826179 2.08799 0.503958 2.41021C0.181738 2.73243 0.000496303 3.16931 0 3.625V12.375C0.000496303 12.8307 0.181738 13.2676 0.503958 13.5898C0.826179 13.912 1.26306 14.0933 1.71875 14.0938H14.2812C14.7369 14.0933 15.1738 13.912 15.496 13.5898C15.8183 13.2676 15.9995 12.8307 16 12.375V3.625C15.9995 3.16931 15.8183 2.73243 15.496 2.41021C15.1738 2.08799 14.7369 1.90675 14.2812 1.90625ZM15.0625 3.625V12.375C15.0625 12.413 15.0597 12.4509 15.0541 12.4884L10.5472 8L15.0541 3.51156C15.0597 3.54911 15.0625 3.58703 15.0625 3.625ZM14.2812 2.84375C14.3172 2.84387 14.3531 2.84637 14.3888 2.85125L8 9.21344L1.61125 2.85125C1.64688 2.84637 1.68279 2.84387 1.71875 2.84375H14.2812ZM0.945938 12.4884C0.940286 12.4509 0.937465 12.413 0.9375 12.375V3.625C0.937465 3.58703 0.940286 3.54911 0.945938 3.51156L5.45281 8L0.945938 12.4884ZM1.71875 13.1562C1.68279 13.1561 1.64688 13.1536 1.61125 13.1488L6.11719 8.66156L7.66937 10.2072C7.75721 10.2946 7.87609 10.3437 8 10.3437C8.12391 10.3437 8.24279 10.2946 8.33062 10.2072L9.88281 8.66156L14.3888 13.1488C14.3531 13.1536 14.3172 13.1561 14.2812 13.1562H1.71875Z" fill="#3E3E3E"/>
</svg>
