<svg width="24" height="24" viewBox="0 0 24 24" fill="none" xmlns="http://www.w3.org/2000/svg">
<g clip-path="url(#clip0_120_11717)">
<path d="M13.5 24H10.5C9.8 24 9 23.4 9 22.2V20.1C9 19.1 8.5 18.2 7.7 17.5C5.9 16.1 5 14.1 5 11.9C5.1 8.1 8.2 5.1 11.9 5C13.8 5 15.6 5.7 16.9 7C18.2 8.3 19 10.1 19 12C19 14.1 18.1 16.1 16.4 17.4C15.5 18.1 15 19.2 15 20.2V22.5C15 23.3 14.3 24 13.5 24ZM12 6C8.8 6 6.1 8.7 6 11.9C6 13.8 6.8 15.6 8.3 16.7C9.4 17.6 10 18.8 10 20.1V22.2C10 22.4 10 23 10.5 23H13.5C13.8 23 14 22.8 14 22.5V20.2C14 18.9 14.7 17.5 15.8 16.6C17.2 15.5 18 13.8 18 12C18 10.4 17.4 8.9 16.2 7.7C15.1 6.6 13.6 6 12 6Z" fill="#61B291"/>
<path d="M14.5 21H9.5C9.2 21 9 20.8 9 20.5C9 20.2 9.2 20 9.5 20H14.5C14.8 20 15 20.2 15 20.5C15 20.8 14.8 21 14.5 21Z" fill="#61B291"/>
<path d="M12 3C11.7 3 11.5 2.8 11.5 2.5V0.5C11.5 0.2 11.7 0 12 0C12.3 0 12.5 0.2 12.5 0.5V2.5C12.5 2.8 12.3 3 12 3Z" fill="#61B291"/>
<path d="M18.7004 5.79995C18.6004 5.79995 18.4004 5.79995 18.3004 5.69995C18.1004 5.49995 18.1004 5.19995 18.3004 4.99995L19.7004 3.59995C19.9004 3.39995 20.2004 3.39995 20.4004 3.59995C20.6004 3.79995 20.6004 4.09995 20.4004 4.29995L19.0004 5.69995C19.0004 5.69995 18.8004 5.79995 18.7004 5.79995Z" fill="#61B291"/>
<path d="M23.5 12.5H21.5C21.2 12.5 21 12.3 21 12C21 11.7 21.2 11.5 21.5 11.5H23.5C23.8 11.5 24 11.7 24 12C24 12.3 23.8 12.5 23.5 12.5Z" fill="#61B291"/>
<path d="M20.1004 20.6C20.0004 20.6 19.8004 20.6 19.7004 20.5L18.3004 19.1C18.1004 18.9 18.1004 18.6 18.3004 18.4C18.5004 18.2 18.8004 18.2 19.0004 18.4L20.4004 19.8C20.6004 20 20.6004 20.3 20.4004 20.5C20.4004 20.6 20.3004 20.6 20.1004 20.6Z" fill="#61B291"/>
<path d="M3.89961 20.6C3.79961 20.6 3.59961 20.6 3.49961 20.5C3.29961 20.3 3.29961 20 3.49961 19.8L4.89961 18.4C5.09961 18.2 5.39961 18.2 5.59961 18.4C5.79961 18.6 5.79961 18.9 5.59961 19.1L4.19961 20.5C4.09961 20.6 3.99961 20.6 3.89961 20.6Z" fill="#61B291"/>
<path d="M2.5 12.5H0.5C0.2 12.5 0 12.3 0 12C0 11.7 0.2 11.5 0.5 11.5H2.5C2.8 11.5 3 11.7 3 12C3 12.3 2.8 12.5 2.5 12.5Z" fill="#61B291"/>
<path d="M5.29961 5.79998C5.19961 5.79998 4.99961 5.79998 4.89961 5.69998L3.49961 4.19998C3.29961 3.99998 3.29961 3.69998 3.49961 3.49998C3.69961 3.29998 3.99961 3.29998 4.19961 3.49998L5.59961 4.89998C5.79961 5.09998 5.79961 5.39998 5.59961 5.59998C5.49961 5.69998 5.39961 5.79998 5.29961 5.79998Z" fill="#61B291"/>
<path d="M16 12.5C15.7 12.5 15.5 12.3 15.5 12C15.5 10.1 13.9 8.5 12 8.5C11.7 8.5 11.5 8.3 11.5 8C11.5 7.7 11.7 7.5 12 7.5C14.5 7.5 16.5 9.5 16.5 12C16.5 12.3 16.3 12.5 16 12.5Z" fill="#61B291"/>
</g>
<defs>
<clipPath id="clip0_120_11717">
<rect width="24" height="24" fill="white"/>
</clipPath>
</defs>
</svg>
