<svg width="26.476196" height="25.723389" viewBox="0 0 26.4762 25.7234" fill="none" xmlns="http://www.w3.org/2000/svg" xmlns:xlink="http://www.w3.org/1999/xlink">
	<desc>
			Created with Pixso.
	</desc>
	<defs/>
	<path id="svg" d="M25.5618 20.6367C24.9163 17.3262 24.8335 13.8889 24.8445 10.9648C24.8501 9.04492 24.9053 7.17456 25.5508 5.48071C25.6335 5.26001 25.7273 5.03931 25.821 4.81323C26.2679 3.75391 26.726 2.65601 26.3176 1.54688C25.9977 0.680664 25.1315 0.0461426 24.2101 0.00219727C23.3494 -0.036377 22.4886 0.45459 22.0583 1.19946C21.5011 0.962158 20.8997 0.906982 20.3976 1.06689C19.8293 1.24902 19.4321 1.61328 19.2721 2.07104C19.2611 2.06567 19.2445 2.06006 19.2335 2.05444C18.7039 1.89453 17.9149 1.76758 17.1425 2.08203C16.4969 2.34155 16.0115 2.89868 15.8569 3.51099C15.4542 3.47241 15.0514 3.5 14.6763 3.61035C14.0308 3.7981 13.3411 4.37183 12.8887 5.20483C12.8887 5.06689 12.8887 4.92358 12.8942 4.78564C12.9218 3.63257 12.9438 2.44629 12.1604 1.56348C11.5425 0.873779 10.5052 0.603516 9.63354 0.901367C8.8114 1.18286 8.19348 1.94971 8.06665 2.80493C7.45972 2.78833 6.88586 2.95386 6.47217 3.2959C6.01416 3.67651 5.77698 4.15649 5.79346 4.64771C5.78247 4.64771 5.76587 4.64771 5.75488 4.64771C5.20312 4.69189 4.41968 4.86841 3.81836 5.44214C3.31079 5.92212 3.0625 6.61719 3.14526 7.24072C2.75354 7.35107 2.3949 7.52759 2.08594 7.77051C1.18103 8.47656 0.811401 9.75098 1.21973 10.7275C1.22522 10.7332 1.23071 10.7388 1.23621 10.7441C1.22522 10.7551 1.20862 10.7607 1.19763 10.7717C0.77832 11.1028 0.243164 11.6655 0.0666504 12.4436C-0.0933838 13.1663 0.0390625 13.8174 0.419678 14.2422C0.320435 14.4353 0.232056 14.6284 0.17688 14.8379C-0.170654 16.0959 0.303833 17.5359 1.34106 18.3359C1.34656 18.3416 1.35205 18.3359 1.35767 18.3416C1.31897 18.4849 1.2804 18.6284 1.24731 18.7773C1.14795 19.2407 1.08179 19.7317 1.24182 20.2063C1.39624 20.6643 1.76038 21.0669 2.26794 21.3428C2.63757 21.5415 2.95215 21.6353 3.31079 21.729L3.31079 21.7566C3.45422 22.6614 3.95068 23.4062 4.63489 23.7429C4.97693 23.9138 5.34106 23.9746 5.67761 23.9746C5.95898 23.9746 6.21277 23.9304 6.43347 23.8809C6.47766 24.0188 6.53284 24.1565 6.60999 24.2891C6.96863 24.9014 7.69141 25.3098 8.54102 25.376C8.6073 25.3813 8.67896 25.3813 8.75073 25.3813C9.37964 25.3813 10.1687 25.1938 10.7811 25.0393C10.9025 25.1772 11.0349 25.3098 11.1948 25.4146C11.4983 25.6187 11.8735 25.7234 12.2708 25.7234C12.3756 25.7234 12.486 25.718 12.5962 25.7014C12.9935 25.6462 13.3962 25.4917 13.8322 25.2324C14.2791 25.4036 14.7314 25.4917 15.1672 25.4917C15.4376 25.4917 15.7025 25.4587 15.9563 25.3926C16.8169 25.1606 17.3796 24.7581 17.6445 24.1841C17.7163 24.2173 17.7935 24.2449 17.8707 24.2725C18.0363 24.322 18.2073 24.3442 18.3728 24.3442C18.6597 24.3442 18.9355 24.2668 19.1617 24.1289C19.7411 24.6697 20.4252 25.0227 21.1204 25.1055C21.2804 25.1221 21.4348 25.1331 21.5839 25.1331C22.2458 25.1331 22.7535 24.9456 23.1287 24.5925C23.1893 24.6477 23.2445 24.7083 23.3108 24.7581C23.6198 24.9951 23.9728 25.1221 24.3148 25.1221C24.4803 25.1221 24.6404 25.0945 24.7893 25.0339C25.2252 24.8572 25.5563 24.438 25.7273 23.842C26.0087 22.8545 25.8101 21.845 25.6169 20.8738L25.5618 20.6367ZM20.5742 1.64624C20.9879 1.51392 21.49 1.57446 21.959 1.81738C22.3507 2.01587 22.7148 2.32495 23.1453 2.8103C23.1672 2.83252 23.1948 2.84912 23.2169 2.86548C22.4666 2.83789 21.7604 2.8877 21.0928 3.00342C21.0707 2.97583 21.0431 2.94824 21.0155 2.93188C20.6238 2.69458 20.2321 2.47388 19.8239 2.29175C19.9673 1.87793 20.4252 1.6958 20.5742 1.64624ZM17.3632 2.65039C17.8376 2.45728 18.4335 2.45728 19.0514 2.6394C19.4652 2.76636 19.8624 2.95947 20.2596 3.18555C19.3328 3.43945 18.4941 3.82007 17.7494 4.30566C17.7328 4.2063 16.8942 3.75928 16.4639 3.63794C16.5686 3.21875 16.9053 2.83789 17.3632 2.65039ZM14.8418 4.20068C15.5865 3.97998 16.486 4.16211 17.2252 4.66431C15.537 5.92773 14.3673 7.68213 13.6942 9.41455C13.4017 8.58154 13.1591 7.74829 13.0155 6.9043C13.1094 5.51929 14.0142 4.4436 14.8418 4.20068ZM6.85278 3.77051C7.18933 3.49463 7.68042 3.36768 8.20447 3.41724C8.64038 3.46143 9.09277 3.61035 9.67212 3.90845C9.69971 3.91943 9.7218 3.9248 9.74939 3.93042C9.06519 4.1731 8.42517 4.47656 7.84033 4.84082C7.80725 4.82422 7.77417 4.80762 7.7356 4.80225C7.2832 4.73047 6.8363 4.66431 6.3949 4.64771C6.36731 4.2063 6.72595 3.87524 6.85278 3.77051ZM4.23206 5.88354C4.60181 5.53052 5.15906 5.30981 5.79895 5.25464C6.22937 5.22144 6.67078 5.25464 7.12317 5.3208C6.38379 5.87793 5.73279 6.53442 5.19214 7.2793C5.12585 7.13037 4.19897 7.08618 3.75208 7.13037C3.70251 6.70557 3.87354 6.22559 4.23206 5.88354ZM4.89966 23.2021C4.39209 22.9482 4.02246 22.3745 3.90662 21.6628C3.79626 20.9841 3.91211 20.2725 4.02246 19.5828C4.05005 19.4172 3.9342 19.2627 3.76868 19.2354C3.60315 19.2078 3.44861 19.3235 3.42102 19.489C3.34387 19.9912 3.25562 20.5374 3.26111 21.0891C3.01282 21.0173 2.79211 20.9399 2.54932 20.8076C2.17419 20.6035 1.91492 20.322 1.81006 20.0132C1.69971 19.6765 1.75488 19.2849 1.83765 18.9097C2.01965 18.071 2.30103 17.26 2.68176 16.4932C2.75354 16.3442 2.69275 16.1621 2.54382 16.085C2.3949 16.0076 2.21277 16.0737 2.1355 16.2229C1.89832 16.7029 1.69971 17.1995 1.53418 17.707C0.811401 17.0339 0.485962 15.9636 0.750732 15.009C1.0376 13.9829 1.97559 13.1772 3.03491 13.0559C3.20044 13.0339 3.32178 12.8848 3.29968 12.7195C3.27759 12.554 3.12317 12.4324 2.96313 12.4546C2.09692 12.554 1.30798 13.0283 0.767334 13.7014C0.574219 13.376 0.568604 12.9399 0.651367 12.5815C0.789307 11.9746 1.22522 11.5276 1.56726 11.2517C2.03076 10.8877 2.5824 10.6284 3.11206 10.3745C3.2666 10.3027 3.32727 10.1208 3.25562 9.97168C3.18384 9.81738 3.00171 9.75659 2.85278 9.82837C2.48315 10.0049 2.10803 10.187 1.74377 10.4021C1.49561 9.67944 1.78796 8.77466 2.45007 8.25586C3.0625 7.78149 3.96729 7.61597 4.8335 7.81445C4.17688 8.86279 3.7135 10.0544 3.4707 11.3677C2.83069 14.8821 3.87903 18.5896 6.10803 21.0173C6.05286 21.0227 5.99207 21.0339 5.9425 21.0725C5.81006 21.1719 5.78247 21.365 5.88733 21.4973C6.1521 21.8394 6.19067 22.314 6.24036 22.8159C6.25696 22.9758 6.27344 23.136 6.29553 23.2959C5.91492 23.3843 5.37415 23.4395 4.89966 23.2021ZM8.58521 24.769C7.9342 24.7195 7.38794 24.4214 7.13416 23.98C6.93555 23.6379 6.89697 23.2078 6.85278 22.7551C6.81421 22.3303 6.77002 21.8945 6.599 21.4973C6.76453 21.6519 6.93005 21.7952 7.10107 21.9387C7.9231 22.6008 8.8335 23.0808 9.81006 23.3843C9.74377 23.4834 9.7439 23.6213 9.81555 23.7263L10.3783 24.5151C9.78796 24.6531 9.07068 24.8076 8.58521 24.769ZM18.0308 23.6821C17.6997 23.5828 17.4072 23.3787 17.0707 23.0918C16.9438 22.9814 16.7507 23.0034 16.6404 23.1304C16.53 23.2573 16.5466 23.4504 16.679 23.5608C16.8114 23.6711 16.9493 23.7759 17.0928 23.8752C16.9163 24.3057 16.4969 24.6145 15.7908 24.8022C15.1672 24.9675 14.4335 24.8738 13.7273 24.5374C13.5784 24.4656 13.3962 24.5264 13.319 24.6807C13.297 24.7305 13.2914 24.78 13.2914 24.8296C13.01 24.9731 12.7452 25.0669 12.4969 25.1001C12.1328 25.1497 11.7797 25.0835 11.5204 24.9124C11.2887 24.7581 11.1066 24.4988 10.9301 24.2559L10.4335 23.5552C11.079 23.7041 11.7521 23.7869 12.4473 23.7869C13.9149 23.7869 15.4762 23.4504 17.0763 22.7827C17.2307 22.7166 17.3025 22.54 17.2418 22.3855C17.1755 22.2312 16.999 22.1594 16.8445 22.22C13.2749 23.7207 9.948 23.4504 7.48181 21.4641C4.75073 19.2683 3.38245 15.2573 4.07764 11.4724C4.70105 8.05737 6.93005 5.48633 10.1852 4.42139C10.3452 4.37183 10.4335 4.19531 10.3783 4.03516C10.3286 3.88623 10.1797 3.80908 10.0308 3.83667C10.0472 3.81445 10.0693 3.7981 10.0804 3.77588C10.1576 3.62695 10.0969 3.44482 9.948 3.36768C9.4624 3.11938 9.0542 2.96484 8.66248 2.88208C8.76172 2.25317 9.21973 1.69043 9.82104 1.48633C10.4722 1.26562 11.239 1.46411 11.6969 1.97729C12.3204 2.67798 12.2983 3.74829 12.2762 4.78003C12.2708 5.02832 12.2653 5.27661 12.2708 5.51929C12.2928 7.21313 13.2307 9.98828 13.6666 11.0974C14.7535 13.845 16.0942 17.0503 17.9369 19.936L18.0638 20.1345C18.5604 20.9124 19.079 21.7124 19.1617 22.5896C19.1838 22.7883 19.1948 23.2739 18.9135 23.5386C18.7203 23.7263 18.3728 23.7815 18.0308 23.6821ZM25.1315 23.6711C25.0763 23.8586 24.9108 24.3167 24.5521 24.4656C24.2983 24.5703 23.9507 24.4932 23.6693 24.2781C23.399 24.0684 23.2004 23.7649 22.9907 23.3787C22.908 23.2297 22.726 23.1746 22.5769 23.2573C22.428 23.3401 22.3728 23.5222 22.4556 23.6711C22.5383 23.8201 22.6266 23.969 22.726 24.1179C22.4059 24.449 21.9038 24.5869 21.181 24.5042C20.6128 24.438 20.0555 24.1455 19.5701 23.6931C19.7466 23.3843 19.8239 22.9871 19.7797 22.5344C19.6804 21.5139 19.1232 20.6477 18.588 19.8091L18.4611 19.6104C16.6459 16.769 15.3108 13.6021 14.2404 10.8767C14.1687 10.689 14.0969 10.5015 14.0253 10.314C15.0845 6.93726 18.1963 3.16357 23.4431 3.47803C23.6141 3.48901 23.7576 3.36206 23.7632 3.19116C23.7742 3.03662 23.6638 2.9043 23.5149 2.87671C23.537 2.86548 23.5646 2.85449 23.5811 2.83789C23.708 2.72754 23.719 2.53442 23.6086 2.40771C23.25 1.99927 22.9246 1.70703 22.5935 1.48071C22.9191 0.93457 23.5535 0.575928 24.1825 0.609131C24.8666 0.64209 25.5121 1.11108 25.7494 1.75659C26.0748 2.6394 25.6611 3.62695 25.2583 4.57593C25.1591 4.80762 25.0652 5.03394 24.9769 5.26001C24.2983 7.05322 24.2377 8.97876 24.2321 10.9595C24.2266 13.9111 24.3038 17.387 24.9659 20.7524L25.01 20.9841C25.1866 21.8889 25.3741 22.8269 25.1315 23.6711Z" fill="#3E3E3E" fill-opacity="1.000000" fill-rule="nonzero"/>
	<path id="svg" d="M21.2106 5.36499C21.3871 5.38696 21.5305 5.26562 21.5526 5.1001C21.5747 4.93457 21.4532 4.78003 21.2877 4.76367C19.9084 4.59253 18.474 5.21606 17.6243 6.34155C17.1719 6.9375 16.9071 7.63257 16.6478 8.30005L16.0519 9.83936C15.9912 9.9939 16.0685 10.1704 16.2285 10.2312C16.2616 10.2478 16.3002 10.2532 16.3387 10.2532C16.4602 10.2532 16.576 10.1814 16.6257 10.0601L17.2216 8.52075C17.4644 7.89185 17.7181 7.24072 18.1154 6.71118C18.8326 5.75122 20.0519 5.22705 21.2106 5.36499Z" fill="#3E3E3E" fill-opacity="1.000000" fill-rule="nonzero"/>
	<path id="svg" d="M23.4272 21.2048C22.3679 21.2876 21.27 21.0503 20.343 20.5374C20.1996 20.46 20.0121 20.5098 19.9293 20.6587C19.8466 20.8076 19.9017 20.9897 20.0507 21.0725C20.95 21.5635 21.9872 21.8284 23.0189 21.8284C23.1678 21.8284 23.3224 21.8228 23.4713 21.8118C23.6368 21.8008 23.7638 21.6519 23.7527 21.4863C23.7417 21.3152 23.5928 21.1938 23.4272 21.2048Z" fill="#3E3E3E" fill-opacity="1.000000" fill-rule="nonzero"/>
	<path id="svg" d="M22.4086 16.189C22.6678 16.8621 22.4528 17.6897 21.9065 18.1531C21.7795 18.2634 21.7631 18.4565 21.8734 18.5835C21.9341 18.6553 22.0168 18.6882 22.1051 18.6882C22.1769 18.6882 22.243 18.6663 22.3037 18.6165C23.0431 17.9875 23.3245 16.873 22.9768 15.9683C22.8885 15.731 22.7617 15.5159 22.6403 15.3062C22.4362 14.9475 22.2375 14.6111 22.2761 14.269C22.3037 13.9932 22.4803 13.7339 22.6678 13.458C22.7561 13.3311 22.8445 13.2041 22.9216 13.0718C23.512 12.0454 23.4072 10.8042 23.2582 9.71729L23.2417 9.6123C23.1038 8.6084 22.9658 7.56543 23.3354 6.68286C23.4016 6.52832 23.3245 6.35181 23.1699 6.28564C23.0155 6.21924 22.8389 6.29663 22.7727 6.45093C22.3424 7.48828 22.4913 8.61377 22.6403 9.70068L22.6569 9.80542C22.7893 10.7876 22.8885 11.9131 22.392 12.7737C22.3258 12.8896 22.243 13.0056 22.1658 13.1213C21.9507 13.4304 21.7134 13.7834 21.6693 14.2139C21.6141 14.749 21.8679 15.1904 22.1106 15.6152C22.2264 15.8137 22.3368 16.0015 22.4086 16.189Z" fill="#3E3E3E" fill-opacity="1.000000" fill-rule="nonzero"/>
	<path id="svg" d="M5.64697 13.0513C5.64697 13.2168 5.78491 13.3547 5.95044 13.3547C6.11584 13.3547 6.25378 13.2168 6.25378 13.0459L6.2428 11.3962C6.2373 10.7231 6.23181 10.0278 6.40833 9.38232C6.72827 8.22925 7.66626 7.29126 8.80286 6.99902C8.96826 6.95483 9.06213 6.78931 9.02344 6.62915C8.97937 6.46924 8.81934 6.3645 8.65381 6.40869C7.31311 6.7561 6.20422 7.85962 5.82349 9.22241C5.62488 9.94507 5.63037 10.6843 5.63037 11.4016L5.64697 13.0513Z" fill="#3E3E3E" fill-opacity="1.000000" fill-rule="nonzero"/>
	<path id="svg" d="M11.7579 20.9683C10.7428 21.3435 9.47375 20.8247 8.98828 19.8372C8.89453 19.6497 8.82275 19.4456 8.7511 19.2249C8.59106 18.7668 8.43103 18.2869 8.0448 17.9392C7.73584 17.658 7.36072 17.531 7.00208 17.4097C6.7373 17.3213 6.48901 17.2332 6.28479 17.0952C6.02002 16.9131 5.8269 16.604 5.76074 16.24C5.69446 15.8704 5.76074 15.5061 5.94824 15.2358C6.04211 15.0979 6.00903 14.9104 5.87109 14.811C5.73315 14.7173 5.54553 14.7502 5.44617 14.8882C5.16479 15.291 5.06555 15.8262 5.1593 16.3503C5.25317 16.8689 5.54004 17.3213 5.93726 17.5972C6.21313 17.7847 6.51111 17.884 6.80347 17.9834C7.11792 18.0881 7.41589 18.1931 7.6311 18.3862C7.90137 18.6345 8.03381 19.0151 8.17175 19.418C8.24902 19.644 8.33179 19.8757 8.43652 20.1021C8.92212 21.0896 9.97583 21.7019 11.0406 21.7019C11.3497 21.7019 11.6642 21.6467 11.962 21.5364C12.1221 21.4758 12.1993 21.3047 12.1442 21.1448C12.0945 20.9902 11.918 20.9131 11.7579 20.9683Z" fill="#3E3E3E" fill-opacity="1.000000" fill-rule="nonzero"/>
	<path id="svg" d="M16.6805 20.9194C15.7261 21.3828 14.6171 21.5649 13.5687 21.4324C13.4143 21.4104 13.2488 21.5317 13.2267 21.6973C13.2046 21.8628 13.326 22.0173 13.4916 22.0393C13.7399 22.0725 13.9937 22.0891 14.2474 22.0891C15.1743 22.0891 16.1122 21.8794 16.9453 21.4712C17.0944 21.3994 17.1605 21.2173 17.0887 21.0627C17.0116 20.9084 16.835 20.8477 16.6805 20.9194Z" fill="#3E3E3E" fill-opacity="1.000000" fill-rule="nonzero"/>
	<path id="svg" d="M13.8904 16.6316C14.3759 17.1611 14.4862 18.0107 14.1442 18.6453C14.0669 18.7942 14.1221 18.9763 14.2711 19.0591C14.3152 19.0811 14.3649 19.0923 14.4146 19.0923C14.5249 19.0923 14.6296 19.0315 14.6848 18.9321C15.1428 18.0771 14.9938 16.9351 14.3428 16.2231C14.1718 16.0356 13.9786 15.8811 13.7855 15.7322C13.4601 15.4729 13.1566 15.2302 13.0627 14.8992C12.9856 14.6343 13.0573 14.3252 13.129 14.0054C13.1621 13.8564 13.1952 13.7019 13.2173 13.553C13.3938 12.3833 12.8365 11.2632 12.3014 10.3088L12.2517 10.2205C11.7552 9.33765 11.2421 8.42188 11.2587 7.4563C11.2642 7.29077 11.1262 7.14746 10.9607 7.14746C10.8173 7.14185 10.6517 7.27979 10.6517 7.44531C10.6296 8.5708 11.1869 9.55835 11.722 10.5183L11.7717 10.6067C12.2573 11.4729 12.7649 12.4827 12.6158 13.4646C12.5939 13.5969 12.5663 13.7349 12.5331 13.8674C12.4504 14.2314 12.3511 14.6509 12.4724 15.0647C12.6215 15.5833 13.0187 15.8977 13.3993 16.2068C13.5814 16.3447 13.7524 16.4827 13.8904 16.6316Z" fill="#3E3E3E" fill-opacity="1.000000" fill-rule="nonzero"/>
</svg>
