<svg width="32.000000" height="32.000000" viewBox="0 0 32 32" fill="none" xmlns="http://www.w3.org/2000/svg" xmlns:xlink="http://www.w3.org/1999/xlink">
	<desc>
			Created with Pixso.
	</desc>
	<defs>
		<clipPath id="clip2_2714">
			<rect id="Property 1=другое" width="32.000000" height="32.000000" fill="white" fill-opacity="0"/>
		</clipPath>
	</defs>
	<rect id="Property 1=другое" width="32.000000" height="32.000000" fill="#FFFFFF" fill-opacity="0"/>
	<g clip-path="url(#clip2_2714)">
		<path id="Vector" d="M26.6553 6.55688C23.8027 5.71094 20.0167 5.24487 15.9949 5.24487C11.9731 5.24487 8.1875 5.71094 5.33453 6.55688C2.32086 7.45068 0.718567 8.64697 0.69574 10.0173C0.647522 10.4548 0.625 11.2651 0.625 11.6797C0.625 15.2053 2.23206 18.5161 5.15002 21.0024C6.42871 22.0859 7.87341 22.9565 9.42883 23.5811C9.56006 24.989 10.735 26.1702 12.3194 26.4412C13.543 26.6492 14.7819 26.7537 16.0231 26.7537C17.2529 26.7551 18.4805 26.6492 19.6918 26.4368C21.2612 26.1594 22.4256 24.9829 22.5593 23.5862C24.1191 22.9612 25.568 22.0889 26.85 21.0024C29.7681 18.5161 31.375 15.2053 31.375 11.6797C31.375 11.2363 31.3405 10.4365 31.2941 10.0173C31.2712 8.64673 29.6688 7.45093 26.6553 6.55688ZM5.54785 7.27563C8.33319 6.44971 12.0433 5.99438 15.9949 5.99438C19.9465 5.99438 23.6567 6.44946 26.4421 7.27563C29.0114 8.03784 30.5452 9.07373 30.5452 10.0466C30.5452 11.0195 29.0114 12.0554 26.4421 12.8174C23.6567 13.6436 19.9465 14.0986 15.9949 14.0986C12.0434 14.0986 8.33319 13.6436 5.54785 12.8174C2.97858 12.0554 1.4447 11.0195 1.4447 10.0466C1.4447 9.07373 2.97858 8.03809 5.54785 7.27588L5.54785 7.27563ZM19.5616 25.6975C17.2072 26.1028 14.801 26.1042 12.446 25.7017C11.3481 25.5139 10.5009 24.7891 10.246 23.886C13.9734 25.1499 18.0131 25.1514 21.7414 23.8904C21.4858 24.7852 20.6474 25.5061 19.5616 25.6978L19.5616 25.6975ZM16 24.0852C7.93573 24.0852 1.375 18.5203 1.375 11.6797C1.375 11.6355 1.375 11.5864 1.37579 11.5347C2.11536 12.2993 3.44849 12.9773 5.33453 13.5366C8.1875 14.3828 11.9731 14.8489 15.9949 14.8489C20.0167 14.8489 23.8027 14.3828 26.6553 13.5366C28.5494 12.9749 29.886 12.2937 30.6237 11.5249C30.6245 11.5801 30.625 11.6323 30.625 11.6794C30.625 18.5203 24.0643 24.0852 16 24.0852Z" fill="#3E3E3E" fill-opacity="1.000000" fill-rule="nonzero"/>
		<path id="Vector" d="M6.73444 12.5476C9.17255 13.1526 12.4081 13.4856 15.8452 13.4856C19.2821 13.4856 22.5178 13.1526 24.9561 12.5476C28.2796 11.7231 28.9772 10.6777 28.9772 9.94604C28.9772 9.21411 28.2796 8.1687 24.9561 7.34424C22.518 6.73926 19.2824 6.40625 15.8454 6.40625C12.4083 6.40625 9.17279 6.73926 6.73468 7.34424C3.41119 8.1687 2.71356 9.21411 2.71356 9.94604C2.71356 10.6777 3.41095 11.7231 6.73444 12.5476ZM6.91498 8.07202C9.29578 7.48145 12.4672 7.15625 15.8452 7.15625C19.223 7.15625 22.3945 7.4812 24.7753 8.07202C27.3203 8.70337 28.227 9.4541 28.227 9.94604C28.227 10.438 27.3203 11.1885 24.7753 11.8198C22.3945 12.4104 19.2231 12.7356 15.8452 12.7356C12.4672 12.7356 9.29578 12.4106 6.91498 11.8198C4.37006 11.1885 3.46332 10.438 3.46332 9.94604C3.46332 9.4541 4.37006 8.70361 6.91498 8.07202Z" fill="#3E3E3E" fill-opacity="1.000000" fill-rule="nonzero"/>
		<path id="Vector" d="M23.67 8.91919C25.2994 9.20215 25.8263 9.71753 25.8263 9.92285C25.8263 10.0432 25.437 10.4802 23.7076 10.8948C23.6597 10.9062 23.6145 10.9272 23.5746 10.9561C23.5348 10.9851 23.501 11.0215 23.4753 11.0635C23.4233 11.1484 23.4072 11.2502 23.4304 11.3469C23.4418 11.395 23.4626 11.4402 23.4916 11.48C23.5206 11.5198 23.5571 11.5535 23.5991 11.5793C23.6838 11.6313 23.7858 11.6475 23.8826 11.6243C25.6954 11.1897 26.5767 10.6331 26.5767 9.92285C26.5767 9.13379 25.5382 8.48218 23.7986 8.18018C23.7006 8.16309 23.5998 8.18579 23.5185 8.24292C23.4372 8.30029 23.3819 8.38745 23.3649 8.48535C23.3479 8.5835 23.3705 8.68408 23.4277 8.76538C23.485 8.84692 23.5723 8.9021 23.6702 8.91919L23.67 8.91919Z" fill="#3E3E3E" fill-opacity="1.000000" fill-rule="nonzero"/>
		<path id="Vector" d="M5.52606 10.2375C5.62549 10.2375 5.72089 10.1982 5.7912 10.1279C5.86157 10.0574 5.90106 9.96216 5.90106 9.86255C5.90106 9.7063 6.45239 9.15869 8.9021 8.70483C8.95056 8.6958 8.9967 8.67725 9.03802 8.65039C9.07935 8.62378 9.11493 8.58887 9.14282 8.54834C9.17078 8.50781 9.19037 8.46216 9.20062 8.41406C9.21088 8.36572 9.21149 8.31616 9.20251 8.26758C9.19354 8.21924 9.17511 8.1731 9.14832 8.13159C9.12146 8.09033 9.08679 8.05469 9.0462 8.02686C9.00562 7.99902 8.9599 7.97949 8.91174 7.96924C8.86359 7.95898 8.81384 7.95825 8.76544 7.96729C6.33331 8.41797 5.15106 9.03809 5.15106 9.86255C5.15106 9.91187 5.16077 9.96069 5.17957 10.0061C5.19843 10.0515 5.22607 10.093 5.26086 10.1277C5.29572 10.1626 5.33704 10.1902 5.38257 10.209C5.42804 10.228 5.47681 10.2375 5.52606 10.2375Z" fill="#3E3E3E" fill-opacity="1.000000" fill-rule="nonzero"/>
		<path id="Vector" d="M12.7239 9.38745C12.7239 9.69385 12.9101 10.0232 13.2482 10.3157C13.5526 10.5791 14.1252 10.9338 15.1252 11.1274C15.6449 11.2239 16.1726 11.2703 16.7011 11.2666C17.3362 11.2629 17.9703 11.2136 18.5983 11.1189C19.9108 10.9282 20.5432 10.6392 20.7132 10.1528C20.8803 9.67505 20.496 9.26538 20.3698 9.1311C18.8563 7.51855 17.4092 7.61841 16.4618 7.98657C15.8166 8.23706 15.0996 8.35425 14.467 8.45752C14.0421 8.52686 13.6746 8.58691 13.3921 8.67822C12.9489 8.82153 12.7239 9.06006 12.7239 9.38745ZM14.588 9.19751C15.2238 9.09375 16.015 8.9646 16.7335 8.6853C17.7984 8.27197 18.8378 8.59424 19.8231 9.64404C19.9793 9.8103 20.0007 9.89062 20.0037 9.9082C19.9842 9.93945 19.7909 10.1875 18.4905 10.377C17.6899 10.4934 14.9825 10.7932 13.7567 9.76392C13.6446 9.67798 13.5534 9.56787 13.4901 9.44165C13.6719 9.34741 14.1953 9.26172 14.588 9.19775L14.588 9.19751Z" fill="#3E3E3E" fill-opacity="1.000000" fill-rule="nonzero"/>
		<path id="Vector" d="M10.952 11.8081C11.577 12.1272 12.6433 12.3215 13.6468 12.3215C13.8974 12.3223 14.1479 12.3091 14.3972 12.2822C14.496 12.2712 14.5864 12.2214 14.6486 12.1438C14.7107 12.0662 14.7394 11.9668 14.7285 11.8682C14.7175 11.7693 14.6677 11.6787 14.59 11.6167C14.5123 11.5544 14.4131 11.5256 14.3143 11.5366C13.1755 11.6631 11.8593 11.4292 11.293 11.1401C11.2491 11.1172 11.2011 11.1033 11.1518 11.0991C11.1025 11.0947 11.0528 11.1003 11.0057 11.1155C10.9585 11.1306 10.9148 11.1548 10.8771 11.1868C10.8394 11.2188 10.8083 11.2581 10.7858 11.302C10.7633 11.3462 10.7498 11.3943 10.7459 11.4436C10.7421 11.4929 10.7481 11.5427 10.7635 11.5896C10.779 11.6367 10.8036 11.6802 10.8359 11.7178C10.8682 11.7551 10.9077 11.7859 10.952 11.8081Z" fill="#3E3E3E" fill-opacity="1.000000" fill-rule="nonzero"/>
		<path id="Vector" d="M8.22833 9.6167L6.68805 10.2644C6.60028 10.3013 6.52618 10.3645 6.47583 10.4453C6.42554 10.5259 6.40149 10.6204 6.40704 10.7153C6.4126 10.8103 6.44751 10.9014 6.5069 10.9756C6.56628 11.05 6.64728 11.104 6.73871 11.1306L8.65881 11.6846C8.72076 11.7024 8.78577 11.707 8.84961 11.6982C8.91345 11.6892 8.97473 11.667 9.02948 11.6331L9.93744 11.0674C10.007 11.0242 10.0638 10.9629 10.1018 10.8904C10.1398 10.8176 10.1578 10.7363 10.1537 10.6543C10.1497 10.5725 10.1238 10.4932 10.0789 10.4246C10.0339 10.356 9.97144 10.3008 9.89789 10.2644L8.61041 9.62842C8.55127 9.59912 8.48657 9.58301 8.42065 9.58105C8.35474 9.5791 8.28912 9.59131 8.22833 9.6167ZM8.74261 10.9282L7.73553 10.6375L8.39697 10.3596L9.09894 10.7063L8.74261 10.9282Z" fill="#3E3E3E" fill-opacity="1.000000" fill-rule="nonzero"/>
		<path id="Vector" d="M20.5286 9.09619L21.4637 9.64087C21.4836 9.65234 21.5045 9.66211 21.5262 9.66992C21.5946 9.69434 21.668 9.70117 21.7397 9.6897C21.8115 9.67822 21.8792 9.64868 21.9365 9.60425L22.6704 9.03857C22.7298 8.99194 22.777 8.93164 22.808 8.86279C22.8389 8.79395 22.8527 8.71875 22.848 8.64331C22.8446 8.5686 22.8231 8.49585 22.7853 8.4314C22.7474 8.36694 22.6945 8.31274 22.6311 8.27319L21.5905 7.63721C21.527 7.5979 21.4543 7.57593 21.3798 7.57324C21.3051 7.57056 21.2311 7.58765 21.165 7.62231C21.1307 7.64014 21.0995 7.66309 21.0722 7.69043L20.4504 8.31494C20.3914 8.36255 20.3447 8.42358 20.3146 8.49292C20.2844 8.5625 20.2717 8.63818 20.2774 8.71387C20.2822 8.79395 20.3079 8.87134 20.352 8.93848C20.3961 9.00562 20.457 9.06006 20.5286 9.09619ZM21.4154 8.40869L21.8859 8.69629L21.6477 8.87964L21.204 8.62109L21.4154 8.40869Z" fill="#3E3E3E" fill-opacity="1.000000" fill-rule="nonzero"/>
		<path id="Vector" d="M11.0307 9.09546C11.0947 9.1416 11.1715 9.1665 11.2504 9.16675C11.3094 9.16675 11.3676 9.15283 11.42 9.12598C11.4725 9.09888 11.5178 9.05981 11.5521 9.01172C11.5737 8.98364 12.0975 8.323 13.6146 8.323C13.7141 8.323 13.8094 8.28345 13.8798 8.21313C13.9501 8.14282 13.9896 8.04736 13.9896 7.948C13.9896 7.84863 13.9501 7.75317 13.8798 7.68286C13.8094 7.61255 13.7141 7.573 13.6146 7.573C11.6834 7.573 10.9751 8.5293 10.9459 8.56982C10.8877 8.65088 10.864 8.75171 10.8798 8.85034C10.8957 8.94873 10.95 9.03687 11.0307 9.09546Z" fill="#3E3E3E" fill-opacity="1.000000" fill-rule="nonzero"/>
		<path id="Vector" d="M20.9149 10.9712C20.1824 11.575 18.7888 11.5732 18.7756 11.5723L18.7725 11.5723C18.673 11.572 18.5775 11.6111 18.5068 11.6809C18.4362 11.751 18.3962 11.8462 18.3958 11.9458C18.3954 12.0452 18.4344 12.1406 18.5045 12.2114C18.5745 12.282 18.6697 12.322 18.7691 12.3223L18.7819 12.3223C18.9498 12.3223 20.4804 12.3013 21.392 11.5498C21.43 11.5186 21.4615 11.48 21.4846 11.4365C21.5077 11.3931 21.522 11.3455 21.5267 11.2964C21.5315 11.2476 21.5265 11.198 21.5121 11.1509C21.4977 11.1038 21.4742 11.0601 21.4429 11.022C21.4115 10.9839 21.373 10.9526 21.3295 10.9294C21.2861 10.9062 21.2385 10.8918 21.1895 10.8872C21.1404 10.8826 21.0909 10.8875 21.0438 10.9019C20.9968 10.9163 20.9529 10.9399 20.9149 10.9712Z" fill="#3E3E3E" fill-opacity="1.000000" fill-rule="nonzero"/>
		<path id="Vector" d="M15.8856 9.86938C16.2797 9.98608 16.6888 10.0447 17.0999 10.0432C17.4857 10.0459 17.8694 9.9873 18.2368 9.86938C18.2835 9.85376 18.3268 9.82935 18.3641 9.79712C18.4014 9.76514 18.4321 9.72583 18.4543 9.68188C18.4764 9.63794 18.4897 9.59009 18.4934 9.54077C18.497 9.4917 18.491 9.44238 18.4756 9.39551C18.4601 9.34888 18.4357 9.30542 18.4035 9.26831C18.3713 9.23096 18.3322 9.2002 18.2881 9.17798C18.2442 9.15601 18.1963 9.14258 18.1472 9.13892C18.098 9.13525 18.0486 9.14136 18.0019 9.15674C17.0836 9.45972 16.1364 9.16187 16.1197 9.15674C16.0255 9.12646 15.923 9.13477 15.8348 9.17993C15.7466 9.22485 15.6798 9.30273 15.6489 9.39673C15.618 9.49097 15.6255 9.59326 15.6699 9.68188C15.7142 9.77026 15.7917 9.83765 15.8856 9.86938Z" fill="#3E3E3E" fill-opacity="1.000000" fill-rule="nonzero"/>
	</g>
</svg>
