<svg width="32.000061" height="30.116211" viewBox="0 0 32.0001 30.1162" fill="none" xmlns="http://www.w3.org/2000/svg" xmlns:xlink="http://www.w3.org/1999/xlink">
	<desc>
			Created with Pixso.
	</desc>
	<defs/>
	<path id="svg" d="M31.7392 7.37476C31.2512 5.74414 30.3533 4.24243 29.1427 3.03174C27.1975 1.08667 24.6115 0.0100098 21.8608 0C21.8481 0 21.8355 0 21.8228 0C19.0878 0 16.5103 1.05566 14.5614 2.97534C12.7415 4.76758 11.6729 7.12842 11.5122 9.67871C10.1681 9.50513 8.7948 9.59375 7.48267 9.94604C5.73975 10.4141 4.1405 11.3396 2.85767 12.6223C1.64661 13.8335 0.748535 15.3354 0.260742 16.9658C-0.298584 18.835 0.0512695 20.8079 1.22034 22.3787C2.22253 23.7249 3.67883 24.5837 5.30603 24.8115C5.53381 26.4397 6.39441 27.8972 7.7439 28.8989C8.82458 29.7009 10.0941 30.1162 11.3895 30.1162C11.9855 30.1162 12.587 30.0281 13.178 29.8496C14.7991 29.3604 16.2921 28.4651 17.4955 27.261C19.2897 25.4668 20.3517 23.0574 20.4935 20.5232C20.5326 20.5239 20.5717 20.5254 20.6106 20.5254C21.9066 20.5254 23.1766 20.1099 24.2573 19.3074C25.6061 18.3059 26.466 16.8489 26.6938 15.2214C28.3199 14.9939 29.7765 14.1353 30.779 12.7888C31.9488 11.2178 32.2988 9.24438 31.7392 7.37476ZM11.951 20.5303C11.6862 20.0852 11.111 19.9395 10.666 20.2043L10.014 20.5923C9.83679 19.7659 9.28723 19.0593 8.5083 18.6873C8.04089 18.4644 7.48145 18.6624 7.25842 19.1296C7.0354 19.5969 7.2334 20.1565 7.70068 20.3794C8.12939 20.584 8.1925 20.9741 8.19971 21.1321C8.20691 21.29 8.17993 21.6824 7.77466 21.9255L6.38318 22.7346C6.29333 22.6121 6.20874 22.4849 6.12988 22.3525C4.80103 20.1208 5.53564 17.2239 7.76733 15.895C8.52087 15.4465 9.35022 15.2329 10.1696 15.2329C11.7766 15.2329 13.3446 16.0544 14.2247 17.5325C15.5536 19.7642 14.8191 22.6611 12.5873 23.99C11.5062 24.6335 10.239 24.8179 9.01953 24.5085C8.6084 24.4043 8.22009 24.2471 7.86023 24.0447L11.6251 21.8152C12.0699 21.5503 12.2159 20.9751 11.951 20.5303ZM2.72449 21.2593C1.91248 20.1682 1.66907 18.7993 2.05688 17.5034C2.45605 16.1697 3.19128 14.9402 4.18335 13.9482C6.14246 11.989 8.8595 11.1284 11.561 11.5793C11.6421 12.2791 11.7925 12.9622 12.0088 13.6206C10.3177 13.1313 8.4364 13.3147 6.80823 14.2842C3.96509 15.9771 2.86047 19.4897 4.09241 22.4609C3.5658 22.1685 3.09949 21.7629 2.72449 21.2593ZM16.1697 25.9353C15.184 26.9216 13.9622 27.6545 12.636 28.0549C11.3339 28.4482 9.95801 28.2073 8.86133 27.3933C8.35767 27.0193 7.95203 26.5542 7.6593 26.0286C7.94922 26.1477 8.24939 26.2476 8.55872 26.3259C9.09888 26.4629 9.64563 26.5305 10.1888 26.5305C11.36 26.5305 12.5139 26.2156 13.5465 25.6008C15.7864 24.2671 16.9474 21.8037 16.7369 19.3657C17.3387 19.7058 17.9738 19.9851 18.6312 20.198C18.5664 22.355 17.6891 24.416 16.1697 25.9353ZM25.8702 12.7617C25.7912 12.8943 25.7062 13.0215 25.6166 13.1436L24.2254 12.3347C23.8203 12.0916 23.7932 11.699 23.8004 11.5413C23.8077 11.3833 23.8708 10.9932 24.2996 10.7886C24.7668 10.5654 24.9647 10.0059 24.7417 9.53857C24.5187 9.07129 23.9591 8.87329 23.4919 9.09668C22.713 9.46851 22.1635 10.175 21.9862 11.0015L21.3342 10.6133C20.8891 10.3484 20.314 10.4944 20.0492 10.9392C19.7843 11.384 19.9302 11.9595 20.3751 12.2244L24.137 14.4519C22.7139 15.252 20.9135 15.2925 19.4129 14.3989C18.3317 13.7554 17.566 12.729 17.2568 11.5095C16.9475 10.2898 17.1317 9.02271 17.7755 7.94165C19.1043 5.70996 22.001 4.97534 24.2328 6.3042C26.4645 7.63306 27.1991 10.5298 25.8702 12.7617ZM29.2752 11.6692C28.9003 12.1729 28.4341 12.5779 27.9077 12.8704C29.1397 9.89917 28.0352 6.38623 25.192 4.69336C22.0721 2.83569 18.0223 3.86255 16.1646 6.98242C15.2646 8.4939 15.0071 10.2651 15.4395 11.9702C15.8717 13.6753 16.9423 15.1101 18.4537 16.01C19.4863 16.6248 20.6401 16.9397 21.8114 16.9397C22.3544 16.9397 22.9014 16.8721 23.4415 16.7351C23.7508 16.6567 24.0511 16.5569 24.3411 16.4377C24.0485 16.9631 23.6431 17.4282 23.1396 17.8022C22.043 18.6165 20.6669 18.8579 19.3641 18.4641C18.0385 18.0637 16.8165 17.3308 15.8302 16.3445C14.2307 14.7507 13.3528 12.5842 13.3652 10.3193C13.3739 8.03149 14.2659 5.89771 15.877 4.31104C17.5205 2.69214 19.6717 1.88403 21.8227 1.88403C23.9958 1.88403 26.1688 2.70923 27.817 4.35742C28.8087 5.34912 29.5438 6.57837 29.9431 7.91235C30.3311 9.20874 30.0876 10.5781 29.2752 11.6692Z" fill="#3E3E3E" fill-opacity="1.000000" fill-rule="nonzero"/>
</svg>
