<svg width="24.987122" height="32.000000" viewBox="0 0 24.9871 32" fill="none" xmlns="http://www.w3.org/2000/svg" xmlns:xlink="http://www.w3.org/1999/xlink">
	<desc>
			Created with Pixso.
	</desc>
	<defs/>
	<path id="svg" d="M23.7844 6.18188C22.8029 4.96191 21.3494 4.23657 19.7968 4.19165C19.7437 4.18994 19.6905 4.18921 19.6371 4.18921C18.7913 4.18921 17.9603 4.38696 17.2096 4.7627C16.6338 4.47046 16.0059 4.28394 15.3546 4.21729L14.9249 0.819824C14.8656 0.351318 14.4671 0 13.9948 0L10.9932 0C10.5209 0 10.1223 0.351318 10.0631 0.819824L9.63336 4.21826C8.98694 4.28491 8.35645 4.46729 7.77576 4.75586C7.02875 4.38452 6.203 4.18921 5.36255 4.18921C4.43344 4.18921 3.51624 4.42847 2.71011 4.88086C0.731934 5.99146 -0.322052 8.26172 0.0874939 10.53C0.0889893 10.5386 0.0906067 10.5469 0.0923767 10.5552L0.171051 10.9319C1.13062 15.5295 1.61713 20.2419 1.61713 24.9385L1.61713 25.9209C1.61713 29.2485 4.2952 31.9756 7.58701 31.9998C7.60263 32 7.61807 32 7.6337 32C8.47888 32 9.29211 31.8286 10.0561 31.4912C10.7799 31.8123 11.5772 31.9937 12.4144 31.9998C12.4297 32 12.445 32 12.4604 32C13.3087 32 14.1301 31.8257 14.884 31.4937C15.6279 31.8232 16.4196 31.9939 17.2418 31.9998C17.2571 32 17.2724 32 17.2878 32C18.8862 32 20.3894 31.3811 21.5248 30.2539C22.6712 29.116 23.3026 27.5999 23.3026 25.9849L23.3026 25.2717C23.3034 20.3569 23.8364 15.4304 24.8869 10.6292C24.8888 10.6204 24.8906 10.6116 24.8922 10.6028C25.1882 9.03638 24.7845 7.42505 23.7844 6.18188ZM13.1684 1.875L13.4819 4.35376C13.1444 4.43896 12.8154 4.5564 12.4998 4.70483C12.1807 4.55469 11.8479 4.43652 11.5064 4.35107L11.8196 1.875L13.1684 1.875ZM7.6008 30.1248C5.33517 30.1082 3.492 28.2222 3.492 25.9209L3.492 24.9385C3.492 20.1135 2.99213 15.2722 2.00638 10.5488L1.93042 10.1851C1.66849 8.70679 2.34961 7.2334 3.62787 6.51587C4.1543 6.22046 4.75412 6.06421 5.36249 6.06421C5.59369 6.06421 5.82306 6.08691 6.04761 6.1311C5.06699 7.32568 4.62555 8.92798 4.91473 10.53C4.91626 10.5383 4.91788 10.5466 4.91962 10.5549L4.99832 10.9319C5.95789 15.5293 6.44437 20.2419 6.44437 24.9385L6.44437 25.9209C6.44437 27.5349 7.07443 29.0073 8.09888 30.0989C7.93494 30.1172 7.7688 30.126 7.6008 30.1248ZM12.4281 30.1248C10.1625 30.1082 8.31937 28.2222 8.31937 25.9209L8.31937 24.9385C8.31937 20.1135 7.81949 15.2722 6.83374 10.5488L6.75781 10.1853C6.49588 8.70679 7.177 7.2334 8.45526 6.51587C8.98169 6.22046 9.58148 6.06421 10.1899 6.06421C10.835 6.06421 11.4666 6.23901 12.0165 6.56982C12.3139 6.74878 12.6857 6.74878 12.9831 6.56982C13.5629 6.22119 14.2362 6.04663 14.9149 6.06592C15.9182 6.09497 16.8591 6.56567 17.4961 7.35742C18.149 8.16895 18.4142 9.21973 18.2247 10.2424C17.1474 15.1707 16.6009 20.2268 16.6001 25.2715L16.6 25.9849C16.6 27.0964 16.1654 28.1401 15.3764 28.9233C14.5874 29.7063 13.5397 30.1311 12.4281 30.1248ZM23.0521 10.2424C21.9748 15.1707 21.4283 20.2268 21.4275 25.2712L21.4274 25.9846C21.4274 27.0964 20.9929 28.1399 20.2038 28.9231C19.4223 29.699 18.3877 30.125 17.2872 30.125C17.2767 30.125 17.2661 30.125 17.2556 30.1248C17.1176 30.1238 16.9812 30.115 16.8461 30.1003C17.8979 28.9814 18.4751 27.5283 18.4751 25.9849L18.4752 25.2717C18.4759 20.3569 19.009 15.4304 20.0594 10.6292C20.0614 10.6204 20.0631 10.6116 20.0648 10.6028C20.3609 9.03638 19.9571 7.42505 18.957 6.18188C18.9451 6.16724 18.9328 6.15283 18.9207 6.13818C19.1898 6.08276 19.4655 6.05786 19.7422 6.06567C20.7456 6.09473 21.6864 6.56543 22.3235 7.35742C22.9765 8.16895 23.2417 9.21973 23.0521 10.2424Z" fill="#3E3E3E" fill-opacity="1.000000" fill-rule="nonzero"/>
</svg>
