<svg width="27.321228" height="27.428955" viewBox="0 0 27.3212 27.429" fill="none" xmlns="http://www.w3.org/2000/svg" xmlns:xlink="http://www.w3.org/1999/xlink">
	<desc>
			Created with Pixso.
	</desc>
	<defs/>
	<path id="svg" d="M3.89752 22.2856C3.65948 22.2524 3.51257 22.053 3.49707 21.8586L3.49573 21.8438L3.49548 21.8391C3.47504 21.293 3.48328 20.7534 3.51935 20.2212L3.70386 18.698C3.82098 18.0305 3.98419 17.3782 4.19464 16.7444C4.65009 15.3723 5.3136 14.1135 6.16937 12.9946C4.93323 12.8901 3.69427 12.6062 2.49036 12.1536L1.59235 11.7817C1.13135 11.5728 0.676941 11.3391 0.231628 11.0806C0.00115967 10.9365 -0.0344849 10.7141 0.026123 10.5159C1.19751 7.27271 3.28571 4.73413 6.06494 3.17456C6.29059 3.04785 6.57635 3.12817 6.70312 3.35376C6.82983 3.57959 6.74951 3.86548 6.52374 3.99194C4.19183 5.30078 2.38153 7.35938 1.24731 9.97925C1.35022 9.95703 1.45319 9.93555 1.55524 9.91455C2.13837 9.7937 2.86401 9.64331 2.99011 9.39331C3.354 8.67212 3.76636 7.85498 4.99365 7.40796C6.00629 7.03882 6.75616 7.21973 7.40448 7.4729C7.73834 6.86353 8.19678 6.24487 9.20752 5.87744C10.2211 5.50903 10.9697 5.69019 11.6167 5.94336C11.8895 5.4436 12.2474 4.93604 12.9273 4.56567C12.8216 3.90332 12.7644 3.22803 12.7551 2.54248C11.2731 2.46753 9.82202 2.66699 8.43573 3.13867C8.38568 3.15576 8.33472 3.16382 8.28467 3.16382C8.08948 3.16382 7.90729 3.04102 7.84094 2.84595C7.75751 2.60083 7.88861 2.33447 8.13367 2.25122C9.62323 1.74438 11.181 1.52808 12.7708 1.60474C12.7899 1.21729 12.824 0.826904 12.8733 0.433594C12.9037 0.188477 13.1153 0.0327148 13.3127 0.0239258C15.4229 -0.0922852 17.4289 0.214844 19.275 0.935547C21.0613 1.63306 22.618 2.68433 23.9021 4.06006C25.1876 5.43774 26.13 7.06592 26.7031 8.89917C27.2954 10.7939 27.4631 12.8198 27.2015 14.9207C27.1708 15.166 26.9606 15.3218 26.7617 15.3306C26.3624 15.3516 25.9954 15.3564 25.722 15.3518C25.573 18.28 24.446 21.042 22.5201 23.1726C20.4247 25.491 17.5477 26.9604 14.2003 27.4226C13.9408 27.4666 13.7489 27.2695 13.6907 27.104C13.5367 26.6338 13.4071 26.1628 13.3008 25.6926L13.1194 24.7471C12.8886 23.292 12.8868 21.8521 13.1105 20.4653C11.2569 21.6292 9.11066 22.2937 6.83392 22.4182L5.39362 22.4253C4.89874 22.4033 4.39972 22.3574 3.89752 22.2856ZM14.5541 9.13013C11.6378 9.55103 9.13586 10.9543 7.38892 12.9539C5.57892 15.0234 4.505 17.7725 4.42706 20.8835C4.51398 20.8247 4.60126 20.7664 4.68781 20.7085C5.18323 20.3782 5.79974 19.9668 5.82306 19.688C5.89032 18.8831 5.96649 17.9707 6.93695 17.0964C7.73755 16.375 8.50049 16.262 9.19647 16.2537C9.27777 15.5637 9.47113 14.8184 10.2706 14.0989C11.0723 13.3777 11.8344 13.2651 12.5289 13.2576C12.6091 12.5674 12.8006 11.8213 13.6019 11.0994C14.2033 10.5576 14.7835 10.3589 15.33 10.29C15.0494 9.91797 14.7907 9.53101 14.5541 9.13013ZM15.8876 5.45728C15.1244 4.63818 15.0181 3.84961 15.0052 3.1333C14.504 2.89624 14.1121 2.33472 13.7036 1.74512C13.5569 5.16235 14.6521 8.28735 16.8478 10.6438C19.105 13.0662 22.2551 14.3865 25.7924 14.4148C25.7331 14.3298 25.6746 14.2446 25.6166 14.1602C25.2928 13.6885 24.89 13.1013 24.6132 13.083C23.8081 13.0293 22.8955 12.9683 22.0049 12.0127C21.271 11.2251 21.1445 10.4651 21.1245 9.77002C20.4325 9.70142 19.683 9.52222 18.9485 8.73511C18.2145 7.94849 18.0872 7.18896 18.0665 6.49414C17.3735 6.42529 16.6228 6.24609 15.8876 5.45728ZM17.4293 4.02173C16.9446 3.5022 16.4672 3.35376 15.9483 3.29126C15.9744 3.81226 16.0892 4.29834 16.5735 4.81812C17.0585 5.33838 17.5362 5.48706 18.0556 5.54956C18.0292 5.02759 17.9141 4.54102 17.4293 4.02173ZM20.4841 7.302C20.001 6.78345 19.525 6.63403 19.0079 6.57104C19.0346 7.09155 19.1503 7.57715 19.634 8.09546C20.1171 8.61304 20.5927 8.76245 21.1093 8.8252C21.083 8.30566 20.9677 7.82104 20.4841 7.302ZM23.5418 10.5811C23.0577 10.0623 22.5822 9.91357 22.0659 9.85107C22.0925 10.3708 22.2083 10.8557 22.6909 11.3735C23.1747 11.8928 23.6511 12.0417 24.1688 12.1047C24.1436 11.5752 24.0302 11.1042 23.5418 10.5811ZM18.5409 19.9084C19.0369 19.7478 19.476 19.5105 19.8514 18.9089C20.2263 18.3086 20.2474 17.8105 20.1743 17.2952C19.6794 17.4551 19.241 17.6919 18.8649 18.2935C18.4892 18.894 18.468 19.3926 18.5409 19.9084ZM16.1647 23.7126C16.6614 23.5525 17.1011 23.3159 17.4777 22.7136C17.8549 22.1104 17.8748 21.6106 17.8008 21.0925C17.3034 21.2532 16.8632 21.4902 16.4868 22.093C16.1105 22.6958 16.0907 23.1953 16.1647 23.7126ZM15.5364 16.4949C13.8751 19.2656 13.4552 22.585 14.3232 25.9285C14.3885 25.8503 14.4541 25.7727 14.5192 25.6958L14.5253 25.6887C14.9103 25.2344 15.3896 24.6692 15.3352 24.3945C15.1779 23.6025 14.9998 22.7046 15.6916 21.5964C16.2625 20.6824 16.9646 20.3633 17.6313 20.1633C17.5193 19.4778 17.4998 18.708 18.0699 17.7964C18.6417 16.8818 19.3432 16.5637 20.0089 16.3647C19.905 15.7354 19.8787 15.0347 20.3173 14.2161C19.6714 13.9341 19.0575 13.604 18.4778 13.2273C17.8591 13.6956 17.2892 14.2224 16.781 14.7966C16.6884 14.9014 16.5594 14.9546 16.4298 14.9546C16.3194 14.9546 16.2085 14.9158 16.1193 14.8369C15.9254 14.6653 15.9073 14.3691 16.0789 14.1753C16.5634 13.6279 17.0999 13.1211 17.6781 12.6619C17.3073 12.3767 16.9527 12.0706 16.6149 11.7437C16.4877 12.2734 16.2286 12.8225 15.6341 13.3574C14.8339 14.0774 14.0717 14.1909 13.3763 14.1987C13.2958 14.8894 13.1035 15.6355 12.3038 16.3562C11.5045 17.0764 10.7427 17.1902 10.0477 17.199C9.9668 17.8906 9.77466 18.6382 8.9729 19.3594C8.14075 20.1082 7.35046 20.2009 6.63391 20.2014C6.38843 20.6978 5.82092 21.0796 5.22473 21.4773C8.2608 21.656 11.1229 20.8398 13.4008 19.1287C13.6995 18.0408 14.1433 16.9951 14.7324 16.0127C14.8655 15.7905 15.1535 15.7188 15.3754 15.8518C15.5975 15.9849 15.6696 16.2727 15.5364 16.4949ZM7.56451 17.793C7.03656 18.2686 6.87982 18.7434 6.80841 19.261C7.32996 19.2441 7.81775 19.1379 8.34595 18.6626C8.87469 18.1868 9.03162 17.7117 9.10333 17.1936C8.58099 17.2107 8.09235 17.3174 7.56451 17.793ZM10.8977 14.7959C10.3708 15.2698 10.2131 15.7432 10.1411 16.259C10.6621 16.2415 11.1495 16.1343 11.6764 15.6597C12.2023 15.1858 12.3598 14.7129 12.4316 14.1975C11.9117 14.2146 11.4251 14.3213 10.8977 14.7959ZM14.2296 11.7959C13.7025 12.2708 13.5454 12.7437 13.4739 13.2585C13.9941 13.241 14.4809 13.134 15.0071 12.6606C15.5344 12.186 15.6919 11.7126 15.7637 11.1965C15.2432 11.2144 14.7559 11.3218 14.2296 11.7959ZM21.197 14.5635C20.8635 15.1331 20.8473 15.6116 20.9176 16.1057C21.4128 15.9456 21.8513 15.7083 22.2266 15.1079C22.2678 15.0422 22.3047 14.9768 22.3384 14.9121C21.9519 14.8127 21.5714 14.6963 21.197 14.5635ZM16.2562 24.6646C16.157 25.2102 15.7158 25.7344 15.2516 26.2817C20.7797 25.0542 24.5156 20.793 24.7859 15.3113C24.2752 15.2729 23.7719 15.2092 23.2774 15.1187C23.2077 15.281 23.1231 15.4424 23.0214 15.605C22.4507 16.5178 21.7492 16.8367 21.083 17.0359C21.1959 17.7222 21.2167 18.4924 20.6465 19.4055C20.0767 20.3181 19.3759 20.6377 18.7102 20.8376C18.8231 21.5247 18.8444 22.2961 18.2726 23.2107C17.6792 24.1597 16.945 24.4666 16.2562 24.6646ZM26.3707 13.6023C26.5139 10.1816 25.4152 7.05542 23.2168 4.69971C20.9608 2.28223 17.8159 0.966553 14.2847 0.938965C14.3451 1.02466 14.4048 1.11084 14.4639 1.19629C14.803 1.68579 15.2249 2.29492 15.5043 2.31348C16.3103 2.3667 17.2237 2.427 18.1147 3.38184C18.85 4.16992 18.9766 4.93066 18.9969 5.62646C19.6882 5.6958 20.4369 5.87598 21.17 6.66284C21.9052 7.4519 22.0309 8.21167 22.0507 8.90625C22.7421 8.97437 23.4915 9.15283 24.2272 9.94141C24.9908 10.7598 25.0981 11.5466 25.1115 12.2615C25.6031 12.4919 25.9796 13.0325 26.3707 13.6023ZM13.374 6.46851C13.2679 6.1311 13.1743 5.76709 13.1228 5.55103C12.842 5.76099 12.6548 6.01514 12.4922 6.2981C12.7754 6.40186 13.058 6.47314 13.374 6.46851ZM11.1741 6.77808C10.6857 6.59937 10.1945 6.51611 9.52783 6.75854C8.862 7.00049 8.53851 7.38013 8.27838 7.83154C8.76807 8.0105 9.26019 8.09375 9.92621 7.85107C10.5912 7.60864 10.9144 7.229 11.1741 6.77808ZM6.96588 8.30933C6.4751 8.12964 5.98224 8.04541 5.3147 8.28857C4.64716 8.53174 4.32404 8.91333 4.06396 9.36646C4.55389 9.5459 5.04608 9.63013 5.71344 9.38745C6.3819 9.14453 6.70526 8.7627 6.96588 8.30933ZM4.91669 10.4775C4.3952 10.4775 3.95288 10.3354 3.5484 10.1724C3.1347 10.5405 2.46637 10.6829 1.76453 10.8284C3.42889 11.6165 5.18958 12.05 6.92511 12.0969C8.7926 10.0828 11.2958 8.74023 14.0848 8.25659C13.9462 7.97217 13.8176 7.68164 13.6997 7.38501C13.5765 7.40015 13.4575 7.40723 13.3423 7.40723C12.8526 7.40723 12.4326 7.28247 12.0499 7.13306C11.7164 7.74341 11.2586 8.36328 10.2471 8.73169C9.23627 9.1001 8.48724 8.92065 7.83954 8.66821C7.50549 9.27905 7.0473 9.90015 6.03375 10.2688C5.62134 10.4187 5.25262 10.4775 4.91669 10.4775Z" fill="#3E3E3E" fill-opacity="1.000000" fill-rule="evenodd"/>
</svg>
