<svg width="24" height="28" viewBox="0 0 24 28" fill="none" xmlns="http://www.w3.org/2000/svg">
<path d="M6.90252 6.63561C7.22463 7.07858 7.5626 7.50842 7.9126 7.93116C8.89424 9.10256 9.98525 10.1914 11.2081 11.1134C11.6904 11.4552 12.3855 11.4333 12.8449 11.062C14.5883 9.67186 16.0413 7.95249 17.2505 6.10295C17.8378 5.1153 18.032 3.89905 17.7684 2.77905C17.4277 1.2921 15.9932 0.201627 14.4735 0.280377C13.92 0.29897 13.3726 0.475064 12.9039 0.767095C12.7399 0.867174 12.3609 1.09194 12.1996 1.19038C12.0694 1.27022 11.8971 1.256 11.7774 1.16358L11.721 1.12694C11.5061 0.98858 11.143 0.74358 10.9253 0.611783C10.5174 0.370611 10.0585 0.226783 9.58385 0.180845C7.99244 0.0184236 6.4333 1.11545 6.04119 2.68116C5.8126 3.60045 5.88424 4.5892 6.23424 5.47131C6.39611 5.88585 6.6351 6.28506 6.90252 6.63561ZM7.13002 1.96475C7.78135 0.77858 9.29291 0.262877 10.5442 0.779674C10.8236 0.88358 11.2037 1.13569 11.4656 1.28389C11.5094 1.31014 11.5947 1.35881 11.639 1.38616C11.8474 1.52397 12.1323 1.52561 12.339 1.38452C12.4883 1.28991 12.8607 1.04874 13.0171 0.950299C13.4519 0.662095 13.9616 0.501314 14.4817 0.475611C15.5191 0.425845 16.5516 0.997877 17.0553 1.90405C17.3949 2.4985 17.4742 3.19741 17.3812 3.86624C17.2904 4.52741 17.0268 5.15522 16.6194 5.67967C16.4067 5.94983 16.1633 6.19975 15.9314 6.45514C14.713 7.75288 13.4328 8.94178 12.024 9.99725C12.0213 9.99944 12.0196 10.0005 12.0202 9.99999H12.0191C12.0163 10.0016 12.0131 10.0011 12.0098 10.0011C12.0032 10.0022 11.9923 9.99999 11.9874 9.99561C11.9868 9.99397 11.9852 9.99397 11.9841 9.99233C11.9841 9.99178 11.9835 9.99178 11.983 9.99178L11.9595 9.97319L11.9086 9.93327C10.5376 8.86085 9.30002 7.62819 8.14885 6.3217C7.9301 6.06741 7.6933 5.81475 7.49697 5.54624C7.31268 5.29577 7.16447 5.01795 7.04799 4.72538C6.71276 3.84928 6.65369 2.80311 7.13002 1.96475Z" fill="#3E3E3E"/>
<path d="M23.8072 9.75287C22.9164 9.84037 22.136 10.2904 21.4704 10.8494C20.8481 11.3804 20.276 11.9951 19.9091 12.741C19.8489 12.7164 19.7855 12.7 19.7199 12.6934C17.1474 12.7541 14.5727 12.9215 11.9991 12.8394C9.61854 12.77 6.9312 12.6398 4.54135 12.5184L4.38604 12.5108L4.36635 12.5097H4.35104C4.26792 12.5086 4.18479 12.5195 4.1044 12.5419C4.07049 12.5501 4.03768 12.5616 4.00487 12.5753C3.94471 12.467 3.88073 12.3636 3.8151 12.263C3.22503 11.3973 2.41073 10.6301 1.48159 10.145C1.07417 9.94537 0.663464 9.79334 0.190417 9.75287C0.109479 9.74576 0.0433075 9.82888 0.0695575 9.90654C0.36487 10.752 0.987213 11.4028 1.68776 11.9174C2.27073 12.3385 2.90674 12.7065 3.60346 12.9116C3.58159 12.9444 3.56135 12.9783 3.5444 13.0128C3.47385 13.1402 3.35682 13.3601 3.28518 13.4913C3.18674 13.6778 2.63003 14.7004 2.54745 14.8601C2.52667 14.8979 2.45612 15.0329 2.43807 15.0663C2.13948 15.5891 2.51901 16.2612 3.11456 16.2886L3.29776 16.2962C3.51049 16.3039 3.72323 16.3099 3.93596 16.3165C3.66909 19.5797 3.55096 22.8494 3.47167 26.1203C3.43065 26.7082 3.90753 27.2376 4.4987 27.254C9.4769 27.348 14.5164 27.3125 19.4967 27.202C20.0606 27.1856 20.5123 26.6792 20.4724 26.1197C20.3865 22.7887 20.2635 19.4594 20.0376 16.13C20.258 16.1207 20.4789 16.1114 20.6993 16.1015L20.8732 16.0939C20.9996 16.0862 21.1297 16.0376 21.2298 15.9566C21.471 15.7696 21.5377 15.4114 21.3824 15.1511L21.3457 15.0827L21.2724 14.9454C21.1866 14.7781 20.6332 13.7582 20.5391 13.5739C20.4844 13.4744 20.3745 13.2633 20.3198 13.1621C20.293 13.114 20.2804 13.0806 20.229 12.9991C20.2208 12.9871 20.2115 12.9761 20.2028 12.9647C20.351 12.928 20.4921 12.8826 20.6304 12.8334C21.611 12.4648 22.5494 11.8556 23.2401 11.067C23.5305 10.7186 23.7755 10.3555 23.9264 9.90545C23.9538 9.82943 23.8882 9.74576 23.8072 9.75287ZM19.4809 15.2686L17.3142 13.1019C17.6795 13.1151 18.0448 13.1287 18.4101 13.1424L20.5834 15.3157C20.2159 15.2993 19.8484 15.284 19.4809 15.2686ZM16.4851 15.1576L14.3474 13.0199C14.7176 13.0248 15.0884 13.0325 15.4586 13.0423C15.4635 13.0686 15.4761 13.0932 15.4964 13.1134L17.5778 15.1948C17.2135 15.1817 16.8493 15.1691 16.4851 15.1576ZM17.9797 15.2096L15.8217 13.0522C16.1854 13.0626 16.5491 13.0751 16.9133 13.0877L19.0778 15.2522C18.712 15.2375 18.3461 15.2233 17.9797 15.2096ZM14.0094 13.0166C14.0105 13.05 14.0236 13.0828 14.0488 13.1085L16.0859 15.1451C15.7233 15.1336 15.3607 15.1232 14.9987 15.1133L12.9025 13.0172C13.2717 13.0133 13.6403 13.0133 14.0094 13.0166ZM12.5536 13.0221C12.5585 13.0478 12.5711 13.0724 12.5914 13.0926L14.6017 15.1029C14.2396 15.0936 13.8776 15.0854 13.5156 15.0772L11.4894 13.0511C11.6606 13.0456 11.8312 13.0401 11.9996 13.0347C12.1839 13.0297 12.3688 13.0254 12.5536 13.0221ZM9.57643 14.4101L10.1982 15.0319C9.91385 15.0302 9.62948 15.0291 9.34456 15.0286L9.57643 14.4101ZM10.5876 15.034L9.69237 14.1388C9.80229 13.908 9.93901 13.6909 10.0998 13.4908L11.6546 15.0455C11.2985 15.0406 10.9431 15.0368 10.5876 15.034ZM12.0461 15.0504L10.2742 13.2786L10.4328 13.0877C10.6614 13.0795 10.8889 13.0713 11.1148 13.0636L13.1202 15.069C12.762 15.0619 12.4038 15.0559 12.0461 15.0504ZM4.37018 13.383C4.36198 13.3819 4.3587 13.3721 4.36253 13.3655L4.36307 13.365C4.36307 13.365 4.36307 13.3644 4.36745 13.3644L4.38714 13.3633L4.54245 13.3557L7.02854 13.2326C8.00745 13.1851 9.04268 13.1402 10.067 13.1014L9.92534 13.272C9.66776 13.5821 9.46542 13.931 9.32378 14.3089L9.05417 15.0286C7.2462 15.0291 5.43878 15.0559 3.63245 15.1166C3.81401 14.695 4.05409 14.1388 4.15034 13.908C4.19518 13.8079 4.2887 13.5783 4.33354 13.4787C4.34995 13.4355 4.38276 13.3628 4.37018 13.383ZM4.53643 25.9951C4.53698 25.9951 4.53698 25.9951 4.53643 25.9951C4.53424 25.9951 4.53534 25.9951 4.53643 25.9951ZM19.4617 26.047C19.4623 26.047 19.4623 26.047 19.4617 26.047C19.4628 26.047 19.4634 26.047 19.4617 26.047ZM19.6603 18.2278L17.8802 18.5455C17.6084 18.5942 17.3891 18.7878 17.3076 19.0514L17.0189 19.9838C16.9729 20.1315 16.857 20.2458 16.7088 20.2895L7.28612 23.0698C6.93503 23.1732 6.65885 23.4433 6.54729 23.7911L6.06385 25.2978C6.04088 25.3694 6.08026 25.4465 6.15245 25.4695C6.16612 25.4739 6.18034 25.4761 6.19401 25.4761C6.25198 25.4761 6.30557 25.4389 6.32417 25.3809L6.8076 23.8743C6.89182 23.6123 7.09964 23.4094 7.36378 23.3312L16.7864 20.5509C17.0227 20.4809 17.2075 20.2988 17.2803 20.0636L17.569 19.1312C17.6204 18.9655 17.7582 18.8441 17.9283 18.8135L19.6449 18.5072C19.5 21.1016 19.3874 23.7999 19.3715 26.0437C19.3299 26.0426 19.2785 26.0415 19.2785 26.0415C15.323 25.9568 11.292 25.9207 7.34081 25.9551C6.62385 25.9601 5.4344 25.9786 4.72018 25.9912C4.71526 25.9912 4.70651 25.9912 4.69667 25.9918C4.61518 22.769 4.49815 19.5408 4.23565 16.3258C9.41729 16.4778 14.6088 16.3597 19.7877 16.1409C19.7434 16.8201 19.7007 17.519 19.6603 18.2278ZM20.7338 15.4726C20.7376 15.4819 20.742 15.4923 20.7464 15.5016C20.7398 15.4923 20.736 15.4825 20.7338 15.4726ZM20.4357 14.7808L18.8115 13.1566C19.0784 13.1659 19.3453 13.1752 19.6127 13.1834C19.6832 13.1807 19.7549 13.2206 19.786 13.2829C19.9638 13.6942 20.2115 14.2635 20.4357 14.7808Z" fill="#3E3E3E"/>
</svg>
