<svg width="28" height="33" viewBox="0 0 28 33" fill="none" xmlns="http://www.w3.org/2000/svg">
<path d="M4.77734 19.5572C4.77734 24.0535 8.99737 27.7373 14.2323 27.7373C19.4139 27.7373 23.6874 24.0535 23.6874 19.5572C23.6874 15.0609 19.4139 11.3772 14.2323 11.3772C9.05079 11.3772 4.77734 15.0609 4.77734 19.5572ZM22.5656 17.607H22.1916C21.978 17.607 21.7643 17.7695 21.7643 18.0404C21.7643 18.3113 21.978 18.4196 22.1916 18.4196H22.7792C22.8327 18.7988 22.8861 19.178 22.8861 19.5572C22.8861 20.6948 22.5656 21.8325 21.978 22.8076L21.8711 22.6992C21.7109 22.5367 21.4438 22.5367 21.2835 22.6992C21.1233 22.8617 21.1233 23.1326 21.2835 23.2951L21.4972 23.5118C20.5891 24.7036 19.3071 25.6787 17.7579 26.2746L17.5977 25.8954C17.4909 25.6787 17.2772 25.6245 17.0635 25.7329C16.8498 25.8412 16.7964 26.0579 16.9033 26.2746L17.0101 26.5455C16.1554 26.8163 15.1939 26.9247 14.2323 26.9247C13.3777 26.9247 12.5764 26.8163 11.8285 26.5996L11.9888 26.1663C12.0956 25.9496 11.9888 25.7329 11.7751 25.6245C11.5614 25.5162 11.3478 25.6245 11.2409 25.8412L11.0273 26.3829C9.3713 25.787 7.92901 24.8119 6.96749 23.5118L7.34141 23.1326C7.50167 22.9701 7.50167 22.6992 7.34141 22.5367C7.18116 22.3742 6.91407 22.3742 6.75381 22.5367L6.48672 22.8076C5.89912 21.8325 5.57862 20.6948 5.57862 19.5031C5.57862 19.1238 5.63203 18.7446 5.68545 18.3654H5.79229H6.32647C6.54014 18.3654 6.75381 18.2029 6.75381 17.9321C6.75381 17.6612 6.59356 17.4987 6.32647 17.4987H5.84571C6.27305 16.0902 7.18116 14.8442 8.40978 13.9233V13.9775L8.7837 14.3567C8.94396 14.5192 9.21105 14.5192 9.3713 14.3567C9.53155 14.1942 9.53155 13.9233 9.3713 13.7608L9.15763 13.5983C10.4931 12.7857 12.149 12.244 13.9118 12.1898V12.569C13.9118 12.7857 14.0721 13.0024 14.3392 13.0024C14.5529 13.0024 14.7131 12.8399 14.7131 12.569V12.1898C16.3691 12.244 17.9182 12.7315 19.2002 13.4899L18.7195 13.9775C18.5592 14.14 18.5592 14.4109 18.7195 14.5734C18.8797 14.7359 19.1468 14.7359 19.3071 14.5734L19.7878 14.0858C19.8413 14.0316 19.8413 14.0316 19.8413 13.9775C21.1233 14.8984 22.0848 16.1444 22.5656 17.607Z" fill="#3E3E3E"/>
<path d="M15.2479 18.9054L14.6603 15.5467C14.6068 15.33 14.4466 15.2217 14.2863 15.2217C14.0727 15.2217 13.9124 15.3842 13.9124 15.5467L13.4316 18.7971C12.7906 19.0679 12.3633 19.6096 12.3633 20.2597C12.3633 21.1806 13.218 21.8849 14.2863 21.8849C15.3547 21.8849 16.2094 21.1806 16.2094 20.2597C16.156 19.6638 15.782 19.1763 15.2479 18.9054ZM14.3398 18.2012L14.3932 18.6345C14.3398 18.6345 14.2863 18.6345 14.2329 18.6345L14.3398 18.2012ZM14.2329 21.0723C13.6453 21.0723 13.1111 20.6931 13.1111 20.2597C13.1111 19.8263 13.5919 19.4471 14.2329 19.4471C14.8205 19.4471 15.3547 19.8263 15.3547 20.2597C15.3547 20.6931 14.8739 21.0723 14.2329 21.0723Z" fill="#3E3E3E"/>
<path d="M15.9939 5.85062C19.84 5.6881 23.7395 4.82134 26.7844 2.32941C27.1583 2.00438 28.1198 0.975103 27.9061 0.433379C27.7993 0.162517 27.5322 0 27.2651 0C18.5046 0.704241 9.69056 0.866758 1.09025 0.541724C0.823155 0.541724 0.556064 0.704241 0.449228 0.975103V1.02928C0.342392 1.02928 0.288974 1.19179 0.342392 1.40848C0.342392 2.05855 0.929991 2.60027 1.41075 2.92531C4.56242 5.03803 8.56878 5.57975 12.3615 5.79644C12.8422 6.60903 12.6286 7.90917 12.2012 8.77592C12.041 8.8301 11.9341 8.8301 11.7739 8.88427C6.75257 9.91354 2.85304 13.2722 1.19708 19.4479C0.39581 22.3732 0.235556 25.461 0.0218831 28.5488C-0.031535 29.4156 -0.031535 30.3365 0.556064 30.9324C1.03683 31.42 1.78468 31.5283 2.53253 31.4741C2.58595 31.7992 2.69279 32.1784 2.95988 32.3951C3.97482 33.4244 5.52395 32.6118 5.47053 31.3116C10.8658 31.3116 16.7418 31.2033 23.2588 31.0408C23.3656 31.7992 24.0066 32.5034 24.8079 32.5034C25.5557 32.5034 26.2502 31.7992 26.3036 30.9324C26.6775 30.9324 26.998 30.8241 27.3185 30.499C27.639 30.1198 27.7993 29.6323 27.7459 29.1989L26.8912 21.1814C26.6775 19.4479 26.5173 17.606 25.8228 15.9267C24.3271 12.1346 20.7481 9.37182 16.5815 8.72175C16.3144 8.66758 16.0473 8.66758 15.8336 8.61341C15.6734 7.58413 15.7268 6.6632 15.9939 5.85062ZM26.998 0.866758C23.5259 4.22544 18.0772 4.713 13.2696 4.65882C9.10296 4.60465 4.50901 4.17127 1.35734 1.35431C9.7974 1.67934 18.3977 1.51683 26.998 0.866758ZM3.49406 31.8534C3.38722 31.745 3.28039 31.5825 3.28039 31.42C3.76115 31.3658 4.1885 31.3658 4.66926 31.3116C4.66926 31.9075 4.02824 32.3951 3.49406 31.8534ZM24.8079 31.745C24.4874 31.745 24.1669 31.42 24.1135 31.0408C24.5942 31.0408 25.075 31.0408 25.5023 30.9866C25.4489 31.42 25.1284 31.745 24.8079 31.745ZM25.0216 16.2517C25.6626 17.8227 25.8763 19.6104 26.0365 21.2897L26.8912 29.3073C26.9446 29.6323 26.6241 30.174 26.357 30.174C17.1691 30.4449 9.2098 30.499 2.10519 30.499C1.94494 30.499 1.8381 30.4449 1.73126 30.3365C1.62443 30.2282 1.57101 30.0657 1.57101 29.9573C1.57101 26.8695 1.67784 23.565 2.37228 20.3688C2.79963 18.3644 3.70773 15.4933 5.63078 13.2181C7.60726 10.8345 11.026 9.37182 14.4982 9.37182C15.1392 9.37182 15.7802 9.42599 16.4212 9.53434C20.3208 10.1844 23.6327 12.7305 25.0216 16.2517ZM13.8038 8.61341C13.964 7.69248 13.964 6.71737 13.6969 5.79644H15.1926C14.979 6.60903 14.8721 7.52996 14.979 8.55923C14.5516 8.61341 14.1777 8.61341 13.8038 8.61341Z" fill="#3E3E3E"/>
</svg>
